%TF.GenerationSoftware,KiCad,Pcbnew,(5.1.9)-1*%
%TF.CreationDate,2021-06-03T21:33:33+01:00*%
%TF.ProjectId,SpreaderPanel,53707265-6164-4657-9250-616e656c2e6b,rev?*%
%TF.SameCoordinates,Original*%
%TF.FileFunction,Legend,Bot*%
%TF.FilePolarity,Positive*%
%FSLAX46Y46*%
G04 Gerber Fmt 4.6, Leading zero omitted, Abs format (unit mm)*
G04 Created by KiCad (PCBNEW (5.1.9)-1) date 2021-06-03 21:33:33*
%MOMM*%
%LPD*%
G01*
G04 APERTURE LIST*
%ADD10C,0.350000*%
%ADD11C,0.300000*%
G04 APERTURE END LIST*
D10*
X149158714Y-47269523D02*
X148873000Y-47364761D01*
X148396809Y-47364761D01*
X148206333Y-47269523D01*
X148111095Y-47174285D01*
X148015857Y-46983809D01*
X148015857Y-46793333D01*
X148111095Y-46602857D01*
X148206333Y-46507619D01*
X148396809Y-46412380D01*
X148777761Y-46317142D01*
X148968238Y-46221904D01*
X149063476Y-46126666D01*
X149158714Y-45936190D01*
X149158714Y-45745714D01*
X149063476Y-45555238D01*
X148968238Y-45460000D01*
X148777761Y-45364761D01*
X148301571Y-45364761D01*
X148015857Y-45460000D01*
X147253952Y-47269523D02*
X146968238Y-47364761D01*
X146492047Y-47364761D01*
X146301571Y-47269523D01*
X146206333Y-47174285D01*
X146111095Y-46983809D01*
X146111095Y-46793333D01*
X146206333Y-46602857D01*
X146301571Y-46507619D01*
X146492047Y-46412380D01*
X146873000Y-46317142D01*
X147063476Y-46221904D01*
X147158714Y-46126666D01*
X147253952Y-45936190D01*
X147253952Y-45745714D01*
X147158714Y-45555238D01*
X147063476Y-45460000D01*
X146873000Y-45364761D01*
X146396809Y-45364761D01*
X146111095Y-45460000D01*
X145253952Y-46602857D02*
X143730142Y-46602857D01*
X142396809Y-45364761D02*
X142206333Y-45364761D01*
X142015857Y-45460000D01*
X141920619Y-45555238D01*
X141825380Y-45745714D01*
X141730142Y-46126666D01*
X141730142Y-46602857D01*
X141825380Y-46983809D01*
X141920619Y-47174285D01*
X142015857Y-47269523D01*
X142206333Y-47364761D01*
X142396809Y-47364761D01*
X142587285Y-47269523D01*
X142682523Y-47174285D01*
X142777761Y-46983809D01*
X142873000Y-46602857D01*
X142873000Y-46126666D01*
X142777761Y-45745714D01*
X142682523Y-45555238D01*
X142587285Y-45460000D01*
X142396809Y-45364761D01*
X140015857Y-45364761D02*
X140396809Y-45364761D01*
X140587285Y-45460000D01*
X140682523Y-45555238D01*
X140873000Y-45840952D01*
X140968238Y-46221904D01*
X140968238Y-46983809D01*
X140873000Y-47174285D01*
X140777761Y-47269523D01*
X140587285Y-47364761D01*
X140206333Y-47364761D01*
X140015857Y-47269523D01*
X139920619Y-47174285D01*
X139825380Y-46983809D01*
X139825380Y-46507619D01*
X139920619Y-46317142D01*
X140015857Y-46221904D01*
X140206333Y-46126666D01*
X140587285Y-46126666D01*
X140777761Y-46221904D01*
X140873000Y-46317142D01*
X140968238Y-46507619D01*
X137444428Y-47364761D02*
X137444428Y-45364761D01*
X136301571Y-47364761D02*
X137158714Y-46221904D01*
X136301571Y-45364761D02*
X137444428Y-46507619D01*
X135158714Y-47364761D02*
X135349190Y-47269523D01*
X135444428Y-47174285D01*
X135539666Y-46983809D01*
X135539666Y-46412380D01*
X135444428Y-46221904D01*
X135349190Y-46126666D01*
X135158714Y-46031428D01*
X134873000Y-46031428D01*
X134682523Y-46126666D01*
X134587285Y-46221904D01*
X134492047Y-46412380D01*
X134492047Y-46983809D01*
X134587285Y-47174285D01*
X134682523Y-47269523D01*
X134873000Y-47364761D01*
X135158714Y-47364761D01*
X133730142Y-47269523D02*
X133539666Y-47364761D01*
X133158714Y-47364761D01*
X132968238Y-47269523D01*
X132873000Y-47079047D01*
X132873000Y-46983809D01*
X132968238Y-46793333D01*
X133158714Y-46698095D01*
X133444428Y-46698095D01*
X133634904Y-46602857D01*
X133730142Y-46412380D01*
X133730142Y-46317142D01*
X133634904Y-46126666D01*
X133444428Y-46031428D01*
X133158714Y-46031428D01*
X132968238Y-46126666D01*
X132015857Y-47364761D02*
X132015857Y-46031428D01*
X132015857Y-46221904D02*
X131920619Y-46126666D01*
X131730142Y-46031428D01*
X131444428Y-46031428D01*
X131253952Y-46126666D01*
X131158714Y-46317142D01*
X131158714Y-47364761D01*
X131158714Y-46317142D02*
X131063476Y-46126666D01*
X130873000Y-46031428D01*
X130587285Y-46031428D01*
X130396809Y-46126666D01*
X130301571Y-46317142D01*
X130301571Y-47364761D01*
X129349190Y-47364761D02*
X129349190Y-46031428D01*
X129349190Y-45364761D02*
X129444428Y-45460000D01*
X129349190Y-45555238D01*
X129253952Y-45460000D01*
X129349190Y-45364761D01*
X129349190Y-45555238D01*
X127539666Y-47269523D02*
X127730142Y-47364761D01*
X128111095Y-47364761D01*
X128301571Y-47269523D01*
X128396809Y-47174285D01*
X128492047Y-46983809D01*
X128492047Y-46412380D01*
X128396809Y-46221904D01*
X128301571Y-46126666D01*
X128111095Y-46031428D01*
X127730142Y-46031428D01*
X127539666Y-46126666D01*
X125253952Y-47269523D02*
X124968238Y-47364761D01*
X124492047Y-47364761D01*
X124301571Y-47269523D01*
X124206333Y-47174285D01*
X124111095Y-46983809D01*
X124111095Y-46793333D01*
X124206333Y-46602857D01*
X124301571Y-46507619D01*
X124492047Y-46412380D01*
X124873000Y-46317142D01*
X125063476Y-46221904D01*
X125158714Y-46126666D01*
X125253952Y-45936190D01*
X125253952Y-45745714D01*
X125158714Y-45555238D01*
X125063476Y-45460000D01*
X124873000Y-45364761D01*
X124396809Y-45364761D01*
X124111095Y-45460000D01*
X122396809Y-46031428D02*
X122396809Y-47364761D01*
X123253952Y-46031428D02*
X123253952Y-47079047D01*
X123158714Y-47269523D01*
X122968238Y-47364761D01*
X122682523Y-47364761D01*
X122492047Y-47269523D01*
X122396809Y-47174285D01*
X121444428Y-46031428D02*
X121444428Y-48031428D01*
X121444428Y-46126666D02*
X121253952Y-46031428D01*
X120873000Y-46031428D01*
X120682523Y-46126666D01*
X120587285Y-46221904D01*
X120492047Y-46412380D01*
X120492047Y-46983809D01*
X120587285Y-47174285D01*
X120682523Y-47269523D01*
X120873000Y-47364761D01*
X121253952Y-47364761D01*
X121444428Y-47269523D01*
X118873000Y-47269523D02*
X119063476Y-47364761D01*
X119444428Y-47364761D01*
X119634904Y-47269523D01*
X119730142Y-47079047D01*
X119730142Y-46317142D01*
X119634904Y-46126666D01*
X119444428Y-46031428D01*
X119063476Y-46031428D01*
X118873000Y-46126666D01*
X118777761Y-46317142D01*
X118777761Y-46507619D01*
X119730142Y-46698095D01*
X117920619Y-47364761D02*
X117920619Y-46031428D01*
X117920619Y-46412380D02*
X117825380Y-46221904D01*
X117730142Y-46126666D01*
X117539666Y-46031428D01*
X117349190Y-46031428D01*
X116777761Y-47269523D02*
X116587285Y-47364761D01*
X116206333Y-47364761D01*
X116015857Y-47269523D01*
X115920619Y-47079047D01*
X115920619Y-46983809D01*
X116015857Y-46793333D01*
X116206333Y-46698095D01*
X116492047Y-46698095D01*
X116682523Y-46602857D01*
X116777761Y-46412380D01*
X116777761Y-46317142D01*
X116682523Y-46126666D01*
X116492047Y-46031428D01*
X116206333Y-46031428D01*
X116015857Y-46126666D01*
X115063476Y-46031428D02*
X115063476Y-48031428D01*
X115063476Y-46126666D02*
X114873000Y-46031428D01*
X114492047Y-46031428D01*
X114301571Y-46126666D01*
X114206333Y-46221904D01*
X114111095Y-46412380D01*
X114111095Y-46983809D01*
X114206333Y-47174285D01*
X114301571Y-47269523D01*
X114492047Y-47364761D01*
X114873000Y-47364761D01*
X115063476Y-47269523D01*
X113253952Y-47364761D02*
X113253952Y-46031428D01*
X113253952Y-46412380D02*
X113158714Y-46221904D01*
X113063476Y-46126666D01*
X112873000Y-46031428D01*
X112682523Y-46031428D01*
X111253952Y-47269523D02*
X111444428Y-47364761D01*
X111825380Y-47364761D01*
X112015857Y-47269523D01*
X112111095Y-47079047D01*
X112111095Y-46317142D01*
X112015857Y-46126666D01*
X111825380Y-46031428D01*
X111444428Y-46031428D01*
X111253952Y-46126666D01*
X111158714Y-46317142D01*
X111158714Y-46507619D01*
X112111095Y-46698095D01*
X109444428Y-47364761D02*
X109444428Y-46317142D01*
X109539666Y-46126666D01*
X109730142Y-46031428D01*
X110111095Y-46031428D01*
X110301571Y-46126666D01*
X109444428Y-47269523D02*
X109634904Y-47364761D01*
X110111095Y-47364761D01*
X110301571Y-47269523D01*
X110396809Y-47079047D01*
X110396809Y-46888571D01*
X110301571Y-46698095D01*
X110111095Y-46602857D01*
X109634904Y-46602857D01*
X109444428Y-46507619D01*
X107634904Y-47364761D02*
X107634904Y-45364761D01*
X107634904Y-47269523D02*
X107825380Y-47364761D01*
X108206333Y-47364761D01*
X108396809Y-47269523D01*
X108492047Y-47174285D01*
X108587285Y-46983809D01*
X108587285Y-46412380D01*
X108492047Y-46221904D01*
X108396809Y-46126666D01*
X108206333Y-46031428D01*
X107825380Y-46031428D01*
X107634904Y-46126666D01*
X105920619Y-47269523D02*
X106111095Y-47364761D01*
X106492047Y-47364761D01*
X106682523Y-47269523D01*
X106777761Y-47079047D01*
X106777761Y-46317142D01*
X106682523Y-46126666D01*
X106492047Y-46031428D01*
X106111095Y-46031428D01*
X105920619Y-46126666D01*
X105825380Y-46317142D01*
X105825380Y-46507619D01*
X106777761Y-46698095D01*
X104968238Y-47364761D02*
X104968238Y-46031428D01*
X104968238Y-46412380D02*
X104873000Y-46221904D01*
X104777761Y-46126666D01*
X104587285Y-46031428D01*
X104396809Y-46031428D01*
X133396809Y-50524285D02*
X133492047Y-50619523D01*
X133777761Y-50714761D01*
X133968238Y-50714761D01*
X134253952Y-50619523D01*
X134444428Y-50429047D01*
X134539666Y-50238571D01*
X134634904Y-49857619D01*
X134634904Y-49571904D01*
X134539666Y-49190952D01*
X134444428Y-49000476D01*
X134253952Y-48810000D01*
X133968238Y-48714761D01*
X133777761Y-48714761D01*
X133492047Y-48810000D01*
X133396809Y-48905238D01*
X131396809Y-50524285D02*
X131492047Y-50619523D01*
X131777761Y-50714761D01*
X131968238Y-50714761D01*
X132253952Y-50619523D01*
X132444428Y-50429047D01*
X132539666Y-50238571D01*
X132634904Y-49857619D01*
X132634904Y-49571904D01*
X132539666Y-49190952D01*
X132444428Y-49000476D01*
X132253952Y-48810000D01*
X131968238Y-48714761D01*
X131777761Y-48714761D01*
X131492047Y-48810000D01*
X131396809Y-48905238D01*
X130539666Y-49952857D02*
X129015857Y-49952857D01*
X127396809Y-49667142D02*
X127111095Y-49762380D01*
X127015857Y-49857619D01*
X126920619Y-50048095D01*
X126920619Y-50333809D01*
X127015857Y-50524285D01*
X127111095Y-50619523D01*
X127301571Y-50714761D01*
X128063476Y-50714761D01*
X128063476Y-48714761D01*
X127396809Y-48714761D01*
X127206333Y-48810000D01*
X127111095Y-48905238D01*
X127015857Y-49095714D01*
X127015857Y-49286190D01*
X127111095Y-49476666D01*
X127206333Y-49571904D01*
X127396809Y-49667142D01*
X128063476Y-49667142D01*
X125682523Y-49762380D02*
X125682523Y-50714761D01*
X126349190Y-48714761D02*
X125682523Y-49762380D01*
X125015857Y-48714761D01*
X124349190Y-49952857D02*
X122825380Y-49952857D01*
X121968238Y-50619523D02*
X121682523Y-50714761D01*
X121206333Y-50714761D01*
X121015857Y-50619523D01*
X120920619Y-50524285D01*
X120825380Y-50333809D01*
X120825380Y-50143333D01*
X120920619Y-49952857D01*
X121015857Y-49857619D01*
X121206333Y-49762380D01*
X121587285Y-49667142D01*
X121777761Y-49571904D01*
X121873000Y-49476666D01*
X121968238Y-49286190D01*
X121968238Y-49095714D01*
X121873000Y-48905238D01*
X121777761Y-48810000D01*
X121587285Y-48714761D01*
X121111095Y-48714761D01*
X120825380Y-48810000D01*
X120063476Y-50143333D02*
X119111095Y-50143333D01*
X120253952Y-50714761D02*
X119587285Y-48714761D01*
X118920619Y-50714761D01*
X148730142Y-54064761D02*
X148730142Y-52064761D01*
X147968238Y-52064761D01*
X147777761Y-52160000D01*
X147682523Y-52255238D01*
X147587285Y-52445714D01*
X147587285Y-52731428D01*
X147682523Y-52921904D01*
X147777761Y-53017142D01*
X147968238Y-53112380D01*
X148730142Y-53112380D01*
X145873000Y-54064761D02*
X145873000Y-53017142D01*
X145968238Y-52826666D01*
X146158714Y-52731428D01*
X146539666Y-52731428D01*
X146730142Y-52826666D01*
X145873000Y-53969523D02*
X146063476Y-54064761D01*
X146539666Y-54064761D01*
X146730142Y-53969523D01*
X146825380Y-53779047D01*
X146825380Y-53588571D01*
X146730142Y-53398095D01*
X146539666Y-53302857D01*
X146063476Y-53302857D01*
X145873000Y-53207619D01*
X144920619Y-52731428D02*
X144920619Y-54064761D01*
X144920619Y-52921904D02*
X144825380Y-52826666D01*
X144634904Y-52731428D01*
X144349190Y-52731428D01*
X144158714Y-52826666D01*
X144063476Y-53017142D01*
X144063476Y-54064761D01*
X142349190Y-53969523D02*
X142539666Y-54064761D01*
X142920619Y-54064761D01*
X143111095Y-53969523D01*
X143206333Y-53779047D01*
X143206333Y-53017142D01*
X143111095Y-52826666D01*
X142920619Y-52731428D01*
X142539666Y-52731428D01*
X142349190Y-52826666D01*
X142253952Y-53017142D01*
X142253952Y-53207619D01*
X143206333Y-53398095D01*
X141111095Y-54064761D02*
X141301571Y-53969523D01*
X141396809Y-53779047D01*
X141396809Y-52064761D01*
X138825380Y-54064761D02*
X138825380Y-52064761D01*
X138825380Y-52826666D02*
X138634904Y-52731428D01*
X138253952Y-52731428D01*
X138063476Y-52826666D01*
X137968238Y-52921904D01*
X137873000Y-53112380D01*
X137873000Y-53683809D01*
X137968238Y-53874285D01*
X138063476Y-53969523D01*
X138253952Y-54064761D01*
X138634904Y-54064761D01*
X138825380Y-53969523D01*
X137206333Y-52731428D02*
X136730142Y-54064761D01*
X136253952Y-52731428D02*
X136730142Y-54064761D01*
X136920619Y-54540952D01*
X137015857Y-54636190D01*
X137206333Y-54731428D01*
X134063476Y-53969523D02*
X133777761Y-54064761D01*
X133301571Y-54064761D01*
X133111095Y-53969523D01*
X133015857Y-53874285D01*
X132920619Y-53683809D01*
X132920619Y-53493333D01*
X133015857Y-53302857D01*
X133111095Y-53207619D01*
X133301571Y-53112380D01*
X133682523Y-53017142D01*
X133873000Y-52921904D01*
X133968238Y-52826666D01*
X134063476Y-52636190D01*
X134063476Y-52445714D01*
X133968238Y-52255238D01*
X133873000Y-52160000D01*
X133682523Y-52064761D01*
X133206333Y-52064761D01*
X132920619Y-52160000D01*
X131777761Y-54064761D02*
X131968238Y-53969523D01*
X132063476Y-53874285D01*
X132158714Y-53683809D01*
X132158714Y-53112380D01*
X132063476Y-52921904D01*
X131968238Y-52826666D01*
X131777761Y-52731428D01*
X131492047Y-52731428D01*
X131301571Y-52826666D01*
X131206333Y-52921904D01*
X131111095Y-53112380D01*
X131111095Y-53683809D01*
X131206333Y-53874285D01*
X131301571Y-53969523D01*
X131492047Y-54064761D01*
X131777761Y-54064761D01*
X130253952Y-52731428D02*
X130253952Y-54064761D01*
X130253952Y-52921904D02*
X130158714Y-52826666D01*
X129968238Y-52731428D01*
X129682523Y-52731428D01*
X129492047Y-52826666D01*
X129396809Y-53017142D01*
X129396809Y-54064761D01*
X128158714Y-54064761D02*
X128349190Y-53969523D01*
X128444428Y-53874285D01*
X128539666Y-53683809D01*
X128539666Y-53112380D01*
X128444428Y-52921904D01*
X128349190Y-52826666D01*
X128158714Y-52731428D01*
X127873000Y-52731428D01*
X127682523Y-52826666D01*
X127587285Y-52921904D01*
X127492047Y-53112380D01*
X127492047Y-53683809D01*
X127587285Y-53874285D01*
X127682523Y-53969523D01*
X127873000Y-54064761D01*
X128158714Y-54064761D01*
X126730142Y-53969523D02*
X126539666Y-54064761D01*
X126158714Y-54064761D01*
X125968238Y-53969523D01*
X125873000Y-53779047D01*
X125873000Y-53683809D01*
X125968238Y-53493333D01*
X126158714Y-53398095D01*
X126444428Y-53398095D01*
X126634904Y-53302857D01*
X126730142Y-53112380D01*
X126730142Y-53017142D01*
X126634904Y-52826666D01*
X126444428Y-52731428D01*
X126158714Y-52731428D01*
X125968238Y-52826666D01*
X124158714Y-52731428D02*
X124158714Y-54064761D01*
X125015857Y-52731428D02*
X125015857Y-53779047D01*
X124920619Y-53969523D01*
X124730142Y-54064761D01*
X124444428Y-54064761D01*
X124253952Y-53969523D01*
X124158714Y-53874285D01*
X123301571Y-53969523D02*
X123111095Y-54064761D01*
X122730142Y-54064761D01*
X122539666Y-53969523D01*
X122444428Y-53779047D01*
X122444428Y-53683809D01*
X122539666Y-53493333D01*
X122730142Y-53398095D01*
X123015857Y-53398095D01*
X123206333Y-53302857D01*
X123301571Y-53112380D01*
X123301571Y-53017142D01*
X123206333Y-52826666D01*
X123015857Y-52731428D01*
X122730142Y-52731428D01*
X122539666Y-52826666D01*
X119492047Y-52064761D02*
X119492047Y-53493333D01*
X119587285Y-53779047D01*
X119777761Y-53969523D01*
X120063476Y-54064761D01*
X120253952Y-54064761D01*
X117682523Y-52731428D02*
X117682523Y-54064761D01*
X118539666Y-52731428D02*
X118539666Y-53779047D01*
X118444428Y-53969523D01*
X118253952Y-54064761D01*
X117968238Y-54064761D01*
X117777761Y-53969523D01*
X117682523Y-53874285D01*
X116730142Y-52731428D02*
X116730142Y-54064761D01*
X116730142Y-52921904D02*
X116634904Y-52826666D01*
X116444428Y-52731428D01*
X116158714Y-52731428D01*
X115968238Y-52826666D01*
X115873000Y-53017142D01*
X115873000Y-54064761D01*
X114158714Y-53969523D02*
X114349190Y-54064761D01*
X114730142Y-54064761D01*
X114920619Y-53969523D01*
X115015857Y-53779047D01*
X115015857Y-53017142D01*
X114920619Y-52826666D01*
X114730142Y-52731428D01*
X114349190Y-52731428D01*
X114158714Y-52826666D01*
X114063476Y-53017142D01*
X114063476Y-53207619D01*
X115015857Y-53398095D01*
X111777761Y-52255238D02*
X111682523Y-52160000D01*
X111492047Y-52064761D01*
X111015857Y-52064761D01*
X110825380Y-52160000D01*
X110730142Y-52255238D01*
X110634904Y-52445714D01*
X110634904Y-52636190D01*
X110730142Y-52921904D01*
X111873000Y-54064761D01*
X110634904Y-54064761D01*
X109396809Y-52064761D02*
X109206333Y-52064761D01*
X109015857Y-52160000D01*
X108920619Y-52255238D01*
X108825380Y-52445714D01*
X108730142Y-52826666D01*
X108730142Y-53302857D01*
X108825380Y-53683809D01*
X108920619Y-53874285D01*
X109015857Y-53969523D01*
X109206333Y-54064761D01*
X109396809Y-54064761D01*
X109587285Y-53969523D01*
X109682523Y-53874285D01*
X109777761Y-53683809D01*
X109873000Y-53302857D01*
X109873000Y-52826666D01*
X109777761Y-52445714D01*
X109682523Y-52255238D01*
X109587285Y-52160000D01*
X109396809Y-52064761D01*
X107968238Y-52255238D02*
X107873000Y-52160000D01*
X107682523Y-52064761D01*
X107206333Y-52064761D01*
X107015857Y-52160000D01*
X106920619Y-52255238D01*
X106825380Y-52445714D01*
X106825380Y-52636190D01*
X106920619Y-52921904D01*
X108063476Y-54064761D01*
X106825380Y-54064761D01*
X104920619Y-54064761D02*
X106063476Y-54064761D01*
X105492047Y-54064761D02*
X105492047Y-52064761D01*
X105682523Y-52350476D01*
X105873000Y-52540952D01*
X106063476Y-52636190D01*
D11*
X135730142Y-95167142D02*
X135730142Y-97310000D01*
X135873000Y-97738571D01*
X136158714Y-98024285D01*
X136587285Y-98167142D01*
X136873000Y-98167142D01*
X132873000Y-98167142D02*
X134301571Y-98167142D01*
X134301571Y-95167142D01*
X130158714Y-97881428D02*
X130301571Y-98024285D01*
X130730142Y-98167142D01*
X131015857Y-98167142D01*
X131444428Y-98024285D01*
X131730142Y-97738571D01*
X131873000Y-97452857D01*
X132015857Y-96881428D01*
X132015857Y-96452857D01*
X131873000Y-95881428D01*
X131730142Y-95595714D01*
X131444428Y-95310000D01*
X131015857Y-95167142D01*
X130730142Y-95167142D01*
X130301571Y-95310000D01*
X130158714Y-95452857D01*
X128015857Y-95167142D02*
X128015857Y-97310000D01*
X128158714Y-97738571D01*
X128444428Y-98024285D01*
X128873000Y-98167142D01*
X129158714Y-98167142D01*
X125158714Y-98167142D02*
X126587285Y-98167142D01*
X126587285Y-95167142D01*
X122444428Y-97881428D02*
X122587285Y-98024285D01*
X123015857Y-98167142D01*
X123301571Y-98167142D01*
X123730142Y-98024285D01*
X124015857Y-97738571D01*
X124158714Y-97452857D01*
X124301571Y-96881428D01*
X124301571Y-96452857D01*
X124158714Y-95881428D01*
X124015857Y-95595714D01*
X123730142Y-95310000D01*
X123301571Y-95167142D01*
X123015857Y-95167142D01*
X122587285Y-95310000D01*
X122444428Y-95452857D01*
X120301571Y-95167142D02*
X120301571Y-97310000D01*
X120444428Y-97738571D01*
X120730142Y-98024285D01*
X121158714Y-98167142D01*
X121444428Y-98167142D01*
X117444428Y-98167142D02*
X118872999Y-98167142D01*
X118872999Y-95167142D01*
X114730142Y-97881428D02*
X114872999Y-98024285D01*
X115301571Y-98167142D01*
X115587285Y-98167142D01*
X116015857Y-98024285D01*
X116301571Y-97738571D01*
X116444428Y-97452857D01*
X116587285Y-96881428D01*
X116587285Y-96452857D01*
X116444428Y-95881428D01*
X116301571Y-95595714D01*
X116015857Y-95310000D01*
X115587285Y-95167142D01*
X115301571Y-95167142D01*
X114872999Y-95310000D01*
X114730142Y-95452857D01*
X112587285Y-95167142D02*
X112587285Y-97310000D01*
X112730142Y-97738571D01*
X113015857Y-98024285D01*
X113444428Y-98167142D01*
X113730142Y-98167142D01*
X109730142Y-98167142D02*
X111158714Y-98167142D01*
X111158714Y-95167142D01*
X107015857Y-97881428D02*
X107158714Y-98024285D01*
X107587285Y-98167142D01*
X107872999Y-98167142D01*
X108301571Y-98024285D01*
X108587285Y-97738571D01*
X108730142Y-97452857D01*
X108872999Y-96881428D01*
X108872999Y-96452857D01*
X108730142Y-95881428D01*
X108587285Y-95595714D01*
X108301571Y-95310000D01*
X107872999Y-95167142D01*
X107587285Y-95167142D01*
X107158714Y-95310000D01*
X107015857Y-95452857D01*
M02*
