M48
; DRILL file {KiCad (5.1.9)-1} date 05/29/21 21:38:04
; FORMAT={-:-/ absolute / inch / decimal}
; #@! TF.CreationDate,2021-05-29T21:38:04+01:00
; #@! TF.GenerationSoftware,Kicad,Pcbnew,(5.1.9)-1
FMAT,2
INCH
T1C0.0157
T2C0.0315
T3C0.0394
T4C0.0400
T5C0.0709
%
G90
G05
T1
X6.15Y-4.76
X6.15Y-4.93
X6.37Y-4.75
T2
X5.62Y-5.12
X5.62Y-5.42
X5.62Y-5.53
X5.62Y-5.83
X5.76Y-5.12
X5.76Y-5.42
X5.76Y-5.53
X5.76Y-5.83
X5.76Y-5.93
X5.76Y-6.23
X5.78Y-3.5
X5.78Y-3.8
X5.91Y-5.33
X5.91Y-5.43
X5.91Y-5.53
X5.91Y-5.63
X5.91Y-5.73
X5.91Y-5.83
X5.91Y-5.93
X5.93Y-3.5
X5.93Y-3.6
X5.93Y-3.7
X5.93Y-3.8
X5.95Y-4.82
X5.95Y-4.96
X5.96Y-6.11
X5.9722Y-5.1555
X5.9831Y-3.34
X5.9831Y-3.96
X6.1569Y-6.11
X6.1691Y-5.1555
X6.18Y-3.34
X6.18Y-3.96
X6.21Y-5.33
X6.21Y-5.43
X6.21Y-5.53
X6.21Y-5.63
X6.21Y-5.73
X6.21Y-5.83
X6.21Y-5.93
X6.23Y-3.5
X6.23Y-3.6
X6.23Y-3.7
X6.23Y-3.8
X6.25Y-4.82
X6.25Y-4.96
X6.37Y-5.38
X6.37Y-5.68
X6.37Y-5.78
X6.37Y-6.08
X6.51Y-5.38
X6.51Y-5.68
X6.51Y-5.78
X6.51Y-6.08
X6.53Y-2.8616
X6.53Y-2.96
X6.53Y-4.2816
X6.53Y-4.38
T3
X5.64Y-4.73
X5.64Y-4.94
X5.74Y-4.73
X5.74Y-4.94
X5.88Y-4.3531
X5.88Y-4.4516
X5.88Y-4.55
X5.8847Y-2.7626
X5.8847Y-2.861
X5.8847Y-2.9594
X6.41Y-4.83
X6.41Y-5.0
X6.41Y-5.17
X6.51Y-4.83
X6.51Y-5.0
X6.51Y-5.17
T4
X6.44Y-3.43
X6.44Y-3.53
X6.44Y-3.63
X6.44Y-3.73
X6.44Y-3.83
X6.54Y-3.43
X6.54Y-3.53
X6.54Y-3.63
X6.54Y-3.73
X6.54Y-3.83
T5
X6.1753Y-4.2626
X6.1753Y-4.6406
X6.18Y-2.672
X6.18Y-3.05
T0
M30
