%TF.GenerationSoftware,KiCad,Pcbnew,(5.1.9)-1*%
%TF.CreationDate,2021-05-29T21:30:47+01:00*%
%TF.ProjectId,KosmicSuperspreader,4b6f736d-6963-4537-9570-657273707265,rev?*%
%TF.SameCoordinates,Original*%
%TF.FileFunction,Copper,L1,Top*%
%TF.FilePolarity,Positive*%
%FSLAX46Y46*%
G04 Gerber Fmt 4.6, Leading zero omitted, Abs format (unit mm)*
G04 Created by KiCad (PCBNEW (5.1.9)-1) date 2021-05-29 21:30:47*
%MOMM*%
%LPD*%
G01*
G04 APERTURE LIST*
%TA.AperFunction,ComponentPad*%
%ADD10O,2.400000X1.600000*%
%TD*%
%TA.AperFunction,ComponentPad*%
%ADD11R,2.400000X1.600000*%
%TD*%
%TA.AperFunction,ComponentPad*%
%ADD12C,3.240000*%
%TD*%
%TA.AperFunction,ComponentPad*%
%ADD13C,1.800000*%
%TD*%
%TA.AperFunction,ComponentPad*%
%ADD14R,1.800000X1.800000*%
%TD*%
%TA.AperFunction,ComponentPad*%
%ADD15O,1.600000X1.600000*%
%TD*%
%TA.AperFunction,ComponentPad*%
%ADD16C,1.600000*%
%TD*%
%TA.AperFunction,ComponentPad*%
%ADD17R,1.727200X1.727200*%
%TD*%
%TA.AperFunction,ComponentPad*%
%ADD18O,1.727200X1.727200*%
%TD*%
%TA.AperFunction,ComponentPad*%
%ADD19O,1.700000X1.700000*%
%TD*%
%TA.AperFunction,ComponentPad*%
%ADD20R,1.700000X1.700000*%
%TD*%
%TA.AperFunction,ComponentPad*%
%ADD21R,1.600000X1.600000*%
%TD*%
%TA.AperFunction,ViaPad*%
%ADD22C,0.800000*%
%TD*%
%TA.AperFunction,Conductor*%
%ADD23C,0.250000*%
%TD*%
%TA.AperFunction,Conductor*%
%ADD24C,0.400000*%
%TD*%
%TA.AperFunction,Conductor*%
%ADD25C,0.254000*%
%TD*%
%TA.AperFunction,Conductor*%
%ADD26C,0.100000*%
%TD*%
G04 APERTURE END LIST*
D10*
%TO.P,U2,14*%
%TO.N,OUTMINUS*%
X157734000Y-135382000D03*
%TO.P,U2,7*%
%TO.N,Net-(R10-Pad1)*%
X150114000Y-150622000D03*
%TO.P,U2,13*%
%TO.N,Net-(R7-Pad1)*%
X157734000Y-137922000D03*
%TO.P,U2,6*%
%TO.N,Net-(R10-Pad2)*%
X150114000Y-148082000D03*
%TO.P,U2,12*%
%TO.N,Net-(R6-Pad1)*%
X157734000Y-140462000D03*
%TO.P,U2,5*%
%TO.N,GND*%
X150114000Y-145542000D03*
%TO.P,U2,11*%
%TO.N,-12V*%
X157734000Y-143002000D03*
%TO.P,U2,4*%
%TO.N,+12V*%
X150114000Y-143002000D03*
%TO.P,U2,10*%
%TO.N,GND*%
X157734000Y-145542000D03*
%TO.P,U2,3*%
X150114000Y-140462000D03*
%TO.P,U2,9*%
%TO.N,Net-(R11-Pad1)*%
X157734000Y-148082000D03*
%TO.P,U2,2*%
%TO.N,Net-(R1-Pad1)*%
X150114000Y-137922000D03*
%TO.P,U2,8*%
%TO.N,OUTPLUS*%
X157734000Y-150622000D03*
D11*
%TO.P,U2,1*%
%TO.N,Net-(R3-Pad1)*%
X150114000Y-135382000D03*
%TD*%
D10*
%TO.P,U1,8*%
%TO.N,+12V*%
X158242000Y-88900000D03*
%TO.P,U1,4*%
%TO.N,-12V*%
X150622000Y-96520000D03*
%TO.P,U1,7*%
%TO.N,Net-(U1-Pad6)*%
X158242000Y-91440000D03*
%TO.P,U1,3*%
%TO.N,INPUT*%
X150622000Y-93980000D03*
%TO.P,U1,6*%
%TO.N,Net-(U1-Pad6)*%
X158242000Y-93980000D03*
%TO.P,U1,2*%
%TO.N,OUTPUT*%
X150622000Y-91440000D03*
%TO.P,U1,5*%
%TO.N,GND*%
X158242000Y-96520000D03*
D11*
%TO.P,U1,1*%
%TO.N,OUTPUT*%
X150622000Y-88900000D03*
%TD*%
D12*
%TO.P,SPREAD,*%
%TO.N,*%
X156972000Y-77470000D03*
X156972000Y-67870000D03*
D13*
%TO.P,SPREAD,3*%
%TO.N,-12V*%
X149472000Y-70170000D03*
%TO.P,SPREAD,2*%
%TO.N,Net-(R2-Pad2)*%
X149472000Y-72670000D03*
D14*
%TO.P,SPREAD,1*%
%TO.N,+12V*%
X149472000Y-75170000D03*
%TD*%
D12*
%TO.P,RV1,*%
%TO.N,*%
X156852000Y-117870000D03*
X156852000Y-108270000D03*
D13*
%TO.P,RV1,3*%
%TO.N,GND*%
X149352000Y-110570000D03*
%TO.P,RV1,2*%
%TO.N,Net-(R1-Pad2)*%
X149352000Y-113070000D03*
D14*
%TO.P,RV1,1*%
%TO.N,SPREAD*%
X149352000Y-115570000D03*
%TD*%
D15*
%TO.P,R12,2*%
%TO.N,Net-(R11-Pad1)*%
X161798000Y-146812000D03*
D16*
%TO.P,R12,1*%
%TO.N,OUTPLUS*%
X161798000Y-154432000D03*
%TD*%
D15*
%TO.P,R11,2*%
%TO.N,Net-(R10-Pad1)*%
X165354000Y-154432000D03*
D16*
%TO.P,R11,1*%
%TO.N,Net-(R11-Pad1)*%
X165354000Y-146812000D03*
%TD*%
D15*
%TO.P,R10,2*%
%TO.N,Net-(R10-Pad2)*%
X146304000Y-150622000D03*
D16*
%TO.P,R10,1*%
%TO.N,Net-(R10-Pad1)*%
X146304000Y-158242000D03*
%TD*%
D15*
%TO.P,R9,2*%
%TO.N,Net-(R7-Pad1)*%
X158750000Y-125984000D03*
D16*
%TO.P,R9,1*%
%TO.N,OUTMINUS*%
X151130000Y-125984000D03*
%TD*%
D15*
%TO.P,R8,2*%
%TO.N,GND*%
X151130000Y-122428000D03*
D16*
%TO.P,R8,1*%
%TO.N,Net-(R6-Pad1)*%
X158750000Y-122428000D03*
%TD*%
D15*
%TO.P,R7,2*%
%TO.N,Net-(R3-Pad1)*%
X146304000Y-148082000D03*
D16*
%TO.P,R7,1*%
%TO.N,Net-(R7-Pad1)*%
X146304000Y-140462000D03*
%TD*%
D15*
%TO.P,R6,2*%
%TO.N,INPUT*%
X161798000Y-144272000D03*
D16*
%TO.P,R6,1*%
%TO.N,Net-(R6-Pad1)*%
X161798000Y-136652000D03*
%TD*%
D15*
%TO.P,R5,2*%
%TO.N,INPUT*%
X165354000Y-144272000D03*
D16*
%TO.P,R5,1*%
%TO.N,Net-(R10-Pad2)*%
X165354000Y-136652000D03*
%TD*%
D15*
%TO.P,R4,2*%
%TO.N,Net-(R3-Pad1)*%
X142748000Y-140462000D03*
D16*
%TO.P,R4,1*%
%TO.N,Net-(R10-Pad2)*%
X142748000Y-148082000D03*
%TD*%
D15*
%TO.P,R3,2*%
%TO.N,Net-(R1-Pad1)*%
X142748000Y-137668000D03*
D16*
%TO.P,R3,1*%
%TO.N,Net-(R3-Pad1)*%
X142748000Y-130048000D03*
%TD*%
D15*
%TO.P,R2,2*%
%TO.N,Net-(R2-Pad2)*%
X146812000Y-88900000D03*
D16*
%TO.P,R2,1*%
%TO.N,Net-(R1-Pad1)*%
X146812000Y-96520000D03*
%TD*%
D15*
%TO.P,R1,2*%
%TO.N,Net-(R1-Pad2)*%
X146304000Y-130048000D03*
D16*
%TO.P,R1,1*%
%TO.N,Net-(R1-Pad1)*%
X146304000Y-137668000D03*
%TD*%
D17*
%TO.P,J6,1*%
%TO.N,-12V*%
X163576000Y-87122000D03*
D18*
%TO.P,J6,2*%
X166116000Y-87122000D03*
%TO.P,J6,3*%
%TO.N,GND*%
X163576000Y-89662000D03*
%TO.P,J6,4*%
X166116000Y-89662000D03*
%TO.P,J6,5*%
X163576000Y-92202000D03*
%TO.P,J6,6*%
X166116000Y-92202000D03*
%TO.P,J6,7*%
X163576000Y-94742000D03*
%TO.P,J6,8*%
X166116000Y-94742000D03*
%TO.P,J6,9*%
%TO.N,+12V*%
X163576000Y-97282000D03*
%TO.P,J6,10*%
X166116000Y-97282000D03*
%TD*%
D19*
%TO.P,BUFFER,2*%
%TO.N,GND*%
X145796000Y-120142000D03*
D20*
%TO.P,BUFFER,1*%
%TO.N,OUTPUT*%
X143256000Y-120142000D03*
%TD*%
D19*
%TO.P,O +,2*%
%TO.N,GND*%
X165354000Y-127000000D03*
D20*
%TO.P,O +,1*%
%TO.N,OUTPLUS*%
X162814000Y-127000000D03*
%TD*%
D19*
%TO.P,O -,2*%
%TO.N,GND*%
X165354000Y-122682000D03*
D20*
%TO.P,O -,1*%
%TO.N,OUTMINUS*%
X162814000Y-122682000D03*
%TD*%
D19*
%TO.P,S IN,2*%
%TO.N,GND*%
X145796000Y-125476000D03*
D20*
%TO.P,S IN,1*%
%TO.N,SPREAD*%
X143256000Y-125476000D03*
%TD*%
D19*
%TO.P,CV IN,2*%
%TO.N,GND*%
X165354000Y-131318000D03*
D20*
%TO.P,CV IN,1*%
%TO.N,INPUT*%
X162814000Y-131318000D03*
%TD*%
D16*
%TO.P,C6,2*%
%TO.N,GND*%
X156384000Y-155194000D03*
%TO.P,C6,1*%
%TO.N,-12V*%
X151384000Y-155194000D03*
%TD*%
%TO.P,C5,2*%
%TO.N,GND*%
X156694759Y-130950000D03*
%TO.P,C5,1*%
%TO.N,+12V*%
X151694759Y-130950000D03*
%TD*%
%TO.P,C4,2*%
%TO.N,GND*%
X156972000Y-100584000D03*
%TO.P,C4,1*%
%TO.N,-12V*%
X151972000Y-100584000D03*
%TD*%
%TO.P,C3,2*%
%TO.N,GND*%
X156972000Y-84836000D03*
%TO.P,C3,1*%
%TO.N,+12V*%
X151972000Y-84836000D03*
%TD*%
%TO.P,C2,2*%
%TO.N,-12V*%
X165862000Y-72684000D03*
D21*
%TO.P,C2,1*%
%TO.N,GND*%
X165862000Y-75184000D03*
%TD*%
D16*
%TO.P,C1,2*%
%TO.N,GND*%
X165862000Y-108752000D03*
D21*
%TO.P,C1,1*%
%TO.N,+12V*%
X165862000Y-111252000D03*
%TD*%
D22*
%TO.N,GND*%
X156210000Y-120904000D03*
X161798000Y-120650000D03*
X156210000Y-125222000D03*
%TD*%
D23*
%TO.N,GND*%
X154686000Y-122428000D02*
X156210000Y-120904000D01*
X151130000Y-122428000D02*
X154686000Y-122428000D01*
X163322000Y-120650000D02*
X165354000Y-122682000D01*
X161798000Y-120650000D02*
X163322000Y-120650000D01*
X156210000Y-130465241D02*
X156694759Y-130950000D01*
X156210000Y-125222000D02*
X156210000Y-130465241D01*
D24*
%TO.N,+12V*%
X151972000Y-70745998D02*
X151972000Y-84836000D01*
X150096001Y-68869999D02*
X151972000Y-70745998D01*
X148847999Y-68869999D02*
X150096001Y-68869999D01*
X148171999Y-69545999D02*
X148847999Y-68869999D01*
X148171999Y-73869999D02*
X148171999Y-69545999D01*
X149472000Y-75170000D02*
X148171999Y-73869999D01*
X156036000Y-88900000D02*
X151972000Y-84836000D01*
X158242000Y-88900000D02*
X156036000Y-88900000D01*
X162312399Y-96018399D02*
X163576000Y-97282000D01*
X162312399Y-92970399D02*
X162312399Y-96018399D01*
X158242000Y-88900000D02*
X162312399Y-92970399D01*
X166116000Y-97282000D02*
X163576000Y-97282000D01*
X167062001Y-110051999D02*
X165862000Y-111252000D01*
X167062001Y-98228001D02*
X167062001Y-110051999D01*
X166116000Y-97282000D02*
X167062001Y-98228001D01*
X151694759Y-127195243D02*
X151694759Y-130950000D01*
X165862000Y-113028002D02*
X151694759Y-127195243D01*
X165862000Y-111252000D02*
X165862000Y-113028002D01*
X152494758Y-140621242D02*
X150114000Y-143002000D01*
X152494758Y-131749999D02*
X152494758Y-140621242D01*
X151694759Y-130950000D02*
X152494758Y-131749999D01*
D23*
%TO.N,-12V*%
X150697001Y-71395001D02*
X149472000Y-70170000D01*
X152147010Y-86676012D02*
X150697001Y-85226003D01*
X152147010Y-94994990D02*
X152147010Y-86676012D01*
X150622000Y-96520000D02*
X152147010Y-94994990D01*
D24*
X167062001Y-73884001D02*
X165862000Y-72684000D01*
X167062001Y-86175999D02*
X167062001Y-73884001D01*
X166116000Y-87122000D02*
X167062001Y-86175999D01*
X163576000Y-87122000D02*
X166116000Y-87122000D01*
X148922997Y-77140999D02*
X150697001Y-77140999D01*
X147571989Y-75789991D02*
X148922997Y-77140999D01*
X151419446Y-65450010D02*
X147571989Y-69297467D01*
X158628010Y-65450010D02*
X151419446Y-65450010D01*
X165862000Y-72684000D02*
X158628010Y-65450010D01*
D23*
X150697001Y-77140999D02*
X150697001Y-71395001D01*
D24*
X147571989Y-69297467D02*
X147571989Y-75789991D01*
D23*
X150697001Y-85226003D02*
X150697001Y-77140999D01*
D24*
X152183999Y-154394001D02*
X152183999Y-148552001D01*
X152183999Y-148552001D02*
X157734000Y-143002000D01*
X151384000Y-155194000D02*
X152183999Y-154394001D01*
X151972000Y-115470002D02*
X151972000Y-100584000D01*
X148513990Y-118928012D02*
X151972000Y-115470002D01*
X148513990Y-143499060D02*
X148513990Y-118928012D01*
X156118758Y-139094312D02*
X151011060Y-144202010D01*
X151011060Y-144202010D02*
X149216940Y-144202010D01*
X156118758Y-132150001D02*
X156118758Y-139094312D01*
X156599071Y-132150001D02*
X156118758Y-132150001D01*
X159334010Y-134884940D02*
X156599071Y-132150001D01*
X159334010Y-141401990D02*
X159334010Y-134884940D01*
X149216940Y-144202010D02*
X148513990Y-143499060D01*
X157734000Y-143002000D02*
X159334010Y-141401990D01*
X150622000Y-99234000D02*
X151972000Y-100584000D01*
X150622000Y-96520000D02*
X150622000Y-99234000D01*
D23*
%TO.N,Net-(R6-Pad1)*%
X159875001Y-123553001D02*
X158750000Y-122428000D01*
X159875001Y-134729001D02*
X159875001Y-123553001D01*
X161798000Y-136652000D02*
X159875001Y-134729001D01*
%TD*%
D25*
%TO.N,GND*%
X147010568Y-68678021D02*
X146978698Y-68704176D01*
X146892097Y-68809701D01*
X146874353Y-68831322D01*
X146796817Y-68976381D01*
X146749071Y-69133779D01*
X146732949Y-69297467D01*
X146736989Y-69338486D01*
X146736990Y-75748963D01*
X146732949Y-75789991D01*
X146749071Y-75953679D01*
X146796817Y-76111077D01*
X146874353Y-76256136D01*
X146874354Y-76256137D01*
X146978699Y-76383282D01*
X147010563Y-76409432D01*
X148303560Y-77702431D01*
X148329706Y-77734290D01*
X148361565Y-77760436D01*
X148361567Y-77760438D01*
X148456851Y-77838635D01*
X148601910Y-77916171D01*
X148759308Y-77963917D01*
X148922997Y-77980039D01*
X148964015Y-77975999D01*
X149937002Y-77975999D01*
X149937001Y-85188681D01*
X149933325Y-85226003D01*
X149937001Y-85263325D01*
X149937001Y-85263335D01*
X149947998Y-85374988D01*
X149971448Y-85452292D01*
X149991455Y-85518249D01*
X150062027Y-85650279D01*
X150082348Y-85675040D01*
X150157000Y-85766004D01*
X150186003Y-85789806D01*
X151387011Y-86990816D01*
X151387011Y-87461928D01*
X149422000Y-87461928D01*
X149297518Y-87474188D01*
X149177820Y-87510498D01*
X149067506Y-87569463D01*
X148970815Y-87648815D01*
X148891463Y-87745506D01*
X148832498Y-87855820D01*
X148796188Y-87975518D01*
X148783928Y-88100000D01*
X148783928Y-89700000D01*
X148796188Y-89824482D01*
X148832498Y-89944180D01*
X148891463Y-90054494D01*
X148970815Y-90151185D01*
X149067506Y-90230537D01*
X149177820Y-90289502D01*
X149297518Y-90325812D01*
X149315482Y-90327581D01*
X149202392Y-90420392D01*
X149023068Y-90638899D01*
X148889818Y-90888192D01*
X148807764Y-91158691D01*
X148780057Y-91440000D01*
X148807764Y-91721309D01*
X148889818Y-91991808D01*
X149023068Y-92241101D01*
X149202392Y-92459608D01*
X149420899Y-92638932D01*
X149553858Y-92710000D01*
X149420899Y-92781068D01*
X149202392Y-92960392D01*
X149023068Y-93178899D01*
X148889818Y-93428192D01*
X148807764Y-93698691D01*
X148780057Y-93980000D01*
X148807764Y-94261309D01*
X148889818Y-94531808D01*
X149023068Y-94781101D01*
X149202392Y-94999608D01*
X149420899Y-95178932D01*
X149553858Y-95250000D01*
X149420899Y-95321068D01*
X149202392Y-95500392D01*
X149023068Y-95718899D01*
X148889818Y-95968192D01*
X148807764Y-96238691D01*
X148780057Y-96520000D01*
X148807764Y-96801309D01*
X148889818Y-97071808D01*
X149023068Y-97321101D01*
X149202392Y-97539608D01*
X149420899Y-97718932D01*
X149670192Y-97852182D01*
X149787001Y-97887615D01*
X149787001Y-99192972D01*
X149782960Y-99234000D01*
X149799082Y-99397688D01*
X149846828Y-99555086D01*
X149924364Y-99700145D01*
X149924365Y-99700146D01*
X150028710Y-99827291D01*
X150060574Y-99853441D01*
X150555715Y-100348582D01*
X150537000Y-100442665D01*
X150537000Y-100725335D01*
X150592147Y-101002574D01*
X150700320Y-101263727D01*
X150857363Y-101498759D01*
X151057241Y-101698637D01*
X151137001Y-101751931D01*
X151137000Y-115124133D01*
X150890072Y-115371061D01*
X150890072Y-114670000D01*
X150877812Y-114545518D01*
X150841502Y-114425820D01*
X150782537Y-114315506D01*
X150703185Y-114218815D01*
X150606494Y-114139463D01*
X150506697Y-114086120D01*
X150544312Y-114048505D01*
X150712299Y-113797095D01*
X150828011Y-113517743D01*
X150887000Y-113221184D01*
X150887000Y-112918816D01*
X150828011Y-112622257D01*
X150712299Y-112342905D01*
X150544312Y-112091495D01*
X150330505Y-111877688D01*
X150187690Y-111782262D01*
X150236475Y-111634080D01*
X149352000Y-110749605D01*
X148467525Y-111634080D01*
X148516310Y-111782262D01*
X148373495Y-111877688D01*
X148159688Y-112091495D01*
X147991701Y-112342905D01*
X147875989Y-112622257D01*
X147817000Y-112918816D01*
X147817000Y-113221184D01*
X147875989Y-113517743D01*
X147991701Y-113797095D01*
X148159688Y-114048505D01*
X148197303Y-114086120D01*
X148097506Y-114139463D01*
X148000815Y-114218815D01*
X147921463Y-114315506D01*
X147862498Y-114425820D01*
X147826188Y-114545518D01*
X147813928Y-114670000D01*
X147813928Y-116470000D01*
X147826188Y-116594482D01*
X147862498Y-116714180D01*
X147921463Y-116824494D01*
X148000815Y-116921185D01*
X148097506Y-117000537D01*
X148207820Y-117059502D01*
X148327518Y-117095812D01*
X148452000Y-117108072D01*
X149153062Y-117108072D01*
X147952564Y-118308571D01*
X147920700Y-118334721D01*
X147894552Y-118366583D01*
X147816354Y-118461867D01*
X147738818Y-118606926D01*
X147691072Y-118764324D01*
X147674950Y-118928012D01*
X147678991Y-118969041D01*
X147678991Y-129617687D01*
X147575680Y-129368273D01*
X147418637Y-129133241D01*
X147218759Y-128933363D01*
X146983727Y-128776320D01*
X146722574Y-128668147D01*
X146445335Y-128613000D01*
X146162665Y-128613000D01*
X145885426Y-128668147D01*
X145624273Y-128776320D01*
X145389241Y-128933363D01*
X145189363Y-129133241D01*
X145032320Y-129368273D01*
X144924147Y-129629426D01*
X144869000Y-129906665D01*
X144869000Y-130189335D01*
X144924147Y-130466574D01*
X145032320Y-130727727D01*
X145189363Y-130962759D01*
X145389241Y-131162637D01*
X145624273Y-131319680D01*
X145885426Y-131427853D01*
X146162665Y-131483000D01*
X146445335Y-131483000D01*
X146722574Y-131427853D01*
X146983727Y-131319680D01*
X147218759Y-131162637D01*
X147418637Y-130962759D01*
X147575680Y-130727727D01*
X147678991Y-130478313D01*
X147678990Y-137237686D01*
X147575680Y-136988273D01*
X147418637Y-136753241D01*
X147218759Y-136553363D01*
X146983727Y-136396320D01*
X146722574Y-136288147D01*
X146445335Y-136233000D01*
X146162665Y-136233000D01*
X145885426Y-136288147D01*
X145624273Y-136396320D01*
X145389241Y-136553363D01*
X145189363Y-136753241D01*
X145032320Y-136988273D01*
X144924147Y-137249426D01*
X144869000Y-137526665D01*
X144869000Y-137809335D01*
X144924147Y-138086574D01*
X145032320Y-138347727D01*
X145189363Y-138582759D01*
X145389241Y-138782637D01*
X145624273Y-138939680D01*
X145885426Y-139047853D01*
X145971629Y-139065000D01*
X145885426Y-139082147D01*
X145624273Y-139190320D01*
X145389241Y-139347363D01*
X145189363Y-139547241D01*
X145032320Y-139782273D01*
X144924147Y-140043426D01*
X144869000Y-140320665D01*
X144869000Y-140603335D01*
X144924147Y-140880574D01*
X145032320Y-141141727D01*
X145189363Y-141376759D01*
X145389241Y-141576637D01*
X145624273Y-141733680D01*
X145885426Y-141841853D01*
X146162665Y-141897000D01*
X146445335Y-141897000D01*
X146722574Y-141841853D01*
X146983727Y-141733680D01*
X147218759Y-141576637D01*
X147418637Y-141376759D01*
X147575680Y-141141727D01*
X147678990Y-140892314D01*
X147678990Y-143458042D01*
X147674950Y-143499060D01*
X147678990Y-143540078D01*
X147691072Y-143662748D01*
X147738818Y-143820146D01*
X147816354Y-143965205D01*
X147920699Y-144092351D01*
X147952568Y-144118506D01*
X148545267Y-144711205D01*
X148450285Y-144850354D01*
X148339633Y-145110182D01*
X148322096Y-145192961D01*
X148444085Y-145415000D01*
X149987000Y-145415000D01*
X149987000Y-145395000D01*
X150241000Y-145395000D01*
X150241000Y-145415000D01*
X151783915Y-145415000D01*
X151905904Y-145192961D01*
X151888367Y-145110182D01*
X151777715Y-144850354D01*
X151682732Y-144711205D01*
X155895633Y-140498306D01*
X155919764Y-140743309D01*
X156001818Y-141013808D01*
X156135068Y-141263101D01*
X156314392Y-141481608D01*
X156532899Y-141660932D01*
X156665858Y-141732000D01*
X156532899Y-141803068D01*
X156314392Y-141982392D01*
X156135068Y-142200899D01*
X156001818Y-142450192D01*
X155919764Y-142720691D01*
X155892057Y-143002000D01*
X155919764Y-143283309D01*
X156001703Y-143553429D01*
X151887787Y-147667346D01*
X151846182Y-147530192D01*
X151712932Y-147280899D01*
X151533608Y-147062392D01*
X151315101Y-146883068D01*
X151187259Y-146814735D01*
X151416839Y-146664601D01*
X151618500Y-146466895D01*
X151777715Y-146233646D01*
X151888367Y-145973818D01*
X151905904Y-145891039D01*
X151783915Y-145669000D01*
X150241000Y-145669000D01*
X150241000Y-145689000D01*
X149987000Y-145689000D01*
X149987000Y-145669000D01*
X148444085Y-145669000D01*
X148322096Y-145891039D01*
X148339633Y-145973818D01*
X148450285Y-146233646D01*
X148609500Y-146466895D01*
X148811161Y-146664601D01*
X149040741Y-146814735D01*
X148912899Y-146883068D01*
X148694392Y-147062392D01*
X148515068Y-147280899D01*
X148381818Y-147530192D01*
X148299764Y-147800691D01*
X148272057Y-148082000D01*
X148299764Y-148363309D01*
X148381818Y-148633808D01*
X148515068Y-148883101D01*
X148694392Y-149101608D01*
X148912899Y-149280932D01*
X149045858Y-149352000D01*
X148912899Y-149423068D01*
X148694392Y-149602392D01*
X148515068Y-149820899D01*
X148381818Y-150070192D01*
X148299764Y-150340691D01*
X148272057Y-150622000D01*
X148299764Y-150903309D01*
X148381818Y-151173808D01*
X148515068Y-151423101D01*
X148694392Y-151641608D01*
X148912899Y-151820932D01*
X149162192Y-151954182D01*
X149432691Y-152036236D01*
X149643508Y-152057000D01*
X150584492Y-152057000D01*
X150795309Y-152036236D01*
X151065808Y-151954182D01*
X151315101Y-151820932D01*
X151348999Y-151793112D01*
X151348999Y-153759000D01*
X151242665Y-153759000D01*
X150965426Y-153814147D01*
X150704273Y-153922320D01*
X150469241Y-154079363D01*
X150269363Y-154279241D01*
X150112320Y-154514273D01*
X150004147Y-154775426D01*
X149949000Y-155052665D01*
X149949000Y-155335335D01*
X150004147Y-155612574D01*
X150112320Y-155873727D01*
X150269363Y-156108759D01*
X150469241Y-156308637D01*
X150704273Y-156465680D01*
X150965426Y-156573853D01*
X151242665Y-156629000D01*
X151525335Y-156629000D01*
X151802574Y-156573853D01*
X152063727Y-156465680D01*
X152298759Y-156308637D01*
X152420694Y-156186702D01*
X155570903Y-156186702D01*
X155642486Y-156430671D01*
X155897996Y-156551571D01*
X156172184Y-156620300D01*
X156454512Y-156634217D01*
X156734130Y-156592787D01*
X157000292Y-156497603D01*
X157125514Y-156430671D01*
X157197097Y-156186702D01*
X156384000Y-155373605D01*
X155570903Y-156186702D01*
X152420694Y-156186702D01*
X152498637Y-156108759D01*
X152655680Y-155873727D01*
X152763853Y-155612574D01*
X152819000Y-155335335D01*
X152819000Y-155264512D01*
X154943783Y-155264512D01*
X154985213Y-155544130D01*
X155080397Y-155810292D01*
X155147329Y-155935514D01*
X155391298Y-156007097D01*
X156204395Y-155194000D01*
X156563605Y-155194000D01*
X157376702Y-156007097D01*
X157620671Y-155935514D01*
X157741571Y-155680004D01*
X157810300Y-155405816D01*
X157824217Y-155123488D01*
X157782787Y-154843870D01*
X157687603Y-154577708D01*
X157620671Y-154452486D01*
X157376702Y-154380903D01*
X156563605Y-155194000D01*
X156204395Y-155194000D01*
X155391298Y-154380903D01*
X155147329Y-154452486D01*
X155026429Y-154707996D01*
X154957700Y-154982184D01*
X154943783Y-155264512D01*
X152819000Y-155264512D01*
X152819000Y-155052665D01*
X152800396Y-154959137D01*
X152881635Y-154860147D01*
X152959171Y-154715088D01*
X153006917Y-154557690D01*
X153018999Y-154435020D01*
X153018999Y-154435010D01*
X153023038Y-154394002D01*
X153018999Y-154352994D01*
X153018999Y-154201298D01*
X155570903Y-154201298D01*
X156384000Y-155014395D01*
X157107730Y-154290665D01*
X160363000Y-154290665D01*
X160363000Y-154573335D01*
X160418147Y-154850574D01*
X160526320Y-155111727D01*
X160683363Y-155346759D01*
X160883241Y-155546637D01*
X161118273Y-155703680D01*
X161379426Y-155811853D01*
X161656665Y-155867000D01*
X161939335Y-155867000D01*
X162216574Y-155811853D01*
X162477727Y-155703680D01*
X162712759Y-155546637D01*
X162912637Y-155346759D01*
X163069680Y-155111727D01*
X163177853Y-154850574D01*
X163233000Y-154573335D01*
X163233000Y-154290665D01*
X163919000Y-154290665D01*
X163919000Y-154573335D01*
X163974147Y-154850574D01*
X164082320Y-155111727D01*
X164239363Y-155346759D01*
X164439241Y-155546637D01*
X164674273Y-155703680D01*
X164935426Y-155811853D01*
X165212665Y-155867000D01*
X165495335Y-155867000D01*
X165772574Y-155811853D01*
X166033727Y-155703680D01*
X166268759Y-155546637D01*
X166468637Y-155346759D01*
X166625680Y-155111727D01*
X166733853Y-154850574D01*
X166789000Y-154573335D01*
X166789000Y-154290665D01*
X166733853Y-154013426D01*
X166625680Y-153752273D01*
X166468637Y-153517241D01*
X166268759Y-153317363D01*
X166033727Y-153160320D01*
X165772574Y-153052147D01*
X165495335Y-152997000D01*
X165212665Y-152997000D01*
X164935426Y-153052147D01*
X164674273Y-153160320D01*
X164439241Y-153317363D01*
X164239363Y-153517241D01*
X164082320Y-153752273D01*
X163974147Y-154013426D01*
X163919000Y-154290665D01*
X163233000Y-154290665D01*
X163177853Y-154013426D01*
X163069680Y-153752273D01*
X162912637Y-153517241D01*
X162712759Y-153317363D01*
X162477727Y-153160320D01*
X162216574Y-153052147D01*
X161939335Y-152997000D01*
X161656665Y-152997000D01*
X161379426Y-153052147D01*
X161118273Y-153160320D01*
X160883241Y-153317363D01*
X160683363Y-153517241D01*
X160526320Y-153752273D01*
X160418147Y-154013426D01*
X160363000Y-154290665D01*
X157107730Y-154290665D01*
X157197097Y-154201298D01*
X157125514Y-153957329D01*
X156870004Y-153836429D01*
X156595816Y-153767700D01*
X156313488Y-153753783D01*
X156033870Y-153795213D01*
X155767708Y-153890397D01*
X155642486Y-153957329D01*
X155570903Y-154201298D01*
X153018999Y-154201298D01*
X153018999Y-148897868D01*
X155956734Y-145960134D01*
X155959633Y-145973818D01*
X156070285Y-146233646D01*
X156229500Y-146466895D01*
X156431161Y-146664601D01*
X156660741Y-146814735D01*
X156532899Y-146883068D01*
X156314392Y-147062392D01*
X156135068Y-147280899D01*
X156001818Y-147530192D01*
X155919764Y-147800691D01*
X155892057Y-148082000D01*
X155919764Y-148363309D01*
X156001818Y-148633808D01*
X156135068Y-148883101D01*
X156314392Y-149101608D01*
X156532899Y-149280932D01*
X156665858Y-149352000D01*
X156532899Y-149423068D01*
X156314392Y-149602392D01*
X156135068Y-149820899D01*
X156001818Y-150070192D01*
X155919764Y-150340691D01*
X155892057Y-150622000D01*
X155919764Y-150903309D01*
X156001818Y-151173808D01*
X156135068Y-151423101D01*
X156314392Y-151641608D01*
X156532899Y-151820932D01*
X156782192Y-151954182D01*
X157052691Y-152036236D01*
X157263508Y-152057000D01*
X158204492Y-152057000D01*
X158415309Y-152036236D01*
X158685808Y-151954182D01*
X158935101Y-151820932D01*
X159153608Y-151641608D01*
X159332932Y-151423101D01*
X159466182Y-151173808D01*
X159548236Y-150903309D01*
X159575943Y-150622000D01*
X159548236Y-150340691D01*
X159466182Y-150070192D01*
X159332932Y-149820899D01*
X159153608Y-149602392D01*
X158935101Y-149423068D01*
X158802142Y-149352000D01*
X158935101Y-149280932D01*
X159153608Y-149101608D01*
X159332932Y-148883101D01*
X159466182Y-148633808D01*
X159548236Y-148363309D01*
X159575943Y-148082000D01*
X159548236Y-147800691D01*
X159466182Y-147530192D01*
X159332932Y-147280899D01*
X159153608Y-147062392D01*
X158935101Y-146883068D01*
X158807259Y-146814735D01*
X159036839Y-146664601D01*
X159238500Y-146466895D01*
X159397715Y-146233646D01*
X159508367Y-145973818D01*
X159525904Y-145891039D01*
X159403915Y-145669000D01*
X157861000Y-145669000D01*
X157861000Y-145689000D01*
X157607000Y-145689000D01*
X157607000Y-145669000D01*
X157587000Y-145669000D01*
X157587000Y-145415000D01*
X157607000Y-145415000D01*
X157607000Y-145395000D01*
X157861000Y-145395000D01*
X157861000Y-145415000D01*
X159403915Y-145415000D01*
X159525904Y-145192961D01*
X159508367Y-145110182D01*
X159397715Y-144850354D01*
X159238500Y-144617105D01*
X159036839Y-144419399D01*
X158807259Y-144269265D01*
X158935101Y-144200932D01*
X159020721Y-144130665D01*
X160363000Y-144130665D01*
X160363000Y-144413335D01*
X160418147Y-144690574D01*
X160526320Y-144951727D01*
X160683363Y-145186759D01*
X160883241Y-145386637D01*
X161115759Y-145542000D01*
X160883241Y-145697363D01*
X160683363Y-145897241D01*
X160526320Y-146132273D01*
X160418147Y-146393426D01*
X160363000Y-146670665D01*
X160363000Y-146953335D01*
X160418147Y-147230574D01*
X160526320Y-147491727D01*
X160683363Y-147726759D01*
X160883241Y-147926637D01*
X161118273Y-148083680D01*
X161379426Y-148191853D01*
X161656665Y-148247000D01*
X161939335Y-148247000D01*
X162216574Y-148191853D01*
X162477727Y-148083680D01*
X162712759Y-147926637D01*
X162912637Y-147726759D01*
X163069680Y-147491727D01*
X163177853Y-147230574D01*
X163233000Y-146953335D01*
X163233000Y-146670665D01*
X163177853Y-146393426D01*
X163069680Y-146132273D01*
X162912637Y-145897241D01*
X162712759Y-145697363D01*
X162480241Y-145542000D01*
X162712759Y-145386637D01*
X162912637Y-145186759D01*
X163069680Y-144951727D01*
X163177853Y-144690574D01*
X163233000Y-144413335D01*
X163233000Y-144130665D01*
X163919000Y-144130665D01*
X163919000Y-144413335D01*
X163974147Y-144690574D01*
X164082320Y-144951727D01*
X164239363Y-145186759D01*
X164439241Y-145386637D01*
X164671759Y-145542000D01*
X164439241Y-145697363D01*
X164239363Y-145897241D01*
X164082320Y-146132273D01*
X163974147Y-146393426D01*
X163919000Y-146670665D01*
X163919000Y-146953335D01*
X163974147Y-147230574D01*
X164082320Y-147491727D01*
X164239363Y-147726759D01*
X164439241Y-147926637D01*
X164674273Y-148083680D01*
X164935426Y-148191853D01*
X165212665Y-148247000D01*
X165495335Y-148247000D01*
X165772574Y-148191853D01*
X166033727Y-148083680D01*
X166268759Y-147926637D01*
X166468637Y-147726759D01*
X166625680Y-147491727D01*
X166733853Y-147230574D01*
X166789000Y-146953335D01*
X166789000Y-146670665D01*
X166733853Y-146393426D01*
X166625680Y-146132273D01*
X166468637Y-145897241D01*
X166268759Y-145697363D01*
X166036241Y-145542000D01*
X166268759Y-145386637D01*
X166468637Y-145186759D01*
X166625680Y-144951727D01*
X166733853Y-144690574D01*
X166789000Y-144413335D01*
X166789000Y-144130665D01*
X166733853Y-143853426D01*
X166625680Y-143592273D01*
X166468637Y-143357241D01*
X166268759Y-143157363D01*
X166033727Y-143000320D01*
X165772574Y-142892147D01*
X165495335Y-142837000D01*
X165212665Y-142837000D01*
X164935426Y-142892147D01*
X164674273Y-143000320D01*
X164439241Y-143157363D01*
X164239363Y-143357241D01*
X164082320Y-143592273D01*
X163974147Y-143853426D01*
X163919000Y-144130665D01*
X163233000Y-144130665D01*
X163177853Y-143853426D01*
X163069680Y-143592273D01*
X162912637Y-143357241D01*
X162712759Y-143157363D01*
X162477727Y-143000320D01*
X162216574Y-142892147D01*
X161939335Y-142837000D01*
X161656665Y-142837000D01*
X161379426Y-142892147D01*
X161118273Y-143000320D01*
X160883241Y-143157363D01*
X160683363Y-143357241D01*
X160526320Y-143592273D01*
X160418147Y-143853426D01*
X160363000Y-144130665D01*
X159020721Y-144130665D01*
X159153608Y-144021608D01*
X159332932Y-143803101D01*
X159466182Y-143553808D01*
X159548236Y-143283309D01*
X159575943Y-143002000D01*
X159548236Y-142720691D01*
X159466297Y-142450571D01*
X159895443Y-142021426D01*
X159927301Y-141995281D01*
X160031646Y-141868136D01*
X160109182Y-141723077D01*
X160156928Y-141565679D01*
X160169010Y-141443009D01*
X160169010Y-141443008D01*
X160173050Y-141401990D01*
X160169010Y-141360972D01*
X160169010Y-136097811D01*
X160399312Y-136328114D01*
X160363000Y-136510665D01*
X160363000Y-136793335D01*
X160418147Y-137070574D01*
X160526320Y-137331727D01*
X160683363Y-137566759D01*
X160883241Y-137766637D01*
X161118273Y-137923680D01*
X161379426Y-138031853D01*
X161656665Y-138087000D01*
X161939335Y-138087000D01*
X162216574Y-138031853D01*
X162477727Y-137923680D01*
X162712759Y-137766637D01*
X162912637Y-137566759D01*
X163069680Y-137331727D01*
X163177853Y-137070574D01*
X163233000Y-136793335D01*
X163233000Y-136510665D01*
X163919000Y-136510665D01*
X163919000Y-136793335D01*
X163974147Y-137070574D01*
X164082320Y-137331727D01*
X164239363Y-137566759D01*
X164439241Y-137766637D01*
X164674273Y-137923680D01*
X164935426Y-138031853D01*
X165212665Y-138087000D01*
X165495335Y-138087000D01*
X165772574Y-138031853D01*
X166033727Y-137923680D01*
X166268759Y-137766637D01*
X166468637Y-137566759D01*
X166625680Y-137331727D01*
X166733853Y-137070574D01*
X166789000Y-136793335D01*
X166789000Y-136510665D01*
X166733853Y-136233426D01*
X166625680Y-135972273D01*
X166468637Y-135737241D01*
X166268759Y-135537363D01*
X166033727Y-135380320D01*
X165772574Y-135272147D01*
X165495335Y-135217000D01*
X165212665Y-135217000D01*
X164935426Y-135272147D01*
X164674273Y-135380320D01*
X164439241Y-135537363D01*
X164239363Y-135737241D01*
X164082320Y-135972273D01*
X163974147Y-136233426D01*
X163919000Y-136510665D01*
X163233000Y-136510665D01*
X163177853Y-136233426D01*
X163069680Y-135972273D01*
X162912637Y-135737241D01*
X162712759Y-135537363D01*
X162477727Y-135380320D01*
X162216574Y-135272147D01*
X161939335Y-135217000D01*
X161656665Y-135217000D01*
X161474114Y-135253312D01*
X160635001Y-134414200D01*
X160635001Y-130468000D01*
X161325928Y-130468000D01*
X161325928Y-132168000D01*
X161338188Y-132292482D01*
X161374498Y-132412180D01*
X161433463Y-132522494D01*
X161512815Y-132619185D01*
X161609506Y-132698537D01*
X161719820Y-132757502D01*
X161839518Y-132793812D01*
X161964000Y-132806072D01*
X163664000Y-132806072D01*
X163788482Y-132793812D01*
X163908180Y-132757502D01*
X164018494Y-132698537D01*
X164115185Y-132619185D01*
X164194537Y-132522494D01*
X164253502Y-132412180D01*
X164277966Y-132331534D01*
X164353731Y-132415588D01*
X164587080Y-132589641D01*
X164849901Y-132714825D01*
X164997110Y-132759476D01*
X165227000Y-132638155D01*
X165227000Y-131445000D01*
X165481000Y-131445000D01*
X165481000Y-132638155D01*
X165710890Y-132759476D01*
X165858099Y-132714825D01*
X166120920Y-132589641D01*
X166354269Y-132415588D01*
X166549178Y-132199355D01*
X166698157Y-131949252D01*
X166795481Y-131674891D01*
X166674814Y-131445000D01*
X165481000Y-131445000D01*
X165227000Y-131445000D01*
X165207000Y-131445000D01*
X165207000Y-131191000D01*
X165227000Y-131191000D01*
X165227000Y-129997845D01*
X165481000Y-129997845D01*
X165481000Y-131191000D01*
X166674814Y-131191000D01*
X166795481Y-130961109D01*
X166698157Y-130686748D01*
X166549178Y-130436645D01*
X166354269Y-130220412D01*
X166120920Y-130046359D01*
X165858099Y-129921175D01*
X165710890Y-129876524D01*
X165481000Y-129997845D01*
X165227000Y-129997845D01*
X164997110Y-129876524D01*
X164849901Y-129921175D01*
X164587080Y-130046359D01*
X164353731Y-130220412D01*
X164277966Y-130304466D01*
X164253502Y-130223820D01*
X164194537Y-130113506D01*
X164115185Y-130016815D01*
X164018494Y-129937463D01*
X163908180Y-129878498D01*
X163788482Y-129842188D01*
X163664000Y-129829928D01*
X161964000Y-129829928D01*
X161839518Y-129842188D01*
X161719820Y-129878498D01*
X161609506Y-129937463D01*
X161512815Y-130016815D01*
X161433463Y-130113506D01*
X161374498Y-130223820D01*
X161338188Y-130343518D01*
X161325928Y-130468000D01*
X160635001Y-130468000D01*
X160635001Y-126150000D01*
X161325928Y-126150000D01*
X161325928Y-127850000D01*
X161338188Y-127974482D01*
X161374498Y-128094180D01*
X161433463Y-128204494D01*
X161512815Y-128301185D01*
X161609506Y-128380537D01*
X161719820Y-128439502D01*
X161839518Y-128475812D01*
X161964000Y-128488072D01*
X163664000Y-128488072D01*
X163788482Y-128475812D01*
X163908180Y-128439502D01*
X164018494Y-128380537D01*
X164115185Y-128301185D01*
X164194537Y-128204494D01*
X164253502Y-128094180D01*
X164277966Y-128013534D01*
X164353731Y-128097588D01*
X164587080Y-128271641D01*
X164849901Y-128396825D01*
X164997110Y-128441476D01*
X165227000Y-128320155D01*
X165227000Y-127127000D01*
X165481000Y-127127000D01*
X165481000Y-128320155D01*
X165710890Y-128441476D01*
X165858099Y-128396825D01*
X166120920Y-128271641D01*
X166354269Y-128097588D01*
X166549178Y-127881355D01*
X166698157Y-127631252D01*
X166795481Y-127356891D01*
X166674814Y-127127000D01*
X165481000Y-127127000D01*
X165227000Y-127127000D01*
X165207000Y-127127000D01*
X165207000Y-126873000D01*
X165227000Y-126873000D01*
X165227000Y-125679845D01*
X165481000Y-125679845D01*
X165481000Y-126873000D01*
X166674814Y-126873000D01*
X166795481Y-126643109D01*
X166698157Y-126368748D01*
X166549178Y-126118645D01*
X166354269Y-125902412D01*
X166120920Y-125728359D01*
X165858099Y-125603175D01*
X165710890Y-125558524D01*
X165481000Y-125679845D01*
X165227000Y-125679845D01*
X164997110Y-125558524D01*
X164849901Y-125603175D01*
X164587080Y-125728359D01*
X164353731Y-125902412D01*
X164277966Y-125986466D01*
X164253502Y-125905820D01*
X164194537Y-125795506D01*
X164115185Y-125698815D01*
X164018494Y-125619463D01*
X163908180Y-125560498D01*
X163788482Y-125524188D01*
X163664000Y-125511928D01*
X161964000Y-125511928D01*
X161839518Y-125524188D01*
X161719820Y-125560498D01*
X161609506Y-125619463D01*
X161512815Y-125698815D01*
X161433463Y-125795506D01*
X161374498Y-125905820D01*
X161338188Y-126025518D01*
X161325928Y-126150000D01*
X160635001Y-126150000D01*
X160635001Y-123590326D01*
X160638677Y-123553001D01*
X160635001Y-123515676D01*
X160635001Y-123515668D01*
X160624004Y-123404015D01*
X160580547Y-123260754D01*
X160509975Y-123128725D01*
X160415002Y-123013000D01*
X160386004Y-122989202D01*
X160148688Y-122751886D01*
X160185000Y-122569335D01*
X160185000Y-122286665D01*
X160129853Y-122009426D01*
X160056361Y-121832000D01*
X161325928Y-121832000D01*
X161325928Y-123532000D01*
X161338188Y-123656482D01*
X161374498Y-123776180D01*
X161433463Y-123886494D01*
X161512815Y-123983185D01*
X161609506Y-124062537D01*
X161719820Y-124121502D01*
X161839518Y-124157812D01*
X161964000Y-124170072D01*
X163664000Y-124170072D01*
X163788482Y-124157812D01*
X163908180Y-124121502D01*
X164018494Y-124062537D01*
X164115185Y-123983185D01*
X164194537Y-123886494D01*
X164253502Y-123776180D01*
X164277966Y-123695534D01*
X164353731Y-123779588D01*
X164587080Y-123953641D01*
X164849901Y-124078825D01*
X164997110Y-124123476D01*
X165227000Y-124002155D01*
X165227000Y-122809000D01*
X165481000Y-122809000D01*
X165481000Y-124002155D01*
X165710890Y-124123476D01*
X165858099Y-124078825D01*
X166120920Y-123953641D01*
X166354269Y-123779588D01*
X166549178Y-123563355D01*
X166698157Y-123313252D01*
X166795481Y-123038891D01*
X166674814Y-122809000D01*
X165481000Y-122809000D01*
X165227000Y-122809000D01*
X165207000Y-122809000D01*
X165207000Y-122555000D01*
X165227000Y-122555000D01*
X165227000Y-121361845D01*
X165481000Y-121361845D01*
X165481000Y-122555000D01*
X166674814Y-122555000D01*
X166795481Y-122325109D01*
X166698157Y-122050748D01*
X166549178Y-121800645D01*
X166354269Y-121584412D01*
X166120920Y-121410359D01*
X165858099Y-121285175D01*
X165710890Y-121240524D01*
X165481000Y-121361845D01*
X165227000Y-121361845D01*
X164997110Y-121240524D01*
X164849901Y-121285175D01*
X164587080Y-121410359D01*
X164353731Y-121584412D01*
X164277966Y-121668466D01*
X164253502Y-121587820D01*
X164194537Y-121477506D01*
X164115185Y-121380815D01*
X164018494Y-121301463D01*
X163908180Y-121242498D01*
X163788482Y-121206188D01*
X163664000Y-121193928D01*
X161964000Y-121193928D01*
X161839518Y-121206188D01*
X161719820Y-121242498D01*
X161609506Y-121301463D01*
X161512815Y-121380815D01*
X161433463Y-121477506D01*
X161374498Y-121587820D01*
X161338188Y-121707518D01*
X161325928Y-121832000D01*
X160056361Y-121832000D01*
X160021680Y-121748273D01*
X159864637Y-121513241D01*
X159664759Y-121313363D01*
X159429727Y-121156320D01*
X159168574Y-121048147D01*
X159046921Y-121023948D01*
X166423427Y-113647443D01*
X166455291Y-113621293D01*
X166559636Y-113494148D01*
X166637172Y-113349089D01*
X166684918Y-113191691D01*
X166697000Y-113069021D01*
X166697000Y-113069011D01*
X166701039Y-113028003D01*
X166697000Y-112986995D01*
X166697000Y-112686625D01*
X166786482Y-112677812D01*
X166906180Y-112641502D01*
X167016494Y-112582537D01*
X167113185Y-112503185D01*
X167192537Y-112406494D01*
X167251502Y-112296180D01*
X167287812Y-112176482D01*
X167300072Y-112052000D01*
X167300072Y-110994796D01*
X167623433Y-110671436D01*
X167655292Y-110645290D01*
X167759637Y-110518145D01*
X167837173Y-110373086D01*
X167884919Y-110215688D01*
X167897001Y-110093018D01*
X167897001Y-110093017D01*
X167901041Y-110051999D01*
X167897001Y-110010981D01*
X167897001Y-98269008D01*
X167901040Y-98228000D01*
X167897001Y-98186992D01*
X167897001Y-98186982D01*
X167884919Y-98064312D01*
X167837173Y-97906914D01*
X167759637Y-97761855D01*
X167655292Y-97634710D01*
X167623429Y-97608561D01*
X167586373Y-97571505D01*
X167614600Y-97429599D01*
X167614600Y-97134401D01*
X167557010Y-96844875D01*
X167444042Y-96572147D01*
X167280039Y-96326698D01*
X167071302Y-96117961D01*
X166905897Y-96007441D01*
X167004488Y-95948817D01*
X167222854Y-95752293D01*
X167398684Y-95516944D01*
X167525222Y-95251814D01*
X167570958Y-95101026D01*
X167449817Y-94869000D01*
X166243000Y-94869000D01*
X166243000Y-94889000D01*
X165989000Y-94889000D01*
X165989000Y-94869000D01*
X163703000Y-94869000D01*
X163703000Y-94889000D01*
X163449000Y-94889000D01*
X163449000Y-94869000D01*
X163429000Y-94869000D01*
X163429000Y-94615000D01*
X163449000Y-94615000D01*
X163449000Y-92329000D01*
X163703000Y-92329000D01*
X163703000Y-94615000D01*
X165989000Y-94615000D01*
X165989000Y-92329000D01*
X166243000Y-92329000D01*
X166243000Y-94615000D01*
X167449817Y-94615000D01*
X167570958Y-94382974D01*
X167525222Y-94232186D01*
X167398684Y-93967056D01*
X167222854Y-93731707D01*
X167004488Y-93535183D01*
X166898230Y-93472000D01*
X167004488Y-93408817D01*
X167222854Y-93212293D01*
X167398684Y-92976944D01*
X167525222Y-92711814D01*
X167570958Y-92561026D01*
X167449817Y-92329000D01*
X166243000Y-92329000D01*
X165989000Y-92329000D01*
X163703000Y-92329000D01*
X163449000Y-92329000D01*
X163429000Y-92329000D01*
X163429000Y-92075000D01*
X163449000Y-92075000D01*
X163449000Y-89789000D01*
X163703000Y-89789000D01*
X163703000Y-92075000D01*
X165989000Y-92075000D01*
X165989000Y-89789000D01*
X166243000Y-89789000D01*
X166243000Y-92075000D01*
X167449817Y-92075000D01*
X167570958Y-91842974D01*
X167525222Y-91692186D01*
X167398684Y-91427056D01*
X167222854Y-91191707D01*
X167004488Y-90995183D01*
X166898230Y-90932000D01*
X167004488Y-90868817D01*
X167222854Y-90672293D01*
X167398684Y-90436944D01*
X167525222Y-90171814D01*
X167570958Y-90021026D01*
X167449817Y-89789000D01*
X166243000Y-89789000D01*
X165989000Y-89789000D01*
X163703000Y-89789000D01*
X163449000Y-89789000D01*
X162242183Y-89789000D01*
X162121042Y-90021026D01*
X162166778Y-90171814D01*
X162293316Y-90436944D01*
X162469146Y-90672293D01*
X162687512Y-90868817D01*
X162793770Y-90932000D01*
X162687512Y-90995183D01*
X162469146Y-91191707D01*
X162293316Y-91427056D01*
X162182375Y-91659507D01*
X159974297Y-89451430D01*
X160056236Y-89181309D01*
X160083943Y-88900000D01*
X160056236Y-88618691D01*
X159974182Y-88348192D01*
X159840932Y-88098899D01*
X159661608Y-87880392D01*
X159443101Y-87701068D01*
X159193808Y-87567818D01*
X158923309Y-87485764D01*
X158712492Y-87465000D01*
X157771508Y-87465000D01*
X157560691Y-87485764D01*
X157290192Y-87567818D01*
X157040899Y-87701068D01*
X156822392Y-87880392D01*
X156670888Y-88065000D01*
X156381869Y-88065000D01*
X154145570Y-85828702D01*
X156158903Y-85828702D01*
X156230486Y-86072671D01*
X156485996Y-86193571D01*
X156760184Y-86262300D01*
X157042512Y-86276217D01*
X157322130Y-86234787D01*
X157588292Y-86139603D01*
X157713514Y-86072671D01*
X157785097Y-85828702D01*
X156972000Y-85015605D01*
X156158903Y-85828702D01*
X154145570Y-85828702D01*
X153388285Y-85071418D01*
X153407000Y-84977335D01*
X153407000Y-84906512D01*
X155531783Y-84906512D01*
X155573213Y-85186130D01*
X155668397Y-85452292D01*
X155735329Y-85577514D01*
X155979298Y-85649097D01*
X156792395Y-84836000D01*
X157151605Y-84836000D01*
X157964702Y-85649097D01*
X158208671Y-85577514D01*
X158329571Y-85322004D01*
X158398300Y-85047816D01*
X158412217Y-84765488D01*
X158370787Y-84485870D01*
X158275603Y-84219708D01*
X158208671Y-84094486D01*
X157964702Y-84022903D01*
X157151605Y-84836000D01*
X156792395Y-84836000D01*
X155979298Y-84022903D01*
X155735329Y-84094486D01*
X155614429Y-84349996D01*
X155545700Y-84624184D01*
X155531783Y-84906512D01*
X153407000Y-84906512D01*
X153407000Y-84694665D01*
X153351853Y-84417426D01*
X153243680Y-84156273D01*
X153086637Y-83921241D01*
X153008694Y-83843298D01*
X156158903Y-83843298D01*
X156972000Y-84656395D01*
X157785097Y-83843298D01*
X157713514Y-83599329D01*
X157458004Y-83478429D01*
X157183816Y-83409700D01*
X156901488Y-83395783D01*
X156621870Y-83437213D01*
X156355708Y-83532397D01*
X156230486Y-83599329D01*
X156158903Y-83843298D01*
X153008694Y-83843298D01*
X152886759Y-83721363D01*
X152807000Y-83668070D01*
X152807000Y-77247902D01*
X154717000Y-77247902D01*
X154717000Y-77692098D01*
X154803658Y-78127759D01*
X154973645Y-78538143D01*
X155220427Y-78907479D01*
X155534521Y-79221573D01*
X155903857Y-79468355D01*
X156314241Y-79638342D01*
X156749902Y-79725000D01*
X157194098Y-79725000D01*
X157629759Y-79638342D01*
X158040143Y-79468355D01*
X158409479Y-79221573D01*
X158723573Y-78907479D01*
X158970355Y-78538143D01*
X159140342Y-78127759D01*
X159227000Y-77692098D01*
X159227000Y-77247902D01*
X159140342Y-76812241D01*
X158970355Y-76401857D01*
X158723573Y-76032521D01*
X158675052Y-75984000D01*
X164423928Y-75984000D01*
X164436188Y-76108482D01*
X164472498Y-76228180D01*
X164531463Y-76338494D01*
X164610815Y-76435185D01*
X164707506Y-76514537D01*
X164817820Y-76573502D01*
X164937518Y-76609812D01*
X165062000Y-76622072D01*
X165576250Y-76619000D01*
X165735000Y-76460250D01*
X165735000Y-75311000D01*
X164585750Y-75311000D01*
X164427000Y-75469750D01*
X164423928Y-75984000D01*
X158675052Y-75984000D01*
X158409479Y-75718427D01*
X158040143Y-75471645D01*
X157629759Y-75301658D01*
X157194098Y-75215000D01*
X156749902Y-75215000D01*
X156314241Y-75301658D01*
X155903857Y-75471645D01*
X155534521Y-75718427D01*
X155220427Y-76032521D01*
X154973645Y-76401857D01*
X154803658Y-76812241D01*
X154717000Y-77247902D01*
X152807000Y-77247902D01*
X152807000Y-70787013D01*
X152811040Y-70745997D01*
X152804638Y-70681002D01*
X152794918Y-70582309D01*
X152747172Y-70424911D01*
X152669636Y-70279852D01*
X152565291Y-70152707D01*
X152533428Y-70126558D01*
X150715447Y-68308578D01*
X150689292Y-68276708D01*
X150562147Y-68172363D01*
X150417088Y-68094827D01*
X150259690Y-68047081D01*
X150137020Y-68034999D01*
X150137019Y-68034999D01*
X150096001Y-68030959D01*
X150054983Y-68034999D01*
X150015325Y-68034999D01*
X151765315Y-66285010D01*
X155367938Y-66285010D01*
X155220427Y-66432521D01*
X154973645Y-66801857D01*
X154803658Y-67212241D01*
X154717000Y-67647902D01*
X154717000Y-68092098D01*
X154803658Y-68527759D01*
X154973645Y-68938143D01*
X155220427Y-69307479D01*
X155534521Y-69621573D01*
X155903857Y-69868355D01*
X156314241Y-70038342D01*
X156749902Y-70125000D01*
X157194098Y-70125000D01*
X157629759Y-70038342D01*
X158040143Y-69868355D01*
X158409479Y-69621573D01*
X158723573Y-69307479D01*
X158970355Y-68938143D01*
X159140342Y-68527759D01*
X159227000Y-68092098D01*
X159227000Y-67647902D01*
X159140342Y-67212241D01*
X159091529Y-67094396D01*
X164445714Y-72448583D01*
X164427000Y-72542665D01*
X164427000Y-72825335D01*
X164482147Y-73102574D01*
X164590320Y-73363727D01*
X164747363Y-73598759D01*
X164913943Y-73765339D01*
X164817820Y-73794498D01*
X164707506Y-73853463D01*
X164610815Y-73932815D01*
X164531463Y-74029506D01*
X164472498Y-74139820D01*
X164436188Y-74259518D01*
X164423928Y-74384000D01*
X164427000Y-74898250D01*
X164585750Y-75057000D01*
X165735000Y-75057000D01*
X165735000Y-75037000D01*
X165989000Y-75037000D01*
X165989000Y-75057000D01*
X166009000Y-75057000D01*
X166009000Y-75311000D01*
X165989000Y-75311000D01*
X165989000Y-76460250D01*
X166147750Y-76619000D01*
X166227002Y-76619473D01*
X166227001Y-85623400D01*
X165968401Y-85623400D01*
X165678875Y-85680990D01*
X165406147Y-85793958D01*
X165160698Y-85957961D01*
X165046636Y-86072023D01*
X165029102Y-86014220D01*
X164970137Y-85903906D01*
X164890785Y-85807215D01*
X164794094Y-85727863D01*
X164683780Y-85668898D01*
X164564082Y-85632588D01*
X164439600Y-85620328D01*
X162712400Y-85620328D01*
X162587918Y-85632588D01*
X162468220Y-85668898D01*
X162357906Y-85727863D01*
X162261215Y-85807215D01*
X162181863Y-85903906D01*
X162122898Y-86014220D01*
X162086588Y-86133918D01*
X162074328Y-86258400D01*
X162074328Y-87985600D01*
X162086588Y-88110082D01*
X162122898Y-88229780D01*
X162181863Y-88340094D01*
X162261215Y-88436785D01*
X162357906Y-88516137D01*
X162468220Y-88575102D01*
X162532574Y-88594624D01*
X162469146Y-88651707D01*
X162293316Y-88887056D01*
X162166778Y-89152186D01*
X162121042Y-89302974D01*
X162242183Y-89535000D01*
X163449000Y-89535000D01*
X163449000Y-89515000D01*
X163703000Y-89515000D01*
X163703000Y-89535000D01*
X165989000Y-89535000D01*
X165989000Y-89515000D01*
X166243000Y-89515000D01*
X166243000Y-89535000D01*
X167449817Y-89535000D01*
X167570958Y-89302974D01*
X167525222Y-89152186D01*
X167398684Y-88887056D01*
X167222854Y-88651707D01*
X167004488Y-88455183D01*
X166905897Y-88396559D01*
X167071302Y-88286039D01*
X167280039Y-88077302D01*
X167444042Y-87831853D01*
X167557010Y-87559125D01*
X167614600Y-87269599D01*
X167614600Y-86974401D01*
X167586373Y-86832495D01*
X167623429Y-86795439D01*
X167655292Y-86769290D01*
X167759637Y-86642145D01*
X167837173Y-86497086D01*
X167884919Y-86339688D01*
X167897001Y-86217018D01*
X167897001Y-86217008D01*
X167901040Y-86176000D01*
X167897001Y-86134992D01*
X167897001Y-73925019D01*
X167901041Y-73884001D01*
X167888649Y-73758188D01*
X167884919Y-73720312D01*
X167837173Y-73562914D01*
X167759637Y-73417855D01*
X167729913Y-73381636D01*
X167681440Y-73322571D01*
X167681438Y-73322569D01*
X167655292Y-73290710D01*
X167623433Y-73264564D01*
X167278286Y-72919417D01*
X167297000Y-72825335D01*
X167297000Y-72542665D01*
X167241853Y-72265426D01*
X167133680Y-72004273D01*
X166976637Y-71769241D01*
X166776759Y-71569363D01*
X166541727Y-71412320D01*
X166280574Y-71304147D01*
X166003335Y-71249000D01*
X165720665Y-71249000D01*
X165626583Y-71267714D01*
X160043867Y-65685000D01*
X169315000Y-65685000D01*
X169315001Y-159315000D01*
X147260396Y-159315000D01*
X147418637Y-159156759D01*
X147575680Y-158921727D01*
X147683853Y-158660574D01*
X147739000Y-158383335D01*
X147739000Y-158100665D01*
X147683853Y-157823426D01*
X147575680Y-157562273D01*
X147418637Y-157327241D01*
X147218759Y-157127363D01*
X146983727Y-156970320D01*
X146722574Y-156862147D01*
X146445335Y-156807000D01*
X146162665Y-156807000D01*
X145885426Y-156862147D01*
X145624273Y-156970320D01*
X145389241Y-157127363D01*
X145189363Y-157327241D01*
X145032320Y-157562273D01*
X144924147Y-157823426D01*
X144869000Y-158100665D01*
X144869000Y-158383335D01*
X144924147Y-158660574D01*
X145032320Y-158921727D01*
X145189363Y-159156759D01*
X145347604Y-159315000D01*
X140685000Y-159315000D01*
X140685000Y-147940665D01*
X141313000Y-147940665D01*
X141313000Y-148223335D01*
X141368147Y-148500574D01*
X141476320Y-148761727D01*
X141633363Y-148996759D01*
X141833241Y-149196637D01*
X142068273Y-149353680D01*
X142329426Y-149461853D01*
X142606665Y-149517000D01*
X142889335Y-149517000D01*
X143166574Y-149461853D01*
X143427727Y-149353680D01*
X143662759Y-149196637D01*
X143862637Y-148996759D01*
X144019680Y-148761727D01*
X144127853Y-148500574D01*
X144183000Y-148223335D01*
X144183000Y-147940665D01*
X144869000Y-147940665D01*
X144869000Y-148223335D01*
X144924147Y-148500574D01*
X145032320Y-148761727D01*
X145189363Y-148996759D01*
X145389241Y-149196637D01*
X145621759Y-149352000D01*
X145389241Y-149507363D01*
X145189363Y-149707241D01*
X145032320Y-149942273D01*
X144924147Y-150203426D01*
X144869000Y-150480665D01*
X144869000Y-150763335D01*
X144924147Y-151040574D01*
X145032320Y-151301727D01*
X145189363Y-151536759D01*
X145389241Y-151736637D01*
X145624273Y-151893680D01*
X145885426Y-152001853D01*
X146162665Y-152057000D01*
X146445335Y-152057000D01*
X146722574Y-152001853D01*
X146983727Y-151893680D01*
X147218759Y-151736637D01*
X147418637Y-151536759D01*
X147575680Y-151301727D01*
X147683853Y-151040574D01*
X147739000Y-150763335D01*
X147739000Y-150480665D01*
X147683853Y-150203426D01*
X147575680Y-149942273D01*
X147418637Y-149707241D01*
X147218759Y-149507363D01*
X146986241Y-149352000D01*
X147218759Y-149196637D01*
X147418637Y-148996759D01*
X147575680Y-148761727D01*
X147683853Y-148500574D01*
X147739000Y-148223335D01*
X147739000Y-147940665D01*
X147683853Y-147663426D01*
X147575680Y-147402273D01*
X147418637Y-147167241D01*
X147218759Y-146967363D01*
X146983727Y-146810320D01*
X146722574Y-146702147D01*
X146445335Y-146647000D01*
X146162665Y-146647000D01*
X145885426Y-146702147D01*
X145624273Y-146810320D01*
X145389241Y-146967363D01*
X145189363Y-147167241D01*
X145032320Y-147402273D01*
X144924147Y-147663426D01*
X144869000Y-147940665D01*
X144183000Y-147940665D01*
X144127853Y-147663426D01*
X144019680Y-147402273D01*
X143862637Y-147167241D01*
X143662759Y-146967363D01*
X143427727Y-146810320D01*
X143166574Y-146702147D01*
X142889335Y-146647000D01*
X142606665Y-146647000D01*
X142329426Y-146702147D01*
X142068273Y-146810320D01*
X141833241Y-146967363D01*
X141633363Y-147167241D01*
X141476320Y-147402273D01*
X141368147Y-147663426D01*
X141313000Y-147940665D01*
X140685000Y-147940665D01*
X140685000Y-137526665D01*
X141313000Y-137526665D01*
X141313000Y-137809335D01*
X141368147Y-138086574D01*
X141476320Y-138347727D01*
X141633363Y-138582759D01*
X141833241Y-138782637D01*
X142068273Y-138939680D01*
X142329426Y-139047853D01*
X142415629Y-139065000D01*
X142329426Y-139082147D01*
X142068273Y-139190320D01*
X141833241Y-139347363D01*
X141633363Y-139547241D01*
X141476320Y-139782273D01*
X141368147Y-140043426D01*
X141313000Y-140320665D01*
X141313000Y-140603335D01*
X141368147Y-140880574D01*
X141476320Y-141141727D01*
X141633363Y-141376759D01*
X141833241Y-141576637D01*
X142068273Y-141733680D01*
X142329426Y-141841853D01*
X142606665Y-141897000D01*
X142889335Y-141897000D01*
X143166574Y-141841853D01*
X143427727Y-141733680D01*
X143662759Y-141576637D01*
X143862637Y-141376759D01*
X144019680Y-141141727D01*
X144127853Y-140880574D01*
X144183000Y-140603335D01*
X144183000Y-140320665D01*
X144127853Y-140043426D01*
X144019680Y-139782273D01*
X143862637Y-139547241D01*
X143662759Y-139347363D01*
X143427727Y-139190320D01*
X143166574Y-139082147D01*
X143080371Y-139065000D01*
X143166574Y-139047853D01*
X143427727Y-138939680D01*
X143662759Y-138782637D01*
X143862637Y-138582759D01*
X144019680Y-138347727D01*
X144127853Y-138086574D01*
X144183000Y-137809335D01*
X144183000Y-137526665D01*
X144127853Y-137249426D01*
X144019680Y-136988273D01*
X143862637Y-136753241D01*
X143662759Y-136553363D01*
X143427727Y-136396320D01*
X143166574Y-136288147D01*
X142889335Y-136233000D01*
X142606665Y-136233000D01*
X142329426Y-136288147D01*
X142068273Y-136396320D01*
X141833241Y-136553363D01*
X141633363Y-136753241D01*
X141476320Y-136988273D01*
X141368147Y-137249426D01*
X141313000Y-137526665D01*
X140685000Y-137526665D01*
X140685000Y-129906665D01*
X141313000Y-129906665D01*
X141313000Y-130189335D01*
X141368147Y-130466574D01*
X141476320Y-130727727D01*
X141633363Y-130962759D01*
X141833241Y-131162637D01*
X142068273Y-131319680D01*
X142329426Y-131427853D01*
X142606665Y-131483000D01*
X142889335Y-131483000D01*
X143166574Y-131427853D01*
X143427727Y-131319680D01*
X143662759Y-131162637D01*
X143862637Y-130962759D01*
X144019680Y-130727727D01*
X144127853Y-130466574D01*
X144183000Y-130189335D01*
X144183000Y-129906665D01*
X144127853Y-129629426D01*
X144019680Y-129368273D01*
X143862637Y-129133241D01*
X143662759Y-128933363D01*
X143427727Y-128776320D01*
X143166574Y-128668147D01*
X142889335Y-128613000D01*
X142606665Y-128613000D01*
X142329426Y-128668147D01*
X142068273Y-128776320D01*
X141833241Y-128933363D01*
X141633363Y-129133241D01*
X141476320Y-129368273D01*
X141368147Y-129629426D01*
X141313000Y-129906665D01*
X140685000Y-129906665D01*
X140685000Y-124626000D01*
X141767928Y-124626000D01*
X141767928Y-126326000D01*
X141780188Y-126450482D01*
X141816498Y-126570180D01*
X141875463Y-126680494D01*
X141954815Y-126777185D01*
X142051506Y-126856537D01*
X142161820Y-126915502D01*
X142281518Y-126951812D01*
X142406000Y-126964072D01*
X144106000Y-126964072D01*
X144230482Y-126951812D01*
X144350180Y-126915502D01*
X144460494Y-126856537D01*
X144557185Y-126777185D01*
X144636537Y-126680494D01*
X144695502Y-126570180D01*
X144719966Y-126489534D01*
X144795731Y-126573588D01*
X145029080Y-126747641D01*
X145291901Y-126872825D01*
X145439110Y-126917476D01*
X145669000Y-126796155D01*
X145669000Y-125603000D01*
X145923000Y-125603000D01*
X145923000Y-126796155D01*
X146152890Y-126917476D01*
X146300099Y-126872825D01*
X146562920Y-126747641D01*
X146796269Y-126573588D01*
X146991178Y-126357355D01*
X147140157Y-126107252D01*
X147237481Y-125832891D01*
X147116814Y-125603000D01*
X145923000Y-125603000D01*
X145669000Y-125603000D01*
X145649000Y-125603000D01*
X145649000Y-125349000D01*
X145669000Y-125349000D01*
X145669000Y-124155845D01*
X145923000Y-124155845D01*
X145923000Y-125349000D01*
X147116814Y-125349000D01*
X147237481Y-125119109D01*
X147140157Y-124844748D01*
X146991178Y-124594645D01*
X146796269Y-124378412D01*
X146562920Y-124204359D01*
X146300099Y-124079175D01*
X146152890Y-124034524D01*
X145923000Y-124155845D01*
X145669000Y-124155845D01*
X145439110Y-124034524D01*
X145291901Y-124079175D01*
X145029080Y-124204359D01*
X144795731Y-124378412D01*
X144719966Y-124462466D01*
X144695502Y-124381820D01*
X144636537Y-124271506D01*
X144557185Y-124174815D01*
X144460494Y-124095463D01*
X144350180Y-124036498D01*
X144230482Y-124000188D01*
X144106000Y-123987928D01*
X142406000Y-123987928D01*
X142281518Y-124000188D01*
X142161820Y-124036498D01*
X142051506Y-124095463D01*
X141954815Y-124174815D01*
X141875463Y-124271506D01*
X141816498Y-124381820D01*
X141780188Y-124501518D01*
X141767928Y-124626000D01*
X140685000Y-124626000D01*
X140685000Y-119292000D01*
X141767928Y-119292000D01*
X141767928Y-120992000D01*
X141780188Y-121116482D01*
X141816498Y-121236180D01*
X141875463Y-121346494D01*
X141954815Y-121443185D01*
X142051506Y-121522537D01*
X142161820Y-121581502D01*
X142281518Y-121617812D01*
X142406000Y-121630072D01*
X144106000Y-121630072D01*
X144230482Y-121617812D01*
X144350180Y-121581502D01*
X144460494Y-121522537D01*
X144557185Y-121443185D01*
X144636537Y-121346494D01*
X144695502Y-121236180D01*
X144719966Y-121155534D01*
X144795731Y-121239588D01*
X145029080Y-121413641D01*
X145291901Y-121538825D01*
X145439110Y-121583476D01*
X145669000Y-121462155D01*
X145669000Y-120269000D01*
X145923000Y-120269000D01*
X145923000Y-121462155D01*
X146152890Y-121583476D01*
X146300099Y-121538825D01*
X146562920Y-121413641D01*
X146796269Y-121239588D01*
X146991178Y-121023355D01*
X147140157Y-120773252D01*
X147237481Y-120498891D01*
X147116814Y-120269000D01*
X145923000Y-120269000D01*
X145669000Y-120269000D01*
X145649000Y-120269000D01*
X145649000Y-120015000D01*
X145669000Y-120015000D01*
X145669000Y-118821845D01*
X145923000Y-118821845D01*
X145923000Y-120015000D01*
X147116814Y-120015000D01*
X147237481Y-119785109D01*
X147140157Y-119510748D01*
X146991178Y-119260645D01*
X146796269Y-119044412D01*
X146562920Y-118870359D01*
X146300099Y-118745175D01*
X146152890Y-118700524D01*
X145923000Y-118821845D01*
X145669000Y-118821845D01*
X145439110Y-118700524D01*
X145291901Y-118745175D01*
X145029080Y-118870359D01*
X144795731Y-119044412D01*
X144719966Y-119128466D01*
X144695502Y-119047820D01*
X144636537Y-118937506D01*
X144557185Y-118840815D01*
X144460494Y-118761463D01*
X144350180Y-118702498D01*
X144230482Y-118666188D01*
X144106000Y-118653928D01*
X142406000Y-118653928D01*
X142281518Y-118666188D01*
X142161820Y-118702498D01*
X142051506Y-118761463D01*
X141954815Y-118840815D01*
X141875463Y-118937506D01*
X141816498Y-119047820D01*
X141780188Y-119167518D01*
X141767928Y-119292000D01*
X140685000Y-119292000D01*
X140685000Y-110636553D01*
X147811009Y-110636553D01*
X147853603Y-110935907D01*
X147953778Y-111221199D01*
X148033739Y-111370792D01*
X148287920Y-111454475D01*
X149172395Y-110570000D01*
X149531605Y-110570000D01*
X150416080Y-111454475D01*
X150670261Y-111370792D01*
X150801158Y-111098225D01*
X150876365Y-110805358D01*
X150892991Y-110503447D01*
X150850397Y-110204093D01*
X150750222Y-109918801D01*
X150670261Y-109769208D01*
X150416080Y-109685525D01*
X149531605Y-110570000D01*
X149172395Y-110570000D01*
X148287920Y-109685525D01*
X148033739Y-109769208D01*
X147902842Y-110041775D01*
X147827635Y-110334642D01*
X147811009Y-110636553D01*
X140685000Y-110636553D01*
X140685000Y-109505920D01*
X148467525Y-109505920D01*
X149352000Y-110390395D01*
X150236475Y-109505920D01*
X150152792Y-109251739D01*
X149880225Y-109120842D01*
X149587358Y-109045635D01*
X149285447Y-109029009D01*
X148986093Y-109071603D01*
X148700801Y-109171778D01*
X148551208Y-109251739D01*
X148467525Y-109505920D01*
X140685000Y-109505920D01*
X140685000Y-96378665D01*
X145377000Y-96378665D01*
X145377000Y-96661335D01*
X145432147Y-96938574D01*
X145540320Y-97199727D01*
X145697363Y-97434759D01*
X145897241Y-97634637D01*
X146132273Y-97791680D01*
X146393426Y-97899853D01*
X146670665Y-97955000D01*
X146953335Y-97955000D01*
X147230574Y-97899853D01*
X147491727Y-97791680D01*
X147726759Y-97634637D01*
X147926637Y-97434759D01*
X148083680Y-97199727D01*
X148191853Y-96938574D01*
X148247000Y-96661335D01*
X148247000Y-96378665D01*
X148191853Y-96101426D01*
X148083680Y-95840273D01*
X147926637Y-95605241D01*
X147726759Y-95405363D01*
X147491727Y-95248320D01*
X147230574Y-95140147D01*
X146953335Y-95085000D01*
X146670665Y-95085000D01*
X146393426Y-95140147D01*
X146132273Y-95248320D01*
X145897241Y-95405363D01*
X145697363Y-95605241D01*
X145540320Y-95840273D01*
X145432147Y-96101426D01*
X145377000Y-96378665D01*
X140685000Y-96378665D01*
X140685000Y-88758665D01*
X145377000Y-88758665D01*
X145377000Y-89041335D01*
X145432147Y-89318574D01*
X145540320Y-89579727D01*
X145697363Y-89814759D01*
X145897241Y-90014637D01*
X146132273Y-90171680D01*
X146393426Y-90279853D01*
X146670665Y-90335000D01*
X146953335Y-90335000D01*
X147230574Y-90279853D01*
X147491727Y-90171680D01*
X147726759Y-90014637D01*
X147926637Y-89814759D01*
X148083680Y-89579727D01*
X148191853Y-89318574D01*
X148247000Y-89041335D01*
X148247000Y-88758665D01*
X148191853Y-88481426D01*
X148083680Y-88220273D01*
X147926637Y-87985241D01*
X147726759Y-87785363D01*
X147491727Y-87628320D01*
X147230574Y-87520147D01*
X146953335Y-87465000D01*
X146670665Y-87465000D01*
X146393426Y-87520147D01*
X146132273Y-87628320D01*
X145897241Y-87785363D01*
X145697363Y-87985241D01*
X145540320Y-88220273D01*
X145432147Y-88481426D01*
X145377000Y-88758665D01*
X140685000Y-88758665D01*
X140685000Y-65685000D01*
X150003587Y-65685000D01*
X147010568Y-68678021D01*
%TA.AperFunction,Conductor*%
D26*
G36*
X147010568Y-68678021D02*
G01*
X146978698Y-68704176D01*
X146892097Y-68809701D01*
X146874353Y-68831322D01*
X146796817Y-68976381D01*
X146749071Y-69133779D01*
X146732949Y-69297467D01*
X146736989Y-69338486D01*
X146736990Y-75748963D01*
X146732949Y-75789991D01*
X146749071Y-75953679D01*
X146796817Y-76111077D01*
X146874353Y-76256136D01*
X146874354Y-76256137D01*
X146978699Y-76383282D01*
X147010563Y-76409432D01*
X148303560Y-77702431D01*
X148329706Y-77734290D01*
X148361565Y-77760436D01*
X148361567Y-77760438D01*
X148456851Y-77838635D01*
X148601910Y-77916171D01*
X148759308Y-77963917D01*
X148922997Y-77980039D01*
X148964015Y-77975999D01*
X149937002Y-77975999D01*
X149937001Y-85188681D01*
X149933325Y-85226003D01*
X149937001Y-85263325D01*
X149937001Y-85263335D01*
X149947998Y-85374988D01*
X149971448Y-85452292D01*
X149991455Y-85518249D01*
X150062027Y-85650279D01*
X150082348Y-85675040D01*
X150157000Y-85766004D01*
X150186003Y-85789806D01*
X151387011Y-86990816D01*
X151387011Y-87461928D01*
X149422000Y-87461928D01*
X149297518Y-87474188D01*
X149177820Y-87510498D01*
X149067506Y-87569463D01*
X148970815Y-87648815D01*
X148891463Y-87745506D01*
X148832498Y-87855820D01*
X148796188Y-87975518D01*
X148783928Y-88100000D01*
X148783928Y-89700000D01*
X148796188Y-89824482D01*
X148832498Y-89944180D01*
X148891463Y-90054494D01*
X148970815Y-90151185D01*
X149067506Y-90230537D01*
X149177820Y-90289502D01*
X149297518Y-90325812D01*
X149315482Y-90327581D01*
X149202392Y-90420392D01*
X149023068Y-90638899D01*
X148889818Y-90888192D01*
X148807764Y-91158691D01*
X148780057Y-91440000D01*
X148807764Y-91721309D01*
X148889818Y-91991808D01*
X149023068Y-92241101D01*
X149202392Y-92459608D01*
X149420899Y-92638932D01*
X149553858Y-92710000D01*
X149420899Y-92781068D01*
X149202392Y-92960392D01*
X149023068Y-93178899D01*
X148889818Y-93428192D01*
X148807764Y-93698691D01*
X148780057Y-93980000D01*
X148807764Y-94261309D01*
X148889818Y-94531808D01*
X149023068Y-94781101D01*
X149202392Y-94999608D01*
X149420899Y-95178932D01*
X149553858Y-95250000D01*
X149420899Y-95321068D01*
X149202392Y-95500392D01*
X149023068Y-95718899D01*
X148889818Y-95968192D01*
X148807764Y-96238691D01*
X148780057Y-96520000D01*
X148807764Y-96801309D01*
X148889818Y-97071808D01*
X149023068Y-97321101D01*
X149202392Y-97539608D01*
X149420899Y-97718932D01*
X149670192Y-97852182D01*
X149787001Y-97887615D01*
X149787001Y-99192972D01*
X149782960Y-99234000D01*
X149799082Y-99397688D01*
X149846828Y-99555086D01*
X149924364Y-99700145D01*
X149924365Y-99700146D01*
X150028710Y-99827291D01*
X150060574Y-99853441D01*
X150555715Y-100348582D01*
X150537000Y-100442665D01*
X150537000Y-100725335D01*
X150592147Y-101002574D01*
X150700320Y-101263727D01*
X150857363Y-101498759D01*
X151057241Y-101698637D01*
X151137001Y-101751931D01*
X151137000Y-115124133D01*
X150890072Y-115371061D01*
X150890072Y-114670000D01*
X150877812Y-114545518D01*
X150841502Y-114425820D01*
X150782537Y-114315506D01*
X150703185Y-114218815D01*
X150606494Y-114139463D01*
X150506697Y-114086120D01*
X150544312Y-114048505D01*
X150712299Y-113797095D01*
X150828011Y-113517743D01*
X150887000Y-113221184D01*
X150887000Y-112918816D01*
X150828011Y-112622257D01*
X150712299Y-112342905D01*
X150544312Y-112091495D01*
X150330505Y-111877688D01*
X150187690Y-111782262D01*
X150236475Y-111634080D01*
X149352000Y-110749605D01*
X148467525Y-111634080D01*
X148516310Y-111782262D01*
X148373495Y-111877688D01*
X148159688Y-112091495D01*
X147991701Y-112342905D01*
X147875989Y-112622257D01*
X147817000Y-112918816D01*
X147817000Y-113221184D01*
X147875989Y-113517743D01*
X147991701Y-113797095D01*
X148159688Y-114048505D01*
X148197303Y-114086120D01*
X148097506Y-114139463D01*
X148000815Y-114218815D01*
X147921463Y-114315506D01*
X147862498Y-114425820D01*
X147826188Y-114545518D01*
X147813928Y-114670000D01*
X147813928Y-116470000D01*
X147826188Y-116594482D01*
X147862498Y-116714180D01*
X147921463Y-116824494D01*
X148000815Y-116921185D01*
X148097506Y-117000537D01*
X148207820Y-117059502D01*
X148327518Y-117095812D01*
X148452000Y-117108072D01*
X149153062Y-117108072D01*
X147952564Y-118308571D01*
X147920700Y-118334721D01*
X147894552Y-118366583D01*
X147816354Y-118461867D01*
X147738818Y-118606926D01*
X147691072Y-118764324D01*
X147674950Y-118928012D01*
X147678991Y-118969041D01*
X147678991Y-129617687D01*
X147575680Y-129368273D01*
X147418637Y-129133241D01*
X147218759Y-128933363D01*
X146983727Y-128776320D01*
X146722574Y-128668147D01*
X146445335Y-128613000D01*
X146162665Y-128613000D01*
X145885426Y-128668147D01*
X145624273Y-128776320D01*
X145389241Y-128933363D01*
X145189363Y-129133241D01*
X145032320Y-129368273D01*
X144924147Y-129629426D01*
X144869000Y-129906665D01*
X144869000Y-130189335D01*
X144924147Y-130466574D01*
X145032320Y-130727727D01*
X145189363Y-130962759D01*
X145389241Y-131162637D01*
X145624273Y-131319680D01*
X145885426Y-131427853D01*
X146162665Y-131483000D01*
X146445335Y-131483000D01*
X146722574Y-131427853D01*
X146983727Y-131319680D01*
X147218759Y-131162637D01*
X147418637Y-130962759D01*
X147575680Y-130727727D01*
X147678991Y-130478313D01*
X147678990Y-137237686D01*
X147575680Y-136988273D01*
X147418637Y-136753241D01*
X147218759Y-136553363D01*
X146983727Y-136396320D01*
X146722574Y-136288147D01*
X146445335Y-136233000D01*
X146162665Y-136233000D01*
X145885426Y-136288147D01*
X145624273Y-136396320D01*
X145389241Y-136553363D01*
X145189363Y-136753241D01*
X145032320Y-136988273D01*
X144924147Y-137249426D01*
X144869000Y-137526665D01*
X144869000Y-137809335D01*
X144924147Y-138086574D01*
X145032320Y-138347727D01*
X145189363Y-138582759D01*
X145389241Y-138782637D01*
X145624273Y-138939680D01*
X145885426Y-139047853D01*
X145971629Y-139065000D01*
X145885426Y-139082147D01*
X145624273Y-139190320D01*
X145389241Y-139347363D01*
X145189363Y-139547241D01*
X145032320Y-139782273D01*
X144924147Y-140043426D01*
X144869000Y-140320665D01*
X144869000Y-140603335D01*
X144924147Y-140880574D01*
X145032320Y-141141727D01*
X145189363Y-141376759D01*
X145389241Y-141576637D01*
X145624273Y-141733680D01*
X145885426Y-141841853D01*
X146162665Y-141897000D01*
X146445335Y-141897000D01*
X146722574Y-141841853D01*
X146983727Y-141733680D01*
X147218759Y-141576637D01*
X147418637Y-141376759D01*
X147575680Y-141141727D01*
X147678990Y-140892314D01*
X147678990Y-143458042D01*
X147674950Y-143499060D01*
X147678990Y-143540078D01*
X147691072Y-143662748D01*
X147738818Y-143820146D01*
X147816354Y-143965205D01*
X147920699Y-144092351D01*
X147952568Y-144118506D01*
X148545267Y-144711205D01*
X148450285Y-144850354D01*
X148339633Y-145110182D01*
X148322096Y-145192961D01*
X148444085Y-145415000D01*
X149987000Y-145415000D01*
X149987000Y-145395000D01*
X150241000Y-145395000D01*
X150241000Y-145415000D01*
X151783915Y-145415000D01*
X151905904Y-145192961D01*
X151888367Y-145110182D01*
X151777715Y-144850354D01*
X151682732Y-144711205D01*
X155895633Y-140498306D01*
X155919764Y-140743309D01*
X156001818Y-141013808D01*
X156135068Y-141263101D01*
X156314392Y-141481608D01*
X156532899Y-141660932D01*
X156665858Y-141732000D01*
X156532899Y-141803068D01*
X156314392Y-141982392D01*
X156135068Y-142200899D01*
X156001818Y-142450192D01*
X155919764Y-142720691D01*
X155892057Y-143002000D01*
X155919764Y-143283309D01*
X156001703Y-143553429D01*
X151887787Y-147667346D01*
X151846182Y-147530192D01*
X151712932Y-147280899D01*
X151533608Y-147062392D01*
X151315101Y-146883068D01*
X151187259Y-146814735D01*
X151416839Y-146664601D01*
X151618500Y-146466895D01*
X151777715Y-146233646D01*
X151888367Y-145973818D01*
X151905904Y-145891039D01*
X151783915Y-145669000D01*
X150241000Y-145669000D01*
X150241000Y-145689000D01*
X149987000Y-145689000D01*
X149987000Y-145669000D01*
X148444085Y-145669000D01*
X148322096Y-145891039D01*
X148339633Y-145973818D01*
X148450285Y-146233646D01*
X148609500Y-146466895D01*
X148811161Y-146664601D01*
X149040741Y-146814735D01*
X148912899Y-146883068D01*
X148694392Y-147062392D01*
X148515068Y-147280899D01*
X148381818Y-147530192D01*
X148299764Y-147800691D01*
X148272057Y-148082000D01*
X148299764Y-148363309D01*
X148381818Y-148633808D01*
X148515068Y-148883101D01*
X148694392Y-149101608D01*
X148912899Y-149280932D01*
X149045858Y-149352000D01*
X148912899Y-149423068D01*
X148694392Y-149602392D01*
X148515068Y-149820899D01*
X148381818Y-150070192D01*
X148299764Y-150340691D01*
X148272057Y-150622000D01*
X148299764Y-150903309D01*
X148381818Y-151173808D01*
X148515068Y-151423101D01*
X148694392Y-151641608D01*
X148912899Y-151820932D01*
X149162192Y-151954182D01*
X149432691Y-152036236D01*
X149643508Y-152057000D01*
X150584492Y-152057000D01*
X150795309Y-152036236D01*
X151065808Y-151954182D01*
X151315101Y-151820932D01*
X151348999Y-151793112D01*
X151348999Y-153759000D01*
X151242665Y-153759000D01*
X150965426Y-153814147D01*
X150704273Y-153922320D01*
X150469241Y-154079363D01*
X150269363Y-154279241D01*
X150112320Y-154514273D01*
X150004147Y-154775426D01*
X149949000Y-155052665D01*
X149949000Y-155335335D01*
X150004147Y-155612574D01*
X150112320Y-155873727D01*
X150269363Y-156108759D01*
X150469241Y-156308637D01*
X150704273Y-156465680D01*
X150965426Y-156573853D01*
X151242665Y-156629000D01*
X151525335Y-156629000D01*
X151802574Y-156573853D01*
X152063727Y-156465680D01*
X152298759Y-156308637D01*
X152420694Y-156186702D01*
X155570903Y-156186702D01*
X155642486Y-156430671D01*
X155897996Y-156551571D01*
X156172184Y-156620300D01*
X156454512Y-156634217D01*
X156734130Y-156592787D01*
X157000292Y-156497603D01*
X157125514Y-156430671D01*
X157197097Y-156186702D01*
X156384000Y-155373605D01*
X155570903Y-156186702D01*
X152420694Y-156186702D01*
X152498637Y-156108759D01*
X152655680Y-155873727D01*
X152763853Y-155612574D01*
X152819000Y-155335335D01*
X152819000Y-155264512D01*
X154943783Y-155264512D01*
X154985213Y-155544130D01*
X155080397Y-155810292D01*
X155147329Y-155935514D01*
X155391298Y-156007097D01*
X156204395Y-155194000D01*
X156563605Y-155194000D01*
X157376702Y-156007097D01*
X157620671Y-155935514D01*
X157741571Y-155680004D01*
X157810300Y-155405816D01*
X157824217Y-155123488D01*
X157782787Y-154843870D01*
X157687603Y-154577708D01*
X157620671Y-154452486D01*
X157376702Y-154380903D01*
X156563605Y-155194000D01*
X156204395Y-155194000D01*
X155391298Y-154380903D01*
X155147329Y-154452486D01*
X155026429Y-154707996D01*
X154957700Y-154982184D01*
X154943783Y-155264512D01*
X152819000Y-155264512D01*
X152819000Y-155052665D01*
X152800396Y-154959137D01*
X152881635Y-154860147D01*
X152959171Y-154715088D01*
X153006917Y-154557690D01*
X153018999Y-154435020D01*
X153018999Y-154435010D01*
X153023038Y-154394002D01*
X153018999Y-154352994D01*
X153018999Y-154201298D01*
X155570903Y-154201298D01*
X156384000Y-155014395D01*
X157107730Y-154290665D01*
X160363000Y-154290665D01*
X160363000Y-154573335D01*
X160418147Y-154850574D01*
X160526320Y-155111727D01*
X160683363Y-155346759D01*
X160883241Y-155546637D01*
X161118273Y-155703680D01*
X161379426Y-155811853D01*
X161656665Y-155867000D01*
X161939335Y-155867000D01*
X162216574Y-155811853D01*
X162477727Y-155703680D01*
X162712759Y-155546637D01*
X162912637Y-155346759D01*
X163069680Y-155111727D01*
X163177853Y-154850574D01*
X163233000Y-154573335D01*
X163233000Y-154290665D01*
X163919000Y-154290665D01*
X163919000Y-154573335D01*
X163974147Y-154850574D01*
X164082320Y-155111727D01*
X164239363Y-155346759D01*
X164439241Y-155546637D01*
X164674273Y-155703680D01*
X164935426Y-155811853D01*
X165212665Y-155867000D01*
X165495335Y-155867000D01*
X165772574Y-155811853D01*
X166033727Y-155703680D01*
X166268759Y-155546637D01*
X166468637Y-155346759D01*
X166625680Y-155111727D01*
X166733853Y-154850574D01*
X166789000Y-154573335D01*
X166789000Y-154290665D01*
X166733853Y-154013426D01*
X166625680Y-153752273D01*
X166468637Y-153517241D01*
X166268759Y-153317363D01*
X166033727Y-153160320D01*
X165772574Y-153052147D01*
X165495335Y-152997000D01*
X165212665Y-152997000D01*
X164935426Y-153052147D01*
X164674273Y-153160320D01*
X164439241Y-153317363D01*
X164239363Y-153517241D01*
X164082320Y-153752273D01*
X163974147Y-154013426D01*
X163919000Y-154290665D01*
X163233000Y-154290665D01*
X163177853Y-154013426D01*
X163069680Y-153752273D01*
X162912637Y-153517241D01*
X162712759Y-153317363D01*
X162477727Y-153160320D01*
X162216574Y-153052147D01*
X161939335Y-152997000D01*
X161656665Y-152997000D01*
X161379426Y-153052147D01*
X161118273Y-153160320D01*
X160883241Y-153317363D01*
X160683363Y-153517241D01*
X160526320Y-153752273D01*
X160418147Y-154013426D01*
X160363000Y-154290665D01*
X157107730Y-154290665D01*
X157197097Y-154201298D01*
X157125514Y-153957329D01*
X156870004Y-153836429D01*
X156595816Y-153767700D01*
X156313488Y-153753783D01*
X156033870Y-153795213D01*
X155767708Y-153890397D01*
X155642486Y-153957329D01*
X155570903Y-154201298D01*
X153018999Y-154201298D01*
X153018999Y-148897868D01*
X155956734Y-145960134D01*
X155959633Y-145973818D01*
X156070285Y-146233646D01*
X156229500Y-146466895D01*
X156431161Y-146664601D01*
X156660741Y-146814735D01*
X156532899Y-146883068D01*
X156314392Y-147062392D01*
X156135068Y-147280899D01*
X156001818Y-147530192D01*
X155919764Y-147800691D01*
X155892057Y-148082000D01*
X155919764Y-148363309D01*
X156001818Y-148633808D01*
X156135068Y-148883101D01*
X156314392Y-149101608D01*
X156532899Y-149280932D01*
X156665858Y-149352000D01*
X156532899Y-149423068D01*
X156314392Y-149602392D01*
X156135068Y-149820899D01*
X156001818Y-150070192D01*
X155919764Y-150340691D01*
X155892057Y-150622000D01*
X155919764Y-150903309D01*
X156001818Y-151173808D01*
X156135068Y-151423101D01*
X156314392Y-151641608D01*
X156532899Y-151820932D01*
X156782192Y-151954182D01*
X157052691Y-152036236D01*
X157263508Y-152057000D01*
X158204492Y-152057000D01*
X158415309Y-152036236D01*
X158685808Y-151954182D01*
X158935101Y-151820932D01*
X159153608Y-151641608D01*
X159332932Y-151423101D01*
X159466182Y-151173808D01*
X159548236Y-150903309D01*
X159575943Y-150622000D01*
X159548236Y-150340691D01*
X159466182Y-150070192D01*
X159332932Y-149820899D01*
X159153608Y-149602392D01*
X158935101Y-149423068D01*
X158802142Y-149352000D01*
X158935101Y-149280932D01*
X159153608Y-149101608D01*
X159332932Y-148883101D01*
X159466182Y-148633808D01*
X159548236Y-148363309D01*
X159575943Y-148082000D01*
X159548236Y-147800691D01*
X159466182Y-147530192D01*
X159332932Y-147280899D01*
X159153608Y-147062392D01*
X158935101Y-146883068D01*
X158807259Y-146814735D01*
X159036839Y-146664601D01*
X159238500Y-146466895D01*
X159397715Y-146233646D01*
X159508367Y-145973818D01*
X159525904Y-145891039D01*
X159403915Y-145669000D01*
X157861000Y-145669000D01*
X157861000Y-145689000D01*
X157607000Y-145689000D01*
X157607000Y-145669000D01*
X157587000Y-145669000D01*
X157587000Y-145415000D01*
X157607000Y-145415000D01*
X157607000Y-145395000D01*
X157861000Y-145395000D01*
X157861000Y-145415000D01*
X159403915Y-145415000D01*
X159525904Y-145192961D01*
X159508367Y-145110182D01*
X159397715Y-144850354D01*
X159238500Y-144617105D01*
X159036839Y-144419399D01*
X158807259Y-144269265D01*
X158935101Y-144200932D01*
X159020721Y-144130665D01*
X160363000Y-144130665D01*
X160363000Y-144413335D01*
X160418147Y-144690574D01*
X160526320Y-144951727D01*
X160683363Y-145186759D01*
X160883241Y-145386637D01*
X161115759Y-145542000D01*
X160883241Y-145697363D01*
X160683363Y-145897241D01*
X160526320Y-146132273D01*
X160418147Y-146393426D01*
X160363000Y-146670665D01*
X160363000Y-146953335D01*
X160418147Y-147230574D01*
X160526320Y-147491727D01*
X160683363Y-147726759D01*
X160883241Y-147926637D01*
X161118273Y-148083680D01*
X161379426Y-148191853D01*
X161656665Y-148247000D01*
X161939335Y-148247000D01*
X162216574Y-148191853D01*
X162477727Y-148083680D01*
X162712759Y-147926637D01*
X162912637Y-147726759D01*
X163069680Y-147491727D01*
X163177853Y-147230574D01*
X163233000Y-146953335D01*
X163233000Y-146670665D01*
X163177853Y-146393426D01*
X163069680Y-146132273D01*
X162912637Y-145897241D01*
X162712759Y-145697363D01*
X162480241Y-145542000D01*
X162712759Y-145386637D01*
X162912637Y-145186759D01*
X163069680Y-144951727D01*
X163177853Y-144690574D01*
X163233000Y-144413335D01*
X163233000Y-144130665D01*
X163919000Y-144130665D01*
X163919000Y-144413335D01*
X163974147Y-144690574D01*
X164082320Y-144951727D01*
X164239363Y-145186759D01*
X164439241Y-145386637D01*
X164671759Y-145542000D01*
X164439241Y-145697363D01*
X164239363Y-145897241D01*
X164082320Y-146132273D01*
X163974147Y-146393426D01*
X163919000Y-146670665D01*
X163919000Y-146953335D01*
X163974147Y-147230574D01*
X164082320Y-147491727D01*
X164239363Y-147726759D01*
X164439241Y-147926637D01*
X164674273Y-148083680D01*
X164935426Y-148191853D01*
X165212665Y-148247000D01*
X165495335Y-148247000D01*
X165772574Y-148191853D01*
X166033727Y-148083680D01*
X166268759Y-147926637D01*
X166468637Y-147726759D01*
X166625680Y-147491727D01*
X166733853Y-147230574D01*
X166789000Y-146953335D01*
X166789000Y-146670665D01*
X166733853Y-146393426D01*
X166625680Y-146132273D01*
X166468637Y-145897241D01*
X166268759Y-145697363D01*
X166036241Y-145542000D01*
X166268759Y-145386637D01*
X166468637Y-145186759D01*
X166625680Y-144951727D01*
X166733853Y-144690574D01*
X166789000Y-144413335D01*
X166789000Y-144130665D01*
X166733853Y-143853426D01*
X166625680Y-143592273D01*
X166468637Y-143357241D01*
X166268759Y-143157363D01*
X166033727Y-143000320D01*
X165772574Y-142892147D01*
X165495335Y-142837000D01*
X165212665Y-142837000D01*
X164935426Y-142892147D01*
X164674273Y-143000320D01*
X164439241Y-143157363D01*
X164239363Y-143357241D01*
X164082320Y-143592273D01*
X163974147Y-143853426D01*
X163919000Y-144130665D01*
X163233000Y-144130665D01*
X163177853Y-143853426D01*
X163069680Y-143592273D01*
X162912637Y-143357241D01*
X162712759Y-143157363D01*
X162477727Y-143000320D01*
X162216574Y-142892147D01*
X161939335Y-142837000D01*
X161656665Y-142837000D01*
X161379426Y-142892147D01*
X161118273Y-143000320D01*
X160883241Y-143157363D01*
X160683363Y-143357241D01*
X160526320Y-143592273D01*
X160418147Y-143853426D01*
X160363000Y-144130665D01*
X159020721Y-144130665D01*
X159153608Y-144021608D01*
X159332932Y-143803101D01*
X159466182Y-143553808D01*
X159548236Y-143283309D01*
X159575943Y-143002000D01*
X159548236Y-142720691D01*
X159466297Y-142450571D01*
X159895443Y-142021426D01*
X159927301Y-141995281D01*
X160031646Y-141868136D01*
X160109182Y-141723077D01*
X160156928Y-141565679D01*
X160169010Y-141443009D01*
X160169010Y-141443008D01*
X160173050Y-141401990D01*
X160169010Y-141360972D01*
X160169010Y-136097811D01*
X160399312Y-136328114D01*
X160363000Y-136510665D01*
X160363000Y-136793335D01*
X160418147Y-137070574D01*
X160526320Y-137331727D01*
X160683363Y-137566759D01*
X160883241Y-137766637D01*
X161118273Y-137923680D01*
X161379426Y-138031853D01*
X161656665Y-138087000D01*
X161939335Y-138087000D01*
X162216574Y-138031853D01*
X162477727Y-137923680D01*
X162712759Y-137766637D01*
X162912637Y-137566759D01*
X163069680Y-137331727D01*
X163177853Y-137070574D01*
X163233000Y-136793335D01*
X163233000Y-136510665D01*
X163919000Y-136510665D01*
X163919000Y-136793335D01*
X163974147Y-137070574D01*
X164082320Y-137331727D01*
X164239363Y-137566759D01*
X164439241Y-137766637D01*
X164674273Y-137923680D01*
X164935426Y-138031853D01*
X165212665Y-138087000D01*
X165495335Y-138087000D01*
X165772574Y-138031853D01*
X166033727Y-137923680D01*
X166268759Y-137766637D01*
X166468637Y-137566759D01*
X166625680Y-137331727D01*
X166733853Y-137070574D01*
X166789000Y-136793335D01*
X166789000Y-136510665D01*
X166733853Y-136233426D01*
X166625680Y-135972273D01*
X166468637Y-135737241D01*
X166268759Y-135537363D01*
X166033727Y-135380320D01*
X165772574Y-135272147D01*
X165495335Y-135217000D01*
X165212665Y-135217000D01*
X164935426Y-135272147D01*
X164674273Y-135380320D01*
X164439241Y-135537363D01*
X164239363Y-135737241D01*
X164082320Y-135972273D01*
X163974147Y-136233426D01*
X163919000Y-136510665D01*
X163233000Y-136510665D01*
X163177853Y-136233426D01*
X163069680Y-135972273D01*
X162912637Y-135737241D01*
X162712759Y-135537363D01*
X162477727Y-135380320D01*
X162216574Y-135272147D01*
X161939335Y-135217000D01*
X161656665Y-135217000D01*
X161474114Y-135253312D01*
X160635001Y-134414200D01*
X160635001Y-130468000D01*
X161325928Y-130468000D01*
X161325928Y-132168000D01*
X161338188Y-132292482D01*
X161374498Y-132412180D01*
X161433463Y-132522494D01*
X161512815Y-132619185D01*
X161609506Y-132698537D01*
X161719820Y-132757502D01*
X161839518Y-132793812D01*
X161964000Y-132806072D01*
X163664000Y-132806072D01*
X163788482Y-132793812D01*
X163908180Y-132757502D01*
X164018494Y-132698537D01*
X164115185Y-132619185D01*
X164194537Y-132522494D01*
X164253502Y-132412180D01*
X164277966Y-132331534D01*
X164353731Y-132415588D01*
X164587080Y-132589641D01*
X164849901Y-132714825D01*
X164997110Y-132759476D01*
X165227000Y-132638155D01*
X165227000Y-131445000D01*
X165481000Y-131445000D01*
X165481000Y-132638155D01*
X165710890Y-132759476D01*
X165858099Y-132714825D01*
X166120920Y-132589641D01*
X166354269Y-132415588D01*
X166549178Y-132199355D01*
X166698157Y-131949252D01*
X166795481Y-131674891D01*
X166674814Y-131445000D01*
X165481000Y-131445000D01*
X165227000Y-131445000D01*
X165207000Y-131445000D01*
X165207000Y-131191000D01*
X165227000Y-131191000D01*
X165227000Y-129997845D01*
X165481000Y-129997845D01*
X165481000Y-131191000D01*
X166674814Y-131191000D01*
X166795481Y-130961109D01*
X166698157Y-130686748D01*
X166549178Y-130436645D01*
X166354269Y-130220412D01*
X166120920Y-130046359D01*
X165858099Y-129921175D01*
X165710890Y-129876524D01*
X165481000Y-129997845D01*
X165227000Y-129997845D01*
X164997110Y-129876524D01*
X164849901Y-129921175D01*
X164587080Y-130046359D01*
X164353731Y-130220412D01*
X164277966Y-130304466D01*
X164253502Y-130223820D01*
X164194537Y-130113506D01*
X164115185Y-130016815D01*
X164018494Y-129937463D01*
X163908180Y-129878498D01*
X163788482Y-129842188D01*
X163664000Y-129829928D01*
X161964000Y-129829928D01*
X161839518Y-129842188D01*
X161719820Y-129878498D01*
X161609506Y-129937463D01*
X161512815Y-130016815D01*
X161433463Y-130113506D01*
X161374498Y-130223820D01*
X161338188Y-130343518D01*
X161325928Y-130468000D01*
X160635001Y-130468000D01*
X160635001Y-126150000D01*
X161325928Y-126150000D01*
X161325928Y-127850000D01*
X161338188Y-127974482D01*
X161374498Y-128094180D01*
X161433463Y-128204494D01*
X161512815Y-128301185D01*
X161609506Y-128380537D01*
X161719820Y-128439502D01*
X161839518Y-128475812D01*
X161964000Y-128488072D01*
X163664000Y-128488072D01*
X163788482Y-128475812D01*
X163908180Y-128439502D01*
X164018494Y-128380537D01*
X164115185Y-128301185D01*
X164194537Y-128204494D01*
X164253502Y-128094180D01*
X164277966Y-128013534D01*
X164353731Y-128097588D01*
X164587080Y-128271641D01*
X164849901Y-128396825D01*
X164997110Y-128441476D01*
X165227000Y-128320155D01*
X165227000Y-127127000D01*
X165481000Y-127127000D01*
X165481000Y-128320155D01*
X165710890Y-128441476D01*
X165858099Y-128396825D01*
X166120920Y-128271641D01*
X166354269Y-128097588D01*
X166549178Y-127881355D01*
X166698157Y-127631252D01*
X166795481Y-127356891D01*
X166674814Y-127127000D01*
X165481000Y-127127000D01*
X165227000Y-127127000D01*
X165207000Y-127127000D01*
X165207000Y-126873000D01*
X165227000Y-126873000D01*
X165227000Y-125679845D01*
X165481000Y-125679845D01*
X165481000Y-126873000D01*
X166674814Y-126873000D01*
X166795481Y-126643109D01*
X166698157Y-126368748D01*
X166549178Y-126118645D01*
X166354269Y-125902412D01*
X166120920Y-125728359D01*
X165858099Y-125603175D01*
X165710890Y-125558524D01*
X165481000Y-125679845D01*
X165227000Y-125679845D01*
X164997110Y-125558524D01*
X164849901Y-125603175D01*
X164587080Y-125728359D01*
X164353731Y-125902412D01*
X164277966Y-125986466D01*
X164253502Y-125905820D01*
X164194537Y-125795506D01*
X164115185Y-125698815D01*
X164018494Y-125619463D01*
X163908180Y-125560498D01*
X163788482Y-125524188D01*
X163664000Y-125511928D01*
X161964000Y-125511928D01*
X161839518Y-125524188D01*
X161719820Y-125560498D01*
X161609506Y-125619463D01*
X161512815Y-125698815D01*
X161433463Y-125795506D01*
X161374498Y-125905820D01*
X161338188Y-126025518D01*
X161325928Y-126150000D01*
X160635001Y-126150000D01*
X160635001Y-123590326D01*
X160638677Y-123553001D01*
X160635001Y-123515676D01*
X160635001Y-123515668D01*
X160624004Y-123404015D01*
X160580547Y-123260754D01*
X160509975Y-123128725D01*
X160415002Y-123013000D01*
X160386004Y-122989202D01*
X160148688Y-122751886D01*
X160185000Y-122569335D01*
X160185000Y-122286665D01*
X160129853Y-122009426D01*
X160056361Y-121832000D01*
X161325928Y-121832000D01*
X161325928Y-123532000D01*
X161338188Y-123656482D01*
X161374498Y-123776180D01*
X161433463Y-123886494D01*
X161512815Y-123983185D01*
X161609506Y-124062537D01*
X161719820Y-124121502D01*
X161839518Y-124157812D01*
X161964000Y-124170072D01*
X163664000Y-124170072D01*
X163788482Y-124157812D01*
X163908180Y-124121502D01*
X164018494Y-124062537D01*
X164115185Y-123983185D01*
X164194537Y-123886494D01*
X164253502Y-123776180D01*
X164277966Y-123695534D01*
X164353731Y-123779588D01*
X164587080Y-123953641D01*
X164849901Y-124078825D01*
X164997110Y-124123476D01*
X165227000Y-124002155D01*
X165227000Y-122809000D01*
X165481000Y-122809000D01*
X165481000Y-124002155D01*
X165710890Y-124123476D01*
X165858099Y-124078825D01*
X166120920Y-123953641D01*
X166354269Y-123779588D01*
X166549178Y-123563355D01*
X166698157Y-123313252D01*
X166795481Y-123038891D01*
X166674814Y-122809000D01*
X165481000Y-122809000D01*
X165227000Y-122809000D01*
X165207000Y-122809000D01*
X165207000Y-122555000D01*
X165227000Y-122555000D01*
X165227000Y-121361845D01*
X165481000Y-121361845D01*
X165481000Y-122555000D01*
X166674814Y-122555000D01*
X166795481Y-122325109D01*
X166698157Y-122050748D01*
X166549178Y-121800645D01*
X166354269Y-121584412D01*
X166120920Y-121410359D01*
X165858099Y-121285175D01*
X165710890Y-121240524D01*
X165481000Y-121361845D01*
X165227000Y-121361845D01*
X164997110Y-121240524D01*
X164849901Y-121285175D01*
X164587080Y-121410359D01*
X164353731Y-121584412D01*
X164277966Y-121668466D01*
X164253502Y-121587820D01*
X164194537Y-121477506D01*
X164115185Y-121380815D01*
X164018494Y-121301463D01*
X163908180Y-121242498D01*
X163788482Y-121206188D01*
X163664000Y-121193928D01*
X161964000Y-121193928D01*
X161839518Y-121206188D01*
X161719820Y-121242498D01*
X161609506Y-121301463D01*
X161512815Y-121380815D01*
X161433463Y-121477506D01*
X161374498Y-121587820D01*
X161338188Y-121707518D01*
X161325928Y-121832000D01*
X160056361Y-121832000D01*
X160021680Y-121748273D01*
X159864637Y-121513241D01*
X159664759Y-121313363D01*
X159429727Y-121156320D01*
X159168574Y-121048147D01*
X159046921Y-121023948D01*
X166423427Y-113647443D01*
X166455291Y-113621293D01*
X166559636Y-113494148D01*
X166637172Y-113349089D01*
X166684918Y-113191691D01*
X166697000Y-113069021D01*
X166697000Y-113069011D01*
X166701039Y-113028003D01*
X166697000Y-112986995D01*
X166697000Y-112686625D01*
X166786482Y-112677812D01*
X166906180Y-112641502D01*
X167016494Y-112582537D01*
X167113185Y-112503185D01*
X167192537Y-112406494D01*
X167251502Y-112296180D01*
X167287812Y-112176482D01*
X167300072Y-112052000D01*
X167300072Y-110994796D01*
X167623433Y-110671436D01*
X167655292Y-110645290D01*
X167759637Y-110518145D01*
X167837173Y-110373086D01*
X167884919Y-110215688D01*
X167897001Y-110093018D01*
X167897001Y-110093017D01*
X167901041Y-110051999D01*
X167897001Y-110010981D01*
X167897001Y-98269008D01*
X167901040Y-98228000D01*
X167897001Y-98186992D01*
X167897001Y-98186982D01*
X167884919Y-98064312D01*
X167837173Y-97906914D01*
X167759637Y-97761855D01*
X167655292Y-97634710D01*
X167623429Y-97608561D01*
X167586373Y-97571505D01*
X167614600Y-97429599D01*
X167614600Y-97134401D01*
X167557010Y-96844875D01*
X167444042Y-96572147D01*
X167280039Y-96326698D01*
X167071302Y-96117961D01*
X166905897Y-96007441D01*
X167004488Y-95948817D01*
X167222854Y-95752293D01*
X167398684Y-95516944D01*
X167525222Y-95251814D01*
X167570958Y-95101026D01*
X167449817Y-94869000D01*
X166243000Y-94869000D01*
X166243000Y-94889000D01*
X165989000Y-94889000D01*
X165989000Y-94869000D01*
X163703000Y-94869000D01*
X163703000Y-94889000D01*
X163449000Y-94889000D01*
X163449000Y-94869000D01*
X163429000Y-94869000D01*
X163429000Y-94615000D01*
X163449000Y-94615000D01*
X163449000Y-92329000D01*
X163703000Y-92329000D01*
X163703000Y-94615000D01*
X165989000Y-94615000D01*
X165989000Y-92329000D01*
X166243000Y-92329000D01*
X166243000Y-94615000D01*
X167449817Y-94615000D01*
X167570958Y-94382974D01*
X167525222Y-94232186D01*
X167398684Y-93967056D01*
X167222854Y-93731707D01*
X167004488Y-93535183D01*
X166898230Y-93472000D01*
X167004488Y-93408817D01*
X167222854Y-93212293D01*
X167398684Y-92976944D01*
X167525222Y-92711814D01*
X167570958Y-92561026D01*
X167449817Y-92329000D01*
X166243000Y-92329000D01*
X165989000Y-92329000D01*
X163703000Y-92329000D01*
X163449000Y-92329000D01*
X163429000Y-92329000D01*
X163429000Y-92075000D01*
X163449000Y-92075000D01*
X163449000Y-89789000D01*
X163703000Y-89789000D01*
X163703000Y-92075000D01*
X165989000Y-92075000D01*
X165989000Y-89789000D01*
X166243000Y-89789000D01*
X166243000Y-92075000D01*
X167449817Y-92075000D01*
X167570958Y-91842974D01*
X167525222Y-91692186D01*
X167398684Y-91427056D01*
X167222854Y-91191707D01*
X167004488Y-90995183D01*
X166898230Y-90932000D01*
X167004488Y-90868817D01*
X167222854Y-90672293D01*
X167398684Y-90436944D01*
X167525222Y-90171814D01*
X167570958Y-90021026D01*
X167449817Y-89789000D01*
X166243000Y-89789000D01*
X165989000Y-89789000D01*
X163703000Y-89789000D01*
X163449000Y-89789000D01*
X162242183Y-89789000D01*
X162121042Y-90021026D01*
X162166778Y-90171814D01*
X162293316Y-90436944D01*
X162469146Y-90672293D01*
X162687512Y-90868817D01*
X162793770Y-90932000D01*
X162687512Y-90995183D01*
X162469146Y-91191707D01*
X162293316Y-91427056D01*
X162182375Y-91659507D01*
X159974297Y-89451430D01*
X160056236Y-89181309D01*
X160083943Y-88900000D01*
X160056236Y-88618691D01*
X159974182Y-88348192D01*
X159840932Y-88098899D01*
X159661608Y-87880392D01*
X159443101Y-87701068D01*
X159193808Y-87567818D01*
X158923309Y-87485764D01*
X158712492Y-87465000D01*
X157771508Y-87465000D01*
X157560691Y-87485764D01*
X157290192Y-87567818D01*
X157040899Y-87701068D01*
X156822392Y-87880392D01*
X156670888Y-88065000D01*
X156381869Y-88065000D01*
X154145570Y-85828702D01*
X156158903Y-85828702D01*
X156230486Y-86072671D01*
X156485996Y-86193571D01*
X156760184Y-86262300D01*
X157042512Y-86276217D01*
X157322130Y-86234787D01*
X157588292Y-86139603D01*
X157713514Y-86072671D01*
X157785097Y-85828702D01*
X156972000Y-85015605D01*
X156158903Y-85828702D01*
X154145570Y-85828702D01*
X153388285Y-85071418D01*
X153407000Y-84977335D01*
X153407000Y-84906512D01*
X155531783Y-84906512D01*
X155573213Y-85186130D01*
X155668397Y-85452292D01*
X155735329Y-85577514D01*
X155979298Y-85649097D01*
X156792395Y-84836000D01*
X157151605Y-84836000D01*
X157964702Y-85649097D01*
X158208671Y-85577514D01*
X158329571Y-85322004D01*
X158398300Y-85047816D01*
X158412217Y-84765488D01*
X158370787Y-84485870D01*
X158275603Y-84219708D01*
X158208671Y-84094486D01*
X157964702Y-84022903D01*
X157151605Y-84836000D01*
X156792395Y-84836000D01*
X155979298Y-84022903D01*
X155735329Y-84094486D01*
X155614429Y-84349996D01*
X155545700Y-84624184D01*
X155531783Y-84906512D01*
X153407000Y-84906512D01*
X153407000Y-84694665D01*
X153351853Y-84417426D01*
X153243680Y-84156273D01*
X153086637Y-83921241D01*
X153008694Y-83843298D01*
X156158903Y-83843298D01*
X156972000Y-84656395D01*
X157785097Y-83843298D01*
X157713514Y-83599329D01*
X157458004Y-83478429D01*
X157183816Y-83409700D01*
X156901488Y-83395783D01*
X156621870Y-83437213D01*
X156355708Y-83532397D01*
X156230486Y-83599329D01*
X156158903Y-83843298D01*
X153008694Y-83843298D01*
X152886759Y-83721363D01*
X152807000Y-83668070D01*
X152807000Y-77247902D01*
X154717000Y-77247902D01*
X154717000Y-77692098D01*
X154803658Y-78127759D01*
X154973645Y-78538143D01*
X155220427Y-78907479D01*
X155534521Y-79221573D01*
X155903857Y-79468355D01*
X156314241Y-79638342D01*
X156749902Y-79725000D01*
X157194098Y-79725000D01*
X157629759Y-79638342D01*
X158040143Y-79468355D01*
X158409479Y-79221573D01*
X158723573Y-78907479D01*
X158970355Y-78538143D01*
X159140342Y-78127759D01*
X159227000Y-77692098D01*
X159227000Y-77247902D01*
X159140342Y-76812241D01*
X158970355Y-76401857D01*
X158723573Y-76032521D01*
X158675052Y-75984000D01*
X164423928Y-75984000D01*
X164436188Y-76108482D01*
X164472498Y-76228180D01*
X164531463Y-76338494D01*
X164610815Y-76435185D01*
X164707506Y-76514537D01*
X164817820Y-76573502D01*
X164937518Y-76609812D01*
X165062000Y-76622072D01*
X165576250Y-76619000D01*
X165735000Y-76460250D01*
X165735000Y-75311000D01*
X164585750Y-75311000D01*
X164427000Y-75469750D01*
X164423928Y-75984000D01*
X158675052Y-75984000D01*
X158409479Y-75718427D01*
X158040143Y-75471645D01*
X157629759Y-75301658D01*
X157194098Y-75215000D01*
X156749902Y-75215000D01*
X156314241Y-75301658D01*
X155903857Y-75471645D01*
X155534521Y-75718427D01*
X155220427Y-76032521D01*
X154973645Y-76401857D01*
X154803658Y-76812241D01*
X154717000Y-77247902D01*
X152807000Y-77247902D01*
X152807000Y-70787013D01*
X152811040Y-70745997D01*
X152804638Y-70681002D01*
X152794918Y-70582309D01*
X152747172Y-70424911D01*
X152669636Y-70279852D01*
X152565291Y-70152707D01*
X152533428Y-70126558D01*
X150715447Y-68308578D01*
X150689292Y-68276708D01*
X150562147Y-68172363D01*
X150417088Y-68094827D01*
X150259690Y-68047081D01*
X150137020Y-68034999D01*
X150137019Y-68034999D01*
X150096001Y-68030959D01*
X150054983Y-68034999D01*
X150015325Y-68034999D01*
X151765315Y-66285010D01*
X155367938Y-66285010D01*
X155220427Y-66432521D01*
X154973645Y-66801857D01*
X154803658Y-67212241D01*
X154717000Y-67647902D01*
X154717000Y-68092098D01*
X154803658Y-68527759D01*
X154973645Y-68938143D01*
X155220427Y-69307479D01*
X155534521Y-69621573D01*
X155903857Y-69868355D01*
X156314241Y-70038342D01*
X156749902Y-70125000D01*
X157194098Y-70125000D01*
X157629759Y-70038342D01*
X158040143Y-69868355D01*
X158409479Y-69621573D01*
X158723573Y-69307479D01*
X158970355Y-68938143D01*
X159140342Y-68527759D01*
X159227000Y-68092098D01*
X159227000Y-67647902D01*
X159140342Y-67212241D01*
X159091529Y-67094396D01*
X164445714Y-72448583D01*
X164427000Y-72542665D01*
X164427000Y-72825335D01*
X164482147Y-73102574D01*
X164590320Y-73363727D01*
X164747363Y-73598759D01*
X164913943Y-73765339D01*
X164817820Y-73794498D01*
X164707506Y-73853463D01*
X164610815Y-73932815D01*
X164531463Y-74029506D01*
X164472498Y-74139820D01*
X164436188Y-74259518D01*
X164423928Y-74384000D01*
X164427000Y-74898250D01*
X164585750Y-75057000D01*
X165735000Y-75057000D01*
X165735000Y-75037000D01*
X165989000Y-75037000D01*
X165989000Y-75057000D01*
X166009000Y-75057000D01*
X166009000Y-75311000D01*
X165989000Y-75311000D01*
X165989000Y-76460250D01*
X166147750Y-76619000D01*
X166227002Y-76619473D01*
X166227001Y-85623400D01*
X165968401Y-85623400D01*
X165678875Y-85680990D01*
X165406147Y-85793958D01*
X165160698Y-85957961D01*
X165046636Y-86072023D01*
X165029102Y-86014220D01*
X164970137Y-85903906D01*
X164890785Y-85807215D01*
X164794094Y-85727863D01*
X164683780Y-85668898D01*
X164564082Y-85632588D01*
X164439600Y-85620328D01*
X162712400Y-85620328D01*
X162587918Y-85632588D01*
X162468220Y-85668898D01*
X162357906Y-85727863D01*
X162261215Y-85807215D01*
X162181863Y-85903906D01*
X162122898Y-86014220D01*
X162086588Y-86133918D01*
X162074328Y-86258400D01*
X162074328Y-87985600D01*
X162086588Y-88110082D01*
X162122898Y-88229780D01*
X162181863Y-88340094D01*
X162261215Y-88436785D01*
X162357906Y-88516137D01*
X162468220Y-88575102D01*
X162532574Y-88594624D01*
X162469146Y-88651707D01*
X162293316Y-88887056D01*
X162166778Y-89152186D01*
X162121042Y-89302974D01*
X162242183Y-89535000D01*
X163449000Y-89535000D01*
X163449000Y-89515000D01*
X163703000Y-89515000D01*
X163703000Y-89535000D01*
X165989000Y-89535000D01*
X165989000Y-89515000D01*
X166243000Y-89515000D01*
X166243000Y-89535000D01*
X167449817Y-89535000D01*
X167570958Y-89302974D01*
X167525222Y-89152186D01*
X167398684Y-88887056D01*
X167222854Y-88651707D01*
X167004488Y-88455183D01*
X166905897Y-88396559D01*
X167071302Y-88286039D01*
X167280039Y-88077302D01*
X167444042Y-87831853D01*
X167557010Y-87559125D01*
X167614600Y-87269599D01*
X167614600Y-86974401D01*
X167586373Y-86832495D01*
X167623429Y-86795439D01*
X167655292Y-86769290D01*
X167759637Y-86642145D01*
X167837173Y-86497086D01*
X167884919Y-86339688D01*
X167897001Y-86217018D01*
X167897001Y-86217008D01*
X167901040Y-86176000D01*
X167897001Y-86134992D01*
X167897001Y-73925019D01*
X167901041Y-73884001D01*
X167888649Y-73758188D01*
X167884919Y-73720312D01*
X167837173Y-73562914D01*
X167759637Y-73417855D01*
X167729913Y-73381636D01*
X167681440Y-73322571D01*
X167681438Y-73322569D01*
X167655292Y-73290710D01*
X167623433Y-73264564D01*
X167278286Y-72919417D01*
X167297000Y-72825335D01*
X167297000Y-72542665D01*
X167241853Y-72265426D01*
X167133680Y-72004273D01*
X166976637Y-71769241D01*
X166776759Y-71569363D01*
X166541727Y-71412320D01*
X166280574Y-71304147D01*
X166003335Y-71249000D01*
X165720665Y-71249000D01*
X165626583Y-71267714D01*
X160043867Y-65685000D01*
X169315000Y-65685000D01*
X169315001Y-159315000D01*
X147260396Y-159315000D01*
X147418637Y-159156759D01*
X147575680Y-158921727D01*
X147683853Y-158660574D01*
X147739000Y-158383335D01*
X147739000Y-158100665D01*
X147683853Y-157823426D01*
X147575680Y-157562273D01*
X147418637Y-157327241D01*
X147218759Y-157127363D01*
X146983727Y-156970320D01*
X146722574Y-156862147D01*
X146445335Y-156807000D01*
X146162665Y-156807000D01*
X145885426Y-156862147D01*
X145624273Y-156970320D01*
X145389241Y-157127363D01*
X145189363Y-157327241D01*
X145032320Y-157562273D01*
X144924147Y-157823426D01*
X144869000Y-158100665D01*
X144869000Y-158383335D01*
X144924147Y-158660574D01*
X145032320Y-158921727D01*
X145189363Y-159156759D01*
X145347604Y-159315000D01*
X140685000Y-159315000D01*
X140685000Y-147940665D01*
X141313000Y-147940665D01*
X141313000Y-148223335D01*
X141368147Y-148500574D01*
X141476320Y-148761727D01*
X141633363Y-148996759D01*
X141833241Y-149196637D01*
X142068273Y-149353680D01*
X142329426Y-149461853D01*
X142606665Y-149517000D01*
X142889335Y-149517000D01*
X143166574Y-149461853D01*
X143427727Y-149353680D01*
X143662759Y-149196637D01*
X143862637Y-148996759D01*
X144019680Y-148761727D01*
X144127853Y-148500574D01*
X144183000Y-148223335D01*
X144183000Y-147940665D01*
X144869000Y-147940665D01*
X144869000Y-148223335D01*
X144924147Y-148500574D01*
X145032320Y-148761727D01*
X145189363Y-148996759D01*
X145389241Y-149196637D01*
X145621759Y-149352000D01*
X145389241Y-149507363D01*
X145189363Y-149707241D01*
X145032320Y-149942273D01*
X144924147Y-150203426D01*
X144869000Y-150480665D01*
X144869000Y-150763335D01*
X144924147Y-151040574D01*
X145032320Y-151301727D01*
X145189363Y-151536759D01*
X145389241Y-151736637D01*
X145624273Y-151893680D01*
X145885426Y-152001853D01*
X146162665Y-152057000D01*
X146445335Y-152057000D01*
X146722574Y-152001853D01*
X146983727Y-151893680D01*
X147218759Y-151736637D01*
X147418637Y-151536759D01*
X147575680Y-151301727D01*
X147683853Y-151040574D01*
X147739000Y-150763335D01*
X147739000Y-150480665D01*
X147683853Y-150203426D01*
X147575680Y-149942273D01*
X147418637Y-149707241D01*
X147218759Y-149507363D01*
X146986241Y-149352000D01*
X147218759Y-149196637D01*
X147418637Y-148996759D01*
X147575680Y-148761727D01*
X147683853Y-148500574D01*
X147739000Y-148223335D01*
X147739000Y-147940665D01*
X147683853Y-147663426D01*
X147575680Y-147402273D01*
X147418637Y-147167241D01*
X147218759Y-146967363D01*
X146983727Y-146810320D01*
X146722574Y-146702147D01*
X146445335Y-146647000D01*
X146162665Y-146647000D01*
X145885426Y-146702147D01*
X145624273Y-146810320D01*
X145389241Y-146967363D01*
X145189363Y-147167241D01*
X145032320Y-147402273D01*
X144924147Y-147663426D01*
X144869000Y-147940665D01*
X144183000Y-147940665D01*
X144127853Y-147663426D01*
X144019680Y-147402273D01*
X143862637Y-147167241D01*
X143662759Y-146967363D01*
X143427727Y-146810320D01*
X143166574Y-146702147D01*
X142889335Y-146647000D01*
X142606665Y-146647000D01*
X142329426Y-146702147D01*
X142068273Y-146810320D01*
X141833241Y-146967363D01*
X141633363Y-147167241D01*
X141476320Y-147402273D01*
X141368147Y-147663426D01*
X141313000Y-147940665D01*
X140685000Y-147940665D01*
X140685000Y-137526665D01*
X141313000Y-137526665D01*
X141313000Y-137809335D01*
X141368147Y-138086574D01*
X141476320Y-138347727D01*
X141633363Y-138582759D01*
X141833241Y-138782637D01*
X142068273Y-138939680D01*
X142329426Y-139047853D01*
X142415629Y-139065000D01*
X142329426Y-139082147D01*
X142068273Y-139190320D01*
X141833241Y-139347363D01*
X141633363Y-139547241D01*
X141476320Y-139782273D01*
X141368147Y-140043426D01*
X141313000Y-140320665D01*
X141313000Y-140603335D01*
X141368147Y-140880574D01*
X141476320Y-141141727D01*
X141633363Y-141376759D01*
X141833241Y-141576637D01*
X142068273Y-141733680D01*
X142329426Y-141841853D01*
X142606665Y-141897000D01*
X142889335Y-141897000D01*
X143166574Y-141841853D01*
X143427727Y-141733680D01*
X143662759Y-141576637D01*
X143862637Y-141376759D01*
X144019680Y-141141727D01*
X144127853Y-140880574D01*
X144183000Y-140603335D01*
X144183000Y-140320665D01*
X144127853Y-140043426D01*
X144019680Y-139782273D01*
X143862637Y-139547241D01*
X143662759Y-139347363D01*
X143427727Y-139190320D01*
X143166574Y-139082147D01*
X143080371Y-139065000D01*
X143166574Y-139047853D01*
X143427727Y-138939680D01*
X143662759Y-138782637D01*
X143862637Y-138582759D01*
X144019680Y-138347727D01*
X144127853Y-138086574D01*
X144183000Y-137809335D01*
X144183000Y-137526665D01*
X144127853Y-137249426D01*
X144019680Y-136988273D01*
X143862637Y-136753241D01*
X143662759Y-136553363D01*
X143427727Y-136396320D01*
X143166574Y-136288147D01*
X142889335Y-136233000D01*
X142606665Y-136233000D01*
X142329426Y-136288147D01*
X142068273Y-136396320D01*
X141833241Y-136553363D01*
X141633363Y-136753241D01*
X141476320Y-136988273D01*
X141368147Y-137249426D01*
X141313000Y-137526665D01*
X140685000Y-137526665D01*
X140685000Y-129906665D01*
X141313000Y-129906665D01*
X141313000Y-130189335D01*
X141368147Y-130466574D01*
X141476320Y-130727727D01*
X141633363Y-130962759D01*
X141833241Y-131162637D01*
X142068273Y-131319680D01*
X142329426Y-131427853D01*
X142606665Y-131483000D01*
X142889335Y-131483000D01*
X143166574Y-131427853D01*
X143427727Y-131319680D01*
X143662759Y-131162637D01*
X143862637Y-130962759D01*
X144019680Y-130727727D01*
X144127853Y-130466574D01*
X144183000Y-130189335D01*
X144183000Y-129906665D01*
X144127853Y-129629426D01*
X144019680Y-129368273D01*
X143862637Y-129133241D01*
X143662759Y-128933363D01*
X143427727Y-128776320D01*
X143166574Y-128668147D01*
X142889335Y-128613000D01*
X142606665Y-128613000D01*
X142329426Y-128668147D01*
X142068273Y-128776320D01*
X141833241Y-128933363D01*
X141633363Y-129133241D01*
X141476320Y-129368273D01*
X141368147Y-129629426D01*
X141313000Y-129906665D01*
X140685000Y-129906665D01*
X140685000Y-124626000D01*
X141767928Y-124626000D01*
X141767928Y-126326000D01*
X141780188Y-126450482D01*
X141816498Y-126570180D01*
X141875463Y-126680494D01*
X141954815Y-126777185D01*
X142051506Y-126856537D01*
X142161820Y-126915502D01*
X142281518Y-126951812D01*
X142406000Y-126964072D01*
X144106000Y-126964072D01*
X144230482Y-126951812D01*
X144350180Y-126915502D01*
X144460494Y-126856537D01*
X144557185Y-126777185D01*
X144636537Y-126680494D01*
X144695502Y-126570180D01*
X144719966Y-126489534D01*
X144795731Y-126573588D01*
X145029080Y-126747641D01*
X145291901Y-126872825D01*
X145439110Y-126917476D01*
X145669000Y-126796155D01*
X145669000Y-125603000D01*
X145923000Y-125603000D01*
X145923000Y-126796155D01*
X146152890Y-126917476D01*
X146300099Y-126872825D01*
X146562920Y-126747641D01*
X146796269Y-126573588D01*
X146991178Y-126357355D01*
X147140157Y-126107252D01*
X147237481Y-125832891D01*
X147116814Y-125603000D01*
X145923000Y-125603000D01*
X145669000Y-125603000D01*
X145649000Y-125603000D01*
X145649000Y-125349000D01*
X145669000Y-125349000D01*
X145669000Y-124155845D01*
X145923000Y-124155845D01*
X145923000Y-125349000D01*
X147116814Y-125349000D01*
X147237481Y-125119109D01*
X147140157Y-124844748D01*
X146991178Y-124594645D01*
X146796269Y-124378412D01*
X146562920Y-124204359D01*
X146300099Y-124079175D01*
X146152890Y-124034524D01*
X145923000Y-124155845D01*
X145669000Y-124155845D01*
X145439110Y-124034524D01*
X145291901Y-124079175D01*
X145029080Y-124204359D01*
X144795731Y-124378412D01*
X144719966Y-124462466D01*
X144695502Y-124381820D01*
X144636537Y-124271506D01*
X144557185Y-124174815D01*
X144460494Y-124095463D01*
X144350180Y-124036498D01*
X144230482Y-124000188D01*
X144106000Y-123987928D01*
X142406000Y-123987928D01*
X142281518Y-124000188D01*
X142161820Y-124036498D01*
X142051506Y-124095463D01*
X141954815Y-124174815D01*
X141875463Y-124271506D01*
X141816498Y-124381820D01*
X141780188Y-124501518D01*
X141767928Y-124626000D01*
X140685000Y-124626000D01*
X140685000Y-119292000D01*
X141767928Y-119292000D01*
X141767928Y-120992000D01*
X141780188Y-121116482D01*
X141816498Y-121236180D01*
X141875463Y-121346494D01*
X141954815Y-121443185D01*
X142051506Y-121522537D01*
X142161820Y-121581502D01*
X142281518Y-121617812D01*
X142406000Y-121630072D01*
X144106000Y-121630072D01*
X144230482Y-121617812D01*
X144350180Y-121581502D01*
X144460494Y-121522537D01*
X144557185Y-121443185D01*
X144636537Y-121346494D01*
X144695502Y-121236180D01*
X144719966Y-121155534D01*
X144795731Y-121239588D01*
X145029080Y-121413641D01*
X145291901Y-121538825D01*
X145439110Y-121583476D01*
X145669000Y-121462155D01*
X145669000Y-120269000D01*
X145923000Y-120269000D01*
X145923000Y-121462155D01*
X146152890Y-121583476D01*
X146300099Y-121538825D01*
X146562920Y-121413641D01*
X146796269Y-121239588D01*
X146991178Y-121023355D01*
X147140157Y-120773252D01*
X147237481Y-120498891D01*
X147116814Y-120269000D01*
X145923000Y-120269000D01*
X145669000Y-120269000D01*
X145649000Y-120269000D01*
X145649000Y-120015000D01*
X145669000Y-120015000D01*
X145669000Y-118821845D01*
X145923000Y-118821845D01*
X145923000Y-120015000D01*
X147116814Y-120015000D01*
X147237481Y-119785109D01*
X147140157Y-119510748D01*
X146991178Y-119260645D01*
X146796269Y-119044412D01*
X146562920Y-118870359D01*
X146300099Y-118745175D01*
X146152890Y-118700524D01*
X145923000Y-118821845D01*
X145669000Y-118821845D01*
X145439110Y-118700524D01*
X145291901Y-118745175D01*
X145029080Y-118870359D01*
X144795731Y-119044412D01*
X144719966Y-119128466D01*
X144695502Y-119047820D01*
X144636537Y-118937506D01*
X144557185Y-118840815D01*
X144460494Y-118761463D01*
X144350180Y-118702498D01*
X144230482Y-118666188D01*
X144106000Y-118653928D01*
X142406000Y-118653928D01*
X142281518Y-118666188D01*
X142161820Y-118702498D01*
X142051506Y-118761463D01*
X141954815Y-118840815D01*
X141875463Y-118937506D01*
X141816498Y-119047820D01*
X141780188Y-119167518D01*
X141767928Y-119292000D01*
X140685000Y-119292000D01*
X140685000Y-110636553D01*
X147811009Y-110636553D01*
X147853603Y-110935907D01*
X147953778Y-111221199D01*
X148033739Y-111370792D01*
X148287920Y-111454475D01*
X149172395Y-110570000D01*
X149531605Y-110570000D01*
X150416080Y-111454475D01*
X150670261Y-111370792D01*
X150801158Y-111098225D01*
X150876365Y-110805358D01*
X150892991Y-110503447D01*
X150850397Y-110204093D01*
X150750222Y-109918801D01*
X150670261Y-109769208D01*
X150416080Y-109685525D01*
X149531605Y-110570000D01*
X149172395Y-110570000D01*
X148287920Y-109685525D01*
X148033739Y-109769208D01*
X147902842Y-110041775D01*
X147827635Y-110334642D01*
X147811009Y-110636553D01*
X140685000Y-110636553D01*
X140685000Y-109505920D01*
X148467525Y-109505920D01*
X149352000Y-110390395D01*
X150236475Y-109505920D01*
X150152792Y-109251739D01*
X149880225Y-109120842D01*
X149587358Y-109045635D01*
X149285447Y-109029009D01*
X148986093Y-109071603D01*
X148700801Y-109171778D01*
X148551208Y-109251739D01*
X148467525Y-109505920D01*
X140685000Y-109505920D01*
X140685000Y-96378665D01*
X145377000Y-96378665D01*
X145377000Y-96661335D01*
X145432147Y-96938574D01*
X145540320Y-97199727D01*
X145697363Y-97434759D01*
X145897241Y-97634637D01*
X146132273Y-97791680D01*
X146393426Y-97899853D01*
X146670665Y-97955000D01*
X146953335Y-97955000D01*
X147230574Y-97899853D01*
X147491727Y-97791680D01*
X147726759Y-97634637D01*
X147926637Y-97434759D01*
X148083680Y-97199727D01*
X148191853Y-96938574D01*
X148247000Y-96661335D01*
X148247000Y-96378665D01*
X148191853Y-96101426D01*
X148083680Y-95840273D01*
X147926637Y-95605241D01*
X147726759Y-95405363D01*
X147491727Y-95248320D01*
X147230574Y-95140147D01*
X146953335Y-95085000D01*
X146670665Y-95085000D01*
X146393426Y-95140147D01*
X146132273Y-95248320D01*
X145897241Y-95405363D01*
X145697363Y-95605241D01*
X145540320Y-95840273D01*
X145432147Y-96101426D01*
X145377000Y-96378665D01*
X140685000Y-96378665D01*
X140685000Y-88758665D01*
X145377000Y-88758665D01*
X145377000Y-89041335D01*
X145432147Y-89318574D01*
X145540320Y-89579727D01*
X145697363Y-89814759D01*
X145897241Y-90014637D01*
X146132273Y-90171680D01*
X146393426Y-90279853D01*
X146670665Y-90335000D01*
X146953335Y-90335000D01*
X147230574Y-90279853D01*
X147491727Y-90171680D01*
X147726759Y-90014637D01*
X147926637Y-89814759D01*
X148083680Y-89579727D01*
X148191853Y-89318574D01*
X148247000Y-89041335D01*
X148247000Y-88758665D01*
X148191853Y-88481426D01*
X148083680Y-88220273D01*
X147926637Y-87985241D01*
X147726759Y-87785363D01*
X147491727Y-87628320D01*
X147230574Y-87520147D01*
X146953335Y-87465000D01*
X146670665Y-87465000D01*
X146393426Y-87520147D01*
X146132273Y-87628320D01*
X145897241Y-87785363D01*
X145697363Y-87985241D01*
X145540320Y-88220273D01*
X145432147Y-88481426D01*
X145377000Y-88758665D01*
X140685000Y-88758665D01*
X140685000Y-65685000D01*
X150003587Y-65685000D01*
X147010568Y-68678021D01*
G37*
%TD.AperFunction*%
D25*
X157370147Y-122846574D02*
X157478320Y-123107727D01*
X157635363Y-123342759D01*
X157835241Y-123542637D01*
X158070273Y-123699680D01*
X158331426Y-123807853D01*
X158608665Y-123863000D01*
X158891335Y-123863000D01*
X159073886Y-123826688D01*
X159115002Y-123867804D01*
X159115002Y-124593491D01*
X158891335Y-124549000D01*
X158608665Y-124549000D01*
X158331426Y-124604147D01*
X158070273Y-124712320D01*
X157835241Y-124869363D01*
X157635363Y-125069241D01*
X157478320Y-125304273D01*
X157370147Y-125565426D01*
X157315000Y-125842665D01*
X157315000Y-126125335D01*
X157370147Y-126402574D01*
X157478320Y-126663727D01*
X157635363Y-126898759D01*
X157835241Y-127098637D01*
X158070273Y-127255680D01*
X158331426Y-127363853D01*
X158608665Y-127419000D01*
X158891335Y-127419000D01*
X159115002Y-127374509D01*
X159115001Y-133485063D01*
X157218517Y-131588580D01*
X157192362Y-131556710D01*
X157065217Y-131452365D01*
X156962748Y-131397594D01*
X156694759Y-131129605D01*
X156680617Y-131143748D01*
X156501012Y-130964143D01*
X156515154Y-130950000D01*
X156874364Y-130950000D01*
X157687461Y-131763097D01*
X157931430Y-131691514D01*
X158052330Y-131436004D01*
X158121059Y-131161816D01*
X158134976Y-130879488D01*
X158093546Y-130599870D01*
X157998362Y-130333708D01*
X157931430Y-130208486D01*
X157687461Y-130136903D01*
X156874364Y-130950000D01*
X156515154Y-130950000D01*
X155702057Y-130136903D01*
X155458088Y-130208486D01*
X155337188Y-130463996D01*
X155268459Y-130738184D01*
X155254542Y-131020512D01*
X155295972Y-131300130D01*
X155391156Y-131566292D01*
X155441029Y-131659598D01*
X155421122Y-131683855D01*
X155343586Y-131828914D01*
X155295840Y-131986312D01*
X155279718Y-132150001D01*
X155283758Y-132191020D01*
X155283759Y-138748442D01*
X153325368Y-140706834D01*
X153329758Y-140662261D01*
X153329758Y-140662259D01*
X153333798Y-140621243D01*
X153329758Y-140580227D01*
X153329758Y-131791006D01*
X153333797Y-131749998D01*
X153329758Y-131708990D01*
X153329758Y-131708980D01*
X153317676Y-131586310D01*
X153269930Y-131428912D01*
X153192394Y-131283853D01*
X153111155Y-131184863D01*
X153129759Y-131091335D01*
X153129759Y-130808665D01*
X153074612Y-130531426D01*
X152966439Y-130270273D01*
X152809396Y-130035241D01*
X152731453Y-129957298D01*
X155881662Y-129957298D01*
X156694759Y-130770395D01*
X157507856Y-129957298D01*
X157436273Y-129713329D01*
X157180763Y-129592429D01*
X156906575Y-129523700D01*
X156624247Y-129509783D01*
X156344629Y-129551213D01*
X156078467Y-129646397D01*
X155953245Y-129713329D01*
X155881662Y-129957298D01*
X152731453Y-129957298D01*
X152609518Y-129835363D01*
X152529759Y-129782070D01*
X152529759Y-127541110D01*
X157345948Y-122724921D01*
X157370147Y-122846574D01*
%TA.AperFunction,Conductor*%
D26*
G36*
X157370147Y-122846574D02*
G01*
X157478320Y-123107727D01*
X157635363Y-123342759D01*
X157835241Y-123542637D01*
X158070273Y-123699680D01*
X158331426Y-123807853D01*
X158608665Y-123863000D01*
X158891335Y-123863000D01*
X159073886Y-123826688D01*
X159115002Y-123867804D01*
X159115002Y-124593491D01*
X158891335Y-124549000D01*
X158608665Y-124549000D01*
X158331426Y-124604147D01*
X158070273Y-124712320D01*
X157835241Y-124869363D01*
X157635363Y-125069241D01*
X157478320Y-125304273D01*
X157370147Y-125565426D01*
X157315000Y-125842665D01*
X157315000Y-126125335D01*
X157370147Y-126402574D01*
X157478320Y-126663727D01*
X157635363Y-126898759D01*
X157835241Y-127098637D01*
X158070273Y-127255680D01*
X158331426Y-127363853D01*
X158608665Y-127419000D01*
X158891335Y-127419000D01*
X159115002Y-127374509D01*
X159115001Y-133485063D01*
X157218517Y-131588580D01*
X157192362Y-131556710D01*
X157065217Y-131452365D01*
X156962748Y-131397594D01*
X156694759Y-131129605D01*
X156680617Y-131143748D01*
X156501012Y-130964143D01*
X156515154Y-130950000D01*
X156874364Y-130950000D01*
X157687461Y-131763097D01*
X157931430Y-131691514D01*
X158052330Y-131436004D01*
X158121059Y-131161816D01*
X158134976Y-130879488D01*
X158093546Y-130599870D01*
X157998362Y-130333708D01*
X157931430Y-130208486D01*
X157687461Y-130136903D01*
X156874364Y-130950000D01*
X156515154Y-130950000D01*
X155702057Y-130136903D01*
X155458088Y-130208486D01*
X155337188Y-130463996D01*
X155268459Y-130738184D01*
X155254542Y-131020512D01*
X155295972Y-131300130D01*
X155391156Y-131566292D01*
X155441029Y-131659598D01*
X155421122Y-131683855D01*
X155343586Y-131828914D01*
X155295840Y-131986312D01*
X155279718Y-132150001D01*
X155283758Y-132191020D01*
X155283759Y-138748442D01*
X153325368Y-140706834D01*
X153329758Y-140662261D01*
X153329758Y-140662259D01*
X153333798Y-140621243D01*
X153329758Y-140580227D01*
X153329758Y-131791006D01*
X153333797Y-131749998D01*
X153329758Y-131708990D01*
X153329758Y-131708980D01*
X153317676Y-131586310D01*
X153269930Y-131428912D01*
X153192394Y-131283853D01*
X153111155Y-131184863D01*
X153129759Y-131091335D01*
X153129759Y-130808665D01*
X153074612Y-130531426D01*
X152966439Y-130270273D01*
X152809396Y-130035241D01*
X152731453Y-129957298D01*
X155881662Y-129957298D01*
X156694759Y-130770395D01*
X157507856Y-129957298D01*
X157436273Y-129713329D01*
X157180763Y-129592429D01*
X156906575Y-129523700D01*
X156624247Y-129509783D01*
X156344629Y-129551213D01*
X156078467Y-129646397D01*
X155953245Y-129713329D01*
X155881662Y-129957298D01*
X152731453Y-129957298D01*
X152609518Y-129835363D01*
X152529759Y-129782070D01*
X152529759Y-127541110D01*
X157345948Y-122724921D01*
X157370147Y-122846574D01*
G37*
%TD.AperFunction*%
D25*
X150241000Y-140335000D02*
X150261000Y-140335000D01*
X150261000Y-140589000D01*
X150241000Y-140589000D01*
X150241000Y-140609000D01*
X149987000Y-140609000D01*
X149987000Y-140589000D01*
X149967000Y-140589000D01*
X149967000Y-140335000D01*
X149987000Y-140335000D01*
X149987000Y-140315000D01*
X150241000Y-140315000D01*
X150241000Y-140335000D01*
%TA.AperFunction,Conductor*%
D26*
G36*
X150241000Y-140335000D02*
G01*
X150261000Y-140335000D01*
X150261000Y-140589000D01*
X150241000Y-140589000D01*
X150241000Y-140609000D01*
X149987000Y-140609000D01*
X149987000Y-140589000D01*
X149967000Y-140589000D01*
X149967000Y-140335000D01*
X149987000Y-140335000D01*
X149987000Y-140315000D01*
X150241000Y-140315000D01*
X150241000Y-140335000D01*
G37*
%TD.AperFunction*%
D25*
X155416563Y-89461432D02*
X155442709Y-89493291D01*
X155474568Y-89519437D01*
X155474570Y-89519439D01*
X155569854Y-89597636D01*
X155714913Y-89675172D01*
X155872311Y-89722918D01*
X156036000Y-89739040D01*
X156077018Y-89735000D01*
X156670888Y-89735000D01*
X156822392Y-89919608D01*
X157040899Y-90098932D01*
X157173858Y-90170000D01*
X157040899Y-90241068D01*
X156822392Y-90420392D01*
X156643068Y-90638899D01*
X156509818Y-90888192D01*
X156427764Y-91158691D01*
X156400057Y-91440000D01*
X156427764Y-91721309D01*
X156509818Y-91991808D01*
X156643068Y-92241101D01*
X156822392Y-92459608D01*
X157040899Y-92638932D01*
X157173858Y-92710000D01*
X157040899Y-92781068D01*
X156822392Y-92960392D01*
X156643068Y-93178899D01*
X156509818Y-93428192D01*
X156427764Y-93698691D01*
X156400057Y-93980000D01*
X156427764Y-94261309D01*
X156509818Y-94531808D01*
X156643068Y-94781101D01*
X156822392Y-94999608D01*
X157040899Y-95178932D01*
X157168741Y-95247265D01*
X156939161Y-95397399D01*
X156737500Y-95595105D01*
X156578285Y-95828354D01*
X156467633Y-96088182D01*
X156450096Y-96170961D01*
X156572085Y-96393000D01*
X158115000Y-96393000D01*
X158115000Y-96373000D01*
X158369000Y-96373000D01*
X158369000Y-96393000D01*
X159911915Y-96393000D01*
X160033904Y-96170961D01*
X160016367Y-96088182D01*
X159905715Y-95828354D01*
X159746500Y-95595105D01*
X159544839Y-95397399D01*
X159315259Y-95247265D01*
X159443101Y-95178932D01*
X159661608Y-94999608D01*
X159840932Y-94781101D01*
X159974182Y-94531808D01*
X160056236Y-94261309D01*
X160083943Y-93980000D01*
X160056236Y-93698691D01*
X159974182Y-93428192D01*
X159840932Y-93178899D01*
X159661608Y-92960392D01*
X159443101Y-92781068D01*
X159310142Y-92710000D01*
X159443101Y-92638932D01*
X159661608Y-92459608D01*
X159840932Y-92241101D01*
X159974182Y-91991808D01*
X160015787Y-91854654D01*
X161477399Y-93316267D01*
X161477400Y-95977371D01*
X161473359Y-96018399D01*
X161489481Y-96182087D01*
X161537227Y-96339485D01*
X161614763Y-96484544D01*
X161614764Y-96484545D01*
X161719109Y-96611690D01*
X161750973Y-96637840D01*
X162105627Y-96992494D01*
X162077400Y-97134401D01*
X162077400Y-97429599D01*
X162134990Y-97719125D01*
X162247958Y-97991853D01*
X162411961Y-98237302D01*
X162620698Y-98446039D01*
X162866147Y-98610042D01*
X163138875Y-98723010D01*
X163428401Y-98780600D01*
X163723599Y-98780600D01*
X164013125Y-98723010D01*
X164285853Y-98610042D01*
X164531302Y-98446039D01*
X164740039Y-98237302D01*
X164820422Y-98117000D01*
X164871578Y-98117000D01*
X164951961Y-98237302D01*
X165160698Y-98446039D01*
X165406147Y-98610042D01*
X165678875Y-98723010D01*
X165968401Y-98780600D01*
X166227001Y-98780600D01*
X166227002Y-107364098D01*
X166073816Y-107325700D01*
X165791488Y-107311783D01*
X165511870Y-107353213D01*
X165245708Y-107448397D01*
X165120486Y-107515329D01*
X165048903Y-107759298D01*
X165862000Y-108572395D01*
X165876143Y-108558253D01*
X166055748Y-108737858D01*
X166041605Y-108752000D01*
X166055748Y-108766143D01*
X165876143Y-108945748D01*
X165862000Y-108931605D01*
X165048903Y-109744702D01*
X165069215Y-109813928D01*
X165062000Y-109813928D01*
X164937518Y-109826188D01*
X164817820Y-109862498D01*
X164707506Y-109921463D01*
X164610815Y-110000815D01*
X164531463Y-110097506D01*
X164472498Y-110207820D01*
X164436188Y-110327518D01*
X164423928Y-110452000D01*
X164423928Y-112052000D01*
X164436188Y-112176482D01*
X164472498Y-112296180D01*
X164531463Y-112406494D01*
X164610815Y-112503185D01*
X164707506Y-112582537D01*
X164817820Y-112641502D01*
X164937518Y-112677812D01*
X165022912Y-112686222D01*
X158906474Y-118802661D01*
X159020342Y-118527759D01*
X159107000Y-118092098D01*
X159107000Y-117647902D01*
X159020342Y-117212241D01*
X158850355Y-116801857D01*
X158603573Y-116432521D01*
X158289479Y-116118427D01*
X157920143Y-115871645D01*
X157509759Y-115701658D01*
X157074098Y-115615000D01*
X156629902Y-115615000D01*
X156194241Y-115701658D01*
X155783857Y-115871645D01*
X155414521Y-116118427D01*
X155100427Y-116432521D01*
X154853645Y-116801857D01*
X154683658Y-117212241D01*
X154597000Y-117647902D01*
X154597000Y-118092098D01*
X154683658Y-118527759D01*
X154853645Y-118938143D01*
X155100427Y-119307479D01*
X155414521Y-119621573D01*
X155783857Y-119868355D01*
X156194241Y-120038342D01*
X156629902Y-120125000D01*
X157074098Y-120125000D01*
X157509759Y-120038342D01*
X157784661Y-119924474D01*
X152402612Y-125306523D01*
X152401680Y-125304273D01*
X152244637Y-125069241D01*
X152044759Y-124869363D01*
X151809727Y-124712320D01*
X151548574Y-124604147D01*
X151271335Y-124549000D01*
X150988665Y-124549000D01*
X150711426Y-124604147D01*
X150450273Y-124712320D01*
X150215241Y-124869363D01*
X150015363Y-125069241D01*
X149858320Y-125304273D01*
X149750147Y-125565426D01*
X149695000Y-125842665D01*
X149695000Y-126125335D01*
X149750147Y-126402574D01*
X149858320Y-126663727D01*
X150015363Y-126898759D01*
X150215241Y-127098637D01*
X150450273Y-127255680D01*
X150711426Y-127363853D01*
X150859759Y-127393359D01*
X150859760Y-129782069D01*
X150780000Y-129835363D01*
X150580122Y-130035241D01*
X150423079Y-130270273D01*
X150314906Y-130531426D01*
X150259759Y-130808665D01*
X150259759Y-131091335D01*
X150314906Y-131368574D01*
X150423079Y-131629727D01*
X150580122Y-131864759D01*
X150780000Y-132064637D01*
X151015032Y-132221680D01*
X151276185Y-132329853D01*
X151553424Y-132385000D01*
X151659758Y-132385000D01*
X151659758Y-134046794D01*
X151558180Y-133992498D01*
X151438482Y-133956188D01*
X151314000Y-133943928D01*
X149348990Y-133943928D01*
X149348990Y-122777039D01*
X149738096Y-122777039D01*
X149778754Y-122911087D01*
X149898963Y-123165420D01*
X150066481Y-123391414D01*
X150274869Y-123580385D01*
X150516119Y-123725070D01*
X150780960Y-123819909D01*
X151003000Y-123698624D01*
X151003000Y-122555000D01*
X151257000Y-122555000D01*
X151257000Y-123698624D01*
X151479040Y-123819909D01*
X151743881Y-123725070D01*
X151985131Y-123580385D01*
X152193519Y-123391414D01*
X152361037Y-123165420D01*
X152481246Y-122911087D01*
X152521904Y-122777039D01*
X152399915Y-122555000D01*
X151257000Y-122555000D01*
X151003000Y-122555000D01*
X149860085Y-122555000D01*
X149738096Y-122777039D01*
X149348990Y-122777039D01*
X149348990Y-122078961D01*
X149738096Y-122078961D01*
X149860085Y-122301000D01*
X151003000Y-122301000D01*
X151003000Y-121157376D01*
X151257000Y-121157376D01*
X151257000Y-122301000D01*
X152399915Y-122301000D01*
X152521904Y-122078961D01*
X152481246Y-121944913D01*
X152361037Y-121690580D01*
X152193519Y-121464586D01*
X151985131Y-121275615D01*
X151743881Y-121130930D01*
X151479040Y-121036091D01*
X151257000Y-121157376D01*
X151003000Y-121157376D01*
X150780960Y-121036091D01*
X150516119Y-121130930D01*
X150274869Y-121275615D01*
X150066481Y-121464586D01*
X149898963Y-121690580D01*
X149778754Y-121944913D01*
X149738096Y-122078961D01*
X149348990Y-122078961D01*
X149348990Y-119273879D01*
X152533433Y-116089438D01*
X152565291Y-116063293D01*
X152669636Y-115936148D01*
X152747172Y-115791089D01*
X152794918Y-115633691D01*
X152807000Y-115511021D01*
X152807000Y-115511020D01*
X152811040Y-115470002D01*
X152807000Y-115428984D01*
X152807000Y-108047902D01*
X154597000Y-108047902D01*
X154597000Y-108492098D01*
X154683658Y-108927759D01*
X154853645Y-109338143D01*
X155100427Y-109707479D01*
X155414521Y-110021573D01*
X155783857Y-110268355D01*
X156194241Y-110438342D01*
X156629902Y-110525000D01*
X157074098Y-110525000D01*
X157509759Y-110438342D01*
X157920143Y-110268355D01*
X158289479Y-110021573D01*
X158603573Y-109707479D01*
X158850355Y-109338143D01*
X159020342Y-108927759D01*
X159041276Y-108822512D01*
X164421783Y-108822512D01*
X164463213Y-109102130D01*
X164558397Y-109368292D01*
X164625329Y-109493514D01*
X164869298Y-109565097D01*
X165682395Y-108752000D01*
X164869298Y-107938903D01*
X164625329Y-108010486D01*
X164504429Y-108265996D01*
X164435700Y-108540184D01*
X164421783Y-108822512D01*
X159041276Y-108822512D01*
X159107000Y-108492098D01*
X159107000Y-108047902D01*
X159020342Y-107612241D01*
X158850355Y-107201857D01*
X158603573Y-106832521D01*
X158289479Y-106518427D01*
X157920143Y-106271645D01*
X157509759Y-106101658D01*
X157074098Y-106015000D01*
X156629902Y-106015000D01*
X156194241Y-106101658D01*
X155783857Y-106271645D01*
X155414521Y-106518427D01*
X155100427Y-106832521D01*
X154853645Y-107201857D01*
X154683658Y-107612241D01*
X154597000Y-108047902D01*
X152807000Y-108047902D01*
X152807000Y-101751930D01*
X152886759Y-101698637D01*
X153008694Y-101576702D01*
X156158903Y-101576702D01*
X156230486Y-101820671D01*
X156485996Y-101941571D01*
X156760184Y-102010300D01*
X157042512Y-102024217D01*
X157322130Y-101982787D01*
X157588292Y-101887603D01*
X157713514Y-101820671D01*
X157785097Y-101576702D01*
X156972000Y-100763605D01*
X156158903Y-101576702D01*
X153008694Y-101576702D01*
X153086637Y-101498759D01*
X153243680Y-101263727D01*
X153351853Y-101002574D01*
X153407000Y-100725335D01*
X153407000Y-100654512D01*
X155531783Y-100654512D01*
X155573213Y-100934130D01*
X155668397Y-101200292D01*
X155735329Y-101325514D01*
X155979298Y-101397097D01*
X156792395Y-100584000D01*
X157151605Y-100584000D01*
X157964702Y-101397097D01*
X158208671Y-101325514D01*
X158329571Y-101070004D01*
X158398300Y-100795816D01*
X158412217Y-100513488D01*
X158370787Y-100233870D01*
X158275603Y-99967708D01*
X158208671Y-99842486D01*
X157964702Y-99770903D01*
X157151605Y-100584000D01*
X156792395Y-100584000D01*
X155979298Y-99770903D01*
X155735329Y-99842486D01*
X155614429Y-100097996D01*
X155545700Y-100372184D01*
X155531783Y-100654512D01*
X153407000Y-100654512D01*
X153407000Y-100442665D01*
X153351853Y-100165426D01*
X153243680Y-99904273D01*
X153086637Y-99669241D01*
X153008694Y-99591298D01*
X156158903Y-99591298D01*
X156972000Y-100404395D01*
X157785097Y-99591298D01*
X157713514Y-99347329D01*
X157458004Y-99226429D01*
X157183816Y-99157700D01*
X156901488Y-99143783D01*
X156621870Y-99185213D01*
X156355708Y-99280397D01*
X156230486Y-99347329D01*
X156158903Y-99591298D01*
X153008694Y-99591298D01*
X152886759Y-99469363D01*
X152651727Y-99312320D01*
X152390574Y-99204147D01*
X152113335Y-99149000D01*
X151830665Y-99149000D01*
X151736582Y-99167715D01*
X151457000Y-98888133D01*
X151457000Y-97887615D01*
X151573808Y-97852182D01*
X151823101Y-97718932D01*
X152041608Y-97539608D01*
X152220932Y-97321101D01*
X152354182Y-97071808D01*
X152415690Y-96869039D01*
X156450096Y-96869039D01*
X156467633Y-96951818D01*
X156578285Y-97211646D01*
X156737500Y-97444895D01*
X156939161Y-97642601D01*
X157175517Y-97797166D01*
X157437486Y-97902650D01*
X157715000Y-97955000D01*
X158115000Y-97955000D01*
X158115000Y-96647000D01*
X158369000Y-96647000D01*
X158369000Y-97955000D01*
X158769000Y-97955000D01*
X159046514Y-97902650D01*
X159308483Y-97797166D01*
X159544839Y-97642601D01*
X159746500Y-97444895D01*
X159905715Y-97211646D01*
X160016367Y-96951818D01*
X160033904Y-96869039D01*
X159911915Y-96647000D01*
X158369000Y-96647000D01*
X158115000Y-96647000D01*
X156572085Y-96647000D01*
X156450096Y-96869039D01*
X152415690Y-96869039D01*
X152436236Y-96801309D01*
X152463943Y-96520000D01*
X152436236Y-96238691D01*
X152354182Y-95968192D01*
X152317408Y-95899393D01*
X152658014Y-95558788D01*
X152687011Y-95534991D01*
X152781984Y-95419266D01*
X152852556Y-95287237D01*
X152896013Y-95143976D01*
X152907010Y-95032323D01*
X152907010Y-95032313D01*
X152910686Y-94994990D01*
X152907010Y-94957667D01*
X152907010Y-86951878D01*
X155416563Y-89461432D01*
%TA.AperFunction,Conductor*%
D26*
G36*
X155416563Y-89461432D02*
G01*
X155442709Y-89493291D01*
X155474568Y-89519437D01*
X155474570Y-89519439D01*
X155569854Y-89597636D01*
X155714913Y-89675172D01*
X155872311Y-89722918D01*
X156036000Y-89739040D01*
X156077018Y-89735000D01*
X156670888Y-89735000D01*
X156822392Y-89919608D01*
X157040899Y-90098932D01*
X157173858Y-90170000D01*
X157040899Y-90241068D01*
X156822392Y-90420392D01*
X156643068Y-90638899D01*
X156509818Y-90888192D01*
X156427764Y-91158691D01*
X156400057Y-91440000D01*
X156427764Y-91721309D01*
X156509818Y-91991808D01*
X156643068Y-92241101D01*
X156822392Y-92459608D01*
X157040899Y-92638932D01*
X157173858Y-92710000D01*
X157040899Y-92781068D01*
X156822392Y-92960392D01*
X156643068Y-93178899D01*
X156509818Y-93428192D01*
X156427764Y-93698691D01*
X156400057Y-93980000D01*
X156427764Y-94261309D01*
X156509818Y-94531808D01*
X156643068Y-94781101D01*
X156822392Y-94999608D01*
X157040899Y-95178932D01*
X157168741Y-95247265D01*
X156939161Y-95397399D01*
X156737500Y-95595105D01*
X156578285Y-95828354D01*
X156467633Y-96088182D01*
X156450096Y-96170961D01*
X156572085Y-96393000D01*
X158115000Y-96393000D01*
X158115000Y-96373000D01*
X158369000Y-96373000D01*
X158369000Y-96393000D01*
X159911915Y-96393000D01*
X160033904Y-96170961D01*
X160016367Y-96088182D01*
X159905715Y-95828354D01*
X159746500Y-95595105D01*
X159544839Y-95397399D01*
X159315259Y-95247265D01*
X159443101Y-95178932D01*
X159661608Y-94999608D01*
X159840932Y-94781101D01*
X159974182Y-94531808D01*
X160056236Y-94261309D01*
X160083943Y-93980000D01*
X160056236Y-93698691D01*
X159974182Y-93428192D01*
X159840932Y-93178899D01*
X159661608Y-92960392D01*
X159443101Y-92781068D01*
X159310142Y-92710000D01*
X159443101Y-92638932D01*
X159661608Y-92459608D01*
X159840932Y-92241101D01*
X159974182Y-91991808D01*
X160015787Y-91854654D01*
X161477399Y-93316267D01*
X161477400Y-95977371D01*
X161473359Y-96018399D01*
X161489481Y-96182087D01*
X161537227Y-96339485D01*
X161614763Y-96484544D01*
X161614764Y-96484545D01*
X161719109Y-96611690D01*
X161750973Y-96637840D01*
X162105627Y-96992494D01*
X162077400Y-97134401D01*
X162077400Y-97429599D01*
X162134990Y-97719125D01*
X162247958Y-97991853D01*
X162411961Y-98237302D01*
X162620698Y-98446039D01*
X162866147Y-98610042D01*
X163138875Y-98723010D01*
X163428401Y-98780600D01*
X163723599Y-98780600D01*
X164013125Y-98723010D01*
X164285853Y-98610042D01*
X164531302Y-98446039D01*
X164740039Y-98237302D01*
X164820422Y-98117000D01*
X164871578Y-98117000D01*
X164951961Y-98237302D01*
X165160698Y-98446039D01*
X165406147Y-98610042D01*
X165678875Y-98723010D01*
X165968401Y-98780600D01*
X166227001Y-98780600D01*
X166227002Y-107364098D01*
X166073816Y-107325700D01*
X165791488Y-107311783D01*
X165511870Y-107353213D01*
X165245708Y-107448397D01*
X165120486Y-107515329D01*
X165048903Y-107759298D01*
X165862000Y-108572395D01*
X165876143Y-108558253D01*
X166055748Y-108737858D01*
X166041605Y-108752000D01*
X166055748Y-108766143D01*
X165876143Y-108945748D01*
X165862000Y-108931605D01*
X165048903Y-109744702D01*
X165069215Y-109813928D01*
X165062000Y-109813928D01*
X164937518Y-109826188D01*
X164817820Y-109862498D01*
X164707506Y-109921463D01*
X164610815Y-110000815D01*
X164531463Y-110097506D01*
X164472498Y-110207820D01*
X164436188Y-110327518D01*
X164423928Y-110452000D01*
X164423928Y-112052000D01*
X164436188Y-112176482D01*
X164472498Y-112296180D01*
X164531463Y-112406494D01*
X164610815Y-112503185D01*
X164707506Y-112582537D01*
X164817820Y-112641502D01*
X164937518Y-112677812D01*
X165022912Y-112686222D01*
X158906474Y-118802661D01*
X159020342Y-118527759D01*
X159107000Y-118092098D01*
X159107000Y-117647902D01*
X159020342Y-117212241D01*
X158850355Y-116801857D01*
X158603573Y-116432521D01*
X158289479Y-116118427D01*
X157920143Y-115871645D01*
X157509759Y-115701658D01*
X157074098Y-115615000D01*
X156629902Y-115615000D01*
X156194241Y-115701658D01*
X155783857Y-115871645D01*
X155414521Y-116118427D01*
X155100427Y-116432521D01*
X154853645Y-116801857D01*
X154683658Y-117212241D01*
X154597000Y-117647902D01*
X154597000Y-118092098D01*
X154683658Y-118527759D01*
X154853645Y-118938143D01*
X155100427Y-119307479D01*
X155414521Y-119621573D01*
X155783857Y-119868355D01*
X156194241Y-120038342D01*
X156629902Y-120125000D01*
X157074098Y-120125000D01*
X157509759Y-120038342D01*
X157784661Y-119924474D01*
X152402612Y-125306523D01*
X152401680Y-125304273D01*
X152244637Y-125069241D01*
X152044759Y-124869363D01*
X151809727Y-124712320D01*
X151548574Y-124604147D01*
X151271335Y-124549000D01*
X150988665Y-124549000D01*
X150711426Y-124604147D01*
X150450273Y-124712320D01*
X150215241Y-124869363D01*
X150015363Y-125069241D01*
X149858320Y-125304273D01*
X149750147Y-125565426D01*
X149695000Y-125842665D01*
X149695000Y-126125335D01*
X149750147Y-126402574D01*
X149858320Y-126663727D01*
X150015363Y-126898759D01*
X150215241Y-127098637D01*
X150450273Y-127255680D01*
X150711426Y-127363853D01*
X150859759Y-127393359D01*
X150859760Y-129782069D01*
X150780000Y-129835363D01*
X150580122Y-130035241D01*
X150423079Y-130270273D01*
X150314906Y-130531426D01*
X150259759Y-130808665D01*
X150259759Y-131091335D01*
X150314906Y-131368574D01*
X150423079Y-131629727D01*
X150580122Y-131864759D01*
X150780000Y-132064637D01*
X151015032Y-132221680D01*
X151276185Y-132329853D01*
X151553424Y-132385000D01*
X151659758Y-132385000D01*
X151659758Y-134046794D01*
X151558180Y-133992498D01*
X151438482Y-133956188D01*
X151314000Y-133943928D01*
X149348990Y-133943928D01*
X149348990Y-122777039D01*
X149738096Y-122777039D01*
X149778754Y-122911087D01*
X149898963Y-123165420D01*
X150066481Y-123391414D01*
X150274869Y-123580385D01*
X150516119Y-123725070D01*
X150780960Y-123819909D01*
X151003000Y-123698624D01*
X151003000Y-122555000D01*
X151257000Y-122555000D01*
X151257000Y-123698624D01*
X151479040Y-123819909D01*
X151743881Y-123725070D01*
X151985131Y-123580385D01*
X152193519Y-123391414D01*
X152361037Y-123165420D01*
X152481246Y-122911087D01*
X152521904Y-122777039D01*
X152399915Y-122555000D01*
X151257000Y-122555000D01*
X151003000Y-122555000D01*
X149860085Y-122555000D01*
X149738096Y-122777039D01*
X149348990Y-122777039D01*
X149348990Y-122078961D01*
X149738096Y-122078961D01*
X149860085Y-122301000D01*
X151003000Y-122301000D01*
X151003000Y-121157376D01*
X151257000Y-121157376D01*
X151257000Y-122301000D01*
X152399915Y-122301000D01*
X152521904Y-122078961D01*
X152481246Y-121944913D01*
X152361037Y-121690580D01*
X152193519Y-121464586D01*
X151985131Y-121275615D01*
X151743881Y-121130930D01*
X151479040Y-121036091D01*
X151257000Y-121157376D01*
X151003000Y-121157376D01*
X150780960Y-121036091D01*
X150516119Y-121130930D01*
X150274869Y-121275615D01*
X150066481Y-121464586D01*
X149898963Y-121690580D01*
X149778754Y-121944913D01*
X149738096Y-122078961D01*
X149348990Y-122078961D01*
X149348990Y-119273879D01*
X152533433Y-116089438D01*
X152565291Y-116063293D01*
X152669636Y-115936148D01*
X152747172Y-115791089D01*
X152794918Y-115633691D01*
X152807000Y-115511021D01*
X152807000Y-115511020D01*
X152811040Y-115470002D01*
X152807000Y-115428984D01*
X152807000Y-108047902D01*
X154597000Y-108047902D01*
X154597000Y-108492098D01*
X154683658Y-108927759D01*
X154853645Y-109338143D01*
X155100427Y-109707479D01*
X155414521Y-110021573D01*
X155783857Y-110268355D01*
X156194241Y-110438342D01*
X156629902Y-110525000D01*
X157074098Y-110525000D01*
X157509759Y-110438342D01*
X157920143Y-110268355D01*
X158289479Y-110021573D01*
X158603573Y-109707479D01*
X158850355Y-109338143D01*
X159020342Y-108927759D01*
X159041276Y-108822512D01*
X164421783Y-108822512D01*
X164463213Y-109102130D01*
X164558397Y-109368292D01*
X164625329Y-109493514D01*
X164869298Y-109565097D01*
X165682395Y-108752000D01*
X164869298Y-107938903D01*
X164625329Y-108010486D01*
X164504429Y-108265996D01*
X164435700Y-108540184D01*
X164421783Y-108822512D01*
X159041276Y-108822512D01*
X159107000Y-108492098D01*
X159107000Y-108047902D01*
X159020342Y-107612241D01*
X158850355Y-107201857D01*
X158603573Y-106832521D01*
X158289479Y-106518427D01*
X157920143Y-106271645D01*
X157509759Y-106101658D01*
X157074098Y-106015000D01*
X156629902Y-106015000D01*
X156194241Y-106101658D01*
X155783857Y-106271645D01*
X155414521Y-106518427D01*
X155100427Y-106832521D01*
X154853645Y-107201857D01*
X154683658Y-107612241D01*
X154597000Y-108047902D01*
X152807000Y-108047902D01*
X152807000Y-101751930D01*
X152886759Y-101698637D01*
X153008694Y-101576702D01*
X156158903Y-101576702D01*
X156230486Y-101820671D01*
X156485996Y-101941571D01*
X156760184Y-102010300D01*
X157042512Y-102024217D01*
X157322130Y-101982787D01*
X157588292Y-101887603D01*
X157713514Y-101820671D01*
X157785097Y-101576702D01*
X156972000Y-100763605D01*
X156158903Y-101576702D01*
X153008694Y-101576702D01*
X153086637Y-101498759D01*
X153243680Y-101263727D01*
X153351853Y-101002574D01*
X153407000Y-100725335D01*
X153407000Y-100654512D01*
X155531783Y-100654512D01*
X155573213Y-100934130D01*
X155668397Y-101200292D01*
X155735329Y-101325514D01*
X155979298Y-101397097D01*
X156792395Y-100584000D01*
X157151605Y-100584000D01*
X157964702Y-101397097D01*
X158208671Y-101325514D01*
X158329571Y-101070004D01*
X158398300Y-100795816D01*
X158412217Y-100513488D01*
X158370787Y-100233870D01*
X158275603Y-99967708D01*
X158208671Y-99842486D01*
X157964702Y-99770903D01*
X157151605Y-100584000D01*
X156792395Y-100584000D01*
X155979298Y-99770903D01*
X155735329Y-99842486D01*
X155614429Y-100097996D01*
X155545700Y-100372184D01*
X155531783Y-100654512D01*
X153407000Y-100654512D01*
X153407000Y-100442665D01*
X153351853Y-100165426D01*
X153243680Y-99904273D01*
X153086637Y-99669241D01*
X153008694Y-99591298D01*
X156158903Y-99591298D01*
X156972000Y-100404395D01*
X157785097Y-99591298D01*
X157713514Y-99347329D01*
X157458004Y-99226429D01*
X157183816Y-99157700D01*
X156901488Y-99143783D01*
X156621870Y-99185213D01*
X156355708Y-99280397D01*
X156230486Y-99347329D01*
X156158903Y-99591298D01*
X153008694Y-99591298D01*
X152886759Y-99469363D01*
X152651727Y-99312320D01*
X152390574Y-99204147D01*
X152113335Y-99149000D01*
X151830665Y-99149000D01*
X151736582Y-99167715D01*
X151457000Y-98888133D01*
X151457000Y-97887615D01*
X151573808Y-97852182D01*
X151823101Y-97718932D01*
X152041608Y-97539608D01*
X152220932Y-97321101D01*
X152354182Y-97071808D01*
X152415690Y-96869039D01*
X156450096Y-96869039D01*
X156467633Y-96951818D01*
X156578285Y-97211646D01*
X156737500Y-97444895D01*
X156939161Y-97642601D01*
X157175517Y-97797166D01*
X157437486Y-97902650D01*
X157715000Y-97955000D01*
X158115000Y-97955000D01*
X158115000Y-96647000D01*
X158369000Y-96647000D01*
X158369000Y-97955000D01*
X158769000Y-97955000D01*
X159046514Y-97902650D01*
X159308483Y-97797166D01*
X159544839Y-97642601D01*
X159746500Y-97444895D01*
X159905715Y-97211646D01*
X160016367Y-96951818D01*
X160033904Y-96869039D01*
X159911915Y-96647000D01*
X158369000Y-96647000D01*
X158115000Y-96647000D01*
X156572085Y-96647000D01*
X156450096Y-96869039D01*
X152415690Y-96869039D01*
X152436236Y-96801309D01*
X152463943Y-96520000D01*
X152436236Y-96238691D01*
X152354182Y-95968192D01*
X152317408Y-95899393D01*
X152658014Y-95558788D01*
X152687011Y-95534991D01*
X152781984Y-95419266D01*
X152852556Y-95287237D01*
X152896013Y-95143976D01*
X152907010Y-95032323D01*
X152907010Y-95032313D01*
X152910686Y-94994990D01*
X152907010Y-94957667D01*
X152907010Y-86951878D01*
X155416563Y-89461432D01*
G37*
%TD.AperFunction*%
%TD*%
M02*
