%TF.GenerationSoftware,KiCad,Pcbnew,(5.1.9)-1*%
%TF.CreationDate,2021-05-29T21:38:12+01:00*%
%TF.ProjectId,KosmicSuperspreader,4b6f736d-6963-4537-9570-657273707265,rev?*%
%TF.SameCoordinates,Original*%
%TF.FileFunction,Legend,Top*%
%TF.FilePolarity,Positive*%
%FSLAX46Y46*%
G04 Gerber Fmt 4.6, Leading zero omitted, Abs format (unit mm)*
G04 Created by KiCad (PCBNEW (5.1.9)-1) date 2021-05-29 21:38:12*
%MOMM*%
%LPD*%
G01*
G04 APERTURE LIST*
%ADD10C,0.150000*%
%ADD11C,0.120000*%
%ADD12C,0.100000*%
G04 APERTURE END LIST*
D10*
X142782857Y-90559142D02*
X141582857Y-90559142D01*
X142782857Y-89873428D02*
X142097142Y-90387714D01*
X141582857Y-89873428D02*
X142268571Y-90559142D01*
X141582857Y-89130571D02*
X141582857Y-88902000D01*
X141640000Y-88787714D01*
X141754285Y-88673428D01*
X141982857Y-88616285D01*
X142382857Y-88616285D01*
X142611428Y-88673428D01*
X142725714Y-88787714D01*
X142782857Y-88902000D01*
X142782857Y-89130571D01*
X142725714Y-89244857D01*
X142611428Y-89359142D01*
X142382857Y-89416285D01*
X141982857Y-89416285D01*
X141754285Y-89359142D01*
X141640000Y-89244857D01*
X141582857Y-89130571D01*
X142725714Y-88159142D02*
X142782857Y-87987714D01*
X142782857Y-87702000D01*
X142725714Y-87587714D01*
X142668571Y-87530571D01*
X142554285Y-87473428D01*
X142440000Y-87473428D01*
X142325714Y-87530571D01*
X142268571Y-87587714D01*
X142211428Y-87702000D01*
X142154285Y-87930571D01*
X142097142Y-88044857D01*
X142040000Y-88102000D01*
X141925714Y-88159142D01*
X141811428Y-88159142D01*
X141697142Y-88102000D01*
X141640000Y-88044857D01*
X141582857Y-87930571D01*
X141582857Y-87644857D01*
X141640000Y-87473428D01*
X142782857Y-86959142D02*
X141582857Y-86959142D01*
X142440000Y-86559142D01*
X141582857Y-86159142D01*
X142782857Y-86159142D01*
X142782857Y-85587714D02*
X141582857Y-85587714D01*
X142668571Y-84330571D02*
X142725714Y-84387714D01*
X142782857Y-84559142D01*
X142782857Y-84673428D01*
X142725714Y-84844857D01*
X142611428Y-84959142D01*
X142497142Y-85016285D01*
X142268571Y-85073428D01*
X142097142Y-85073428D01*
X141868571Y-85016285D01*
X141754285Y-84959142D01*
X141640000Y-84844857D01*
X141582857Y-84673428D01*
X141582857Y-84559142D01*
X141640000Y-84387714D01*
X141697142Y-84330571D01*
X142725714Y-82959142D02*
X142782857Y-82787714D01*
X142782857Y-82502000D01*
X142725714Y-82387714D01*
X142668571Y-82330571D01*
X142554285Y-82273428D01*
X142440000Y-82273428D01*
X142325714Y-82330571D01*
X142268571Y-82387714D01*
X142211428Y-82502000D01*
X142154285Y-82730571D01*
X142097142Y-82844857D01*
X142040000Y-82902000D01*
X141925714Y-82959142D01*
X141811428Y-82959142D01*
X141697142Y-82902000D01*
X141640000Y-82844857D01*
X141582857Y-82730571D01*
X141582857Y-82444857D01*
X141640000Y-82273428D01*
X141582857Y-81759142D02*
X142554285Y-81759142D01*
X142668571Y-81702000D01*
X142725714Y-81644857D01*
X142782857Y-81530571D01*
X142782857Y-81302000D01*
X142725714Y-81187714D01*
X142668571Y-81130571D01*
X142554285Y-81073428D01*
X141582857Y-81073428D01*
X142782857Y-80502000D02*
X141582857Y-80502000D01*
X141582857Y-80044857D01*
X141640000Y-79930571D01*
X141697142Y-79873428D01*
X141811428Y-79816285D01*
X141982857Y-79816285D01*
X142097142Y-79873428D01*
X142154285Y-79930571D01*
X142211428Y-80044857D01*
X142211428Y-80502000D01*
X142154285Y-79302000D02*
X142154285Y-78902000D01*
X142782857Y-78730571D02*
X142782857Y-79302000D01*
X141582857Y-79302000D01*
X141582857Y-78730571D01*
X142782857Y-77530571D02*
X142211428Y-77930571D01*
X142782857Y-78216285D02*
X141582857Y-78216285D01*
X141582857Y-77759142D01*
X141640000Y-77644857D01*
X141697142Y-77587714D01*
X141811428Y-77530571D01*
X141982857Y-77530571D01*
X142097142Y-77587714D01*
X142154285Y-77644857D01*
X142211428Y-77759142D01*
X142211428Y-78216285D01*
X142725714Y-77073428D02*
X142782857Y-76902000D01*
X142782857Y-76616285D01*
X142725714Y-76502000D01*
X142668571Y-76444857D01*
X142554285Y-76387714D01*
X142440000Y-76387714D01*
X142325714Y-76444857D01*
X142268571Y-76502000D01*
X142211428Y-76616285D01*
X142154285Y-76844857D01*
X142097142Y-76959142D01*
X142040000Y-77016285D01*
X141925714Y-77073428D01*
X141811428Y-77073428D01*
X141697142Y-77016285D01*
X141640000Y-76959142D01*
X141582857Y-76844857D01*
X141582857Y-76559142D01*
X141640000Y-76387714D01*
X142782857Y-75873428D02*
X141582857Y-75873428D01*
X141582857Y-75416285D01*
X141640000Y-75302000D01*
X141697142Y-75244857D01*
X141811428Y-75187714D01*
X141982857Y-75187714D01*
X142097142Y-75244857D01*
X142154285Y-75302000D01*
X142211428Y-75416285D01*
X142211428Y-75873428D01*
X142782857Y-73987714D02*
X142211428Y-74387714D01*
X142782857Y-74673428D02*
X141582857Y-74673428D01*
X141582857Y-74216285D01*
X141640000Y-74102000D01*
X141697142Y-74044857D01*
X141811428Y-73987714D01*
X141982857Y-73987714D01*
X142097142Y-74044857D01*
X142154285Y-74102000D01*
X142211428Y-74216285D01*
X142211428Y-74673428D01*
X142154285Y-73473428D02*
X142154285Y-73073428D01*
X142782857Y-72902000D02*
X142782857Y-73473428D01*
X141582857Y-73473428D01*
X141582857Y-72902000D01*
X142440000Y-72444857D02*
X142440000Y-71873428D01*
X142782857Y-72559142D02*
X141582857Y-72159142D01*
X142782857Y-71759142D01*
X142782857Y-71359142D02*
X141582857Y-71359142D01*
X141582857Y-71073428D01*
X141640000Y-70902000D01*
X141754285Y-70787714D01*
X141868571Y-70730571D01*
X142097142Y-70673428D01*
X142268571Y-70673428D01*
X142497142Y-70730571D01*
X142611428Y-70787714D01*
X142725714Y-70902000D01*
X142782857Y-71073428D01*
X142782857Y-71359142D01*
X142154285Y-70159142D02*
X142154285Y-69759142D01*
X142782857Y-69587714D02*
X142782857Y-70159142D01*
X141582857Y-70159142D01*
X141582857Y-69587714D01*
X142782857Y-68387714D02*
X142211428Y-68787714D01*
X142782857Y-69073428D02*
X141582857Y-69073428D01*
X141582857Y-68616285D01*
X141640000Y-68502000D01*
X141697142Y-68444857D01*
X141811428Y-68387714D01*
X141982857Y-68387714D01*
X142097142Y-68444857D01*
X142154285Y-68502000D01*
X142211428Y-68616285D01*
X142211428Y-69073428D01*
X144100571Y-91571809D02*
X144748190Y-91571809D01*
X144824380Y-91609904D01*
X144862476Y-91648000D01*
X144900571Y-91724190D01*
X144900571Y-91838476D01*
X144862476Y-91914666D01*
X144595809Y-91571809D02*
X144633904Y-91648000D01*
X144633904Y-91800380D01*
X144595809Y-91876571D01*
X144557714Y-91914666D01*
X144481523Y-91952761D01*
X144252952Y-91952761D01*
X144176761Y-91914666D01*
X144138666Y-91876571D01*
X144100571Y-91800380D01*
X144100571Y-91648000D01*
X144138666Y-91571809D01*
X144633904Y-91190857D02*
X144100571Y-91190857D01*
X143833904Y-91190857D02*
X143872000Y-91228952D01*
X143910095Y-91190857D01*
X143872000Y-91152761D01*
X143833904Y-91190857D01*
X143910095Y-91190857D01*
X144100571Y-90924190D02*
X144100571Y-90619428D01*
X143833904Y-90809904D02*
X144519619Y-90809904D01*
X144595809Y-90771809D01*
X144633904Y-90695619D01*
X144633904Y-90619428D01*
X144633904Y-90352761D02*
X143833904Y-90352761D01*
X144633904Y-90009904D02*
X144214857Y-90009904D01*
X144138666Y-90048000D01*
X144100571Y-90124190D01*
X144100571Y-90238476D01*
X144138666Y-90314666D01*
X144176761Y-90352761D01*
X144100571Y-89286095D02*
X144633904Y-89286095D01*
X144100571Y-89628952D02*
X144519619Y-89628952D01*
X144595809Y-89590857D01*
X144633904Y-89514666D01*
X144633904Y-89400380D01*
X144595809Y-89324190D01*
X144557714Y-89286095D01*
X144633904Y-88905142D02*
X143833904Y-88905142D01*
X144138666Y-88905142D02*
X144100571Y-88828952D01*
X144100571Y-88676571D01*
X144138666Y-88600380D01*
X144176761Y-88562285D01*
X144252952Y-88524190D01*
X144481523Y-88524190D01*
X144557714Y-88562285D01*
X144595809Y-88600380D01*
X144633904Y-88676571D01*
X144633904Y-88828952D01*
X144595809Y-88905142D01*
X144557714Y-88181333D02*
X144595809Y-88143238D01*
X144633904Y-88181333D01*
X144595809Y-88219428D01*
X144557714Y-88181333D01*
X144633904Y-88181333D01*
X144595809Y-87457523D02*
X144633904Y-87533714D01*
X144633904Y-87686095D01*
X144595809Y-87762285D01*
X144557714Y-87800380D01*
X144481523Y-87838476D01*
X144252952Y-87838476D01*
X144176761Y-87800380D01*
X144138666Y-87762285D01*
X144100571Y-87686095D01*
X144100571Y-87533714D01*
X144138666Y-87457523D01*
X144633904Y-87000380D02*
X144595809Y-87076571D01*
X144557714Y-87114666D01*
X144481523Y-87152761D01*
X144252952Y-87152761D01*
X144176761Y-87114666D01*
X144138666Y-87076571D01*
X144100571Y-87000380D01*
X144100571Y-86886095D01*
X144138666Y-86809904D01*
X144176761Y-86771809D01*
X144252952Y-86733714D01*
X144481523Y-86733714D01*
X144557714Y-86771809D01*
X144595809Y-86809904D01*
X144633904Y-86886095D01*
X144633904Y-87000380D01*
X144633904Y-86390857D02*
X144100571Y-86390857D01*
X144176761Y-86390857D02*
X144138666Y-86352761D01*
X144100571Y-86276571D01*
X144100571Y-86162285D01*
X144138666Y-86086095D01*
X144214857Y-86048000D01*
X144633904Y-86048000D01*
X144214857Y-86048000D02*
X144138666Y-86009904D01*
X144100571Y-85933714D01*
X144100571Y-85819428D01*
X144138666Y-85743238D01*
X144214857Y-85705142D01*
X144633904Y-85705142D01*
X143795809Y-84752761D02*
X144824380Y-85438476D01*
X144595809Y-84524190D02*
X144633904Y-84448000D01*
X144633904Y-84295619D01*
X144595809Y-84219428D01*
X144519619Y-84181333D01*
X144481523Y-84181333D01*
X144405333Y-84219428D01*
X144367238Y-84295619D01*
X144367238Y-84409904D01*
X144329142Y-84486095D01*
X144252952Y-84524190D01*
X144214857Y-84524190D01*
X144138666Y-84486095D01*
X144100571Y-84409904D01*
X144100571Y-84295619D01*
X144138666Y-84219428D01*
X144633904Y-83724190D02*
X144595809Y-83800380D01*
X144557714Y-83838476D01*
X144481523Y-83876571D01*
X144252952Y-83876571D01*
X144176761Y-83838476D01*
X144138666Y-83800380D01*
X144100571Y-83724190D01*
X144100571Y-83609904D01*
X144138666Y-83533714D01*
X144176761Y-83495619D01*
X144252952Y-83457523D01*
X144481523Y-83457523D01*
X144557714Y-83495619D01*
X144595809Y-83533714D01*
X144633904Y-83609904D01*
X144633904Y-83724190D01*
X144100571Y-83114666D02*
X144633904Y-83114666D01*
X144176761Y-83114666D02*
X144138666Y-83076571D01*
X144100571Y-83000380D01*
X144100571Y-82886095D01*
X144138666Y-82809904D01*
X144214857Y-82771809D01*
X144633904Y-82771809D01*
X144633904Y-82276571D02*
X144595809Y-82352761D01*
X144557714Y-82390857D01*
X144481523Y-82428952D01*
X144252952Y-82428952D01*
X144176761Y-82390857D01*
X144138666Y-82352761D01*
X144100571Y-82276571D01*
X144100571Y-82162285D01*
X144138666Y-82086095D01*
X144176761Y-82048000D01*
X144252952Y-82009904D01*
X144481523Y-82009904D01*
X144557714Y-82048000D01*
X144595809Y-82086095D01*
X144633904Y-82162285D01*
X144633904Y-82276571D01*
X144595809Y-81705142D02*
X144633904Y-81628952D01*
X144633904Y-81476571D01*
X144595809Y-81400380D01*
X144519619Y-81362285D01*
X144481523Y-81362285D01*
X144405333Y-81400380D01*
X144367238Y-81476571D01*
X144367238Y-81590857D01*
X144329142Y-81667047D01*
X144252952Y-81705142D01*
X144214857Y-81705142D01*
X144138666Y-81667047D01*
X144100571Y-81590857D01*
X144100571Y-81476571D01*
X144138666Y-81400380D01*
X144100571Y-80676571D02*
X144633904Y-80676571D01*
X144100571Y-81019428D02*
X144519619Y-81019428D01*
X144595809Y-80981333D01*
X144633904Y-80905142D01*
X144633904Y-80790857D01*
X144595809Y-80714666D01*
X144557714Y-80676571D01*
X144595809Y-80333714D02*
X144633904Y-80257523D01*
X144633904Y-80105142D01*
X144595809Y-80028952D01*
X144519619Y-79990857D01*
X144481523Y-79990857D01*
X144405333Y-80028952D01*
X144367238Y-80105142D01*
X144367238Y-80219428D01*
X144329142Y-80295619D01*
X144252952Y-80333714D01*
X144214857Y-80333714D01*
X144138666Y-80295619D01*
X144100571Y-80219428D01*
X144100571Y-80105142D01*
X144138666Y-80028952D01*
X143795809Y-79076571D02*
X144824380Y-79762285D01*
X144633904Y-78809904D02*
X143833904Y-78809904D01*
X144329142Y-78733714D02*
X144633904Y-78505142D01*
X144100571Y-78505142D02*
X144405333Y-78809904D01*
X144633904Y-78048000D02*
X144595809Y-78124190D01*
X144557714Y-78162285D01*
X144481523Y-78200380D01*
X144252952Y-78200380D01*
X144176761Y-78162285D01*
X144138666Y-78124190D01*
X144100571Y-78048000D01*
X144100571Y-77933714D01*
X144138666Y-77857523D01*
X144176761Y-77819428D01*
X144252952Y-77781333D01*
X144481523Y-77781333D01*
X144557714Y-77819428D01*
X144595809Y-77857523D01*
X144633904Y-77933714D01*
X144633904Y-78048000D01*
X144595809Y-77476571D02*
X144633904Y-77400380D01*
X144633904Y-77248000D01*
X144595809Y-77171809D01*
X144519619Y-77133714D01*
X144481523Y-77133714D01*
X144405333Y-77171809D01*
X144367238Y-77248000D01*
X144367238Y-77362285D01*
X144329142Y-77438476D01*
X144252952Y-77476571D01*
X144214857Y-77476571D01*
X144138666Y-77438476D01*
X144100571Y-77362285D01*
X144100571Y-77248000D01*
X144138666Y-77171809D01*
X144633904Y-76790857D02*
X144100571Y-76790857D01*
X144176761Y-76790857D02*
X144138666Y-76752761D01*
X144100571Y-76676571D01*
X144100571Y-76562285D01*
X144138666Y-76486095D01*
X144214857Y-76448000D01*
X144633904Y-76448000D01*
X144214857Y-76448000D02*
X144138666Y-76409904D01*
X144100571Y-76333714D01*
X144100571Y-76219428D01*
X144138666Y-76143238D01*
X144214857Y-76105142D01*
X144633904Y-76105142D01*
X144633904Y-75724190D02*
X144100571Y-75724190D01*
X143833904Y-75724190D02*
X143872000Y-75762285D01*
X143910095Y-75724190D01*
X143872000Y-75686095D01*
X143833904Y-75724190D01*
X143910095Y-75724190D01*
X144595809Y-75000380D02*
X144633904Y-75076571D01*
X144633904Y-75228952D01*
X144595809Y-75305142D01*
X144557714Y-75343238D01*
X144481523Y-75381333D01*
X144252952Y-75381333D01*
X144176761Y-75343238D01*
X144138666Y-75305142D01*
X144100571Y-75228952D01*
X144100571Y-75076571D01*
X144138666Y-75000380D01*
X144595809Y-74695619D02*
X144633904Y-74619428D01*
X144633904Y-74467047D01*
X144595809Y-74390857D01*
X144519619Y-74352761D01*
X144481523Y-74352761D01*
X144405333Y-74390857D01*
X144367238Y-74467047D01*
X144367238Y-74581333D01*
X144329142Y-74657523D01*
X144252952Y-74695619D01*
X144214857Y-74695619D01*
X144138666Y-74657523D01*
X144100571Y-74581333D01*
X144100571Y-74467047D01*
X144138666Y-74390857D01*
X144100571Y-73667047D02*
X144633904Y-73667047D01*
X144100571Y-74009904D02*
X144519619Y-74009904D01*
X144595809Y-73971809D01*
X144633904Y-73895619D01*
X144633904Y-73781333D01*
X144595809Y-73705142D01*
X144557714Y-73667047D01*
X144100571Y-73286095D02*
X144900571Y-73286095D01*
X144138666Y-73286095D02*
X144100571Y-73209904D01*
X144100571Y-73057523D01*
X144138666Y-72981333D01*
X144176761Y-72943238D01*
X144252952Y-72905142D01*
X144481523Y-72905142D01*
X144557714Y-72943238D01*
X144595809Y-72981333D01*
X144633904Y-73057523D01*
X144633904Y-73209904D01*
X144595809Y-73286095D01*
X144595809Y-72257523D02*
X144633904Y-72333714D01*
X144633904Y-72486095D01*
X144595809Y-72562285D01*
X144519619Y-72600380D01*
X144214857Y-72600380D01*
X144138666Y-72562285D01*
X144100571Y-72486095D01*
X144100571Y-72333714D01*
X144138666Y-72257523D01*
X144214857Y-72219428D01*
X144291047Y-72219428D01*
X144367238Y-72600380D01*
X144633904Y-71876571D02*
X144100571Y-71876571D01*
X144252952Y-71876571D02*
X144176761Y-71838476D01*
X144138666Y-71800380D01*
X144100571Y-71724190D01*
X144100571Y-71648000D01*
X144595809Y-71419428D02*
X144633904Y-71343238D01*
X144633904Y-71190857D01*
X144595809Y-71114666D01*
X144519619Y-71076571D01*
X144481523Y-71076571D01*
X144405333Y-71114666D01*
X144367238Y-71190857D01*
X144367238Y-71305142D01*
X144329142Y-71381333D01*
X144252952Y-71419428D01*
X144214857Y-71419428D01*
X144138666Y-71381333D01*
X144100571Y-71305142D01*
X144100571Y-71190857D01*
X144138666Y-71114666D01*
X144100571Y-70733714D02*
X144900571Y-70733714D01*
X144138666Y-70733714D02*
X144100571Y-70657523D01*
X144100571Y-70505142D01*
X144138666Y-70428952D01*
X144176761Y-70390857D01*
X144252952Y-70352761D01*
X144481523Y-70352761D01*
X144557714Y-70390857D01*
X144595809Y-70428952D01*
X144633904Y-70505142D01*
X144633904Y-70657523D01*
X144595809Y-70733714D01*
X144633904Y-70009904D02*
X144100571Y-70009904D01*
X144252952Y-70009904D02*
X144176761Y-69971809D01*
X144138666Y-69933714D01*
X144100571Y-69857523D01*
X144100571Y-69781333D01*
X144595809Y-69209904D02*
X144633904Y-69286095D01*
X144633904Y-69438476D01*
X144595809Y-69514666D01*
X144519619Y-69552761D01*
X144214857Y-69552761D01*
X144138666Y-69514666D01*
X144100571Y-69438476D01*
X144100571Y-69286095D01*
X144138666Y-69209904D01*
X144214857Y-69171809D01*
X144291047Y-69171809D01*
X144367238Y-69552761D01*
X144633904Y-68486095D02*
X144214857Y-68486095D01*
X144138666Y-68524190D01*
X144100571Y-68600380D01*
X144100571Y-68752761D01*
X144138666Y-68828952D01*
X144595809Y-68486095D02*
X144633904Y-68562285D01*
X144633904Y-68752761D01*
X144595809Y-68828952D01*
X144519619Y-68867047D01*
X144443428Y-68867047D01*
X144367238Y-68828952D01*
X144329142Y-68752761D01*
X144329142Y-68562285D01*
X144291047Y-68486095D01*
X144633904Y-67762285D02*
X143833904Y-67762285D01*
X144595809Y-67762285D02*
X144633904Y-67838476D01*
X144633904Y-67990857D01*
X144595809Y-68067047D01*
X144557714Y-68105142D01*
X144481523Y-68143238D01*
X144252952Y-68143238D01*
X144176761Y-68105142D01*
X144138666Y-68067047D01*
X144100571Y-67990857D01*
X144100571Y-67838476D01*
X144138666Y-67762285D01*
X144595809Y-67076571D02*
X144633904Y-67152761D01*
X144633904Y-67305142D01*
X144595809Y-67381333D01*
X144519619Y-67419428D01*
X144214857Y-67419428D01*
X144138666Y-67381333D01*
X144100571Y-67305142D01*
X144100571Y-67152761D01*
X144138666Y-67076571D01*
X144214857Y-67038476D01*
X144291047Y-67038476D01*
X144367238Y-67419428D01*
X144633904Y-66695619D02*
X144100571Y-66695619D01*
X144252952Y-66695619D02*
X144176761Y-66657523D01*
X144138666Y-66619428D01*
X144100571Y-66543238D01*
X144100571Y-66467047D01*
X143328380Y-115528952D02*
X142328380Y-115528952D01*
X142328380Y-115290857D01*
X142376000Y-115148000D01*
X142471238Y-115052761D01*
X142566476Y-115005142D01*
X142756952Y-114957523D01*
X142899809Y-114957523D01*
X143090285Y-115005142D01*
X143185523Y-115052761D01*
X143280761Y-115148000D01*
X143328380Y-115290857D01*
X143328380Y-115528952D01*
X142804571Y-114528952D02*
X142804571Y-114195619D01*
X143328380Y-114052761D02*
X143328380Y-114528952D01*
X142328380Y-114528952D01*
X142328380Y-114052761D01*
X143280761Y-113671809D02*
X143328380Y-113528952D01*
X143328380Y-113290857D01*
X143280761Y-113195619D01*
X143233142Y-113148000D01*
X143137904Y-113100380D01*
X143042666Y-113100380D01*
X142947428Y-113148000D01*
X142899809Y-113195619D01*
X142852190Y-113290857D01*
X142804571Y-113481333D01*
X142756952Y-113576571D01*
X142709333Y-113624190D01*
X142614095Y-113671809D01*
X142518857Y-113671809D01*
X142423619Y-113624190D01*
X142376000Y-113576571D01*
X142328380Y-113481333D01*
X142328380Y-113243238D01*
X142376000Y-113100380D01*
X143328380Y-112671809D02*
X142328380Y-112671809D01*
X142376000Y-111671809D02*
X142328380Y-111767047D01*
X142328380Y-111909904D01*
X142376000Y-112052761D01*
X142471238Y-112148000D01*
X142566476Y-112195619D01*
X142756952Y-112243238D01*
X142899809Y-112243238D01*
X143090285Y-112195619D01*
X143185523Y-112148000D01*
X143280761Y-112052761D01*
X143328380Y-111909904D01*
X143328380Y-111814666D01*
X143280761Y-111671809D01*
X143233142Y-111624190D01*
X142899809Y-111624190D01*
X142899809Y-111814666D01*
X143328380Y-111195619D02*
X142328380Y-111195619D01*
X143328380Y-110624190D01*
X142328380Y-110624190D01*
X142280761Y-109433714D02*
X143566476Y-110290857D01*
X143328380Y-108624190D02*
X143328380Y-109100380D01*
X142328380Y-109100380D01*
X143042666Y-108338476D02*
X143042666Y-107862285D01*
X143328380Y-108433714D02*
X142328380Y-108100380D01*
X143328380Y-107767047D01*
X142852190Y-107243238D02*
X143328380Y-107243238D01*
X142328380Y-107576571D02*
X142852190Y-107243238D01*
X142328380Y-106909904D01*
X142328380Y-106386095D02*
X142328380Y-106195619D01*
X142376000Y-106100380D01*
X142471238Y-106005142D01*
X142661714Y-105957523D01*
X142995047Y-105957523D01*
X143185523Y-106005142D01*
X143280761Y-106100380D01*
X143328380Y-106195619D01*
X143328380Y-106386095D01*
X143280761Y-106481333D01*
X143185523Y-106576571D01*
X142995047Y-106624190D01*
X142661714Y-106624190D01*
X142471238Y-106576571D01*
X142376000Y-106481333D01*
X142328380Y-106386095D01*
X142328380Y-105528952D02*
X143137904Y-105528952D01*
X143233142Y-105481333D01*
X143280761Y-105433714D01*
X143328380Y-105338476D01*
X143328380Y-105148000D01*
X143280761Y-105052761D01*
X143233142Y-105005142D01*
X143137904Y-104957523D01*
X142328380Y-104957523D01*
X142328380Y-104624190D02*
X142328380Y-104052761D01*
X143328380Y-104338476D02*
X142328380Y-104338476D01*
X142804571Y-102624190D02*
X142852190Y-102481333D01*
X142899809Y-102433714D01*
X142995047Y-102386095D01*
X143137904Y-102386095D01*
X143233142Y-102433714D01*
X143280761Y-102481333D01*
X143328380Y-102576571D01*
X143328380Y-102957523D01*
X142328380Y-102957523D01*
X142328380Y-102624190D01*
X142376000Y-102528952D01*
X142423619Y-102481333D01*
X142518857Y-102433714D01*
X142614095Y-102433714D01*
X142709333Y-102481333D01*
X142756952Y-102528952D01*
X142804571Y-102624190D01*
X142804571Y-102957523D01*
X142852190Y-101767047D02*
X143328380Y-101767047D01*
X142328380Y-102100380D02*
X142852190Y-101767047D01*
X142328380Y-101433714D01*
X143280761Y-100386095D02*
X143328380Y-100243238D01*
X143328380Y-100005142D01*
X143280761Y-99909904D01*
X143233142Y-99862285D01*
X143137904Y-99814666D01*
X143042666Y-99814666D01*
X142947428Y-99862285D01*
X142899809Y-99909904D01*
X142852190Y-100005142D01*
X142804571Y-100195619D01*
X142756952Y-100290857D01*
X142709333Y-100338476D01*
X142614095Y-100386095D01*
X142518857Y-100386095D01*
X142423619Y-100338476D01*
X142376000Y-100290857D01*
X142328380Y-100195619D01*
X142328380Y-99957523D01*
X142376000Y-99814666D01*
X142328380Y-99195619D02*
X142328380Y-99005142D01*
X142376000Y-98909904D01*
X142471238Y-98814666D01*
X142661714Y-98767047D01*
X142995047Y-98767047D01*
X143185523Y-98814666D01*
X143280761Y-98909904D01*
X143328380Y-99005142D01*
X143328380Y-99195619D01*
X143280761Y-99290857D01*
X143185523Y-99386095D01*
X142995047Y-99433714D01*
X142661714Y-99433714D01*
X142471238Y-99386095D01*
X142376000Y-99290857D01*
X142328380Y-99195619D01*
X143328380Y-98338476D02*
X142328380Y-98338476D01*
X143328380Y-97767047D01*
X142328380Y-97767047D01*
X142328380Y-97100380D02*
X142328380Y-96909904D01*
X142376000Y-96814666D01*
X142471238Y-96719428D01*
X142661714Y-96671809D01*
X142995047Y-96671809D01*
X143185523Y-96719428D01*
X143280761Y-96814666D01*
X143328380Y-96909904D01*
X143328380Y-97100380D01*
X143280761Y-97195619D01*
X143185523Y-97290857D01*
X142995047Y-97338476D01*
X142661714Y-97338476D01*
X142471238Y-97290857D01*
X142376000Y-97195619D01*
X142328380Y-97100380D01*
X143280761Y-96290857D02*
X143328380Y-96148000D01*
X143328380Y-95909904D01*
X143280761Y-95814666D01*
X143233142Y-95767047D01*
X143137904Y-95719428D01*
X143042666Y-95719428D01*
X142947428Y-95767047D01*
X142899809Y-95814666D01*
X142852190Y-95909904D01*
X142804571Y-96100380D01*
X142756952Y-96195619D01*
X142709333Y-96243238D01*
X142614095Y-96290857D01*
X142518857Y-96290857D01*
X142423619Y-96243238D01*
X142376000Y-96195619D01*
X142328380Y-96100380D01*
X142328380Y-95862285D01*
X142376000Y-95719428D01*
X142328380Y-95290857D02*
X143137904Y-95290857D01*
X143233142Y-95243238D01*
X143280761Y-95195619D01*
X143328380Y-95100380D01*
X143328380Y-94909904D01*
X143280761Y-94814666D01*
X143233142Y-94767047D01*
X143137904Y-94719428D01*
X142328380Y-94719428D01*
X143280761Y-94290857D02*
X143328380Y-94148000D01*
X143328380Y-93909904D01*
X143280761Y-93814666D01*
X143233142Y-93767047D01*
X143137904Y-93719428D01*
X143042666Y-93719428D01*
X142947428Y-93767047D01*
X142899809Y-93814666D01*
X142852190Y-93909904D01*
X142804571Y-94100380D01*
X142756952Y-94195619D01*
X142709333Y-94243238D01*
X142614095Y-94290857D01*
X142518857Y-94290857D01*
X142423619Y-94243238D01*
X142376000Y-94195619D01*
X142328380Y-94100380D01*
X142328380Y-93862285D01*
X142376000Y-93719428D01*
X144978380Y-108124190D02*
X143978380Y-108124190D01*
X144692666Y-107790857D01*
X143978380Y-107457523D01*
X144978380Y-107457523D01*
X144692666Y-107028952D02*
X144692666Y-106552761D01*
X144978380Y-107124190D02*
X143978380Y-106790857D01*
X144978380Y-106457523D01*
X144502190Y-105933714D02*
X144978380Y-105933714D01*
X143978380Y-106267047D02*
X144502190Y-105933714D01*
X143978380Y-105600380D01*
X144073619Y-104552761D02*
X144026000Y-104505142D01*
X143978380Y-104409904D01*
X143978380Y-104171809D01*
X144026000Y-104076571D01*
X144073619Y-104028952D01*
X144168857Y-103981333D01*
X144264095Y-103981333D01*
X144406952Y-104028952D01*
X144978380Y-104600380D01*
X144978380Y-103981333D01*
X143978380Y-103362285D02*
X143978380Y-103267047D01*
X144026000Y-103171809D01*
X144073619Y-103124190D01*
X144168857Y-103076571D01*
X144359333Y-103028952D01*
X144597428Y-103028952D01*
X144787904Y-103076571D01*
X144883142Y-103124190D01*
X144930761Y-103171809D01*
X144978380Y-103267047D01*
X144978380Y-103362285D01*
X144930761Y-103457523D01*
X144883142Y-103505142D01*
X144787904Y-103552761D01*
X144597428Y-103600380D01*
X144359333Y-103600380D01*
X144168857Y-103552761D01*
X144073619Y-103505142D01*
X144026000Y-103457523D01*
X143978380Y-103362285D01*
X144073619Y-102648000D02*
X144026000Y-102600380D01*
X143978380Y-102505142D01*
X143978380Y-102267047D01*
X144026000Y-102171809D01*
X144073619Y-102124190D01*
X144168857Y-102076571D01*
X144264095Y-102076571D01*
X144406952Y-102124190D01*
X144978380Y-102695619D01*
X144978380Y-102076571D01*
X144978380Y-101124190D02*
X144978380Y-101695619D01*
X144978380Y-101409904D02*
X143978380Y-101409904D01*
X144121238Y-101505142D01*
X144216476Y-101600380D01*
X144264095Y-101695619D01*
X146533142Y-107909904D02*
X146580761Y-107957523D01*
X146628380Y-108100380D01*
X146628380Y-108195619D01*
X146580761Y-108338476D01*
X146485523Y-108433714D01*
X146390285Y-108481333D01*
X146199809Y-108528952D01*
X146056952Y-108528952D01*
X145866476Y-108481333D01*
X145771238Y-108433714D01*
X145676000Y-108338476D01*
X145628380Y-108195619D01*
X145628380Y-108100380D01*
X145676000Y-107957523D01*
X145723619Y-107909904D01*
X146533142Y-106909904D02*
X146580761Y-106957523D01*
X146628380Y-107100380D01*
X146628380Y-107195619D01*
X146580761Y-107338476D01*
X146485523Y-107433714D01*
X146390285Y-107481333D01*
X146199809Y-107528952D01*
X146056952Y-107528952D01*
X145866476Y-107481333D01*
X145771238Y-107433714D01*
X145676000Y-107338476D01*
X145628380Y-107195619D01*
X145628380Y-107100380D01*
X145676000Y-106957523D01*
X145723619Y-106909904D01*
X146247428Y-106481333D02*
X146247428Y-105719428D01*
X146104571Y-104909904D02*
X146152190Y-104767047D01*
X146199809Y-104719428D01*
X146295047Y-104671809D01*
X146437904Y-104671809D01*
X146533142Y-104719428D01*
X146580761Y-104767047D01*
X146628380Y-104862285D01*
X146628380Y-105243238D01*
X145628380Y-105243238D01*
X145628380Y-104909904D01*
X145676000Y-104814666D01*
X145723619Y-104767047D01*
X145818857Y-104719428D01*
X145914095Y-104719428D01*
X146009333Y-104767047D01*
X146056952Y-104814666D01*
X146104571Y-104909904D01*
X146104571Y-105243238D01*
X146152190Y-104052761D02*
X146628380Y-104052761D01*
X145628380Y-104386095D02*
X146152190Y-104052761D01*
X145628380Y-103719428D01*
X146247428Y-103386095D02*
X146247428Y-102624190D01*
X146580761Y-102195619D02*
X146628380Y-102052761D01*
X146628380Y-101814666D01*
X146580761Y-101719428D01*
X146533142Y-101671809D01*
X146437904Y-101624190D01*
X146342666Y-101624190D01*
X146247428Y-101671809D01*
X146199809Y-101719428D01*
X146152190Y-101814666D01*
X146104571Y-102005142D01*
X146056952Y-102100380D01*
X146009333Y-102148000D01*
X145914095Y-102195619D01*
X145818857Y-102195619D01*
X145723619Y-102148000D01*
X145676000Y-102100380D01*
X145628380Y-102005142D01*
X145628380Y-101767047D01*
X145676000Y-101624190D01*
X146342666Y-101243238D02*
X146342666Y-100767047D01*
X146628380Y-101338476D02*
X145628380Y-101005142D01*
X146628380Y-100671809D01*
D11*
%TO.C,U2*%
X159174000Y-133992000D02*
X148674000Y-133992000D01*
X159174000Y-152012000D02*
X159174000Y-133992000D01*
X148674000Y-152012000D02*
X159174000Y-152012000D01*
X148674000Y-133992000D02*
X148674000Y-152012000D01*
X156174000Y-134052000D02*
X154924000Y-134052000D01*
X156174000Y-151952000D02*
X156174000Y-134052000D01*
X151674000Y-151952000D02*
X156174000Y-151952000D01*
X151674000Y-134052000D02*
X151674000Y-151952000D01*
X152924000Y-134052000D02*
X151674000Y-134052000D01*
X154924000Y-134052000D02*
G75*
G02*
X152924000Y-134052000I-1000000J0D01*
G01*
%TO.C,U1*%
X159682000Y-87510000D02*
X149182000Y-87510000D01*
X159682000Y-97910000D02*
X159682000Y-87510000D01*
X149182000Y-97910000D02*
X159682000Y-97910000D01*
X149182000Y-87510000D02*
X149182000Y-97910000D01*
X156682000Y-87570000D02*
X155432000Y-87570000D01*
X156682000Y-97850000D02*
X156682000Y-87570000D01*
X152182000Y-97850000D02*
X156682000Y-97850000D01*
X152182000Y-87570000D02*
X152182000Y-97850000D01*
X153432000Y-87570000D02*
X152182000Y-87570000D01*
X155432000Y-87570000D02*
G75*
G02*
X153432000Y-87570000I-1000000J0D01*
G01*
%TO.C,R12*%
X160758000Y-153892000D02*
X160428000Y-153892000D01*
X160428000Y-153892000D02*
X160428000Y-147352000D01*
X160428000Y-147352000D02*
X160758000Y-147352000D01*
X162838000Y-153892000D02*
X163168000Y-153892000D01*
X163168000Y-153892000D02*
X163168000Y-147352000D01*
X163168000Y-147352000D02*
X162838000Y-147352000D01*
%TO.C,R11*%
X166394000Y-147352000D02*
X166724000Y-147352000D01*
X166724000Y-147352000D02*
X166724000Y-153892000D01*
X166724000Y-153892000D02*
X166394000Y-153892000D01*
X164314000Y-147352000D02*
X163984000Y-147352000D01*
X163984000Y-147352000D02*
X163984000Y-153892000D01*
X163984000Y-153892000D02*
X164314000Y-153892000D01*
%TO.C,R10*%
X145264000Y-157702000D02*
X144934000Y-157702000D01*
X144934000Y-157702000D02*
X144934000Y-151162000D01*
X144934000Y-151162000D02*
X145264000Y-151162000D01*
X147344000Y-157702000D02*
X147674000Y-157702000D01*
X147674000Y-157702000D02*
X147674000Y-151162000D01*
X147674000Y-151162000D02*
X147344000Y-151162000D01*
%TO.C,R9*%
X151670000Y-124944000D02*
X151670000Y-124614000D01*
X151670000Y-124614000D02*
X158210000Y-124614000D01*
X158210000Y-124614000D02*
X158210000Y-124944000D01*
X151670000Y-127024000D02*
X151670000Y-127354000D01*
X151670000Y-127354000D02*
X158210000Y-127354000D01*
X158210000Y-127354000D02*
X158210000Y-127024000D01*
%TO.C,R8*%
X158210000Y-123468000D02*
X158210000Y-123798000D01*
X158210000Y-123798000D02*
X151670000Y-123798000D01*
X151670000Y-123798000D02*
X151670000Y-123468000D01*
X158210000Y-121388000D02*
X158210000Y-121058000D01*
X158210000Y-121058000D02*
X151670000Y-121058000D01*
X151670000Y-121058000D02*
X151670000Y-121388000D01*
%TO.C,R7*%
X147344000Y-141002000D02*
X147674000Y-141002000D01*
X147674000Y-141002000D02*
X147674000Y-147542000D01*
X147674000Y-147542000D02*
X147344000Y-147542000D01*
X145264000Y-141002000D02*
X144934000Y-141002000D01*
X144934000Y-141002000D02*
X144934000Y-147542000D01*
X144934000Y-147542000D02*
X145264000Y-147542000D01*
%TO.C,R6*%
X162838000Y-137192000D02*
X163168000Y-137192000D01*
X163168000Y-137192000D02*
X163168000Y-143732000D01*
X163168000Y-143732000D02*
X162838000Y-143732000D01*
X160758000Y-137192000D02*
X160428000Y-137192000D01*
X160428000Y-137192000D02*
X160428000Y-143732000D01*
X160428000Y-143732000D02*
X160758000Y-143732000D01*
%TO.C,R5*%
X166394000Y-137192000D02*
X166724000Y-137192000D01*
X166724000Y-137192000D02*
X166724000Y-143732000D01*
X166724000Y-143732000D02*
X166394000Y-143732000D01*
X164314000Y-137192000D02*
X163984000Y-137192000D01*
X163984000Y-137192000D02*
X163984000Y-143732000D01*
X163984000Y-143732000D02*
X164314000Y-143732000D01*
%TO.C,R4*%
X141708000Y-147542000D02*
X141378000Y-147542000D01*
X141378000Y-147542000D02*
X141378000Y-141002000D01*
X141378000Y-141002000D02*
X141708000Y-141002000D01*
X143788000Y-147542000D02*
X144118000Y-147542000D01*
X144118000Y-147542000D02*
X144118000Y-141002000D01*
X144118000Y-141002000D02*
X143788000Y-141002000D01*
%TO.C,R3*%
X143788000Y-130588000D02*
X144118000Y-130588000D01*
X144118000Y-130588000D02*
X144118000Y-137128000D01*
X144118000Y-137128000D02*
X143788000Y-137128000D01*
X141708000Y-130588000D02*
X141378000Y-130588000D01*
X141378000Y-130588000D02*
X141378000Y-137128000D01*
X141378000Y-137128000D02*
X141708000Y-137128000D01*
%TO.C,R2*%
X145772000Y-95980000D02*
X145442000Y-95980000D01*
X145442000Y-95980000D02*
X145442000Y-89440000D01*
X145442000Y-89440000D02*
X145772000Y-89440000D01*
X147852000Y-95980000D02*
X148182000Y-95980000D01*
X148182000Y-95980000D02*
X148182000Y-89440000D01*
X148182000Y-89440000D02*
X147852000Y-89440000D01*
%TO.C,R1*%
X145264000Y-137128000D02*
X144934000Y-137128000D01*
X144934000Y-137128000D02*
X144934000Y-130588000D01*
X144934000Y-130588000D02*
X145264000Y-130588000D01*
X147344000Y-137128000D02*
X147674000Y-137128000D01*
X147674000Y-137128000D02*
X147674000Y-130588000D01*
X147674000Y-130588000D02*
X147344000Y-130588000D01*
%TO.C,J6*%
X169521000Y-81772000D02*
X169521000Y-102632000D01*
X169521000Y-102632000D02*
X160171000Y-102632000D01*
X160171000Y-102632000D02*
X160171000Y-81772000D01*
X160171000Y-81772000D02*
X169521000Y-81772000D01*
X160426000Y-82022000D02*
X169276000Y-82022000D01*
X169276000Y-82022000D02*
X169276000Y-102372000D01*
X169276000Y-102372000D02*
X160426000Y-102372000D01*
X160426000Y-102372000D02*
X160426000Y-82022000D01*
X160426000Y-82022000D02*
X160976000Y-82572000D01*
X160976000Y-82572000D02*
X168726000Y-82572000D01*
X168726000Y-82572000D02*
X169276000Y-82022000D01*
X168726000Y-82572000D02*
X168726000Y-101822000D01*
X168726000Y-101822000D02*
X169276000Y-102372000D01*
X168726000Y-101822000D02*
X160976000Y-101822000D01*
X160976000Y-101822000D02*
X160476000Y-102322000D01*
X160976000Y-101822000D02*
X160976000Y-94472000D01*
X160976000Y-94452000D02*
X160466000Y-94452000D01*
X160476000Y-89952000D02*
X160956000Y-89952000D01*
X160976000Y-89952000D02*
X160976000Y-82572000D01*
%TO.C,BUFFER*%
X141926000Y-121472000D02*
X141926000Y-120142000D01*
X143256000Y-121472000D02*
X141926000Y-121472000D01*
X144526000Y-121472000D02*
X144526000Y-118812000D01*
X144526000Y-118812000D02*
X147126000Y-118812000D01*
X144526000Y-121472000D02*
X147126000Y-121472000D01*
X147126000Y-121472000D02*
X147126000Y-118812000D01*
%TO.C,O +*%
X161484000Y-128330000D02*
X161484000Y-127000000D01*
X162814000Y-128330000D02*
X161484000Y-128330000D01*
X164084000Y-128330000D02*
X164084000Y-125670000D01*
X164084000Y-125670000D02*
X166684000Y-125670000D01*
X164084000Y-128330000D02*
X166684000Y-128330000D01*
X166684000Y-128330000D02*
X166684000Y-125670000D01*
%TO.C,O -*%
X161484000Y-124012000D02*
X161484000Y-122682000D01*
X162814000Y-124012000D02*
X161484000Y-124012000D01*
X164084000Y-124012000D02*
X164084000Y-121352000D01*
X164084000Y-121352000D02*
X166684000Y-121352000D01*
X164084000Y-124012000D02*
X166684000Y-124012000D01*
X166684000Y-124012000D02*
X166684000Y-121352000D01*
%TO.C,S IN*%
X141926000Y-126806000D02*
X141926000Y-125476000D01*
X143256000Y-126806000D02*
X141926000Y-126806000D01*
X144526000Y-126806000D02*
X144526000Y-124146000D01*
X144526000Y-124146000D02*
X147126000Y-124146000D01*
X144526000Y-126806000D02*
X147126000Y-126806000D01*
X147126000Y-126806000D02*
X147126000Y-124146000D01*
%TO.C,CV IN*%
X161484000Y-132648000D02*
X161484000Y-131318000D01*
X162814000Y-132648000D02*
X161484000Y-132648000D01*
X164084000Y-132648000D02*
X164084000Y-129988000D01*
X164084000Y-129988000D02*
X166684000Y-129988000D01*
X164084000Y-132648000D02*
X166684000Y-132648000D01*
X166684000Y-132648000D02*
X166684000Y-129988000D01*
%TO.C,C6*%
X157004000Y-156119000D02*
X157004000Y-157515000D01*
X157004000Y-152873000D02*
X157004000Y-154269000D01*
X150764000Y-156119000D02*
X150764000Y-157515000D01*
X150764000Y-152873000D02*
X150764000Y-154269000D01*
X150764000Y-157515000D02*
X157004000Y-157515000D01*
X150764000Y-152873000D02*
X157004000Y-152873000D01*
%TO.C,C5*%
X157314759Y-131875000D02*
X157314759Y-133271000D01*
X157314759Y-128629000D02*
X157314759Y-130025000D01*
X151074759Y-131875000D02*
X151074759Y-133271000D01*
X151074759Y-128629000D02*
X151074759Y-130025000D01*
X151074759Y-133271000D02*
X157314759Y-133271000D01*
X151074759Y-128629000D02*
X157314759Y-128629000D01*
%TO.C,C4*%
X157592000Y-101509000D02*
X157592000Y-102905000D01*
X157592000Y-98263000D02*
X157592000Y-99659000D01*
X151352000Y-101509000D02*
X151352000Y-102905000D01*
X151352000Y-98263000D02*
X151352000Y-99659000D01*
X151352000Y-102905000D02*
X157592000Y-102905000D01*
X151352000Y-98263000D02*
X157592000Y-98263000D01*
%TO.C,C3*%
X157592000Y-85761000D02*
X157592000Y-87157000D01*
X157592000Y-82515000D02*
X157592000Y-83911000D01*
X151352000Y-85761000D02*
X151352000Y-87157000D01*
X151352000Y-82515000D02*
X151352000Y-83911000D01*
X151352000Y-87157000D02*
X157592000Y-87157000D01*
X151352000Y-82515000D02*
X157592000Y-82515000D01*
%TO.C,C2*%
X163708000Y-77119241D02*
X164338000Y-77119241D01*
X164023000Y-77434241D02*
X164023000Y-76804241D01*
X165460000Y-70693000D02*
X166264000Y-70693000D01*
X165229000Y-70733000D02*
X166495000Y-70733000D01*
X165060000Y-70773000D02*
X166664000Y-70773000D01*
X164922000Y-70813000D02*
X166802000Y-70813000D01*
X164803000Y-70853000D02*
X166921000Y-70853000D01*
X164697000Y-70893000D02*
X167027000Y-70893000D01*
X164600000Y-70933000D02*
X167124000Y-70933000D01*
X164512000Y-70973000D02*
X167212000Y-70973000D01*
X164430000Y-71013000D02*
X167294000Y-71013000D01*
X164353000Y-71053000D02*
X167371000Y-71053000D01*
X164281000Y-71093000D02*
X167443000Y-71093000D01*
X164212000Y-71133000D02*
X167512000Y-71133000D01*
X164148000Y-71173000D02*
X167576000Y-71173000D01*
X164086000Y-71213000D02*
X167638000Y-71213000D01*
X164028000Y-71253000D02*
X167696000Y-71253000D01*
X163972000Y-71293000D02*
X167752000Y-71293000D01*
X163918000Y-71333000D02*
X167806000Y-71333000D01*
X163867000Y-71373000D02*
X167857000Y-71373000D01*
X163818000Y-71413000D02*
X167906000Y-71413000D01*
X163770000Y-71453000D02*
X167954000Y-71453000D01*
X163725000Y-71493000D02*
X167999000Y-71493000D01*
X163680000Y-71533000D02*
X168044000Y-71533000D01*
X163638000Y-71573000D02*
X168086000Y-71573000D01*
X163597000Y-71613000D02*
X168127000Y-71613000D01*
X166902000Y-71653000D02*
X168167000Y-71653000D01*
X163557000Y-71653000D02*
X164822000Y-71653000D01*
X166902000Y-71693000D02*
X168205000Y-71693000D01*
X163519000Y-71693000D02*
X164822000Y-71693000D01*
X166902000Y-71733000D02*
X168242000Y-71733000D01*
X163482000Y-71733000D02*
X164822000Y-71733000D01*
X166902000Y-71773000D02*
X168278000Y-71773000D01*
X163446000Y-71773000D02*
X164822000Y-71773000D01*
X166902000Y-71813000D02*
X168312000Y-71813000D01*
X163412000Y-71813000D02*
X164822000Y-71813000D01*
X166902000Y-71853000D02*
X168346000Y-71853000D01*
X163378000Y-71853000D02*
X164822000Y-71853000D01*
X166902000Y-71893000D02*
X168378000Y-71893000D01*
X163346000Y-71893000D02*
X164822000Y-71893000D01*
X166902000Y-71933000D02*
X168410000Y-71933000D01*
X163314000Y-71933000D02*
X164822000Y-71933000D01*
X166902000Y-71973000D02*
X168440000Y-71973000D01*
X163284000Y-71973000D02*
X164822000Y-71973000D01*
X166902000Y-72013000D02*
X168469000Y-72013000D01*
X163255000Y-72013000D02*
X164822000Y-72013000D01*
X166902000Y-72053000D02*
X168498000Y-72053000D01*
X163226000Y-72053000D02*
X164822000Y-72053000D01*
X166902000Y-72093000D02*
X168526000Y-72093000D01*
X163198000Y-72093000D02*
X164822000Y-72093000D01*
X166902000Y-72133000D02*
X168552000Y-72133000D01*
X163172000Y-72133000D02*
X164822000Y-72133000D01*
X166902000Y-72173000D02*
X168578000Y-72173000D01*
X163146000Y-72173000D02*
X164822000Y-72173000D01*
X166902000Y-72213000D02*
X168604000Y-72213000D01*
X163120000Y-72213000D02*
X164822000Y-72213000D01*
X166902000Y-72253000D02*
X168628000Y-72253000D01*
X163096000Y-72253000D02*
X164822000Y-72253000D01*
X166902000Y-72293000D02*
X168652000Y-72293000D01*
X163072000Y-72293000D02*
X164822000Y-72293000D01*
X166902000Y-72333000D02*
X168674000Y-72333000D01*
X163050000Y-72333000D02*
X164822000Y-72333000D01*
X166902000Y-72373000D02*
X168696000Y-72373000D01*
X163028000Y-72373000D02*
X164822000Y-72373000D01*
X166902000Y-72413000D02*
X168718000Y-72413000D01*
X163006000Y-72413000D02*
X164822000Y-72413000D01*
X166902000Y-72453000D02*
X168738000Y-72453000D01*
X162986000Y-72453000D02*
X164822000Y-72453000D01*
X166902000Y-72493000D02*
X168758000Y-72493000D01*
X162966000Y-72493000D02*
X164822000Y-72493000D01*
X166902000Y-72533000D02*
X168778000Y-72533000D01*
X162946000Y-72533000D02*
X164822000Y-72533000D01*
X166902000Y-72573000D02*
X168796000Y-72573000D01*
X162928000Y-72573000D02*
X164822000Y-72573000D01*
X166902000Y-72613000D02*
X168814000Y-72613000D01*
X162910000Y-72613000D02*
X164822000Y-72613000D01*
X166902000Y-72653000D02*
X168832000Y-72653000D01*
X162892000Y-72653000D02*
X164822000Y-72653000D01*
X166902000Y-72693000D02*
X168848000Y-72693000D01*
X162876000Y-72693000D02*
X164822000Y-72693000D01*
X166902000Y-72733000D02*
X168864000Y-72733000D01*
X162860000Y-72733000D02*
X164822000Y-72733000D01*
X166902000Y-72773000D02*
X168880000Y-72773000D01*
X162844000Y-72773000D02*
X164822000Y-72773000D01*
X166902000Y-72813000D02*
X168895000Y-72813000D01*
X162829000Y-72813000D02*
X164822000Y-72813000D01*
X166902000Y-72853000D02*
X168909000Y-72853000D01*
X162815000Y-72853000D02*
X164822000Y-72853000D01*
X166902000Y-72893000D02*
X168923000Y-72893000D01*
X162801000Y-72893000D02*
X164822000Y-72893000D01*
X166902000Y-72933000D02*
X168936000Y-72933000D01*
X162788000Y-72933000D02*
X164822000Y-72933000D01*
X166902000Y-72973000D02*
X168948000Y-72973000D01*
X162776000Y-72973000D02*
X164822000Y-72973000D01*
X166902000Y-73013000D02*
X168960000Y-73013000D01*
X162764000Y-73013000D02*
X164822000Y-73013000D01*
X166902000Y-73053000D02*
X168972000Y-73053000D01*
X162752000Y-73053000D02*
X164822000Y-73053000D01*
X166902000Y-73093000D02*
X168983000Y-73093000D01*
X162741000Y-73093000D02*
X164822000Y-73093000D01*
X166902000Y-73133000D02*
X168993000Y-73133000D01*
X162731000Y-73133000D02*
X164822000Y-73133000D01*
X166902000Y-73173000D02*
X169003000Y-73173000D01*
X162721000Y-73173000D02*
X164822000Y-73173000D01*
X166902000Y-73213000D02*
X169012000Y-73213000D01*
X162712000Y-73213000D02*
X164822000Y-73213000D01*
X166902000Y-73254000D02*
X169021000Y-73254000D01*
X162703000Y-73254000D02*
X164822000Y-73254000D01*
X166902000Y-73294000D02*
X169029000Y-73294000D01*
X162695000Y-73294000D02*
X164822000Y-73294000D01*
X166902000Y-73334000D02*
X169037000Y-73334000D01*
X162687000Y-73334000D02*
X164822000Y-73334000D01*
X166902000Y-73374000D02*
X169044000Y-73374000D01*
X162680000Y-73374000D02*
X164822000Y-73374000D01*
X166902000Y-73414000D02*
X169051000Y-73414000D01*
X162673000Y-73414000D02*
X164822000Y-73414000D01*
X166902000Y-73454000D02*
X169057000Y-73454000D01*
X162667000Y-73454000D02*
X164822000Y-73454000D01*
X166902000Y-73494000D02*
X169063000Y-73494000D01*
X162661000Y-73494000D02*
X164822000Y-73494000D01*
X166902000Y-73534000D02*
X169068000Y-73534000D01*
X162656000Y-73534000D02*
X164822000Y-73534000D01*
X166902000Y-73574000D02*
X169073000Y-73574000D01*
X162651000Y-73574000D02*
X164822000Y-73574000D01*
X166902000Y-73614000D02*
X169077000Y-73614000D01*
X162647000Y-73614000D02*
X164822000Y-73614000D01*
X166902000Y-73654000D02*
X169080000Y-73654000D01*
X162644000Y-73654000D02*
X164822000Y-73654000D01*
X166902000Y-73694000D02*
X169084000Y-73694000D01*
X162640000Y-73694000D02*
X164822000Y-73694000D01*
X162638000Y-73734000D02*
X169086000Y-73734000D01*
X162635000Y-73774000D02*
X169089000Y-73774000D01*
X162634000Y-73814000D02*
X169090000Y-73814000D01*
X162632000Y-73854000D02*
X169092000Y-73854000D01*
X162632000Y-73894000D02*
X169092000Y-73894000D01*
X162632000Y-73934000D02*
X169092000Y-73934000D01*
X169132000Y-73934000D02*
G75*
G03*
X169132000Y-73934000I-3270000J0D01*
G01*
%TO.C,C1*%
X163708000Y-113187241D02*
X164338000Y-113187241D01*
X164023000Y-113502241D02*
X164023000Y-112872241D01*
X165460000Y-106761000D02*
X166264000Y-106761000D01*
X165229000Y-106801000D02*
X166495000Y-106801000D01*
X165060000Y-106841000D02*
X166664000Y-106841000D01*
X164922000Y-106881000D02*
X166802000Y-106881000D01*
X164803000Y-106921000D02*
X166921000Y-106921000D01*
X164697000Y-106961000D02*
X167027000Y-106961000D01*
X164600000Y-107001000D02*
X167124000Y-107001000D01*
X164512000Y-107041000D02*
X167212000Y-107041000D01*
X164430000Y-107081000D02*
X167294000Y-107081000D01*
X164353000Y-107121000D02*
X167371000Y-107121000D01*
X164281000Y-107161000D02*
X167443000Y-107161000D01*
X164212000Y-107201000D02*
X167512000Y-107201000D01*
X164148000Y-107241000D02*
X167576000Y-107241000D01*
X164086000Y-107281000D02*
X167638000Y-107281000D01*
X164028000Y-107321000D02*
X167696000Y-107321000D01*
X163972000Y-107361000D02*
X167752000Y-107361000D01*
X163918000Y-107401000D02*
X167806000Y-107401000D01*
X163867000Y-107441000D02*
X167857000Y-107441000D01*
X163818000Y-107481000D02*
X167906000Y-107481000D01*
X163770000Y-107521000D02*
X167954000Y-107521000D01*
X163725000Y-107561000D02*
X167999000Y-107561000D01*
X163680000Y-107601000D02*
X168044000Y-107601000D01*
X163638000Y-107641000D02*
X168086000Y-107641000D01*
X163597000Y-107681000D02*
X168127000Y-107681000D01*
X166902000Y-107721000D02*
X168167000Y-107721000D01*
X163557000Y-107721000D02*
X164822000Y-107721000D01*
X166902000Y-107761000D02*
X168205000Y-107761000D01*
X163519000Y-107761000D02*
X164822000Y-107761000D01*
X166902000Y-107801000D02*
X168242000Y-107801000D01*
X163482000Y-107801000D02*
X164822000Y-107801000D01*
X166902000Y-107841000D02*
X168278000Y-107841000D01*
X163446000Y-107841000D02*
X164822000Y-107841000D01*
X166902000Y-107881000D02*
X168312000Y-107881000D01*
X163412000Y-107881000D02*
X164822000Y-107881000D01*
X166902000Y-107921000D02*
X168346000Y-107921000D01*
X163378000Y-107921000D02*
X164822000Y-107921000D01*
X166902000Y-107961000D02*
X168378000Y-107961000D01*
X163346000Y-107961000D02*
X164822000Y-107961000D01*
X166902000Y-108001000D02*
X168410000Y-108001000D01*
X163314000Y-108001000D02*
X164822000Y-108001000D01*
X166902000Y-108041000D02*
X168440000Y-108041000D01*
X163284000Y-108041000D02*
X164822000Y-108041000D01*
X166902000Y-108081000D02*
X168469000Y-108081000D01*
X163255000Y-108081000D02*
X164822000Y-108081000D01*
X166902000Y-108121000D02*
X168498000Y-108121000D01*
X163226000Y-108121000D02*
X164822000Y-108121000D01*
X166902000Y-108161000D02*
X168526000Y-108161000D01*
X163198000Y-108161000D02*
X164822000Y-108161000D01*
X166902000Y-108201000D02*
X168552000Y-108201000D01*
X163172000Y-108201000D02*
X164822000Y-108201000D01*
X166902000Y-108241000D02*
X168578000Y-108241000D01*
X163146000Y-108241000D02*
X164822000Y-108241000D01*
X166902000Y-108281000D02*
X168604000Y-108281000D01*
X163120000Y-108281000D02*
X164822000Y-108281000D01*
X166902000Y-108321000D02*
X168628000Y-108321000D01*
X163096000Y-108321000D02*
X164822000Y-108321000D01*
X166902000Y-108361000D02*
X168652000Y-108361000D01*
X163072000Y-108361000D02*
X164822000Y-108361000D01*
X166902000Y-108401000D02*
X168674000Y-108401000D01*
X163050000Y-108401000D02*
X164822000Y-108401000D01*
X166902000Y-108441000D02*
X168696000Y-108441000D01*
X163028000Y-108441000D02*
X164822000Y-108441000D01*
X166902000Y-108481000D02*
X168718000Y-108481000D01*
X163006000Y-108481000D02*
X164822000Y-108481000D01*
X166902000Y-108521000D02*
X168738000Y-108521000D01*
X162986000Y-108521000D02*
X164822000Y-108521000D01*
X166902000Y-108561000D02*
X168758000Y-108561000D01*
X162966000Y-108561000D02*
X164822000Y-108561000D01*
X166902000Y-108601000D02*
X168778000Y-108601000D01*
X162946000Y-108601000D02*
X164822000Y-108601000D01*
X166902000Y-108641000D02*
X168796000Y-108641000D01*
X162928000Y-108641000D02*
X164822000Y-108641000D01*
X166902000Y-108681000D02*
X168814000Y-108681000D01*
X162910000Y-108681000D02*
X164822000Y-108681000D01*
X166902000Y-108721000D02*
X168832000Y-108721000D01*
X162892000Y-108721000D02*
X164822000Y-108721000D01*
X166902000Y-108761000D02*
X168848000Y-108761000D01*
X162876000Y-108761000D02*
X164822000Y-108761000D01*
X166902000Y-108801000D02*
X168864000Y-108801000D01*
X162860000Y-108801000D02*
X164822000Y-108801000D01*
X166902000Y-108841000D02*
X168880000Y-108841000D01*
X162844000Y-108841000D02*
X164822000Y-108841000D01*
X166902000Y-108881000D02*
X168895000Y-108881000D01*
X162829000Y-108881000D02*
X164822000Y-108881000D01*
X166902000Y-108921000D02*
X168909000Y-108921000D01*
X162815000Y-108921000D02*
X164822000Y-108921000D01*
X166902000Y-108961000D02*
X168923000Y-108961000D01*
X162801000Y-108961000D02*
X164822000Y-108961000D01*
X166902000Y-109001000D02*
X168936000Y-109001000D01*
X162788000Y-109001000D02*
X164822000Y-109001000D01*
X166902000Y-109041000D02*
X168948000Y-109041000D01*
X162776000Y-109041000D02*
X164822000Y-109041000D01*
X166902000Y-109081000D02*
X168960000Y-109081000D01*
X162764000Y-109081000D02*
X164822000Y-109081000D01*
X166902000Y-109121000D02*
X168972000Y-109121000D01*
X162752000Y-109121000D02*
X164822000Y-109121000D01*
X166902000Y-109161000D02*
X168983000Y-109161000D01*
X162741000Y-109161000D02*
X164822000Y-109161000D01*
X166902000Y-109201000D02*
X168993000Y-109201000D01*
X162731000Y-109201000D02*
X164822000Y-109201000D01*
X166902000Y-109241000D02*
X169003000Y-109241000D01*
X162721000Y-109241000D02*
X164822000Y-109241000D01*
X166902000Y-109281000D02*
X169012000Y-109281000D01*
X162712000Y-109281000D02*
X164822000Y-109281000D01*
X166902000Y-109322000D02*
X169021000Y-109322000D01*
X162703000Y-109322000D02*
X164822000Y-109322000D01*
X166902000Y-109362000D02*
X169029000Y-109362000D01*
X162695000Y-109362000D02*
X164822000Y-109362000D01*
X166902000Y-109402000D02*
X169037000Y-109402000D01*
X162687000Y-109402000D02*
X164822000Y-109402000D01*
X166902000Y-109442000D02*
X169044000Y-109442000D01*
X162680000Y-109442000D02*
X164822000Y-109442000D01*
X166902000Y-109482000D02*
X169051000Y-109482000D01*
X162673000Y-109482000D02*
X164822000Y-109482000D01*
X166902000Y-109522000D02*
X169057000Y-109522000D01*
X162667000Y-109522000D02*
X164822000Y-109522000D01*
X166902000Y-109562000D02*
X169063000Y-109562000D01*
X162661000Y-109562000D02*
X164822000Y-109562000D01*
X166902000Y-109602000D02*
X169068000Y-109602000D01*
X162656000Y-109602000D02*
X164822000Y-109602000D01*
X166902000Y-109642000D02*
X169073000Y-109642000D01*
X162651000Y-109642000D02*
X164822000Y-109642000D01*
X166902000Y-109682000D02*
X169077000Y-109682000D01*
X162647000Y-109682000D02*
X164822000Y-109682000D01*
X166902000Y-109722000D02*
X169080000Y-109722000D01*
X162644000Y-109722000D02*
X164822000Y-109722000D01*
X166902000Y-109762000D02*
X169084000Y-109762000D01*
X162640000Y-109762000D02*
X164822000Y-109762000D01*
X162638000Y-109802000D02*
X169086000Y-109802000D01*
X162635000Y-109842000D02*
X169089000Y-109842000D01*
X162634000Y-109882000D02*
X169090000Y-109882000D01*
X162632000Y-109922000D02*
X169092000Y-109922000D01*
X162632000Y-109962000D02*
X169092000Y-109962000D01*
X162632000Y-110002000D02*
X169092000Y-110002000D01*
X169132000Y-110002000D02*
G75*
G03*
X169132000Y-110002000I-3270000J0D01*
G01*
%TO.C,U2*%
D10*
X153162095Y-135850380D02*
X153162095Y-136659904D01*
X153209714Y-136755142D01*
X153257333Y-136802761D01*
X153352571Y-136850380D01*
X153543047Y-136850380D01*
X153638285Y-136802761D01*
X153685904Y-136755142D01*
X153733523Y-136659904D01*
X153733523Y-135850380D01*
X154162095Y-135945619D02*
X154209714Y-135898000D01*
X154304952Y-135850380D01*
X154543047Y-135850380D01*
X154638285Y-135898000D01*
X154685904Y-135945619D01*
X154733523Y-136040857D01*
X154733523Y-136136095D01*
X154685904Y-136278952D01*
X154114476Y-136850380D01*
X154733523Y-136850380D01*
%TO.C,U1*%
X153670095Y-89114380D02*
X153670095Y-89923904D01*
X153717714Y-90019142D01*
X153765333Y-90066761D01*
X153860571Y-90114380D01*
X154051047Y-90114380D01*
X154146285Y-90066761D01*
X154193904Y-90019142D01*
X154241523Y-89923904D01*
X154241523Y-89114380D01*
X155241523Y-90114380D02*
X154670095Y-90114380D01*
X154955809Y-90114380D02*
X154955809Y-89114380D01*
X154860571Y-89257238D01*
X154765333Y-89352476D01*
X154670095Y-89400095D01*
%TO.C,R12*%
D12*
X161412285Y-153433428D02*
X161212285Y-153147714D01*
X161069428Y-153433428D02*
X161069428Y-152833428D01*
X161298000Y-152833428D01*
X161355142Y-152862000D01*
X161383714Y-152890571D01*
X161412285Y-152947714D01*
X161412285Y-153033428D01*
X161383714Y-153090571D01*
X161355142Y-153119142D01*
X161298000Y-153147714D01*
X161069428Y-153147714D01*
X161983714Y-153433428D02*
X161640857Y-153433428D01*
X161812285Y-153433428D02*
X161812285Y-152833428D01*
X161755142Y-152919142D01*
X161698000Y-152976285D01*
X161640857Y-153004857D01*
X162212285Y-152890571D02*
X162240857Y-152862000D01*
X162298000Y-152833428D01*
X162440857Y-152833428D01*
X162498000Y-152862000D01*
X162526571Y-152890571D01*
X162555142Y-152947714D01*
X162555142Y-153004857D01*
X162526571Y-153090571D01*
X162183714Y-153433428D01*
X162555142Y-153433428D01*
D10*
X162250380Y-151693428D02*
X162250380Y-152264857D01*
X162250380Y-151979142D02*
X161250380Y-151979142D01*
X161393238Y-152074380D01*
X161488476Y-152169619D01*
X161536095Y-152264857D01*
X161250380Y-151074380D02*
X161250380Y-150979142D01*
X161298000Y-150883904D01*
X161345619Y-150836285D01*
X161440857Y-150788666D01*
X161631333Y-150741047D01*
X161869428Y-150741047D01*
X162059904Y-150788666D01*
X162155142Y-150836285D01*
X162202761Y-150883904D01*
X162250380Y-150979142D01*
X162250380Y-151074380D01*
X162202761Y-151169619D01*
X162155142Y-151217238D01*
X162059904Y-151264857D01*
X161869428Y-151312476D01*
X161631333Y-151312476D01*
X161440857Y-151264857D01*
X161345619Y-151217238D01*
X161298000Y-151169619D01*
X161250380Y-151074380D01*
X161250380Y-150122000D02*
X161250380Y-150026761D01*
X161298000Y-149931523D01*
X161345619Y-149883904D01*
X161440857Y-149836285D01*
X161631333Y-149788666D01*
X161869428Y-149788666D01*
X162059904Y-149836285D01*
X162155142Y-149883904D01*
X162202761Y-149931523D01*
X162250380Y-150026761D01*
X162250380Y-150122000D01*
X162202761Y-150217238D01*
X162155142Y-150264857D01*
X162059904Y-150312476D01*
X161869428Y-150360095D01*
X161631333Y-150360095D01*
X161440857Y-150312476D01*
X161345619Y-150264857D01*
X161298000Y-150217238D01*
X161250380Y-150122000D01*
X162250380Y-149360095D02*
X161250380Y-149360095D01*
X161869428Y-149264857D02*
X162250380Y-148979142D01*
X161583714Y-148979142D02*
X161964666Y-149360095D01*
%TO.C,R11*%
D12*
X164968285Y-148353428D02*
X164768285Y-148067714D01*
X164625428Y-148353428D02*
X164625428Y-147753428D01*
X164854000Y-147753428D01*
X164911142Y-147782000D01*
X164939714Y-147810571D01*
X164968285Y-147867714D01*
X164968285Y-147953428D01*
X164939714Y-148010571D01*
X164911142Y-148039142D01*
X164854000Y-148067714D01*
X164625428Y-148067714D01*
X165539714Y-148353428D02*
X165196857Y-148353428D01*
X165368285Y-148353428D02*
X165368285Y-147753428D01*
X165311142Y-147839142D01*
X165254000Y-147896285D01*
X165196857Y-147924857D01*
X166111142Y-148353428D02*
X165768285Y-148353428D01*
X165939714Y-148353428D02*
X165939714Y-147753428D01*
X165882571Y-147839142D01*
X165825428Y-147896285D01*
X165768285Y-147924857D01*
D10*
X165806380Y-151693428D02*
X165806380Y-152264857D01*
X165806380Y-151979142D02*
X164806380Y-151979142D01*
X164949238Y-152074380D01*
X165044476Y-152169619D01*
X165092095Y-152264857D01*
X164806380Y-151074380D02*
X164806380Y-150979142D01*
X164854000Y-150883904D01*
X164901619Y-150836285D01*
X164996857Y-150788666D01*
X165187333Y-150741047D01*
X165425428Y-150741047D01*
X165615904Y-150788666D01*
X165711142Y-150836285D01*
X165758761Y-150883904D01*
X165806380Y-150979142D01*
X165806380Y-151074380D01*
X165758761Y-151169619D01*
X165711142Y-151217238D01*
X165615904Y-151264857D01*
X165425428Y-151312476D01*
X165187333Y-151312476D01*
X164996857Y-151264857D01*
X164901619Y-151217238D01*
X164854000Y-151169619D01*
X164806380Y-151074380D01*
X164806380Y-150122000D02*
X164806380Y-150026761D01*
X164854000Y-149931523D01*
X164901619Y-149883904D01*
X164996857Y-149836285D01*
X165187333Y-149788666D01*
X165425428Y-149788666D01*
X165615904Y-149836285D01*
X165711142Y-149883904D01*
X165758761Y-149931523D01*
X165806380Y-150026761D01*
X165806380Y-150122000D01*
X165758761Y-150217238D01*
X165711142Y-150264857D01*
X165615904Y-150312476D01*
X165425428Y-150360095D01*
X165187333Y-150360095D01*
X164996857Y-150312476D01*
X164901619Y-150264857D01*
X164854000Y-150217238D01*
X164806380Y-150122000D01*
X165806380Y-149360095D02*
X164806380Y-149360095D01*
X165425428Y-149264857D02*
X165806380Y-148979142D01*
X165139714Y-148979142D02*
X165520666Y-149360095D01*
%TO.C,R10*%
D12*
X145918285Y-157243428D02*
X145718285Y-156957714D01*
X145575428Y-157243428D02*
X145575428Y-156643428D01*
X145804000Y-156643428D01*
X145861142Y-156672000D01*
X145889714Y-156700571D01*
X145918285Y-156757714D01*
X145918285Y-156843428D01*
X145889714Y-156900571D01*
X145861142Y-156929142D01*
X145804000Y-156957714D01*
X145575428Y-156957714D01*
X146489714Y-157243428D02*
X146146857Y-157243428D01*
X146318285Y-157243428D02*
X146318285Y-156643428D01*
X146261142Y-156729142D01*
X146204000Y-156786285D01*
X146146857Y-156814857D01*
X146861142Y-156643428D02*
X146918285Y-156643428D01*
X146975428Y-156672000D01*
X147004000Y-156700571D01*
X147032571Y-156757714D01*
X147061142Y-156872000D01*
X147061142Y-157014857D01*
X147032571Y-157129142D01*
X147004000Y-157186285D01*
X146975428Y-157214857D01*
X146918285Y-157243428D01*
X146861142Y-157243428D01*
X146804000Y-157214857D01*
X146775428Y-157186285D01*
X146746857Y-157129142D01*
X146718285Y-157014857D01*
X146718285Y-156872000D01*
X146746857Y-156757714D01*
X146775428Y-156700571D01*
X146804000Y-156672000D01*
X146861142Y-156643428D01*
D10*
X146756380Y-155503428D02*
X146756380Y-156074857D01*
X146756380Y-155789142D02*
X145756380Y-155789142D01*
X145899238Y-155884380D01*
X145994476Y-155979619D01*
X146042095Y-156074857D01*
X145756380Y-154884380D02*
X145756380Y-154789142D01*
X145804000Y-154693904D01*
X145851619Y-154646285D01*
X145946857Y-154598666D01*
X146137333Y-154551047D01*
X146375428Y-154551047D01*
X146565904Y-154598666D01*
X146661142Y-154646285D01*
X146708761Y-154693904D01*
X146756380Y-154789142D01*
X146756380Y-154884380D01*
X146708761Y-154979619D01*
X146661142Y-155027238D01*
X146565904Y-155074857D01*
X146375428Y-155122476D01*
X146137333Y-155122476D01*
X145946857Y-155074857D01*
X145851619Y-155027238D01*
X145804000Y-154979619D01*
X145756380Y-154884380D01*
X145756380Y-153932000D02*
X145756380Y-153836761D01*
X145804000Y-153741523D01*
X145851619Y-153693904D01*
X145946857Y-153646285D01*
X146137333Y-153598666D01*
X146375428Y-153598666D01*
X146565904Y-153646285D01*
X146661142Y-153693904D01*
X146708761Y-153741523D01*
X146756380Y-153836761D01*
X146756380Y-153932000D01*
X146708761Y-154027238D01*
X146661142Y-154074857D01*
X146565904Y-154122476D01*
X146375428Y-154170095D01*
X146137333Y-154170095D01*
X145946857Y-154122476D01*
X145851619Y-154074857D01*
X145804000Y-154027238D01*
X145756380Y-153932000D01*
X146756380Y-153170095D02*
X145756380Y-153170095D01*
X146375428Y-153074857D02*
X146756380Y-152789142D01*
X146089714Y-152789142D02*
X146470666Y-153170095D01*
%TO.C,R9*%
D12*
X152671428Y-126084000D02*
X152385714Y-126284000D01*
X152671428Y-126426857D02*
X152071428Y-126426857D01*
X152071428Y-126198285D01*
X152100000Y-126141142D01*
X152128571Y-126112571D01*
X152185714Y-126084000D01*
X152271428Y-126084000D01*
X152328571Y-126112571D01*
X152357142Y-126141142D01*
X152385714Y-126198285D01*
X152385714Y-126426857D01*
X152671428Y-125798285D02*
X152671428Y-125684000D01*
X152642857Y-125626857D01*
X152614285Y-125598285D01*
X152528571Y-125541142D01*
X152414285Y-125512571D01*
X152185714Y-125512571D01*
X152128571Y-125541142D01*
X152100000Y-125569714D01*
X152071428Y-125626857D01*
X152071428Y-125741142D01*
X152100000Y-125798285D01*
X152128571Y-125826857D01*
X152185714Y-125855428D01*
X152328571Y-125855428D01*
X152385714Y-125826857D01*
X152414285Y-125798285D01*
X152442857Y-125741142D01*
X152442857Y-125626857D01*
X152414285Y-125569714D01*
X152385714Y-125541142D01*
X152328571Y-125512571D01*
D10*
X153868571Y-126436380D02*
X153297142Y-126436380D01*
X153582857Y-126436380D02*
X153582857Y-125436380D01*
X153487619Y-125579238D01*
X153392380Y-125674476D01*
X153297142Y-125722095D01*
X154487619Y-125436380D02*
X154582857Y-125436380D01*
X154678095Y-125484000D01*
X154725714Y-125531619D01*
X154773333Y-125626857D01*
X154820952Y-125817333D01*
X154820952Y-126055428D01*
X154773333Y-126245904D01*
X154725714Y-126341142D01*
X154678095Y-126388761D01*
X154582857Y-126436380D01*
X154487619Y-126436380D01*
X154392380Y-126388761D01*
X154344761Y-126341142D01*
X154297142Y-126245904D01*
X154249523Y-126055428D01*
X154249523Y-125817333D01*
X154297142Y-125626857D01*
X154344761Y-125531619D01*
X154392380Y-125484000D01*
X154487619Y-125436380D01*
X155440000Y-125436380D02*
X155535238Y-125436380D01*
X155630476Y-125484000D01*
X155678095Y-125531619D01*
X155725714Y-125626857D01*
X155773333Y-125817333D01*
X155773333Y-126055428D01*
X155725714Y-126245904D01*
X155678095Y-126341142D01*
X155630476Y-126388761D01*
X155535238Y-126436380D01*
X155440000Y-126436380D01*
X155344761Y-126388761D01*
X155297142Y-126341142D01*
X155249523Y-126245904D01*
X155201904Y-126055428D01*
X155201904Y-125817333D01*
X155249523Y-125626857D01*
X155297142Y-125531619D01*
X155344761Y-125484000D01*
X155440000Y-125436380D01*
X156201904Y-126436380D02*
X156201904Y-125436380D01*
X156297142Y-126055428D02*
X156582857Y-126436380D01*
X156582857Y-125769714D02*
X156201904Y-126150666D01*
%TO.C,R8*%
D12*
X157751428Y-122528000D02*
X157465714Y-122728000D01*
X157751428Y-122870857D02*
X157151428Y-122870857D01*
X157151428Y-122642285D01*
X157180000Y-122585142D01*
X157208571Y-122556571D01*
X157265714Y-122528000D01*
X157351428Y-122528000D01*
X157408571Y-122556571D01*
X157437142Y-122585142D01*
X157465714Y-122642285D01*
X157465714Y-122870857D01*
X157408571Y-122185142D02*
X157380000Y-122242285D01*
X157351428Y-122270857D01*
X157294285Y-122299428D01*
X157265714Y-122299428D01*
X157208571Y-122270857D01*
X157180000Y-122242285D01*
X157151428Y-122185142D01*
X157151428Y-122070857D01*
X157180000Y-122013714D01*
X157208571Y-121985142D01*
X157265714Y-121956571D01*
X157294285Y-121956571D01*
X157351428Y-121985142D01*
X157380000Y-122013714D01*
X157408571Y-122070857D01*
X157408571Y-122185142D01*
X157437142Y-122242285D01*
X157465714Y-122270857D01*
X157522857Y-122299428D01*
X157637142Y-122299428D01*
X157694285Y-122270857D01*
X157722857Y-122242285D01*
X157751428Y-122185142D01*
X157751428Y-122070857D01*
X157722857Y-122013714D01*
X157694285Y-121985142D01*
X157637142Y-121956571D01*
X157522857Y-121956571D01*
X157465714Y-121985142D01*
X157437142Y-122013714D01*
X157408571Y-122070857D01*
D10*
X153868571Y-122880380D02*
X153297142Y-122880380D01*
X153582857Y-122880380D02*
X153582857Y-121880380D01*
X153487619Y-122023238D01*
X153392380Y-122118476D01*
X153297142Y-122166095D01*
X154487619Y-121880380D02*
X154582857Y-121880380D01*
X154678095Y-121928000D01*
X154725714Y-121975619D01*
X154773333Y-122070857D01*
X154820952Y-122261333D01*
X154820952Y-122499428D01*
X154773333Y-122689904D01*
X154725714Y-122785142D01*
X154678095Y-122832761D01*
X154582857Y-122880380D01*
X154487619Y-122880380D01*
X154392380Y-122832761D01*
X154344761Y-122785142D01*
X154297142Y-122689904D01*
X154249523Y-122499428D01*
X154249523Y-122261333D01*
X154297142Y-122070857D01*
X154344761Y-121975619D01*
X154392380Y-121928000D01*
X154487619Y-121880380D01*
X155440000Y-121880380D02*
X155535238Y-121880380D01*
X155630476Y-121928000D01*
X155678095Y-121975619D01*
X155725714Y-122070857D01*
X155773333Y-122261333D01*
X155773333Y-122499428D01*
X155725714Y-122689904D01*
X155678095Y-122785142D01*
X155630476Y-122832761D01*
X155535238Y-122880380D01*
X155440000Y-122880380D01*
X155344761Y-122832761D01*
X155297142Y-122785142D01*
X155249523Y-122689904D01*
X155201904Y-122499428D01*
X155201904Y-122261333D01*
X155249523Y-122070857D01*
X155297142Y-121975619D01*
X155344761Y-121928000D01*
X155440000Y-121880380D01*
X156201904Y-122880380D02*
X156201904Y-121880380D01*
X156297142Y-122499428D02*
X156582857Y-122880380D01*
X156582857Y-122213714D02*
X156201904Y-122594666D01*
%TO.C,R7*%
D12*
X146204000Y-142003428D02*
X146004000Y-141717714D01*
X145861142Y-142003428D02*
X145861142Y-141403428D01*
X146089714Y-141403428D01*
X146146857Y-141432000D01*
X146175428Y-141460571D01*
X146204000Y-141517714D01*
X146204000Y-141603428D01*
X146175428Y-141660571D01*
X146146857Y-141689142D01*
X146089714Y-141717714D01*
X145861142Y-141717714D01*
X146404000Y-141403428D02*
X146804000Y-141403428D01*
X146546857Y-142003428D01*
D10*
X146756380Y-145343428D02*
X146756380Y-145914857D01*
X146756380Y-145629142D02*
X145756380Y-145629142D01*
X145899238Y-145724380D01*
X145994476Y-145819619D01*
X146042095Y-145914857D01*
X145756380Y-144724380D02*
X145756380Y-144629142D01*
X145804000Y-144533904D01*
X145851619Y-144486285D01*
X145946857Y-144438666D01*
X146137333Y-144391047D01*
X146375428Y-144391047D01*
X146565904Y-144438666D01*
X146661142Y-144486285D01*
X146708761Y-144533904D01*
X146756380Y-144629142D01*
X146756380Y-144724380D01*
X146708761Y-144819619D01*
X146661142Y-144867238D01*
X146565904Y-144914857D01*
X146375428Y-144962476D01*
X146137333Y-144962476D01*
X145946857Y-144914857D01*
X145851619Y-144867238D01*
X145804000Y-144819619D01*
X145756380Y-144724380D01*
X145756380Y-143772000D02*
X145756380Y-143676761D01*
X145804000Y-143581523D01*
X145851619Y-143533904D01*
X145946857Y-143486285D01*
X146137333Y-143438666D01*
X146375428Y-143438666D01*
X146565904Y-143486285D01*
X146661142Y-143533904D01*
X146708761Y-143581523D01*
X146756380Y-143676761D01*
X146756380Y-143772000D01*
X146708761Y-143867238D01*
X146661142Y-143914857D01*
X146565904Y-143962476D01*
X146375428Y-144010095D01*
X146137333Y-144010095D01*
X145946857Y-143962476D01*
X145851619Y-143914857D01*
X145804000Y-143867238D01*
X145756380Y-143772000D01*
X146756380Y-143010095D02*
X145756380Y-143010095D01*
X146375428Y-142914857D02*
X146756380Y-142629142D01*
X146089714Y-142629142D02*
X146470666Y-143010095D01*
%TO.C,R6*%
D12*
X161698000Y-138193428D02*
X161498000Y-137907714D01*
X161355142Y-138193428D02*
X161355142Y-137593428D01*
X161583714Y-137593428D01*
X161640857Y-137622000D01*
X161669428Y-137650571D01*
X161698000Y-137707714D01*
X161698000Y-137793428D01*
X161669428Y-137850571D01*
X161640857Y-137879142D01*
X161583714Y-137907714D01*
X161355142Y-137907714D01*
X162212285Y-137593428D02*
X162098000Y-137593428D01*
X162040857Y-137622000D01*
X162012285Y-137650571D01*
X161955142Y-137736285D01*
X161926571Y-137850571D01*
X161926571Y-138079142D01*
X161955142Y-138136285D01*
X161983714Y-138164857D01*
X162040857Y-138193428D01*
X162155142Y-138193428D01*
X162212285Y-138164857D01*
X162240857Y-138136285D01*
X162269428Y-138079142D01*
X162269428Y-137936285D01*
X162240857Y-137879142D01*
X162212285Y-137850571D01*
X162155142Y-137822000D01*
X162040857Y-137822000D01*
X161983714Y-137850571D01*
X161955142Y-137879142D01*
X161926571Y-137936285D01*
D10*
X162250380Y-141533428D02*
X162250380Y-142104857D01*
X162250380Y-141819142D02*
X161250380Y-141819142D01*
X161393238Y-141914380D01*
X161488476Y-142009619D01*
X161536095Y-142104857D01*
X161250380Y-140914380D02*
X161250380Y-140819142D01*
X161298000Y-140723904D01*
X161345619Y-140676285D01*
X161440857Y-140628666D01*
X161631333Y-140581047D01*
X161869428Y-140581047D01*
X162059904Y-140628666D01*
X162155142Y-140676285D01*
X162202761Y-140723904D01*
X162250380Y-140819142D01*
X162250380Y-140914380D01*
X162202761Y-141009619D01*
X162155142Y-141057238D01*
X162059904Y-141104857D01*
X161869428Y-141152476D01*
X161631333Y-141152476D01*
X161440857Y-141104857D01*
X161345619Y-141057238D01*
X161298000Y-141009619D01*
X161250380Y-140914380D01*
X161250380Y-139962000D02*
X161250380Y-139866761D01*
X161298000Y-139771523D01*
X161345619Y-139723904D01*
X161440857Y-139676285D01*
X161631333Y-139628666D01*
X161869428Y-139628666D01*
X162059904Y-139676285D01*
X162155142Y-139723904D01*
X162202761Y-139771523D01*
X162250380Y-139866761D01*
X162250380Y-139962000D01*
X162202761Y-140057238D01*
X162155142Y-140104857D01*
X162059904Y-140152476D01*
X161869428Y-140200095D01*
X161631333Y-140200095D01*
X161440857Y-140152476D01*
X161345619Y-140104857D01*
X161298000Y-140057238D01*
X161250380Y-139962000D01*
X162250380Y-139200095D02*
X161250380Y-139200095D01*
X161869428Y-139104857D02*
X162250380Y-138819142D01*
X161583714Y-138819142D02*
X161964666Y-139200095D01*
%TO.C,R5*%
D12*
X165254000Y-138193428D02*
X165054000Y-137907714D01*
X164911142Y-138193428D02*
X164911142Y-137593428D01*
X165139714Y-137593428D01*
X165196857Y-137622000D01*
X165225428Y-137650571D01*
X165254000Y-137707714D01*
X165254000Y-137793428D01*
X165225428Y-137850571D01*
X165196857Y-137879142D01*
X165139714Y-137907714D01*
X164911142Y-137907714D01*
X165796857Y-137593428D02*
X165511142Y-137593428D01*
X165482571Y-137879142D01*
X165511142Y-137850571D01*
X165568285Y-137822000D01*
X165711142Y-137822000D01*
X165768285Y-137850571D01*
X165796857Y-137879142D01*
X165825428Y-137936285D01*
X165825428Y-138079142D01*
X165796857Y-138136285D01*
X165768285Y-138164857D01*
X165711142Y-138193428D01*
X165568285Y-138193428D01*
X165511142Y-138164857D01*
X165482571Y-138136285D01*
D10*
X165806380Y-141533428D02*
X165806380Y-142104857D01*
X165806380Y-141819142D02*
X164806380Y-141819142D01*
X164949238Y-141914380D01*
X165044476Y-142009619D01*
X165092095Y-142104857D01*
X164806380Y-140914380D02*
X164806380Y-140819142D01*
X164854000Y-140723904D01*
X164901619Y-140676285D01*
X164996857Y-140628666D01*
X165187333Y-140581047D01*
X165425428Y-140581047D01*
X165615904Y-140628666D01*
X165711142Y-140676285D01*
X165758761Y-140723904D01*
X165806380Y-140819142D01*
X165806380Y-140914380D01*
X165758761Y-141009619D01*
X165711142Y-141057238D01*
X165615904Y-141104857D01*
X165425428Y-141152476D01*
X165187333Y-141152476D01*
X164996857Y-141104857D01*
X164901619Y-141057238D01*
X164854000Y-141009619D01*
X164806380Y-140914380D01*
X164806380Y-139962000D02*
X164806380Y-139866761D01*
X164854000Y-139771523D01*
X164901619Y-139723904D01*
X164996857Y-139676285D01*
X165187333Y-139628666D01*
X165425428Y-139628666D01*
X165615904Y-139676285D01*
X165711142Y-139723904D01*
X165758761Y-139771523D01*
X165806380Y-139866761D01*
X165806380Y-139962000D01*
X165758761Y-140057238D01*
X165711142Y-140104857D01*
X165615904Y-140152476D01*
X165425428Y-140200095D01*
X165187333Y-140200095D01*
X164996857Y-140152476D01*
X164901619Y-140104857D01*
X164854000Y-140057238D01*
X164806380Y-139962000D01*
X165806380Y-139200095D02*
X164806380Y-139200095D01*
X165425428Y-139104857D02*
X165806380Y-138819142D01*
X165139714Y-138819142D02*
X165520666Y-139200095D01*
%TO.C,R4*%
D12*
X142648000Y-147083428D02*
X142448000Y-146797714D01*
X142305142Y-147083428D02*
X142305142Y-146483428D01*
X142533714Y-146483428D01*
X142590857Y-146512000D01*
X142619428Y-146540571D01*
X142648000Y-146597714D01*
X142648000Y-146683428D01*
X142619428Y-146740571D01*
X142590857Y-146769142D01*
X142533714Y-146797714D01*
X142305142Y-146797714D01*
X143162285Y-146683428D02*
X143162285Y-147083428D01*
X143019428Y-146454857D02*
X142876571Y-146883428D01*
X143248000Y-146883428D01*
D10*
X143200380Y-145343428D02*
X143200380Y-145914857D01*
X143200380Y-145629142D02*
X142200380Y-145629142D01*
X142343238Y-145724380D01*
X142438476Y-145819619D01*
X142486095Y-145914857D01*
X142200380Y-144724380D02*
X142200380Y-144629142D01*
X142248000Y-144533904D01*
X142295619Y-144486285D01*
X142390857Y-144438666D01*
X142581333Y-144391047D01*
X142819428Y-144391047D01*
X143009904Y-144438666D01*
X143105142Y-144486285D01*
X143152761Y-144533904D01*
X143200380Y-144629142D01*
X143200380Y-144724380D01*
X143152761Y-144819619D01*
X143105142Y-144867238D01*
X143009904Y-144914857D01*
X142819428Y-144962476D01*
X142581333Y-144962476D01*
X142390857Y-144914857D01*
X142295619Y-144867238D01*
X142248000Y-144819619D01*
X142200380Y-144724380D01*
X142200380Y-143772000D02*
X142200380Y-143676761D01*
X142248000Y-143581523D01*
X142295619Y-143533904D01*
X142390857Y-143486285D01*
X142581333Y-143438666D01*
X142819428Y-143438666D01*
X143009904Y-143486285D01*
X143105142Y-143533904D01*
X143152761Y-143581523D01*
X143200380Y-143676761D01*
X143200380Y-143772000D01*
X143152761Y-143867238D01*
X143105142Y-143914857D01*
X143009904Y-143962476D01*
X142819428Y-144010095D01*
X142581333Y-144010095D01*
X142390857Y-143962476D01*
X142295619Y-143914857D01*
X142248000Y-143867238D01*
X142200380Y-143772000D01*
X143200380Y-143010095D02*
X142200380Y-143010095D01*
X142819428Y-142914857D02*
X143200380Y-142629142D01*
X142533714Y-142629142D02*
X142914666Y-143010095D01*
%TO.C,R3*%
D12*
X142648000Y-131589428D02*
X142448000Y-131303714D01*
X142305142Y-131589428D02*
X142305142Y-130989428D01*
X142533714Y-130989428D01*
X142590857Y-131018000D01*
X142619428Y-131046571D01*
X142648000Y-131103714D01*
X142648000Y-131189428D01*
X142619428Y-131246571D01*
X142590857Y-131275142D01*
X142533714Y-131303714D01*
X142305142Y-131303714D01*
X142848000Y-130989428D02*
X143219428Y-130989428D01*
X143019428Y-131218000D01*
X143105142Y-131218000D01*
X143162285Y-131246571D01*
X143190857Y-131275142D01*
X143219428Y-131332285D01*
X143219428Y-131475142D01*
X143190857Y-131532285D01*
X143162285Y-131560857D01*
X143105142Y-131589428D01*
X142933714Y-131589428D01*
X142876571Y-131560857D01*
X142848000Y-131532285D01*
D10*
X143200380Y-134929428D02*
X143200380Y-135500857D01*
X143200380Y-135215142D02*
X142200380Y-135215142D01*
X142343238Y-135310380D01*
X142438476Y-135405619D01*
X142486095Y-135500857D01*
X142200380Y-134310380D02*
X142200380Y-134215142D01*
X142248000Y-134119904D01*
X142295619Y-134072285D01*
X142390857Y-134024666D01*
X142581333Y-133977047D01*
X142819428Y-133977047D01*
X143009904Y-134024666D01*
X143105142Y-134072285D01*
X143152761Y-134119904D01*
X143200380Y-134215142D01*
X143200380Y-134310380D01*
X143152761Y-134405619D01*
X143105142Y-134453238D01*
X143009904Y-134500857D01*
X142819428Y-134548476D01*
X142581333Y-134548476D01*
X142390857Y-134500857D01*
X142295619Y-134453238D01*
X142248000Y-134405619D01*
X142200380Y-134310380D01*
X142200380Y-133358000D02*
X142200380Y-133262761D01*
X142248000Y-133167523D01*
X142295619Y-133119904D01*
X142390857Y-133072285D01*
X142581333Y-133024666D01*
X142819428Y-133024666D01*
X143009904Y-133072285D01*
X143105142Y-133119904D01*
X143152761Y-133167523D01*
X143200380Y-133262761D01*
X143200380Y-133358000D01*
X143152761Y-133453238D01*
X143105142Y-133500857D01*
X143009904Y-133548476D01*
X142819428Y-133596095D01*
X142581333Y-133596095D01*
X142390857Y-133548476D01*
X142295619Y-133500857D01*
X142248000Y-133453238D01*
X142200380Y-133358000D01*
X143200380Y-132596095D02*
X142200380Y-132596095D01*
X142819428Y-132500857D02*
X143200380Y-132215142D01*
X142533714Y-132215142D02*
X142914666Y-132596095D01*
%TO.C,R2*%
D12*
X146712000Y-95521428D02*
X146512000Y-95235714D01*
X146369142Y-95521428D02*
X146369142Y-94921428D01*
X146597714Y-94921428D01*
X146654857Y-94950000D01*
X146683428Y-94978571D01*
X146712000Y-95035714D01*
X146712000Y-95121428D01*
X146683428Y-95178571D01*
X146654857Y-95207142D01*
X146597714Y-95235714D01*
X146369142Y-95235714D01*
X146940571Y-94978571D02*
X146969142Y-94950000D01*
X147026285Y-94921428D01*
X147169142Y-94921428D01*
X147226285Y-94950000D01*
X147254857Y-94978571D01*
X147283428Y-95035714D01*
X147283428Y-95092857D01*
X147254857Y-95178571D01*
X146912000Y-95521428D01*
X147283428Y-95521428D01*
D10*
X147264380Y-93781428D02*
X147264380Y-94352857D01*
X147264380Y-94067142D02*
X146264380Y-94067142D01*
X146407238Y-94162380D01*
X146502476Y-94257619D01*
X146550095Y-94352857D01*
X146264380Y-93162380D02*
X146264380Y-93067142D01*
X146312000Y-92971904D01*
X146359619Y-92924285D01*
X146454857Y-92876666D01*
X146645333Y-92829047D01*
X146883428Y-92829047D01*
X147073904Y-92876666D01*
X147169142Y-92924285D01*
X147216761Y-92971904D01*
X147264380Y-93067142D01*
X147264380Y-93162380D01*
X147216761Y-93257619D01*
X147169142Y-93305238D01*
X147073904Y-93352857D01*
X146883428Y-93400476D01*
X146645333Y-93400476D01*
X146454857Y-93352857D01*
X146359619Y-93305238D01*
X146312000Y-93257619D01*
X146264380Y-93162380D01*
X146264380Y-92210000D02*
X146264380Y-92114761D01*
X146312000Y-92019523D01*
X146359619Y-91971904D01*
X146454857Y-91924285D01*
X146645333Y-91876666D01*
X146883428Y-91876666D01*
X147073904Y-91924285D01*
X147169142Y-91971904D01*
X147216761Y-92019523D01*
X147264380Y-92114761D01*
X147264380Y-92210000D01*
X147216761Y-92305238D01*
X147169142Y-92352857D01*
X147073904Y-92400476D01*
X146883428Y-92448095D01*
X146645333Y-92448095D01*
X146454857Y-92400476D01*
X146359619Y-92352857D01*
X146312000Y-92305238D01*
X146264380Y-92210000D01*
X147264380Y-91448095D02*
X146264380Y-91448095D01*
X146883428Y-91352857D02*
X147264380Y-91067142D01*
X146597714Y-91067142D02*
X146978666Y-91448095D01*
%TO.C,R1*%
D12*
X146204000Y-136669428D02*
X146004000Y-136383714D01*
X145861142Y-136669428D02*
X145861142Y-136069428D01*
X146089714Y-136069428D01*
X146146857Y-136098000D01*
X146175428Y-136126571D01*
X146204000Y-136183714D01*
X146204000Y-136269428D01*
X146175428Y-136326571D01*
X146146857Y-136355142D01*
X146089714Y-136383714D01*
X145861142Y-136383714D01*
X146775428Y-136669428D02*
X146432571Y-136669428D01*
X146604000Y-136669428D02*
X146604000Y-136069428D01*
X146546857Y-136155142D01*
X146489714Y-136212285D01*
X146432571Y-136240857D01*
D10*
X146756380Y-134929428D02*
X146756380Y-135500857D01*
X146756380Y-135215142D02*
X145756380Y-135215142D01*
X145899238Y-135310380D01*
X145994476Y-135405619D01*
X146042095Y-135500857D01*
X145756380Y-134310380D02*
X145756380Y-134215142D01*
X145804000Y-134119904D01*
X145851619Y-134072285D01*
X145946857Y-134024666D01*
X146137333Y-133977047D01*
X146375428Y-133977047D01*
X146565904Y-134024666D01*
X146661142Y-134072285D01*
X146708761Y-134119904D01*
X146756380Y-134215142D01*
X146756380Y-134310380D01*
X146708761Y-134405619D01*
X146661142Y-134453238D01*
X146565904Y-134500857D01*
X146375428Y-134548476D01*
X146137333Y-134548476D01*
X145946857Y-134500857D01*
X145851619Y-134453238D01*
X145804000Y-134405619D01*
X145756380Y-134310380D01*
X145756380Y-133358000D02*
X145756380Y-133262761D01*
X145804000Y-133167523D01*
X145851619Y-133119904D01*
X145946857Y-133072285D01*
X146137333Y-133024666D01*
X146375428Y-133024666D01*
X146565904Y-133072285D01*
X146661142Y-133119904D01*
X146708761Y-133167523D01*
X146756380Y-133262761D01*
X146756380Y-133358000D01*
X146708761Y-133453238D01*
X146661142Y-133500857D01*
X146565904Y-133548476D01*
X146375428Y-133596095D01*
X146137333Y-133596095D01*
X145946857Y-133548476D01*
X145851619Y-133500857D01*
X145804000Y-133453238D01*
X145756380Y-133358000D01*
X146756380Y-132596095D02*
X145756380Y-132596095D01*
X146375428Y-132500857D02*
X146756380Y-132215142D01*
X146089714Y-132215142D02*
X146470666Y-132596095D01*
%TO.C,J6*%
X162814095Y-103693428D02*
X163576000Y-103693428D01*
X163195047Y-104074380D02*
X163195047Y-103312476D01*
X164576000Y-104074380D02*
X164004571Y-104074380D01*
X164290285Y-104074380D02*
X164290285Y-103074380D01*
X164195047Y-103217238D01*
X164099809Y-103312476D01*
X164004571Y-103360095D01*
X164956952Y-103169619D02*
X165004571Y-103122000D01*
X165099809Y-103074380D01*
X165337904Y-103074380D01*
X165433142Y-103122000D01*
X165480761Y-103169619D01*
X165528380Y-103264857D01*
X165528380Y-103360095D01*
X165480761Y-103502952D01*
X164909333Y-104074380D01*
X165528380Y-104074380D01*
X165814095Y-103074380D02*
X166147428Y-104074380D01*
X166480761Y-103074380D01*
X162814095Y-79693428D02*
X163576000Y-79693428D01*
X164576000Y-80074380D02*
X164004571Y-80074380D01*
X164290285Y-80074380D02*
X164290285Y-79074380D01*
X164195047Y-79217238D01*
X164099809Y-79312476D01*
X164004571Y-79360095D01*
X164956952Y-79169619D02*
X165004571Y-79122000D01*
X165099809Y-79074380D01*
X165337904Y-79074380D01*
X165433142Y-79122000D01*
X165480761Y-79169619D01*
X165528380Y-79264857D01*
X165528380Y-79360095D01*
X165480761Y-79502952D01*
X164909333Y-80074380D01*
X165528380Y-80074380D01*
X165814095Y-79074380D02*
X166147428Y-80074380D01*
X166480761Y-79074380D01*
X161504571Y-81574380D02*
X161171238Y-81098190D01*
X160933142Y-81574380D02*
X160933142Y-80574380D01*
X161314095Y-80574380D01*
X161409333Y-80622000D01*
X161456952Y-80669619D01*
X161504571Y-80764857D01*
X161504571Y-80907714D01*
X161456952Y-81002952D01*
X161409333Y-81050571D01*
X161314095Y-81098190D01*
X160933142Y-81098190D01*
X161933142Y-81050571D02*
X162266476Y-81050571D01*
X162409333Y-81574380D02*
X161933142Y-81574380D01*
X161933142Y-80574380D01*
X162409333Y-80574380D01*
X162837904Y-81574380D02*
X162837904Y-80574380D01*
X163076000Y-80574380D01*
X163218857Y-80622000D01*
X163314095Y-80717238D01*
X163361714Y-80812476D01*
X163409333Y-81002952D01*
X163409333Y-81145809D01*
X163361714Y-81336285D01*
X163314095Y-81431523D01*
X163218857Y-81526761D01*
X163076000Y-81574380D01*
X162837904Y-81574380D01*
X164552190Y-81526761D02*
X164695047Y-81574380D01*
X164933142Y-81574380D01*
X165028380Y-81526761D01*
X165076000Y-81479142D01*
X165123619Y-81383904D01*
X165123619Y-81288666D01*
X165076000Y-81193428D01*
X165028380Y-81145809D01*
X164933142Y-81098190D01*
X164742666Y-81050571D01*
X164647428Y-81002952D01*
X164599809Y-80955333D01*
X164552190Y-80860095D01*
X164552190Y-80764857D01*
X164599809Y-80669619D01*
X164647428Y-80622000D01*
X164742666Y-80574380D01*
X164980761Y-80574380D01*
X165123619Y-80622000D01*
X165409333Y-80574380D02*
X165980761Y-80574380D01*
X165695047Y-81574380D02*
X165695047Y-80574380D01*
X166885523Y-81574380D02*
X166552190Y-81098190D01*
X166314095Y-81574380D02*
X166314095Y-80574380D01*
X166695047Y-80574380D01*
X166790285Y-80622000D01*
X166837904Y-80669619D01*
X166885523Y-80764857D01*
X166885523Y-80907714D01*
X166837904Y-81002952D01*
X166790285Y-81050571D01*
X166695047Y-81098190D01*
X166314095Y-81098190D01*
X167314095Y-81574380D02*
X167314095Y-80574380D01*
X167790285Y-81574380D02*
X167790285Y-80574380D01*
X168171238Y-80574380D01*
X168266476Y-80622000D01*
X168314095Y-80669619D01*
X168361714Y-80764857D01*
X168361714Y-80907714D01*
X168314095Y-81002952D01*
X168266476Y-81050571D01*
X168171238Y-81098190D01*
X167790285Y-81098190D01*
X168790285Y-81050571D02*
X169123619Y-81050571D01*
X169266476Y-81574380D02*
X168790285Y-81574380D01*
X168790285Y-80574380D01*
X169266476Y-80574380D01*
%TO.C,BUFFER*%
X140854571Y-122403904D02*
X140902190Y-122261047D01*
X140949809Y-122213428D01*
X141045047Y-122165809D01*
X141187904Y-122165809D01*
X141283142Y-122213428D01*
X141330761Y-122261047D01*
X141378380Y-122356285D01*
X141378380Y-122737238D01*
X140378380Y-122737238D01*
X140378380Y-122403904D01*
X140426000Y-122308666D01*
X140473619Y-122261047D01*
X140568857Y-122213428D01*
X140664095Y-122213428D01*
X140759333Y-122261047D01*
X140806952Y-122308666D01*
X140854571Y-122403904D01*
X140854571Y-122737238D01*
X140378380Y-121737238D02*
X141187904Y-121737238D01*
X141283142Y-121689619D01*
X141330761Y-121642000D01*
X141378380Y-121546761D01*
X141378380Y-121356285D01*
X141330761Y-121261047D01*
X141283142Y-121213428D01*
X141187904Y-121165809D01*
X140378380Y-121165809D01*
X140854571Y-120356285D02*
X140854571Y-120689619D01*
X141378380Y-120689619D02*
X140378380Y-120689619D01*
X140378380Y-120213428D01*
X140854571Y-119499142D02*
X140854571Y-119832476D01*
X141378380Y-119832476D02*
X140378380Y-119832476D01*
X140378380Y-119356285D01*
X140854571Y-118975333D02*
X140854571Y-118642000D01*
X141378380Y-118499142D02*
X141378380Y-118975333D01*
X140378380Y-118975333D01*
X140378380Y-118499142D01*
X141378380Y-117499142D02*
X140902190Y-117832476D01*
X141378380Y-118070571D02*
X140378380Y-118070571D01*
X140378380Y-117689619D01*
X140426000Y-117594380D01*
X140473619Y-117546761D01*
X140568857Y-117499142D01*
X140711714Y-117499142D01*
X140806952Y-117546761D01*
X140854571Y-117594380D01*
X140902190Y-117689619D01*
X140902190Y-118070571D01*
%TO.C,O +*%
X167346380Y-128095238D02*
X167346380Y-127904761D01*
X167394000Y-127809523D01*
X167489238Y-127714285D01*
X167679714Y-127666666D01*
X168013047Y-127666666D01*
X168203523Y-127714285D01*
X168298761Y-127809523D01*
X168346380Y-127904761D01*
X168346380Y-128095238D01*
X168298761Y-128190476D01*
X168203523Y-128285714D01*
X168013047Y-128333333D01*
X167679714Y-128333333D01*
X167489238Y-128285714D01*
X167394000Y-128190476D01*
X167346380Y-128095238D01*
X167965428Y-126476190D02*
X167965428Y-125714285D01*
X168346380Y-126095238D02*
X167584476Y-126095238D01*
%TO.C,O -*%
X167346380Y-124285238D02*
X167346380Y-124094761D01*
X167394000Y-123999523D01*
X167489238Y-123904285D01*
X167679714Y-123856666D01*
X168013047Y-123856666D01*
X168203523Y-123904285D01*
X168298761Y-123999523D01*
X168346380Y-124094761D01*
X168346380Y-124285238D01*
X168298761Y-124380476D01*
X168203523Y-124475714D01*
X168013047Y-124523333D01*
X167679714Y-124523333D01*
X167489238Y-124475714D01*
X167394000Y-124380476D01*
X167346380Y-124285238D01*
X167965428Y-122666190D02*
X167965428Y-121904285D01*
%TO.C,S IN*%
X141330761Y-126904571D02*
X141378380Y-126761714D01*
X141378380Y-126523619D01*
X141330761Y-126428380D01*
X141283142Y-126380761D01*
X141187904Y-126333142D01*
X141092666Y-126333142D01*
X140997428Y-126380761D01*
X140949809Y-126428380D01*
X140902190Y-126523619D01*
X140854571Y-126714095D01*
X140806952Y-126809333D01*
X140759333Y-126856952D01*
X140664095Y-126904571D01*
X140568857Y-126904571D01*
X140473619Y-126856952D01*
X140426000Y-126809333D01*
X140378380Y-126714095D01*
X140378380Y-126476000D01*
X140426000Y-126333142D01*
X141378380Y-125142666D02*
X140378380Y-125142666D01*
X141378380Y-124666476D02*
X140378380Y-124666476D01*
X141378380Y-124095047D01*
X140378380Y-124095047D01*
%TO.C,CV IN*%
X168251142Y-132833904D02*
X168298761Y-132881523D01*
X168346380Y-133024380D01*
X168346380Y-133119619D01*
X168298761Y-133262476D01*
X168203523Y-133357714D01*
X168108285Y-133405333D01*
X167917809Y-133452952D01*
X167774952Y-133452952D01*
X167584476Y-133405333D01*
X167489238Y-133357714D01*
X167394000Y-133262476D01*
X167346380Y-133119619D01*
X167346380Y-133024380D01*
X167394000Y-132881523D01*
X167441619Y-132833904D01*
X167346380Y-132548190D02*
X168346380Y-132214857D01*
X167346380Y-131881523D01*
X168346380Y-130786285D02*
X167346380Y-130786285D01*
X168346380Y-130310095D02*
X167346380Y-130310095D01*
X168346380Y-129738666D01*
X167346380Y-129738666D01*
%TO.C,C6*%
X153249333Y-155297142D02*
X153201714Y-155344761D01*
X153058857Y-155392380D01*
X152963619Y-155392380D01*
X152820761Y-155344761D01*
X152725523Y-155249523D01*
X152677904Y-155154285D01*
X152630285Y-154963809D01*
X152630285Y-154820952D01*
X152677904Y-154630476D01*
X152725523Y-154535238D01*
X152820761Y-154440000D01*
X152963619Y-154392380D01*
X153058857Y-154392380D01*
X153201714Y-154440000D01*
X153249333Y-154487619D01*
X154106476Y-154392380D02*
X153916000Y-154392380D01*
X153820761Y-154440000D01*
X153773142Y-154487619D01*
X153677904Y-154630476D01*
X153630285Y-154820952D01*
X153630285Y-155201904D01*
X153677904Y-155297142D01*
X153725523Y-155344761D01*
X153820761Y-155392380D01*
X154011238Y-155392380D01*
X154106476Y-155344761D01*
X154154095Y-155297142D01*
X154201714Y-155201904D01*
X154201714Y-154963809D01*
X154154095Y-154868571D01*
X154106476Y-154820952D01*
X154011238Y-154773333D01*
X153820761Y-154773333D01*
X153725523Y-154820952D01*
X153677904Y-154868571D01*
X153630285Y-154963809D01*
%TO.C,C5*%
X154028092Y-127857142D02*
X153980473Y-127904761D01*
X153837616Y-127952380D01*
X153742378Y-127952380D01*
X153599520Y-127904761D01*
X153504282Y-127809523D01*
X153456663Y-127714285D01*
X153409044Y-127523809D01*
X153409044Y-127380952D01*
X153456663Y-127190476D01*
X153504282Y-127095238D01*
X153599520Y-127000000D01*
X153742378Y-126952380D01*
X153837616Y-126952380D01*
X153980473Y-127000000D01*
X154028092Y-127047619D01*
X154932854Y-126952380D02*
X154456663Y-126952380D01*
X154409044Y-127428571D01*
X154456663Y-127380952D01*
X154551901Y-127333333D01*
X154789997Y-127333333D01*
X154885235Y-127380952D01*
X154932854Y-127428571D01*
X154980473Y-127523809D01*
X154980473Y-127761904D01*
X154932854Y-127857142D01*
X154885235Y-127904761D01*
X154789997Y-127952380D01*
X154551901Y-127952380D01*
X154456663Y-127904761D01*
X154409044Y-127857142D01*
%TO.C,C4*%
X154011333Y-100941142D02*
X153963714Y-100988761D01*
X153820857Y-101036380D01*
X153725619Y-101036380D01*
X153582761Y-100988761D01*
X153487523Y-100893523D01*
X153439904Y-100798285D01*
X153392285Y-100607809D01*
X153392285Y-100464952D01*
X153439904Y-100274476D01*
X153487523Y-100179238D01*
X153582761Y-100084000D01*
X153725619Y-100036380D01*
X153820857Y-100036380D01*
X153963714Y-100084000D01*
X154011333Y-100131619D01*
X154868476Y-100369714D02*
X154868476Y-101036380D01*
X154630380Y-99988761D02*
X154392285Y-100703047D01*
X155011333Y-100703047D01*
%TO.C,C3*%
X154011333Y-84685142D02*
X153963714Y-84732761D01*
X153820857Y-84780380D01*
X153725619Y-84780380D01*
X153582761Y-84732761D01*
X153487523Y-84637523D01*
X153439904Y-84542285D01*
X153392285Y-84351809D01*
X153392285Y-84208952D01*
X153439904Y-84018476D01*
X153487523Y-83923238D01*
X153582761Y-83828000D01*
X153725619Y-83780380D01*
X153820857Y-83780380D01*
X153963714Y-83828000D01*
X154011333Y-83875619D01*
X154344666Y-83780380D02*
X154963714Y-83780380D01*
X154630380Y-84161333D01*
X154773238Y-84161333D01*
X154868476Y-84208952D01*
X154916095Y-84256571D01*
X154963714Y-84351809D01*
X154963714Y-84589904D01*
X154916095Y-84685142D01*
X154868476Y-84732761D01*
X154773238Y-84780380D01*
X154487523Y-84780380D01*
X154392285Y-84732761D01*
X154344666Y-84685142D01*
%TO.C,C2*%
X161819142Y-74100666D02*
X161866761Y-74148285D01*
X161914380Y-74291142D01*
X161914380Y-74386380D01*
X161866761Y-74529238D01*
X161771523Y-74624476D01*
X161676285Y-74672095D01*
X161485809Y-74719714D01*
X161342952Y-74719714D01*
X161152476Y-74672095D01*
X161057238Y-74624476D01*
X160962000Y-74529238D01*
X160914380Y-74386380D01*
X160914380Y-74291142D01*
X160962000Y-74148285D01*
X161009619Y-74100666D01*
X161009619Y-73719714D02*
X160962000Y-73672095D01*
X160914380Y-73576857D01*
X160914380Y-73338761D01*
X160962000Y-73243523D01*
X161009619Y-73195904D01*
X161104857Y-73148285D01*
X161200095Y-73148285D01*
X161342952Y-73195904D01*
X161914380Y-73767333D01*
X161914380Y-73148285D01*
%TO.C,C1*%
X161819142Y-110168666D02*
X161866761Y-110216285D01*
X161914380Y-110359142D01*
X161914380Y-110454380D01*
X161866761Y-110597238D01*
X161771523Y-110692476D01*
X161676285Y-110740095D01*
X161485809Y-110787714D01*
X161342952Y-110787714D01*
X161152476Y-110740095D01*
X161057238Y-110692476D01*
X160962000Y-110597238D01*
X160914380Y-110454380D01*
X160914380Y-110359142D01*
X160962000Y-110216285D01*
X161009619Y-110168666D01*
X161914380Y-109216285D02*
X161914380Y-109787714D01*
X161914380Y-109502000D02*
X160914380Y-109502000D01*
X161057238Y-109597238D01*
X161152476Y-109692476D01*
X161200095Y-109787714D01*
%TD*%
M02*
