%TF.GenerationSoftware,KiCad,Pcbnew,(5.1.9)-1*%
%TF.CreationDate,2021-05-29T21:38:12+01:00*%
%TF.ProjectId,KosmicSuperspreader,4b6f736d-6963-4537-9570-657273707265,rev?*%
%TF.SameCoordinates,Original*%
%TF.FileFunction,Copper,L2,Bot*%
%TF.FilePolarity,Positive*%
%FSLAX46Y46*%
G04 Gerber Fmt 4.6, Leading zero omitted, Abs format (unit mm)*
G04 Created by KiCad (PCBNEW (5.1.9)-1) date 2021-05-29 21:38:12*
%MOMM*%
%LPD*%
G01*
G04 APERTURE LIST*
%TA.AperFunction,ComponentPad*%
%ADD10O,2.400000X1.600000*%
%TD*%
%TA.AperFunction,ComponentPad*%
%ADD11R,2.400000X1.600000*%
%TD*%
%TA.AperFunction,ComponentPad*%
%ADD12C,3.240000*%
%TD*%
%TA.AperFunction,ComponentPad*%
%ADD13C,1.800000*%
%TD*%
%TA.AperFunction,ComponentPad*%
%ADD14R,1.800000X1.800000*%
%TD*%
%TA.AperFunction,ComponentPad*%
%ADD15O,1.600000X1.600000*%
%TD*%
%TA.AperFunction,ComponentPad*%
%ADD16C,1.600000*%
%TD*%
%TA.AperFunction,ComponentPad*%
%ADD17R,1.727200X1.727200*%
%TD*%
%TA.AperFunction,ComponentPad*%
%ADD18O,1.727200X1.727200*%
%TD*%
%TA.AperFunction,ComponentPad*%
%ADD19O,1.700000X1.700000*%
%TD*%
%TA.AperFunction,ComponentPad*%
%ADD20R,1.700000X1.700000*%
%TD*%
%TA.AperFunction,ComponentPad*%
%ADD21R,1.600000X1.600000*%
%TD*%
%TA.AperFunction,ViaPad*%
%ADD22C,0.800000*%
%TD*%
%TA.AperFunction,Conductor*%
%ADD23C,0.250000*%
%TD*%
%TA.AperFunction,Conductor*%
%ADD24C,0.254000*%
%TD*%
%TA.AperFunction,Conductor*%
%ADD25C,0.100000*%
%TD*%
G04 APERTURE END LIST*
D10*
%TO.P,U2,14*%
%TO.N,OUTMINUS*%
X157734000Y-135382000D03*
%TO.P,U2,7*%
%TO.N,Net-(R10-Pad1)*%
X150114000Y-150622000D03*
%TO.P,U2,13*%
%TO.N,Net-(R7-Pad1)*%
X157734000Y-137922000D03*
%TO.P,U2,6*%
%TO.N,Net-(R10-Pad2)*%
X150114000Y-148082000D03*
%TO.P,U2,12*%
%TO.N,Net-(R6-Pad1)*%
X157734000Y-140462000D03*
%TO.P,U2,5*%
%TO.N,GND*%
X150114000Y-145542000D03*
%TO.P,U2,11*%
%TO.N,-12V*%
X157734000Y-143002000D03*
%TO.P,U2,4*%
%TO.N,+12V*%
X150114000Y-143002000D03*
%TO.P,U2,10*%
%TO.N,GND*%
X157734000Y-145542000D03*
%TO.P,U2,3*%
X150114000Y-140462000D03*
%TO.P,U2,9*%
%TO.N,Net-(R11-Pad1)*%
X157734000Y-148082000D03*
%TO.P,U2,2*%
%TO.N,Net-(R1-Pad1)*%
X150114000Y-137922000D03*
%TO.P,U2,8*%
%TO.N,OUTPLUS*%
X157734000Y-150622000D03*
D11*
%TO.P,U2,1*%
%TO.N,Net-(R3-Pad1)*%
X150114000Y-135382000D03*
%TD*%
D10*
%TO.P,U1,8*%
%TO.N,+12V*%
X158242000Y-88900000D03*
%TO.P,U1,4*%
%TO.N,-12V*%
X150622000Y-96520000D03*
%TO.P,U1,7*%
%TO.N,Net-(U1-Pad6)*%
X158242000Y-91440000D03*
%TO.P,U1,3*%
%TO.N,INPUT*%
X150622000Y-93980000D03*
%TO.P,U1,6*%
%TO.N,Net-(U1-Pad6)*%
X158242000Y-93980000D03*
%TO.P,U1,2*%
%TO.N,OUTPUT*%
X150622000Y-91440000D03*
%TO.P,U1,5*%
%TO.N,GND*%
X158242000Y-96520000D03*
D11*
%TO.P,U1,1*%
%TO.N,OUTPUT*%
X150622000Y-88900000D03*
%TD*%
D12*
%TO.P,SPREAD,*%
%TO.N,*%
X156972000Y-77470000D03*
X156972000Y-67870000D03*
D13*
%TO.P,SPREAD,3*%
%TO.N,-12V*%
X149472000Y-70170000D03*
%TO.P,SPREAD,2*%
%TO.N,Net-(R2-Pad2)*%
X149472000Y-72670000D03*
D14*
%TO.P,SPREAD,1*%
%TO.N,+12V*%
X149472000Y-75170000D03*
%TD*%
D12*
%TO.P,RV1,*%
%TO.N,*%
X156852000Y-117870000D03*
X156852000Y-108270000D03*
D13*
%TO.P,RV1,3*%
%TO.N,GND*%
X149352000Y-110570000D03*
%TO.P,RV1,2*%
%TO.N,Net-(R1-Pad2)*%
X149352000Y-113070000D03*
D14*
%TO.P,RV1,1*%
%TO.N,SPREAD*%
X149352000Y-115570000D03*
%TD*%
D15*
%TO.P,R12,2*%
%TO.N,Net-(R11-Pad1)*%
X161798000Y-146812000D03*
D16*
%TO.P,R12,1*%
%TO.N,OUTPLUS*%
X161798000Y-154432000D03*
%TD*%
D15*
%TO.P,R11,2*%
%TO.N,Net-(R10-Pad1)*%
X165354000Y-154432000D03*
D16*
%TO.P,R11,1*%
%TO.N,Net-(R11-Pad1)*%
X165354000Y-146812000D03*
%TD*%
D15*
%TO.P,R10,2*%
%TO.N,Net-(R10-Pad2)*%
X146304000Y-150622000D03*
D16*
%TO.P,R10,1*%
%TO.N,Net-(R10-Pad1)*%
X146304000Y-158242000D03*
%TD*%
D15*
%TO.P,R9,2*%
%TO.N,Net-(R7-Pad1)*%
X158750000Y-125984000D03*
D16*
%TO.P,R9,1*%
%TO.N,OUTMINUS*%
X151130000Y-125984000D03*
%TD*%
D15*
%TO.P,R8,2*%
%TO.N,GND*%
X151130000Y-122428000D03*
D16*
%TO.P,R8,1*%
%TO.N,Net-(R6-Pad1)*%
X158750000Y-122428000D03*
%TD*%
D15*
%TO.P,R7,2*%
%TO.N,Net-(R3-Pad1)*%
X146304000Y-148082000D03*
D16*
%TO.P,R7,1*%
%TO.N,Net-(R7-Pad1)*%
X146304000Y-140462000D03*
%TD*%
D15*
%TO.P,R6,2*%
%TO.N,INPUT*%
X161798000Y-144272000D03*
D16*
%TO.P,R6,1*%
%TO.N,Net-(R6-Pad1)*%
X161798000Y-136652000D03*
%TD*%
D15*
%TO.P,R5,2*%
%TO.N,INPUT*%
X165354000Y-144272000D03*
D16*
%TO.P,R5,1*%
%TO.N,Net-(R10-Pad2)*%
X165354000Y-136652000D03*
%TD*%
D15*
%TO.P,R4,2*%
%TO.N,Net-(R3-Pad1)*%
X142748000Y-140462000D03*
D16*
%TO.P,R4,1*%
%TO.N,Net-(R10-Pad2)*%
X142748000Y-148082000D03*
%TD*%
D15*
%TO.P,R3,2*%
%TO.N,Net-(R1-Pad1)*%
X142748000Y-137668000D03*
D16*
%TO.P,R3,1*%
%TO.N,Net-(R3-Pad1)*%
X142748000Y-130048000D03*
%TD*%
D15*
%TO.P,R2,2*%
%TO.N,Net-(R2-Pad2)*%
X146812000Y-88900000D03*
D16*
%TO.P,R2,1*%
%TO.N,Net-(R1-Pad1)*%
X146812000Y-96520000D03*
%TD*%
D15*
%TO.P,R1,2*%
%TO.N,Net-(R1-Pad2)*%
X146304000Y-130048000D03*
D16*
%TO.P,R1,1*%
%TO.N,Net-(R1-Pad1)*%
X146304000Y-137668000D03*
%TD*%
D17*
%TO.P,J6,1*%
%TO.N,-12V*%
X163576000Y-87122000D03*
D18*
%TO.P,J6,2*%
X166116000Y-87122000D03*
%TO.P,J6,3*%
%TO.N,GND*%
X163576000Y-89662000D03*
%TO.P,J6,4*%
X166116000Y-89662000D03*
%TO.P,J6,5*%
X163576000Y-92202000D03*
%TO.P,J6,6*%
X166116000Y-92202000D03*
%TO.P,J6,7*%
X163576000Y-94742000D03*
%TO.P,J6,8*%
X166116000Y-94742000D03*
%TO.P,J6,9*%
%TO.N,+12V*%
X163576000Y-97282000D03*
%TO.P,J6,10*%
X166116000Y-97282000D03*
%TD*%
D19*
%TO.P,BUFFER,2*%
%TO.N,GND*%
X145796000Y-120142000D03*
D20*
%TO.P,BUFFER,1*%
%TO.N,OUTPUT*%
X143256000Y-120142000D03*
%TD*%
D19*
%TO.P,O +,2*%
%TO.N,GND*%
X165354000Y-127000000D03*
D20*
%TO.P,O +,1*%
%TO.N,OUTPLUS*%
X162814000Y-127000000D03*
%TD*%
D19*
%TO.P,O -,2*%
%TO.N,GND*%
X165354000Y-122682000D03*
D20*
%TO.P,O -,1*%
%TO.N,OUTMINUS*%
X162814000Y-122682000D03*
%TD*%
D19*
%TO.P,S IN,2*%
%TO.N,GND*%
X145796000Y-125476000D03*
D20*
%TO.P,S IN,1*%
%TO.N,SPREAD*%
X143256000Y-125476000D03*
%TD*%
D19*
%TO.P,CV IN,2*%
%TO.N,GND*%
X165354000Y-131318000D03*
D20*
%TO.P,CV IN,1*%
%TO.N,INPUT*%
X162814000Y-131318000D03*
%TD*%
D16*
%TO.P,C6,2*%
%TO.N,GND*%
X156384000Y-155194000D03*
%TO.P,C6,1*%
%TO.N,-12V*%
X151384000Y-155194000D03*
%TD*%
%TO.P,C5,2*%
%TO.N,GND*%
X156694759Y-130950000D03*
%TO.P,C5,1*%
%TO.N,+12V*%
X151694759Y-130950000D03*
%TD*%
%TO.P,C4,2*%
%TO.N,GND*%
X156972000Y-100584000D03*
%TO.P,C4,1*%
%TO.N,-12V*%
X151972000Y-100584000D03*
%TD*%
%TO.P,C3,2*%
%TO.N,GND*%
X156972000Y-84836000D03*
%TO.P,C3,1*%
%TO.N,+12V*%
X151972000Y-84836000D03*
%TD*%
%TO.P,C2,2*%
%TO.N,-12V*%
X165862000Y-72684000D03*
D21*
%TO.P,C2,1*%
%TO.N,GND*%
X165862000Y-75184000D03*
%TD*%
D16*
%TO.P,C1,2*%
%TO.N,GND*%
X165862000Y-108752000D03*
D21*
%TO.P,C1,1*%
%TO.N,+12V*%
X165862000Y-111252000D03*
%TD*%
D22*
%TO.N,GND*%
X156210000Y-120904000D03*
X161798000Y-120650000D03*
X156210000Y-125222000D03*
%TD*%
D23*
%TO.N,GND*%
X161544000Y-120904000D02*
X161798000Y-120650000D01*
X156210000Y-120904000D02*
X161544000Y-120904000D01*
X156210000Y-120904000D02*
X156210000Y-125222000D01*
%TO.N,INPUT*%
X165354000Y-144272000D02*
X161798000Y-144272000D01*
X162923001Y-131427001D02*
X162814000Y-131318000D01*
X162923001Y-143146999D02*
X162923001Y-131427001D01*
X161798000Y-144272000D02*
X162923001Y-143146999D01*
X152033002Y-93980000D02*
X150622000Y-93980000D01*
X163989001Y-105935999D02*
X152033002Y-93980000D01*
X163989001Y-123792001D02*
X163989001Y-105935999D01*
X163924001Y-123857001D02*
X163989001Y-123792001D01*
X161703999Y-123857001D02*
X163924001Y-123857001D01*
X161638999Y-123922001D02*
X161703999Y-123857001D01*
X161638999Y-130142999D02*
X161638999Y-123922001D01*
X162814000Y-131318000D02*
X161638999Y-130142999D01*
%TO.N,SPREAD*%
X149352000Y-119380000D02*
X149352000Y-115570000D01*
X143256000Y-125476000D02*
X149352000Y-119380000D01*
%TO.N,OUTMINUS*%
X156859002Y-125984000D02*
X151130000Y-125984000D01*
X160161002Y-122682000D02*
X156859002Y-125984000D01*
X162814000Y-122682000D02*
X160161002Y-122682000D01*
X157734000Y-133719370D02*
X157734000Y-135382000D01*
X151130000Y-127115370D02*
X157734000Y-133719370D01*
X151130000Y-125984000D02*
X151130000Y-127115370D01*
%TO.N,OUTPLUS*%
X157988000Y-150622000D02*
X157734000Y-150622000D01*
X161798000Y-154432000D02*
X157988000Y-150622000D01*
X166479001Y-149750999D02*
X161798000Y-154432000D01*
X166479001Y-143731999D02*
X166479001Y-149750999D01*
X163989001Y-129275001D02*
X163989001Y-141241999D01*
X163989001Y-141241999D02*
X166479001Y-143731999D01*
X162814000Y-128100000D02*
X163989001Y-129275001D01*
X162814000Y-127000000D02*
X162814000Y-128100000D01*
%TO.N,OUTPUT*%
X147937001Y-94124999D02*
X150622000Y-91440000D01*
X147937001Y-115460999D02*
X147937001Y-94124999D01*
X143256000Y-120142000D02*
X147937001Y-115460999D01*
X150622000Y-91440000D02*
X150622000Y-88900000D01*
%TO.N,Net-(R1-Pad2)*%
X150577001Y-116730001D02*
X150577001Y-114295001D01*
X150577001Y-114295001D02*
X149352000Y-113070000D01*
X149802009Y-117504993D02*
X150577001Y-116730001D01*
X149802009Y-126549991D02*
X149802009Y-117504993D01*
X146304000Y-130048000D02*
X149802009Y-126549991D01*
%TO.N,Net-(R1-Pad1)*%
X141622999Y-136542999D02*
X142748000Y-137668000D01*
X141622999Y-129507999D02*
X141622999Y-136542999D01*
X146445002Y-132080000D02*
X143288001Y-128922999D01*
X149397002Y-132080000D02*
X146445002Y-132080000D01*
X142207999Y-128922999D02*
X141622999Y-129507999D01*
X151639001Y-134321999D02*
X149397002Y-132080000D01*
X143288001Y-128922999D02*
X142207999Y-128922999D01*
X151639001Y-137846999D02*
X151639001Y-134321999D01*
X151564000Y-137922000D02*
X151639001Y-137846999D01*
X150114000Y-137922000D02*
X151564000Y-137922000D01*
X146304000Y-137668000D02*
X142748000Y-137668000D01*
X142080999Y-127715997D02*
X142080999Y-101251001D01*
X142080999Y-101251001D02*
X146812000Y-96520000D01*
X143288001Y-128922999D02*
X142080999Y-127715997D01*
%TO.N,Net-(R2-Pad2)*%
X149472000Y-72784998D02*
X149472000Y-72670000D01*
X146812000Y-75444998D02*
X149472000Y-72784998D01*
X146812000Y-88900000D02*
X146812000Y-75444998D01*
%TO.N,Net-(R3-Pad1)*%
X142748000Y-144526000D02*
X142748000Y-140462000D01*
X146304000Y-148082000D02*
X142748000Y-144526000D01*
X150114000Y-135523002D02*
X150114000Y-135382000D01*
X146300003Y-139336999D02*
X150114000Y-135523002D01*
X143873001Y-139336999D02*
X146300003Y-139336999D01*
X142748000Y-140462000D02*
X143873001Y-139336999D01*
X148082000Y-135382000D02*
X150114000Y-135382000D01*
X142748000Y-130048000D02*
X148082000Y-135382000D01*
%TO.N,Net-(R10-Pad2)*%
X143764000Y-148082000D02*
X142748000Y-148082000D01*
X146304000Y-150622000D02*
X143764000Y-148082000D01*
X145178999Y-151747001D02*
X146304000Y-150622000D01*
X145178999Y-158782001D02*
X145178999Y-151747001D01*
X145763999Y-159367001D02*
X145178999Y-158782001D01*
X162084001Y-159367001D02*
X145763999Y-159367001D01*
X166929010Y-154521992D02*
X162084001Y-159367001D01*
X166929010Y-138227010D02*
X166929010Y-154521992D01*
X165354000Y-136652000D02*
X166929010Y-138227010D01*
X148844000Y-148082000D02*
X146304000Y-150622000D01*
X150114000Y-148082000D02*
X148844000Y-148082000D01*
%TO.N,Net-(R6-Pad1)*%
X157988000Y-140462000D02*
X157734000Y-140462000D01*
X161798000Y-136652000D02*
X157988000Y-140462000D01*
%TO.N,Net-(R7-Pad1)*%
X147718990Y-139047010D02*
X146304000Y-140462000D01*
X156608990Y-139047010D02*
X147718990Y-139047010D01*
X157734000Y-137922000D02*
X156608990Y-139047010D01*
X159549999Y-136106001D02*
X157734000Y-137922000D01*
X159549999Y-126783999D02*
X159549999Y-136106001D01*
X158750000Y-125984000D02*
X159549999Y-126783999D01*
%TO.N,Net-(R10-Pad1)*%
X146304000Y-154432000D02*
X150114000Y-150622000D01*
X146304000Y-158242000D02*
X146304000Y-154432000D01*
X158412003Y-155557001D02*
X153477002Y-150622000D01*
X164228999Y-155557001D02*
X158412003Y-155557001D01*
X153477002Y-150622000D02*
X150114000Y-150622000D01*
X165354000Y-154432000D02*
X164228999Y-155557001D01*
%TO.N,Net-(R11-Pad1)*%
X165354000Y-146812000D02*
X161798000Y-146812000D01*
X159004000Y-146812000D02*
X157734000Y-148082000D01*
X161798000Y-146812000D02*
X159004000Y-146812000D01*
%TO.N,Net-(U1-Pad6)*%
X158242000Y-93980000D02*
X158242000Y-91440000D01*
%TD*%
D24*
%TO.N,GND*%
X156314241Y-65701658D02*
X155903857Y-65871645D01*
X155534521Y-66118427D01*
X155220427Y-66432521D01*
X154973645Y-66801857D01*
X154803658Y-67212241D01*
X154717000Y-67647902D01*
X154717000Y-68092098D01*
X154803658Y-68527759D01*
X154973645Y-68938143D01*
X155220427Y-69307479D01*
X155534521Y-69621573D01*
X155903857Y-69868355D01*
X156314241Y-70038342D01*
X156749902Y-70125000D01*
X157194098Y-70125000D01*
X157629759Y-70038342D01*
X158040143Y-69868355D01*
X158409479Y-69621573D01*
X158723573Y-69307479D01*
X158970355Y-68938143D01*
X159140342Y-68527759D01*
X159227000Y-68092098D01*
X159227000Y-67647902D01*
X159140342Y-67212241D01*
X158970355Y-66801857D01*
X158723573Y-66432521D01*
X158409479Y-66118427D01*
X158040143Y-65871645D01*
X157629759Y-65701658D01*
X157546013Y-65685000D01*
X169315000Y-65685000D01*
X169315001Y-159315000D01*
X163210803Y-159315000D01*
X167440018Y-155085787D01*
X167469011Y-155061993D01*
X167492805Y-155033000D01*
X167492809Y-155032996D01*
X167563983Y-154946269D01*
X167612086Y-154856276D01*
X167634556Y-154814239D01*
X167678013Y-154670978D01*
X167689010Y-154559325D01*
X167689010Y-154559316D01*
X167692686Y-154521993D01*
X167689010Y-154484670D01*
X167689010Y-138264343D01*
X167692687Y-138227010D01*
X167678013Y-138078024D01*
X167634556Y-137934763D01*
X167563984Y-137802734D01*
X167492809Y-137716007D01*
X167469011Y-137687009D01*
X167440014Y-137663212D01*
X166752688Y-136975886D01*
X166789000Y-136793335D01*
X166789000Y-136510665D01*
X166733853Y-136233426D01*
X166625680Y-135972273D01*
X166468637Y-135737241D01*
X166268759Y-135537363D01*
X166033727Y-135380320D01*
X165772574Y-135272147D01*
X165495335Y-135217000D01*
X165212665Y-135217000D01*
X164935426Y-135272147D01*
X164749001Y-135349367D01*
X164749001Y-132666765D01*
X164849901Y-132714825D01*
X164997110Y-132759476D01*
X165227000Y-132638155D01*
X165227000Y-131445000D01*
X165481000Y-131445000D01*
X165481000Y-132638155D01*
X165710890Y-132759476D01*
X165858099Y-132714825D01*
X166120920Y-132589641D01*
X166354269Y-132415588D01*
X166549178Y-132199355D01*
X166698157Y-131949252D01*
X166795481Y-131674891D01*
X166674814Y-131445000D01*
X165481000Y-131445000D01*
X165227000Y-131445000D01*
X165207000Y-131445000D01*
X165207000Y-131191000D01*
X165227000Y-131191000D01*
X165227000Y-129997845D01*
X165481000Y-129997845D01*
X165481000Y-131191000D01*
X166674814Y-131191000D01*
X166795481Y-130961109D01*
X166698157Y-130686748D01*
X166549178Y-130436645D01*
X166354269Y-130220412D01*
X166120920Y-130046359D01*
X165858099Y-129921175D01*
X165710890Y-129876524D01*
X165481000Y-129997845D01*
X165227000Y-129997845D01*
X164997110Y-129876524D01*
X164849901Y-129921175D01*
X164749001Y-129969235D01*
X164749001Y-129312323D01*
X164752677Y-129275000D01*
X164749001Y-129237677D01*
X164749001Y-129237668D01*
X164738004Y-129126015D01*
X164694547Y-128982754D01*
X164623975Y-128850725D01*
X164529002Y-128735000D01*
X164500005Y-128711203D01*
X164101345Y-128312543D01*
X164115185Y-128301185D01*
X164194537Y-128204494D01*
X164253502Y-128094180D01*
X164277966Y-128013534D01*
X164353731Y-128097588D01*
X164587080Y-128271641D01*
X164849901Y-128396825D01*
X164997110Y-128441476D01*
X165227000Y-128320155D01*
X165227000Y-127127000D01*
X165481000Y-127127000D01*
X165481000Y-128320155D01*
X165710890Y-128441476D01*
X165858099Y-128396825D01*
X166120920Y-128271641D01*
X166354269Y-128097588D01*
X166549178Y-127881355D01*
X166698157Y-127631252D01*
X166795481Y-127356891D01*
X166674814Y-127127000D01*
X165481000Y-127127000D01*
X165227000Y-127127000D01*
X165207000Y-127127000D01*
X165207000Y-126873000D01*
X165227000Y-126873000D01*
X165227000Y-125679845D01*
X165481000Y-125679845D01*
X165481000Y-126873000D01*
X166674814Y-126873000D01*
X166795481Y-126643109D01*
X166698157Y-126368748D01*
X166549178Y-126118645D01*
X166354269Y-125902412D01*
X166120920Y-125728359D01*
X165858099Y-125603175D01*
X165710890Y-125558524D01*
X165481000Y-125679845D01*
X165227000Y-125679845D01*
X164997110Y-125558524D01*
X164849901Y-125603175D01*
X164587080Y-125728359D01*
X164353731Y-125902412D01*
X164277966Y-125986466D01*
X164253502Y-125905820D01*
X164194537Y-125795506D01*
X164115185Y-125698815D01*
X164018494Y-125619463D01*
X163908180Y-125560498D01*
X163788482Y-125524188D01*
X163664000Y-125511928D01*
X162398999Y-125511928D01*
X162398999Y-124617001D01*
X163886679Y-124617001D01*
X163924001Y-124620677D01*
X163961323Y-124617001D01*
X163961334Y-124617001D01*
X164072987Y-124606004D01*
X164216248Y-124562547D01*
X164348277Y-124491975D01*
X164464002Y-124397002D01*
X164487805Y-124367998D01*
X164499999Y-124355804D01*
X164529002Y-124332002D01*
X164623975Y-124216277D01*
X164694547Y-124084248D01*
X164715597Y-124014855D01*
X164849901Y-124078825D01*
X164997110Y-124123476D01*
X165227000Y-124002155D01*
X165227000Y-122809000D01*
X165481000Y-122809000D01*
X165481000Y-124002155D01*
X165710890Y-124123476D01*
X165858099Y-124078825D01*
X166120920Y-123953641D01*
X166354269Y-123779588D01*
X166549178Y-123563355D01*
X166698157Y-123313252D01*
X166795481Y-123038891D01*
X166674814Y-122809000D01*
X165481000Y-122809000D01*
X165227000Y-122809000D01*
X165207000Y-122809000D01*
X165207000Y-122555000D01*
X165227000Y-122555000D01*
X165227000Y-121361845D01*
X165481000Y-121361845D01*
X165481000Y-122555000D01*
X166674814Y-122555000D01*
X166795481Y-122325109D01*
X166698157Y-122050748D01*
X166549178Y-121800645D01*
X166354269Y-121584412D01*
X166120920Y-121410359D01*
X165858099Y-121285175D01*
X165710890Y-121240524D01*
X165481000Y-121361845D01*
X165227000Y-121361845D01*
X164997110Y-121240524D01*
X164849901Y-121285175D01*
X164749001Y-121333235D01*
X164749001Y-112604717D01*
X164817820Y-112641502D01*
X164937518Y-112677812D01*
X165062000Y-112690072D01*
X166662000Y-112690072D01*
X166786482Y-112677812D01*
X166906180Y-112641502D01*
X167016494Y-112582537D01*
X167113185Y-112503185D01*
X167192537Y-112406494D01*
X167251502Y-112296180D01*
X167287812Y-112176482D01*
X167300072Y-112052000D01*
X167300072Y-110452000D01*
X167287812Y-110327518D01*
X167251502Y-110207820D01*
X167192537Y-110097506D01*
X167113185Y-110000815D01*
X167016494Y-109921463D01*
X166906180Y-109862498D01*
X166786482Y-109826188D01*
X166662000Y-109813928D01*
X166654785Y-109813928D01*
X166675097Y-109744702D01*
X165862000Y-108931605D01*
X165048903Y-109744702D01*
X165069215Y-109813928D01*
X165062000Y-109813928D01*
X164937518Y-109826188D01*
X164817820Y-109862498D01*
X164749001Y-109899283D01*
X164749001Y-109529801D01*
X164869298Y-109565097D01*
X165682395Y-108752000D01*
X166041605Y-108752000D01*
X166854702Y-109565097D01*
X167098671Y-109493514D01*
X167219571Y-109238004D01*
X167288300Y-108963816D01*
X167302217Y-108681488D01*
X167260787Y-108401870D01*
X167165603Y-108135708D01*
X167098671Y-108010486D01*
X166854702Y-107938903D01*
X166041605Y-108752000D01*
X165682395Y-108752000D01*
X164869298Y-107938903D01*
X164749001Y-107974199D01*
X164749001Y-107759298D01*
X165048903Y-107759298D01*
X165862000Y-108572395D01*
X166675097Y-107759298D01*
X166603514Y-107515329D01*
X166348004Y-107394429D01*
X166073816Y-107325700D01*
X165791488Y-107311783D01*
X165511870Y-107353213D01*
X165245708Y-107448397D01*
X165120486Y-107515329D01*
X165048903Y-107759298D01*
X164749001Y-107759298D01*
X164749001Y-105973322D01*
X164752677Y-105935999D01*
X164749001Y-105898676D01*
X164749001Y-105898666D01*
X164738004Y-105787013D01*
X164694547Y-105643752D01*
X164623975Y-105511722D01*
X164552800Y-105424996D01*
X164529002Y-105395998D01*
X164500004Y-105372200D01*
X155996843Y-96869039D01*
X156450096Y-96869039D01*
X156467633Y-96951818D01*
X156578285Y-97211646D01*
X156737500Y-97444895D01*
X156939161Y-97642601D01*
X157175517Y-97797166D01*
X157437486Y-97902650D01*
X157715000Y-97955000D01*
X158115000Y-97955000D01*
X158115000Y-96647000D01*
X158369000Y-96647000D01*
X158369000Y-97955000D01*
X158769000Y-97955000D01*
X159046514Y-97902650D01*
X159308483Y-97797166D01*
X159544839Y-97642601D01*
X159746500Y-97444895D01*
X159905715Y-97211646D01*
X159938611Y-97134401D01*
X162077400Y-97134401D01*
X162077400Y-97429599D01*
X162134990Y-97719125D01*
X162247958Y-97991853D01*
X162411961Y-98237302D01*
X162620698Y-98446039D01*
X162866147Y-98610042D01*
X163138875Y-98723010D01*
X163428401Y-98780600D01*
X163723599Y-98780600D01*
X164013125Y-98723010D01*
X164285853Y-98610042D01*
X164531302Y-98446039D01*
X164740039Y-98237302D01*
X164846000Y-98078719D01*
X164951961Y-98237302D01*
X165160698Y-98446039D01*
X165406147Y-98610042D01*
X165678875Y-98723010D01*
X165968401Y-98780600D01*
X166263599Y-98780600D01*
X166553125Y-98723010D01*
X166825853Y-98610042D01*
X167071302Y-98446039D01*
X167280039Y-98237302D01*
X167444042Y-97991853D01*
X167557010Y-97719125D01*
X167614600Y-97429599D01*
X167614600Y-97134401D01*
X167557010Y-96844875D01*
X167444042Y-96572147D01*
X167280039Y-96326698D01*
X167071302Y-96117961D01*
X166905897Y-96007441D01*
X167004488Y-95948817D01*
X167222854Y-95752293D01*
X167398684Y-95516944D01*
X167525222Y-95251814D01*
X167570958Y-95101026D01*
X167449817Y-94869000D01*
X166243000Y-94869000D01*
X166243000Y-94889000D01*
X165989000Y-94889000D01*
X165989000Y-94869000D01*
X163703000Y-94869000D01*
X163703000Y-94889000D01*
X163449000Y-94889000D01*
X163449000Y-94869000D01*
X162242183Y-94869000D01*
X162121042Y-95101026D01*
X162166778Y-95251814D01*
X162293316Y-95516944D01*
X162469146Y-95752293D01*
X162687512Y-95948817D01*
X162786103Y-96007441D01*
X162620698Y-96117961D01*
X162411961Y-96326698D01*
X162247958Y-96572147D01*
X162134990Y-96844875D01*
X162077400Y-97134401D01*
X159938611Y-97134401D01*
X160016367Y-96951818D01*
X160033904Y-96869039D01*
X159911915Y-96647000D01*
X158369000Y-96647000D01*
X158115000Y-96647000D01*
X156572085Y-96647000D01*
X156450096Y-96869039D01*
X155996843Y-96869039D01*
X152596806Y-93469003D01*
X152573003Y-93439999D01*
X152457278Y-93345026D01*
X152325249Y-93274454D01*
X152261704Y-93255178D01*
X152220932Y-93178899D01*
X152041608Y-92960392D01*
X151823101Y-92781068D01*
X151690142Y-92710000D01*
X151823101Y-92638932D01*
X152041608Y-92459608D01*
X152220932Y-92241101D01*
X152354182Y-91991808D01*
X152436236Y-91721309D01*
X152463943Y-91440000D01*
X152436236Y-91158691D01*
X152354182Y-90888192D01*
X152220932Y-90638899D01*
X152041608Y-90420392D01*
X151928518Y-90327581D01*
X151946482Y-90325812D01*
X152066180Y-90289502D01*
X152176494Y-90230537D01*
X152273185Y-90151185D01*
X152352537Y-90054494D01*
X152411502Y-89944180D01*
X152447812Y-89824482D01*
X152460072Y-89700000D01*
X152460072Y-88900000D01*
X156400057Y-88900000D01*
X156427764Y-89181309D01*
X156509818Y-89451808D01*
X156643068Y-89701101D01*
X156822392Y-89919608D01*
X157040899Y-90098932D01*
X157173858Y-90170000D01*
X157040899Y-90241068D01*
X156822392Y-90420392D01*
X156643068Y-90638899D01*
X156509818Y-90888192D01*
X156427764Y-91158691D01*
X156400057Y-91440000D01*
X156427764Y-91721309D01*
X156509818Y-91991808D01*
X156643068Y-92241101D01*
X156822392Y-92459608D01*
X157040899Y-92638932D01*
X157173858Y-92710000D01*
X157040899Y-92781068D01*
X156822392Y-92960392D01*
X156643068Y-93178899D01*
X156509818Y-93428192D01*
X156427764Y-93698691D01*
X156400057Y-93980000D01*
X156427764Y-94261309D01*
X156509818Y-94531808D01*
X156643068Y-94781101D01*
X156822392Y-94999608D01*
X157040899Y-95178932D01*
X157168741Y-95247265D01*
X156939161Y-95397399D01*
X156737500Y-95595105D01*
X156578285Y-95828354D01*
X156467633Y-96088182D01*
X156450096Y-96170961D01*
X156572085Y-96393000D01*
X158115000Y-96393000D01*
X158115000Y-96373000D01*
X158369000Y-96373000D01*
X158369000Y-96393000D01*
X159911915Y-96393000D01*
X160033904Y-96170961D01*
X160016367Y-96088182D01*
X159905715Y-95828354D01*
X159746500Y-95595105D01*
X159544839Y-95397399D01*
X159315259Y-95247265D01*
X159443101Y-95178932D01*
X159661608Y-94999608D01*
X159840932Y-94781101D01*
X159974182Y-94531808D01*
X160056236Y-94261309D01*
X160083943Y-93980000D01*
X160056236Y-93698691D01*
X159974182Y-93428192D01*
X159840932Y-93178899D01*
X159661608Y-92960392D01*
X159443101Y-92781068D01*
X159310142Y-92710000D01*
X159443101Y-92638932D01*
X159538029Y-92561026D01*
X162121042Y-92561026D01*
X162166778Y-92711814D01*
X162293316Y-92976944D01*
X162469146Y-93212293D01*
X162687512Y-93408817D01*
X162793770Y-93472000D01*
X162687512Y-93535183D01*
X162469146Y-93731707D01*
X162293316Y-93967056D01*
X162166778Y-94232186D01*
X162121042Y-94382974D01*
X162242183Y-94615000D01*
X163449000Y-94615000D01*
X163449000Y-92329000D01*
X163703000Y-92329000D01*
X163703000Y-94615000D01*
X165989000Y-94615000D01*
X165989000Y-92329000D01*
X166243000Y-92329000D01*
X166243000Y-94615000D01*
X167449817Y-94615000D01*
X167570958Y-94382974D01*
X167525222Y-94232186D01*
X167398684Y-93967056D01*
X167222854Y-93731707D01*
X167004488Y-93535183D01*
X166898230Y-93472000D01*
X167004488Y-93408817D01*
X167222854Y-93212293D01*
X167398684Y-92976944D01*
X167525222Y-92711814D01*
X167570958Y-92561026D01*
X167449817Y-92329000D01*
X166243000Y-92329000D01*
X165989000Y-92329000D01*
X163703000Y-92329000D01*
X163449000Y-92329000D01*
X162242183Y-92329000D01*
X162121042Y-92561026D01*
X159538029Y-92561026D01*
X159661608Y-92459608D01*
X159840932Y-92241101D01*
X159974182Y-91991808D01*
X160056236Y-91721309D01*
X160083943Y-91440000D01*
X160056236Y-91158691D01*
X159974182Y-90888192D01*
X159840932Y-90638899D01*
X159661608Y-90420392D01*
X159443101Y-90241068D01*
X159310142Y-90170000D01*
X159443101Y-90098932D01*
X159538029Y-90021026D01*
X162121042Y-90021026D01*
X162166778Y-90171814D01*
X162293316Y-90436944D01*
X162469146Y-90672293D01*
X162687512Y-90868817D01*
X162793770Y-90932000D01*
X162687512Y-90995183D01*
X162469146Y-91191707D01*
X162293316Y-91427056D01*
X162166778Y-91692186D01*
X162121042Y-91842974D01*
X162242183Y-92075000D01*
X163449000Y-92075000D01*
X163449000Y-89789000D01*
X163703000Y-89789000D01*
X163703000Y-92075000D01*
X165989000Y-92075000D01*
X165989000Y-89789000D01*
X166243000Y-89789000D01*
X166243000Y-92075000D01*
X167449817Y-92075000D01*
X167570958Y-91842974D01*
X167525222Y-91692186D01*
X167398684Y-91427056D01*
X167222854Y-91191707D01*
X167004488Y-90995183D01*
X166898230Y-90932000D01*
X167004488Y-90868817D01*
X167222854Y-90672293D01*
X167398684Y-90436944D01*
X167525222Y-90171814D01*
X167570958Y-90021026D01*
X167449817Y-89789000D01*
X166243000Y-89789000D01*
X165989000Y-89789000D01*
X163703000Y-89789000D01*
X163449000Y-89789000D01*
X162242183Y-89789000D01*
X162121042Y-90021026D01*
X159538029Y-90021026D01*
X159661608Y-89919608D01*
X159840932Y-89701101D01*
X159974182Y-89451808D01*
X160056236Y-89181309D01*
X160083943Y-88900000D01*
X160056236Y-88618691D01*
X159974182Y-88348192D01*
X159840932Y-88098899D01*
X159661608Y-87880392D01*
X159443101Y-87701068D01*
X159193808Y-87567818D01*
X158923309Y-87485764D01*
X158712492Y-87465000D01*
X157771508Y-87465000D01*
X157560691Y-87485764D01*
X157290192Y-87567818D01*
X157040899Y-87701068D01*
X156822392Y-87880392D01*
X156643068Y-88098899D01*
X156509818Y-88348192D01*
X156427764Y-88618691D01*
X156400057Y-88900000D01*
X152460072Y-88900000D01*
X152460072Y-88100000D01*
X152447812Y-87975518D01*
X152411502Y-87855820D01*
X152352537Y-87745506D01*
X152273185Y-87648815D01*
X152176494Y-87569463D01*
X152066180Y-87510498D01*
X151946482Y-87474188D01*
X151822000Y-87461928D01*
X149422000Y-87461928D01*
X149297518Y-87474188D01*
X149177820Y-87510498D01*
X149067506Y-87569463D01*
X148970815Y-87648815D01*
X148891463Y-87745506D01*
X148832498Y-87855820D01*
X148796188Y-87975518D01*
X148783928Y-88100000D01*
X148783928Y-89700000D01*
X148796188Y-89824482D01*
X148832498Y-89944180D01*
X148891463Y-90054494D01*
X148970815Y-90151185D01*
X149067506Y-90230537D01*
X149177820Y-90289502D01*
X149297518Y-90325812D01*
X149315482Y-90327581D01*
X149202392Y-90420392D01*
X149023068Y-90638899D01*
X148889818Y-90888192D01*
X148807764Y-91158691D01*
X148780057Y-91440000D01*
X148807764Y-91721309D01*
X148889818Y-91991808D01*
X148926592Y-92060607D01*
X147425999Y-93561200D01*
X147397001Y-93584998D01*
X147373203Y-93613996D01*
X147373202Y-93613997D01*
X147302027Y-93700723D01*
X147231455Y-93832753D01*
X147187999Y-93976014D01*
X147173325Y-94124999D01*
X147177002Y-94162332D01*
X147177002Y-95129491D01*
X146953335Y-95085000D01*
X146670665Y-95085000D01*
X146393426Y-95140147D01*
X146132273Y-95248320D01*
X145897241Y-95405363D01*
X145697363Y-95605241D01*
X145540320Y-95840273D01*
X145432147Y-96101426D01*
X145377000Y-96378665D01*
X145377000Y-96661335D01*
X145413312Y-96843886D01*
X141569997Y-100687202D01*
X141540999Y-100711000D01*
X141517201Y-100739998D01*
X141517200Y-100739999D01*
X141446025Y-100826725D01*
X141375453Y-100958755D01*
X141331997Y-101102016D01*
X141317323Y-101251001D01*
X141321000Y-101288334D01*
X141320999Y-127678675D01*
X141317323Y-127715997D01*
X141320999Y-127753319D01*
X141320999Y-127753329D01*
X141331996Y-127864982D01*
X141365212Y-127974482D01*
X141375453Y-128008243D01*
X141446025Y-128140273D01*
X141464676Y-128162999D01*
X141540998Y-128255998D01*
X141570002Y-128279801D01*
X141670855Y-128380654D01*
X141667998Y-128382998D01*
X141644200Y-128411996D01*
X141112001Y-128944196D01*
X141082998Y-128967998D01*
X141027870Y-129035173D01*
X140988025Y-129083723D01*
X140965419Y-129126016D01*
X140917453Y-129215753D01*
X140873996Y-129359014D01*
X140862999Y-129470667D01*
X140862999Y-129470677D01*
X140859323Y-129507999D01*
X140862999Y-129545322D01*
X140863000Y-136505667D01*
X140859323Y-136542999D01*
X140873997Y-136691984D01*
X140917453Y-136835245D01*
X140988025Y-136967275D01*
X141041986Y-137033026D01*
X141082999Y-137083000D01*
X141111997Y-137106798D01*
X141349312Y-137344113D01*
X141313000Y-137526665D01*
X141313000Y-137809335D01*
X141368147Y-138086574D01*
X141476320Y-138347727D01*
X141633363Y-138582759D01*
X141833241Y-138782637D01*
X142068273Y-138939680D01*
X142329426Y-139047853D01*
X142415629Y-139065000D01*
X142329426Y-139082147D01*
X142068273Y-139190320D01*
X141833241Y-139347363D01*
X141633363Y-139547241D01*
X141476320Y-139782273D01*
X141368147Y-140043426D01*
X141313000Y-140320665D01*
X141313000Y-140603335D01*
X141368147Y-140880574D01*
X141476320Y-141141727D01*
X141633363Y-141376759D01*
X141833241Y-141576637D01*
X141988001Y-141680044D01*
X141988000Y-144488677D01*
X141984324Y-144526000D01*
X141988000Y-144563322D01*
X141988000Y-144563332D01*
X141998997Y-144674985D01*
X142040560Y-144812001D01*
X142042454Y-144818246D01*
X142113026Y-144950276D01*
X142152871Y-144998826D01*
X142207999Y-145066001D01*
X142237003Y-145089804D01*
X144905312Y-147758115D01*
X144869000Y-147940665D01*
X144869000Y-148112199D01*
X144327804Y-147571003D01*
X144304001Y-147541999D01*
X144188276Y-147447026D01*
X144056247Y-147376454D01*
X143988747Y-147355978D01*
X143862637Y-147167241D01*
X143662759Y-146967363D01*
X143427727Y-146810320D01*
X143166574Y-146702147D01*
X142889335Y-146647000D01*
X142606665Y-146647000D01*
X142329426Y-146702147D01*
X142068273Y-146810320D01*
X141833241Y-146967363D01*
X141633363Y-147167241D01*
X141476320Y-147402273D01*
X141368147Y-147663426D01*
X141313000Y-147940665D01*
X141313000Y-148223335D01*
X141368147Y-148500574D01*
X141476320Y-148761727D01*
X141633363Y-148996759D01*
X141833241Y-149196637D01*
X142068273Y-149353680D01*
X142329426Y-149461853D01*
X142606665Y-149517000D01*
X142889335Y-149517000D01*
X143166574Y-149461853D01*
X143427727Y-149353680D01*
X143662759Y-149196637D01*
X143733297Y-149126099D01*
X144905312Y-150298114D01*
X144869000Y-150480665D01*
X144869000Y-150763335D01*
X144905312Y-150945887D01*
X144667997Y-151183202D01*
X144638999Y-151207000D01*
X144615201Y-151235998D01*
X144615200Y-151235999D01*
X144544025Y-151322725D01*
X144473453Y-151454755D01*
X144429997Y-151598016D01*
X144415323Y-151747001D01*
X144419000Y-151784333D01*
X144418999Y-158744678D01*
X144415323Y-158782001D01*
X144418999Y-158819323D01*
X144418999Y-158819333D01*
X144429996Y-158930986D01*
X144448202Y-158991003D01*
X144473453Y-159074247D01*
X144544025Y-159206277D01*
X144583870Y-159254827D01*
X144633252Y-159315000D01*
X140685000Y-159315000D01*
X140685000Y-88758665D01*
X145377000Y-88758665D01*
X145377000Y-89041335D01*
X145432147Y-89318574D01*
X145540320Y-89579727D01*
X145697363Y-89814759D01*
X145897241Y-90014637D01*
X146132273Y-90171680D01*
X146393426Y-90279853D01*
X146670665Y-90335000D01*
X146953335Y-90335000D01*
X147230574Y-90279853D01*
X147491727Y-90171680D01*
X147726759Y-90014637D01*
X147926637Y-89814759D01*
X148083680Y-89579727D01*
X148191853Y-89318574D01*
X148247000Y-89041335D01*
X148247000Y-88758665D01*
X148191853Y-88481426D01*
X148083680Y-88220273D01*
X147926637Y-87985241D01*
X147726759Y-87785363D01*
X147572000Y-87681957D01*
X147572000Y-84694665D01*
X150537000Y-84694665D01*
X150537000Y-84977335D01*
X150592147Y-85254574D01*
X150700320Y-85515727D01*
X150857363Y-85750759D01*
X151057241Y-85950637D01*
X151292273Y-86107680D01*
X151553426Y-86215853D01*
X151830665Y-86271000D01*
X152113335Y-86271000D01*
X152390574Y-86215853D01*
X152651727Y-86107680D01*
X152886759Y-85950637D01*
X153008694Y-85828702D01*
X156158903Y-85828702D01*
X156230486Y-86072671D01*
X156485996Y-86193571D01*
X156760184Y-86262300D01*
X157042512Y-86276217D01*
X157162761Y-86258400D01*
X162074328Y-86258400D01*
X162074328Y-87985600D01*
X162086588Y-88110082D01*
X162122898Y-88229780D01*
X162181863Y-88340094D01*
X162261215Y-88436785D01*
X162357906Y-88516137D01*
X162468220Y-88575102D01*
X162532574Y-88594624D01*
X162469146Y-88651707D01*
X162293316Y-88887056D01*
X162166778Y-89152186D01*
X162121042Y-89302974D01*
X162242183Y-89535000D01*
X163449000Y-89535000D01*
X163449000Y-89515000D01*
X163703000Y-89515000D01*
X163703000Y-89535000D01*
X165989000Y-89535000D01*
X165989000Y-89515000D01*
X166243000Y-89515000D01*
X166243000Y-89535000D01*
X167449817Y-89535000D01*
X167570958Y-89302974D01*
X167525222Y-89152186D01*
X167398684Y-88887056D01*
X167222854Y-88651707D01*
X167004488Y-88455183D01*
X166905897Y-88396559D01*
X167071302Y-88286039D01*
X167280039Y-88077302D01*
X167444042Y-87831853D01*
X167557010Y-87559125D01*
X167614600Y-87269599D01*
X167614600Y-86974401D01*
X167557010Y-86684875D01*
X167444042Y-86412147D01*
X167280039Y-86166698D01*
X167071302Y-85957961D01*
X166825853Y-85793958D01*
X166553125Y-85680990D01*
X166263599Y-85623400D01*
X165968401Y-85623400D01*
X165678875Y-85680990D01*
X165406147Y-85793958D01*
X165160698Y-85957961D01*
X165046636Y-86072023D01*
X165029102Y-86014220D01*
X164970137Y-85903906D01*
X164890785Y-85807215D01*
X164794094Y-85727863D01*
X164683780Y-85668898D01*
X164564082Y-85632588D01*
X164439600Y-85620328D01*
X162712400Y-85620328D01*
X162587918Y-85632588D01*
X162468220Y-85668898D01*
X162357906Y-85727863D01*
X162261215Y-85807215D01*
X162181863Y-85903906D01*
X162122898Y-86014220D01*
X162086588Y-86133918D01*
X162074328Y-86258400D01*
X157162761Y-86258400D01*
X157322130Y-86234787D01*
X157588292Y-86139603D01*
X157713514Y-86072671D01*
X157785097Y-85828702D01*
X156972000Y-85015605D01*
X156158903Y-85828702D01*
X153008694Y-85828702D01*
X153086637Y-85750759D01*
X153243680Y-85515727D01*
X153351853Y-85254574D01*
X153407000Y-84977335D01*
X153407000Y-84906512D01*
X155531783Y-84906512D01*
X155573213Y-85186130D01*
X155668397Y-85452292D01*
X155735329Y-85577514D01*
X155979298Y-85649097D01*
X156792395Y-84836000D01*
X157151605Y-84836000D01*
X157964702Y-85649097D01*
X158208671Y-85577514D01*
X158329571Y-85322004D01*
X158398300Y-85047816D01*
X158412217Y-84765488D01*
X158370787Y-84485870D01*
X158275603Y-84219708D01*
X158208671Y-84094486D01*
X157964702Y-84022903D01*
X157151605Y-84836000D01*
X156792395Y-84836000D01*
X155979298Y-84022903D01*
X155735329Y-84094486D01*
X155614429Y-84349996D01*
X155545700Y-84624184D01*
X155531783Y-84906512D01*
X153407000Y-84906512D01*
X153407000Y-84694665D01*
X153351853Y-84417426D01*
X153243680Y-84156273D01*
X153086637Y-83921241D01*
X153008694Y-83843298D01*
X156158903Y-83843298D01*
X156972000Y-84656395D01*
X157785097Y-83843298D01*
X157713514Y-83599329D01*
X157458004Y-83478429D01*
X157183816Y-83409700D01*
X156901488Y-83395783D01*
X156621870Y-83437213D01*
X156355708Y-83532397D01*
X156230486Y-83599329D01*
X156158903Y-83843298D01*
X153008694Y-83843298D01*
X152886759Y-83721363D01*
X152651727Y-83564320D01*
X152390574Y-83456147D01*
X152113335Y-83401000D01*
X151830665Y-83401000D01*
X151553426Y-83456147D01*
X151292273Y-83564320D01*
X151057241Y-83721363D01*
X150857363Y-83921241D01*
X150700320Y-84156273D01*
X150592147Y-84417426D01*
X150537000Y-84694665D01*
X147572000Y-84694665D01*
X147572000Y-77247902D01*
X154717000Y-77247902D01*
X154717000Y-77692098D01*
X154803658Y-78127759D01*
X154973645Y-78538143D01*
X155220427Y-78907479D01*
X155534521Y-79221573D01*
X155903857Y-79468355D01*
X156314241Y-79638342D01*
X156749902Y-79725000D01*
X157194098Y-79725000D01*
X157629759Y-79638342D01*
X158040143Y-79468355D01*
X158409479Y-79221573D01*
X158723573Y-78907479D01*
X158970355Y-78538143D01*
X159140342Y-78127759D01*
X159227000Y-77692098D01*
X159227000Y-77247902D01*
X159140342Y-76812241D01*
X158970355Y-76401857D01*
X158723573Y-76032521D01*
X158675052Y-75984000D01*
X164423928Y-75984000D01*
X164436188Y-76108482D01*
X164472498Y-76228180D01*
X164531463Y-76338494D01*
X164610815Y-76435185D01*
X164707506Y-76514537D01*
X164817820Y-76573502D01*
X164937518Y-76609812D01*
X165062000Y-76622072D01*
X165576250Y-76619000D01*
X165735000Y-76460250D01*
X165735000Y-75311000D01*
X165989000Y-75311000D01*
X165989000Y-76460250D01*
X166147750Y-76619000D01*
X166662000Y-76622072D01*
X166786482Y-76609812D01*
X166906180Y-76573502D01*
X167016494Y-76514537D01*
X167113185Y-76435185D01*
X167192537Y-76338494D01*
X167251502Y-76228180D01*
X167287812Y-76108482D01*
X167300072Y-75984000D01*
X167297000Y-75469750D01*
X167138250Y-75311000D01*
X165989000Y-75311000D01*
X165735000Y-75311000D01*
X164585750Y-75311000D01*
X164427000Y-75469750D01*
X164423928Y-75984000D01*
X158675052Y-75984000D01*
X158409479Y-75718427D01*
X158040143Y-75471645D01*
X157629759Y-75301658D01*
X157194098Y-75215000D01*
X156749902Y-75215000D01*
X156314241Y-75301658D01*
X155903857Y-75471645D01*
X155534521Y-75718427D01*
X155220427Y-76032521D01*
X154973645Y-76401857D01*
X154803658Y-76812241D01*
X154717000Y-77247902D01*
X147572000Y-77247902D01*
X147572000Y-75759799D01*
X147933928Y-75397871D01*
X147933928Y-76070000D01*
X147946188Y-76194482D01*
X147982498Y-76314180D01*
X148041463Y-76424494D01*
X148120815Y-76521185D01*
X148217506Y-76600537D01*
X148327820Y-76659502D01*
X148447518Y-76695812D01*
X148572000Y-76708072D01*
X150372000Y-76708072D01*
X150496482Y-76695812D01*
X150616180Y-76659502D01*
X150726494Y-76600537D01*
X150823185Y-76521185D01*
X150902537Y-76424494D01*
X150961502Y-76314180D01*
X150997812Y-76194482D01*
X151010072Y-76070000D01*
X151010072Y-74384000D01*
X164423928Y-74384000D01*
X164427000Y-74898250D01*
X164585750Y-75057000D01*
X165735000Y-75057000D01*
X165735000Y-75037000D01*
X165989000Y-75037000D01*
X165989000Y-75057000D01*
X167138250Y-75057000D01*
X167297000Y-74898250D01*
X167300072Y-74384000D01*
X167287812Y-74259518D01*
X167251502Y-74139820D01*
X167192537Y-74029506D01*
X167113185Y-73932815D01*
X167016494Y-73853463D01*
X166906180Y-73794498D01*
X166810057Y-73765339D01*
X166976637Y-73598759D01*
X167133680Y-73363727D01*
X167241853Y-73102574D01*
X167297000Y-72825335D01*
X167297000Y-72542665D01*
X167241853Y-72265426D01*
X167133680Y-72004273D01*
X166976637Y-71769241D01*
X166776759Y-71569363D01*
X166541727Y-71412320D01*
X166280574Y-71304147D01*
X166003335Y-71249000D01*
X165720665Y-71249000D01*
X165443426Y-71304147D01*
X165182273Y-71412320D01*
X164947241Y-71569363D01*
X164747363Y-71769241D01*
X164590320Y-72004273D01*
X164482147Y-72265426D01*
X164427000Y-72542665D01*
X164427000Y-72825335D01*
X164482147Y-73102574D01*
X164590320Y-73363727D01*
X164747363Y-73598759D01*
X164913943Y-73765339D01*
X164817820Y-73794498D01*
X164707506Y-73853463D01*
X164610815Y-73932815D01*
X164531463Y-74029506D01*
X164472498Y-74139820D01*
X164436188Y-74259518D01*
X164423928Y-74384000D01*
X151010072Y-74384000D01*
X151010072Y-74270000D01*
X150997812Y-74145518D01*
X150961502Y-74025820D01*
X150902537Y-73915506D01*
X150823185Y-73818815D01*
X150726494Y-73739463D01*
X150626697Y-73686120D01*
X150664312Y-73648505D01*
X150832299Y-73397095D01*
X150948011Y-73117743D01*
X151007000Y-72821184D01*
X151007000Y-72518816D01*
X150948011Y-72222257D01*
X150832299Y-71942905D01*
X150664312Y-71691495D01*
X150450505Y-71477688D01*
X150364169Y-71420000D01*
X150450505Y-71362312D01*
X150664312Y-71148505D01*
X150832299Y-70897095D01*
X150948011Y-70617743D01*
X151007000Y-70321184D01*
X151007000Y-70018816D01*
X150948011Y-69722257D01*
X150832299Y-69442905D01*
X150664312Y-69191495D01*
X150450505Y-68977688D01*
X150199095Y-68809701D01*
X149919743Y-68693989D01*
X149623184Y-68635000D01*
X149320816Y-68635000D01*
X149024257Y-68693989D01*
X148744905Y-68809701D01*
X148493495Y-68977688D01*
X148279688Y-69191495D01*
X148111701Y-69442905D01*
X147995989Y-69722257D01*
X147937000Y-70018816D01*
X147937000Y-70321184D01*
X147995989Y-70617743D01*
X148111701Y-70897095D01*
X148279688Y-71148505D01*
X148493495Y-71362312D01*
X148579831Y-71420000D01*
X148493495Y-71477688D01*
X148279688Y-71691495D01*
X148111701Y-71942905D01*
X147995989Y-72222257D01*
X147937000Y-72518816D01*
X147937000Y-72821184D01*
X147995989Y-73117743D01*
X148016042Y-73166155D01*
X146300998Y-74881199D01*
X146272000Y-74904997D01*
X146248202Y-74933995D01*
X146248201Y-74933996D01*
X146177026Y-75020722D01*
X146106454Y-75152752D01*
X146062998Y-75296013D01*
X146048324Y-75444998D01*
X146052001Y-75482330D01*
X146052000Y-87681957D01*
X145897241Y-87785363D01*
X145697363Y-87985241D01*
X145540320Y-88220273D01*
X145432147Y-88481426D01*
X145377000Y-88758665D01*
X140685000Y-88758665D01*
X140685000Y-65685000D01*
X156397987Y-65685000D01*
X156314241Y-65701658D01*
%TA.AperFunction,Conductor*%
D25*
G36*
X156314241Y-65701658D02*
G01*
X155903857Y-65871645D01*
X155534521Y-66118427D01*
X155220427Y-66432521D01*
X154973645Y-66801857D01*
X154803658Y-67212241D01*
X154717000Y-67647902D01*
X154717000Y-68092098D01*
X154803658Y-68527759D01*
X154973645Y-68938143D01*
X155220427Y-69307479D01*
X155534521Y-69621573D01*
X155903857Y-69868355D01*
X156314241Y-70038342D01*
X156749902Y-70125000D01*
X157194098Y-70125000D01*
X157629759Y-70038342D01*
X158040143Y-69868355D01*
X158409479Y-69621573D01*
X158723573Y-69307479D01*
X158970355Y-68938143D01*
X159140342Y-68527759D01*
X159227000Y-68092098D01*
X159227000Y-67647902D01*
X159140342Y-67212241D01*
X158970355Y-66801857D01*
X158723573Y-66432521D01*
X158409479Y-66118427D01*
X158040143Y-65871645D01*
X157629759Y-65701658D01*
X157546013Y-65685000D01*
X169315000Y-65685000D01*
X169315001Y-159315000D01*
X163210803Y-159315000D01*
X167440018Y-155085787D01*
X167469011Y-155061993D01*
X167492805Y-155033000D01*
X167492809Y-155032996D01*
X167563983Y-154946269D01*
X167612086Y-154856276D01*
X167634556Y-154814239D01*
X167678013Y-154670978D01*
X167689010Y-154559325D01*
X167689010Y-154559316D01*
X167692686Y-154521993D01*
X167689010Y-154484670D01*
X167689010Y-138264343D01*
X167692687Y-138227010D01*
X167678013Y-138078024D01*
X167634556Y-137934763D01*
X167563984Y-137802734D01*
X167492809Y-137716007D01*
X167469011Y-137687009D01*
X167440014Y-137663212D01*
X166752688Y-136975886D01*
X166789000Y-136793335D01*
X166789000Y-136510665D01*
X166733853Y-136233426D01*
X166625680Y-135972273D01*
X166468637Y-135737241D01*
X166268759Y-135537363D01*
X166033727Y-135380320D01*
X165772574Y-135272147D01*
X165495335Y-135217000D01*
X165212665Y-135217000D01*
X164935426Y-135272147D01*
X164749001Y-135349367D01*
X164749001Y-132666765D01*
X164849901Y-132714825D01*
X164997110Y-132759476D01*
X165227000Y-132638155D01*
X165227000Y-131445000D01*
X165481000Y-131445000D01*
X165481000Y-132638155D01*
X165710890Y-132759476D01*
X165858099Y-132714825D01*
X166120920Y-132589641D01*
X166354269Y-132415588D01*
X166549178Y-132199355D01*
X166698157Y-131949252D01*
X166795481Y-131674891D01*
X166674814Y-131445000D01*
X165481000Y-131445000D01*
X165227000Y-131445000D01*
X165207000Y-131445000D01*
X165207000Y-131191000D01*
X165227000Y-131191000D01*
X165227000Y-129997845D01*
X165481000Y-129997845D01*
X165481000Y-131191000D01*
X166674814Y-131191000D01*
X166795481Y-130961109D01*
X166698157Y-130686748D01*
X166549178Y-130436645D01*
X166354269Y-130220412D01*
X166120920Y-130046359D01*
X165858099Y-129921175D01*
X165710890Y-129876524D01*
X165481000Y-129997845D01*
X165227000Y-129997845D01*
X164997110Y-129876524D01*
X164849901Y-129921175D01*
X164749001Y-129969235D01*
X164749001Y-129312323D01*
X164752677Y-129275000D01*
X164749001Y-129237677D01*
X164749001Y-129237668D01*
X164738004Y-129126015D01*
X164694547Y-128982754D01*
X164623975Y-128850725D01*
X164529002Y-128735000D01*
X164500005Y-128711203D01*
X164101345Y-128312543D01*
X164115185Y-128301185D01*
X164194537Y-128204494D01*
X164253502Y-128094180D01*
X164277966Y-128013534D01*
X164353731Y-128097588D01*
X164587080Y-128271641D01*
X164849901Y-128396825D01*
X164997110Y-128441476D01*
X165227000Y-128320155D01*
X165227000Y-127127000D01*
X165481000Y-127127000D01*
X165481000Y-128320155D01*
X165710890Y-128441476D01*
X165858099Y-128396825D01*
X166120920Y-128271641D01*
X166354269Y-128097588D01*
X166549178Y-127881355D01*
X166698157Y-127631252D01*
X166795481Y-127356891D01*
X166674814Y-127127000D01*
X165481000Y-127127000D01*
X165227000Y-127127000D01*
X165207000Y-127127000D01*
X165207000Y-126873000D01*
X165227000Y-126873000D01*
X165227000Y-125679845D01*
X165481000Y-125679845D01*
X165481000Y-126873000D01*
X166674814Y-126873000D01*
X166795481Y-126643109D01*
X166698157Y-126368748D01*
X166549178Y-126118645D01*
X166354269Y-125902412D01*
X166120920Y-125728359D01*
X165858099Y-125603175D01*
X165710890Y-125558524D01*
X165481000Y-125679845D01*
X165227000Y-125679845D01*
X164997110Y-125558524D01*
X164849901Y-125603175D01*
X164587080Y-125728359D01*
X164353731Y-125902412D01*
X164277966Y-125986466D01*
X164253502Y-125905820D01*
X164194537Y-125795506D01*
X164115185Y-125698815D01*
X164018494Y-125619463D01*
X163908180Y-125560498D01*
X163788482Y-125524188D01*
X163664000Y-125511928D01*
X162398999Y-125511928D01*
X162398999Y-124617001D01*
X163886679Y-124617001D01*
X163924001Y-124620677D01*
X163961323Y-124617001D01*
X163961334Y-124617001D01*
X164072987Y-124606004D01*
X164216248Y-124562547D01*
X164348277Y-124491975D01*
X164464002Y-124397002D01*
X164487805Y-124367998D01*
X164499999Y-124355804D01*
X164529002Y-124332002D01*
X164623975Y-124216277D01*
X164694547Y-124084248D01*
X164715597Y-124014855D01*
X164849901Y-124078825D01*
X164997110Y-124123476D01*
X165227000Y-124002155D01*
X165227000Y-122809000D01*
X165481000Y-122809000D01*
X165481000Y-124002155D01*
X165710890Y-124123476D01*
X165858099Y-124078825D01*
X166120920Y-123953641D01*
X166354269Y-123779588D01*
X166549178Y-123563355D01*
X166698157Y-123313252D01*
X166795481Y-123038891D01*
X166674814Y-122809000D01*
X165481000Y-122809000D01*
X165227000Y-122809000D01*
X165207000Y-122809000D01*
X165207000Y-122555000D01*
X165227000Y-122555000D01*
X165227000Y-121361845D01*
X165481000Y-121361845D01*
X165481000Y-122555000D01*
X166674814Y-122555000D01*
X166795481Y-122325109D01*
X166698157Y-122050748D01*
X166549178Y-121800645D01*
X166354269Y-121584412D01*
X166120920Y-121410359D01*
X165858099Y-121285175D01*
X165710890Y-121240524D01*
X165481000Y-121361845D01*
X165227000Y-121361845D01*
X164997110Y-121240524D01*
X164849901Y-121285175D01*
X164749001Y-121333235D01*
X164749001Y-112604717D01*
X164817820Y-112641502D01*
X164937518Y-112677812D01*
X165062000Y-112690072D01*
X166662000Y-112690072D01*
X166786482Y-112677812D01*
X166906180Y-112641502D01*
X167016494Y-112582537D01*
X167113185Y-112503185D01*
X167192537Y-112406494D01*
X167251502Y-112296180D01*
X167287812Y-112176482D01*
X167300072Y-112052000D01*
X167300072Y-110452000D01*
X167287812Y-110327518D01*
X167251502Y-110207820D01*
X167192537Y-110097506D01*
X167113185Y-110000815D01*
X167016494Y-109921463D01*
X166906180Y-109862498D01*
X166786482Y-109826188D01*
X166662000Y-109813928D01*
X166654785Y-109813928D01*
X166675097Y-109744702D01*
X165862000Y-108931605D01*
X165048903Y-109744702D01*
X165069215Y-109813928D01*
X165062000Y-109813928D01*
X164937518Y-109826188D01*
X164817820Y-109862498D01*
X164749001Y-109899283D01*
X164749001Y-109529801D01*
X164869298Y-109565097D01*
X165682395Y-108752000D01*
X166041605Y-108752000D01*
X166854702Y-109565097D01*
X167098671Y-109493514D01*
X167219571Y-109238004D01*
X167288300Y-108963816D01*
X167302217Y-108681488D01*
X167260787Y-108401870D01*
X167165603Y-108135708D01*
X167098671Y-108010486D01*
X166854702Y-107938903D01*
X166041605Y-108752000D01*
X165682395Y-108752000D01*
X164869298Y-107938903D01*
X164749001Y-107974199D01*
X164749001Y-107759298D01*
X165048903Y-107759298D01*
X165862000Y-108572395D01*
X166675097Y-107759298D01*
X166603514Y-107515329D01*
X166348004Y-107394429D01*
X166073816Y-107325700D01*
X165791488Y-107311783D01*
X165511870Y-107353213D01*
X165245708Y-107448397D01*
X165120486Y-107515329D01*
X165048903Y-107759298D01*
X164749001Y-107759298D01*
X164749001Y-105973322D01*
X164752677Y-105935999D01*
X164749001Y-105898676D01*
X164749001Y-105898666D01*
X164738004Y-105787013D01*
X164694547Y-105643752D01*
X164623975Y-105511722D01*
X164552800Y-105424996D01*
X164529002Y-105395998D01*
X164500004Y-105372200D01*
X155996843Y-96869039D01*
X156450096Y-96869039D01*
X156467633Y-96951818D01*
X156578285Y-97211646D01*
X156737500Y-97444895D01*
X156939161Y-97642601D01*
X157175517Y-97797166D01*
X157437486Y-97902650D01*
X157715000Y-97955000D01*
X158115000Y-97955000D01*
X158115000Y-96647000D01*
X158369000Y-96647000D01*
X158369000Y-97955000D01*
X158769000Y-97955000D01*
X159046514Y-97902650D01*
X159308483Y-97797166D01*
X159544839Y-97642601D01*
X159746500Y-97444895D01*
X159905715Y-97211646D01*
X159938611Y-97134401D01*
X162077400Y-97134401D01*
X162077400Y-97429599D01*
X162134990Y-97719125D01*
X162247958Y-97991853D01*
X162411961Y-98237302D01*
X162620698Y-98446039D01*
X162866147Y-98610042D01*
X163138875Y-98723010D01*
X163428401Y-98780600D01*
X163723599Y-98780600D01*
X164013125Y-98723010D01*
X164285853Y-98610042D01*
X164531302Y-98446039D01*
X164740039Y-98237302D01*
X164846000Y-98078719D01*
X164951961Y-98237302D01*
X165160698Y-98446039D01*
X165406147Y-98610042D01*
X165678875Y-98723010D01*
X165968401Y-98780600D01*
X166263599Y-98780600D01*
X166553125Y-98723010D01*
X166825853Y-98610042D01*
X167071302Y-98446039D01*
X167280039Y-98237302D01*
X167444042Y-97991853D01*
X167557010Y-97719125D01*
X167614600Y-97429599D01*
X167614600Y-97134401D01*
X167557010Y-96844875D01*
X167444042Y-96572147D01*
X167280039Y-96326698D01*
X167071302Y-96117961D01*
X166905897Y-96007441D01*
X167004488Y-95948817D01*
X167222854Y-95752293D01*
X167398684Y-95516944D01*
X167525222Y-95251814D01*
X167570958Y-95101026D01*
X167449817Y-94869000D01*
X166243000Y-94869000D01*
X166243000Y-94889000D01*
X165989000Y-94889000D01*
X165989000Y-94869000D01*
X163703000Y-94869000D01*
X163703000Y-94889000D01*
X163449000Y-94889000D01*
X163449000Y-94869000D01*
X162242183Y-94869000D01*
X162121042Y-95101026D01*
X162166778Y-95251814D01*
X162293316Y-95516944D01*
X162469146Y-95752293D01*
X162687512Y-95948817D01*
X162786103Y-96007441D01*
X162620698Y-96117961D01*
X162411961Y-96326698D01*
X162247958Y-96572147D01*
X162134990Y-96844875D01*
X162077400Y-97134401D01*
X159938611Y-97134401D01*
X160016367Y-96951818D01*
X160033904Y-96869039D01*
X159911915Y-96647000D01*
X158369000Y-96647000D01*
X158115000Y-96647000D01*
X156572085Y-96647000D01*
X156450096Y-96869039D01*
X155996843Y-96869039D01*
X152596806Y-93469003D01*
X152573003Y-93439999D01*
X152457278Y-93345026D01*
X152325249Y-93274454D01*
X152261704Y-93255178D01*
X152220932Y-93178899D01*
X152041608Y-92960392D01*
X151823101Y-92781068D01*
X151690142Y-92710000D01*
X151823101Y-92638932D01*
X152041608Y-92459608D01*
X152220932Y-92241101D01*
X152354182Y-91991808D01*
X152436236Y-91721309D01*
X152463943Y-91440000D01*
X152436236Y-91158691D01*
X152354182Y-90888192D01*
X152220932Y-90638899D01*
X152041608Y-90420392D01*
X151928518Y-90327581D01*
X151946482Y-90325812D01*
X152066180Y-90289502D01*
X152176494Y-90230537D01*
X152273185Y-90151185D01*
X152352537Y-90054494D01*
X152411502Y-89944180D01*
X152447812Y-89824482D01*
X152460072Y-89700000D01*
X152460072Y-88900000D01*
X156400057Y-88900000D01*
X156427764Y-89181309D01*
X156509818Y-89451808D01*
X156643068Y-89701101D01*
X156822392Y-89919608D01*
X157040899Y-90098932D01*
X157173858Y-90170000D01*
X157040899Y-90241068D01*
X156822392Y-90420392D01*
X156643068Y-90638899D01*
X156509818Y-90888192D01*
X156427764Y-91158691D01*
X156400057Y-91440000D01*
X156427764Y-91721309D01*
X156509818Y-91991808D01*
X156643068Y-92241101D01*
X156822392Y-92459608D01*
X157040899Y-92638932D01*
X157173858Y-92710000D01*
X157040899Y-92781068D01*
X156822392Y-92960392D01*
X156643068Y-93178899D01*
X156509818Y-93428192D01*
X156427764Y-93698691D01*
X156400057Y-93980000D01*
X156427764Y-94261309D01*
X156509818Y-94531808D01*
X156643068Y-94781101D01*
X156822392Y-94999608D01*
X157040899Y-95178932D01*
X157168741Y-95247265D01*
X156939161Y-95397399D01*
X156737500Y-95595105D01*
X156578285Y-95828354D01*
X156467633Y-96088182D01*
X156450096Y-96170961D01*
X156572085Y-96393000D01*
X158115000Y-96393000D01*
X158115000Y-96373000D01*
X158369000Y-96373000D01*
X158369000Y-96393000D01*
X159911915Y-96393000D01*
X160033904Y-96170961D01*
X160016367Y-96088182D01*
X159905715Y-95828354D01*
X159746500Y-95595105D01*
X159544839Y-95397399D01*
X159315259Y-95247265D01*
X159443101Y-95178932D01*
X159661608Y-94999608D01*
X159840932Y-94781101D01*
X159974182Y-94531808D01*
X160056236Y-94261309D01*
X160083943Y-93980000D01*
X160056236Y-93698691D01*
X159974182Y-93428192D01*
X159840932Y-93178899D01*
X159661608Y-92960392D01*
X159443101Y-92781068D01*
X159310142Y-92710000D01*
X159443101Y-92638932D01*
X159538029Y-92561026D01*
X162121042Y-92561026D01*
X162166778Y-92711814D01*
X162293316Y-92976944D01*
X162469146Y-93212293D01*
X162687512Y-93408817D01*
X162793770Y-93472000D01*
X162687512Y-93535183D01*
X162469146Y-93731707D01*
X162293316Y-93967056D01*
X162166778Y-94232186D01*
X162121042Y-94382974D01*
X162242183Y-94615000D01*
X163449000Y-94615000D01*
X163449000Y-92329000D01*
X163703000Y-92329000D01*
X163703000Y-94615000D01*
X165989000Y-94615000D01*
X165989000Y-92329000D01*
X166243000Y-92329000D01*
X166243000Y-94615000D01*
X167449817Y-94615000D01*
X167570958Y-94382974D01*
X167525222Y-94232186D01*
X167398684Y-93967056D01*
X167222854Y-93731707D01*
X167004488Y-93535183D01*
X166898230Y-93472000D01*
X167004488Y-93408817D01*
X167222854Y-93212293D01*
X167398684Y-92976944D01*
X167525222Y-92711814D01*
X167570958Y-92561026D01*
X167449817Y-92329000D01*
X166243000Y-92329000D01*
X165989000Y-92329000D01*
X163703000Y-92329000D01*
X163449000Y-92329000D01*
X162242183Y-92329000D01*
X162121042Y-92561026D01*
X159538029Y-92561026D01*
X159661608Y-92459608D01*
X159840932Y-92241101D01*
X159974182Y-91991808D01*
X160056236Y-91721309D01*
X160083943Y-91440000D01*
X160056236Y-91158691D01*
X159974182Y-90888192D01*
X159840932Y-90638899D01*
X159661608Y-90420392D01*
X159443101Y-90241068D01*
X159310142Y-90170000D01*
X159443101Y-90098932D01*
X159538029Y-90021026D01*
X162121042Y-90021026D01*
X162166778Y-90171814D01*
X162293316Y-90436944D01*
X162469146Y-90672293D01*
X162687512Y-90868817D01*
X162793770Y-90932000D01*
X162687512Y-90995183D01*
X162469146Y-91191707D01*
X162293316Y-91427056D01*
X162166778Y-91692186D01*
X162121042Y-91842974D01*
X162242183Y-92075000D01*
X163449000Y-92075000D01*
X163449000Y-89789000D01*
X163703000Y-89789000D01*
X163703000Y-92075000D01*
X165989000Y-92075000D01*
X165989000Y-89789000D01*
X166243000Y-89789000D01*
X166243000Y-92075000D01*
X167449817Y-92075000D01*
X167570958Y-91842974D01*
X167525222Y-91692186D01*
X167398684Y-91427056D01*
X167222854Y-91191707D01*
X167004488Y-90995183D01*
X166898230Y-90932000D01*
X167004488Y-90868817D01*
X167222854Y-90672293D01*
X167398684Y-90436944D01*
X167525222Y-90171814D01*
X167570958Y-90021026D01*
X167449817Y-89789000D01*
X166243000Y-89789000D01*
X165989000Y-89789000D01*
X163703000Y-89789000D01*
X163449000Y-89789000D01*
X162242183Y-89789000D01*
X162121042Y-90021026D01*
X159538029Y-90021026D01*
X159661608Y-89919608D01*
X159840932Y-89701101D01*
X159974182Y-89451808D01*
X160056236Y-89181309D01*
X160083943Y-88900000D01*
X160056236Y-88618691D01*
X159974182Y-88348192D01*
X159840932Y-88098899D01*
X159661608Y-87880392D01*
X159443101Y-87701068D01*
X159193808Y-87567818D01*
X158923309Y-87485764D01*
X158712492Y-87465000D01*
X157771508Y-87465000D01*
X157560691Y-87485764D01*
X157290192Y-87567818D01*
X157040899Y-87701068D01*
X156822392Y-87880392D01*
X156643068Y-88098899D01*
X156509818Y-88348192D01*
X156427764Y-88618691D01*
X156400057Y-88900000D01*
X152460072Y-88900000D01*
X152460072Y-88100000D01*
X152447812Y-87975518D01*
X152411502Y-87855820D01*
X152352537Y-87745506D01*
X152273185Y-87648815D01*
X152176494Y-87569463D01*
X152066180Y-87510498D01*
X151946482Y-87474188D01*
X151822000Y-87461928D01*
X149422000Y-87461928D01*
X149297518Y-87474188D01*
X149177820Y-87510498D01*
X149067506Y-87569463D01*
X148970815Y-87648815D01*
X148891463Y-87745506D01*
X148832498Y-87855820D01*
X148796188Y-87975518D01*
X148783928Y-88100000D01*
X148783928Y-89700000D01*
X148796188Y-89824482D01*
X148832498Y-89944180D01*
X148891463Y-90054494D01*
X148970815Y-90151185D01*
X149067506Y-90230537D01*
X149177820Y-90289502D01*
X149297518Y-90325812D01*
X149315482Y-90327581D01*
X149202392Y-90420392D01*
X149023068Y-90638899D01*
X148889818Y-90888192D01*
X148807764Y-91158691D01*
X148780057Y-91440000D01*
X148807764Y-91721309D01*
X148889818Y-91991808D01*
X148926592Y-92060607D01*
X147425999Y-93561200D01*
X147397001Y-93584998D01*
X147373203Y-93613996D01*
X147373202Y-93613997D01*
X147302027Y-93700723D01*
X147231455Y-93832753D01*
X147187999Y-93976014D01*
X147173325Y-94124999D01*
X147177002Y-94162332D01*
X147177002Y-95129491D01*
X146953335Y-95085000D01*
X146670665Y-95085000D01*
X146393426Y-95140147D01*
X146132273Y-95248320D01*
X145897241Y-95405363D01*
X145697363Y-95605241D01*
X145540320Y-95840273D01*
X145432147Y-96101426D01*
X145377000Y-96378665D01*
X145377000Y-96661335D01*
X145413312Y-96843886D01*
X141569997Y-100687202D01*
X141540999Y-100711000D01*
X141517201Y-100739998D01*
X141517200Y-100739999D01*
X141446025Y-100826725D01*
X141375453Y-100958755D01*
X141331997Y-101102016D01*
X141317323Y-101251001D01*
X141321000Y-101288334D01*
X141320999Y-127678675D01*
X141317323Y-127715997D01*
X141320999Y-127753319D01*
X141320999Y-127753329D01*
X141331996Y-127864982D01*
X141365212Y-127974482D01*
X141375453Y-128008243D01*
X141446025Y-128140273D01*
X141464676Y-128162999D01*
X141540998Y-128255998D01*
X141570002Y-128279801D01*
X141670855Y-128380654D01*
X141667998Y-128382998D01*
X141644200Y-128411996D01*
X141112001Y-128944196D01*
X141082998Y-128967998D01*
X141027870Y-129035173D01*
X140988025Y-129083723D01*
X140965419Y-129126016D01*
X140917453Y-129215753D01*
X140873996Y-129359014D01*
X140862999Y-129470667D01*
X140862999Y-129470677D01*
X140859323Y-129507999D01*
X140862999Y-129545322D01*
X140863000Y-136505667D01*
X140859323Y-136542999D01*
X140873997Y-136691984D01*
X140917453Y-136835245D01*
X140988025Y-136967275D01*
X141041986Y-137033026D01*
X141082999Y-137083000D01*
X141111997Y-137106798D01*
X141349312Y-137344113D01*
X141313000Y-137526665D01*
X141313000Y-137809335D01*
X141368147Y-138086574D01*
X141476320Y-138347727D01*
X141633363Y-138582759D01*
X141833241Y-138782637D01*
X142068273Y-138939680D01*
X142329426Y-139047853D01*
X142415629Y-139065000D01*
X142329426Y-139082147D01*
X142068273Y-139190320D01*
X141833241Y-139347363D01*
X141633363Y-139547241D01*
X141476320Y-139782273D01*
X141368147Y-140043426D01*
X141313000Y-140320665D01*
X141313000Y-140603335D01*
X141368147Y-140880574D01*
X141476320Y-141141727D01*
X141633363Y-141376759D01*
X141833241Y-141576637D01*
X141988001Y-141680044D01*
X141988000Y-144488677D01*
X141984324Y-144526000D01*
X141988000Y-144563322D01*
X141988000Y-144563332D01*
X141998997Y-144674985D01*
X142040560Y-144812001D01*
X142042454Y-144818246D01*
X142113026Y-144950276D01*
X142152871Y-144998826D01*
X142207999Y-145066001D01*
X142237003Y-145089804D01*
X144905312Y-147758115D01*
X144869000Y-147940665D01*
X144869000Y-148112199D01*
X144327804Y-147571003D01*
X144304001Y-147541999D01*
X144188276Y-147447026D01*
X144056247Y-147376454D01*
X143988747Y-147355978D01*
X143862637Y-147167241D01*
X143662759Y-146967363D01*
X143427727Y-146810320D01*
X143166574Y-146702147D01*
X142889335Y-146647000D01*
X142606665Y-146647000D01*
X142329426Y-146702147D01*
X142068273Y-146810320D01*
X141833241Y-146967363D01*
X141633363Y-147167241D01*
X141476320Y-147402273D01*
X141368147Y-147663426D01*
X141313000Y-147940665D01*
X141313000Y-148223335D01*
X141368147Y-148500574D01*
X141476320Y-148761727D01*
X141633363Y-148996759D01*
X141833241Y-149196637D01*
X142068273Y-149353680D01*
X142329426Y-149461853D01*
X142606665Y-149517000D01*
X142889335Y-149517000D01*
X143166574Y-149461853D01*
X143427727Y-149353680D01*
X143662759Y-149196637D01*
X143733297Y-149126099D01*
X144905312Y-150298114D01*
X144869000Y-150480665D01*
X144869000Y-150763335D01*
X144905312Y-150945887D01*
X144667997Y-151183202D01*
X144638999Y-151207000D01*
X144615201Y-151235998D01*
X144615200Y-151235999D01*
X144544025Y-151322725D01*
X144473453Y-151454755D01*
X144429997Y-151598016D01*
X144415323Y-151747001D01*
X144419000Y-151784333D01*
X144418999Y-158744678D01*
X144415323Y-158782001D01*
X144418999Y-158819323D01*
X144418999Y-158819333D01*
X144429996Y-158930986D01*
X144448202Y-158991003D01*
X144473453Y-159074247D01*
X144544025Y-159206277D01*
X144583870Y-159254827D01*
X144633252Y-159315000D01*
X140685000Y-159315000D01*
X140685000Y-88758665D01*
X145377000Y-88758665D01*
X145377000Y-89041335D01*
X145432147Y-89318574D01*
X145540320Y-89579727D01*
X145697363Y-89814759D01*
X145897241Y-90014637D01*
X146132273Y-90171680D01*
X146393426Y-90279853D01*
X146670665Y-90335000D01*
X146953335Y-90335000D01*
X147230574Y-90279853D01*
X147491727Y-90171680D01*
X147726759Y-90014637D01*
X147926637Y-89814759D01*
X148083680Y-89579727D01*
X148191853Y-89318574D01*
X148247000Y-89041335D01*
X148247000Y-88758665D01*
X148191853Y-88481426D01*
X148083680Y-88220273D01*
X147926637Y-87985241D01*
X147726759Y-87785363D01*
X147572000Y-87681957D01*
X147572000Y-84694665D01*
X150537000Y-84694665D01*
X150537000Y-84977335D01*
X150592147Y-85254574D01*
X150700320Y-85515727D01*
X150857363Y-85750759D01*
X151057241Y-85950637D01*
X151292273Y-86107680D01*
X151553426Y-86215853D01*
X151830665Y-86271000D01*
X152113335Y-86271000D01*
X152390574Y-86215853D01*
X152651727Y-86107680D01*
X152886759Y-85950637D01*
X153008694Y-85828702D01*
X156158903Y-85828702D01*
X156230486Y-86072671D01*
X156485996Y-86193571D01*
X156760184Y-86262300D01*
X157042512Y-86276217D01*
X157162761Y-86258400D01*
X162074328Y-86258400D01*
X162074328Y-87985600D01*
X162086588Y-88110082D01*
X162122898Y-88229780D01*
X162181863Y-88340094D01*
X162261215Y-88436785D01*
X162357906Y-88516137D01*
X162468220Y-88575102D01*
X162532574Y-88594624D01*
X162469146Y-88651707D01*
X162293316Y-88887056D01*
X162166778Y-89152186D01*
X162121042Y-89302974D01*
X162242183Y-89535000D01*
X163449000Y-89535000D01*
X163449000Y-89515000D01*
X163703000Y-89515000D01*
X163703000Y-89535000D01*
X165989000Y-89535000D01*
X165989000Y-89515000D01*
X166243000Y-89515000D01*
X166243000Y-89535000D01*
X167449817Y-89535000D01*
X167570958Y-89302974D01*
X167525222Y-89152186D01*
X167398684Y-88887056D01*
X167222854Y-88651707D01*
X167004488Y-88455183D01*
X166905897Y-88396559D01*
X167071302Y-88286039D01*
X167280039Y-88077302D01*
X167444042Y-87831853D01*
X167557010Y-87559125D01*
X167614600Y-87269599D01*
X167614600Y-86974401D01*
X167557010Y-86684875D01*
X167444042Y-86412147D01*
X167280039Y-86166698D01*
X167071302Y-85957961D01*
X166825853Y-85793958D01*
X166553125Y-85680990D01*
X166263599Y-85623400D01*
X165968401Y-85623400D01*
X165678875Y-85680990D01*
X165406147Y-85793958D01*
X165160698Y-85957961D01*
X165046636Y-86072023D01*
X165029102Y-86014220D01*
X164970137Y-85903906D01*
X164890785Y-85807215D01*
X164794094Y-85727863D01*
X164683780Y-85668898D01*
X164564082Y-85632588D01*
X164439600Y-85620328D01*
X162712400Y-85620328D01*
X162587918Y-85632588D01*
X162468220Y-85668898D01*
X162357906Y-85727863D01*
X162261215Y-85807215D01*
X162181863Y-85903906D01*
X162122898Y-86014220D01*
X162086588Y-86133918D01*
X162074328Y-86258400D01*
X157162761Y-86258400D01*
X157322130Y-86234787D01*
X157588292Y-86139603D01*
X157713514Y-86072671D01*
X157785097Y-85828702D01*
X156972000Y-85015605D01*
X156158903Y-85828702D01*
X153008694Y-85828702D01*
X153086637Y-85750759D01*
X153243680Y-85515727D01*
X153351853Y-85254574D01*
X153407000Y-84977335D01*
X153407000Y-84906512D01*
X155531783Y-84906512D01*
X155573213Y-85186130D01*
X155668397Y-85452292D01*
X155735329Y-85577514D01*
X155979298Y-85649097D01*
X156792395Y-84836000D01*
X157151605Y-84836000D01*
X157964702Y-85649097D01*
X158208671Y-85577514D01*
X158329571Y-85322004D01*
X158398300Y-85047816D01*
X158412217Y-84765488D01*
X158370787Y-84485870D01*
X158275603Y-84219708D01*
X158208671Y-84094486D01*
X157964702Y-84022903D01*
X157151605Y-84836000D01*
X156792395Y-84836000D01*
X155979298Y-84022903D01*
X155735329Y-84094486D01*
X155614429Y-84349996D01*
X155545700Y-84624184D01*
X155531783Y-84906512D01*
X153407000Y-84906512D01*
X153407000Y-84694665D01*
X153351853Y-84417426D01*
X153243680Y-84156273D01*
X153086637Y-83921241D01*
X153008694Y-83843298D01*
X156158903Y-83843298D01*
X156972000Y-84656395D01*
X157785097Y-83843298D01*
X157713514Y-83599329D01*
X157458004Y-83478429D01*
X157183816Y-83409700D01*
X156901488Y-83395783D01*
X156621870Y-83437213D01*
X156355708Y-83532397D01*
X156230486Y-83599329D01*
X156158903Y-83843298D01*
X153008694Y-83843298D01*
X152886759Y-83721363D01*
X152651727Y-83564320D01*
X152390574Y-83456147D01*
X152113335Y-83401000D01*
X151830665Y-83401000D01*
X151553426Y-83456147D01*
X151292273Y-83564320D01*
X151057241Y-83721363D01*
X150857363Y-83921241D01*
X150700320Y-84156273D01*
X150592147Y-84417426D01*
X150537000Y-84694665D01*
X147572000Y-84694665D01*
X147572000Y-77247902D01*
X154717000Y-77247902D01*
X154717000Y-77692098D01*
X154803658Y-78127759D01*
X154973645Y-78538143D01*
X155220427Y-78907479D01*
X155534521Y-79221573D01*
X155903857Y-79468355D01*
X156314241Y-79638342D01*
X156749902Y-79725000D01*
X157194098Y-79725000D01*
X157629759Y-79638342D01*
X158040143Y-79468355D01*
X158409479Y-79221573D01*
X158723573Y-78907479D01*
X158970355Y-78538143D01*
X159140342Y-78127759D01*
X159227000Y-77692098D01*
X159227000Y-77247902D01*
X159140342Y-76812241D01*
X158970355Y-76401857D01*
X158723573Y-76032521D01*
X158675052Y-75984000D01*
X164423928Y-75984000D01*
X164436188Y-76108482D01*
X164472498Y-76228180D01*
X164531463Y-76338494D01*
X164610815Y-76435185D01*
X164707506Y-76514537D01*
X164817820Y-76573502D01*
X164937518Y-76609812D01*
X165062000Y-76622072D01*
X165576250Y-76619000D01*
X165735000Y-76460250D01*
X165735000Y-75311000D01*
X165989000Y-75311000D01*
X165989000Y-76460250D01*
X166147750Y-76619000D01*
X166662000Y-76622072D01*
X166786482Y-76609812D01*
X166906180Y-76573502D01*
X167016494Y-76514537D01*
X167113185Y-76435185D01*
X167192537Y-76338494D01*
X167251502Y-76228180D01*
X167287812Y-76108482D01*
X167300072Y-75984000D01*
X167297000Y-75469750D01*
X167138250Y-75311000D01*
X165989000Y-75311000D01*
X165735000Y-75311000D01*
X164585750Y-75311000D01*
X164427000Y-75469750D01*
X164423928Y-75984000D01*
X158675052Y-75984000D01*
X158409479Y-75718427D01*
X158040143Y-75471645D01*
X157629759Y-75301658D01*
X157194098Y-75215000D01*
X156749902Y-75215000D01*
X156314241Y-75301658D01*
X155903857Y-75471645D01*
X155534521Y-75718427D01*
X155220427Y-76032521D01*
X154973645Y-76401857D01*
X154803658Y-76812241D01*
X154717000Y-77247902D01*
X147572000Y-77247902D01*
X147572000Y-75759799D01*
X147933928Y-75397871D01*
X147933928Y-76070000D01*
X147946188Y-76194482D01*
X147982498Y-76314180D01*
X148041463Y-76424494D01*
X148120815Y-76521185D01*
X148217506Y-76600537D01*
X148327820Y-76659502D01*
X148447518Y-76695812D01*
X148572000Y-76708072D01*
X150372000Y-76708072D01*
X150496482Y-76695812D01*
X150616180Y-76659502D01*
X150726494Y-76600537D01*
X150823185Y-76521185D01*
X150902537Y-76424494D01*
X150961502Y-76314180D01*
X150997812Y-76194482D01*
X151010072Y-76070000D01*
X151010072Y-74384000D01*
X164423928Y-74384000D01*
X164427000Y-74898250D01*
X164585750Y-75057000D01*
X165735000Y-75057000D01*
X165735000Y-75037000D01*
X165989000Y-75037000D01*
X165989000Y-75057000D01*
X167138250Y-75057000D01*
X167297000Y-74898250D01*
X167300072Y-74384000D01*
X167287812Y-74259518D01*
X167251502Y-74139820D01*
X167192537Y-74029506D01*
X167113185Y-73932815D01*
X167016494Y-73853463D01*
X166906180Y-73794498D01*
X166810057Y-73765339D01*
X166976637Y-73598759D01*
X167133680Y-73363727D01*
X167241853Y-73102574D01*
X167297000Y-72825335D01*
X167297000Y-72542665D01*
X167241853Y-72265426D01*
X167133680Y-72004273D01*
X166976637Y-71769241D01*
X166776759Y-71569363D01*
X166541727Y-71412320D01*
X166280574Y-71304147D01*
X166003335Y-71249000D01*
X165720665Y-71249000D01*
X165443426Y-71304147D01*
X165182273Y-71412320D01*
X164947241Y-71569363D01*
X164747363Y-71769241D01*
X164590320Y-72004273D01*
X164482147Y-72265426D01*
X164427000Y-72542665D01*
X164427000Y-72825335D01*
X164482147Y-73102574D01*
X164590320Y-73363727D01*
X164747363Y-73598759D01*
X164913943Y-73765339D01*
X164817820Y-73794498D01*
X164707506Y-73853463D01*
X164610815Y-73932815D01*
X164531463Y-74029506D01*
X164472498Y-74139820D01*
X164436188Y-74259518D01*
X164423928Y-74384000D01*
X151010072Y-74384000D01*
X151010072Y-74270000D01*
X150997812Y-74145518D01*
X150961502Y-74025820D01*
X150902537Y-73915506D01*
X150823185Y-73818815D01*
X150726494Y-73739463D01*
X150626697Y-73686120D01*
X150664312Y-73648505D01*
X150832299Y-73397095D01*
X150948011Y-73117743D01*
X151007000Y-72821184D01*
X151007000Y-72518816D01*
X150948011Y-72222257D01*
X150832299Y-71942905D01*
X150664312Y-71691495D01*
X150450505Y-71477688D01*
X150364169Y-71420000D01*
X150450505Y-71362312D01*
X150664312Y-71148505D01*
X150832299Y-70897095D01*
X150948011Y-70617743D01*
X151007000Y-70321184D01*
X151007000Y-70018816D01*
X150948011Y-69722257D01*
X150832299Y-69442905D01*
X150664312Y-69191495D01*
X150450505Y-68977688D01*
X150199095Y-68809701D01*
X149919743Y-68693989D01*
X149623184Y-68635000D01*
X149320816Y-68635000D01*
X149024257Y-68693989D01*
X148744905Y-68809701D01*
X148493495Y-68977688D01*
X148279688Y-69191495D01*
X148111701Y-69442905D01*
X147995989Y-69722257D01*
X147937000Y-70018816D01*
X147937000Y-70321184D01*
X147995989Y-70617743D01*
X148111701Y-70897095D01*
X148279688Y-71148505D01*
X148493495Y-71362312D01*
X148579831Y-71420000D01*
X148493495Y-71477688D01*
X148279688Y-71691495D01*
X148111701Y-71942905D01*
X147995989Y-72222257D01*
X147937000Y-72518816D01*
X147937000Y-72821184D01*
X147995989Y-73117743D01*
X148016042Y-73166155D01*
X146300998Y-74881199D01*
X146272000Y-74904997D01*
X146248202Y-74933995D01*
X146248201Y-74933996D01*
X146177026Y-75020722D01*
X146106454Y-75152752D01*
X146062998Y-75296013D01*
X146048324Y-75444998D01*
X146052001Y-75482330D01*
X146052000Y-87681957D01*
X145897241Y-87785363D01*
X145697363Y-87985241D01*
X145540320Y-88220273D01*
X145432147Y-88481426D01*
X145377000Y-88758665D01*
X140685000Y-88758665D01*
X140685000Y-65685000D01*
X156397987Y-65685000D01*
X156314241Y-65701658D01*
G37*
%TD.AperFunction*%
D24*
X155704423Y-153924223D02*
X155642486Y-153957329D01*
X155570903Y-154201298D01*
X156384000Y-155014395D01*
X156398143Y-155000253D01*
X156577748Y-155179858D01*
X156563605Y-155194000D01*
X157376702Y-156007097D01*
X157620671Y-155935514D01*
X157651198Y-155870998D01*
X157848204Y-156068004D01*
X157872002Y-156097002D01*
X157987727Y-156191975D01*
X158119756Y-156262547D01*
X158263017Y-156306004D01*
X158374670Y-156317001D01*
X158374679Y-156317001D01*
X158412002Y-156320677D01*
X158449325Y-156317001D01*
X164059199Y-156317001D01*
X161769200Y-158607001D01*
X147694509Y-158607001D01*
X147739000Y-158383335D01*
X147739000Y-158100665D01*
X147683853Y-157823426D01*
X147575680Y-157562273D01*
X147418637Y-157327241D01*
X147218759Y-157127363D01*
X147064000Y-157023957D01*
X147064000Y-155052665D01*
X149949000Y-155052665D01*
X149949000Y-155335335D01*
X150004147Y-155612574D01*
X150112320Y-155873727D01*
X150269363Y-156108759D01*
X150469241Y-156308637D01*
X150704273Y-156465680D01*
X150965426Y-156573853D01*
X151242665Y-156629000D01*
X151525335Y-156629000D01*
X151802574Y-156573853D01*
X152063727Y-156465680D01*
X152298759Y-156308637D01*
X152420694Y-156186702D01*
X155570903Y-156186702D01*
X155642486Y-156430671D01*
X155897996Y-156551571D01*
X156172184Y-156620300D01*
X156454512Y-156634217D01*
X156734130Y-156592787D01*
X157000292Y-156497603D01*
X157125514Y-156430671D01*
X157197097Y-156186702D01*
X156384000Y-155373605D01*
X155570903Y-156186702D01*
X152420694Y-156186702D01*
X152498637Y-156108759D01*
X152655680Y-155873727D01*
X152763853Y-155612574D01*
X152819000Y-155335335D01*
X152819000Y-155264512D01*
X154943783Y-155264512D01*
X154985213Y-155544130D01*
X155080397Y-155810292D01*
X155147329Y-155935514D01*
X155391298Y-156007097D01*
X156204395Y-155194000D01*
X155391298Y-154380903D01*
X155147329Y-154452486D01*
X155026429Y-154707996D01*
X154957700Y-154982184D01*
X154943783Y-155264512D01*
X152819000Y-155264512D01*
X152819000Y-155052665D01*
X152763853Y-154775426D01*
X152655680Y-154514273D01*
X152498637Y-154279241D01*
X152298759Y-154079363D01*
X152063727Y-153922320D01*
X151802574Y-153814147D01*
X151525335Y-153759000D01*
X151242665Y-153759000D01*
X150965426Y-153814147D01*
X150704273Y-153922320D01*
X150469241Y-154079363D01*
X150269363Y-154279241D01*
X150112320Y-154514273D01*
X150004147Y-154775426D01*
X149949000Y-155052665D01*
X147064000Y-155052665D01*
X147064000Y-154746801D01*
X149753802Y-152057000D01*
X150584492Y-152057000D01*
X150795309Y-152036236D01*
X151065808Y-151954182D01*
X151315101Y-151820932D01*
X151533608Y-151641608D01*
X151712932Y-151423101D01*
X151734901Y-151382000D01*
X153162201Y-151382000D01*
X155704423Y-153924223D01*
%TA.AperFunction,Conductor*%
D25*
G36*
X155704423Y-153924223D02*
G01*
X155642486Y-153957329D01*
X155570903Y-154201298D01*
X156384000Y-155014395D01*
X156398143Y-155000253D01*
X156577748Y-155179858D01*
X156563605Y-155194000D01*
X157376702Y-156007097D01*
X157620671Y-155935514D01*
X157651198Y-155870998D01*
X157848204Y-156068004D01*
X157872002Y-156097002D01*
X157987727Y-156191975D01*
X158119756Y-156262547D01*
X158263017Y-156306004D01*
X158374670Y-156317001D01*
X158374679Y-156317001D01*
X158412002Y-156320677D01*
X158449325Y-156317001D01*
X164059199Y-156317001D01*
X161769200Y-158607001D01*
X147694509Y-158607001D01*
X147739000Y-158383335D01*
X147739000Y-158100665D01*
X147683853Y-157823426D01*
X147575680Y-157562273D01*
X147418637Y-157327241D01*
X147218759Y-157127363D01*
X147064000Y-157023957D01*
X147064000Y-155052665D01*
X149949000Y-155052665D01*
X149949000Y-155335335D01*
X150004147Y-155612574D01*
X150112320Y-155873727D01*
X150269363Y-156108759D01*
X150469241Y-156308637D01*
X150704273Y-156465680D01*
X150965426Y-156573853D01*
X151242665Y-156629000D01*
X151525335Y-156629000D01*
X151802574Y-156573853D01*
X152063727Y-156465680D01*
X152298759Y-156308637D01*
X152420694Y-156186702D01*
X155570903Y-156186702D01*
X155642486Y-156430671D01*
X155897996Y-156551571D01*
X156172184Y-156620300D01*
X156454512Y-156634217D01*
X156734130Y-156592787D01*
X157000292Y-156497603D01*
X157125514Y-156430671D01*
X157197097Y-156186702D01*
X156384000Y-155373605D01*
X155570903Y-156186702D01*
X152420694Y-156186702D01*
X152498637Y-156108759D01*
X152655680Y-155873727D01*
X152763853Y-155612574D01*
X152819000Y-155335335D01*
X152819000Y-155264512D01*
X154943783Y-155264512D01*
X154985213Y-155544130D01*
X155080397Y-155810292D01*
X155147329Y-155935514D01*
X155391298Y-156007097D01*
X156204395Y-155194000D01*
X155391298Y-154380903D01*
X155147329Y-154452486D01*
X155026429Y-154707996D01*
X154957700Y-154982184D01*
X154943783Y-155264512D01*
X152819000Y-155264512D01*
X152819000Y-155052665D01*
X152763853Y-154775426D01*
X152655680Y-154514273D01*
X152498637Y-154279241D01*
X152298759Y-154079363D01*
X152063727Y-153922320D01*
X151802574Y-153814147D01*
X151525335Y-153759000D01*
X151242665Y-153759000D01*
X150965426Y-153814147D01*
X150704273Y-153922320D01*
X150469241Y-154079363D01*
X150269363Y-154279241D01*
X150112320Y-154514273D01*
X150004147Y-154775426D01*
X149949000Y-155052665D01*
X147064000Y-155052665D01*
X147064000Y-154746801D01*
X149753802Y-152057000D01*
X150584492Y-152057000D01*
X150795309Y-152036236D01*
X151065808Y-151954182D01*
X151315101Y-151820932D01*
X151533608Y-151641608D01*
X151712932Y-151423101D01*
X151734901Y-151382000D01*
X153162201Y-151382000D01*
X155704423Y-153924223D01*
G37*
%TD.AperFunction*%
D24*
X162163001Y-142832197D02*
X162121886Y-142873312D01*
X161939335Y-142837000D01*
X161656665Y-142837000D01*
X161379426Y-142892147D01*
X161118273Y-143000320D01*
X160883241Y-143157363D01*
X160683363Y-143357241D01*
X160526320Y-143592273D01*
X160418147Y-143853426D01*
X160363000Y-144130665D01*
X160363000Y-144413335D01*
X160418147Y-144690574D01*
X160526320Y-144951727D01*
X160683363Y-145186759D01*
X160883241Y-145386637D01*
X161115759Y-145542000D01*
X160883241Y-145697363D01*
X160683363Y-145897241D01*
X160579957Y-146052000D01*
X159475072Y-146052000D01*
X159508367Y-145973818D01*
X159525904Y-145891039D01*
X159403915Y-145669000D01*
X157861000Y-145669000D01*
X157861000Y-145689000D01*
X157607000Y-145689000D01*
X157607000Y-145669000D01*
X156064085Y-145669000D01*
X155942096Y-145891039D01*
X155959633Y-145973818D01*
X156070285Y-146233646D01*
X156229500Y-146466895D01*
X156431161Y-146664601D01*
X156660741Y-146814735D01*
X156532899Y-146883068D01*
X156314392Y-147062392D01*
X156135068Y-147280899D01*
X156001818Y-147530192D01*
X155919764Y-147800691D01*
X155892057Y-148082000D01*
X155919764Y-148363309D01*
X156001818Y-148633808D01*
X156135068Y-148883101D01*
X156314392Y-149101608D01*
X156532899Y-149280932D01*
X156665858Y-149352000D01*
X156532899Y-149423068D01*
X156314392Y-149602392D01*
X156135068Y-149820899D01*
X156001818Y-150070192D01*
X155919764Y-150340691D01*
X155892057Y-150622000D01*
X155919764Y-150903309D01*
X156001818Y-151173808D01*
X156135068Y-151423101D01*
X156314392Y-151641608D01*
X156532899Y-151820932D01*
X156782192Y-151954182D01*
X157052691Y-152036236D01*
X157263508Y-152057000D01*
X158204492Y-152057000D01*
X158335314Y-152044115D01*
X160399312Y-154108114D01*
X160363000Y-154290665D01*
X160363000Y-154573335D01*
X160407491Y-154797001D01*
X158726805Y-154797001D01*
X154040806Y-150111003D01*
X154017003Y-150081999D01*
X153901278Y-149987026D01*
X153769249Y-149916454D01*
X153625988Y-149872997D01*
X153514335Y-149862000D01*
X153514324Y-149862000D01*
X153477002Y-149858324D01*
X153439680Y-149862000D01*
X151734901Y-149862000D01*
X151712932Y-149820899D01*
X151533608Y-149602392D01*
X151315101Y-149423068D01*
X151182142Y-149352000D01*
X151315101Y-149280932D01*
X151533608Y-149101608D01*
X151712932Y-148883101D01*
X151846182Y-148633808D01*
X151928236Y-148363309D01*
X151955943Y-148082000D01*
X151928236Y-147800691D01*
X151846182Y-147530192D01*
X151712932Y-147280899D01*
X151533608Y-147062392D01*
X151315101Y-146883068D01*
X151187259Y-146814735D01*
X151416839Y-146664601D01*
X151618500Y-146466895D01*
X151777715Y-146233646D01*
X151888367Y-145973818D01*
X151905904Y-145891039D01*
X151783915Y-145669000D01*
X150241000Y-145669000D01*
X150241000Y-145689000D01*
X149987000Y-145689000D01*
X149987000Y-145669000D01*
X148444085Y-145669000D01*
X148322096Y-145891039D01*
X148339633Y-145973818D01*
X148450285Y-146233646D01*
X148609500Y-146466895D01*
X148811161Y-146664601D01*
X149040741Y-146814735D01*
X148912899Y-146883068D01*
X148694392Y-147062392D01*
X148515068Y-147280899D01*
X148428890Y-147442127D01*
X148419724Y-147447026D01*
X148419722Y-147447027D01*
X148419723Y-147447027D01*
X148332996Y-147518201D01*
X148332992Y-147518205D01*
X148303999Y-147541999D01*
X148280205Y-147570992D01*
X147739000Y-148112197D01*
X147739000Y-147940665D01*
X147683853Y-147663426D01*
X147575680Y-147402273D01*
X147418637Y-147167241D01*
X147218759Y-146967363D01*
X146983727Y-146810320D01*
X146722574Y-146702147D01*
X146445335Y-146647000D01*
X146162665Y-146647000D01*
X145980115Y-146683312D01*
X143508000Y-144211199D01*
X143508000Y-143002000D01*
X148272057Y-143002000D01*
X148299764Y-143283309D01*
X148381818Y-143553808D01*
X148515068Y-143803101D01*
X148694392Y-144021608D01*
X148912899Y-144200932D01*
X149040741Y-144269265D01*
X148811161Y-144419399D01*
X148609500Y-144617105D01*
X148450285Y-144850354D01*
X148339633Y-145110182D01*
X148322096Y-145192961D01*
X148444085Y-145415000D01*
X149987000Y-145415000D01*
X149987000Y-145395000D01*
X150241000Y-145395000D01*
X150241000Y-145415000D01*
X151783915Y-145415000D01*
X151905904Y-145192961D01*
X151888367Y-145110182D01*
X151777715Y-144850354D01*
X151618500Y-144617105D01*
X151416839Y-144419399D01*
X151187259Y-144269265D01*
X151315101Y-144200932D01*
X151533608Y-144021608D01*
X151712932Y-143803101D01*
X151846182Y-143553808D01*
X151928236Y-143283309D01*
X151955943Y-143002000D01*
X151928236Y-142720691D01*
X151846182Y-142450192D01*
X151712932Y-142200899D01*
X151533608Y-141982392D01*
X151315101Y-141803068D01*
X151187259Y-141734735D01*
X151416839Y-141584601D01*
X151618500Y-141386895D01*
X151777715Y-141153646D01*
X151888367Y-140893818D01*
X151905904Y-140811039D01*
X151783915Y-140589000D01*
X150241000Y-140589000D01*
X150241000Y-140609000D01*
X149987000Y-140609000D01*
X149987000Y-140589000D01*
X148444085Y-140589000D01*
X148322096Y-140811039D01*
X148339633Y-140893818D01*
X148450285Y-141153646D01*
X148609500Y-141386895D01*
X148811161Y-141584601D01*
X149040741Y-141734735D01*
X148912899Y-141803068D01*
X148694392Y-141982392D01*
X148515068Y-142200899D01*
X148381818Y-142450192D01*
X148299764Y-142720691D01*
X148272057Y-143002000D01*
X143508000Y-143002000D01*
X143508000Y-141680043D01*
X143662759Y-141576637D01*
X143862637Y-141376759D01*
X144019680Y-141141727D01*
X144127853Y-140880574D01*
X144183000Y-140603335D01*
X144183000Y-140320665D01*
X144146688Y-140138114D01*
X144187803Y-140096999D01*
X144913491Y-140096999D01*
X144869000Y-140320665D01*
X144869000Y-140603335D01*
X144924147Y-140880574D01*
X145032320Y-141141727D01*
X145189363Y-141376759D01*
X145389241Y-141576637D01*
X145624273Y-141733680D01*
X145885426Y-141841853D01*
X146162665Y-141897000D01*
X146445335Y-141897000D01*
X146722574Y-141841853D01*
X146983727Y-141733680D01*
X147218759Y-141576637D01*
X147418637Y-141376759D01*
X147575680Y-141141727D01*
X147683853Y-140880574D01*
X147739000Y-140603335D01*
X147739000Y-140320665D01*
X147702688Y-140138114D01*
X148033792Y-139807010D01*
X148434674Y-139807010D01*
X148339633Y-140030182D01*
X148322096Y-140112961D01*
X148444085Y-140335000D01*
X149987000Y-140335000D01*
X149987000Y-140315000D01*
X150241000Y-140315000D01*
X150241000Y-140335000D01*
X151783915Y-140335000D01*
X151905904Y-140112961D01*
X151888367Y-140030182D01*
X151793326Y-139807010D01*
X156056970Y-139807010D01*
X156001818Y-139910192D01*
X155919764Y-140180691D01*
X155892057Y-140462000D01*
X155919764Y-140743309D01*
X156001818Y-141013808D01*
X156135068Y-141263101D01*
X156314392Y-141481608D01*
X156532899Y-141660932D01*
X156665858Y-141732000D01*
X156532899Y-141803068D01*
X156314392Y-141982392D01*
X156135068Y-142200899D01*
X156001818Y-142450192D01*
X155919764Y-142720691D01*
X155892057Y-143002000D01*
X155919764Y-143283309D01*
X156001818Y-143553808D01*
X156135068Y-143803101D01*
X156314392Y-144021608D01*
X156532899Y-144200932D01*
X156660741Y-144269265D01*
X156431161Y-144419399D01*
X156229500Y-144617105D01*
X156070285Y-144850354D01*
X155959633Y-145110182D01*
X155942096Y-145192961D01*
X156064085Y-145415000D01*
X157607000Y-145415000D01*
X157607000Y-145395000D01*
X157861000Y-145395000D01*
X157861000Y-145415000D01*
X159403915Y-145415000D01*
X159525904Y-145192961D01*
X159508367Y-145110182D01*
X159397715Y-144850354D01*
X159238500Y-144617105D01*
X159036839Y-144419399D01*
X158807259Y-144269265D01*
X158935101Y-144200932D01*
X159153608Y-144021608D01*
X159332932Y-143803101D01*
X159466182Y-143553808D01*
X159548236Y-143283309D01*
X159575943Y-143002000D01*
X159548236Y-142720691D01*
X159466182Y-142450192D01*
X159332932Y-142200899D01*
X159153608Y-141982392D01*
X158935101Y-141803068D01*
X158802142Y-141732000D01*
X158935101Y-141660932D01*
X159153608Y-141481608D01*
X159332932Y-141263101D01*
X159466182Y-141013808D01*
X159548236Y-140743309D01*
X159575943Y-140462000D01*
X159548236Y-140180691D01*
X159500727Y-140024074D01*
X161474114Y-138050688D01*
X161656665Y-138087000D01*
X161939335Y-138087000D01*
X162163001Y-138042509D01*
X162163001Y-142832197D01*
%TA.AperFunction,Conductor*%
D25*
G36*
X162163001Y-142832197D02*
G01*
X162121886Y-142873312D01*
X161939335Y-142837000D01*
X161656665Y-142837000D01*
X161379426Y-142892147D01*
X161118273Y-143000320D01*
X160883241Y-143157363D01*
X160683363Y-143357241D01*
X160526320Y-143592273D01*
X160418147Y-143853426D01*
X160363000Y-144130665D01*
X160363000Y-144413335D01*
X160418147Y-144690574D01*
X160526320Y-144951727D01*
X160683363Y-145186759D01*
X160883241Y-145386637D01*
X161115759Y-145542000D01*
X160883241Y-145697363D01*
X160683363Y-145897241D01*
X160579957Y-146052000D01*
X159475072Y-146052000D01*
X159508367Y-145973818D01*
X159525904Y-145891039D01*
X159403915Y-145669000D01*
X157861000Y-145669000D01*
X157861000Y-145689000D01*
X157607000Y-145689000D01*
X157607000Y-145669000D01*
X156064085Y-145669000D01*
X155942096Y-145891039D01*
X155959633Y-145973818D01*
X156070285Y-146233646D01*
X156229500Y-146466895D01*
X156431161Y-146664601D01*
X156660741Y-146814735D01*
X156532899Y-146883068D01*
X156314392Y-147062392D01*
X156135068Y-147280899D01*
X156001818Y-147530192D01*
X155919764Y-147800691D01*
X155892057Y-148082000D01*
X155919764Y-148363309D01*
X156001818Y-148633808D01*
X156135068Y-148883101D01*
X156314392Y-149101608D01*
X156532899Y-149280932D01*
X156665858Y-149352000D01*
X156532899Y-149423068D01*
X156314392Y-149602392D01*
X156135068Y-149820899D01*
X156001818Y-150070192D01*
X155919764Y-150340691D01*
X155892057Y-150622000D01*
X155919764Y-150903309D01*
X156001818Y-151173808D01*
X156135068Y-151423101D01*
X156314392Y-151641608D01*
X156532899Y-151820932D01*
X156782192Y-151954182D01*
X157052691Y-152036236D01*
X157263508Y-152057000D01*
X158204492Y-152057000D01*
X158335314Y-152044115D01*
X160399312Y-154108114D01*
X160363000Y-154290665D01*
X160363000Y-154573335D01*
X160407491Y-154797001D01*
X158726805Y-154797001D01*
X154040806Y-150111003D01*
X154017003Y-150081999D01*
X153901278Y-149987026D01*
X153769249Y-149916454D01*
X153625988Y-149872997D01*
X153514335Y-149862000D01*
X153514324Y-149862000D01*
X153477002Y-149858324D01*
X153439680Y-149862000D01*
X151734901Y-149862000D01*
X151712932Y-149820899D01*
X151533608Y-149602392D01*
X151315101Y-149423068D01*
X151182142Y-149352000D01*
X151315101Y-149280932D01*
X151533608Y-149101608D01*
X151712932Y-148883101D01*
X151846182Y-148633808D01*
X151928236Y-148363309D01*
X151955943Y-148082000D01*
X151928236Y-147800691D01*
X151846182Y-147530192D01*
X151712932Y-147280899D01*
X151533608Y-147062392D01*
X151315101Y-146883068D01*
X151187259Y-146814735D01*
X151416839Y-146664601D01*
X151618500Y-146466895D01*
X151777715Y-146233646D01*
X151888367Y-145973818D01*
X151905904Y-145891039D01*
X151783915Y-145669000D01*
X150241000Y-145669000D01*
X150241000Y-145689000D01*
X149987000Y-145689000D01*
X149987000Y-145669000D01*
X148444085Y-145669000D01*
X148322096Y-145891039D01*
X148339633Y-145973818D01*
X148450285Y-146233646D01*
X148609500Y-146466895D01*
X148811161Y-146664601D01*
X149040741Y-146814735D01*
X148912899Y-146883068D01*
X148694392Y-147062392D01*
X148515068Y-147280899D01*
X148428890Y-147442127D01*
X148419724Y-147447026D01*
X148419722Y-147447027D01*
X148419723Y-147447027D01*
X148332996Y-147518201D01*
X148332992Y-147518205D01*
X148303999Y-147541999D01*
X148280205Y-147570992D01*
X147739000Y-148112197D01*
X147739000Y-147940665D01*
X147683853Y-147663426D01*
X147575680Y-147402273D01*
X147418637Y-147167241D01*
X147218759Y-146967363D01*
X146983727Y-146810320D01*
X146722574Y-146702147D01*
X146445335Y-146647000D01*
X146162665Y-146647000D01*
X145980115Y-146683312D01*
X143508000Y-144211199D01*
X143508000Y-143002000D01*
X148272057Y-143002000D01*
X148299764Y-143283309D01*
X148381818Y-143553808D01*
X148515068Y-143803101D01*
X148694392Y-144021608D01*
X148912899Y-144200932D01*
X149040741Y-144269265D01*
X148811161Y-144419399D01*
X148609500Y-144617105D01*
X148450285Y-144850354D01*
X148339633Y-145110182D01*
X148322096Y-145192961D01*
X148444085Y-145415000D01*
X149987000Y-145415000D01*
X149987000Y-145395000D01*
X150241000Y-145395000D01*
X150241000Y-145415000D01*
X151783915Y-145415000D01*
X151905904Y-145192961D01*
X151888367Y-145110182D01*
X151777715Y-144850354D01*
X151618500Y-144617105D01*
X151416839Y-144419399D01*
X151187259Y-144269265D01*
X151315101Y-144200932D01*
X151533608Y-144021608D01*
X151712932Y-143803101D01*
X151846182Y-143553808D01*
X151928236Y-143283309D01*
X151955943Y-143002000D01*
X151928236Y-142720691D01*
X151846182Y-142450192D01*
X151712932Y-142200899D01*
X151533608Y-141982392D01*
X151315101Y-141803068D01*
X151187259Y-141734735D01*
X151416839Y-141584601D01*
X151618500Y-141386895D01*
X151777715Y-141153646D01*
X151888367Y-140893818D01*
X151905904Y-140811039D01*
X151783915Y-140589000D01*
X150241000Y-140589000D01*
X150241000Y-140609000D01*
X149987000Y-140609000D01*
X149987000Y-140589000D01*
X148444085Y-140589000D01*
X148322096Y-140811039D01*
X148339633Y-140893818D01*
X148450285Y-141153646D01*
X148609500Y-141386895D01*
X148811161Y-141584601D01*
X149040741Y-141734735D01*
X148912899Y-141803068D01*
X148694392Y-141982392D01*
X148515068Y-142200899D01*
X148381818Y-142450192D01*
X148299764Y-142720691D01*
X148272057Y-143002000D01*
X143508000Y-143002000D01*
X143508000Y-141680043D01*
X143662759Y-141576637D01*
X143862637Y-141376759D01*
X144019680Y-141141727D01*
X144127853Y-140880574D01*
X144183000Y-140603335D01*
X144183000Y-140320665D01*
X144146688Y-140138114D01*
X144187803Y-140096999D01*
X144913491Y-140096999D01*
X144869000Y-140320665D01*
X144869000Y-140603335D01*
X144924147Y-140880574D01*
X145032320Y-141141727D01*
X145189363Y-141376759D01*
X145389241Y-141576637D01*
X145624273Y-141733680D01*
X145885426Y-141841853D01*
X146162665Y-141897000D01*
X146445335Y-141897000D01*
X146722574Y-141841853D01*
X146983727Y-141733680D01*
X147218759Y-141576637D01*
X147418637Y-141376759D01*
X147575680Y-141141727D01*
X147683853Y-140880574D01*
X147739000Y-140603335D01*
X147739000Y-140320665D01*
X147702688Y-140138114D01*
X148033792Y-139807010D01*
X148434674Y-139807010D01*
X148339633Y-140030182D01*
X148322096Y-140112961D01*
X148444085Y-140335000D01*
X149987000Y-140335000D01*
X149987000Y-140315000D01*
X150241000Y-140315000D01*
X150241000Y-140335000D01*
X151783915Y-140335000D01*
X151905904Y-140112961D01*
X151888367Y-140030182D01*
X151793326Y-139807010D01*
X156056970Y-139807010D01*
X156001818Y-139910192D01*
X155919764Y-140180691D01*
X155892057Y-140462000D01*
X155919764Y-140743309D01*
X156001818Y-141013808D01*
X156135068Y-141263101D01*
X156314392Y-141481608D01*
X156532899Y-141660932D01*
X156665858Y-141732000D01*
X156532899Y-141803068D01*
X156314392Y-141982392D01*
X156135068Y-142200899D01*
X156001818Y-142450192D01*
X155919764Y-142720691D01*
X155892057Y-143002000D01*
X155919764Y-143283309D01*
X156001818Y-143553808D01*
X156135068Y-143803101D01*
X156314392Y-144021608D01*
X156532899Y-144200932D01*
X156660741Y-144269265D01*
X156431161Y-144419399D01*
X156229500Y-144617105D01*
X156070285Y-144850354D01*
X155959633Y-145110182D01*
X155942096Y-145192961D01*
X156064085Y-145415000D01*
X157607000Y-145415000D01*
X157607000Y-145395000D01*
X157861000Y-145395000D01*
X157861000Y-145415000D01*
X159403915Y-145415000D01*
X159525904Y-145192961D01*
X159508367Y-145110182D01*
X159397715Y-144850354D01*
X159238500Y-144617105D01*
X159036839Y-144419399D01*
X158807259Y-144269265D01*
X158935101Y-144200932D01*
X159153608Y-144021608D01*
X159332932Y-143803101D01*
X159466182Y-143553808D01*
X159548236Y-143283309D01*
X159575943Y-143002000D01*
X159548236Y-142720691D01*
X159466182Y-142450192D01*
X159332932Y-142200899D01*
X159153608Y-141982392D01*
X158935101Y-141803068D01*
X158802142Y-141732000D01*
X158935101Y-141660932D01*
X159153608Y-141481608D01*
X159332932Y-141263101D01*
X159466182Y-141013808D01*
X159548236Y-140743309D01*
X159575943Y-140462000D01*
X159548236Y-140180691D01*
X159500727Y-140024074D01*
X161474114Y-138050688D01*
X161656665Y-138087000D01*
X161939335Y-138087000D01*
X162163001Y-138042509D01*
X162163001Y-142832197D01*
G37*
%TD.AperFunction*%
D24*
X157478320Y-126663727D02*
X157635363Y-126898759D01*
X157835241Y-127098637D01*
X158070273Y-127255680D01*
X158331426Y-127363853D01*
X158608665Y-127419000D01*
X158789999Y-127419000D01*
X158790000Y-134105510D01*
X158685808Y-134049818D01*
X158494000Y-133991634D01*
X158494000Y-133756692D01*
X158497676Y-133719369D01*
X158494000Y-133682046D01*
X158494000Y-133682037D01*
X158483003Y-133570384D01*
X158439546Y-133427123D01*
X158368974Y-133295094D01*
X158274001Y-133179369D01*
X158245004Y-133155572D01*
X157331894Y-132242462D01*
X157436273Y-132186671D01*
X157507856Y-131942702D01*
X156694759Y-131129605D01*
X156680617Y-131143748D01*
X156501012Y-130964143D01*
X156515154Y-130950000D01*
X156874364Y-130950000D01*
X157687461Y-131763097D01*
X157931430Y-131691514D01*
X158052330Y-131436004D01*
X158121059Y-131161816D01*
X158134976Y-130879488D01*
X158093546Y-130599870D01*
X157998362Y-130333708D01*
X157931430Y-130208486D01*
X157687461Y-130136903D01*
X156874364Y-130950000D01*
X156515154Y-130950000D01*
X155702057Y-130136903D01*
X155458088Y-130208486D01*
X155406642Y-130317211D01*
X155046730Y-129957298D01*
X155881662Y-129957298D01*
X156694759Y-130770395D01*
X157507856Y-129957298D01*
X157436273Y-129713329D01*
X157180763Y-129592429D01*
X156906575Y-129523700D01*
X156624247Y-129509783D01*
X156344629Y-129551213D01*
X156078467Y-129646397D01*
X155953245Y-129713329D01*
X155881662Y-129957298D01*
X155046730Y-129957298D01*
X152116414Y-127026982D01*
X152244637Y-126898759D01*
X152348043Y-126744000D01*
X156821680Y-126744000D01*
X156859002Y-126747676D01*
X156896324Y-126744000D01*
X156896335Y-126744000D01*
X157007988Y-126733003D01*
X157151249Y-126689546D01*
X157283278Y-126618974D01*
X157399003Y-126524001D01*
X157413252Y-126506639D01*
X157478320Y-126663727D01*
%TA.AperFunction,Conductor*%
D25*
G36*
X157478320Y-126663727D02*
G01*
X157635363Y-126898759D01*
X157835241Y-127098637D01*
X158070273Y-127255680D01*
X158331426Y-127363853D01*
X158608665Y-127419000D01*
X158789999Y-127419000D01*
X158790000Y-134105510D01*
X158685808Y-134049818D01*
X158494000Y-133991634D01*
X158494000Y-133756692D01*
X158497676Y-133719369D01*
X158494000Y-133682046D01*
X158494000Y-133682037D01*
X158483003Y-133570384D01*
X158439546Y-133427123D01*
X158368974Y-133295094D01*
X158274001Y-133179369D01*
X158245004Y-133155572D01*
X157331894Y-132242462D01*
X157436273Y-132186671D01*
X157507856Y-131942702D01*
X156694759Y-131129605D01*
X156680617Y-131143748D01*
X156501012Y-130964143D01*
X156515154Y-130950000D01*
X156874364Y-130950000D01*
X157687461Y-131763097D01*
X157931430Y-131691514D01*
X158052330Y-131436004D01*
X158121059Y-131161816D01*
X158134976Y-130879488D01*
X158093546Y-130599870D01*
X157998362Y-130333708D01*
X157931430Y-130208486D01*
X157687461Y-130136903D01*
X156874364Y-130950000D01*
X156515154Y-130950000D01*
X155702057Y-130136903D01*
X155458088Y-130208486D01*
X155406642Y-130317211D01*
X155046730Y-129957298D01*
X155881662Y-129957298D01*
X156694759Y-130770395D01*
X157507856Y-129957298D01*
X157436273Y-129713329D01*
X157180763Y-129592429D01*
X156906575Y-129523700D01*
X156624247Y-129509783D01*
X156344629Y-129551213D01*
X156078467Y-129646397D01*
X155953245Y-129713329D01*
X155881662Y-129957298D01*
X155046730Y-129957298D01*
X152116414Y-127026982D01*
X152244637Y-126898759D01*
X152348043Y-126744000D01*
X156821680Y-126744000D01*
X156859002Y-126747676D01*
X156896324Y-126744000D01*
X156896335Y-126744000D01*
X157007988Y-126733003D01*
X157151249Y-126689546D01*
X157283278Y-126618974D01*
X157399003Y-126524001D01*
X157413252Y-126506639D01*
X157478320Y-126663727D01*
G37*
%TD.AperFunction*%
D24*
X149042009Y-126235189D02*
X146627887Y-128649312D01*
X146445335Y-128613000D01*
X146162665Y-128613000D01*
X145885426Y-128668147D01*
X145624273Y-128776320D01*
X145389241Y-128933363D01*
X145189363Y-129133241D01*
X145032320Y-129368273D01*
X144966641Y-129526837D01*
X143851805Y-128412002D01*
X143828002Y-128382998D01*
X143799004Y-128359200D01*
X142840999Y-127401196D01*
X142840999Y-126964072D01*
X144106000Y-126964072D01*
X144230482Y-126951812D01*
X144350180Y-126915502D01*
X144460494Y-126856537D01*
X144557185Y-126777185D01*
X144636537Y-126680494D01*
X144695502Y-126570180D01*
X144719966Y-126489534D01*
X144795731Y-126573588D01*
X145029080Y-126747641D01*
X145291901Y-126872825D01*
X145439110Y-126917476D01*
X145669000Y-126796155D01*
X145669000Y-125603000D01*
X145923000Y-125603000D01*
X145923000Y-126796155D01*
X146152890Y-126917476D01*
X146300099Y-126872825D01*
X146562920Y-126747641D01*
X146796269Y-126573588D01*
X146991178Y-126357355D01*
X147140157Y-126107252D01*
X147237481Y-125832891D01*
X147116814Y-125603000D01*
X145923000Y-125603000D01*
X145669000Y-125603000D01*
X145649000Y-125603000D01*
X145649000Y-125349000D01*
X145669000Y-125349000D01*
X145669000Y-125329000D01*
X145923000Y-125329000D01*
X145923000Y-125349000D01*
X147116814Y-125349000D01*
X147237481Y-125119109D01*
X147140157Y-124844748D01*
X146991178Y-124594645D01*
X146796269Y-124378412D01*
X146562920Y-124204359D01*
X146300099Y-124079175D01*
X146152890Y-124034524D01*
X145923002Y-124155844D01*
X145923002Y-123991000D01*
X145815801Y-123991000D01*
X149042010Y-120764792D01*
X149042009Y-126235189D01*
%TA.AperFunction,Conductor*%
D25*
G36*
X149042009Y-126235189D02*
G01*
X146627887Y-128649312D01*
X146445335Y-128613000D01*
X146162665Y-128613000D01*
X145885426Y-128668147D01*
X145624273Y-128776320D01*
X145389241Y-128933363D01*
X145189363Y-129133241D01*
X145032320Y-129368273D01*
X144966641Y-129526837D01*
X143851805Y-128412002D01*
X143828002Y-128382998D01*
X143799004Y-128359200D01*
X142840999Y-127401196D01*
X142840999Y-126964072D01*
X144106000Y-126964072D01*
X144230482Y-126951812D01*
X144350180Y-126915502D01*
X144460494Y-126856537D01*
X144557185Y-126777185D01*
X144636537Y-126680494D01*
X144695502Y-126570180D01*
X144719966Y-126489534D01*
X144795731Y-126573588D01*
X145029080Y-126747641D01*
X145291901Y-126872825D01*
X145439110Y-126917476D01*
X145669000Y-126796155D01*
X145669000Y-125603000D01*
X145923000Y-125603000D01*
X145923000Y-126796155D01*
X146152890Y-126917476D01*
X146300099Y-126872825D01*
X146562920Y-126747641D01*
X146796269Y-126573588D01*
X146991178Y-126357355D01*
X147140157Y-126107252D01*
X147237481Y-125832891D01*
X147116814Y-125603000D01*
X145923000Y-125603000D01*
X145669000Y-125603000D01*
X145649000Y-125603000D01*
X145649000Y-125349000D01*
X145669000Y-125349000D01*
X145669000Y-125329000D01*
X145923000Y-125329000D01*
X145923000Y-125349000D01*
X147116814Y-125349000D01*
X147237481Y-125119109D01*
X147140157Y-124844748D01*
X146991178Y-124594645D01*
X146796269Y-124378412D01*
X146562920Y-124204359D01*
X146300099Y-124079175D01*
X146152890Y-124034524D01*
X145923002Y-124155844D01*
X145923002Y-123991000D01*
X145815801Y-123991000D01*
X149042010Y-120764792D01*
X149042009Y-126235189D01*
G37*
%TD.AperFunction*%
D24*
X148889818Y-94531808D02*
X149023068Y-94781101D01*
X149202392Y-94999608D01*
X149420899Y-95178932D01*
X149553858Y-95250000D01*
X149420899Y-95321068D01*
X149202392Y-95500392D01*
X149023068Y-95718899D01*
X148889818Y-95968192D01*
X148807764Y-96238691D01*
X148780057Y-96520000D01*
X148807764Y-96801309D01*
X148889818Y-97071808D01*
X149023068Y-97321101D01*
X149202392Y-97539608D01*
X149420899Y-97718932D01*
X149670192Y-97852182D01*
X149940691Y-97934236D01*
X150151508Y-97955000D01*
X151092492Y-97955000D01*
X151303309Y-97934236D01*
X151573808Y-97852182D01*
X151823101Y-97718932D01*
X152041608Y-97539608D01*
X152220932Y-97321101D01*
X152354182Y-97071808D01*
X152436236Y-96801309D01*
X152463943Y-96520000D01*
X152436236Y-96238691D01*
X152354182Y-95968192D01*
X152220932Y-95718899D01*
X152041608Y-95500392D01*
X151823101Y-95321068D01*
X151690142Y-95250000D01*
X151823101Y-95178932D01*
X152006567Y-95028366D01*
X156292424Y-99314223D01*
X156230486Y-99347329D01*
X156158903Y-99591298D01*
X156972000Y-100404395D01*
X156986143Y-100390253D01*
X157165748Y-100569858D01*
X157151605Y-100584000D01*
X157964702Y-101397097D01*
X158208671Y-101325514D01*
X158239198Y-101260998D01*
X163229002Y-106250802D01*
X163229001Y-121193928D01*
X161964000Y-121193928D01*
X161839518Y-121206188D01*
X161719820Y-121242498D01*
X161609506Y-121301463D01*
X161512815Y-121380815D01*
X161433463Y-121477506D01*
X161374498Y-121587820D01*
X161338188Y-121707518D01*
X161325928Y-121832000D01*
X161325928Y-121922000D01*
X160198324Y-121922000D01*
X160161001Y-121918324D01*
X160123678Y-121922000D01*
X160123669Y-121922000D01*
X160094817Y-121924842D01*
X160021680Y-121748273D01*
X159864637Y-121513241D01*
X159664759Y-121313363D01*
X159429727Y-121156320D01*
X159168574Y-121048147D01*
X158891335Y-120993000D01*
X158608665Y-120993000D01*
X158331426Y-121048147D01*
X158070273Y-121156320D01*
X157835241Y-121313363D01*
X157635363Y-121513241D01*
X157478320Y-121748273D01*
X157370147Y-122009426D01*
X157315000Y-122286665D01*
X157315000Y-122569335D01*
X157370147Y-122846574D01*
X157478320Y-123107727D01*
X157635363Y-123342759D01*
X157835241Y-123542637D01*
X158069222Y-123698978D01*
X156544201Y-125224000D01*
X152348043Y-125224000D01*
X152244637Y-125069241D01*
X152044759Y-124869363D01*
X151809727Y-124712320D01*
X151548574Y-124604147D01*
X151271335Y-124549000D01*
X150988665Y-124549000D01*
X150711426Y-124604147D01*
X150562009Y-124666037D01*
X150562009Y-123741503D01*
X150780960Y-123819909D01*
X151003000Y-123698624D01*
X151003000Y-122555000D01*
X151257000Y-122555000D01*
X151257000Y-123698624D01*
X151479040Y-123819909D01*
X151743881Y-123725070D01*
X151985131Y-123580385D01*
X152193519Y-123391414D01*
X152361037Y-123165420D01*
X152481246Y-122911087D01*
X152521904Y-122777039D01*
X152399915Y-122555000D01*
X151257000Y-122555000D01*
X151003000Y-122555000D01*
X150983000Y-122555000D01*
X150983000Y-122301000D01*
X151003000Y-122301000D01*
X151003000Y-121157376D01*
X151257000Y-121157376D01*
X151257000Y-122301000D01*
X152399915Y-122301000D01*
X152521904Y-122078961D01*
X152481246Y-121944913D01*
X152361037Y-121690580D01*
X152193519Y-121464586D01*
X151985131Y-121275615D01*
X151743881Y-121130930D01*
X151479040Y-121036091D01*
X151257000Y-121157376D01*
X151003000Y-121157376D01*
X150780960Y-121036091D01*
X150562009Y-121114497D01*
X150562009Y-117819794D01*
X150733901Y-117647902D01*
X154597000Y-117647902D01*
X154597000Y-118092098D01*
X154683658Y-118527759D01*
X154853645Y-118938143D01*
X155100427Y-119307479D01*
X155414521Y-119621573D01*
X155783857Y-119868355D01*
X156194241Y-120038342D01*
X156629902Y-120125000D01*
X157074098Y-120125000D01*
X157509759Y-120038342D01*
X157920143Y-119868355D01*
X158289479Y-119621573D01*
X158603573Y-119307479D01*
X158850355Y-118938143D01*
X159020342Y-118527759D01*
X159107000Y-118092098D01*
X159107000Y-117647902D01*
X159020342Y-117212241D01*
X158850355Y-116801857D01*
X158603573Y-116432521D01*
X158289479Y-116118427D01*
X157920143Y-115871645D01*
X157509759Y-115701658D01*
X157074098Y-115615000D01*
X156629902Y-115615000D01*
X156194241Y-115701658D01*
X155783857Y-115871645D01*
X155414521Y-116118427D01*
X155100427Y-116432521D01*
X154853645Y-116801857D01*
X154683658Y-117212241D01*
X154597000Y-117647902D01*
X150733901Y-117647902D01*
X151088005Y-117293799D01*
X151117002Y-117270002D01*
X151211975Y-117154277D01*
X151282547Y-117022248D01*
X151326004Y-116878987D01*
X151337001Y-116767334D01*
X151337001Y-116767325D01*
X151340677Y-116730002D01*
X151337001Y-116692679D01*
X151337001Y-114332323D01*
X151340677Y-114295000D01*
X151337001Y-114257677D01*
X151337001Y-114257668D01*
X151326004Y-114146015D01*
X151282547Y-114002754D01*
X151211975Y-113870724D01*
X151140800Y-113783998D01*
X151117002Y-113755000D01*
X151088004Y-113731202D01*
X150835731Y-113478930D01*
X150887000Y-113221184D01*
X150887000Y-112918816D01*
X150828011Y-112622257D01*
X150712299Y-112342905D01*
X150544312Y-112091495D01*
X150330505Y-111877688D01*
X150187690Y-111782262D01*
X150236475Y-111634080D01*
X149352000Y-110749605D01*
X149337858Y-110763748D01*
X149158253Y-110584143D01*
X149172395Y-110570000D01*
X149531605Y-110570000D01*
X150416080Y-111454475D01*
X150670261Y-111370792D01*
X150801158Y-111098225D01*
X150876365Y-110805358D01*
X150892991Y-110503447D01*
X150850397Y-110204093D01*
X150750222Y-109918801D01*
X150670261Y-109769208D01*
X150416080Y-109685525D01*
X149531605Y-110570000D01*
X149172395Y-110570000D01*
X149158253Y-110555858D01*
X149337858Y-110376253D01*
X149352000Y-110390395D01*
X150236475Y-109505920D01*
X150152792Y-109251739D01*
X149880225Y-109120842D01*
X149587358Y-109045635D01*
X149285447Y-109029009D01*
X148986093Y-109071603D01*
X148700801Y-109171778D01*
X148697001Y-109173809D01*
X148697001Y-108047902D01*
X154597000Y-108047902D01*
X154597000Y-108492098D01*
X154683658Y-108927759D01*
X154853645Y-109338143D01*
X155100427Y-109707479D01*
X155414521Y-110021573D01*
X155783857Y-110268355D01*
X156194241Y-110438342D01*
X156629902Y-110525000D01*
X157074098Y-110525000D01*
X157509759Y-110438342D01*
X157920143Y-110268355D01*
X158289479Y-110021573D01*
X158603573Y-109707479D01*
X158850355Y-109338143D01*
X159020342Y-108927759D01*
X159107000Y-108492098D01*
X159107000Y-108047902D01*
X159020342Y-107612241D01*
X158850355Y-107201857D01*
X158603573Y-106832521D01*
X158289479Y-106518427D01*
X157920143Y-106271645D01*
X157509759Y-106101658D01*
X157074098Y-106015000D01*
X156629902Y-106015000D01*
X156194241Y-106101658D01*
X155783857Y-106271645D01*
X155414521Y-106518427D01*
X155100427Y-106832521D01*
X154853645Y-107201857D01*
X154683658Y-107612241D01*
X154597000Y-108047902D01*
X148697001Y-108047902D01*
X148697001Y-100442665D01*
X150537000Y-100442665D01*
X150537000Y-100725335D01*
X150592147Y-101002574D01*
X150700320Y-101263727D01*
X150857363Y-101498759D01*
X151057241Y-101698637D01*
X151292273Y-101855680D01*
X151553426Y-101963853D01*
X151830665Y-102019000D01*
X152113335Y-102019000D01*
X152390574Y-101963853D01*
X152651727Y-101855680D01*
X152886759Y-101698637D01*
X153008694Y-101576702D01*
X156158903Y-101576702D01*
X156230486Y-101820671D01*
X156485996Y-101941571D01*
X156760184Y-102010300D01*
X157042512Y-102024217D01*
X157322130Y-101982787D01*
X157588292Y-101887603D01*
X157713514Y-101820671D01*
X157785097Y-101576702D01*
X156972000Y-100763605D01*
X156158903Y-101576702D01*
X153008694Y-101576702D01*
X153086637Y-101498759D01*
X153243680Y-101263727D01*
X153351853Y-101002574D01*
X153407000Y-100725335D01*
X153407000Y-100654512D01*
X155531783Y-100654512D01*
X155573213Y-100934130D01*
X155668397Y-101200292D01*
X155735329Y-101325514D01*
X155979298Y-101397097D01*
X156792395Y-100584000D01*
X155979298Y-99770903D01*
X155735329Y-99842486D01*
X155614429Y-100097996D01*
X155545700Y-100372184D01*
X155531783Y-100654512D01*
X153407000Y-100654512D01*
X153407000Y-100442665D01*
X153351853Y-100165426D01*
X153243680Y-99904273D01*
X153086637Y-99669241D01*
X152886759Y-99469363D01*
X152651727Y-99312320D01*
X152390574Y-99204147D01*
X152113335Y-99149000D01*
X151830665Y-99149000D01*
X151553426Y-99204147D01*
X151292273Y-99312320D01*
X151057241Y-99469363D01*
X150857363Y-99669241D01*
X150700320Y-99904273D01*
X150592147Y-100165426D01*
X150537000Y-100442665D01*
X148697001Y-100442665D01*
X148697001Y-94439800D01*
X148823527Y-94313274D01*
X148889818Y-94531808D01*
%TA.AperFunction,Conductor*%
D25*
G36*
X148889818Y-94531808D02*
G01*
X149023068Y-94781101D01*
X149202392Y-94999608D01*
X149420899Y-95178932D01*
X149553858Y-95250000D01*
X149420899Y-95321068D01*
X149202392Y-95500392D01*
X149023068Y-95718899D01*
X148889818Y-95968192D01*
X148807764Y-96238691D01*
X148780057Y-96520000D01*
X148807764Y-96801309D01*
X148889818Y-97071808D01*
X149023068Y-97321101D01*
X149202392Y-97539608D01*
X149420899Y-97718932D01*
X149670192Y-97852182D01*
X149940691Y-97934236D01*
X150151508Y-97955000D01*
X151092492Y-97955000D01*
X151303309Y-97934236D01*
X151573808Y-97852182D01*
X151823101Y-97718932D01*
X152041608Y-97539608D01*
X152220932Y-97321101D01*
X152354182Y-97071808D01*
X152436236Y-96801309D01*
X152463943Y-96520000D01*
X152436236Y-96238691D01*
X152354182Y-95968192D01*
X152220932Y-95718899D01*
X152041608Y-95500392D01*
X151823101Y-95321068D01*
X151690142Y-95250000D01*
X151823101Y-95178932D01*
X152006567Y-95028366D01*
X156292424Y-99314223D01*
X156230486Y-99347329D01*
X156158903Y-99591298D01*
X156972000Y-100404395D01*
X156986143Y-100390253D01*
X157165748Y-100569858D01*
X157151605Y-100584000D01*
X157964702Y-101397097D01*
X158208671Y-101325514D01*
X158239198Y-101260998D01*
X163229002Y-106250802D01*
X163229001Y-121193928D01*
X161964000Y-121193928D01*
X161839518Y-121206188D01*
X161719820Y-121242498D01*
X161609506Y-121301463D01*
X161512815Y-121380815D01*
X161433463Y-121477506D01*
X161374498Y-121587820D01*
X161338188Y-121707518D01*
X161325928Y-121832000D01*
X161325928Y-121922000D01*
X160198324Y-121922000D01*
X160161001Y-121918324D01*
X160123678Y-121922000D01*
X160123669Y-121922000D01*
X160094817Y-121924842D01*
X160021680Y-121748273D01*
X159864637Y-121513241D01*
X159664759Y-121313363D01*
X159429727Y-121156320D01*
X159168574Y-121048147D01*
X158891335Y-120993000D01*
X158608665Y-120993000D01*
X158331426Y-121048147D01*
X158070273Y-121156320D01*
X157835241Y-121313363D01*
X157635363Y-121513241D01*
X157478320Y-121748273D01*
X157370147Y-122009426D01*
X157315000Y-122286665D01*
X157315000Y-122569335D01*
X157370147Y-122846574D01*
X157478320Y-123107727D01*
X157635363Y-123342759D01*
X157835241Y-123542637D01*
X158069222Y-123698978D01*
X156544201Y-125224000D01*
X152348043Y-125224000D01*
X152244637Y-125069241D01*
X152044759Y-124869363D01*
X151809727Y-124712320D01*
X151548574Y-124604147D01*
X151271335Y-124549000D01*
X150988665Y-124549000D01*
X150711426Y-124604147D01*
X150562009Y-124666037D01*
X150562009Y-123741503D01*
X150780960Y-123819909D01*
X151003000Y-123698624D01*
X151003000Y-122555000D01*
X151257000Y-122555000D01*
X151257000Y-123698624D01*
X151479040Y-123819909D01*
X151743881Y-123725070D01*
X151985131Y-123580385D01*
X152193519Y-123391414D01*
X152361037Y-123165420D01*
X152481246Y-122911087D01*
X152521904Y-122777039D01*
X152399915Y-122555000D01*
X151257000Y-122555000D01*
X151003000Y-122555000D01*
X150983000Y-122555000D01*
X150983000Y-122301000D01*
X151003000Y-122301000D01*
X151003000Y-121157376D01*
X151257000Y-121157376D01*
X151257000Y-122301000D01*
X152399915Y-122301000D01*
X152521904Y-122078961D01*
X152481246Y-121944913D01*
X152361037Y-121690580D01*
X152193519Y-121464586D01*
X151985131Y-121275615D01*
X151743881Y-121130930D01*
X151479040Y-121036091D01*
X151257000Y-121157376D01*
X151003000Y-121157376D01*
X150780960Y-121036091D01*
X150562009Y-121114497D01*
X150562009Y-117819794D01*
X150733901Y-117647902D01*
X154597000Y-117647902D01*
X154597000Y-118092098D01*
X154683658Y-118527759D01*
X154853645Y-118938143D01*
X155100427Y-119307479D01*
X155414521Y-119621573D01*
X155783857Y-119868355D01*
X156194241Y-120038342D01*
X156629902Y-120125000D01*
X157074098Y-120125000D01*
X157509759Y-120038342D01*
X157920143Y-119868355D01*
X158289479Y-119621573D01*
X158603573Y-119307479D01*
X158850355Y-118938143D01*
X159020342Y-118527759D01*
X159107000Y-118092098D01*
X159107000Y-117647902D01*
X159020342Y-117212241D01*
X158850355Y-116801857D01*
X158603573Y-116432521D01*
X158289479Y-116118427D01*
X157920143Y-115871645D01*
X157509759Y-115701658D01*
X157074098Y-115615000D01*
X156629902Y-115615000D01*
X156194241Y-115701658D01*
X155783857Y-115871645D01*
X155414521Y-116118427D01*
X155100427Y-116432521D01*
X154853645Y-116801857D01*
X154683658Y-117212241D01*
X154597000Y-117647902D01*
X150733901Y-117647902D01*
X151088005Y-117293799D01*
X151117002Y-117270002D01*
X151211975Y-117154277D01*
X151282547Y-117022248D01*
X151326004Y-116878987D01*
X151337001Y-116767334D01*
X151337001Y-116767325D01*
X151340677Y-116730002D01*
X151337001Y-116692679D01*
X151337001Y-114332323D01*
X151340677Y-114295000D01*
X151337001Y-114257677D01*
X151337001Y-114257668D01*
X151326004Y-114146015D01*
X151282547Y-114002754D01*
X151211975Y-113870724D01*
X151140800Y-113783998D01*
X151117002Y-113755000D01*
X151088004Y-113731202D01*
X150835731Y-113478930D01*
X150887000Y-113221184D01*
X150887000Y-112918816D01*
X150828011Y-112622257D01*
X150712299Y-112342905D01*
X150544312Y-112091495D01*
X150330505Y-111877688D01*
X150187690Y-111782262D01*
X150236475Y-111634080D01*
X149352000Y-110749605D01*
X149337858Y-110763748D01*
X149158253Y-110584143D01*
X149172395Y-110570000D01*
X149531605Y-110570000D01*
X150416080Y-111454475D01*
X150670261Y-111370792D01*
X150801158Y-111098225D01*
X150876365Y-110805358D01*
X150892991Y-110503447D01*
X150850397Y-110204093D01*
X150750222Y-109918801D01*
X150670261Y-109769208D01*
X150416080Y-109685525D01*
X149531605Y-110570000D01*
X149172395Y-110570000D01*
X149158253Y-110555858D01*
X149337858Y-110376253D01*
X149352000Y-110390395D01*
X150236475Y-109505920D01*
X150152792Y-109251739D01*
X149880225Y-109120842D01*
X149587358Y-109045635D01*
X149285447Y-109029009D01*
X148986093Y-109071603D01*
X148700801Y-109171778D01*
X148697001Y-109173809D01*
X148697001Y-108047902D01*
X154597000Y-108047902D01*
X154597000Y-108492098D01*
X154683658Y-108927759D01*
X154853645Y-109338143D01*
X155100427Y-109707479D01*
X155414521Y-110021573D01*
X155783857Y-110268355D01*
X156194241Y-110438342D01*
X156629902Y-110525000D01*
X157074098Y-110525000D01*
X157509759Y-110438342D01*
X157920143Y-110268355D01*
X158289479Y-110021573D01*
X158603573Y-109707479D01*
X158850355Y-109338143D01*
X159020342Y-108927759D01*
X159107000Y-108492098D01*
X159107000Y-108047902D01*
X159020342Y-107612241D01*
X158850355Y-107201857D01*
X158603573Y-106832521D01*
X158289479Y-106518427D01*
X157920143Y-106271645D01*
X157509759Y-106101658D01*
X157074098Y-106015000D01*
X156629902Y-106015000D01*
X156194241Y-106101658D01*
X155783857Y-106271645D01*
X155414521Y-106518427D01*
X155100427Y-106832521D01*
X154853645Y-107201857D01*
X154683658Y-107612241D01*
X154597000Y-108047902D01*
X148697001Y-108047902D01*
X148697001Y-100442665D01*
X150537000Y-100442665D01*
X150537000Y-100725335D01*
X150592147Y-101002574D01*
X150700320Y-101263727D01*
X150857363Y-101498759D01*
X151057241Y-101698637D01*
X151292273Y-101855680D01*
X151553426Y-101963853D01*
X151830665Y-102019000D01*
X152113335Y-102019000D01*
X152390574Y-101963853D01*
X152651727Y-101855680D01*
X152886759Y-101698637D01*
X153008694Y-101576702D01*
X156158903Y-101576702D01*
X156230486Y-101820671D01*
X156485996Y-101941571D01*
X156760184Y-102010300D01*
X157042512Y-102024217D01*
X157322130Y-101982787D01*
X157588292Y-101887603D01*
X157713514Y-101820671D01*
X157785097Y-101576702D01*
X156972000Y-100763605D01*
X156158903Y-101576702D01*
X153008694Y-101576702D01*
X153086637Y-101498759D01*
X153243680Y-101263727D01*
X153351853Y-101002574D01*
X153407000Y-100725335D01*
X153407000Y-100654512D01*
X155531783Y-100654512D01*
X155573213Y-100934130D01*
X155668397Y-101200292D01*
X155735329Y-101325514D01*
X155979298Y-101397097D01*
X156792395Y-100584000D01*
X155979298Y-99770903D01*
X155735329Y-99842486D01*
X155614429Y-100097996D01*
X155545700Y-100372184D01*
X155531783Y-100654512D01*
X153407000Y-100654512D01*
X153407000Y-100442665D01*
X153351853Y-100165426D01*
X153243680Y-99904273D01*
X153086637Y-99669241D01*
X152886759Y-99469363D01*
X152651727Y-99312320D01*
X152390574Y-99204147D01*
X152113335Y-99149000D01*
X151830665Y-99149000D01*
X151553426Y-99204147D01*
X151292273Y-99312320D01*
X151057241Y-99469363D01*
X150857363Y-99669241D01*
X150700320Y-99904273D01*
X150592147Y-100165426D01*
X150537000Y-100442665D01*
X148697001Y-100442665D01*
X148697001Y-94439800D01*
X148823527Y-94313274D01*
X148889818Y-94531808D01*
G37*
%TD.AperFunction*%
D24*
X147862498Y-116714180D02*
X147921463Y-116824494D01*
X148000815Y-116921185D01*
X148097506Y-117000537D01*
X148207820Y-117059502D01*
X148327518Y-117095812D01*
X148452000Y-117108072D01*
X148592001Y-117108072D01*
X148592000Y-119065198D01*
X147210228Y-120446970D01*
X147116814Y-120269000D01*
X145923000Y-120269000D01*
X145923000Y-121462155D01*
X146101070Y-121556129D01*
X143669271Y-123987928D01*
X142840999Y-123987928D01*
X142840999Y-121630072D01*
X144106000Y-121630072D01*
X144230482Y-121617812D01*
X144350180Y-121581502D01*
X144460494Y-121522537D01*
X144557185Y-121443185D01*
X144636537Y-121346494D01*
X144695502Y-121236180D01*
X144719966Y-121155534D01*
X144795731Y-121239588D01*
X145029080Y-121413641D01*
X145291901Y-121538825D01*
X145439110Y-121583476D01*
X145669000Y-121462155D01*
X145669000Y-120269000D01*
X145649000Y-120269000D01*
X145649000Y-120015000D01*
X145669000Y-120015000D01*
X145669000Y-119995000D01*
X145923000Y-119995000D01*
X145923000Y-120015000D01*
X147116814Y-120015000D01*
X147237481Y-119785109D01*
X147140157Y-119510748D01*
X146991178Y-119260645D01*
X146796269Y-119044412D01*
X146562920Y-118870359D01*
X146300099Y-118745175D01*
X146152890Y-118700524D01*
X145923002Y-118821844D01*
X145923002Y-118657000D01*
X145815801Y-118657000D01*
X147838321Y-116634480D01*
X147862498Y-116714180D01*
%TA.AperFunction,Conductor*%
D25*
G36*
X147862498Y-116714180D02*
G01*
X147921463Y-116824494D01*
X148000815Y-116921185D01*
X148097506Y-117000537D01*
X148207820Y-117059502D01*
X148327518Y-117095812D01*
X148452000Y-117108072D01*
X148592001Y-117108072D01*
X148592000Y-119065198D01*
X147210228Y-120446970D01*
X147116814Y-120269000D01*
X145923000Y-120269000D01*
X145923000Y-121462155D01*
X146101070Y-121556129D01*
X143669271Y-123987928D01*
X142840999Y-123987928D01*
X142840999Y-121630072D01*
X144106000Y-121630072D01*
X144230482Y-121617812D01*
X144350180Y-121581502D01*
X144460494Y-121522537D01*
X144557185Y-121443185D01*
X144636537Y-121346494D01*
X144695502Y-121236180D01*
X144719966Y-121155534D01*
X144795731Y-121239588D01*
X145029080Y-121413641D01*
X145291901Y-121538825D01*
X145439110Y-121583476D01*
X145669000Y-121462155D01*
X145669000Y-120269000D01*
X145649000Y-120269000D01*
X145649000Y-120015000D01*
X145669000Y-120015000D01*
X145669000Y-119995000D01*
X145923000Y-119995000D01*
X145923000Y-120015000D01*
X147116814Y-120015000D01*
X147237481Y-119785109D01*
X147140157Y-119510748D01*
X146991178Y-119260645D01*
X146796269Y-119044412D01*
X146562920Y-118870359D01*
X146300099Y-118745175D01*
X146152890Y-118700524D01*
X145923002Y-118821844D01*
X145923002Y-118657000D01*
X145815801Y-118657000D01*
X147838321Y-116634480D01*
X147862498Y-116714180D01*
G37*
%TD.AperFunction*%
%TD*%
M02*
