%TF.GenerationSoftware,KiCad,Pcbnew,(5.1.9)-1*%
%TF.CreationDate,2021-09-28T21:21:45+01:00*%
%TF.ProjectId,KosmicSuperspreader,4b6f736d-6963-4537-9570-657273707265,rev?*%
%TF.SameCoordinates,Original*%
%TF.FileFunction,Copper,L1,Top*%
%TF.FilePolarity,Positive*%
%FSLAX46Y46*%
G04 Gerber Fmt 4.6, Leading zero omitted, Abs format (unit mm)*
G04 Created by KiCad (PCBNEW (5.1.9)-1) date 2021-09-28 21:21:45*
%MOMM*%
%LPD*%
G01*
G04 APERTURE LIST*
%TA.AperFunction,ComponentPad*%
%ADD10O,2.400000X1.600000*%
%TD*%
%TA.AperFunction,ComponentPad*%
%ADD11R,2.400000X1.600000*%
%TD*%
%TA.AperFunction,ComponentPad*%
%ADD12C,3.240000*%
%TD*%
%TA.AperFunction,ComponentPad*%
%ADD13C,1.800000*%
%TD*%
%TA.AperFunction,ComponentPad*%
%ADD14R,1.800000X1.800000*%
%TD*%
%TA.AperFunction,ComponentPad*%
%ADD15O,1.600000X1.600000*%
%TD*%
%TA.AperFunction,ComponentPad*%
%ADD16C,1.600000*%
%TD*%
%TA.AperFunction,ComponentPad*%
%ADD17R,1.727200X1.727200*%
%TD*%
%TA.AperFunction,ComponentPad*%
%ADD18O,1.727200X1.727200*%
%TD*%
%TA.AperFunction,ComponentPad*%
%ADD19O,1.700000X1.700000*%
%TD*%
%TA.AperFunction,ComponentPad*%
%ADD20R,1.700000X1.700000*%
%TD*%
%TA.AperFunction,ComponentPad*%
%ADD21R,1.600000X1.600000*%
%TD*%
%TA.AperFunction,ViaPad*%
%ADD22C,0.800000*%
%TD*%
%TA.AperFunction,Conductor*%
%ADD23C,0.400000*%
%TD*%
%TA.AperFunction,Conductor*%
%ADD24C,0.250000*%
%TD*%
%TA.AperFunction,Conductor*%
%ADD25C,0.254000*%
%TD*%
%TA.AperFunction,Conductor*%
%ADD26C,0.100000*%
%TD*%
G04 APERTURE END LIST*
D10*
%TO.P,U2,14*%
%TO.N,OUTMINUS*%
X157734000Y-135382000D03*
%TO.P,U2,7*%
%TO.N,Net-(R10-Pad1)*%
X150114000Y-150622000D03*
%TO.P,U2,13*%
%TO.N,Net-(R7-Pad1)*%
X157734000Y-137922000D03*
%TO.P,U2,6*%
%TO.N,Net-(R10-Pad2)*%
X150114000Y-148082000D03*
%TO.P,U2,12*%
%TO.N,Net-(R6-Pad1)*%
X157734000Y-140462000D03*
%TO.P,U2,5*%
%TO.N,GND*%
X150114000Y-145542000D03*
%TO.P,U2,11*%
%TO.N,-12V*%
X157734000Y-143002000D03*
%TO.P,U2,4*%
%TO.N,+12V*%
X150114000Y-143002000D03*
%TO.P,U2,10*%
%TO.N,GND*%
X157734000Y-145542000D03*
%TO.P,U2,3*%
X150114000Y-140462000D03*
%TO.P,U2,9*%
%TO.N,Net-(R11-Pad1)*%
X157734000Y-148082000D03*
%TO.P,U2,2*%
%TO.N,Net-(R1-Pad1)*%
X150114000Y-137922000D03*
%TO.P,U2,8*%
%TO.N,OUTPLUS*%
X157734000Y-150622000D03*
D11*
%TO.P,U2,1*%
%TO.N,Net-(R3-Pad1)*%
X150114000Y-135382000D03*
%TD*%
D10*
%TO.P,U1,8*%
%TO.N,+12V*%
X158242000Y-88900000D03*
%TO.P,U1,4*%
%TO.N,-12V*%
X150622000Y-96520000D03*
%TO.P,U1,7*%
%TO.N,Net-(U1-Pad6)*%
X158242000Y-91440000D03*
%TO.P,U1,3*%
%TO.N,INPUT*%
X150622000Y-93980000D03*
%TO.P,U1,6*%
%TO.N,Net-(U1-Pad6)*%
X158242000Y-93980000D03*
%TO.P,U1,2*%
%TO.N,OUTPUT*%
X150622000Y-91440000D03*
%TO.P,U1,5*%
%TO.N,GND*%
X158242000Y-96520000D03*
D11*
%TO.P,U1,1*%
%TO.N,OUTPUT*%
X150622000Y-88900000D03*
%TD*%
D12*
%TO.P,RV2,*%
%TO.N,*%
X156083000Y-77291000D03*
X156083000Y-67691000D03*
D13*
%TO.P,RV2,3*%
%TO.N,+12V*%
X148583000Y-69991000D03*
%TO.P,RV2,2*%
%TO.N,Net-(R2-Pad2)*%
X148583000Y-72491000D03*
D14*
%TO.P,RV2,1*%
%TO.N,GND*%
X148583000Y-74991000D03*
%TD*%
D12*
%TO.P,RV1,*%
%TO.N,*%
X156090000Y-130810000D03*
X156090000Y-121210000D03*
D13*
%TO.P,RV1,3*%
%TO.N,SPREAD*%
X148590000Y-123510000D03*
%TO.P,RV1,2*%
%TO.N,Net-(R1-Pad2)*%
X148590000Y-126010000D03*
D14*
%TO.P,RV1,1*%
%TO.N,GND*%
X148590000Y-128510000D03*
%TD*%
D15*
%TO.P,R12,2*%
%TO.N,Net-(R11-Pad1)*%
X161798000Y-146812000D03*
D16*
%TO.P,R12,1*%
%TO.N,OUTPLUS*%
X161798000Y-154432000D03*
%TD*%
D15*
%TO.P,R11,2*%
%TO.N,Net-(R10-Pad1)*%
X165354000Y-154432000D03*
D16*
%TO.P,R11,1*%
%TO.N,Net-(R11-Pad1)*%
X165354000Y-146812000D03*
%TD*%
D15*
%TO.P,R10,2*%
%TO.N,Net-(R10-Pad2)*%
X146304000Y-150622000D03*
D16*
%TO.P,R10,1*%
%TO.N,Net-(R10-Pad1)*%
X146304000Y-158242000D03*
%TD*%
D15*
%TO.P,R9,2*%
%TO.N,Net-(R7-Pad1)*%
X151892000Y-115570000D03*
D16*
%TO.P,R9,1*%
%TO.N,OUTMINUS*%
X151892000Y-107950000D03*
%TD*%
D15*
%TO.P,R8,2*%
%TO.N,GND*%
X155448000Y-107950000D03*
D16*
%TO.P,R8,1*%
%TO.N,Net-(R6-Pad1)*%
X155448000Y-115570000D03*
%TD*%
D15*
%TO.P,R7,2*%
%TO.N,Net-(R3-Pad1)*%
X146304000Y-148082000D03*
D16*
%TO.P,R7,1*%
%TO.N,Net-(R7-Pad1)*%
X146304000Y-140462000D03*
%TD*%
D15*
%TO.P,R6,2*%
%TO.N,INPUT*%
X161798000Y-144272000D03*
D16*
%TO.P,R6,1*%
%TO.N,Net-(R6-Pad1)*%
X161798000Y-136652000D03*
%TD*%
D15*
%TO.P,R5,2*%
%TO.N,INPUT*%
X165354000Y-144272000D03*
D16*
%TO.P,R5,1*%
%TO.N,Net-(R10-Pad2)*%
X165354000Y-136652000D03*
%TD*%
D15*
%TO.P,R4,2*%
%TO.N,Net-(R3-Pad1)*%
X142748000Y-140462000D03*
D16*
%TO.P,R4,1*%
%TO.N,Net-(R10-Pad2)*%
X142748000Y-148082000D03*
%TD*%
D15*
%TO.P,R3,2*%
%TO.N,Net-(R1-Pad1)*%
X142748000Y-137668000D03*
D16*
%TO.P,R3,1*%
%TO.N,Net-(R3-Pad1)*%
X142748000Y-130048000D03*
%TD*%
D15*
%TO.P,R2,2*%
%TO.N,Net-(R2-Pad2)*%
X146812000Y-88900000D03*
D16*
%TO.P,R2,1*%
%TO.N,Net-(R1-Pad1)*%
X146812000Y-96520000D03*
%TD*%
D15*
%TO.P,R1,2*%
%TO.N,Net-(R1-Pad2)*%
X146304000Y-130048000D03*
D16*
%TO.P,R1,1*%
%TO.N,Net-(R1-Pad1)*%
X146304000Y-137668000D03*
%TD*%
D17*
%TO.P,J6,1*%
%TO.N,-12V*%
X163576000Y-87122000D03*
D18*
%TO.P,J6,2*%
X166116000Y-87122000D03*
%TO.P,J6,3*%
%TO.N,GND*%
X163576000Y-89662000D03*
%TO.P,J6,4*%
X166116000Y-89662000D03*
%TO.P,J6,5*%
X163576000Y-92202000D03*
%TO.P,J6,6*%
X166116000Y-92202000D03*
%TO.P,J6,7*%
X163576000Y-94742000D03*
%TO.P,J6,8*%
X166116000Y-94742000D03*
%TO.P,J6,9*%
%TO.N,+12V*%
X163576000Y-97282000D03*
%TO.P,J6,10*%
X166116000Y-97282000D03*
%TD*%
D19*
%TO.P,J5,2*%
%TO.N,GND*%
X145796000Y-120142000D03*
D20*
%TO.P,J5,1*%
%TO.N,OUTPUT*%
X143256000Y-120142000D03*
%TD*%
D19*
%TO.P,J4,2*%
%TO.N,GND*%
X166116000Y-119634000D03*
D20*
%TO.P,J4,1*%
%TO.N,OUTPLUS*%
X163576000Y-119634000D03*
%TD*%
D19*
%TO.P,J3,2*%
%TO.N,GND*%
X166116000Y-115570000D03*
D20*
%TO.P,J3,1*%
%TO.N,OUTMINUS*%
X163576000Y-115570000D03*
%TD*%
D19*
%TO.P,J2,2*%
%TO.N,GND*%
X145796000Y-125476000D03*
D20*
%TO.P,J2,1*%
%TO.N,SPREAD*%
X143256000Y-125476000D03*
%TD*%
D19*
%TO.P,J1,2*%
%TO.N,GND*%
X166116000Y-123952000D03*
D20*
%TO.P,J1,1*%
%TO.N,INPUT*%
X163576000Y-123952000D03*
%TD*%
D16*
%TO.P,C6,2*%
%TO.N,GND*%
X156384000Y-155194000D03*
%TO.P,C6,1*%
%TO.N,-12V*%
X151384000Y-155194000D03*
%TD*%
%TO.P,C5,2*%
%TO.N,GND*%
X164084000Y-134366000D03*
%TO.P,C5,1*%
%TO.N,+12V*%
X164084000Y-129366000D03*
%TD*%
%TO.P,C4,2*%
%TO.N,GND*%
X156972000Y-100584000D03*
%TO.P,C4,1*%
%TO.N,-12V*%
X151972000Y-100584000D03*
%TD*%
%TO.P,C3,2*%
%TO.N,GND*%
X156972000Y-84836000D03*
%TO.P,C3,1*%
%TO.N,+12V*%
X151972000Y-84836000D03*
%TD*%
%TO.P,C2,2*%
%TO.N,-12V*%
X165862000Y-72684000D03*
D21*
%TO.P,C2,1*%
%TO.N,GND*%
X165862000Y-75184000D03*
%TD*%
D16*
%TO.P,C1,2*%
%TO.N,GND*%
X165862000Y-108752000D03*
D21*
%TO.P,C1,1*%
%TO.N,+12V*%
X165862000Y-111252000D03*
%TD*%
D22*
%TO.N,-12V*%
X153416000Y-97028000D03*
%TO.N,INPUT*%
X161036000Y-139446000D03*
%TO.N,Net-(R1-Pad1)*%
X144526000Y-93472000D03*
%TD*%
D23*
%TO.N,+12V*%
X166116000Y-97282000D02*
X163576000Y-97282000D01*
X159842010Y-90500010D02*
X158242000Y-88900000D01*
X159842010Y-93548010D02*
X159842010Y-90500010D01*
X163576000Y-97282000D02*
X159842010Y-93548010D01*
X156036000Y-88900000D02*
X151972000Y-84836000D01*
X158242000Y-88900000D02*
X156036000Y-88900000D01*
X151972000Y-84836000D02*
X151972000Y-77670000D01*
X167062001Y-110051999D02*
X165862000Y-111252000D01*
X167062001Y-98228001D02*
X167062001Y-110051999D01*
X166116000Y-97282000D02*
X167062001Y-98228001D01*
X158631060Y-146742010D02*
X160235999Y-145137071D01*
X160235999Y-133214001D02*
X164084000Y-129366000D01*
X156836940Y-146742010D02*
X158631060Y-146742010D01*
X156133990Y-147444960D02*
X156836940Y-146742010D01*
X160235999Y-145137071D02*
X160235999Y-133214001D01*
X156133990Y-152220012D02*
X156133990Y-147444960D01*
X151960001Y-156394001D02*
X156133990Y-152220012D01*
X150807999Y-156394001D02*
X151960001Y-156394001D01*
X148513990Y-154099992D02*
X150807999Y-156394001D01*
X148513990Y-144602010D02*
X148513990Y-154099992D01*
X150114000Y-143002000D02*
X148513990Y-144602010D01*
X164826001Y-112287999D02*
X165862000Y-111252000D01*
X164826001Y-128623999D02*
X164826001Y-112287999D01*
X164084000Y-129366000D02*
X164826001Y-128623999D01*
D24*
X151972000Y-73380000D02*
X148583000Y-69991000D01*
X151972000Y-77670000D02*
X151972000Y-73380000D01*
D23*
%TO.N,-12V*%
X166116000Y-87122000D02*
X163576000Y-87122000D01*
X167062001Y-73884001D02*
X165862000Y-72684000D01*
X167062001Y-86175999D02*
X167062001Y-73884001D01*
X166116000Y-87122000D02*
X167062001Y-86175999D01*
X151130000Y-97028000D02*
X150622000Y-96520000D01*
X153416000Y-97028000D02*
X151130000Y-97028000D01*
X156133990Y-141401990D02*
X157734000Y-143002000D01*
X156133990Y-138681988D02*
X156133990Y-141401990D01*
X150622000Y-133169998D02*
X156133990Y-138681988D01*
X150622000Y-96520000D02*
X150622000Y-133169998D01*
X152183999Y-148552001D02*
X157734000Y-143002000D01*
X152183999Y-154394001D02*
X152183999Y-148552001D01*
X151384000Y-155194000D02*
X152183999Y-154394001D01*
X150622000Y-99234000D02*
X151972000Y-100584000D01*
X150622000Y-96520000D02*
X150622000Y-99234000D01*
D24*
%TO.N,INPUT*%
X161798000Y-140208000D02*
X161798000Y-144272000D01*
X161036000Y-139446000D02*
X161798000Y-140208000D01*
%TO.N,SPREAD*%
X145222000Y-123510000D02*
X143256000Y-125476000D01*
X148590000Y-123510000D02*
X145222000Y-123510000D01*
%TO.N,Net-(R1-Pad1)*%
X146812000Y-95758000D02*
X146812000Y-96520000D01*
X144526000Y-93472000D02*
X146812000Y-95758000D01*
%TD*%
D25*
%TO.N,GND*%
X155014857Y-65692645D02*
X154645521Y-65939427D01*
X154331427Y-66253521D01*
X154084645Y-66622857D01*
X153914658Y-67033241D01*
X153828000Y-67468902D01*
X153828000Y-67913098D01*
X153914658Y-68348759D01*
X154084645Y-68759143D01*
X154331427Y-69128479D01*
X154645521Y-69442573D01*
X155014857Y-69689355D01*
X155425241Y-69859342D01*
X155860902Y-69946000D01*
X156305098Y-69946000D01*
X156740759Y-69859342D01*
X157151143Y-69689355D01*
X157520479Y-69442573D01*
X157834573Y-69128479D01*
X158081355Y-68759143D01*
X158251342Y-68348759D01*
X158338000Y-67913098D01*
X158338000Y-67468902D01*
X158251342Y-67033241D01*
X158081355Y-66622857D01*
X157834573Y-66253521D01*
X157520479Y-65939427D01*
X157151143Y-65692645D01*
X157132686Y-65685000D01*
X169315000Y-65685000D01*
X169315001Y-159315000D01*
X147260396Y-159315000D01*
X147418637Y-159156759D01*
X147575680Y-158921727D01*
X147683853Y-158660574D01*
X147739000Y-158383335D01*
X147739000Y-158100665D01*
X147683853Y-157823426D01*
X147575680Y-157562273D01*
X147418637Y-157327241D01*
X147218759Y-157127363D01*
X146983727Y-156970320D01*
X146722574Y-156862147D01*
X146445335Y-156807000D01*
X146162665Y-156807000D01*
X145885426Y-156862147D01*
X145624273Y-156970320D01*
X145389241Y-157127363D01*
X145189363Y-157327241D01*
X145032320Y-157562273D01*
X144924147Y-157823426D01*
X144869000Y-158100665D01*
X144869000Y-158383335D01*
X144924147Y-158660574D01*
X145032320Y-158921727D01*
X145189363Y-159156759D01*
X145347604Y-159315000D01*
X140685000Y-159315000D01*
X140685000Y-147940665D01*
X141313000Y-147940665D01*
X141313000Y-148223335D01*
X141368147Y-148500574D01*
X141476320Y-148761727D01*
X141633363Y-148996759D01*
X141833241Y-149196637D01*
X142068273Y-149353680D01*
X142329426Y-149461853D01*
X142606665Y-149517000D01*
X142889335Y-149517000D01*
X143166574Y-149461853D01*
X143427727Y-149353680D01*
X143662759Y-149196637D01*
X143862637Y-148996759D01*
X144019680Y-148761727D01*
X144127853Y-148500574D01*
X144183000Y-148223335D01*
X144183000Y-147940665D01*
X144127853Y-147663426D01*
X144019680Y-147402273D01*
X143862637Y-147167241D01*
X143662759Y-146967363D01*
X143427727Y-146810320D01*
X143166574Y-146702147D01*
X142889335Y-146647000D01*
X142606665Y-146647000D01*
X142329426Y-146702147D01*
X142068273Y-146810320D01*
X141833241Y-146967363D01*
X141633363Y-147167241D01*
X141476320Y-147402273D01*
X141368147Y-147663426D01*
X141313000Y-147940665D01*
X140685000Y-147940665D01*
X140685000Y-137526665D01*
X141313000Y-137526665D01*
X141313000Y-137809335D01*
X141368147Y-138086574D01*
X141476320Y-138347727D01*
X141633363Y-138582759D01*
X141833241Y-138782637D01*
X142068273Y-138939680D01*
X142329426Y-139047853D01*
X142415629Y-139065000D01*
X142329426Y-139082147D01*
X142068273Y-139190320D01*
X141833241Y-139347363D01*
X141633363Y-139547241D01*
X141476320Y-139782273D01*
X141368147Y-140043426D01*
X141313000Y-140320665D01*
X141313000Y-140603335D01*
X141368147Y-140880574D01*
X141476320Y-141141727D01*
X141633363Y-141376759D01*
X141833241Y-141576637D01*
X142068273Y-141733680D01*
X142329426Y-141841853D01*
X142606665Y-141897000D01*
X142889335Y-141897000D01*
X143166574Y-141841853D01*
X143427727Y-141733680D01*
X143662759Y-141576637D01*
X143862637Y-141376759D01*
X144019680Y-141141727D01*
X144127853Y-140880574D01*
X144183000Y-140603335D01*
X144183000Y-140320665D01*
X144127853Y-140043426D01*
X144019680Y-139782273D01*
X143862637Y-139547241D01*
X143662759Y-139347363D01*
X143427727Y-139190320D01*
X143166574Y-139082147D01*
X143080371Y-139065000D01*
X143166574Y-139047853D01*
X143427727Y-138939680D01*
X143662759Y-138782637D01*
X143862637Y-138582759D01*
X144019680Y-138347727D01*
X144127853Y-138086574D01*
X144183000Y-137809335D01*
X144183000Y-137526665D01*
X144869000Y-137526665D01*
X144869000Y-137809335D01*
X144924147Y-138086574D01*
X145032320Y-138347727D01*
X145189363Y-138582759D01*
X145389241Y-138782637D01*
X145624273Y-138939680D01*
X145885426Y-139047853D01*
X145971629Y-139065000D01*
X145885426Y-139082147D01*
X145624273Y-139190320D01*
X145389241Y-139347363D01*
X145189363Y-139547241D01*
X145032320Y-139782273D01*
X144924147Y-140043426D01*
X144869000Y-140320665D01*
X144869000Y-140603335D01*
X144924147Y-140880574D01*
X145032320Y-141141727D01*
X145189363Y-141376759D01*
X145389241Y-141576637D01*
X145624273Y-141733680D01*
X145885426Y-141841853D01*
X146162665Y-141897000D01*
X146445335Y-141897000D01*
X146722574Y-141841853D01*
X146983727Y-141733680D01*
X147218759Y-141576637D01*
X147418637Y-141376759D01*
X147575680Y-141141727D01*
X147683853Y-140880574D01*
X147739000Y-140603335D01*
X147739000Y-140320665D01*
X147683853Y-140043426D01*
X147575680Y-139782273D01*
X147418637Y-139547241D01*
X147218759Y-139347363D01*
X146983727Y-139190320D01*
X146722574Y-139082147D01*
X146636371Y-139065000D01*
X146722574Y-139047853D01*
X146983727Y-138939680D01*
X147218759Y-138782637D01*
X147418637Y-138582759D01*
X147575680Y-138347727D01*
X147683853Y-138086574D01*
X147739000Y-137809335D01*
X147739000Y-137526665D01*
X147683853Y-137249426D01*
X147575680Y-136988273D01*
X147418637Y-136753241D01*
X147218759Y-136553363D01*
X146983727Y-136396320D01*
X146722574Y-136288147D01*
X146445335Y-136233000D01*
X146162665Y-136233000D01*
X145885426Y-136288147D01*
X145624273Y-136396320D01*
X145389241Y-136553363D01*
X145189363Y-136753241D01*
X145032320Y-136988273D01*
X144924147Y-137249426D01*
X144869000Y-137526665D01*
X144183000Y-137526665D01*
X144127853Y-137249426D01*
X144019680Y-136988273D01*
X143862637Y-136753241D01*
X143662759Y-136553363D01*
X143427727Y-136396320D01*
X143166574Y-136288147D01*
X142889335Y-136233000D01*
X142606665Y-136233000D01*
X142329426Y-136288147D01*
X142068273Y-136396320D01*
X141833241Y-136553363D01*
X141633363Y-136753241D01*
X141476320Y-136988273D01*
X141368147Y-137249426D01*
X141313000Y-137526665D01*
X140685000Y-137526665D01*
X140685000Y-129906665D01*
X141313000Y-129906665D01*
X141313000Y-130189335D01*
X141368147Y-130466574D01*
X141476320Y-130727727D01*
X141633363Y-130962759D01*
X141833241Y-131162637D01*
X142068273Y-131319680D01*
X142329426Y-131427853D01*
X142606665Y-131483000D01*
X142889335Y-131483000D01*
X143166574Y-131427853D01*
X143427727Y-131319680D01*
X143662759Y-131162637D01*
X143862637Y-130962759D01*
X144019680Y-130727727D01*
X144127853Y-130466574D01*
X144183000Y-130189335D01*
X144183000Y-129906665D01*
X144869000Y-129906665D01*
X144869000Y-130189335D01*
X144924147Y-130466574D01*
X145032320Y-130727727D01*
X145189363Y-130962759D01*
X145389241Y-131162637D01*
X145624273Y-131319680D01*
X145885426Y-131427853D01*
X146162665Y-131483000D01*
X146445335Y-131483000D01*
X146722574Y-131427853D01*
X146983727Y-131319680D01*
X147218759Y-131162637D01*
X147418637Y-130962759D01*
X147575680Y-130727727D01*
X147683853Y-130466574D01*
X147739000Y-130189335D01*
X147739000Y-130047827D01*
X148304250Y-130045000D01*
X148463000Y-129886250D01*
X148463000Y-128637000D01*
X147213750Y-128637000D01*
X147055000Y-128795750D01*
X147054859Y-128823849D01*
X146983727Y-128776320D01*
X146722574Y-128668147D01*
X146445335Y-128613000D01*
X146162665Y-128613000D01*
X145885426Y-128668147D01*
X145624273Y-128776320D01*
X145389241Y-128933363D01*
X145189363Y-129133241D01*
X145032320Y-129368273D01*
X144924147Y-129629426D01*
X144869000Y-129906665D01*
X144183000Y-129906665D01*
X144127853Y-129629426D01*
X144019680Y-129368273D01*
X143862637Y-129133241D01*
X143662759Y-128933363D01*
X143427727Y-128776320D01*
X143166574Y-128668147D01*
X142889335Y-128613000D01*
X142606665Y-128613000D01*
X142329426Y-128668147D01*
X142068273Y-128776320D01*
X141833241Y-128933363D01*
X141633363Y-129133241D01*
X141476320Y-129368273D01*
X141368147Y-129629426D01*
X141313000Y-129906665D01*
X140685000Y-129906665D01*
X140685000Y-124626000D01*
X141767928Y-124626000D01*
X141767928Y-126326000D01*
X141780188Y-126450482D01*
X141816498Y-126570180D01*
X141875463Y-126680494D01*
X141954815Y-126777185D01*
X142051506Y-126856537D01*
X142161820Y-126915502D01*
X142281518Y-126951812D01*
X142406000Y-126964072D01*
X144106000Y-126964072D01*
X144230482Y-126951812D01*
X144350180Y-126915502D01*
X144460494Y-126856537D01*
X144557185Y-126777185D01*
X144636537Y-126680494D01*
X144695502Y-126570180D01*
X144719966Y-126489534D01*
X144795731Y-126573588D01*
X145029080Y-126747641D01*
X145291901Y-126872825D01*
X145439110Y-126917476D01*
X145669000Y-126796155D01*
X145669000Y-125603000D01*
X145649000Y-125603000D01*
X145649000Y-125349000D01*
X145669000Y-125349000D01*
X145669000Y-125329000D01*
X145923000Y-125329000D01*
X145923000Y-125349000D01*
X145943000Y-125349000D01*
X145943000Y-125603000D01*
X145923000Y-125603000D01*
X145923000Y-126796155D01*
X146152890Y-126917476D01*
X146300099Y-126872825D01*
X146562920Y-126747641D01*
X146796269Y-126573588D01*
X146991178Y-126357355D01*
X147068276Y-126227925D01*
X147113989Y-126457743D01*
X147229701Y-126737095D01*
X147397688Y-126988505D01*
X147435303Y-127026120D01*
X147335506Y-127079463D01*
X147238815Y-127158815D01*
X147159463Y-127255506D01*
X147100498Y-127365820D01*
X147064188Y-127485518D01*
X147051928Y-127610000D01*
X147055000Y-128224250D01*
X147213750Y-128383000D01*
X148463000Y-128383000D01*
X148463000Y-128363000D01*
X148717000Y-128363000D01*
X148717000Y-128383000D01*
X148737000Y-128383000D01*
X148737000Y-128637000D01*
X148717000Y-128637000D01*
X148717000Y-129886250D01*
X148875750Y-130045000D01*
X149490000Y-130048072D01*
X149614482Y-130035812D01*
X149734180Y-129999502D01*
X149787001Y-129971268D01*
X149787001Y-133128969D01*
X149782960Y-133169998D01*
X149799082Y-133333686D01*
X149846828Y-133491084D01*
X149924364Y-133636143D01*
X149924365Y-133636144D01*
X150028710Y-133763289D01*
X150060574Y-133789439D01*
X150215063Y-133943928D01*
X148914000Y-133943928D01*
X148789518Y-133956188D01*
X148669820Y-133992498D01*
X148559506Y-134051463D01*
X148462815Y-134130815D01*
X148383463Y-134227506D01*
X148324498Y-134337820D01*
X148288188Y-134457518D01*
X148275928Y-134582000D01*
X148275928Y-136182000D01*
X148288188Y-136306482D01*
X148324498Y-136426180D01*
X148383463Y-136536494D01*
X148462815Y-136633185D01*
X148559506Y-136712537D01*
X148669820Y-136771502D01*
X148789518Y-136807812D01*
X148807482Y-136809581D01*
X148694392Y-136902392D01*
X148515068Y-137120899D01*
X148381818Y-137370192D01*
X148299764Y-137640691D01*
X148272057Y-137922000D01*
X148299764Y-138203309D01*
X148381818Y-138473808D01*
X148515068Y-138723101D01*
X148694392Y-138941608D01*
X148912899Y-139120932D01*
X149040741Y-139189265D01*
X148811161Y-139339399D01*
X148609500Y-139537105D01*
X148450285Y-139770354D01*
X148339633Y-140030182D01*
X148322096Y-140112961D01*
X148444085Y-140335000D01*
X149987000Y-140335000D01*
X149987000Y-140315000D01*
X150241000Y-140315000D01*
X150241000Y-140335000D01*
X151783915Y-140335000D01*
X151905904Y-140112961D01*
X151888367Y-140030182D01*
X151777715Y-139770354D01*
X151618500Y-139537105D01*
X151416839Y-139339399D01*
X151187259Y-139189265D01*
X151315101Y-139120932D01*
X151533608Y-138941608D01*
X151712932Y-138723101D01*
X151846182Y-138473808D01*
X151928236Y-138203309D01*
X151955943Y-137922000D01*
X151928236Y-137640691D01*
X151846182Y-137370192D01*
X151712932Y-137120899D01*
X151533608Y-136902392D01*
X151420518Y-136809581D01*
X151438482Y-136807812D01*
X151558180Y-136771502D01*
X151668494Y-136712537D01*
X151765185Y-136633185D01*
X151844537Y-136536494D01*
X151903502Y-136426180D01*
X151939812Y-136306482D01*
X151952072Y-136182000D01*
X151952072Y-135680937D01*
X155298990Y-139027856D01*
X155298991Y-141360962D01*
X155294950Y-141401990D01*
X155311072Y-141565678D01*
X155358818Y-141723076D01*
X155401575Y-141803068D01*
X155436355Y-141868136D01*
X155540700Y-141995281D01*
X155572564Y-142021431D01*
X156001703Y-142450571D01*
X155919764Y-142720691D01*
X155892057Y-143002000D01*
X155919764Y-143283309D01*
X156001703Y-143553429D01*
X151887787Y-147667346D01*
X151846182Y-147530192D01*
X151712932Y-147280899D01*
X151533608Y-147062392D01*
X151315101Y-146883068D01*
X151187259Y-146814735D01*
X151416839Y-146664601D01*
X151618500Y-146466895D01*
X151777715Y-146233646D01*
X151888367Y-145973818D01*
X151905904Y-145891039D01*
X151783915Y-145669000D01*
X150241000Y-145669000D01*
X150241000Y-145689000D01*
X149987000Y-145689000D01*
X149987000Y-145669000D01*
X149967000Y-145669000D01*
X149967000Y-145415000D01*
X149987000Y-145415000D01*
X149987000Y-145395000D01*
X150241000Y-145395000D01*
X150241000Y-145415000D01*
X151783915Y-145415000D01*
X151905904Y-145192961D01*
X151888367Y-145110182D01*
X151777715Y-144850354D01*
X151618500Y-144617105D01*
X151416839Y-144419399D01*
X151187259Y-144269265D01*
X151315101Y-144200932D01*
X151533608Y-144021608D01*
X151712932Y-143803101D01*
X151846182Y-143553808D01*
X151928236Y-143283309D01*
X151955943Y-143002000D01*
X151928236Y-142720691D01*
X151846182Y-142450192D01*
X151712932Y-142200899D01*
X151533608Y-141982392D01*
X151315101Y-141803068D01*
X151187259Y-141734735D01*
X151416839Y-141584601D01*
X151618500Y-141386895D01*
X151777715Y-141153646D01*
X151888367Y-140893818D01*
X151905904Y-140811039D01*
X151783915Y-140589000D01*
X150241000Y-140589000D01*
X150241000Y-140609000D01*
X149987000Y-140609000D01*
X149987000Y-140589000D01*
X148444085Y-140589000D01*
X148322096Y-140811039D01*
X148339633Y-140893818D01*
X148450285Y-141153646D01*
X148609500Y-141386895D01*
X148811161Y-141584601D01*
X149040741Y-141734735D01*
X148912899Y-141803068D01*
X148694392Y-141982392D01*
X148515068Y-142200899D01*
X148381818Y-142450192D01*
X148299764Y-142720691D01*
X148272057Y-143002000D01*
X148299764Y-143283309D01*
X148381703Y-143553429D01*
X147952569Y-143982564D01*
X147920699Y-144008719D01*
X147816355Y-144135864D01*
X147816354Y-144135865D01*
X147738818Y-144280924D01*
X147691072Y-144438322D01*
X147674950Y-144602010D01*
X147678990Y-144643029D01*
X147678990Y-147651686D01*
X147575680Y-147402273D01*
X147418637Y-147167241D01*
X147218759Y-146967363D01*
X146983727Y-146810320D01*
X146722574Y-146702147D01*
X146445335Y-146647000D01*
X146162665Y-146647000D01*
X145885426Y-146702147D01*
X145624273Y-146810320D01*
X145389241Y-146967363D01*
X145189363Y-147167241D01*
X145032320Y-147402273D01*
X144924147Y-147663426D01*
X144869000Y-147940665D01*
X144869000Y-148223335D01*
X144924147Y-148500574D01*
X145032320Y-148761727D01*
X145189363Y-148996759D01*
X145389241Y-149196637D01*
X145621759Y-149352000D01*
X145389241Y-149507363D01*
X145189363Y-149707241D01*
X145032320Y-149942273D01*
X144924147Y-150203426D01*
X144869000Y-150480665D01*
X144869000Y-150763335D01*
X144924147Y-151040574D01*
X145032320Y-151301727D01*
X145189363Y-151536759D01*
X145389241Y-151736637D01*
X145624273Y-151893680D01*
X145885426Y-152001853D01*
X146162665Y-152057000D01*
X146445335Y-152057000D01*
X146722574Y-152001853D01*
X146983727Y-151893680D01*
X147218759Y-151736637D01*
X147418637Y-151536759D01*
X147575680Y-151301727D01*
X147678991Y-151052313D01*
X147678991Y-154058963D01*
X147674950Y-154099992D01*
X147691072Y-154263680D01*
X147738818Y-154421078D01*
X147811839Y-154557690D01*
X147816355Y-154566138D01*
X147920700Y-154693283D01*
X147952564Y-154719433D01*
X150188562Y-156955433D01*
X150214708Y-156987292D01*
X150341853Y-157091637D01*
X150486912Y-157169173D01*
X150644310Y-157216919D01*
X150766980Y-157229001D01*
X150766981Y-157229001D01*
X150807999Y-157233041D01*
X150849017Y-157229001D01*
X151918983Y-157229001D01*
X151960001Y-157233041D01*
X152001019Y-157229001D01*
X152001020Y-157229001D01*
X152123690Y-157216919D01*
X152281088Y-157169173D01*
X152426147Y-157091637D01*
X152553292Y-156987292D01*
X152579447Y-156955422D01*
X153348167Y-156186702D01*
X155570903Y-156186702D01*
X155642486Y-156430671D01*
X155897996Y-156551571D01*
X156172184Y-156620300D01*
X156454512Y-156634217D01*
X156734130Y-156592787D01*
X157000292Y-156497603D01*
X157125514Y-156430671D01*
X157197097Y-156186702D01*
X156384000Y-155373605D01*
X155570903Y-156186702D01*
X153348167Y-156186702D01*
X154270357Y-155264512D01*
X154943783Y-155264512D01*
X154985213Y-155544130D01*
X155080397Y-155810292D01*
X155147329Y-155935514D01*
X155391298Y-156007097D01*
X156204395Y-155194000D01*
X156563605Y-155194000D01*
X157376702Y-156007097D01*
X157620671Y-155935514D01*
X157741571Y-155680004D01*
X157810300Y-155405816D01*
X157824217Y-155123488D01*
X157782787Y-154843870D01*
X157687603Y-154577708D01*
X157620671Y-154452486D01*
X157376702Y-154380903D01*
X156563605Y-155194000D01*
X156204395Y-155194000D01*
X155391298Y-154380903D01*
X155147329Y-154452486D01*
X155026429Y-154707996D01*
X154957700Y-154982184D01*
X154943783Y-155264512D01*
X154270357Y-155264512D01*
X155333571Y-154201298D01*
X155570903Y-154201298D01*
X156384000Y-155014395D01*
X157107730Y-154290665D01*
X160363000Y-154290665D01*
X160363000Y-154573335D01*
X160418147Y-154850574D01*
X160526320Y-155111727D01*
X160683363Y-155346759D01*
X160883241Y-155546637D01*
X161118273Y-155703680D01*
X161379426Y-155811853D01*
X161656665Y-155867000D01*
X161939335Y-155867000D01*
X162216574Y-155811853D01*
X162477727Y-155703680D01*
X162712759Y-155546637D01*
X162912637Y-155346759D01*
X163069680Y-155111727D01*
X163177853Y-154850574D01*
X163233000Y-154573335D01*
X163233000Y-154290665D01*
X163919000Y-154290665D01*
X163919000Y-154573335D01*
X163974147Y-154850574D01*
X164082320Y-155111727D01*
X164239363Y-155346759D01*
X164439241Y-155546637D01*
X164674273Y-155703680D01*
X164935426Y-155811853D01*
X165212665Y-155867000D01*
X165495335Y-155867000D01*
X165772574Y-155811853D01*
X166033727Y-155703680D01*
X166268759Y-155546637D01*
X166468637Y-155346759D01*
X166625680Y-155111727D01*
X166733853Y-154850574D01*
X166789000Y-154573335D01*
X166789000Y-154290665D01*
X166733853Y-154013426D01*
X166625680Y-153752273D01*
X166468637Y-153517241D01*
X166268759Y-153317363D01*
X166033727Y-153160320D01*
X165772574Y-153052147D01*
X165495335Y-152997000D01*
X165212665Y-152997000D01*
X164935426Y-153052147D01*
X164674273Y-153160320D01*
X164439241Y-153317363D01*
X164239363Y-153517241D01*
X164082320Y-153752273D01*
X163974147Y-154013426D01*
X163919000Y-154290665D01*
X163233000Y-154290665D01*
X163177853Y-154013426D01*
X163069680Y-153752273D01*
X162912637Y-153517241D01*
X162712759Y-153317363D01*
X162477727Y-153160320D01*
X162216574Y-153052147D01*
X161939335Y-152997000D01*
X161656665Y-152997000D01*
X161379426Y-153052147D01*
X161118273Y-153160320D01*
X160883241Y-153317363D01*
X160683363Y-153517241D01*
X160526320Y-153752273D01*
X160418147Y-154013426D01*
X160363000Y-154290665D01*
X157107730Y-154290665D01*
X157197097Y-154201298D01*
X157125514Y-153957329D01*
X156870004Y-153836429D01*
X156595816Y-153767700D01*
X156313488Y-153753783D01*
X156033870Y-153795213D01*
X155767708Y-153890397D01*
X155642486Y-153957329D01*
X155570903Y-154201298D01*
X155333571Y-154201298D01*
X156695423Y-152839448D01*
X156727281Y-152813303D01*
X156831626Y-152686158D01*
X156909162Y-152541099D01*
X156956908Y-152383701D01*
X156968990Y-152261031D01*
X156968990Y-152261030D01*
X156973030Y-152220012D01*
X156968990Y-152178994D01*
X156968990Y-152010846D01*
X157052691Y-152036236D01*
X157263508Y-152057000D01*
X158204492Y-152057000D01*
X158415309Y-152036236D01*
X158685808Y-151954182D01*
X158935101Y-151820932D01*
X159153608Y-151641608D01*
X159332932Y-151423101D01*
X159466182Y-151173808D01*
X159548236Y-150903309D01*
X159575943Y-150622000D01*
X159548236Y-150340691D01*
X159466182Y-150070192D01*
X159332932Y-149820899D01*
X159153608Y-149602392D01*
X158935101Y-149423068D01*
X158802142Y-149352000D01*
X158935101Y-149280932D01*
X159153608Y-149101608D01*
X159332932Y-148883101D01*
X159466182Y-148633808D01*
X159548236Y-148363309D01*
X159575943Y-148082000D01*
X159548236Y-147800691D01*
X159466182Y-147530192D01*
X159332932Y-147280899D01*
X159305935Y-147248003D01*
X160797427Y-145756511D01*
X160829290Y-145730362D01*
X160933635Y-145603217D01*
X161005673Y-145468443D01*
X161115759Y-145542000D01*
X160883241Y-145697363D01*
X160683363Y-145897241D01*
X160526320Y-146132273D01*
X160418147Y-146393426D01*
X160363000Y-146670665D01*
X160363000Y-146953335D01*
X160418147Y-147230574D01*
X160526320Y-147491727D01*
X160683363Y-147726759D01*
X160883241Y-147926637D01*
X161118273Y-148083680D01*
X161379426Y-148191853D01*
X161656665Y-148247000D01*
X161939335Y-148247000D01*
X162216574Y-148191853D01*
X162477727Y-148083680D01*
X162712759Y-147926637D01*
X162912637Y-147726759D01*
X163069680Y-147491727D01*
X163177853Y-147230574D01*
X163233000Y-146953335D01*
X163233000Y-146670665D01*
X163177853Y-146393426D01*
X163069680Y-146132273D01*
X162912637Y-145897241D01*
X162712759Y-145697363D01*
X162480241Y-145542000D01*
X162712759Y-145386637D01*
X162912637Y-145186759D01*
X163069680Y-144951727D01*
X163177853Y-144690574D01*
X163233000Y-144413335D01*
X163233000Y-144130665D01*
X163919000Y-144130665D01*
X163919000Y-144413335D01*
X163974147Y-144690574D01*
X164082320Y-144951727D01*
X164239363Y-145186759D01*
X164439241Y-145386637D01*
X164671759Y-145542000D01*
X164439241Y-145697363D01*
X164239363Y-145897241D01*
X164082320Y-146132273D01*
X163974147Y-146393426D01*
X163919000Y-146670665D01*
X163919000Y-146953335D01*
X163974147Y-147230574D01*
X164082320Y-147491727D01*
X164239363Y-147726759D01*
X164439241Y-147926637D01*
X164674273Y-148083680D01*
X164935426Y-148191853D01*
X165212665Y-148247000D01*
X165495335Y-148247000D01*
X165772574Y-148191853D01*
X166033727Y-148083680D01*
X166268759Y-147926637D01*
X166468637Y-147726759D01*
X166625680Y-147491727D01*
X166733853Y-147230574D01*
X166789000Y-146953335D01*
X166789000Y-146670665D01*
X166733853Y-146393426D01*
X166625680Y-146132273D01*
X166468637Y-145897241D01*
X166268759Y-145697363D01*
X166036241Y-145542000D01*
X166268759Y-145386637D01*
X166468637Y-145186759D01*
X166625680Y-144951727D01*
X166733853Y-144690574D01*
X166789000Y-144413335D01*
X166789000Y-144130665D01*
X166733853Y-143853426D01*
X166625680Y-143592273D01*
X166468637Y-143357241D01*
X166268759Y-143157363D01*
X166033727Y-143000320D01*
X165772574Y-142892147D01*
X165495335Y-142837000D01*
X165212665Y-142837000D01*
X164935426Y-142892147D01*
X164674273Y-143000320D01*
X164439241Y-143157363D01*
X164239363Y-143357241D01*
X164082320Y-143592273D01*
X163974147Y-143853426D01*
X163919000Y-144130665D01*
X163233000Y-144130665D01*
X163177853Y-143853426D01*
X163069680Y-143592273D01*
X162912637Y-143357241D01*
X162712759Y-143157363D01*
X162558000Y-143053957D01*
X162558000Y-140245325D01*
X162561676Y-140208000D01*
X162558000Y-140170675D01*
X162558000Y-140170667D01*
X162547003Y-140059014D01*
X162503546Y-139915753D01*
X162432974Y-139783724D01*
X162338001Y-139667999D01*
X162309004Y-139644202D01*
X162071000Y-139406198D01*
X162071000Y-139344061D01*
X162031226Y-139144102D01*
X161953205Y-138955744D01*
X161839937Y-138786226D01*
X161695774Y-138642063D01*
X161526256Y-138528795D01*
X161337898Y-138450774D01*
X161137939Y-138411000D01*
X161070999Y-138411000D01*
X161070999Y-137892093D01*
X161118273Y-137923680D01*
X161379426Y-138031853D01*
X161656665Y-138087000D01*
X161939335Y-138087000D01*
X162216574Y-138031853D01*
X162477727Y-137923680D01*
X162712759Y-137766637D01*
X162912637Y-137566759D01*
X163069680Y-137331727D01*
X163177853Y-137070574D01*
X163233000Y-136793335D01*
X163233000Y-136510665D01*
X163177853Y-136233426D01*
X163069680Y-135972273D01*
X162912637Y-135737241D01*
X162712759Y-135537363D01*
X162477727Y-135380320D01*
X162425537Y-135358702D01*
X163270903Y-135358702D01*
X163342486Y-135602671D01*
X163597996Y-135723571D01*
X163872184Y-135792300D01*
X164154512Y-135806217D01*
X164197534Y-135799843D01*
X164082320Y-135972273D01*
X163974147Y-136233426D01*
X163919000Y-136510665D01*
X163919000Y-136793335D01*
X163974147Y-137070574D01*
X164082320Y-137331727D01*
X164239363Y-137566759D01*
X164439241Y-137766637D01*
X164674273Y-137923680D01*
X164935426Y-138031853D01*
X165212665Y-138087000D01*
X165495335Y-138087000D01*
X165772574Y-138031853D01*
X166033727Y-137923680D01*
X166268759Y-137766637D01*
X166468637Y-137566759D01*
X166625680Y-137331727D01*
X166733853Y-137070574D01*
X166789000Y-136793335D01*
X166789000Y-136510665D01*
X166733853Y-136233426D01*
X166625680Y-135972273D01*
X166468637Y-135737241D01*
X166268759Y-135537363D01*
X166033727Y-135380320D01*
X165772574Y-135272147D01*
X165495335Y-135217000D01*
X165212665Y-135217000D01*
X165130876Y-135233269D01*
X165076704Y-135179097D01*
X165320671Y-135107514D01*
X165441571Y-134852004D01*
X165510300Y-134577816D01*
X165524217Y-134295488D01*
X165482787Y-134015870D01*
X165387603Y-133749708D01*
X165320671Y-133624486D01*
X165076702Y-133552903D01*
X164263605Y-134366000D01*
X164277748Y-134380143D01*
X164098143Y-134559748D01*
X164084000Y-134545605D01*
X163270903Y-135358702D01*
X162425537Y-135358702D01*
X162216574Y-135272147D01*
X161939335Y-135217000D01*
X161656665Y-135217000D01*
X161379426Y-135272147D01*
X161118273Y-135380320D01*
X161070999Y-135411907D01*
X161070999Y-134436512D01*
X162643783Y-134436512D01*
X162685213Y-134716130D01*
X162780397Y-134982292D01*
X162847329Y-135107514D01*
X163091298Y-135179097D01*
X163904395Y-134366000D01*
X163091298Y-133552903D01*
X162847329Y-133624486D01*
X162726429Y-133879996D01*
X162657700Y-134154184D01*
X162643783Y-134436512D01*
X161070999Y-134436512D01*
X161070999Y-133559868D01*
X161257569Y-133373298D01*
X163270903Y-133373298D01*
X164084000Y-134186395D01*
X164897097Y-133373298D01*
X164825514Y-133129329D01*
X164570004Y-133008429D01*
X164295816Y-132939700D01*
X164013488Y-132925783D01*
X163733870Y-132967213D01*
X163467708Y-133062397D01*
X163342486Y-133129329D01*
X163270903Y-133373298D01*
X161257569Y-133373298D01*
X163848582Y-130782286D01*
X163942665Y-130801000D01*
X164225335Y-130801000D01*
X164502574Y-130745853D01*
X164763727Y-130637680D01*
X164998759Y-130480637D01*
X165198637Y-130280759D01*
X165355680Y-130045727D01*
X165463853Y-129784574D01*
X165519000Y-129507335D01*
X165519000Y-129224665D01*
X165498367Y-129120937D01*
X165523637Y-129090145D01*
X165601173Y-128945086D01*
X165648919Y-128787688D01*
X165661001Y-128665018D01*
X165661001Y-128665017D01*
X165665041Y-128623999D01*
X165661001Y-128582981D01*
X165661001Y-125363718D01*
X165759110Y-125393476D01*
X165989000Y-125272155D01*
X165989000Y-124079000D01*
X166243000Y-124079000D01*
X166243000Y-125272155D01*
X166472890Y-125393476D01*
X166620099Y-125348825D01*
X166882920Y-125223641D01*
X167116269Y-125049588D01*
X167311178Y-124833355D01*
X167460157Y-124583252D01*
X167557481Y-124308891D01*
X167436814Y-124079000D01*
X166243000Y-124079000D01*
X165989000Y-124079000D01*
X165969000Y-124079000D01*
X165969000Y-123825000D01*
X165989000Y-123825000D01*
X165989000Y-122631845D01*
X166243000Y-122631845D01*
X166243000Y-123825000D01*
X167436814Y-123825000D01*
X167557481Y-123595109D01*
X167460157Y-123320748D01*
X167311178Y-123070645D01*
X167116269Y-122854412D01*
X166882920Y-122680359D01*
X166620099Y-122555175D01*
X166472890Y-122510524D01*
X166243000Y-122631845D01*
X165989000Y-122631845D01*
X165759110Y-122510524D01*
X165661001Y-122540282D01*
X165661001Y-121045718D01*
X165759110Y-121075476D01*
X165989000Y-120954155D01*
X165989000Y-119761000D01*
X166243000Y-119761000D01*
X166243000Y-120954155D01*
X166472890Y-121075476D01*
X166620099Y-121030825D01*
X166882920Y-120905641D01*
X167116269Y-120731588D01*
X167311178Y-120515355D01*
X167460157Y-120265252D01*
X167557481Y-119990891D01*
X167436814Y-119761000D01*
X166243000Y-119761000D01*
X165989000Y-119761000D01*
X165969000Y-119761000D01*
X165969000Y-119507000D01*
X165989000Y-119507000D01*
X165989000Y-118313845D01*
X166243000Y-118313845D01*
X166243000Y-119507000D01*
X167436814Y-119507000D01*
X167557481Y-119277109D01*
X167460157Y-119002748D01*
X167311178Y-118752645D01*
X167116269Y-118536412D01*
X166882920Y-118362359D01*
X166620099Y-118237175D01*
X166472890Y-118192524D01*
X166243000Y-118313845D01*
X165989000Y-118313845D01*
X165759110Y-118192524D01*
X165661001Y-118222282D01*
X165661001Y-116981718D01*
X165759110Y-117011476D01*
X165989000Y-116890155D01*
X165989000Y-115697000D01*
X166243000Y-115697000D01*
X166243000Y-116890155D01*
X166472890Y-117011476D01*
X166620099Y-116966825D01*
X166882920Y-116841641D01*
X167116269Y-116667588D01*
X167311178Y-116451355D01*
X167460157Y-116201252D01*
X167557481Y-115926891D01*
X167436814Y-115697000D01*
X166243000Y-115697000D01*
X165989000Y-115697000D01*
X165969000Y-115697000D01*
X165969000Y-115443000D01*
X165989000Y-115443000D01*
X165989000Y-114249845D01*
X166243000Y-114249845D01*
X166243000Y-115443000D01*
X167436814Y-115443000D01*
X167557481Y-115213109D01*
X167460157Y-114938748D01*
X167311178Y-114688645D01*
X167116269Y-114472412D01*
X166882920Y-114298359D01*
X166620099Y-114173175D01*
X166472890Y-114128524D01*
X166243000Y-114249845D01*
X165989000Y-114249845D01*
X165759110Y-114128524D01*
X165661001Y-114158282D01*
X165661001Y-112690072D01*
X166662000Y-112690072D01*
X166786482Y-112677812D01*
X166906180Y-112641502D01*
X167016494Y-112582537D01*
X167113185Y-112503185D01*
X167192537Y-112406494D01*
X167251502Y-112296180D01*
X167287812Y-112176482D01*
X167300072Y-112052000D01*
X167300072Y-110994796D01*
X167623433Y-110671436D01*
X167655292Y-110645290D01*
X167759637Y-110518145D01*
X167837173Y-110373086D01*
X167884919Y-110215688D01*
X167897001Y-110093018D01*
X167897001Y-110093017D01*
X167901041Y-110051999D01*
X167897001Y-110010981D01*
X167897001Y-98269008D01*
X167901040Y-98228000D01*
X167897001Y-98186992D01*
X167897001Y-98186982D01*
X167884919Y-98064312D01*
X167837173Y-97906914D01*
X167759637Y-97761855D01*
X167655292Y-97634710D01*
X167623429Y-97608561D01*
X167586373Y-97571505D01*
X167614600Y-97429599D01*
X167614600Y-97134401D01*
X167557010Y-96844875D01*
X167444042Y-96572147D01*
X167280039Y-96326698D01*
X167071302Y-96117961D01*
X166905897Y-96007441D01*
X167004488Y-95948817D01*
X167222854Y-95752293D01*
X167398684Y-95516944D01*
X167525222Y-95251814D01*
X167570958Y-95101026D01*
X167449817Y-94869000D01*
X166243000Y-94869000D01*
X166243000Y-94889000D01*
X165989000Y-94889000D01*
X165989000Y-94869000D01*
X163703000Y-94869000D01*
X163703000Y-94889000D01*
X163449000Y-94889000D01*
X163449000Y-94869000D01*
X163429000Y-94869000D01*
X163429000Y-94615000D01*
X163449000Y-94615000D01*
X163449000Y-92329000D01*
X163703000Y-92329000D01*
X163703000Y-94615000D01*
X165989000Y-94615000D01*
X165989000Y-92329000D01*
X166243000Y-92329000D01*
X166243000Y-94615000D01*
X167449817Y-94615000D01*
X167570958Y-94382974D01*
X167525222Y-94232186D01*
X167398684Y-93967056D01*
X167222854Y-93731707D01*
X167004488Y-93535183D01*
X166898230Y-93472000D01*
X167004488Y-93408817D01*
X167222854Y-93212293D01*
X167398684Y-92976944D01*
X167525222Y-92711814D01*
X167570958Y-92561026D01*
X167449817Y-92329000D01*
X166243000Y-92329000D01*
X165989000Y-92329000D01*
X163703000Y-92329000D01*
X163449000Y-92329000D01*
X162242183Y-92329000D01*
X162121042Y-92561026D01*
X162166778Y-92711814D01*
X162293316Y-92976944D01*
X162469146Y-93212293D01*
X162687512Y-93408817D01*
X162793770Y-93472000D01*
X162687512Y-93535183D01*
X162469146Y-93731707D01*
X162293316Y-93967056D01*
X162166778Y-94232186D01*
X162121042Y-94382974D01*
X162242182Y-94614998D01*
X162089866Y-94614998D01*
X160677010Y-93202143D01*
X160677010Y-90541028D01*
X160681050Y-90500010D01*
X160664928Y-90336321D01*
X160617182Y-90178923D01*
X160539646Y-90033864D01*
X160529111Y-90021026D01*
X162121042Y-90021026D01*
X162166778Y-90171814D01*
X162293316Y-90436944D01*
X162469146Y-90672293D01*
X162687512Y-90868817D01*
X162793770Y-90932000D01*
X162687512Y-90995183D01*
X162469146Y-91191707D01*
X162293316Y-91427056D01*
X162166778Y-91692186D01*
X162121042Y-91842974D01*
X162242183Y-92075000D01*
X163449000Y-92075000D01*
X163449000Y-89789000D01*
X163703000Y-89789000D01*
X163703000Y-92075000D01*
X165989000Y-92075000D01*
X165989000Y-89789000D01*
X166243000Y-89789000D01*
X166243000Y-92075000D01*
X167449817Y-92075000D01*
X167570958Y-91842974D01*
X167525222Y-91692186D01*
X167398684Y-91427056D01*
X167222854Y-91191707D01*
X167004488Y-90995183D01*
X166898230Y-90932000D01*
X167004488Y-90868817D01*
X167222854Y-90672293D01*
X167398684Y-90436944D01*
X167525222Y-90171814D01*
X167570958Y-90021026D01*
X167449817Y-89789000D01*
X166243000Y-89789000D01*
X165989000Y-89789000D01*
X163703000Y-89789000D01*
X163449000Y-89789000D01*
X162242183Y-89789000D01*
X162121042Y-90021026D01*
X160529111Y-90021026D01*
X160461449Y-89938580D01*
X160461447Y-89938578D01*
X160435301Y-89906719D01*
X160403442Y-89880573D01*
X159974297Y-89451429D01*
X160056236Y-89181309D01*
X160083943Y-88900000D01*
X160056236Y-88618691D01*
X159974182Y-88348192D01*
X159840932Y-88098899D01*
X159661608Y-87880392D01*
X159443101Y-87701068D01*
X159193808Y-87567818D01*
X158923309Y-87485764D01*
X158712492Y-87465000D01*
X157771508Y-87465000D01*
X157560691Y-87485764D01*
X157290192Y-87567818D01*
X157040899Y-87701068D01*
X156822392Y-87880392D01*
X156670888Y-88065000D01*
X156381869Y-88065000D01*
X154145570Y-85828702D01*
X156158903Y-85828702D01*
X156230486Y-86072671D01*
X156485996Y-86193571D01*
X156760184Y-86262300D01*
X157042512Y-86276217D01*
X157162761Y-86258400D01*
X162074328Y-86258400D01*
X162074328Y-87985600D01*
X162086588Y-88110082D01*
X162122898Y-88229780D01*
X162181863Y-88340094D01*
X162261215Y-88436785D01*
X162357906Y-88516137D01*
X162468220Y-88575102D01*
X162532574Y-88594624D01*
X162469146Y-88651707D01*
X162293316Y-88887056D01*
X162166778Y-89152186D01*
X162121042Y-89302974D01*
X162242183Y-89535000D01*
X163449000Y-89535000D01*
X163449000Y-89515000D01*
X163703000Y-89515000D01*
X163703000Y-89535000D01*
X165989000Y-89535000D01*
X165989000Y-89515000D01*
X166243000Y-89515000D01*
X166243000Y-89535000D01*
X167449817Y-89535000D01*
X167570958Y-89302974D01*
X167525222Y-89152186D01*
X167398684Y-88887056D01*
X167222854Y-88651707D01*
X167004488Y-88455183D01*
X166905897Y-88396559D01*
X167071302Y-88286039D01*
X167280039Y-88077302D01*
X167444042Y-87831853D01*
X167557010Y-87559125D01*
X167614600Y-87269599D01*
X167614600Y-86974401D01*
X167586373Y-86832495D01*
X167623429Y-86795439D01*
X167655292Y-86769290D01*
X167759637Y-86642145D01*
X167837173Y-86497086D01*
X167884919Y-86339688D01*
X167897001Y-86217018D01*
X167897001Y-86217008D01*
X167901040Y-86176000D01*
X167897001Y-86134992D01*
X167897001Y-73925019D01*
X167901041Y-73884001D01*
X167888649Y-73758188D01*
X167884919Y-73720312D01*
X167837173Y-73562914D01*
X167759637Y-73417855D01*
X167728570Y-73380000D01*
X167681440Y-73322571D01*
X167681438Y-73322569D01*
X167655292Y-73290710D01*
X167623433Y-73264564D01*
X167278286Y-72919417D01*
X167297000Y-72825335D01*
X167297000Y-72542665D01*
X167241853Y-72265426D01*
X167133680Y-72004273D01*
X166976637Y-71769241D01*
X166776759Y-71569363D01*
X166541727Y-71412320D01*
X166280574Y-71304147D01*
X166003335Y-71249000D01*
X165720665Y-71249000D01*
X165443426Y-71304147D01*
X165182273Y-71412320D01*
X164947241Y-71569363D01*
X164747363Y-71769241D01*
X164590320Y-72004273D01*
X164482147Y-72265426D01*
X164427000Y-72542665D01*
X164427000Y-72825335D01*
X164482147Y-73102574D01*
X164590320Y-73363727D01*
X164747363Y-73598759D01*
X164913943Y-73765339D01*
X164817820Y-73794498D01*
X164707506Y-73853463D01*
X164610815Y-73932815D01*
X164531463Y-74029506D01*
X164472498Y-74139820D01*
X164436188Y-74259518D01*
X164423928Y-74384000D01*
X164427000Y-74898250D01*
X164585750Y-75057000D01*
X165735000Y-75057000D01*
X165735000Y-75037000D01*
X165989000Y-75037000D01*
X165989000Y-75057000D01*
X166009000Y-75057000D01*
X166009000Y-75311000D01*
X165989000Y-75311000D01*
X165989000Y-76460250D01*
X166147750Y-76619000D01*
X166227002Y-76619473D01*
X166227001Y-85623400D01*
X165968401Y-85623400D01*
X165678875Y-85680990D01*
X165406147Y-85793958D01*
X165160698Y-85957961D01*
X165046636Y-86072023D01*
X165029102Y-86014220D01*
X164970137Y-85903906D01*
X164890785Y-85807215D01*
X164794094Y-85727863D01*
X164683780Y-85668898D01*
X164564082Y-85632588D01*
X164439600Y-85620328D01*
X162712400Y-85620328D01*
X162587918Y-85632588D01*
X162468220Y-85668898D01*
X162357906Y-85727863D01*
X162261215Y-85807215D01*
X162181863Y-85903906D01*
X162122898Y-86014220D01*
X162086588Y-86133918D01*
X162074328Y-86258400D01*
X157162761Y-86258400D01*
X157322130Y-86234787D01*
X157588292Y-86139603D01*
X157713514Y-86072671D01*
X157785097Y-85828702D01*
X156972000Y-85015605D01*
X156158903Y-85828702D01*
X154145570Y-85828702D01*
X153388285Y-85071418D01*
X153407000Y-84977335D01*
X153407000Y-84906512D01*
X155531783Y-84906512D01*
X155573213Y-85186130D01*
X155668397Y-85452292D01*
X155735329Y-85577514D01*
X155979298Y-85649097D01*
X156792395Y-84836000D01*
X157151605Y-84836000D01*
X157964702Y-85649097D01*
X158208671Y-85577514D01*
X158329571Y-85322004D01*
X158398300Y-85047816D01*
X158412217Y-84765488D01*
X158370787Y-84485870D01*
X158275603Y-84219708D01*
X158208671Y-84094486D01*
X157964702Y-84022903D01*
X157151605Y-84836000D01*
X156792395Y-84836000D01*
X155979298Y-84022903D01*
X155735329Y-84094486D01*
X155614429Y-84349996D01*
X155545700Y-84624184D01*
X155531783Y-84906512D01*
X153407000Y-84906512D01*
X153407000Y-84694665D01*
X153351853Y-84417426D01*
X153243680Y-84156273D01*
X153086637Y-83921241D01*
X153008694Y-83843298D01*
X156158903Y-83843298D01*
X156972000Y-84656395D01*
X157785097Y-83843298D01*
X157713514Y-83599329D01*
X157458004Y-83478429D01*
X157183816Y-83409700D01*
X156901488Y-83395783D01*
X156621870Y-83437213D01*
X156355708Y-83532397D01*
X156230486Y-83599329D01*
X156158903Y-83843298D01*
X153008694Y-83843298D01*
X152886759Y-83721363D01*
X152807000Y-83668070D01*
X152807000Y-77628981D01*
X152794918Y-77506311D01*
X152747172Y-77348913D01*
X152732000Y-77320528D01*
X152732000Y-77068902D01*
X153828000Y-77068902D01*
X153828000Y-77513098D01*
X153914658Y-77948759D01*
X154084645Y-78359143D01*
X154331427Y-78728479D01*
X154645521Y-79042573D01*
X155014857Y-79289355D01*
X155425241Y-79459342D01*
X155860902Y-79546000D01*
X156305098Y-79546000D01*
X156740759Y-79459342D01*
X157151143Y-79289355D01*
X157520479Y-79042573D01*
X157834573Y-78728479D01*
X158081355Y-78359143D01*
X158251342Y-77948759D01*
X158338000Y-77513098D01*
X158338000Y-77068902D01*
X158251342Y-76633241D01*
X158081355Y-76222857D01*
X157921757Y-75984000D01*
X164423928Y-75984000D01*
X164436188Y-76108482D01*
X164472498Y-76228180D01*
X164531463Y-76338494D01*
X164610815Y-76435185D01*
X164707506Y-76514537D01*
X164817820Y-76573502D01*
X164937518Y-76609812D01*
X165062000Y-76622072D01*
X165576250Y-76619000D01*
X165735000Y-76460250D01*
X165735000Y-75311000D01*
X164585750Y-75311000D01*
X164427000Y-75469750D01*
X164423928Y-75984000D01*
X157921757Y-75984000D01*
X157834573Y-75853521D01*
X157520479Y-75539427D01*
X157151143Y-75292645D01*
X156740759Y-75122658D01*
X156305098Y-75036000D01*
X155860902Y-75036000D01*
X155425241Y-75122658D01*
X155014857Y-75292645D01*
X154645521Y-75539427D01*
X154331427Y-75853521D01*
X154084645Y-76222857D01*
X153914658Y-76633241D01*
X153828000Y-77068902D01*
X152732000Y-77068902D01*
X152732000Y-73417325D01*
X152735676Y-73380000D01*
X152732000Y-73342675D01*
X152732000Y-73342667D01*
X152721003Y-73231014D01*
X152677546Y-73087753D01*
X152606974Y-72955724D01*
X152512001Y-72839999D01*
X152483003Y-72816201D01*
X150066731Y-70399930D01*
X150118000Y-70142184D01*
X150118000Y-69839816D01*
X150059011Y-69543257D01*
X149943299Y-69263905D01*
X149775312Y-69012495D01*
X149561505Y-68798688D01*
X149310095Y-68630701D01*
X149030743Y-68514989D01*
X148734184Y-68456000D01*
X148431816Y-68456000D01*
X148135257Y-68514989D01*
X147855905Y-68630701D01*
X147604495Y-68798688D01*
X147390688Y-69012495D01*
X147222701Y-69263905D01*
X147106989Y-69543257D01*
X147048000Y-69839816D01*
X147048000Y-70142184D01*
X147106989Y-70438743D01*
X147222701Y-70718095D01*
X147390688Y-70969505D01*
X147604495Y-71183312D01*
X147690831Y-71241000D01*
X147604495Y-71298688D01*
X147390688Y-71512495D01*
X147222701Y-71763905D01*
X147106989Y-72043257D01*
X147048000Y-72339816D01*
X147048000Y-72642184D01*
X147106989Y-72938743D01*
X147222701Y-73218095D01*
X147390688Y-73469505D01*
X147428303Y-73507120D01*
X147328506Y-73560463D01*
X147231815Y-73639815D01*
X147152463Y-73736506D01*
X147093498Y-73846820D01*
X147057188Y-73966518D01*
X147044928Y-74091000D01*
X147048000Y-74705250D01*
X147206750Y-74864000D01*
X148456000Y-74864000D01*
X148456000Y-74844000D01*
X148710000Y-74844000D01*
X148710000Y-74864000D01*
X149959250Y-74864000D01*
X150118000Y-74705250D01*
X150121072Y-74091000D01*
X150108812Y-73966518D01*
X150072502Y-73846820D01*
X150013537Y-73736506D01*
X149934185Y-73639815D01*
X149837494Y-73560463D01*
X149737697Y-73507120D01*
X149775312Y-73469505D01*
X149943299Y-73218095D01*
X150059011Y-72938743D01*
X150118000Y-72642184D01*
X150118000Y-72600802D01*
X151212001Y-73694803D01*
X151212000Y-77320530D01*
X151196829Y-77348913D01*
X151149083Y-77506311D01*
X151137001Y-77628981D01*
X151137000Y-83668070D01*
X151057241Y-83721363D01*
X150857363Y-83921241D01*
X150700320Y-84156273D01*
X150592147Y-84417426D01*
X150537000Y-84694665D01*
X150537000Y-84977335D01*
X150592147Y-85254574D01*
X150700320Y-85515727D01*
X150857363Y-85750759D01*
X151057241Y-85950637D01*
X151292273Y-86107680D01*
X151553426Y-86215853D01*
X151830665Y-86271000D01*
X152113335Y-86271000D01*
X152207418Y-86252285D01*
X155416563Y-89461432D01*
X155442709Y-89493291D01*
X155474568Y-89519437D01*
X155474570Y-89519439D01*
X155569854Y-89597636D01*
X155714913Y-89675172D01*
X155872311Y-89722918D01*
X156036000Y-89739040D01*
X156077018Y-89735000D01*
X156670888Y-89735000D01*
X156822392Y-89919608D01*
X157040899Y-90098932D01*
X157173858Y-90170000D01*
X157040899Y-90241068D01*
X156822392Y-90420392D01*
X156643068Y-90638899D01*
X156509818Y-90888192D01*
X156427764Y-91158691D01*
X156400057Y-91440000D01*
X156427764Y-91721309D01*
X156509818Y-91991808D01*
X156643068Y-92241101D01*
X156822392Y-92459608D01*
X157040899Y-92638932D01*
X157173858Y-92710000D01*
X157040899Y-92781068D01*
X156822392Y-92960392D01*
X156643068Y-93178899D01*
X156509818Y-93428192D01*
X156427764Y-93698691D01*
X156400057Y-93980000D01*
X156427764Y-94261309D01*
X156509818Y-94531808D01*
X156643068Y-94781101D01*
X156822392Y-94999608D01*
X157040899Y-95178932D01*
X157168741Y-95247265D01*
X156939161Y-95397399D01*
X156737500Y-95595105D01*
X156578285Y-95828354D01*
X156467633Y-96088182D01*
X156450096Y-96170961D01*
X156572085Y-96393000D01*
X158115000Y-96393000D01*
X158115000Y-96373000D01*
X158369000Y-96373000D01*
X158369000Y-96393000D01*
X159911915Y-96393000D01*
X160033904Y-96170961D01*
X160016367Y-96088182D01*
X159905715Y-95828354D01*
X159746500Y-95595105D01*
X159544839Y-95397399D01*
X159315259Y-95247265D01*
X159443101Y-95178932D01*
X159661608Y-94999608D01*
X159840932Y-94781101D01*
X159859498Y-94746366D01*
X162105627Y-96992495D01*
X162077400Y-97134401D01*
X162077400Y-97429599D01*
X162134990Y-97719125D01*
X162247958Y-97991853D01*
X162411961Y-98237302D01*
X162620698Y-98446039D01*
X162866147Y-98610042D01*
X163138875Y-98723010D01*
X163428401Y-98780600D01*
X163723599Y-98780600D01*
X164013125Y-98723010D01*
X164285853Y-98610042D01*
X164531302Y-98446039D01*
X164740039Y-98237302D01*
X164820422Y-98117000D01*
X164871578Y-98117000D01*
X164951961Y-98237302D01*
X165160698Y-98446039D01*
X165406147Y-98610042D01*
X165678875Y-98723010D01*
X165968401Y-98780600D01*
X166227001Y-98780600D01*
X166227002Y-107364098D01*
X166073816Y-107325700D01*
X165791488Y-107311783D01*
X165511870Y-107353213D01*
X165245708Y-107448397D01*
X165120486Y-107515329D01*
X165048903Y-107759298D01*
X165862000Y-108572395D01*
X165876143Y-108558253D01*
X166055748Y-108737858D01*
X166041605Y-108752000D01*
X166055748Y-108766143D01*
X165876143Y-108945748D01*
X165862000Y-108931605D01*
X165048903Y-109744702D01*
X165069215Y-109813928D01*
X165062000Y-109813928D01*
X164937518Y-109826188D01*
X164817820Y-109862498D01*
X164707506Y-109921463D01*
X164610815Y-110000815D01*
X164531463Y-110097506D01*
X164472498Y-110207820D01*
X164436188Y-110327518D01*
X164423928Y-110452000D01*
X164423928Y-111509205D01*
X164264575Y-111668558D01*
X164232711Y-111694708D01*
X164206563Y-111726570D01*
X164128365Y-111821854D01*
X164050829Y-111966913D01*
X164003083Y-112124311D01*
X163986961Y-112287999D01*
X163991002Y-112329028D01*
X163991002Y-114081928D01*
X162726000Y-114081928D01*
X162601518Y-114094188D01*
X162481820Y-114130498D01*
X162371506Y-114189463D01*
X162274815Y-114268815D01*
X162195463Y-114365506D01*
X162136498Y-114475820D01*
X162100188Y-114595518D01*
X162087928Y-114720000D01*
X162087928Y-116420000D01*
X162100188Y-116544482D01*
X162136498Y-116664180D01*
X162195463Y-116774494D01*
X162274815Y-116871185D01*
X162371506Y-116950537D01*
X162481820Y-117009502D01*
X162601518Y-117045812D01*
X162726000Y-117058072D01*
X163991002Y-117058072D01*
X163991002Y-118145928D01*
X162726000Y-118145928D01*
X162601518Y-118158188D01*
X162481820Y-118194498D01*
X162371506Y-118253463D01*
X162274815Y-118332815D01*
X162195463Y-118429506D01*
X162136498Y-118539820D01*
X162100188Y-118659518D01*
X162087928Y-118784000D01*
X162087928Y-120484000D01*
X162100188Y-120608482D01*
X162136498Y-120728180D01*
X162195463Y-120838494D01*
X162274815Y-120935185D01*
X162371506Y-121014537D01*
X162481820Y-121073502D01*
X162601518Y-121109812D01*
X162726000Y-121122072D01*
X163991001Y-121122072D01*
X163991001Y-122463928D01*
X162726000Y-122463928D01*
X162601518Y-122476188D01*
X162481820Y-122512498D01*
X162371506Y-122571463D01*
X162274815Y-122650815D01*
X162195463Y-122747506D01*
X162136498Y-122857820D01*
X162100188Y-122977518D01*
X162087928Y-123102000D01*
X162087928Y-124802000D01*
X162100188Y-124926482D01*
X162136498Y-125046180D01*
X162195463Y-125156494D01*
X162274815Y-125253185D01*
X162371506Y-125332537D01*
X162481820Y-125391502D01*
X162601518Y-125427812D01*
X162726000Y-125440072D01*
X163991001Y-125440072D01*
X163991001Y-127931000D01*
X163942665Y-127931000D01*
X163665426Y-127986147D01*
X163404273Y-128094320D01*
X163169241Y-128251363D01*
X162969363Y-128451241D01*
X162812320Y-128686273D01*
X162704147Y-128947426D01*
X162649000Y-129224665D01*
X162649000Y-129507335D01*
X162667714Y-129601418D01*
X159674573Y-132594560D01*
X159642709Y-132620710D01*
X159561906Y-132719169D01*
X159538363Y-132747856D01*
X159460827Y-132892915D01*
X159413081Y-133050313D01*
X159396959Y-133214001D01*
X159401000Y-133255030D01*
X159401000Y-134708245D01*
X159332932Y-134580899D01*
X159153608Y-134362392D01*
X158935101Y-134183068D01*
X158685808Y-134049818D01*
X158415309Y-133967764D01*
X158204492Y-133947000D01*
X157263508Y-133947000D01*
X157052691Y-133967764D01*
X156782192Y-134049818D01*
X156532899Y-134183068D01*
X156314392Y-134362392D01*
X156135068Y-134580899D01*
X156001818Y-134830192D01*
X155919764Y-135100691D01*
X155892057Y-135382000D01*
X155919764Y-135663309D01*
X156001818Y-135933808D01*
X156135068Y-136183101D01*
X156314392Y-136401608D01*
X156532899Y-136580932D01*
X156665858Y-136652000D01*
X156532899Y-136723068D01*
X156314392Y-136902392D01*
X156135068Y-137120899D01*
X156002251Y-137369381D01*
X151457000Y-132824131D01*
X151457000Y-130587902D01*
X153835000Y-130587902D01*
X153835000Y-131032098D01*
X153921658Y-131467759D01*
X154091645Y-131878143D01*
X154338427Y-132247479D01*
X154652521Y-132561573D01*
X155021857Y-132808355D01*
X155432241Y-132978342D01*
X155867902Y-133065000D01*
X156312098Y-133065000D01*
X156747759Y-132978342D01*
X157158143Y-132808355D01*
X157527479Y-132561573D01*
X157841573Y-132247479D01*
X158088355Y-131878143D01*
X158258342Y-131467759D01*
X158345000Y-131032098D01*
X158345000Y-130587902D01*
X158258342Y-130152241D01*
X158088355Y-129741857D01*
X157841573Y-129372521D01*
X157527479Y-129058427D01*
X157158143Y-128811645D01*
X156747759Y-128641658D01*
X156312098Y-128555000D01*
X155867902Y-128555000D01*
X155432241Y-128641658D01*
X155021857Y-128811645D01*
X154652521Y-129058427D01*
X154338427Y-129372521D01*
X154091645Y-129741857D01*
X153921658Y-130152241D01*
X153835000Y-130587902D01*
X151457000Y-130587902D01*
X151457000Y-120987902D01*
X153835000Y-120987902D01*
X153835000Y-121432098D01*
X153921658Y-121867759D01*
X154091645Y-122278143D01*
X154338427Y-122647479D01*
X154652521Y-122961573D01*
X155021857Y-123208355D01*
X155432241Y-123378342D01*
X155867902Y-123465000D01*
X156312098Y-123465000D01*
X156747759Y-123378342D01*
X157158143Y-123208355D01*
X157527479Y-122961573D01*
X157841573Y-122647479D01*
X158088355Y-122278143D01*
X158258342Y-121867759D01*
X158345000Y-121432098D01*
X158345000Y-120987902D01*
X158258342Y-120552241D01*
X158088355Y-120141857D01*
X157841573Y-119772521D01*
X157527479Y-119458427D01*
X157158143Y-119211645D01*
X156747759Y-119041658D01*
X156312098Y-118955000D01*
X155867902Y-118955000D01*
X155432241Y-119041658D01*
X155021857Y-119211645D01*
X154652521Y-119458427D01*
X154338427Y-119772521D01*
X154091645Y-120141857D01*
X153921658Y-120552241D01*
X153835000Y-120987902D01*
X151457000Y-120987902D01*
X151457000Y-116943049D01*
X151473426Y-116949853D01*
X151750665Y-117005000D01*
X152033335Y-117005000D01*
X152310574Y-116949853D01*
X152571727Y-116841680D01*
X152806759Y-116684637D01*
X153006637Y-116484759D01*
X153163680Y-116249727D01*
X153271853Y-115988574D01*
X153327000Y-115711335D01*
X153327000Y-115428665D01*
X154013000Y-115428665D01*
X154013000Y-115711335D01*
X154068147Y-115988574D01*
X154176320Y-116249727D01*
X154333363Y-116484759D01*
X154533241Y-116684637D01*
X154768273Y-116841680D01*
X155029426Y-116949853D01*
X155306665Y-117005000D01*
X155589335Y-117005000D01*
X155866574Y-116949853D01*
X156127727Y-116841680D01*
X156362759Y-116684637D01*
X156562637Y-116484759D01*
X156719680Y-116249727D01*
X156827853Y-115988574D01*
X156883000Y-115711335D01*
X156883000Y-115428665D01*
X156827853Y-115151426D01*
X156719680Y-114890273D01*
X156562637Y-114655241D01*
X156362759Y-114455363D01*
X156127727Y-114298320D01*
X155866574Y-114190147D01*
X155589335Y-114135000D01*
X155306665Y-114135000D01*
X155029426Y-114190147D01*
X154768273Y-114298320D01*
X154533241Y-114455363D01*
X154333363Y-114655241D01*
X154176320Y-114890273D01*
X154068147Y-115151426D01*
X154013000Y-115428665D01*
X153327000Y-115428665D01*
X153271853Y-115151426D01*
X153163680Y-114890273D01*
X153006637Y-114655241D01*
X152806759Y-114455363D01*
X152571727Y-114298320D01*
X152310574Y-114190147D01*
X152033335Y-114135000D01*
X151750665Y-114135000D01*
X151473426Y-114190147D01*
X151457000Y-114196951D01*
X151457000Y-109323049D01*
X151473426Y-109329853D01*
X151750665Y-109385000D01*
X152033335Y-109385000D01*
X152310574Y-109329853D01*
X152571727Y-109221680D01*
X152806759Y-109064637D01*
X153006637Y-108864759D01*
X153163680Y-108629727D01*
X153271853Y-108368574D01*
X153285684Y-108299040D01*
X154056091Y-108299040D01*
X154150930Y-108563881D01*
X154295615Y-108805131D01*
X154484586Y-109013519D01*
X154710580Y-109181037D01*
X154964913Y-109301246D01*
X155098961Y-109341904D01*
X155321000Y-109219915D01*
X155321000Y-108077000D01*
X155575000Y-108077000D01*
X155575000Y-109219915D01*
X155797039Y-109341904D01*
X155931087Y-109301246D01*
X156185420Y-109181037D01*
X156411414Y-109013519D01*
X156584623Y-108822512D01*
X164421783Y-108822512D01*
X164463213Y-109102130D01*
X164558397Y-109368292D01*
X164625329Y-109493514D01*
X164869298Y-109565097D01*
X165682395Y-108752000D01*
X164869298Y-107938903D01*
X164625329Y-108010486D01*
X164504429Y-108265996D01*
X164435700Y-108540184D01*
X164421783Y-108822512D01*
X156584623Y-108822512D01*
X156600385Y-108805131D01*
X156745070Y-108563881D01*
X156839909Y-108299040D01*
X156718624Y-108077000D01*
X155575000Y-108077000D01*
X155321000Y-108077000D01*
X154177376Y-108077000D01*
X154056091Y-108299040D01*
X153285684Y-108299040D01*
X153327000Y-108091335D01*
X153327000Y-107808665D01*
X153285685Y-107600960D01*
X154056091Y-107600960D01*
X154177376Y-107823000D01*
X155321000Y-107823000D01*
X155321000Y-106680085D01*
X155575000Y-106680085D01*
X155575000Y-107823000D01*
X156718624Y-107823000D01*
X156839909Y-107600960D01*
X156745070Y-107336119D01*
X156600385Y-107094869D01*
X156411414Y-106886481D01*
X156185420Y-106718963D01*
X155931087Y-106598754D01*
X155797039Y-106558096D01*
X155575000Y-106680085D01*
X155321000Y-106680085D01*
X155098961Y-106558096D01*
X154964913Y-106598754D01*
X154710580Y-106718963D01*
X154484586Y-106886481D01*
X154295615Y-107094869D01*
X154150930Y-107336119D01*
X154056091Y-107600960D01*
X153285685Y-107600960D01*
X153271853Y-107531426D01*
X153163680Y-107270273D01*
X153006637Y-107035241D01*
X152806759Y-106835363D01*
X152571727Y-106678320D01*
X152310574Y-106570147D01*
X152033335Y-106515000D01*
X151750665Y-106515000D01*
X151473426Y-106570147D01*
X151457000Y-106576951D01*
X151457000Y-101923912D01*
X151553426Y-101963853D01*
X151830665Y-102019000D01*
X152113335Y-102019000D01*
X152390574Y-101963853D01*
X152651727Y-101855680D01*
X152886759Y-101698637D01*
X153008694Y-101576702D01*
X156158903Y-101576702D01*
X156230486Y-101820671D01*
X156485996Y-101941571D01*
X156760184Y-102010300D01*
X157042512Y-102024217D01*
X157322130Y-101982787D01*
X157588292Y-101887603D01*
X157713514Y-101820671D01*
X157785097Y-101576702D01*
X156972000Y-100763605D01*
X156158903Y-101576702D01*
X153008694Y-101576702D01*
X153086637Y-101498759D01*
X153243680Y-101263727D01*
X153351853Y-101002574D01*
X153407000Y-100725335D01*
X153407000Y-100654512D01*
X155531783Y-100654512D01*
X155573213Y-100934130D01*
X155668397Y-101200292D01*
X155735329Y-101325514D01*
X155979298Y-101397097D01*
X156792395Y-100584000D01*
X157151605Y-100584000D01*
X157964702Y-101397097D01*
X158208671Y-101325514D01*
X158329571Y-101070004D01*
X158398300Y-100795816D01*
X158412217Y-100513488D01*
X158370787Y-100233870D01*
X158275603Y-99967708D01*
X158208671Y-99842486D01*
X157964702Y-99770903D01*
X157151605Y-100584000D01*
X156792395Y-100584000D01*
X155979298Y-99770903D01*
X155735329Y-99842486D01*
X155614429Y-100097996D01*
X155545700Y-100372184D01*
X155531783Y-100654512D01*
X153407000Y-100654512D01*
X153407000Y-100442665D01*
X153351853Y-100165426D01*
X153243680Y-99904273D01*
X153086637Y-99669241D01*
X153008694Y-99591298D01*
X156158903Y-99591298D01*
X156972000Y-100404395D01*
X157785097Y-99591298D01*
X157713514Y-99347329D01*
X157458004Y-99226429D01*
X157183816Y-99157700D01*
X156901488Y-99143783D01*
X156621870Y-99185213D01*
X156355708Y-99280397D01*
X156230486Y-99347329D01*
X156158903Y-99591298D01*
X153008694Y-99591298D01*
X152886759Y-99469363D01*
X152651727Y-99312320D01*
X152390574Y-99204147D01*
X152113335Y-99149000D01*
X151830665Y-99149000D01*
X151736582Y-99167715D01*
X151457000Y-98888133D01*
X151457000Y-97887615D01*
X151538145Y-97863000D01*
X152802715Y-97863000D01*
X152925744Y-97945205D01*
X153114102Y-98023226D01*
X153314061Y-98063000D01*
X153517939Y-98063000D01*
X153717898Y-98023226D01*
X153906256Y-97945205D01*
X154075774Y-97831937D01*
X154219937Y-97687774D01*
X154333205Y-97518256D01*
X154411226Y-97329898D01*
X154451000Y-97129939D01*
X154451000Y-96926061D01*
X154439658Y-96869039D01*
X156450096Y-96869039D01*
X156467633Y-96951818D01*
X156578285Y-97211646D01*
X156737500Y-97444895D01*
X156939161Y-97642601D01*
X157175517Y-97797166D01*
X157437486Y-97902650D01*
X157715000Y-97955000D01*
X158115000Y-97955000D01*
X158115000Y-96647000D01*
X158369000Y-96647000D01*
X158369000Y-97955000D01*
X158769000Y-97955000D01*
X159046514Y-97902650D01*
X159308483Y-97797166D01*
X159544839Y-97642601D01*
X159746500Y-97444895D01*
X159905715Y-97211646D01*
X160016367Y-96951818D01*
X160033904Y-96869039D01*
X159911915Y-96647000D01*
X158369000Y-96647000D01*
X158115000Y-96647000D01*
X156572085Y-96647000D01*
X156450096Y-96869039D01*
X154439658Y-96869039D01*
X154411226Y-96726102D01*
X154333205Y-96537744D01*
X154219937Y-96368226D01*
X154075774Y-96224063D01*
X153906256Y-96110795D01*
X153717898Y-96032774D01*
X153517939Y-95993000D01*
X153314061Y-95993000D01*
X153114102Y-96032774D01*
X152925744Y-96110795D01*
X152802715Y-96193000D01*
X152422376Y-96193000D01*
X152354182Y-95968192D01*
X152220932Y-95718899D01*
X152041608Y-95500392D01*
X151823101Y-95321068D01*
X151690142Y-95250000D01*
X151823101Y-95178932D01*
X152041608Y-94999608D01*
X152220932Y-94781101D01*
X152354182Y-94531808D01*
X152436236Y-94261309D01*
X152463943Y-93980000D01*
X152436236Y-93698691D01*
X152354182Y-93428192D01*
X152220932Y-93178899D01*
X152041608Y-92960392D01*
X151823101Y-92781068D01*
X151690142Y-92710000D01*
X151823101Y-92638932D01*
X152041608Y-92459608D01*
X152220932Y-92241101D01*
X152354182Y-91991808D01*
X152436236Y-91721309D01*
X152463943Y-91440000D01*
X152436236Y-91158691D01*
X152354182Y-90888192D01*
X152220932Y-90638899D01*
X152041608Y-90420392D01*
X151928518Y-90327581D01*
X151946482Y-90325812D01*
X152066180Y-90289502D01*
X152176494Y-90230537D01*
X152273185Y-90151185D01*
X152352537Y-90054494D01*
X152411502Y-89944180D01*
X152447812Y-89824482D01*
X152460072Y-89700000D01*
X152460072Y-88100000D01*
X152447812Y-87975518D01*
X152411502Y-87855820D01*
X152352537Y-87745506D01*
X152273185Y-87648815D01*
X152176494Y-87569463D01*
X152066180Y-87510498D01*
X151946482Y-87474188D01*
X151822000Y-87461928D01*
X149422000Y-87461928D01*
X149297518Y-87474188D01*
X149177820Y-87510498D01*
X149067506Y-87569463D01*
X148970815Y-87648815D01*
X148891463Y-87745506D01*
X148832498Y-87855820D01*
X148796188Y-87975518D01*
X148783928Y-88100000D01*
X148783928Y-89700000D01*
X148796188Y-89824482D01*
X148832498Y-89944180D01*
X148891463Y-90054494D01*
X148970815Y-90151185D01*
X149067506Y-90230537D01*
X149177820Y-90289502D01*
X149297518Y-90325812D01*
X149315482Y-90327581D01*
X149202392Y-90420392D01*
X149023068Y-90638899D01*
X148889818Y-90888192D01*
X148807764Y-91158691D01*
X148780057Y-91440000D01*
X148807764Y-91721309D01*
X148889818Y-91991808D01*
X149023068Y-92241101D01*
X149202392Y-92459608D01*
X149420899Y-92638932D01*
X149553858Y-92710000D01*
X149420899Y-92781068D01*
X149202392Y-92960392D01*
X149023068Y-93178899D01*
X148889818Y-93428192D01*
X148807764Y-93698691D01*
X148780057Y-93980000D01*
X148807764Y-94261309D01*
X148889818Y-94531808D01*
X149023068Y-94781101D01*
X149202392Y-94999608D01*
X149420899Y-95178932D01*
X149553858Y-95250000D01*
X149420899Y-95321068D01*
X149202392Y-95500392D01*
X149023068Y-95718899D01*
X148889818Y-95968192D01*
X148807764Y-96238691D01*
X148780057Y-96520000D01*
X148807764Y-96801309D01*
X148889818Y-97071808D01*
X149023068Y-97321101D01*
X149202392Y-97539608D01*
X149420899Y-97718932D01*
X149670192Y-97852182D01*
X149787000Y-97887615D01*
X149787000Y-99192981D01*
X149782960Y-99234000D01*
X149787000Y-99275019D01*
X149787001Y-122538512D01*
X149782312Y-122531495D01*
X149568505Y-122317688D01*
X149317095Y-122149701D01*
X149037743Y-122033989D01*
X148741184Y-121975000D01*
X148438816Y-121975000D01*
X148142257Y-122033989D01*
X147862905Y-122149701D01*
X147611495Y-122317688D01*
X147397688Y-122531495D01*
X147251687Y-122750000D01*
X145259323Y-122750000D01*
X145222000Y-122746324D01*
X145184677Y-122750000D01*
X145184667Y-122750000D01*
X145073014Y-122760997D01*
X144929753Y-122804454D01*
X144797724Y-122875026D01*
X144681999Y-122969999D01*
X144658201Y-122998997D01*
X143669271Y-123987928D01*
X142406000Y-123987928D01*
X142281518Y-124000188D01*
X142161820Y-124036498D01*
X142051506Y-124095463D01*
X141954815Y-124174815D01*
X141875463Y-124271506D01*
X141816498Y-124381820D01*
X141780188Y-124501518D01*
X141767928Y-124626000D01*
X140685000Y-124626000D01*
X140685000Y-119292000D01*
X141767928Y-119292000D01*
X141767928Y-120992000D01*
X141780188Y-121116482D01*
X141816498Y-121236180D01*
X141875463Y-121346494D01*
X141954815Y-121443185D01*
X142051506Y-121522537D01*
X142161820Y-121581502D01*
X142281518Y-121617812D01*
X142406000Y-121630072D01*
X144106000Y-121630072D01*
X144230482Y-121617812D01*
X144350180Y-121581502D01*
X144460494Y-121522537D01*
X144557185Y-121443185D01*
X144636537Y-121346494D01*
X144695502Y-121236180D01*
X144719966Y-121155534D01*
X144795731Y-121239588D01*
X145029080Y-121413641D01*
X145291901Y-121538825D01*
X145439110Y-121583476D01*
X145669000Y-121462155D01*
X145669000Y-120269000D01*
X145923000Y-120269000D01*
X145923000Y-121462155D01*
X146152890Y-121583476D01*
X146300099Y-121538825D01*
X146562920Y-121413641D01*
X146796269Y-121239588D01*
X146991178Y-121023355D01*
X147140157Y-120773252D01*
X147237481Y-120498891D01*
X147116814Y-120269000D01*
X145923000Y-120269000D01*
X145669000Y-120269000D01*
X145649000Y-120269000D01*
X145649000Y-120015000D01*
X145669000Y-120015000D01*
X145669000Y-118821845D01*
X145923000Y-118821845D01*
X145923000Y-120015000D01*
X147116814Y-120015000D01*
X147237481Y-119785109D01*
X147140157Y-119510748D01*
X146991178Y-119260645D01*
X146796269Y-119044412D01*
X146562920Y-118870359D01*
X146300099Y-118745175D01*
X146152890Y-118700524D01*
X145923000Y-118821845D01*
X145669000Y-118821845D01*
X145439110Y-118700524D01*
X145291901Y-118745175D01*
X145029080Y-118870359D01*
X144795731Y-119044412D01*
X144719966Y-119128466D01*
X144695502Y-119047820D01*
X144636537Y-118937506D01*
X144557185Y-118840815D01*
X144460494Y-118761463D01*
X144350180Y-118702498D01*
X144230482Y-118666188D01*
X144106000Y-118653928D01*
X142406000Y-118653928D01*
X142281518Y-118666188D01*
X142161820Y-118702498D01*
X142051506Y-118761463D01*
X141954815Y-118840815D01*
X141875463Y-118937506D01*
X141816498Y-119047820D01*
X141780188Y-119167518D01*
X141767928Y-119292000D01*
X140685000Y-119292000D01*
X140685000Y-93370061D01*
X143491000Y-93370061D01*
X143491000Y-93573939D01*
X143530774Y-93773898D01*
X143608795Y-93962256D01*
X143722063Y-94131774D01*
X143866226Y-94275937D01*
X144035744Y-94389205D01*
X144224102Y-94467226D01*
X144424061Y-94507000D01*
X144486199Y-94507000D01*
X145652132Y-95672934D01*
X145540320Y-95840273D01*
X145432147Y-96101426D01*
X145377000Y-96378665D01*
X145377000Y-96661335D01*
X145432147Y-96938574D01*
X145540320Y-97199727D01*
X145697363Y-97434759D01*
X145897241Y-97634637D01*
X146132273Y-97791680D01*
X146393426Y-97899853D01*
X146670665Y-97955000D01*
X146953335Y-97955000D01*
X147230574Y-97899853D01*
X147491727Y-97791680D01*
X147726759Y-97634637D01*
X147926637Y-97434759D01*
X148083680Y-97199727D01*
X148191853Y-96938574D01*
X148247000Y-96661335D01*
X148247000Y-96378665D01*
X148191853Y-96101426D01*
X148083680Y-95840273D01*
X147926637Y-95605241D01*
X147726759Y-95405363D01*
X147491727Y-95248320D01*
X147296084Y-95167282D01*
X145561000Y-93432199D01*
X145561000Y-93370061D01*
X145521226Y-93170102D01*
X145443205Y-92981744D01*
X145329937Y-92812226D01*
X145185774Y-92668063D01*
X145016256Y-92554795D01*
X144827898Y-92476774D01*
X144627939Y-92437000D01*
X144424061Y-92437000D01*
X144224102Y-92476774D01*
X144035744Y-92554795D01*
X143866226Y-92668063D01*
X143722063Y-92812226D01*
X143608795Y-92981744D01*
X143530774Y-93170102D01*
X143491000Y-93370061D01*
X140685000Y-93370061D01*
X140685000Y-88758665D01*
X145377000Y-88758665D01*
X145377000Y-89041335D01*
X145432147Y-89318574D01*
X145540320Y-89579727D01*
X145697363Y-89814759D01*
X145897241Y-90014637D01*
X146132273Y-90171680D01*
X146393426Y-90279853D01*
X146670665Y-90335000D01*
X146953335Y-90335000D01*
X147230574Y-90279853D01*
X147491727Y-90171680D01*
X147726759Y-90014637D01*
X147926637Y-89814759D01*
X148083680Y-89579727D01*
X148191853Y-89318574D01*
X148247000Y-89041335D01*
X148247000Y-88758665D01*
X148191853Y-88481426D01*
X148083680Y-88220273D01*
X147926637Y-87985241D01*
X147726759Y-87785363D01*
X147491727Y-87628320D01*
X147230574Y-87520147D01*
X146953335Y-87465000D01*
X146670665Y-87465000D01*
X146393426Y-87520147D01*
X146132273Y-87628320D01*
X145897241Y-87785363D01*
X145697363Y-87985241D01*
X145540320Y-88220273D01*
X145432147Y-88481426D01*
X145377000Y-88758665D01*
X140685000Y-88758665D01*
X140685000Y-75891000D01*
X147044928Y-75891000D01*
X147057188Y-76015482D01*
X147093498Y-76135180D01*
X147152463Y-76245494D01*
X147231815Y-76342185D01*
X147328506Y-76421537D01*
X147438820Y-76480502D01*
X147558518Y-76516812D01*
X147683000Y-76529072D01*
X148297250Y-76526000D01*
X148456000Y-76367250D01*
X148456000Y-75118000D01*
X148710000Y-75118000D01*
X148710000Y-76367250D01*
X148868750Y-76526000D01*
X149483000Y-76529072D01*
X149607482Y-76516812D01*
X149727180Y-76480502D01*
X149837494Y-76421537D01*
X149934185Y-76342185D01*
X150013537Y-76245494D01*
X150072502Y-76135180D01*
X150108812Y-76015482D01*
X150121072Y-75891000D01*
X150118000Y-75276750D01*
X149959250Y-75118000D01*
X148710000Y-75118000D01*
X148456000Y-75118000D01*
X147206750Y-75118000D01*
X147048000Y-75276750D01*
X147044928Y-75891000D01*
X140685000Y-75891000D01*
X140685000Y-65685000D01*
X155033314Y-65685000D01*
X155014857Y-65692645D01*
%TA.AperFunction,Conductor*%
D26*
G36*
X155014857Y-65692645D02*
G01*
X154645521Y-65939427D01*
X154331427Y-66253521D01*
X154084645Y-66622857D01*
X153914658Y-67033241D01*
X153828000Y-67468902D01*
X153828000Y-67913098D01*
X153914658Y-68348759D01*
X154084645Y-68759143D01*
X154331427Y-69128479D01*
X154645521Y-69442573D01*
X155014857Y-69689355D01*
X155425241Y-69859342D01*
X155860902Y-69946000D01*
X156305098Y-69946000D01*
X156740759Y-69859342D01*
X157151143Y-69689355D01*
X157520479Y-69442573D01*
X157834573Y-69128479D01*
X158081355Y-68759143D01*
X158251342Y-68348759D01*
X158338000Y-67913098D01*
X158338000Y-67468902D01*
X158251342Y-67033241D01*
X158081355Y-66622857D01*
X157834573Y-66253521D01*
X157520479Y-65939427D01*
X157151143Y-65692645D01*
X157132686Y-65685000D01*
X169315000Y-65685000D01*
X169315001Y-159315000D01*
X147260396Y-159315000D01*
X147418637Y-159156759D01*
X147575680Y-158921727D01*
X147683853Y-158660574D01*
X147739000Y-158383335D01*
X147739000Y-158100665D01*
X147683853Y-157823426D01*
X147575680Y-157562273D01*
X147418637Y-157327241D01*
X147218759Y-157127363D01*
X146983727Y-156970320D01*
X146722574Y-156862147D01*
X146445335Y-156807000D01*
X146162665Y-156807000D01*
X145885426Y-156862147D01*
X145624273Y-156970320D01*
X145389241Y-157127363D01*
X145189363Y-157327241D01*
X145032320Y-157562273D01*
X144924147Y-157823426D01*
X144869000Y-158100665D01*
X144869000Y-158383335D01*
X144924147Y-158660574D01*
X145032320Y-158921727D01*
X145189363Y-159156759D01*
X145347604Y-159315000D01*
X140685000Y-159315000D01*
X140685000Y-147940665D01*
X141313000Y-147940665D01*
X141313000Y-148223335D01*
X141368147Y-148500574D01*
X141476320Y-148761727D01*
X141633363Y-148996759D01*
X141833241Y-149196637D01*
X142068273Y-149353680D01*
X142329426Y-149461853D01*
X142606665Y-149517000D01*
X142889335Y-149517000D01*
X143166574Y-149461853D01*
X143427727Y-149353680D01*
X143662759Y-149196637D01*
X143862637Y-148996759D01*
X144019680Y-148761727D01*
X144127853Y-148500574D01*
X144183000Y-148223335D01*
X144183000Y-147940665D01*
X144127853Y-147663426D01*
X144019680Y-147402273D01*
X143862637Y-147167241D01*
X143662759Y-146967363D01*
X143427727Y-146810320D01*
X143166574Y-146702147D01*
X142889335Y-146647000D01*
X142606665Y-146647000D01*
X142329426Y-146702147D01*
X142068273Y-146810320D01*
X141833241Y-146967363D01*
X141633363Y-147167241D01*
X141476320Y-147402273D01*
X141368147Y-147663426D01*
X141313000Y-147940665D01*
X140685000Y-147940665D01*
X140685000Y-137526665D01*
X141313000Y-137526665D01*
X141313000Y-137809335D01*
X141368147Y-138086574D01*
X141476320Y-138347727D01*
X141633363Y-138582759D01*
X141833241Y-138782637D01*
X142068273Y-138939680D01*
X142329426Y-139047853D01*
X142415629Y-139065000D01*
X142329426Y-139082147D01*
X142068273Y-139190320D01*
X141833241Y-139347363D01*
X141633363Y-139547241D01*
X141476320Y-139782273D01*
X141368147Y-140043426D01*
X141313000Y-140320665D01*
X141313000Y-140603335D01*
X141368147Y-140880574D01*
X141476320Y-141141727D01*
X141633363Y-141376759D01*
X141833241Y-141576637D01*
X142068273Y-141733680D01*
X142329426Y-141841853D01*
X142606665Y-141897000D01*
X142889335Y-141897000D01*
X143166574Y-141841853D01*
X143427727Y-141733680D01*
X143662759Y-141576637D01*
X143862637Y-141376759D01*
X144019680Y-141141727D01*
X144127853Y-140880574D01*
X144183000Y-140603335D01*
X144183000Y-140320665D01*
X144127853Y-140043426D01*
X144019680Y-139782273D01*
X143862637Y-139547241D01*
X143662759Y-139347363D01*
X143427727Y-139190320D01*
X143166574Y-139082147D01*
X143080371Y-139065000D01*
X143166574Y-139047853D01*
X143427727Y-138939680D01*
X143662759Y-138782637D01*
X143862637Y-138582759D01*
X144019680Y-138347727D01*
X144127853Y-138086574D01*
X144183000Y-137809335D01*
X144183000Y-137526665D01*
X144869000Y-137526665D01*
X144869000Y-137809335D01*
X144924147Y-138086574D01*
X145032320Y-138347727D01*
X145189363Y-138582759D01*
X145389241Y-138782637D01*
X145624273Y-138939680D01*
X145885426Y-139047853D01*
X145971629Y-139065000D01*
X145885426Y-139082147D01*
X145624273Y-139190320D01*
X145389241Y-139347363D01*
X145189363Y-139547241D01*
X145032320Y-139782273D01*
X144924147Y-140043426D01*
X144869000Y-140320665D01*
X144869000Y-140603335D01*
X144924147Y-140880574D01*
X145032320Y-141141727D01*
X145189363Y-141376759D01*
X145389241Y-141576637D01*
X145624273Y-141733680D01*
X145885426Y-141841853D01*
X146162665Y-141897000D01*
X146445335Y-141897000D01*
X146722574Y-141841853D01*
X146983727Y-141733680D01*
X147218759Y-141576637D01*
X147418637Y-141376759D01*
X147575680Y-141141727D01*
X147683853Y-140880574D01*
X147739000Y-140603335D01*
X147739000Y-140320665D01*
X147683853Y-140043426D01*
X147575680Y-139782273D01*
X147418637Y-139547241D01*
X147218759Y-139347363D01*
X146983727Y-139190320D01*
X146722574Y-139082147D01*
X146636371Y-139065000D01*
X146722574Y-139047853D01*
X146983727Y-138939680D01*
X147218759Y-138782637D01*
X147418637Y-138582759D01*
X147575680Y-138347727D01*
X147683853Y-138086574D01*
X147739000Y-137809335D01*
X147739000Y-137526665D01*
X147683853Y-137249426D01*
X147575680Y-136988273D01*
X147418637Y-136753241D01*
X147218759Y-136553363D01*
X146983727Y-136396320D01*
X146722574Y-136288147D01*
X146445335Y-136233000D01*
X146162665Y-136233000D01*
X145885426Y-136288147D01*
X145624273Y-136396320D01*
X145389241Y-136553363D01*
X145189363Y-136753241D01*
X145032320Y-136988273D01*
X144924147Y-137249426D01*
X144869000Y-137526665D01*
X144183000Y-137526665D01*
X144127853Y-137249426D01*
X144019680Y-136988273D01*
X143862637Y-136753241D01*
X143662759Y-136553363D01*
X143427727Y-136396320D01*
X143166574Y-136288147D01*
X142889335Y-136233000D01*
X142606665Y-136233000D01*
X142329426Y-136288147D01*
X142068273Y-136396320D01*
X141833241Y-136553363D01*
X141633363Y-136753241D01*
X141476320Y-136988273D01*
X141368147Y-137249426D01*
X141313000Y-137526665D01*
X140685000Y-137526665D01*
X140685000Y-129906665D01*
X141313000Y-129906665D01*
X141313000Y-130189335D01*
X141368147Y-130466574D01*
X141476320Y-130727727D01*
X141633363Y-130962759D01*
X141833241Y-131162637D01*
X142068273Y-131319680D01*
X142329426Y-131427853D01*
X142606665Y-131483000D01*
X142889335Y-131483000D01*
X143166574Y-131427853D01*
X143427727Y-131319680D01*
X143662759Y-131162637D01*
X143862637Y-130962759D01*
X144019680Y-130727727D01*
X144127853Y-130466574D01*
X144183000Y-130189335D01*
X144183000Y-129906665D01*
X144869000Y-129906665D01*
X144869000Y-130189335D01*
X144924147Y-130466574D01*
X145032320Y-130727727D01*
X145189363Y-130962759D01*
X145389241Y-131162637D01*
X145624273Y-131319680D01*
X145885426Y-131427853D01*
X146162665Y-131483000D01*
X146445335Y-131483000D01*
X146722574Y-131427853D01*
X146983727Y-131319680D01*
X147218759Y-131162637D01*
X147418637Y-130962759D01*
X147575680Y-130727727D01*
X147683853Y-130466574D01*
X147739000Y-130189335D01*
X147739000Y-130047827D01*
X148304250Y-130045000D01*
X148463000Y-129886250D01*
X148463000Y-128637000D01*
X147213750Y-128637000D01*
X147055000Y-128795750D01*
X147054859Y-128823849D01*
X146983727Y-128776320D01*
X146722574Y-128668147D01*
X146445335Y-128613000D01*
X146162665Y-128613000D01*
X145885426Y-128668147D01*
X145624273Y-128776320D01*
X145389241Y-128933363D01*
X145189363Y-129133241D01*
X145032320Y-129368273D01*
X144924147Y-129629426D01*
X144869000Y-129906665D01*
X144183000Y-129906665D01*
X144127853Y-129629426D01*
X144019680Y-129368273D01*
X143862637Y-129133241D01*
X143662759Y-128933363D01*
X143427727Y-128776320D01*
X143166574Y-128668147D01*
X142889335Y-128613000D01*
X142606665Y-128613000D01*
X142329426Y-128668147D01*
X142068273Y-128776320D01*
X141833241Y-128933363D01*
X141633363Y-129133241D01*
X141476320Y-129368273D01*
X141368147Y-129629426D01*
X141313000Y-129906665D01*
X140685000Y-129906665D01*
X140685000Y-124626000D01*
X141767928Y-124626000D01*
X141767928Y-126326000D01*
X141780188Y-126450482D01*
X141816498Y-126570180D01*
X141875463Y-126680494D01*
X141954815Y-126777185D01*
X142051506Y-126856537D01*
X142161820Y-126915502D01*
X142281518Y-126951812D01*
X142406000Y-126964072D01*
X144106000Y-126964072D01*
X144230482Y-126951812D01*
X144350180Y-126915502D01*
X144460494Y-126856537D01*
X144557185Y-126777185D01*
X144636537Y-126680494D01*
X144695502Y-126570180D01*
X144719966Y-126489534D01*
X144795731Y-126573588D01*
X145029080Y-126747641D01*
X145291901Y-126872825D01*
X145439110Y-126917476D01*
X145669000Y-126796155D01*
X145669000Y-125603000D01*
X145649000Y-125603000D01*
X145649000Y-125349000D01*
X145669000Y-125349000D01*
X145669000Y-125329000D01*
X145923000Y-125329000D01*
X145923000Y-125349000D01*
X145943000Y-125349000D01*
X145943000Y-125603000D01*
X145923000Y-125603000D01*
X145923000Y-126796155D01*
X146152890Y-126917476D01*
X146300099Y-126872825D01*
X146562920Y-126747641D01*
X146796269Y-126573588D01*
X146991178Y-126357355D01*
X147068276Y-126227925D01*
X147113989Y-126457743D01*
X147229701Y-126737095D01*
X147397688Y-126988505D01*
X147435303Y-127026120D01*
X147335506Y-127079463D01*
X147238815Y-127158815D01*
X147159463Y-127255506D01*
X147100498Y-127365820D01*
X147064188Y-127485518D01*
X147051928Y-127610000D01*
X147055000Y-128224250D01*
X147213750Y-128383000D01*
X148463000Y-128383000D01*
X148463000Y-128363000D01*
X148717000Y-128363000D01*
X148717000Y-128383000D01*
X148737000Y-128383000D01*
X148737000Y-128637000D01*
X148717000Y-128637000D01*
X148717000Y-129886250D01*
X148875750Y-130045000D01*
X149490000Y-130048072D01*
X149614482Y-130035812D01*
X149734180Y-129999502D01*
X149787001Y-129971268D01*
X149787001Y-133128969D01*
X149782960Y-133169998D01*
X149799082Y-133333686D01*
X149846828Y-133491084D01*
X149924364Y-133636143D01*
X149924365Y-133636144D01*
X150028710Y-133763289D01*
X150060574Y-133789439D01*
X150215063Y-133943928D01*
X148914000Y-133943928D01*
X148789518Y-133956188D01*
X148669820Y-133992498D01*
X148559506Y-134051463D01*
X148462815Y-134130815D01*
X148383463Y-134227506D01*
X148324498Y-134337820D01*
X148288188Y-134457518D01*
X148275928Y-134582000D01*
X148275928Y-136182000D01*
X148288188Y-136306482D01*
X148324498Y-136426180D01*
X148383463Y-136536494D01*
X148462815Y-136633185D01*
X148559506Y-136712537D01*
X148669820Y-136771502D01*
X148789518Y-136807812D01*
X148807482Y-136809581D01*
X148694392Y-136902392D01*
X148515068Y-137120899D01*
X148381818Y-137370192D01*
X148299764Y-137640691D01*
X148272057Y-137922000D01*
X148299764Y-138203309D01*
X148381818Y-138473808D01*
X148515068Y-138723101D01*
X148694392Y-138941608D01*
X148912899Y-139120932D01*
X149040741Y-139189265D01*
X148811161Y-139339399D01*
X148609500Y-139537105D01*
X148450285Y-139770354D01*
X148339633Y-140030182D01*
X148322096Y-140112961D01*
X148444085Y-140335000D01*
X149987000Y-140335000D01*
X149987000Y-140315000D01*
X150241000Y-140315000D01*
X150241000Y-140335000D01*
X151783915Y-140335000D01*
X151905904Y-140112961D01*
X151888367Y-140030182D01*
X151777715Y-139770354D01*
X151618500Y-139537105D01*
X151416839Y-139339399D01*
X151187259Y-139189265D01*
X151315101Y-139120932D01*
X151533608Y-138941608D01*
X151712932Y-138723101D01*
X151846182Y-138473808D01*
X151928236Y-138203309D01*
X151955943Y-137922000D01*
X151928236Y-137640691D01*
X151846182Y-137370192D01*
X151712932Y-137120899D01*
X151533608Y-136902392D01*
X151420518Y-136809581D01*
X151438482Y-136807812D01*
X151558180Y-136771502D01*
X151668494Y-136712537D01*
X151765185Y-136633185D01*
X151844537Y-136536494D01*
X151903502Y-136426180D01*
X151939812Y-136306482D01*
X151952072Y-136182000D01*
X151952072Y-135680937D01*
X155298990Y-139027856D01*
X155298991Y-141360962D01*
X155294950Y-141401990D01*
X155311072Y-141565678D01*
X155358818Y-141723076D01*
X155401575Y-141803068D01*
X155436355Y-141868136D01*
X155540700Y-141995281D01*
X155572564Y-142021431D01*
X156001703Y-142450571D01*
X155919764Y-142720691D01*
X155892057Y-143002000D01*
X155919764Y-143283309D01*
X156001703Y-143553429D01*
X151887787Y-147667346D01*
X151846182Y-147530192D01*
X151712932Y-147280899D01*
X151533608Y-147062392D01*
X151315101Y-146883068D01*
X151187259Y-146814735D01*
X151416839Y-146664601D01*
X151618500Y-146466895D01*
X151777715Y-146233646D01*
X151888367Y-145973818D01*
X151905904Y-145891039D01*
X151783915Y-145669000D01*
X150241000Y-145669000D01*
X150241000Y-145689000D01*
X149987000Y-145689000D01*
X149987000Y-145669000D01*
X149967000Y-145669000D01*
X149967000Y-145415000D01*
X149987000Y-145415000D01*
X149987000Y-145395000D01*
X150241000Y-145395000D01*
X150241000Y-145415000D01*
X151783915Y-145415000D01*
X151905904Y-145192961D01*
X151888367Y-145110182D01*
X151777715Y-144850354D01*
X151618500Y-144617105D01*
X151416839Y-144419399D01*
X151187259Y-144269265D01*
X151315101Y-144200932D01*
X151533608Y-144021608D01*
X151712932Y-143803101D01*
X151846182Y-143553808D01*
X151928236Y-143283309D01*
X151955943Y-143002000D01*
X151928236Y-142720691D01*
X151846182Y-142450192D01*
X151712932Y-142200899D01*
X151533608Y-141982392D01*
X151315101Y-141803068D01*
X151187259Y-141734735D01*
X151416839Y-141584601D01*
X151618500Y-141386895D01*
X151777715Y-141153646D01*
X151888367Y-140893818D01*
X151905904Y-140811039D01*
X151783915Y-140589000D01*
X150241000Y-140589000D01*
X150241000Y-140609000D01*
X149987000Y-140609000D01*
X149987000Y-140589000D01*
X148444085Y-140589000D01*
X148322096Y-140811039D01*
X148339633Y-140893818D01*
X148450285Y-141153646D01*
X148609500Y-141386895D01*
X148811161Y-141584601D01*
X149040741Y-141734735D01*
X148912899Y-141803068D01*
X148694392Y-141982392D01*
X148515068Y-142200899D01*
X148381818Y-142450192D01*
X148299764Y-142720691D01*
X148272057Y-143002000D01*
X148299764Y-143283309D01*
X148381703Y-143553429D01*
X147952569Y-143982564D01*
X147920699Y-144008719D01*
X147816355Y-144135864D01*
X147816354Y-144135865D01*
X147738818Y-144280924D01*
X147691072Y-144438322D01*
X147674950Y-144602010D01*
X147678990Y-144643029D01*
X147678990Y-147651686D01*
X147575680Y-147402273D01*
X147418637Y-147167241D01*
X147218759Y-146967363D01*
X146983727Y-146810320D01*
X146722574Y-146702147D01*
X146445335Y-146647000D01*
X146162665Y-146647000D01*
X145885426Y-146702147D01*
X145624273Y-146810320D01*
X145389241Y-146967363D01*
X145189363Y-147167241D01*
X145032320Y-147402273D01*
X144924147Y-147663426D01*
X144869000Y-147940665D01*
X144869000Y-148223335D01*
X144924147Y-148500574D01*
X145032320Y-148761727D01*
X145189363Y-148996759D01*
X145389241Y-149196637D01*
X145621759Y-149352000D01*
X145389241Y-149507363D01*
X145189363Y-149707241D01*
X145032320Y-149942273D01*
X144924147Y-150203426D01*
X144869000Y-150480665D01*
X144869000Y-150763335D01*
X144924147Y-151040574D01*
X145032320Y-151301727D01*
X145189363Y-151536759D01*
X145389241Y-151736637D01*
X145624273Y-151893680D01*
X145885426Y-152001853D01*
X146162665Y-152057000D01*
X146445335Y-152057000D01*
X146722574Y-152001853D01*
X146983727Y-151893680D01*
X147218759Y-151736637D01*
X147418637Y-151536759D01*
X147575680Y-151301727D01*
X147678991Y-151052313D01*
X147678991Y-154058963D01*
X147674950Y-154099992D01*
X147691072Y-154263680D01*
X147738818Y-154421078D01*
X147811839Y-154557690D01*
X147816355Y-154566138D01*
X147920700Y-154693283D01*
X147952564Y-154719433D01*
X150188562Y-156955433D01*
X150214708Y-156987292D01*
X150341853Y-157091637D01*
X150486912Y-157169173D01*
X150644310Y-157216919D01*
X150766980Y-157229001D01*
X150766981Y-157229001D01*
X150807999Y-157233041D01*
X150849017Y-157229001D01*
X151918983Y-157229001D01*
X151960001Y-157233041D01*
X152001019Y-157229001D01*
X152001020Y-157229001D01*
X152123690Y-157216919D01*
X152281088Y-157169173D01*
X152426147Y-157091637D01*
X152553292Y-156987292D01*
X152579447Y-156955422D01*
X153348167Y-156186702D01*
X155570903Y-156186702D01*
X155642486Y-156430671D01*
X155897996Y-156551571D01*
X156172184Y-156620300D01*
X156454512Y-156634217D01*
X156734130Y-156592787D01*
X157000292Y-156497603D01*
X157125514Y-156430671D01*
X157197097Y-156186702D01*
X156384000Y-155373605D01*
X155570903Y-156186702D01*
X153348167Y-156186702D01*
X154270357Y-155264512D01*
X154943783Y-155264512D01*
X154985213Y-155544130D01*
X155080397Y-155810292D01*
X155147329Y-155935514D01*
X155391298Y-156007097D01*
X156204395Y-155194000D01*
X156563605Y-155194000D01*
X157376702Y-156007097D01*
X157620671Y-155935514D01*
X157741571Y-155680004D01*
X157810300Y-155405816D01*
X157824217Y-155123488D01*
X157782787Y-154843870D01*
X157687603Y-154577708D01*
X157620671Y-154452486D01*
X157376702Y-154380903D01*
X156563605Y-155194000D01*
X156204395Y-155194000D01*
X155391298Y-154380903D01*
X155147329Y-154452486D01*
X155026429Y-154707996D01*
X154957700Y-154982184D01*
X154943783Y-155264512D01*
X154270357Y-155264512D01*
X155333571Y-154201298D01*
X155570903Y-154201298D01*
X156384000Y-155014395D01*
X157107730Y-154290665D01*
X160363000Y-154290665D01*
X160363000Y-154573335D01*
X160418147Y-154850574D01*
X160526320Y-155111727D01*
X160683363Y-155346759D01*
X160883241Y-155546637D01*
X161118273Y-155703680D01*
X161379426Y-155811853D01*
X161656665Y-155867000D01*
X161939335Y-155867000D01*
X162216574Y-155811853D01*
X162477727Y-155703680D01*
X162712759Y-155546637D01*
X162912637Y-155346759D01*
X163069680Y-155111727D01*
X163177853Y-154850574D01*
X163233000Y-154573335D01*
X163233000Y-154290665D01*
X163919000Y-154290665D01*
X163919000Y-154573335D01*
X163974147Y-154850574D01*
X164082320Y-155111727D01*
X164239363Y-155346759D01*
X164439241Y-155546637D01*
X164674273Y-155703680D01*
X164935426Y-155811853D01*
X165212665Y-155867000D01*
X165495335Y-155867000D01*
X165772574Y-155811853D01*
X166033727Y-155703680D01*
X166268759Y-155546637D01*
X166468637Y-155346759D01*
X166625680Y-155111727D01*
X166733853Y-154850574D01*
X166789000Y-154573335D01*
X166789000Y-154290665D01*
X166733853Y-154013426D01*
X166625680Y-153752273D01*
X166468637Y-153517241D01*
X166268759Y-153317363D01*
X166033727Y-153160320D01*
X165772574Y-153052147D01*
X165495335Y-152997000D01*
X165212665Y-152997000D01*
X164935426Y-153052147D01*
X164674273Y-153160320D01*
X164439241Y-153317363D01*
X164239363Y-153517241D01*
X164082320Y-153752273D01*
X163974147Y-154013426D01*
X163919000Y-154290665D01*
X163233000Y-154290665D01*
X163177853Y-154013426D01*
X163069680Y-153752273D01*
X162912637Y-153517241D01*
X162712759Y-153317363D01*
X162477727Y-153160320D01*
X162216574Y-153052147D01*
X161939335Y-152997000D01*
X161656665Y-152997000D01*
X161379426Y-153052147D01*
X161118273Y-153160320D01*
X160883241Y-153317363D01*
X160683363Y-153517241D01*
X160526320Y-153752273D01*
X160418147Y-154013426D01*
X160363000Y-154290665D01*
X157107730Y-154290665D01*
X157197097Y-154201298D01*
X157125514Y-153957329D01*
X156870004Y-153836429D01*
X156595816Y-153767700D01*
X156313488Y-153753783D01*
X156033870Y-153795213D01*
X155767708Y-153890397D01*
X155642486Y-153957329D01*
X155570903Y-154201298D01*
X155333571Y-154201298D01*
X156695423Y-152839448D01*
X156727281Y-152813303D01*
X156831626Y-152686158D01*
X156909162Y-152541099D01*
X156956908Y-152383701D01*
X156968990Y-152261031D01*
X156968990Y-152261030D01*
X156973030Y-152220012D01*
X156968990Y-152178994D01*
X156968990Y-152010846D01*
X157052691Y-152036236D01*
X157263508Y-152057000D01*
X158204492Y-152057000D01*
X158415309Y-152036236D01*
X158685808Y-151954182D01*
X158935101Y-151820932D01*
X159153608Y-151641608D01*
X159332932Y-151423101D01*
X159466182Y-151173808D01*
X159548236Y-150903309D01*
X159575943Y-150622000D01*
X159548236Y-150340691D01*
X159466182Y-150070192D01*
X159332932Y-149820899D01*
X159153608Y-149602392D01*
X158935101Y-149423068D01*
X158802142Y-149352000D01*
X158935101Y-149280932D01*
X159153608Y-149101608D01*
X159332932Y-148883101D01*
X159466182Y-148633808D01*
X159548236Y-148363309D01*
X159575943Y-148082000D01*
X159548236Y-147800691D01*
X159466182Y-147530192D01*
X159332932Y-147280899D01*
X159305935Y-147248003D01*
X160797427Y-145756511D01*
X160829290Y-145730362D01*
X160933635Y-145603217D01*
X161005673Y-145468443D01*
X161115759Y-145542000D01*
X160883241Y-145697363D01*
X160683363Y-145897241D01*
X160526320Y-146132273D01*
X160418147Y-146393426D01*
X160363000Y-146670665D01*
X160363000Y-146953335D01*
X160418147Y-147230574D01*
X160526320Y-147491727D01*
X160683363Y-147726759D01*
X160883241Y-147926637D01*
X161118273Y-148083680D01*
X161379426Y-148191853D01*
X161656665Y-148247000D01*
X161939335Y-148247000D01*
X162216574Y-148191853D01*
X162477727Y-148083680D01*
X162712759Y-147926637D01*
X162912637Y-147726759D01*
X163069680Y-147491727D01*
X163177853Y-147230574D01*
X163233000Y-146953335D01*
X163233000Y-146670665D01*
X163177853Y-146393426D01*
X163069680Y-146132273D01*
X162912637Y-145897241D01*
X162712759Y-145697363D01*
X162480241Y-145542000D01*
X162712759Y-145386637D01*
X162912637Y-145186759D01*
X163069680Y-144951727D01*
X163177853Y-144690574D01*
X163233000Y-144413335D01*
X163233000Y-144130665D01*
X163919000Y-144130665D01*
X163919000Y-144413335D01*
X163974147Y-144690574D01*
X164082320Y-144951727D01*
X164239363Y-145186759D01*
X164439241Y-145386637D01*
X164671759Y-145542000D01*
X164439241Y-145697363D01*
X164239363Y-145897241D01*
X164082320Y-146132273D01*
X163974147Y-146393426D01*
X163919000Y-146670665D01*
X163919000Y-146953335D01*
X163974147Y-147230574D01*
X164082320Y-147491727D01*
X164239363Y-147726759D01*
X164439241Y-147926637D01*
X164674273Y-148083680D01*
X164935426Y-148191853D01*
X165212665Y-148247000D01*
X165495335Y-148247000D01*
X165772574Y-148191853D01*
X166033727Y-148083680D01*
X166268759Y-147926637D01*
X166468637Y-147726759D01*
X166625680Y-147491727D01*
X166733853Y-147230574D01*
X166789000Y-146953335D01*
X166789000Y-146670665D01*
X166733853Y-146393426D01*
X166625680Y-146132273D01*
X166468637Y-145897241D01*
X166268759Y-145697363D01*
X166036241Y-145542000D01*
X166268759Y-145386637D01*
X166468637Y-145186759D01*
X166625680Y-144951727D01*
X166733853Y-144690574D01*
X166789000Y-144413335D01*
X166789000Y-144130665D01*
X166733853Y-143853426D01*
X166625680Y-143592273D01*
X166468637Y-143357241D01*
X166268759Y-143157363D01*
X166033727Y-143000320D01*
X165772574Y-142892147D01*
X165495335Y-142837000D01*
X165212665Y-142837000D01*
X164935426Y-142892147D01*
X164674273Y-143000320D01*
X164439241Y-143157363D01*
X164239363Y-143357241D01*
X164082320Y-143592273D01*
X163974147Y-143853426D01*
X163919000Y-144130665D01*
X163233000Y-144130665D01*
X163177853Y-143853426D01*
X163069680Y-143592273D01*
X162912637Y-143357241D01*
X162712759Y-143157363D01*
X162558000Y-143053957D01*
X162558000Y-140245325D01*
X162561676Y-140208000D01*
X162558000Y-140170675D01*
X162558000Y-140170667D01*
X162547003Y-140059014D01*
X162503546Y-139915753D01*
X162432974Y-139783724D01*
X162338001Y-139667999D01*
X162309004Y-139644202D01*
X162071000Y-139406198D01*
X162071000Y-139344061D01*
X162031226Y-139144102D01*
X161953205Y-138955744D01*
X161839937Y-138786226D01*
X161695774Y-138642063D01*
X161526256Y-138528795D01*
X161337898Y-138450774D01*
X161137939Y-138411000D01*
X161070999Y-138411000D01*
X161070999Y-137892093D01*
X161118273Y-137923680D01*
X161379426Y-138031853D01*
X161656665Y-138087000D01*
X161939335Y-138087000D01*
X162216574Y-138031853D01*
X162477727Y-137923680D01*
X162712759Y-137766637D01*
X162912637Y-137566759D01*
X163069680Y-137331727D01*
X163177853Y-137070574D01*
X163233000Y-136793335D01*
X163233000Y-136510665D01*
X163177853Y-136233426D01*
X163069680Y-135972273D01*
X162912637Y-135737241D01*
X162712759Y-135537363D01*
X162477727Y-135380320D01*
X162425537Y-135358702D01*
X163270903Y-135358702D01*
X163342486Y-135602671D01*
X163597996Y-135723571D01*
X163872184Y-135792300D01*
X164154512Y-135806217D01*
X164197534Y-135799843D01*
X164082320Y-135972273D01*
X163974147Y-136233426D01*
X163919000Y-136510665D01*
X163919000Y-136793335D01*
X163974147Y-137070574D01*
X164082320Y-137331727D01*
X164239363Y-137566759D01*
X164439241Y-137766637D01*
X164674273Y-137923680D01*
X164935426Y-138031853D01*
X165212665Y-138087000D01*
X165495335Y-138087000D01*
X165772574Y-138031853D01*
X166033727Y-137923680D01*
X166268759Y-137766637D01*
X166468637Y-137566759D01*
X166625680Y-137331727D01*
X166733853Y-137070574D01*
X166789000Y-136793335D01*
X166789000Y-136510665D01*
X166733853Y-136233426D01*
X166625680Y-135972273D01*
X166468637Y-135737241D01*
X166268759Y-135537363D01*
X166033727Y-135380320D01*
X165772574Y-135272147D01*
X165495335Y-135217000D01*
X165212665Y-135217000D01*
X165130876Y-135233269D01*
X165076704Y-135179097D01*
X165320671Y-135107514D01*
X165441571Y-134852004D01*
X165510300Y-134577816D01*
X165524217Y-134295488D01*
X165482787Y-134015870D01*
X165387603Y-133749708D01*
X165320671Y-133624486D01*
X165076702Y-133552903D01*
X164263605Y-134366000D01*
X164277748Y-134380143D01*
X164098143Y-134559748D01*
X164084000Y-134545605D01*
X163270903Y-135358702D01*
X162425537Y-135358702D01*
X162216574Y-135272147D01*
X161939335Y-135217000D01*
X161656665Y-135217000D01*
X161379426Y-135272147D01*
X161118273Y-135380320D01*
X161070999Y-135411907D01*
X161070999Y-134436512D01*
X162643783Y-134436512D01*
X162685213Y-134716130D01*
X162780397Y-134982292D01*
X162847329Y-135107514D01*
X163091298Y-135179097D01*
X163904395Y-134366000D01*
X163091298Y-133552903D01*
X162847329Y-133624486D01*
X162726429Y-133879996D01*
X162657700Y-134154184D01*
X162643783Y-134436512D01*
X161070999Y-134436512D01*
X161070999Y-133559868D01*
X161257569Y-133373298D01*
X163270903Y-133373298D01*
X164084000Y-134186395D01*
X164897097Y-133373298D01*
X164825514Y-133129329D01*
X164570004Y-133008429D01*
X164295816Y-132939700D01*
X164013488Y-132925783D01*
X163733870Y-132967213D01*
X163467708Y-133062397D01*
X163342486Y-133129329D01*
X163270903Y-133373298D01*
X161257569Y-133373298D01*
X163848582Y-130782286D01*
X163942665Y-130801000D01*
X164225335Y-130801000D01*
X164502574Y-130745853D01*
X164763727Y-130637680D01*
X164998759Y-130480637D01*
X165198637Y-130280759D01*
X165355680Y-130045727D01*
X165463853Y-129784574D01*
X165519000Y-129507335D01*
X165519000Y-129224665D01*
X165498367Y-129120937D01*
X165523637Y-129090145D01*
X165601173Y-128945086D01*
X165648919Y-128787688D01*
X165661001Y-128665018D01*
X165661001Y-128665017D01*
X165665041Y-128623999D01*
X165661001Y-128582981D01*
X165661001Y-125363718D01*
X165759110Y-125393476D01*
X165989000Y-125272155D01*
X165989000Y-124079000D01*
X166243000Y-124079000D01*
X166243000Y-125272155D01*
X166472890Y-125393476D01*
X166620099Y-125348825D01*
X166882920Y-125223641D01*
X167116269Y-125049588D01*
X167311178Y-124833355D01*
X167460157Y-124583252D01*
X167557481Y-124308891D01*
X167436814Y-124079000D01*
X166243000Y-124079000D01*
X165989000Y-124079000D01*
X165969000Y-124079000D01*
X165969000Y-123825000D01*
X165989000Y-123825000D01*
X165989000Y-122631845D01*
X166243000Y-122631845D01*
X166243000Y-123825000D01*
X167436814Y-123825000D01*
X167557481Y-123595109D01*
X167460157Y-123320748D01*
X167311178Y-123070645D01*
X167116269Y-122854412D01*
X166882920Y-122680359D01*
X166620099Y-122555175D01*
X166472890Y-122510524D01*
X166243000Y-122631845D01*
X165989000Y-122631845D01*
X165759110Y-122510524D01*
X165661001Y-122540282D01*
X165661001Y-121045718D01*
X165759110Y-121075476D01*
X165989000Y-120954155D01*
X165989000Y-119761000D01*
X166243000Y-119761000D01*
X166243000Y-120954155D01*
X166472890Y-121075476D01*
X166620099Y-121030825D01*
X166882920Y-120905641D01*
X167116269Y-120731588D01*
X167311178Y-120515355D01*
X167460157Y-120265252D01*
X167557481Y-119990891D01*
X167436814Y-119761000D01*
X166243000Y-119761000D01*
X165989000Y-119761000D01*
X165969000Y-119761000D01*
X165969000Y-119507000D01*
X165989000Y-119507000D01*
X165989000Y-118313845D01*
X166243000Y-118313845D01*
X166243000Y-119507000D01*
X167436814Y-119507000D01*
X167557481Y-119277109D01*
X167460157Y-119002748D01*
X167311178Y-118752645D01*
X167116269Y-118536412D01*
X166882920Y-118362359D01*
X166620099Y-118237175D01*
X166472890Y-118192524D01*
X166243000Y-118313845D01*
X165989000Y-118313845D01*
X165759110Y-118192524D01*
X165661001Y-118222282D01*
X165661001Y-116981718D01*
X165759110Y-117011476D01*
X165989000Y-116890155D01*
X165989000Y-115697000D01*
X166243000Y-115697000D01*
X166243000Y-116890155D01*
X166472890Y-117011476D01*
X166620099Y-116966825D01*
X166882920Y-116841641D01*
X167116269Y-116667588D01*
X167311178Y-116451355D01*
X167460157Y-116201252D01*
X167557481Y-115926891D01*
X167436814Y-115697000D01*
X166243000Y-115697000D01*
X165989000Y-115697000D01*
X165969000Y-115697000D01*
X165969000Y-115443000D01*
X165989000Y-115443000D01*
X165989000Y-114249845D01*
X166243000Y-114249845D01*
X166243000Y-115443000D01*
X167436814Y-115443000D01*
X167557481Y-115213109D01*
X167460157Y-114938748D01*
X167311178Y-114688645D01*
X167116269Y-114472412D01*
X166882920Y-114298359D01*
X166620099Y-114173175D01*
X166472890Y-114128524D01*
X166243000Y-114249845D01*
X165989000Y-114249845D01*
X165759110Y-114128524D01*
X165661001Y-114158282D01*
X165661001Y-112690072D01*
X166662000Y-112690072D01*
X166786482Y-112677812D01*
X166906180Y-112641502D01*
X167016494Y-112582537D01*
X167113185Y-112503185D01*
X167192537Y-112406494D01*
X167251502Y-112296180D01*
X167287812Y-112176482D01*
X167300072Y-112052000D01*
X167300072Y-110994796D01*
X167623433Y-110671436D01*
X167655292Y-110645290D01*
X167759637Y-110518145D01*
X167837173Y-110373086D01*
X167884919Y-110215688D01*
X167897001Y-110093018D01*
X167897001Y-110093017D01*
X167901041Y-110051999D01*
X167897001Y-110010981D01*
X167897001Y-98269008D01*
X167901040Y-98228000D01*
X167897001Y-98186992D01*
X167897001Y-98186982D01*
X167884919Y-98064312D01*
X167837173Y-97906914D01*
X167759637Y-97761855D01*
X167655292Y-97634710D01*
X167623429Y-97608561D01*
X167586373Y-97571505D01*
X167614600Y-97429599D01*
X167614600Y-97134401D01*
X167557010Y-96844875D01*
X167444042Y-96572147D01*
X167280039Y-96326698D01*
X167071302Y-96117961D01*
X166905897Y-96007441D01*
X167004488Y-95948817D01*
X167222854Y-95752293D01*
X167398684Y-95516944D01*
X167525222Y-95251814D01*
X167570958Y-95101026D01*
X167449817Y-94869000D01*
X166243000Y-94869000D01*
X166243000Y-94889000D01*
X165989000Y-94889000D01*
X165989000Y-94869000D01*
X163703000Y-94869000D01*
X163703000Y-94889000D01*
X163449000Y-94889000D01*
X163449000Y-94869000D01*
X163429000Y-94869000D01*
X163429000Y-94615000D01*
X163449000Y-94615000D01*
X163449000Y-92329000D01*
X163703000Y-92329000D01*
X163703000Y-94615000D01*
X165989000Y-94615000D01*
X165989000Y-92329000D01*
X166243000Y-92329000D01*
X166243000Y-94615000D01*
X167449817Y-94615000D01*
X167570958Y-94382974D01*
X167525222Y-94232186D01*
X167398684Y-93967056D01*
X167222854Y-93731707D01*
X167004488Y-93535183D01*
X166898230Y-93472000D01*
X167004488Y-93408817D01*
X167222854Y-93212293D01*
X167398684Y-92976944D01*
X167525222Y-92711814D01*
X167570958Y-92561026D01*
X167449817Y-92329000D01*
X166243000Y-92329000D01*
X165989000Y-92329000D01*
X163703000Y-92329000D01*
X163449000Y-92329000D01*
X162242183Y-92329000D01*
X162121042Y-92561026D01*
X162166778Y-92711814D01*
X162293316Y-92976944D01*
X162469146Y-93212293D01*
X162687512Y-93408817D01*
X162793770Y-93472000D01*
X162687512Y-93535183D01*
X162469146Y-93731707D01*
X162293316Y-93967056D01*
X162166778Y-94232186D01*
X162121042Y-94382974D01*
X162242182Y-94614998D01*
X162089866Y-94614998D01*
X160677010Y-93202143D01*
X160677010Y-90541028D01*
X160681050Y-90500010D01*
X160664928Y-90336321D01*
X160617182Y-90178923D01*
X160539646Y-90033864D01*
X160529111Y-90021026D01*
X162121042Y-90021026D01*
X162166778Y-90171814D01*
X162293316Y-90436944D01*
X162469146Y-90672293D01*
X162687512Y-90868817D01*
X162793770Y-90932000D01*
X162687512Y-90995183D01*
X162469146Y-91191707D01*
X162293316Y-91427056D01*
X162166778Y-91692186D01*
X162121042Y-91842974D01*
X162242183Y-92075000D01*
X163449000Y-92075000D01*
X163449000Y-89789000D01*
X163703000Y-89789000D01*
X163703000Y-92075000D01*
X165989000Y-92075000D01*
X165989000Y-89789000D01*
X166243000Y-89789000D01*
X166243000Y-92075000D01*
X167449817Y-92075000D01*
X167570958Y-91842974D01*
X167525222Y-91692186D01*
X167398684Y-91427056D01*
X167222854Y-91191707D01*
X167004488Y-90995183D01*
X166898230Y-90932000D01*
X167004488Y-90868817D01*
X167222854Y-90672293D01*
X167398684Y-90436944D01*
X167525222Y-90171814D01*
X167570958Y-90021026D01*
X167449817Y-89789000D01*
X166243000Y-89789000D01*
X165989000Y-89789000D01*
X163703000Y-89789000D01*
X163449000Y-89789000D01*
X162242183Y-89789000D01*
X162121042Y-90021026D01*
X160529111Y-90021026D01*
X160461449Y-89938580D01*
X160461447Y-89938578D01*
X160435301Y-89906719D01*
X160403442Y-89880573D01*
X159974297Y-89451429D01*
X160056236Y-89181309D01*
X160083943Y-88900000D01*
X160056236Y-88618691D01*
X159974182Y-88348192D01*
X159840932Y-88098899D01*
X159661608Y-87880392D01*
X159443101Y-87701068D01*
X159193808Y-87567818D01*
X158923309Y-87485764D01*
X158712492Y-87465000D01*
X157771508Y-87465000D01*
X157560691Y-87485764D01*
X157290192Y-87567818D01*
X157040899Y-87701068D01*
X156822392Y-87880392D01*
X156670888Y-88065000D01*
X156381869Y-88065000D01*
X154145570Y-85828702D01*
X156158903Y-85828702D01*
X156230486Y-86072671D01*
X156485996Y-86193571D01*
X156760184Y-86262300D01*
X157042512Y-86276217D01*
X157162761Y-86258400D01*
X162074328Y-86258400D01*
X162074328Y-87985600D01*
X162086588Y-88110082D01*
X162122898Y-88229780D01*
X162181863Y-88340094D01*
X162261215Y-88436785D01*
X162357906Y-88516137D01*
X162468220Y-88575102D01*
X162532574Y-88594624D01*
X162469146Y-88651707D01*
X162293316Y-88887056D01*
X162166778Y-89152186D01*
X162121042Y-89302974D01*
X162242183Y-89535000D01*
X163449000Y-89535000D01*
X163449000Y-89515000D01*
X163703000Y-89515000D01*
X163703000Y-89535000D01*
X165989000Y-89535000D01*
X165989000Y-89515000D01*
X166243000Y-89515000D01*
X166243000Y-89535000D01*
X167449817Y-89535000D01*
X167570958Y-89302974D01*
X167525222Y-89152186D01*
X167398684Y-88887056D01*
X167222854Y-88651707D01*
X167004488Y-88455183D01*
X166905897Y-88396559D01*
X167071302Y-88286039D01*
X167280039Y-88077302D01*
X167444042Y-87831853D01*
X167557010Y-87559125D01*
X167614600Y-87269599D01*
X167614600Y-86974401D01*
X167586373Y-86832495D01*
X167623429Y-86795439D01*
X167655292Y-86769290D01*
X167759637Y-86642145D01*
X167837173Y-86497086D01*
X167884919Y-86339688D01*
X167897001Y-86217018D01*
X167897001Y-86217008D01*
X167901040Y-86176000D01*
X167897001Y-86134992D01*
X167897001Y-73925019D01*
X167901041Y-73884001D01*
X167888649Y-73758188D01*
X167884919Y-73720312D01*
X167837173Y-73562914D01*
X167759637Y-73417855D01*
X167728570Y-73380000D01*
X167681440Y-73322571D01*
X167681438Y-73322569D01*
X167655292Y-73290710D01*
X167623433Y-73264564D01*
X167278286Y-72919417D01*
X167297000Y-72825335D01*
X167297000Y-72542665D01*
X167241853Y-72265426D01*
X167133680Y-72004273D01*
X166976637Y-71769241D01*
X166776759Y-71569363D01*
X166541727Y-71412320D01*
X166280574Y-71304147D01*
X166003335Y-71249000D01*
X165720665Y-71249000D01*
X165443426Y-71304147D01*
X165182273Y-71412320D01*
X164947241Y-71569363D01*
X164747363Y-71769241D01*
X164590320Y-72004273D01*
X164482147Y-72265426D01*
X164427000Y-72542665D01*
X164427000Y-72825335D01*
X164482147Y-73102574D01*
X164590320Y-73363727D01*
X164747363Y-73598759D01*
X164913943Y-73765339D01*
X164817820Y-73794498D01*
X164707506Y-73853463D01*
X164610815Y-73932815D01*
X164531463Y-74029506D01*
X164472498Y-74139820D01*
X164436188Y-74259518D01*
X164423928Y-74384000D01*
X164427000Y-74898250D01*
X164585750Y-75057000D01*
X165735000Y-75057000D01*
X165735000Y-75037000D01*
X165989000Y-75037000D01*
X165989000Y-75057000D01*
X166009000Y-75057000D01*
X166009000Y-75311000D01*
X165989000Y-75311000D01*
X165989000Y-76460250D01*
X166147750Y-76619000D01*
X166227002Y-76619473D01*
X166227001Y-85623400D01*
X165968401Y-85623400D01*
X165678875Y-85680990D01*
X165406147Y-85793958D01*
X165160698Y-85957961D01*
X165046636Y-86072023D01*
X165029102Y-86014220D01*
X164970137Y-85903906D01*
X164890785Y-85807215D01*
X164794094Y-85727863D01*
X164683780Y-85668898D01*
X164564082Y-85632588D01*
X164439600Y-85620328D01*
X162712400Y-85620328D01*
X162587918Y-85632588D01*
X162468220Y-85668898D01*
X162357906Y-85727863D01*
X162261215Y-85807215D01*
X162181863Y-85903906D01*
X162122898Y-86014220D01*
X162086588Y-86133918D01*
X162074328Y-86258400D01*
X157162761Y-86258400D01*
X157322130Y-86234787D01*
X157588292Y-86139603D01*
X157713514Y-86072671D01*
X157785097Y-85828702D01*
X156972000Y-85015605D01*
X156158903Y-85828702D01*
X154145570Y-85828702D01*
X153388285Y-85071418D01*
X153407000Y-84977335D01*
X153407000Y-84906512D01*
X155531783Y-84906512D01*
X155573213Y-85186130D01*
X155668397Y-85452292D01*
X155735329Y-85577514D01*
X155979298Y-85649097D01*
X156792395Y-84836000D01*
X157151605Y-84836000D01*
X157964702Y-85649097D01*
X158208671Y-85577514D01*
X158329571Y-85322004D01*
X158398300Y-85047816D01*
X158412217Y-84765488D01*
X158370787Y-84485870D01*
X158275603Y-84219708D01*
X158208671Y-84094486D01*
X157964702Y-84022903D01*
X157151605Y-84836000D01*
X156792395Y-84836000D01*
X155979298Y-84022903D01*
X155735329Y-84094486D01*
X155614429Y-84349996D01*
X155545700Y-84624184D01*
X155531783Y-84906512D01*
X153407000Y-84906512D01*
X153407000Y-84694665D01*
X153351853Y-84417426D01*
X153243680Y-84156273D01*
X153086637Y-83921241D01*
X153008694Y-83843298D01*
X156158903Y-83843298D01*
X156972000Y-84656395D01*
X157785097Y-83843298D01*
X157713514Y-83599329D01*
X157458004Y-83478429D01*
X157183816Y-83409700D01*
X156901488Y-83395783D01*
X156621870Y-83437213D01*
X156355708Y-83532397D01*
X156230486Y-83599329D01*
X156158903Y-83843298D01*
X153008694Y-83843298D01*
X152886759Y-83721363D01*
X152807000Y-83668070D01*
X152807000Y-77628981D01*
X152794918Y-77506311D01*
X152747172Y-77348913D01*
X152732000Y-77320528D01*
X152732000Y-77068902D01*
X153828000Y-77068902D01*
X153828000Y-77513098D01*
X153914658Y-77948759D01*
X154084645Y-78359143D01*
X154331427Y-78728479D01*
X154645521Y-79042573D01*
X155014857Y-79289355D01*
X155425241Y-79459342D01*
X155860902Y-79546000D01*
X156305098Y-79546000D01*
X156740759Y-79459342D01*
X157151143Y-79289355D01*
X157520479Y-79042573D01*
X157834573Y-78728479D01*
X158081355Y-78359143D01*
X158251342Y-77948759D01*
X158338000Y-77513098D01*
X158338000Y-77068902D01*
X158251342Y-76633241D01*
X158081355Y-76222857D01*
X157921757Y-75984000D01*
X164423928Y-75984000D01*
X164436188Y-76108482D01*
X164472498Y-76228180D01*
X164531463Y-76338494D01*
X164610815Y-76435185D01*
X164707506Y-76514537D01*
X164817820Y-76573502D01*
X164937518Y-76609812D01*
X165062000Y-76622072D01*
X165576250Y-76619000D01*
X165735000Y-76460250D01*
X165735000Y-75311000D01*
X164585750Y-75311000D01*
X164427000Y-75469750D01*
X164423928Y-75984000D01*
X157921757Y-75984000D01*
X157834573Y-75853521D01*
X157520479Y-75539427D01*
X157151143Y-75292645D01*
X156740759Y-75122658D01*
X156305098Y-75036000D01*
X155860902Y-75036000D01*
X155425241Y-75122658D01*
X155014857Y-75292645D01*
X154645521Y-75539427D01*
X154331427Y-75853521D01*
X154084645Y-76222857D01*
X153914658Y-76633241D01*
X153828000Y-77068902D01*
X152732000Y-77068902D01*
X152732000Y-73417325D01*
X152735676Y-73380000D01*
X152732000Y-73342675D01*
X152732000Y-73342667D01*
X152721003Y-73231014D01*
X152677546Y-73087753D01*
X152606974Y-72955724D01*
X152512001Y-72839999D01*
X152483003Y-72816201D01*
X150066731Y-70399930D01*
X150118000Y-70142184D01*
X150118000Y-69839816D01*
X150059011Y-69543257D01*
X149943299Y-69263905D01*
X149775312Y-69012495D01*
X149561505Y-68798688D01*
X149310095Y-68630701D01*
X149030743Y-68514989D01*
X148734184Y-68456000D01*
X148431816Y-68456000D01*
X148135257Y-68514989D01*
X147855905Y-68630701D01*
X147604495Y-68798688D01*
X147390688Y-69012495D01*
X147222701Y-69263905D01*
X147106989Y-69543257D01*
X147048000Y-69839816D01*
X147048000Y-70142184D01*
X147106989Y-70438743D01*
X147222701Y-70718095D01*
X147390688Y-70969505D01*
X147604495Y-71183312D01*
X147690831Y-71241000D01*
X147604495Y-71298688D01*
X147390688Y-71512495D01*
X147222701Y-71763905D01*
X147106989Y-72043257D01*
X147048000Y-72339816D01*
X147048000Y-72642184D01*
X147106989Y-72938743D01*
X147222701Y-73218095D01*
X147390688Y-73469505D01*
X147428303Y-73507120D01*
X147328506Y-73560463D01*
X147231815Y-73639815D01*
X147152463Y-73736506D01*
X147093498Y-73846820D01*
X147057188Y-73966518D01*
X147044928Y-74091000D01*
X147048000Y-74705250D01*
X147206750Y-74864000D01*
X148456000Y-74864000D01*
X148456000Y-74844000D01*
X148710000Y-74844000D01*
X148710000Y-74864000D01*
X149959250Y-74864000D01*
X150118000Y-74705250D01*
X150121072Y-74091000D01*
X150108812Y-73966518D01*
X150072502Y-73846820D01*
X150013537Y-73736506D01*
X149934185Y-73639815D01*
X149837494Y-73560463D01*
X149737697Y-73507120D01*
X149775312Y-73469505D01*
X149943299Y-73218095D01*
X150059011Y-72938743D01*
X150118000Y-72642184D01*
X150118000Y-72600802D01*
X151212001Y-73694803D01*
X151212000Y-77320530D01*
X151196829Y-77348913D01*
X151149083Y-77506311D01*
X151137001Y-77628981D01*
X151137000Y-83668070D01*
X151057241Y-83721363D01*
X150857363Y-83921241D01*
X150700320Y-84156273D01*
X150592147Y-84417426D01*
X150537000Y-84694665D01*
X150537000Y-84977335D01*
X150592147Y-85254574D01*
X150700320Y-85515727D01*
X150857363Y-85750759D01*
X151057241Y-85950637D01*
X151292273Y-86107680D01*
X151553426Y-86215853D01*
X151830665Y-86271000D01*
X152113335Y-86271000D01*
X152207418Y-86252285D01*
X155416563Y-89461432D01*
X155442709Y-89493291D01*
X155474568Y-89519437D01*
X155474570Y-89519439D01*
X155569854Y-89597636D01*
X155714913Y-89675172D01*
X155872311Y-89722918D01*
X156036000Y-89739040D01*
X156077018Y-89735000D01*
X156670888Y-89735000D01*
X156822392Y-89919608D01*
X157040899Y-90098932D01*
X157173858Y-90170000D01*
X157040899Y-90241068D01*
X156822392Y-90420392D01*
X156643068Y-90638899D01*
X156509818Y-90888192D01*
X156427764Y-91158691D01*
X156400057Y-91440000D01*
X156427764Y-91721309D01*
X156509818Y-91991808D01*
X156643068Y-92241101D01*
X156822392Y-92459608D01*
X157040899Y-92638932D01*
X157173858Y-92710000D01*
X157040899Y-92781068D01*
X156822392Y-92960392D01*
X156643068Y-93178899D01*
X156509818Y-93428192D01*
X156427764Y-93698691D01*
X156400057Y-93980000D01*
X156427764Y-94261309D01*
X156509818Y-94531808D01*
X156643068Y-94781101D01*
X156822392Y-94999608D01*
X157040899Y-95178932D01*
X157168741Y-95247265D01*
X156939161Y-95397399D01*
X156737500Y-95595105D01*
X156578285Y-95828354D01*
X156467633Y-96088182D01*
X156450096Y-96170961D01*
X156572085Y-96393000D01*
X158115000Y-96393000D01*
X158115000Y-96373000D01*
X158369000Y-96373000D01*
X158369000Y-96393000D01*
X159911915Y-96393000D01*
X160033904Y-96170961D01*
X160016367Y-96088182D01*
X159905715Y-95828354D01*
X159746500Y-95595105D01*
X159544839Y-95397399D01*
X159315259Y-95247265D01*
X159443101Y-95178932D01*
X159661608Y-94999608D01*
X159840932Y-94781101D01*
X159859498Y-94746366D01*
X162105627Y-96992495D01*
X162077400Y-97134401D01*
X162077400Y-97429599D01*
X162134990Y-97719125D01*
X162247958Y-97991853D01*
X162411961Y-98237302D01*
X162620698Y-98446039D01*
X162866147Y-98610042D01*
X163138875Y-98723010D01*
X163428401Y-98780600D01*
X163723599Y-98780600D01*
X164013125Y-98723010D01*
X164285853Y-98610042D01*
X164531302Y-98446039D01*
X164740039Y-98237302D01*
X164820422Y-98117000D01*
X164871578Y-98117000D01*
X164951961Y-98237302D01*
X165160698Y-98446039D01*
X165406147Y-98610042D01*
X165678875Y-98723010D01*
X165968401Y-98780600D01*
X166227001Y-98780600D01*
X166227002Y-107364098D01*
X166073816Y-107325700D01*
X165791488Y-107311783D01*
X165511870Y-107353213D01*
X165245708Y-107448397D01*
X165120486Y-107515329D01*
X165048903Y-107759298D01*
X165862000Y-108572395D01*
X165876143Y-108558253D01*
X166055748Y-108737858D01*
X166041605Y-108752000D01*
X166055748Y-108766143D01*
X165876143Y-108945748D01*
X165862000Y-108931605D01*
X165048903Y-109744702D01*
X165069215Y-109813928D01*
X165062000Y-109813928D01*
X164937518Y-109826188D01*
X164817820Y-109862498D01*
X164707506Y-109921463D01*
X164610815Y-110000815D01*
X164531463Y-110097506D01*
X164472498Y-110207820D01*
X164436188Y-110327518D01*
X164423928Y-110452000D01*
X164423928Y-111509205D01*
X164264575Y-111668558D01*
X164232711Y-111694708D01*
X164206563Y-111726570D01*
X164128365Y-111821854D01*
X164050829Y-111966913D01*
X164003083Y-112124311D01*
X163986961Y-112287999D01*
X163991002Y-112329028D01*
X163991002Y-114081928D01*
X162726000Y-114081928D01*
X162601518Y-114094188D01*
X162481820Y-114130498D01*
X162371506Y-114189463D01*
X162274815Y-114268815D01*
X162195463Y-114365506D01*
X162136498Y-114475820D01*
X162100188Y-114595518D01*
X162087928Y-114720000D01*
X162087928Y-116420000D01*
X162100188Y-116544482D01*
X162136498Y-116664180D01*
X162195463Y-116774494D01*
X162274815Y-116871185D01*
X162371506Y-116950537D01*
X162481820Y-117009502D01*
X162601518Y-117045812D01*
X162726000Y-117058072D01*
X163991002Y-117058072D01*
X163991002Y-118145928D01*
X162726000Y-118145928D01*
X162601518Y-118158188D01*
X162481820Y-118194498D01*
X162371506Y-118253463D01*
X162274815Y-118332815D01*
X162195463Y-118429506D01*
X162136498Y-118539820D01*
X162100188Y-118659518D01*
X162087928Y-118784000D01*
X162087928Y-120484000D01*
X162100188Y-120608482D01*
X162136498Y-120728180D01*
X162195463Y-120838494D01*
X162274815Y-120935185D01*
X162371506Y-121014537D01*
X162481820Y-121073502D01*
X162601518Y-121109812D01*
X162726000Y-121122072D01*
X163991001Y-121122072D01*
X163991001Y-122463928D01*
X162726000Y-122463928D01*
X162601518Y-122476188D01*
X162481820Y-122512498D01*
X162371506Y-122571463D01*
X162274815Y-122650815D01*
X162195463Y-122747506D01*
X162136498Y-122857820D01*
X162100188Y-122977518D01*
X162087928Y-123102000D01*
X162087928Y-124802000D01*
X162100188Y-124926482D01*
X162136498Y-125046180D01*
X162195463Y-125156494D01*
X162274815Y-125253185D01*
X162371506Y-125332537D01*
X162481820Y-125391502D01*
X162601518Y-125427812D01*
X162726000Y-125440072D01*
X163991001Y-125440072D01*
X163991001Y-127931000D01*
X163942665Y-127931000D01*
X163665426Y-127986147D01*
X163404273Y-128094320D01*
X163169241Y-128251363D01*
X162969363Y-128451241D01*
X162812320Y-128686273D01*
X162704147Y-128947426D01*
X162649000Y-129224665D01*
X162649000Y-129507335D01*
X162667714Y-129601418D01*
X159674573Y-132594560D01*
X159642709Y-132620710D01*
X159561906Y-132719169D01*
X159538363Y-132747856D01*
X159460827Y-132892915D01*
X159413081Y-133050313D01*
X159396959Y-133214001D01*
X159401000Y-133255030D01*
X159401000Y-134708245D01*
X159332932Y-134580899D01*
X159153608Y-134362392D01*
X158935101Y-134183068D01*
X158685808Y-134049818D01*
X158415309Y-133967764D01*
X158204492Y-133947000D01*
X157263508Y-133947000D01*
X157052691Y-133967764D01*
X156782192Y-134049818D01*
X156532899Y-134183068D01*
X156314392Y-134362392D01*
X156135068Y-134580899D01*
X156001818Y-134830192D01*
X155919764Y-135100691D01*
X155892057Y-135382000D01*
X155919764Y-135663309D01*
X156001818Y-135933808D01*
X156135068Y-136183101D01*
X156314392Y-136401608D01*
X156532899Y-136580932D01*
X156665858Y-136652000D01*
X156532899Y-136723068D01*
X156314392Y-136902392D01*
X156135068Y-137120899D01*
X156002251Y-137369381D01*
X151457000Y-132824131D01*
X151457000Y-130587902D01*
X153835000Y-130587902D01*
X153835000Y-131032098D01*
X153921658Y-131467759D01*
X154091645Y-131878143D01*
X154338427Y-132247479D01*
X154652521Y-132561573D01*
X155021857Y-132808355D01*
X155432241Y-132978342D01*
X155867902Y-133065000D01*
X156312098Y-133065000D01*
X156747759Y-132978342D01*
X157158143Y-132808355D01*
X157527479Y-132561573D01*
X157841573Y-132247479D01*
X158088355Y-131878143D01*
X158258342Y-131467759D01*
X158345000Y-131032098D01*
X158345000Y-130587902D01*
X158258342Y-130152241D01*
X158088355Y-129741857D01*
X157841573Y-129372521D01*
X157527479Y-129058427D01*
X157158143Y-128811645D01*
X156747759Y-128641658D01*
X156312098Y-128555000D01*
X155867902Y-128555000D01*
X155432241Y-128641658D01*
X155021857Y-128811645D01*
X154652521Y-129058427D01*
X154338427Y-129372521D01*
X154091645Y-129741857D01*
X153921658Y-130152241D01*
X153835000Y-130587902D01*
X151457000Y-130587902D01*
X151457000Y-120987902D01*
X153835000Y-120987902D01*
X153835000Y-121432098D01*
X153921658Y-121867759D01*
X154091645Y-122278143D01*
X154338427Y-122647479D01*
X154652521Y-122961573D01*
X155021857Y-123208355D01*
X155432241Y-123378342D01*
X155867902Y-123465000D01*
X156312098Y-123465000D01*
X156747759Y-123378342D01*
X157158143Y-123208355D01*
X157527479Y-122961573D01*
X157841573Y-122647479D01*
X158088355Y-122278143D01*
X158258342Y-121867759D01*
X158345000Y-121432098D01*
X158345000Y-120987902D01*
X158258342Y-120552241D01*
X158088355Y-120141857D01*
X157841573Y-119772521D01*
X157527479Y-119458427D01*
X157158143Y-119211645D01*
X156747759Y-119041658D01*
X156312098Y-118955000D01*
X155867902Y-118955000D01*
X155432241Y-119041658D01*
X155021857Y-119211645D01*
X154652521Y-119458427D01*
X154338427Y-119772521D01*
X154091645Y-120141857D01*
X153921658Y-120552241D01*
X153835000Y-120987902D01*
X151457000Y-120987902D01*
X151457000Y-116943049D01*
X151473426Y-116949853D01*
X151750665Y-117005000D01*
X152033335Y-117005000D01*
X152310574Y-116949853D01*
X152571727Y-116841680D01*
X152806759Y-116684637D01*
X153006637Y-116484759D01*
X153163680Y-116249727D01*
X153271853Y-115988574D01*
X153327000Y-115711335D01*
X153327000Y-115428665D01*
X154013000Y-115428665D01*
X154013000Y-115711335D01*
X154068147Y-115988574D01*
X154176320Y-116249727D01*
X154333363Y-116484759D01*
X154533241Y-116684637D01*
X154768273Y-116841680D01*
X155029426Y-116949853D01*
X155306665Y-117005000D01*
X155589335Y-117005000D01*
X155866574Y-116949853D01*
X156127727Y-116841680D01*
X156362759Y-116684637D01*
X156562637Y-116484759D01*
X156719680Y-116249727D01*
X156827853Y-115988574D01*
X156883000Y-115711335D01*
X156883000Y-115428665D01*
X156827853Y-115151426D01*
X156719680Y-114890273D01*
X156562637Y-114655241D01*
X156362759Y-114455363D01*
X156127727Y-114298320D01*
X155866574Y-114190147D01*
X155589335Y-114135000D01*
X155306665Y-114135000D01*
X155029426Y-114190147D01*
X154768273Y-114298320D01*
X154533241Y-114455363D01*
X154333363Y-114655241D01*
X154176320Y-114890273D01*
X154068147Y-115151426D01*
X154013000Y-115428665D01*
X153327000Y-115428665D01*
X153271853Y-115151426D01*
X153163680Y-114890273D01*
X153006637Y-114655241D01*
X152806759Y-114455363D01*
X152571727Y-114298320D01*
X152310574Y-114190147D01*
X152033335Y-114135000D01*
X151750665Y-114135000D01*
X151473426Y-114190147D01*
X151457000Y-114196951D01*
X151457000Y-109323049D01*
X151473426Y-109329853D01*
X151750665Y-109385000D01*
X152033335Y-109385000D01*
X152310574Y-109329853D01*
X152571727Y-109221680D01*
X152806759Y-109064637D01*
X153006637Y-108864759D01*
X153163680Y-108629727D01*
X153271853Y-108368574D01*
X153285684Y-108299040D01*
X154056091Y-108299040D01*
X154150930Y-108563881D01*
X154295615Y-108805131D01*
X154484586Y-109013519D01*
X154710580Y-109181037D01*
X154964913Y-109301246D01*
X155098961Y-109341904D01*
X155321000Y-109219915D01*
X155321000Y-108077000D01*
X155575000Y-108077000D01*
X155575000Y-109219915D01*
X155797039Y-109341904D01*
X155931087Y-109301246D01*
X156185420Y-109181037D01*
X156411414Y-109013519D01*
X156584623Y-108822512D01*
X164421783Y-108822512D01*
X164463213Y-109102130D01*
X164558397Y-109368292D01*
X164625329Y-109493514D01*
X164869298Y-109565097D01*
X165682395Y-108752000D01*
X164869298Y-107938903D01*
X164625329Y-108010486D01*
X164504429Y-108265996D01*
X164435700Y-108540184D01*
X164421783Y-108822512D01*
X156584623Y-108822512D01*
X156600385Y-108805131D01*
X156745070Y-108563881D01*
X156839909Y-108299040D01*
X156718624Y-108077000D01*
X155575000Y-108077000D01*
X155321000Y-108077000D01*
X154177376Y-108077000D01*
X154056091Y-108299040D01*
X153285684Y-108299040D01*
X153327000Y-108091335D01*
X153327000Y-107808665D01*
X153285685Y-107600960D01*
X154056091Y-107600960D01*
X154177376Y-107823000D01*
X155321000Y-107823000D01*
X155321000Y-106680085D01*
X155575000Y-106680085D01*
X155575000Y-107823000D01*
X156718624Y-107823000D01*
X156839909Y-107600960D01*
X156745070Y-107336119D01*
X156600385Y-107094869D01*
X156411414Y-106886481D01*
X156185420Y-106718963D01*
X155931087Y-106598754D01*
X155797039Y-106558096D01*
X155575000Y-106680085D01*
X155321000Y-106680085D01*
X155098961Y-106558096D01*
X154964913Y-106598754D01*
X154710580Y-106718963D01*
X154484586Y-106886481D01*
X154295615Y-107094869D01*
X154150930Y-107336119D01*
X154056091Y-107600960D01*
X153285685Y-107600960D01*
X153271853Y-107531426D01*
X153163680Y-107270273D01*
X153006637Y-107035241D01*
X152806759Y-106835363D01*
X152571727Y-106678320D01*
X152310574Y-106570147D01*
X152033335Y-106515000D01*
X151750665Y-106515000D01*
X151473426Y-106570147D01*
X151457000Y-106576951D01*
X151457000Y-101923912D01*
X151553426Y-101963853D01*
X151830665Y-102019000D01*
X152113335Y-102019000D01*
X152390574Y-101963853D01*
X152651727Y-101855680D01*
X152886759Y-101698637D01*
X153008694Y-101576702D01*
X156158903Y-101576702D01*
X156230486Y-101820671D01*
X156485996Y-101941571D01*
X156760184Y-102010300D01*
X157042512Y-102024217D01*
X157322130Y-101982787D01*
X157588292Y-101887603D01*
X157713514Y-101820671D01*
X157785097Y-101576702D01*
X156972000Y-100763605D01*
X156158903Y-101576702D01*
X153008694Y-101576702D01*
X153086637Y-101498759D01*
X153243680Y-101263727D01*
X153351853Y-101002574D01*
X153407000Y-100725335D01*
X153407000Y-100654512D01*
X155531783Y-100654512D01*
X155573213Y-100934130D01*
X155668397Y-101200292D01*
X155735329Y-101325514D01*
X155979298Y-101397097D01*
X156792395Y-100584000D01*
X157151605Y-100584000D01*
X157964702Y-101397097D01*
X158208671Y-101325514D01*
X158329571Y-101070004D01*
X158398300Y-100795816D01*
X158412217Y-100513488D01*
X158370787Y-100233870D01*
X158275603Y-99967708D01*
X158208671Y-99842486D01*
X157964702Y-99770903D01*
X157151605Y-100584000D01*
X156792395Y-100584000D01*
X155979298Y-99770903D01*
X155735329Y-99842486D01*
X155614429Y-100097996D01*
X155545700Y-100372184D01*
X155531783Y-100654512D01*
X153407000Y-100654512D01*
X153407000Y-100442665D01*
X153351853Y-100165426D01*
X153243680Y-99904273D01*
X153086637Y-99669241D01*
X153008694Y-99591298D01*
X156158903Y-99591298D01*
X156972000Y-100404395D01*
X157785097Y-99591298D01*
X157713514Y-99347329D01*
X157458004Y-99226429D01*
X157183816Y-99157700D01*
X156901488Y-99143783D01*
X156621870Y-99185213D01*
X156355708Y-99280397D01*
X156230486Y-99347329D01*
X156158903Y-99591298D01*
X153008694Y-99591298D01*
X152886759Y-99469363D01*
X152651727Y-99312320D01*
X152390574Y-99204147D01*
X152113335Y-99149000D01*
X151830665Y-99149000D01*
X151736582Y-99167715D01*
X151457000Y-98888133D01*
X151457000Y-97887615D01*
X151538145Y-97863000D01*
X152802715Y-97863000D01*
X152925744Y-97945205D01*
X153114102Y-98023226D01*
X153314061Y-98063000D01*
X153517939Y-98063000D01*
X153717898Y-98023226D01*
X153906256Y-97945205D01*
X154075774Y-97831937D01*
X154219937Y-97687774D01*
X154333205Y-97518256D01*
X154411226Y-97329898D01*
X154451000Y-97129939D01*
X154451000Y-96926061D01*
X154439658Y-96869039D01*
X156450096Y-96869039D01*
X156467633Y-96951818D01*
X156578285Y-97211646D01*
X156737500Y-97444895D01*
X156939161Y-97642601D01*
X157175517Y-97797166D01*
X157437486Y-97902650D01*
X157715000Y-97955000D01*
X158115000Y-97955000D01*
X158115000Y-96647000D01*
X158369000Y-96647000D01*
X158369000Y-97955000D01*
X158769000Y-97955000D01*
X159046514Y-97902650D01*
X159308483Y-97797166D01*
X159544839Y-97642601D01*
X159746500Y-97444895D01*
X159905715Y-97211646D01*
X160016367Y-96951818D01*
X160033904Y-96869039D01*
X159911915Y-96647000D01*
X158369000Y-96647000D01*
X158115000Y-96647000D01*
X156572085Y-96647000D01*
X156450096Y-96869039D01*
X154439658Y-96869039D01*
X154411226Y-96726102D01*
X154333205Y-96537744D01*
X154219937Y-96368226D01*
X154075774Y-96224063D01*
X153906256Y-96110795D01*
X153717898Y-96032774D01*
X153517939Y-95993000D01*
X153314061Y-95993000D01*
X153114102Y-96032774D01*
X152925744Y-96110795D01*
X152802715Y-96193000D01*
X152422376Y-96193000D01*
X152354182Y-95968192D01*
X152220932Y-95718899D01*
X152041608Y-95500392D01*
X151823101Y-95321068D01*
X151690142Y-95250000D01*
X151823101Y-95178932D01*
X152041608Y-94999608D01*
X152220932Y-94781101D01*
X152354182Y-94531808D01*
X152436236Y-94261309D01*
X152463943Y-93980000D01*
X152436236Y-93698691D01*
X152354182Y-93428192D01*
X152220932Y-93178899D01*
X152041608Y-92960392D01*
X151823101Y-92781068D01*
X151690142Y-92710000D01*
X151823101Y-92638932D01*
X152041608Y-92459608D01*
X152220932Y-92241101D01*
X152354182Y-91991808D01*
X152436236Y-91721309D01*
X152463943Y-91440000D01*
X152436236Y-91158691D01*
X152354182Y-90888192D01*
X152220932Y-90638899D01*
X152041608Y-90420392D01*
X151928518Y-90327581D01*
X151946482Y-90325812D01*
X152066180Y-90289502D01*
X152176494Y-90230537D01*
X152273185Y-90151185D01*
X152352537Y-90054494D01*
X152411502Y-89944180D01*
X152447812Y-89824482D01*
X152460072Y-89700000D01*
X152460072Y-88100000D01*
X152447812Y-87975518D01*
X152411502Y-87855820D01*
X152352537Y-87745506D01*
X152273185Y-87648815D01*
X152176494Y-87569463D01*
X152066180Y-87510498D01*
X151946482Y-87474188D01*
X151822000Y-87461928D01*
X149422000Y-87461928D01*
X149297518Y-87474188D01*
X149177820Y-87510498D01*
X149067506Y-87569463D01*
X148970815Y-87648815D01*
X148891463Y-87745506D01*
X148832498Y-87855820D01*
X148796188Y-87975518D01*
X148783928Y-88100000D01*
X148783928Y-89700000D01*
X148796188Y-89824482D01*
X148832498Y-89944180D01*
X148891463Y-90054494D01*
X148970815Y-90151185D01*
X149067506Y-90230537D01*
X149177820Y-90289502D01*
X149297518Y-90325812D01*
X149315482Y-90327581D01*
X149202392Y-90420392D01*
X149023068Y-90638899D01*
X148889818Y-90888192D01*
X148807764Y-91158691D01*
X148780057Y-91440000D01*
X148807764Y-91721309D01*
X148889818Y-91991808D01*
X149023068Y-92241101D01*
X149202392Y-92459608D01*
X149420899Y-92638932D01*
X149553858Y-92710000D01*
X149420899Y-92781068D01*
X149202392Y-92960392D01*
X149023068Y-93178899D01*
X148889818Y-93428192D01*
X148807764Y-93698691D01*
X148780057Y-93980000D01*
X148807764Y-94261309D01*
X148889818Y-94531808D01*
X149023068Y-94781101D01*
X149202392Y-94999608D01*
X149420899Y-95178932D01*
X149553858Y-95250000D01*
X149420899Y-95321068D01*
X149202392Y-95500392D01*
X149023068Y-95718899D01*
X148889818Y-95968192D01*
X148807764Y-96238691D01*
X148780057Y-96520000D01*
X148807764Y-96801309D01*
X148889818Y-97071808D01*
X149023068Y-97321101D01*
X149202392Y-97539608D01*
X149420899Y-97718932D01*
X149670192Y-97852182D01*
X149787000Y-97887615D01*
X149787000Y-99192981D01*
X149782960Y-99234000D01*
X149787000Y-99275019D01*
X149787001Y-122538512D01*
X149782312Y-122531495D01*
X149568505Y-122317688D01*
X149317095Y-122149701D01*
X149037743Y-122033989D01*
X148741184Y-121975000D01*
X148438816Y-121975000D01*
X148142257Y-122033989D01*
X147862905Y-122149701D01*
X147611495Y-122317688D01*
X147397688Y-122531495D01*
X147251687Y-122750000D01*
X145259323Y-122750000D01*
X145222000Y-122746324D01*
X145184677Y-122750000D01*
X145184667Y-122750000D01*
X145073014Y-122760997D01*
X144929753Y-122804454D01*
X144797724Y-122875026D01*
X144681999Y-122969999D01*
X144658201Y-122998997D01*
X143669271Y-123987928D01*
X142406000Y-123987928D01*
X142281518Y-124000188D01*
X142161820Y-124036498D01*
X142051506Y-124095463D01*
X141954815Y-124174815D01*
X141875463Y-124271506D01*
X141816498Y-124381820D01*
X141780188Y-124501518D01*
X141767928Y-124626000D01*
X140685000Y-124626000D01*
X140685000Y-119292000D01*
X141767928Y-119292000D01*
X141767928Y-120992000D01*
X141780188Y-121116482D01*
X141816498Y-121236180D01*
X141875463Y-121346494D01*
X141954815Y-121443185D01*
X142051506Y-121522537D01*
X142161820Y-121581502D01*
X142281518Y-121617812D01*
X142406000Y-121630072D01*
X144106000Y-121630072D01*
X144230482Y-121617812D01*
X144350180Y-121581502D01*
X144460494Y-121522537D01*
X144557185Y-121443185D01*
X144636537Y-121346494D01*
X144695502Y-121236180D01*
X144719966Y-121155534D01*
X144795731Y-121239588D01*
X145029080Y-121413641D01*
X145291901Y-121538825D01*
X145439110Y-121583476D01*
X145669000Y-121462155D01*
X145669000Y-120269000D01*
X145923000Y-120269000D01*
X145923000Y-121462155D01*
X146152890Y-121583476D01*
X146300099Y-121538825D01*
X146562920Y-121413641D01*
X146796269Y-121239588D01*
X146991178Y-121023355D01*
X147140157Y-120773252D01*
X147237481Y-120498891D01*
X147116814Y-120269000D01*
X145923000Y-120269000D01*
X145669000Y-120269000D01*
X145649000Y-120269000D01*
X145649000Y-120015000D01*
X145669000Y-120015000D01*
X145669000Y-118821845D01*
X145923000Y-118821845D01*
X145923000Y-120015000D01*
X147116814Y-120015000D01*
X147237481Y-119785109D01*
X147140157Y-119510748D01*
X146991178Y-119260645D01*
X146796269Y-119044412D01*
X146562920Y-118870359D01*
X146300099Y-118745175D01*
X146152890Y-118700524D01*
X145923000Y-118821845D01*
X145669000Y-118821845D01*
X145439110Y-118700524D01*
X145291901Y-118745175D01*
X145029080Y-118870359D01*
X144795731Y-119044412D01*
X144719966Y-119128466D01*
X144695502Y-119047820D01*
X144636537Y-118937506D01*
X144557185Y-118840815D01*
X144460494Y-118761463D01*
X144350180Y-118702498D01*
X144230482Y-118666188D01*
X144106000Y-118653928D01*
X142406000Y-118653928D01*
X142281518Y-118666188D01*
X142161820Y-118702498D01*
X142051506Y-118761463D01*
X141954815Y-118840815D01*
X141875463Y-118937506D01*
X141816498Y-119047820D01*
X141780188Y-119167518D01*
X141767928Y-119292000D01*
X140685000Y-119292000D01*
X140685000Y-93370061D01*
X143491000Y-93370061D01*
X143491000Y-93573939D01*
X143530774Y-93773898D01*
X143608795Y-93962256D01*
X143722063Y-94131774D01*
X143866226Y-94275937D01*
X144035744Y-94389205D01*
X144224102Y-94467226D01*
X144424061Y-94507000D01*
X144486199Y-94507000D01*
X145652132Y-95672934D01*
X145540320Y-95840273D01*
X145432147Y-96101426D01*
X145377000Y-96378665D01*
X145377000Y-96661335D01*
X145432147Y-96938574D01*
X145540320Y-97199727D01*
X145697363Y-97434759D01*
X145897241Y-97634637D01*
X146132273Y-97791680D01*
X146393426Y-97899853D01*
X146670665Y-97955000D01*
X146953335Y-97955000D01*
X147230574Y-97899853D01*
X147491727Y-97791680D01*
X147726759Y-97634637D01*
X147926637Y-97434759D01*
X148083680Y-97199727D01*
X148191853Y-96938574D01*
X148247000Y-96661335D01*
X148247000Y-96378665D01*
X148191853Y-96101426D01*
X148083680Y-95840273D01*
X147926637Y-95605241D01*
X147726759Y-95405363D01*
X147491727Y-95248320D01*
X147296084Y-95167282D01*
X145561000Y-93432199D01*
X145561000Y-93370061D01*
X145521226Y-93170102D01*
X145443205Y-92981744D01*
X145329937Y-92812226D01*
X145185774Y-92668063D01*
X145016256Y-92554795D01*
X144827898Y-92476774D01*
X144627939Y-92437000D01*
X144424061Y-92437000D01*
X144224102Y-92476774D01*
X144035744Y-92554795D01*
X143866226Y-92668063D01*
X143722063Y-92812226D01*
X143608795Y-92981744D01*
X143530774Y-93170102D01*
X143491000Y-93370061D01*
X140685000Y-93370061D01*
X140685000Y-88758665D01*
X145377000Y-88758665D01*
X145377000Y-89041335D01*
X145432147Y-89318574D01*
X145540320Y-89579727D01*
X145697363Y-89814759D01*
X145897241Y-90014637D01*
X146132273Y-90171680D01*
X146393426Y-90279853D01*
X146670665Y-90335000D01*
X146953335Y-90335000D01*
X147230574Y-90279853D01*
X147491727Y-90171680D01*
X147726759Y-90014637D01*
X147926637Y-89814759D01*
X148083680Y-89579727D01*
X148191853Y-89318574D01*
X148247000Y-89041335D01*
X148247000Y-88758665D01*
X148191853Y-88481426D01*
X148083680Y-88220273D01*
X147926637Y-87985241D01*
X147726759Y-87785363D01*
X147491727Y-87628320D01*
X147230574Y-87520147D01*
X146953335Y-87465000D01*
X146670665Y-87465000D01*
X146393426Y-87520147D01*
X146132273Y-87628320D01*
X145897241Y-87785363D01*
X145697363Y-87985241D01*
X145540320Y-88220273D01*
X145432147Y-88481426D01*
X145377000Y-88758665D01*
X140685000Y-88758665D01*
X140685000Y-75891000D01*
X147044928Y-75891000D01*
X147057188Y-76015482D01*
X147093498Y-76135180D01*
X147152463Y-76245494D01*
X147231815Y-76342185D01*
X147328506Y-76421537D01*
X147438820Y-76480502D01*
X147558518Y-76516812D01*
X147683000Y-76529072D01*
X148297250Y-76526000D01*
X148456000Y-76367250D01*
X148456000Y-75118000D01*
X148710000Y-75118000D01*
X148710000Y-76367250D01*
X148868750Y-76526000D01*
X149483000Y-76529072D01*
X149607482Y-76516812D01*
X149727180Y-76480502D01*
X149837494Y-76421537D01*
X149934185Y-76342185D01*
X150013537Y-76245494D01*
X150072502Y-76135180D01*
X150108812Y-76015482D01*
X150121072Y-75891000D01*
X150118000Y-75276750D01*
X149959250Y-75118000D01*
X148710000Y-75118000D01*
X148456000Y-75118000D01*
X147206750Y-75118000D01*
X147048000Y-75276750D01*
X147044928Y-75891000D01*
X140685000Y-75891000D01*
X140685000Y-65685000D01*
X155033314Y-65685000D01*
X155014857Y-65692645D01*
G37*
%TD.AperFunction*%
D25*
X157861000Y-145415000D02*
X157881000Y-145415000D01*
X157881000Y-145669000D01*
X157861000Y-145669000D01*
X157861000Y-145689000D01*
X157607000Y-145689000D01*
X157607000Y-145669000D01*
X157587000Y-145669000D01*
X157587000Y-145415000D01*
X157607000Y-145415000D01*
X157607000Y-145395000D01*
X157861000Y-145395000D01*
X157861000Y-145415000D01*
%TA.AperFunction,Conductor*%
D26*
G36*
X157861000Y-145415000D02*
G01*
X157881000Y-145415000D01*
X157881000Y-145669000D01*
X157861000Y-145669000D01*
X157861000Y-145689000D01*
X157607000Y-145689000D01*
X157607000Y-145669000D01*
X157587000Y-145669000D01*
X157587000Y-145415000D01*
X157607000Y-145415000D01*
X157607000Y-145395000D01*
X157861000Y-145395000D01*
X157861000Y-145415000D01*
G37*
%TD.AperFunction*%
%TD*%
M02*
