M48
; DRILL file {KiCad (5.1.9)-1} date 06/01/21 20:47:46
; FORMAT={-:-/ absolute / inch / decimal}
; #@! TF.CreationDate,2021-06-01T20:47:46+01:00
; #@! TF.GenerationSoftware,Kicad,Pcbnew,(5.1.9)-1
FMAT,2
INCH
T1C0.0157
T2C0.0315
T3C0.0394
T4C0.0400
T5C0.0709
%
G90
G05
T1
X5.69Y-3.68
X6.04Y-3.82
X6.34Y-5.49
T2
X5.62Y-5.12
X5.62Y-5.42
X5.62Y-5.53
X5.62Y-5.83
X5.76Y-5.12
X5.76Y-5.42
X5.76Y-5.53
X5.76Y-5.83
X5.76Y-5.93
X5.76Y-6.23
X5.78Y-3.5
X5.78Y-3.8
X5.91Y-5.33
X5.91Y-5.43
X5.91Y-5.53
X5.91Y-5.63
X5.91Y-5.73
X5.91Y-5.83
X5.91Y-5.93
X5.93Y-3.5
X5.93Y-3.6
X5.93Y-3.7
X5.93Y-3.8
X5.96Y-6.11
X5.98Y-4.25
X5.98Y-4.55
X5.9831Y-3.34
X5.9831Y-3.96
X6.12Y-4.25
X6.12Y-4.55
X6.1569Y-6.11
X6.18Y-3.34
X6.18Y-3.96
X6.21Y-5.33
X6.21Y-5.43
X6.21Y-5.53
X6.21Y-5.63
X6.21Y-5.73
X6.21Y-5.83
X6.21Y-5.93
X6.23Y-3.5
X6.23Y-3.6
X6.23Y-3.7
X6.23Y-3.8
X6.37Y-5.38
X6.37Y-5.68
X6.37Y-5.78
X6.37Y-6.08
X6.46Y-5.0931
X6.46Y-5.29
X6.51Y-5.38
X6.51Y-5.68
X6.51Y-5.78
X6.51Y-6.08
X6.53Y-2.8616
X6.53Y-2.96
X6.53Y-4.2816
X6.53Y-4.38
T3
X5.64Y-4.73
X5.64Y-4.94
X5.74Y-4.73
X5.74Y-4.94
X5.8497Y-2.7556
X5.8497Y-2.854
X5.8497Y-2.9524
X5.85Y-4.8626
X5.85Y-4.961
X5.85Y-5.0594
X6.44Y-4.55
X6.44Y-4.71
X6.44Y-4.88
X6.54Y-4.55
X6.54Y-4.71
X6.54Y-4.88
T4
X6.44Y-3.43
X6.44Y-3.53
X6.44Y-3.63
X6.44Y-3.73
X6.44Y-3.83
X6.54Y-3.43
X6.54Y-3.53
X6.54Y-3.63
X6.54Y-3.73
X6.54Y-3.83
T5
X6.145Y-2.665
X6.145Y-3.043
X6.1453Y-4.772
X6.1453Y-5.15
T0
M30
