%TF.GenerationSoftware,KiCad,Pcbnew,(5.1.9)-1*%
%TF.CreationDate,2021-06-01T20:47:54+01:00*%
%TF.ProjectId,KosmicSuperspreader,4b6f736d-6963-4537-9570-657273707265,rev?*%
%TF.SameCoordinates,Original*%
%TF.FileFunction,Legend,Bot*%
%TF.FilePolarity,Positive*%
%FSLAX46Y46*%
G04 Gerber Fmt 4.6, Leading zero omitted, Abs format (unit mm)*
G04 Created by KiCad (PCBNEW (5.1.9)-1) date 2021-06-01 20:47:54*
%MOMM*%
%LPD*%
G01*
G04 APERTURE LIST*
%ADD10C,0.120000*%
%ADD11C,0.150000*%
G04 APERTURE END LIST*
D10*
%TO.C,RV2*%
X149463000Y-70831000D02*
X149463000Y-71661000D01*
X149463000Y-73281000D02*
X149463000Y-73811000D01*
X149463000Y-76181000D02*
X149463000Y-77361000D01*
X149463000Y-67621000D02*
X154183000Y-67621000D01*
X157993000Y-77361000D02*
X161053000Y-77361000D01*
X149463000Y-77371000D02*
X154183000Y-77371000D01*
X157993000Y-67621000D02*
X161053000Y-67621000D01*
X149463000Y-67621000D02*
X149463000Y-69111000D01*
X161053000Y-67621000D02*
X161053000Y-77361000D01*
%TO.C,RV1*%
X149470000Y-124350000D02*
X149470000Y-125180000D01*
X149470000Y-126800000D02*
X149470000Y-127330000D01*
X149470000Y-129700000D02*
X149470000Y-130880000D01*
X149470000Y-121140000D02*
X154190000Y-121140000D01*
X158000000Y-130880000D02*
X161060000Y-130880000D01*
X149470000Y-130890000D02*
X154190000Y-130890000D01*
X158000000Y-121140000D02*
X161060000Y-121140000D01*
X149470000Y-121140000D02*
X149470000Y-122630000D01*
X161060000Y-121140000D02*
X161060000Y-130880000D01*
%TO.C,RV2*%
D11*
X156678238Y-73425380D02*
X157011571Y-72949190D01*
X157249666Y-73425380D02*
X157249666Y-72425380D01*
X156868714Y-72425380D01*
X156773476Y-72473000D01*
X156725857Y-72520619D01*
X156678238Y-72615857D01*
X156678238Y-72758714D01*
X156725857Y-72853952D01*
X156773476Y-72901571D01*
X156868714Y-72949190D01*
X157249666Y-72949190D01*
X156392523Y-72425380D02*
X156059190Y-73425380D01*
X155725857Y-72425380D01*
X155440142Y-72520619D02*
X155392523Y-72473000D01*
X155297285Y-72425380D01*
X155059190Y-72425380D01*
X154963952Y-72473000D01*
X154916333Y-72520619D01*
X154868714Y-72615857D01*
X154868714Y-72711095D01*
X154916333Y-72853952D01*
X155487761Y-73425380D01*
X154868714Y-73425380D01*
%TO.C,RV1*%
X155635238Y-133762380D02*
X155968571Y-133286190D01*
X156206666Y-133762380D02*
X156206666Y-132762380D01*
X155825714Y-132762380D01*
X155730476Y-132810000D01*
X155682857Y-132857619D01*
X155635238Y-132952857D01*
X155635238Y-133095714D01*
X155682857Y-133190952D01*
X155730476Y-133238571D01*
X155825714Y-133286190D01*
X156206666Y-133286190D01*
X155349523Y-132762380D02*
X155016190Y-133762380D01*
X154682857Y-132762380D01*
X153825714Y-133762380D02*
X154397142Y-133762380D01*
X154111428Y-133762380D02*
X154111428Y-132762380D01*
X154206666Y-132905238D01*
X154301904Y-133000476D01*
X154397142Y-133048095D01*
X161480000Y-127597142D02*
X161527619Y-127644761D01*
X161670476Y-127692380D01*
X161765714Y-127692380D01*
X161908571Y-127644761D01*
X162003809Y-127549523D01*
X162051428Y-127454285D01*
X162099047Y-127263809D01*
X162099047Y-127120952D01*
X162051428Y-126930476D01*
X162003809Y-126835238D01*
X161908571Y-126740000D01*
X161765714Y-126692380D01*
X161670476Y-126692380D01*
X161527619Y-126740000D01*
X161480000Y-126787619D01*
X161194285Y-126692380D02*
X160860952Y-127692380D01*
X160527619Y-126692380D01*
X159480000Y-127406666D02*
X159003809Y-127406666D01*
X159575238Y-127692380D02*
X159241904Y-126692380D01*
X158908571Y-127692380D01*
X158718095Y-126692380D02*
X158146666Y-126692380D01*
X158432380Y-127692380D02*
X158432380Y-126692380D01*
X157956190Y-126692380D02*
X157384761Y-126692380D01*
X157670476Y-127692380D02*
X157670476Y-126692380D01*
X155765714Y-127692380D02*
X156337142Y-127692380D01*
X156051428Y-127692380D02*
X156051428Y-126692380D01*
X156146666Y-126835238D01*
X156241904Y-126930476D01*
X156337142Y-126978095D01*
X155146666Y-126692380D02*
X155051428Y-126692380D01*
X154956190Y-126740000D01*
X154908571Y-126787619D01*
X154860952Y-126882857D01*
X154813333Y-127073333D01*
X154813333Y-127311428D01*
X154860952Y-127501904D01*
X154908571Y-127597142D01*
X154956190Y-127644761D01*
X155051428Y-127692380D01*
X155146666Y-127692380D01*
X155241904Y-127644761D01*
X155289523Y-127597142D01*
X155337142Y-127501904D01*
X155384761Y-127311428D01*
X155384761Y-127073333D01*
X155337142Y-126882857D01*
X155289523Y-126787619D01*
X155241904Y-126740000D01*
X155146666Y-126692380D01*
X154194285Y-126692380D02*
X154099047Y-126692380D01*
X154003809Y-126740000D01*
X153956190Y-126787619D01*
X153908571Y-126882857D01*
X153860952Y-127073333D01*
X153860952Y-127311428D01*
X153908571Y-127501904D01*
X153956190Y-127597142D01*
X154003809Y-127644761D01*
X154099047Y-127692380D01*
X154194285Y-127692380D01*
X154289523Y-127644761D01*
X154337142Y-127597142D01*
X154384761Y-127501904D01*
X154432380Y-127311428D01*
X154432380Y-127073333D01*
X154384761Y-126882857D01*
X154337142Y-126787619D01*
X154289523Y-126740000D01*
X154194285Y-126692380D01*
X153432380Y-127692380D02*
X153432380Y-126692380D01*
X152860952Y-127692380D02*
X153289523Y-127120952D01*
X152860952Y-126692380D02*
X153432380Y-127263809D01*
%TD*%
M02*
