%TF.GenerationSoftware,KiCad,Pcbnew,(5.1.9)-1*%
%TF.CreationDate,2021-09-28T21:18:44+01:00*%
%TF.ProjectId,KosmicSuperspreader,4b6f736d-6963-4537-9570-657273707265,rev?*%
%TF.SameCoordinates,Original*%
%TF.FileFunction,Copper,L2,Bot*%
%TF.FilePolarity,Positive*%
%FSLAX46Y46*%
G04 Gerber Fmt 4.6, Leading zero omitted, Abs format (unit mm)*
G04 Created by KiCad (PCBNEW (5.1.9)-1) date 2021-09-28 21:18:44*
%MOMM*%
%LPD*%
G01*
G04 APERTURE LIST*
%TA.AperFunction,ComponentPad*%
%ADD10O,2.400000X1.600000*%
%TD*%
%TA.AperFunction,ComponentPad*%
%ADD11R,2.400000X1.600000*%
%TD*%
%TA.AperFunction,ComponentPad*%
%ADD12C,3.240000*%
%TD*%
%TA.AperFunction,ComponentPad*%
%ADD13C,1.800000*%
%TD*%
%TA.AperFunction,ComponentPad*%
%ADD14R,1.800000X1.800000*%
%TD*%
%TA.AperFunction,ComponentPad*%
%ADD15O,1.600000X1.600000*%
%TD*%
%TA.AperFunction,ComponentPad*%
%ADD16C,1.600000*%
%TD*%
%TA.AperFunction,ComponentPad*%
%ADD17R,1.727200X1.727200*%
%TD*%
%TA.AperFunction,ComponentPad*%
%ADD18O,1.727200X1.727200*%
%TD*%
%TA.AperFunction,ComponentPad*%
%ADD19O,1.700000X1.700000*%
%TD*%
%TA.AperFunction,ComponentPad*%
%ADD20R,1.700000X1.700000*%
%TD*%
%TA.AperFunction,ComponentPad*%
%ADD21R,1.600000X1.600000*%
%TD*%
%TA.AperFunction,ViaPad*%
%ADD22C,0.800000*%
%TD*%
%TA.AperFunction,Conductor*%
%ADD23C,0.400000*%
%TD*%
%TA.AperFunction,Conductor*%
%ADD24C,0.250000*%
%TD*%
%TA.AperFunction,Conductor*%
%ADD25C,0.254000*%
%TD*%
%TA.AperFunction,Conductor*%
%ADD26C,0.100000*%
%TD*%
G04 APERTURE END LIST*
D10*
%TO.P,U2,14*%
%TO.N,OUTMINUS*%
X157734000Y-135382000D03*
%TO.P,U2,7*%
%TO.N,Net-(R10-Pad1)*%
X150114000Y-150622000D03*
%TO.P,U2,13*%
%TO.N,Net-(R7-Pad1)*%
X157734000Y-137922000D03*
%TO.P,U2,6*%
%TO.N,Net-(R10-Pad2)*%
X150114000Y-148082000D03*
%TO.P,U2,12*%
%TO.N,Net-(R6-Pad1)*%
X157734000Y-140462000D03*
%TO.P,U2,5*%
%TO.N,GND*%
X150114000Y-145542000D03*
%TO.P,U2,11*%
%TO.N,-12V*%
X157734000Y-143002000D03*
%TO.P,U2,4*%
%TO.N,+12V*%
X150114000Y-143002000D03*
%TO.P,U2,10*%
%TO.N,GND*%
X157734000Y-145542000D03*
%TO.P,U2,3*%
X150114000Y-140462000D03*
%TO.P,U2,9*%
%TO.N,Net-(R11-Pad1)*%
X157734000Y-148082000D03*
%TO.P,U2,2*%
%TO.N,Net-(R1-Pad1)*%
X150114000Y-137922000D03*
%TO.P,U2,8*%
%TO.N,OUTPLUS*%
X157734000Y-150622000D03*
D11*
%TO.P,U2,1*%
%TO.N,Net-(R3-Pad1)*%
X150114000Y-135382000D03*
%TD*%
D10*
%TO.P,U1,8*%
%TO.N,+12V*%
X158242000Y-88900000D03*
%TO.P,U1,4*%
%TO.N,-12V*%
X150622000Y-96520000D03*
%TO.P,U1,7*%
%TO.N,Net-(U1-Pad6)*%
X158242000Y-91440000D03*
%TO.P,U1,3*%
%TO.N,INPUT*%
X150622000Y-93980000D03*
%TO.P,U1,6*%
%TO.N,Net-(U1-Pad6)*%
X158242000Y-93980000D03*
%TO.P,U1,2*%
%TO.N,OUTPUT*%
X150622000Y-91440000D03*
%TO.P,U1,5*%
%TO.N,GND*%
X158242000Y-96520000D03*
D11*
%TO.P,U1,1*%
%TO.N,OUTPUT*%
X150622000Y-88900000D03*
%TD*%
D12*
%TO.P,RV2,*%
%TO.N,*%
X156083000Y-77291000D03*
X156083000Y-67691000D03*
D13*
%TO.P,RV2,3*%
%TO.N,+12V*%
X148583000Y-69991000D03*
%TO.P,RV2,2*%
%TO.N,Net-(R2-Pad2)*%
X148583000Y-72491000D03*
D14*
%TO.P,RV2,1*%
%TO.N,GND*%
X148583000Y-74991000D03*
%TD*%
D12*
%TO.P,RV1,*%
%TO.N,*%
X156090000Y-130810000D03*
X156090000Y-121210000D03*
D13*
%TO.P,RV1,3*%
%TO.N,SPREAD*%
X148590000Y-123510000D03*
%TO.P,RV1,2*%
%TO.N,Net-(R1-Pad2)*%
X148590000Y-126010000D03*
D14*
%TO.P,RV1,1*%
%TO.N,GND*%
X148590000Y-128510000D03*
%TD*%
D15*
%TO.P,R12,2*%
%TO.N,Net-(R11-Pad1)*%
X161798000Y-146812000D03*
D16*
%TO.P,R12,1*%
%TO.N,OUTPLUS*%
X161798000Y-154432000D03*
%TD*%
D15*
%TO.P,R11,2*%
%TO.N,Net-(R10-Pad1)*%
X165354000Y-154432000D03*
D16*
%TO.P,R11,1*%
%TO.N,Net-(R11-Pad1)*%
X165354000Y-146812000D03*
%TD*%
D15*
%TO.P,R10,2*%
%TO.N,Net-(R10-Pad2)*%
X146304000Y-150622000D03*
D16*
%TO.P,R10,1*%
%TO.N,Net-(R10-Pad1)*%
X146304000Y-158242000D03*
%TD*%
D15*
%TO.P,R9,2*%
%TO.N,Net-(R7-Pad1)*%
X151892000Y-115570000D03*
D16*
%TO.P,R9,1*%
%TO.N,OUTMINUS*%
X151892000Y-107950000D03*
%TD*%
D15*
%TO.P,R8,2*%
%TO.N,GND*%
X155448000Y-107950000D03*
D16*
%TO.P,R8,1*%
%TO.N,Net-(R6-Pad1)*%
X155448000Y-115570000D03*
%TD*%
D15*
%TO.P,R7,2*%
%TO.N,Net-(R3-Pad1)*%
X146304000Y-148082000D03*
D16*
%TO.P,R7,1*%
%TO.N,Net-(R7-Pad1)*%
X146304000Y-140462000D03*
%TD*%
D15*
%TO.P,R6,2*%
%TO.N,INPUT*%
X161798000Y-144272000D03*
D16*
%TO.P,R6,1*%
%TO.N,Net-(R6-Pad1)*%
X161798000Y-136652000D03*
%TD*%
D15*
%TO.P,R5,2*%
%TO.N,INPUT*%
X165354000Y-144272000D03*
D16*
%TO.P,R5,1*%
%TO.N,Net-(R10-Pad2)*%
X165354000Y-136652000D03*
%TD*%
D15*
%TO.P,R4,2*%
%TO.N,Net-(R3-Pad1)*%
X142748000Y-140462000D03*
D16*
%TO.P,R4,1*%
%TO.N,Net-(R10-Pad2)*%
X142748000Y-148082000D03*
%TD*%
D15*
%TO.P,R3,2*%
%TO.N,Net-(R1-Pad1)*%
X142748000Y-137668000D03*
D16*
%TO.P,R3,1*%
%TO.N,Net-(R3-Pad1)*%
X142748000Y-130048000D03*
%TD*%
D15*
%TO.P,R2,2*%
%TO.N,Net-(R2-Pad2)*%
X146812000Y-88900000D03*
D16*
%TO.P,R2,1*%
%TO.N,Net-(R1-Pad1)*%
X146812000Y-96520000D03*
%TD*%
D15*
%TO.P,R1,2*%
%TO.N,Net-(R1-Pad2)*%
X146304000Y-130048000D03*
D16*
%TO.P,R1,1*%
%TO.N,Net-(R1-Pad1)*%
X146304000Y-137668000D03*
%TD*%
D17*
%TO.P,J6,1*%
%TO.N,-12V*%
X163576000Y-87122000D03*
D18*
%TO.P,J6,2*%
X166116000Y-87122000D03*
%TO.P,J6,3*%
%TO.N,GND*%
X163576000Y-89662000D03*
%TO.P,J6,4*%
X166116000Y-89662000D03*
%TO.P,J6,5*%
X163576000Y-92202000D03*
%TO.P,J6,6*%
X166116000Y-92202000D03*
%TO.P,J6,7*%
X163576000Y-94742000D03*
%TO.P,J6,8*%
X166116000Y-94742000D03*
%TO.P,J6,9*%
%TO.N,+12V*%
X163576000Y-97282000D03*
%TO.P,J6,10*%
X166116000Y-97282000D03*
%TD*%
D19*
%TO.P,J5,2*%
%TO.N,GND*%
X145796000Y-120142000D03*
D20*
%TO.P,J5,1*%
%TO.N,OUTPUT*%
X143256000Y-120142000D03*
%TD*%
D19*
%TO.P,J4,2*%
%TO.N,GND*%
X166116000Y-119634000D03*
D20*
%TO.P,J4,1*%
%TO.N,OUTPLUS*%
X163576000Y-119634000D03*
%TD*%
D19*
%TO.P,J3,2*%
%TO.N,GND*%
X166116000Y-115570000D03*
D20*
%TO.P,J3,1*%
%TO.N,OUTMINUS*%
X163576000Y-115570000D03*
%TD*%
D19*
%TO.P,J2,2*%
%TO.N,GND*%
X145796000Y-125476000D03*
D20*
%TO.P,J2,1*%
%TO.N,SPREAD*%
X143256000Y-125476000D03*
%TD*%
D19*
%TO.P,J1,2*%
%TO.N,GND*%
X166116000Y-123952000D03*
D20*
%TO.P,J1,1*%
%TO.N,INPUT*%
X163576000Y-123952000D03*
%TD*%
D16*
%TO.P,C6,2*%
%TO.N,GND*%
X156384000Y-155194000D03*
%TO.P,C6,1*%
%TO.N,-12V*%
X151384000Y-155194000D03*
%TD*%
%TO.P,C5,2*%
%TO.N,GND*%
X164084000Y-134366000D03*
%TO.P,C5,1*%
%TO.N,+12V*%
X164084000Y-129366000D03*
%TD*%
%TO.P,C4,2*%
%TO.N,GND*%
X156972000Y-100584000D03*
%TO.P,C4,1*%
%TO.N,-12V*%
X151972000Y-100584000D03*
%TD*%
%TO.P,C3,2*%
%TO.N,GND*%
X156972000Y-84836000D03*
%TO.P,C3,1*%
%TO.N,+12V*%
X151972000Y-84836000D03*
%TD*%
%TO.P,C2,2*%
%TO.N,-12V*%
X165862000Y-72684000D03*
D21*
%TO.P,C2,1*%
%TO.N,GND*%
X165862000Y-75184000D03*
%TD*%
D16*
%TO.P,C1,2*%
%TO.N,GND*%
X165862000Y-108752000D03*
D21*
%TO.P,C1,1*%
%TO.N,+12V*%
X165862000Y-111252000D03*
%TD*%
D22*
%TO.N,-12V*%
X153416000Y-97028000D03*
%TO.N,INPUT*%
X161036000Y-139446000D03*
%TO.N,Net-(R1-Pad1)*%
X144526000Y-93472000D03*
%TD*%
D23*
%TO.N,-12V*%
X153416000Y-94168930D02*
X153416000Y-97028000D01*
X157344940Y-90239990D02*
X153416000Y-94168930D01*
X160458010Y-90239990D02*
X157344940Y-90239990D01*
X163576000Y-87122000D02*
X160458010Y-90239990D01*
D24*
%TO.N,INPUT*%
X165354000Y-144272000D02*
X161798000Y-144272000D01*
X162958999Y-137523001D02*
X161036000Y-139446000D01*
X162958999Y-124569001D02*
X162958999Y-137523001D01*
X163576000Y-123952000D02*
X162958999Y-124569001D01*
X163576000Y-122032998D02*
X163576000Y-123952000D01*
X149096990Y-107553988D02*
X163576000Y-122032998D01*
X149096990Y-95505010D02*
X149096990Y-107553988D01*
X150622000Y-93980000D02*
X149096990Y-95505010D01*
%TO.N,OUTMINUS*%
X159512000Y-115570000D02*
X151892000Y-107950000D01*
X163576000Y-115570000D02*
X159512000Y-115570000D01*
X154144999Y-131792999D02*
X157734000Y-135382000D01*
X154144999Y-127251997D02*
X154144999Y-131792999D01*
X148210003Y-121317001D02*
X154144999Y-127251997D01*
X142080999Y-121252001D02*
X142145999Y-121317001D01*
X142080999Y-96976001D02*
X142080999Y-121252001D01*
X149096999Y-89960001D02*
X142080999Y-96976001D01*
X149096999Y-87839999D02*
X149096999Y-89960001D01*
X142145999Y-121317001D02*
X148210003Y-121317001D01*
X149161999Y-87774999D02*
X149096999Y-87839999D01*
X152082001Y-87774999D02*
X149161999Y-87774999D01*
X152147001Y-87839999D02*
X152082001Y-87774999D01*
X152147001Y-98304017D02*
X152147001Y-87839999D01*
X159512000Y-105669016D02*
X152147001Y-98304017D01*
X159512000Y-115570000D02*
X159512000Y-105669016D01*
%TO.N,OUTPLUS*%
X163209002Y-150622000D02*
X157734000Y-150622000D01*
X166479001Y-153891999D02*
X163209002Y-150622000D01*
X166479001Y-154972001D02*
X166479001Y-153891999D01*
X165894001Y-155557001D02*
X166479001Y-154972001D01*
X162923001Y-155557001D02*
X165894001Y-155557001D01*
X161798000Y-154432000D02*
X162923001Y-155557001D01*
X164751001Y-120809001D02*
X163576000Y-119634000D01*
X164751001Y-124873001D02*
X164751001Y-120809001D01*
X166479001Y-126601001D02*
X164751001Y-124873001D01*
X166479001Y-147352001D02*
X166479001Y-126601001D01*
X163209002Y-150622000D02*
X166479001Y-147352001D01*
%TO.N,OUTPUT*%
X147937001Y-94124999D02*
X150622000Y-91440000D01*
X147937001Y-115460999D02*
X147937001Y-94124999D01*
X143256000Y-120142000D02*
X147937001Y-115460999D01*
X150622000Y-88900000D02*
X150622000Y-91440000D01*
%TO.N,Net-(R1-Pad2)*%
X148590000Y-126124998D02*
X148590000Y-126010000D01*
X146304000Y-128410998D02*
X148590000Y-126124998D01*
X146304000Y-130048000D02*
X146304000Y-128410998D01*
%TO.N,Net-(R1-Pad1)*%
X146304000Y-136606998D02*
X146304000Y-137668000D01*
X148653999Y-134256999D02*
X146304000Y-136606998D01*
X151574001Y-134256999D02*
X148653999Y-134256999D01*
X151639001Y-134321999D02*
X151574001Y-134256999D01*
X151639001Y-136396999D02*
X151639001Y-134321999D01*
X150114000Y-137922000D02*
X151639001Y-136396999D01*
X142748000Y-137668000D02*
X146304000Y-137668000D01*
X141630989Y-121438401D02*
X141630989Y-96367011D01*
X141959598Y-121767010D02*
X141630989Y-121438401D01*
X145034008Y-121767010D02*
X141959598Y-121767010D01*
X148001999Y-124735001D02*
X145034008Y-121767010D01*
X149815001Y-125372001D02*
X149178001Y-124735001D01*
X149178001Y-124735001D02*
X148001999Y-124735001D01*
X149815001Y-133095997D02*
X149815001Y-125372001D01*
X141630989Y-96367011D02*
X144526000Y-93472000D01*
X148653999Y-134256999D02*
X149815001Y-133095997D01*
%TO.N,Net-(R2-Pad2)*%
X146812000Y-74262000D02*
X148583000Y-72491000D01*
X146812000Y-88900000D02*
X146812000Y-74262000D01*
%TO.N,Net-(R3-Pad1)*%
X146304000Y-144018000D02*
X142748000Y-140462000D01*
X146304000Y-148082000D02*
X146304000Y-144018000D01*
X150114000Y-135930996D02*
X150114000Y-135382000D01*
X146707997Y-139336999D02*
X150114000Y-135930996D01*
X143873001Y-139336999D02*
X146707997Y-139336999D01*
X142748000Y-140462000D02*
X143873001Y-139336999D01*
X141622999Y-138208001D02*
X141622999Y-131173001D01*
X142207999Y-138793001D02*
X141622999Y-138208001D01*
X141622999Y-131173001D02*
X142748000Y-130048000D01*
X146844001Y-138793001D02*
X142207999Y-138793001D01*
X150114000Y-135523002D02*
X146844001Y-138793001D01*
X150114000Y-135382000D02*
X150114000Y-135523002D01*
%TO.N,Net-(R10-Pad2)*%
X143764000Y-148082000D02*
X142748000Y-148082000D01*
X146304000Y-150622000D02*
X143764000Y-148082000D01*
X147574000Y-150622000D02*
X150114000Y-148082000D01*
X146304000Y-150622000D02*
X147574000Y-150622000D01*
X159259010Y-142746990D02*
X165354000Y-136652000D01*
X159259010Y-146007994D02*
X159259010Y-142746990D01*
X158310014Y-146956990D02*
X159259010Y-146007994D01*
X151239010Y-146956990D02*
X158310014Y-146956990D01*
X150114000Y-148082000D02*
X151239010Y-146956990D01*
%TO.N,Net-(R6-Pad1)*%
X157988000Y-140462000D02*
X161798000Y-136652000D01*
X157734000Y-140462000D02*
X157988000Y-140462000D01*
X161798000Y-121920000D02*
X155448000Y-115570000D01*
X161798000Y-136652000D02*
X161798000Y-121920000D01*
%TO.N,Net-(R7-Pad1)*%
X156608990Y-139047010D02*
X157734000Y-137922000D01*
X147718990Y-139047010D02*
X156608990Y-139047010D01*
X146304000Y-140462000D02*
X147718990Y-139047010D01*
X153328602Y-115570000D02*
X151892000Y-115570000D01*
X159259010Y-121500408D02*
X153328602Y-115570000D01*
X159259010Y-136396990D02*
X159259010Y-121500408D01*
X157734000Y-137922000D02*
X159259010Y-136396990D01*
%TO.N,Net-(R10-Pad1)*%
X146304000Y-154432000D02*
X150114000Y-150622000D01*
X146304000Y-158242000D02*
X146304000Y-154432000D01*
X162669010Y-151747010D02*
X165354000Y-154432000D01*
X151239010Y-151747010D02*
X162669010Y-151747010D01*
X150114000Y-150622000D02*
X151239010Y-151747010D01*
%TO.N,Net-(R11-Pad1)*%
X160528000Y-148082000D02*
X161798000Y-146812000D01*
X157734000Y-148082000D02*
X160528000Y-148082000D01*
X161798000Y-146812000D02*
X165354000Y-146812000D01*
%TO.N,Net-(U1-Pad6)*%
X158242000Y-93980000D02*
X158242000Y-91440000D01*
%TD*%
D25*
%TO.N,GND*%
X155014857Y-65692645D02*
X154645521Y-65939427D01*
X154331427Y-66253521D01*
X154084645Y-66622857D01*
X153914658Y-67033241D01*
X153828000Y-67468902D01*
X153828000Y-67913098D01*
X153914658Y-68348759D01*
X154084645Y-68759143D01*
X154331427Y-69128479D01*
X154645521Y-69442573D01*
X155014857Y-69689355D01*
X155425241Y-69859342D01*
X155860902Y-69946000D01*
X156305098Y-69946000D01*
X156740759Y-69859342D01*
X157151143Y-69689355D01*
X157520479Y-69442573D01*
X157834573Y-69128479D01*
X158081355Y-68759143D01*
X158251342Y-68348759D01*
X158338000Y-67913098D01*
X158338000Y-67468902D01*
X158251342Y-67033241D01*
X158081355Y-66622857D01*
X157834573Y-66253521D01*
X157520479Y-65939427D01*
X157151143Y-65692645D01*
X157132686Y-65685000D01*
X169315000Y-65685000D01*
X169315001Y-159315000D01*
X147260396Y-159315000D01*
X147418637Y-159156759D01*
X147575680Y-158921727D01*
X147683853Y-158660574D01*
X147739000Y-158383335D01*
X147739000Y-158100665D01*
X147683853Y-157823426D01*
X147575680Y-157562273D01*
X147418637Y-157327241D01*
X147218759Y-157127363D01*
X147064000Y-157023957D01*
X147064000Y-155052665D01*
X149949000Y-155052665D01*
X149949000Y-155335335D01*
X150004147Y-155612574D01*
X150112320Y-155873727D01*
X150269363Y-156108759D01*
X150469241Y-156308637D01*
X150704273Y-156465680D01*
X150965426Y-156573853D01*
X151242665Y-156629000D01*
X151525335Y-156629000D01*
X151802574Y-156573853D01*
X152063727Y-156465680D01*
X152298759Y-156308637D01*
X152420694Y-156186702D01*
X155570903Y-156186702D01*
X155642486Y-156430671D01*
X155897996Y-156551571D01*
X156172184Y-156620300D01*
X156454512Y-156634217D01*
X156734130Y-156592787D01*
X157000292Y-156497603D01*
X157125514Y-156430671D01*
X157197097Y-156186702D01*
X156384000Y-155373605D01*
X155570903Y-156186702D01*
X152420694Y-156186702D01*
X152498637Y-156108759D01*
X152655680Y-155873727D01*
X152763853Y-155612574D01*
X152819000Y-155335335D01*
X152819000Y-155264512D01*
X154943783Y-155264512D01*
X154985213Y-155544130D01*
X155080397Y-155810292D01*
X155147329Y-155935514D01*
X155391298Y-156007097D01*
X156204395Y-155194000D01*
X156563605Y-155194000D01*
X157376702Y-156007097D01*
X157620671Y-155935514D01*
X157741571Y-155680004D01*
X157810300Y-155405816D01*
X157824217Y-155123488D01*
X157782787Y-154843870D01*
X157687603Y-154577708D01*
X157620671Y-154452486D01*
X157376702Y-154380903D01*
X156563605Y-155194000D01*
X156204395Y-155194000D01*
X155391298Y-154380903D01*
X155147329Y-154452486D01*
X155026429Y-154707996D01*
X154957700Y-154982184D01*
X154943783Y-155264512D01*
X152819000Y-155264512D01*
X152819000Y-155052665D01*
X152763853Y-154775426D01*
X152655680Y-154514273D01*
X152498637Y-154279241D01*
X152420694Y-154201298D01*
X155570903Y-154201298D01*
X156384000Y-155014395D01*
X157197097Y-154201298D01*
X157125514Y-153957329D01*
X156870004Y-153836429D01*
X156595816Y-153767700D01*
X156313488Y-153753783D01*
X156033870Y-153795213D01*
X155767708Y-153890397D01*
X155642486Y-153957329D01*
X155570903Y-154201298D01*
X152420694Y-154201298D01*
X152298759Y-154079363D01*
X152063727Y-153922320D01*
X151802574Y-153814147D01*
X151525335Y-153759000D01*
X151242665Y-153759000D01*
X150965426Y-153814147D01*
X150704273Y-153922320D01*
X150469241Y-154079363D01*
X150269363Y-154279241D01*
X150112320Y-154514273D01*
X150004147Y-154775426D01*
X149949000Y-155052665D01*
X147064000Y-155052665D01*
X147064000Y-154746801D01*
X149753802Y-152057000D01*
X150474197Y-152057000D01*
X150675215Y-152258018D01*
X150699009Y-152287011D01*
X150728002Y-152310805D01*
X150728006Y-152310809D01*
X150798695Y-152368821D01*
X150814734Y-152381984D01*
X150946763Y-152452556D01*
X151090024Y-152496013D01*
X151201677Y-152507010D01*
X151201686Y-152507010D01*
X151239009Y-152510686D01*
X151276332Y-152507010D01*
X162354209Y-152507010D01*
X163955312Y-154108114D01*
X163919000Y-154290665D01*
X163919000Y-154573335D01*
X163963491Y-154797001D01*
X163237803Y-154797001D01*
X163196688Y-154755886D01*
X163233000Y-154573335D01*
X163233000Y-154290665D01*
X163177853Y-154013426D01*
X163069680Y-153752273D01*
X162912637Y-153517241D01*
X162712759Y-153317363D01*
X162477727Y-153160320D01*
X162216574Y-153052147D01*
X161939335Y-152997000D01*
X161656665Y-152997000D01*
X161379426Y-153052147D01*
X161118273Y-153160320D01*
X160883241Y-153317363D01*
X160683363Y-153517241D01*
X160526320Y-153752273D01*
X160418147Y-154013426D01*
X160363000Y-154290665D01*
X160363000Y-154573335D01*
X160418147Y-154850574D01*
X160526320Y-155111727D01*
X160683363Y-155346759D01*
X160883241Y-155546637D01*
X161118273Y-155703680D01*
X161379426Y-155811853D01*
X161656665Y-155867000D01*
X161939335Y-155867000D01*
X162121886Y-155830688D01*
X162359202Y-156068004D01*
X162383000Y-156097002D01*
X162498725Y-156191975D01*
X162630754Y-156262547D01*
X162774015Y-156306004D01*
X162885668Y-156317001D01*
X162885676Y-156317001D01*
X162923001Y-156320677D01*
X162960326Y-156317001D01*
X165856679Y-156317001D01*
X165894001Y-156320677D01*
X165931323Y-156317001D01*
X165931334Y-156317001D01*
X166042987Y-156306004D01*
X166186248Y-156262547D01*
X166318277Y-156191975D01*
X166434002Y-156097002D01*
X166457804Y-156067999D01*
X166990005Y-155535799D01*
X167019002Y-155512002D01*
X167045333Y-155479918D01*
X167113975Y-155396278D01*
X167184547Y-155264248D01*
X167184547Y-155264247D01*
X167228004Y-155120987D01*
X167239001Y-155009334D01*
X167239001Y-155009324D01*
X167242677Y-154972001D01*
X167239001Y-154934678D01*
X167239001Y-153929322D01*
X167242677Y-153891999D01*
X167239001Y-153854676D01*
X167239001Y-153854666D01*
X167228004Y-153743013D01*
X167184547Y-153599752D01*
X167113975Y-153467722D01*
X167042800Y-153380996D01*
X167019002Y-153351998D01*
X166990004Y-153328200D01*
X164283803Y-150622000D01*
X166990005Y-147915799D01*
X167019002Y-147892002D01*
X167045333Y-147859918D01*
X167113975Y-147776278D01*
X167184547Y-147644248D01*
X167200407Y-147591964D01*
X167228004Y-147500987D01*
X167239001Y-147389334D01*
X167239001Y-147389324D01*
X167242677Y-147352001D01*
X167239001Y-147314678D01*
X167239001Y-126638323D01*
X167242677Y-126601000D01*
X167239001Y-126563677D01*
X167239001Y-126563668D01*
X167228004Y-126452015D01*
X167184547Y-126308754D01*
X167165961Y-126273983D01*
X167113975Y-126176724D01*
X167042800Y-126089998D01*
X167019002Y-126061000D01*
X166990004Y-126037202D01*
X166243002Y-125290201D01*
X166243002Y-125272156D01*
X166472890Y-125393476D01*
X166620099Y-125348825D01*
X166882920Y-125223641D01*
X167116269Y-125049588D01*
X167311178Y-124833355D01*
X167460157Y-124583252D01*
X167557481Y-124308891D01*
X167436814Y-124079000D01*
X166243000Y-124079000D01*
X166243000Y-124099000D01*
X165989000Y-124099000D01*
X165989000Y-124079000D01*
X165969000Y-124079000D01*
X165969000Y-123825000D01*
X165989000Y-123825000D01*
X165989000Y-122631845D01*
X166243000Y-122631845D01*
X166243000Y-123825000D01*
X167436814Y-123825000D01*
X167557481Y-123595109D01*
X167460157Y-123320748D01*
X167311178Y-123070645D01*
X167116269Y-122854412D01*
X166882920Y-122680359D01*
X166620099Y-122555175D01*
X166472890Y-122510524D01*
X166243000Y-122631845D01*
X165989000Y-122631845D01*
X165759110Y-122510524D01*
X165611901Y-122555175D01*
X165511001Y-122603235D01*
X165511001Y-120982765D01*
X165611901Y-121030825D01*
X165759110Y-121075476D01*
X165989000Y-120954155D01*
X165989000Y-119761000D01*
X166243000Y-119761000D01*
X166243000Y-120954155D01*
X166472890Y-121075476D01*
X166620099Y-121030825D01*
X166882920Y-120905641D01*
X167116269Y-120731588D01*
X167311178Y-120515355D01*
X167460157Y-120265252D01*
X167557481Y-119990891D01*
X167436814Y-119761000D01*
X166243000Y-119761000D01*
X165989000Y-119761000D01*
X165969000Y-119761000D01*
X165969000Y-119507000D01*
X165989000Y-119507000D01*
X165989000Y-118313845D01*
X166243000Y-118313845D01*
X166243000Y-119507000D01*
X167436814Y-119507000D01*
X167557481Y-119277109D01*
X167460157Y-119002748D01*
X167311178Y-118752645D01*
X167116269Y-118536412D01*
X166882920Y-118362359D01*
X166620099Y-118237175D01*
X166472890Y-118192524D01*
X166243000Y-118313845D01*
X165989000Y-118313845D01*
X165759110Y-118192524D01*
X165611901Y-118237175D01*
X165349080Y-118362359D01*
X165115731Y-118536412D01*
X165039966Y-118620466D01*
X165015502Y-118539820D01*
X164956537Y-118429506D01*
X164877185Y-118332815D01*
X164780494Y-118253463D01*
X164670180Y-118194498D01*
X164550482Y-118158188D01*
X164426000Y-118145928D01*
X162726000Y-118145928D01*
X162601518Y-118158188D01*
X162481820Y-118194498D01*
X162371506Y-118253463D01*
X162274815Y-118332815D01*
X162195463Y-118429506D01*
X162136498Y-118539820D01*
X162100188Y-118659518D01*
X162087928Y-118784000D01*
X162087928Y-119470124D01*
X152002803Y-109385000D01*
X152033335Y-109385000D01*
X152215887Y-109348688D01*
X158948200Y-116081002D01*
X158971999Y-116110001D01*
X159087724Y-116204974D01*
X159219753Y-116275546D01*
X159363014Y-116319003D01*
X159512000Y-116333677D01*
X159549333Y-116330000D01*
X162087928Y-116330000D01*
X162087928Y-116420000D01*
X162100188Y-116544482D01*
X162136498Y-116664180D01*
X162195463Y-116774494D01*
X162274815Y-116871185D01*
X162371506Y-116950537D01*
X162481820Y-117009502D01*
X162601518Y-117045812D01*
X162726000Y-117058072D01*
X164426000Y-117058072D01*
X164550482Y-117045812D01*
X164670180Y-117009502D01*
X164780494Y-116950537D01*
X164877185Y-116871185D01*
X164956537Y-116774494D01*
X165015502Y-116664180D01*
X165039966Y-116583534D01*
X165115731Y-116667588D01*
X165349080Y-116841641D01*
X165611901Y-116966825D01*
X165759110Y-117011476D01*
X165989000Y-116890155D01*
X165989000Y-115697000D01*
X166243000Y-115697000D01*
X166243000Y-116890155D01*
X166472890Y-117011476D01*
X166620099Y-116966825D01*
X166882920Y-116841641D01*
X167116269Y-116667588D01*
X167311178Y-116451355D01*
X167460157Y-116201252D01*
X167557481Y-115926891D01*
X167436814Y-115697000D01*
X166243000Y-115697000D01*
X165989000Y-115697000D01*
X165969000Y-115697000D01*
X165969000Y-115443000D01*
X165989000Y-115443000D01*
X165989000Y-114249845D01*
X166243000Y-114249845D01*
X166243000Y-115443000D01*
X167436814Y-115443000D01*
X167557481Y-115213109D01*
X167460157Y-114938748D01*
X167311178Y-114688645D01*
X167116269Y-114472412D01*
X166882920Y-114298359D01*
X166620099Y-114173175D01*
X166472890Y-114128524D01*
X166243000Y-114249845D01*
X165989000Y-114249845D01*
X165759110Y-114128524D01*
X165611901Y-114173175D01*
X165349080Y-114298359D01*
X165115731Y-114472412D01*
X165039966Y-114556466D01*
X165015502Y-114475820D01*
X164956537Y-114365506D01*
X164877185Y-114268815D01*
X164780494Y-114189463D01*
X164670180Y-114130498D01*
X164550482Y-114094188D01*
X164426000Y-114081928D01*
X162726000Y-114081928D01*
X162601518Y-114094188D01*
X162481820Y-114130498D01*
X162371506Y-114189463D01*
X162274815Y-114268815D01*
X162195463Y-114365506D01*
X162136498Y-114475820D01*
X162100188Y-114595518D01*
X162087928Y-114720000D01*
X162087928Y-114810000D01*
X160272000Y-114810000D01*
X160272000Y-110452000D01*
X164423928Y-110452000D01*
X164423928Y-112052000D01*
X164436188Y-112176482D01*
X164472498Y-112296180D01*
X164531463Y-112406494D01*
X164610815Y-112503185D01*
X164707506Y-112582537D01*
X164817820Y-112641502D01*
X164937518Y-112677812D01*
X165062000Y-112690072D01*
X166662000Y-112690072D01*
X166786482Y-112677812D01*
X166906180Y-112641502D01*
X167016494Y-112582537D01*
X167113185Y-112503185D01*
X167192537Y-112406494D01*
X167251502Y-112296180D01*
X167287812Y-112176482D01*
X167300072Y-112052000D01*
X167300072Y-110452000D01*
X167287812Y-110327518D01*
X167251502Y-110207820D01*
X167192537Y-110097506D01*
X167113185Y-110000815D01*
X167016494Y-109921463D01*
X166906180Y-109862498D01*
X166786482Y-109826188D01*
X166662000Y-109813928D01*
X166654785Y-109813928D01*
X166675097Y-109744702D01*
X165862000Y-108931605D01*
X165048903Y-109744702D01*
X165069215Y-109813928D01*
X165062000Y-109813928D01*
X164937518Y-109826188D01*
X164817820Y-109862498D01*
X164707506Y-109921463D01*
X164610815Y-110000815D01*
X164531463Y-110097506D01*
X164472498Y-110207820D01*
X164436188Y-110327518D01*
X164423928Y-110452000D01*
X160272000Y-110452000D01*
X160272000Y-108822512D01*
X164421783Y-108822512D01*
X164463213Y-109102130D01*
X164558397Y-109368292D01*
X164625329Y-109493514D01*
X164869298Y-109565097D01*
X165682395Y-108752000D01*
X166041605Y-108752000D01*
X166854702Y-109565097D01*
X167098671Y-109493514D01*
X167219571Y-109238004D01*
X167288300Y-108963816D01*
X167302217Y-108681488D01*
X167260787Y-108401870D01*
X167165603Y-108135708D01*
X167098671Y-108010486D01*
X166854702Y-107938903D01*
X166041605Y-108752000D01*
X165682395Y-108752000D01*
X164869298Y-107938903D01*
X164625329Y-108010486D01*
X164504429Y-108265996D01*
X164435700Y-108540184D01*
X164421783Y-108822512D01*
X160272000Y-108822512D01*
X160272000Y-107759298D01*
X165048903Y-107759298D01*
X165862000Y-108572395D01*
X166675097Y-107759298D01*
X166603514Y-107515329D01*
X166348004Y-107394429D01*
X166073816Y-107325700D01*
X165791488Y-107311783D01*
X165511870Y-107353213D01*
X165245708Y-107448397D01*
X165120486Y-107515329D01*
X165048903Y-107759298D01*
X160272000Y-107759298D01*
X160272000Y-105706338D01*
X160275676Y-105669015D01*
X160272000Y-105631692D01*
X160272000Y-105631683D01*
X160261003Y-105520030D01*
X160217546Y-105376769D01*
X160146974Y-105244740D01*
X160133811Y-105228701D01*
X160075799Y-105158012D01*
X160075795Y-105158008D01*
X160052001Y-105129015D01*
X160023008Y-105105221D01*
X156936792Y-102019006D01*
X157042512Y-102024217D01*
X157322130Y-101982787D01*
X157588292Y-101887603D01*
X157713514Y-101820671D01*
X157785097Y-101576702D01*
X156972000Y-100763605D01*
X156957858Y-100777748D01*
X156778253Y-100598143D01*
X156792395Y-100584000D01*
X157151605Y-100584000D01*
X157964702Y-101397097D01*
X158208671Y-101325514D01*
X158329571Y-101070004D01*
X158398300Y-100795816D01*
X158412217Y-100513488D01*
X158370787Y-100233870D01*
X158275603Y-99967708D01*
X158208671Y-99842486D01*
X157964702Y-99770903D01*
X157151605Y-100584000D01*
X156792395Y-100584000D01*
X155979298Y-99770903D01*
X155735329Y-99842486D01*
X155614429Y-100097996D01*
X155545700Y-100372184D01*
X155533686Y-100615901D01*
X154509083Y-99591298D01*
X156158903Y-99591298D01*
X156972000Y-100404395D01*
X157785097Y-99591298D01*
X157713514Y-99347329D01*
X157458004Y-99226429D01*
X157183816Y-99157700D01*
X156901488Y-99143783D01*
X156621870Y-99185213D01*
X156355708Y-99280397D01*
X156230486Y-99347329D01*
X156158903Y-99591298D01*
X154509083Y-99591298D01*
X152907001Y-97989216D01*
X152907001Y-97932681D01*
X152925744Y-97945205D01*
X153114102Y-98023226D01*
X153314061Y-98063000D01*
X153517939Y-98063000D01*
X153717898Y-98023226D01*
X153906256Y-97945205D01*
X154075774Y-97831937D01*
X154219937Y-97687774D01*
X154333205Y-97518256D01*
X154411226Y-97329898D01*
X154451000Y-97129939D01*
X154451000Y-96926061D01*
X154439658Y-96869039D01*
X156450096Y-96869039D01*
X156467633Y-96951818D01*
X156578285Y-97211646D01*
X156737500Y-97444895D01*
X156939161Y-97642601D01*
X157175517Y-97797166D01*
X157437486Y-97902650D01*
X157715000Y-97955000D01*
X158115000Y-97955000D01*
X158115000Y-96647000D01*
X158369000Y-96647000D01*
X158369000Y-97955000D01*
X158769000Y-97955000D01*
X159046514Y-97902650D01*
X159308483Y-97797166D01*
X159544839Y-97642601D01*
X159746500Y-97444895D01*
X159905715Y-97211646D01*
X159938611Y-97134401D01*
X162077400Y-97134401D01*
X162077400Y-97429599D01*
X162134990Y-97719125D01*
X162247958Y-97991853D01*
X162411961Y-98237302D01*
X162620698Y-98446039D01*
X162866147Y-98610042D01*
X163138875Y-98723010D01*
X163428401Y-98780600D01*
X163723599Y-98780600D01*
X164013125Y-98723010D01*
X164285853Y-98610042D01*
X164531302Y-98446039D01*
X164740039Y-98237302D01*
X164846000Y-98078719D01*
X164951961Y-98237302D01*
X165160698Y-98446039D01*
X165406147Y-98610042D01*
X165678875Y-98723010D01*
X165968401Y-98780600D01*
X166263599Y-98780600D01*
X166553125Y-98723010D01*
X166825853Y-98610042D01*
X167071302Y-98446039D01*
X167280039Y-98237302D01*
X167444042Y-97991853D01*
X167557010Y-97719125D01*
X167614600Y-97429599D01*
X167614600Y-97134401D01*
X167557010Y-96844875D01*
X167444042Y-96572147D01*
X167280039Y-96326698D01*
X167071302Y-96117961D01*
X166905897Y-96007441D01*
X167004488Y-95948817D01*
X167222854Y-95752293D01*
X167398684Y-95516944D01*
X167525222Y-95251814D01*
X167570958Y-95101026D01*
X167449817Y-94869000D01*
X166243000Y-94869000D01*
X166243000Y-94889000D01*
X165989000Y-94889000D01*
X165989000Y-94869000D01*
X163703000Y-94869000D01*
X163703000Y-94889000D01*
X163449000Y-94889000D01*
X163449000Y-94869000D01*
X162242183Y-94869000D01*
X162121042Y-95101026D01*
X162166778Y-95251814D01*
X162293316Y-95516944D01*
X162469146Y-95752293D01*
X162687512Y-95948817D01*
X162786103Y-96007441D01*
X162620698Y-96117961D01*
X162411961Y-96326698D01*
X162247958Y-96572147D01*
X162134990Y-96844875D01*
X162077400Y-97134401D01*
X159938611Y-97134401D01*
X160016367Y-96951818D01*
X160033904Y-96869039D01*
X159911915Y-96647000D01*
X158369000Y-96647000D01*
X158115000Y-96647000D01*
X156572085Y-96647000D01*
X156450096Y-96869039D01*
X154439658Y-96869039D01*
X154411226Y-96726102D01*
X154333205Y-96537744D01*
X154251000Y-96414715D01*
X154251000Y-94514797D01*
X156601836Y-92163962D01*
X156643068Y-92241101D01*
X156822392Y-92459608D01*
X157040899Y-92638932D01*
X157173858Y-92710000D01*
X157040899Y-92781068D01*
X156822392Y-92960392D01*
X156643068Y-93178899D01*
X156509818Y-93428192D01*
X156427764Y-93698691D01*
X156400057Y-93980000D01*
X156427764Y-94261309D01*
X156509818Y-94531808D01*
X156643068Y-94781101D01*
X156822392Y-94999608D01*
X157040899Y-95178932D01*
X157168741Y-95247265D01*
X156939161Y-95397399D01*
X156737500Y-95595105D01*
X156578285Y-95828354D01*
X156467633Y-96088182D01*
X156450096Y-96170961D01*
X156572085Y-96393000D01*
X158115000Y-96393000D01*
X158115000Y-96373000D01*
X158369000Y-96373000D01*
X158369000Y-96393000D01*
X159911915Y-96393000D01*
X160033904Y-96170961D01*
X160016367Y-96088182D01*
X159905715Y-95828354D01*
X159746500Y-95595105D01*
X159544839Y-95397399D01*
X159315259Y-95247265D01*
X159443101Y-95178932D01*
X159661608Y-94999608D01*
X159840932Y-94781101D01*
X159974182Y-94531808D01*
X160056236Y-94261309D01*
X160083943Y-93980000D01*
X160056236Y-93698691D01*
X159974182Y-93428192D01*
X159840932Y-93178899D01*
X159661608Y-92960392D01*
X159443101Y-92781068D01*
X159310142Y-92710000D01*
X159443101Y-92638932D01*
X159538029Y-92561026D01*
X162121042Y-92561026D01*
X162166778Y-92711814D01*
X162293316Y-92976944D01*
X162469146Y-93212293D01*
X162687512Y-93408817D01*
X162793770Y-93472000D01*
X162687512Y-93535183D01*
X162469146Y-93731707D01*
X162293316Y-93967056D01*
X162166778Y-94232186D01*
X162121042Y-94382974D01*
X162242183Y-94615000D01*
X163449000Y-94615000D01*
X163449000Y-92329000D01*
X163703000Y-92329000D01*
X163703000Y-94615000D01*
X165989000Y-94615000D01*
X165989000Y-92329000D01*
X166243000Y-92329000D01*
X166243000Y-94615000D01*
X167449817Y-94615000D01*
X167570958Y-94382974D01*
X167525222Y-94232186D01*
X167398684Y-93967056D01*
X167222854Y-93731707D01*
X167004488Y-93535183D01*
X166898230Y-93472000D01*
X167004488Y-93408817D01*
X167222854Y-93212293D01*
X167398684Y-92976944D01*
X167525222Y-92711814D01*
X167570958Y-92561026D01*
X167449817Y-92329000D01*
X166243000Y-92329000D01*
X165989000Y-92329000D01*
X163703000Y-92329000D01*
X163449000Y-92329000D01*
X162242183Y-92329000D01*
X162121042Y-92561026D01*
X159538029Y-92561026D01*
X159661608Y-92459608D01*
X159840932Y-92241101D01*
X159974182Y-91991808D01*
X160056236Y-91721309D01*
X160083943Y-91440000D01*
X160056236Y-91158691D01*
X160030846Y-91074990D01*
X160416992Y-91074990D01*
X160458010Y-91079030D01*
X160499028Y-91074990D01*
X160499029Y-91074990D01*
X160621699Y-91062908D01*
X160779097Y-91015162D01*
X160924156Y-90937626D01*
X161051301Y-90833281D01*
X161077456Y-90801411D01*
X162089866Y-89789002D01*
X162242182Y-89789002D01*
X162121042Y-90021026D01*
X162166778Y-90171814D01*
X162293316Y-90436944D01*
X162469146Y-90672293D01*
X162687512Y-90868817D01*
X162793770Y-90932000D01*
X162687512Y-90995183D01*
X162469146Y-91191707D01*
X162293316Y-91427056D01*
X162166778Y-91692186D01*
X162121042Y-91842974D01*
X162242183Y-92075000D01*
X163449000Y-92075000D01*
X163449000Y-89789000D01*
X163703000Y-89789000D01*
X163703000Y-92075000D01*
X165989000Y-92075000D01*
X165989000Y-89789000D01*
X166243000Y-89789000D01*
X166243000Y-92075000D01*
X167449817Y-92075000D01*
X167570958Y-91842974D01*
X167525222Y-91692186D01*
X167398684Y-91427056D01*
X167222854Y-91191707D01*
X167004488Y-90995183D01*
X166898230Y-90932000D01*
X167004488Y-90868817D01*
X167222854Y-90672293D01*
X167398684Y-90436944D01*
X167525222Y-90171814D01*
X167570958Y-90021026D01*
X167449817Y-89789000D01*
X166243000Y-89789000D01*
X165989000Y-89789000D01*
X163703000Y-89789000D01*
X163449000Y-89789000D01*
X163429000Y-89789000D01*
X163429000Y-89535000D01*
X163449000Y-89535000D01*
X163449000Y-89515000D01*
X163703000Y-89515000D01*
X163703000Y-89535000D01*
X165989000Y-89535000D01*
X165989000Y-89515000D01*
X166243000Y-89515000D01*
X166243000Y-89535000D01*
X167449817Y-89535000D01*
X167570958Y-89302974D01*
X167525222Y-89152186D01*
X167398684Y-88887056D01*
X167222854Y-88651707D01*
X167004488Y-88455183D01*
X166905897Y-88396559D01*
X167071302Y-88286039D01*
X167280039Y-88077302D01*
X167444042Y-87831853D01*
X167557010Y-87559125D01*
X167614600Y-87269599D01*
X167614600Y-86974401D01*
X167557010Y-86684875D01*
X167444042Y-86412147D01*
X167280039Y-86166698D01*
X167071302Y-85957961D01*
X166825853Y-85793958D01*
X166553125Y-85680990D01*
X166263599Y-85623400D01*
X165968401Y-85623400D01*
X165678875Y-85680990D01*
X165406147Y-85793958D01*
X165160698Y-85957961D01*
X165046636Y-86072023D01*
X165029102Y-86014220D01*
X164970137Y-85903906D01*
X164890785Y-85807215D01*
X164794094Y-85727863D01*
X164683780Y-85668898D01*
X164564082Y-85632588D01*
X164439600Y-85620328D01*
X162712400Y-85620328D01*
X162587918Y-85632588D01*
X162468220Y-85668898D01*
X162357906Y-85727863D01*
X162261215Y-85807215D01*
X162181863Y-85903906D01*
X162122898Y-86014220D01*
X162086588Y-86133918D01*
X162074328Y-86258400D01*
X162074328Y-87442804D01*
X160112143Y-89404990D01*
X159988384Y-89404990D01*
X160056236Y-89181309D01*
X160083943Y-88900000D01*
X160056236Y-88618691D01*
X159974182Y-88348192D01*
X159840932Y-88098899D01*
X159661608Y-87880392D01*
X159443101Y-87701068D01*
X159193808Y-87567818D01*
X158923309Y-87485764D01*
X158712492Y-87465000D01*
X157771508Y-87465000D01*
X157560691Y-87485764D01*
X157290192Y-87567818D01*
X157040899Y-87701068D01*
X156822392Y-87880392D01*
X156643068Y-88098899D01*
X156509818Y-88348192D01*
X156427764Y-88618691D01*
X156400057Y-88900000D01*
X156427764Y-89181309D01*
X156509818Y-89451808D01*
X156643068Y-89701101D01*
X156670065Y-89733997D01*
X152907001Y-93497062D01*
X152907001Y-87877322D01*
X152910677Y-87839999D01*
X152907001Y-87802677D01*
X152907001Y-87802666D01*
X152896004Y-87691013D01*
X152852547Y-87547752D01*
X152781975Y-87415723D01*
X152687002Y-87299998D01*
X152657998Y-87276195D01*
X152645805Y-87264002D01*
X152622002Y-87234998D01*
X152506277Y-87140025D01*
X152374248Y-87069453D01*
X152230987Y-87025996D01*
X152119334Y-87014999D01*
X152119323Y-87014999D01*
X152082001Y-87011323D01*
X152044679Y-87014999D01*
X149199322Y-87014999D01*
X149161999Y-87011323D01*
X149124677Y-87014999D01*
X149124666Y-87014999D01*
X149013013Y-87025996D01*
X148869752Y-87069453D01*
X148737723Y-87140025D01*
X148621998Y-87234998D01*
X148598195Y-87264002D01*
X148586002Y-87276195D01*
X148556998Y-87299998D01*
X148501870Y-87367173D01*
X148462025Y-87415723D01*
X148406209Y-87520147D01*
X148391453Y-87547753D01*
X148347996Y-87691014D01*
X148336999Y-87802667D01*
X148336999Y-87802677D01*
X148333323Y-87839999D01*
X148336999Y-87877322D01*
X148337000Y-89645198D01*
X145249955Y-92732244D01*
X145185774Y-92668063D01*
X145016256Y-92554795D01*
X144827898Y-92476774D01*
X144627939Y-92437000D01*
X144424061Y-92437000D01*
X144224102Y-92476774D01*
X144035744Y-92554795D01*
X143866226Y-92668063D01*
X143722063Y-92812226D01*
X143608795Y-92981744D01*
X143530774Y-93170102D01*
X143491000Y-93370061D01*
X143491000Y-93432198D01*
X141119987Y-95803212D01*
X141090989Y-95827010D01*
X141067191Y-95856008D01*
X141067190Y-95856009D01*
X140996015Y-95942735D01*
X140925443Y-96074765D01*
X140905660Y-96139984D01*
X140883717Y-96212324D01*
X140881987Y-96218026D01*
X140867313Y-96367011D01*
X140870990Y-96404344D01*
X140870989Y-121401079D01*
X140867313Y-121438401D01*
X140870989Y-121475723D01*
X140870989Y-121475733D01*
X140881986Y-121587386D01*
X140925443Y-121730647D01*
X140996015Y-121862677D01*
X141015956Y-121886975D01*
X141090988Y-121978402D01*
X141119992Y-122002205D01*
X141395794Y-122278007D01*
X141419597Y-122307011D01*
X141535322Y-122401984D01*
X141667351Y-122472556D01*
X141810612Y-122516013D01*
X141922265Y-122527010D01*
X141922274Y-122527010D01*
X141959597Y-122530686D01*
X141996920Y-122527010D01*
X144719207Y-122527010D01*
X146258864Y-124066668D01*
X146152890Y-124034524D01*
X145923000Y-124155845D01*
X145923000Y-125349000D01*
X145943000Y-125349000D01*
X145943000Y-125603000D01*
X145923000Y-125603000D01*
X145923000Y-126796155D01*
X146152890Y-126917476D01*
X146300099Y-126872825D01*
X146562920Y-126747641D01*
X146796269Y-126573588D01*
X146991178Y-126357355D01*
X147068276Y-126227925D01*
X147113989Y-126457743D01*
X147134042Y-126506155D01*
X145792998Y-127847199D01*
X145764000Y-127870997D01*
X145740202Y-127899995D01*
X145740201Y-127899996D01*
X145669026Y-127986722D01*
X145598454Y-128118752D01*
X145568180Y-128218556D01*
X145558229Y-128251363D01*
X145554998Y-128262013D01*
X145540324Y-128410998D01*
X145544001Y-128448330D01*
X145544001Y-128829956D01*
X145389241Y-128933363D01*
X145189363Y-129133241D01*
X145032320Y-129368273D01*
X144924147Y-129629426D01*
X144869000Y-129906665D01*
X144869000Y-130189335D01*
X144924147Y-130466574D01*
X145032320Y-130727727D01*
X145189363Y-130962759D01*
X145389241Y-131162637D01*
X145624273Y-131319680D01*
X145885426Y-131427853D01*
X146162665Y-131483000D01*
X146445335Y-131483000D01*
X146722574Y-131427853D01*
X146983727Y-131319680D01*
X147218759Y-131162637D01*
X147418637Y-130962759D01*
X147575680Y-130727727D01*
X147683853Y-130466574D01*
X147739000Y-130189335D01*
X147739000Y-130047827D01*
X148304250Y-130045000D01*
X148463000Y-129886250D01*
X148463000Y-128637000D01*
X148443000Y-128637000D01*
X148443000Y-128383000D01*
X148463000Y-128383000D01*
X148463000Y-128363000D01*
X148717000Y-128363000D01*
X148717000Y-128383000D01*
X148737000Y-128383000D01*
X148737000Y-128637000D01*
X148717000Y-128637000D01*
X148717000Y-129886250D01*
X148875750Y-130045000D01*
X149055001Y-130045896D01*
X149055001Y-132781195D01*
X148143006Y-133693191D01*
X148142995Y-133693200D01*
X148142991Y-133693204D01*
X148113998Y-133716998D01*
X148090204Y-133745991D01*
X145793003Y-136043194D01*
X145763999Y-136066997D01*
X145711472Y-136131002D01*
X145669026Y-136182722D01*
X145612675Y-136288147D01*
X145598454Y-136314752D01*
X145560858Y-136438693D01*
X145389241Y-136553363D01*
X145189363Y-136753241D01*
X145085957Y-136908000D01*
X143966043Y-136908000D01*
X143862637Y-136753241D01*
X143662759Y-136553363D01*
X143427727Y-136396320D01*
X143166574Y-136288147D01*
X142889335Y-136233000D01*
X142606665Y-136233000D01*
X142382999Y-136277491D01*
X142382999Y-131487802D01*
X142424113Y-131446688D01*
X142606665Y-131483000D01*
X142889335Y-131483000D01*
X143166574Y-131427853D01*
X143427727Y-131319680D01*
X143662759Y-131162637D01*
X143862637Y-130962759D01*
X144019680Y-130727727D01*
X144127853Y-130466574D01*
X144183000Y-130189335D01*
X144183000Y-129906665D01*
X144127853Y-129629426D01*
X144019680Y-129368273D01*
X143862637Y-129133241D01*
X143662759Y-128933363D01*
X143427727Y-128776320D01*
X143166574Y-128668147D01*
X142889335Y-128613000D01*
X142606665Y-128613000D01*
X142329426Y-128668147D01*
X142068273Y-128776320D01*
X141833241Y-128933363D01*
X141633363Y-129133241D01*
X141476320Y-129368273D01*
X141368147Y-129629426D01*
X141313000Y-129906665D01*
X141313000Y-130189335D01*
X141349312Y-130371887D01*
X141111997Y-130609202D01*
X141082999Y-130633000D01*
X141059201Y-130661998D01*
X141059200Y-130661999D01*
X140988025Y-130748725D01*
X140917453Y-130880755D01*
X140873997Y-131024016D01*
X140859323Y-131173001D01*
X140863000Y-131210333D01*
X140862999Y-138170678D01*
X140859323Y-138208001D01*
X140862999Y-138245323D01*
X140862999Y-138245333D01*
X140873996Y-138356986D01*
X140909433Y-138473808D01*
X140917453Y-138500247D01*
X140988025Y-138632277D01*
X141019806Y-138671002D01*
X141082998Y-138748002D01*
X141112001Y-138771804D01*
X141644199Y-139304003D01*
X141667998Y-139333002D01*
X141696996Y-139356800D01*
X141766644Y-139413960D01*
X141633363Y-139547241D01*
X141476320Y-139782273D01*
X141368147Y-140043426D01*
X141313000Y-140320665D01*
X141313000Y-140603335D01*
X141368147Y-140880574D01*
X141476320Y-141141727D01*
X141633363Y-141376759D01*
X141833241Y-141576637D01*
X142068273Y-141733680D01*
X142329426Y-141841853D01*
X142606665Y-141897000D01*
X142889335Y-141897000D01*
X143071886Y-141860688D01*
X145544001Y-144332804D01*
X145544000Y-146863956D01*
X145389241Y-146967363D01*
X145189363Y-147167241D01*
X145032320Y-147402273D01*
X144924147Y-147663426D01*
X144869000Y-147940665D01*
X144869000Y-148112199D01*
X144327804Y-147571003D01*
X144304001Y-147541999D01*
X144188276Y-147447026D01*
X144056247Y-147376454D01*
X143988747Y-147355978D01*
X143862637Y-147167241D01*
X143662759Y-146967363D01*
X143427727Y-146810320D01*
X143166574Y-146702147D01*
X142889335Y-146647000D01*
X142606665Y-146647000D01*
X142329426Y-146702147D01*
X142068273Y-146810320D01*
X141833241Y-146967363D01*
X141633363Y-147167241D01*
X141476320Y-147402273D01*
X141368147Y-147663426D01*
X141313000Y-147940665D01*
X141313000Y-148223335D01*
X141368147Y-148500574D01*
X141476320Y-148761727D01*
X141633363Y-148996759D01*
X141833241Y-149196637D01*
X142068273Y-149353680D01*
X142329426Y-149461853D01*
X142606665Y-149517000D01*
X142889335Y-149517000D01*
X143166574Y-149461853D01*
X143427727Y-149353680D01*
X143662759Y-149196637D01*
X143733297Y-149126099D01*
X144905312Y-150298114D01*
X144869000Y-150480665D01*
X144869000Y-150763335D01*
X144924147Y-151040574D01*
X145032320Y-151301727D01*
X145189363Y-151536759D01*
X145389241Y-151736637D01*
X145624273Y-151893680D01*
X145885426Y-152001853D01*
X146162665Y-152057000D01*
X146445335Y-152057000D01*
X146722574Y-152001853D01*
X146983727Y-151893680D01*
X147218759Y-151736637D01*
X147418637Y-151536759D01*
X147522043Y-151382000D01*
X147536678Y-151382000D01*
X147574000Y-151385676D01*
X147611322Y-151382000D01*
X147611333Y-151382000D01*
X147722986Y-151371003D01*
X147866247Y-151327546D01*
X147998276Y-151256974D01*
X148114001Y-151162001D01*
X148137804Y-151132997D01*
X148315527Y-150955274D01*
X148381818Y-151173808D01*
X148418592Y-151242607D01*
X145792998Y-153868201D01*
X145764000Y-153891999D01*
X145740202Y-153920997D01*
X145740201Y-153920998D01*
X145669026Y-154007724D01*
X145598454Y-154139754D01*
X145579786Y-154201298D01*
X145554998Y-154283014D01*
X145551722Y-154316275D01*
X145540324Y-154432000D01*
X145544001Y-154469332D01*
X145544000Y-157023956D01*
X145389241Y-157127363D01*
X145189363Y-157327241D01*
X145032320Y-157562273D01*
X144924147Y-157823426D01*
X144869000Y-158100665D01*
X144869000Y-158383335D01*
X144924147Y-158660574D01*
X145032320Y-158921727D01*
X145189363Y-159156759D01*
X145347604Y-159315000D01*
X140685000Y-159315000D01*
X140685000Y-124626000D01*
X141767928Y-124626000D01*
X141767928Y-126326000D01*
X141780188Y-126450482D01*
X141816498Y-126570180D01*
X141875463Y-126680494D01*
X141954815Y-126777185D01*
X142051506Y-126856537D01*
X142161820Y-126915502D01*
X142281518Y-126951812D01*
X142406000Y-126964072D01*
X144106000Y-126964072D01*
X144230482Y-126951812D01*
X144350180Y-126915502D01*
X144460494Y-126856537D01*
X144557185Y-126777185D01*
X144636537Y-126680494D01*
X144695502Y-126570180D01*
X144719966Y-126489534D01*
X144795731Y-126573588D01*
X145029080Y-126747641D01*
X145291901Y-126872825D01*
X145439110Y-126917476D01*
X145669000Y-126796155D01*
X145669000Y-125603000D01*
X145649000Y-125603000D01*
X145649000Y-125349000D01*
X145669000Y-125349000D01*
X145669000Y-124155845D01*
X145439110Y-124034524D01*
X145291901Y-124079175D01*
X145029080Y-124204359D01*
X144795731Y-124378412D01*
X144719966Y-124462466D01*
X144695502Y-124381820D01*
X144636537Y-124271506D01*
X144557185Y-124174815D01*
X144460494Y-124095463D01*
X144350180Y-124036498D01*
X144230482Y-124000188D01*
X144106000Y-123987928D01*
X142406000Y-123987928D01*
X142281518Y-124000188D01*
X142161820Y-124036498D01*
X142051506Y-124095463D01*
X141954815Y-124174815D01*
X141875463Y-124271506D01*
X141816498Y-124381820D01*
X141780188Y-124501518D01*
X141767928Y-124626000D01*
X140685000Y-124626000D01*
X140685000Y-88758665D01*
X145377000Y-88758665D01*
X145377000Y-89041335D01*
X145432147Y-89318574D01*
X145540320Y-89579727D01*
X145697363Y-89814759D01*
X145897241Y-90014637D01*
X146132273Y-90171680D01*
X146393426Y-90279853D01*
X146670665Y-90335000D01*
X146953335Y-90335000D01*
X147230574Y-90279853D01*
X147491727Y-90171680D01*
X147726759Y-90014637D01*
X147926637Y-89814759D01*
X148083680Y-89579727D01*
X148191853Y-89318574D01*
X148247000Y-89041335D01*
X148247000Y-88758665D01*
X148191853Y-88481426D01*
X148083680Y-88220273D01*
X147926637Y-87985241D01*
X147726759Y-87785363D01*
X147572000Y-87681957D01*
X147572000Y-84694665D01*
X150537000Y-84694665D01*
X150537000Y-84977335D01*
X150592147Y-85254574D01*
X150700320Y-85515727D01*
X150857363Y-85750759D01*
X151057241Y-85950637D01*
X151292273Y-86107680D01*
X151553426Y-86215853D01*
X151830665Y-86271000D01*
X152113335Y-86271000D01*
X152390574Y-86215853D01*
X152651727Y-86107680D01*
X152886759Y-85950637D01*
X153008694Y-85828702D01*
X156158903Y-85828702D01*
X156230486Y-86072671D01*
X156485996Y-86193571D01*
X156760184Y-86262300D01*
X157042512Y-86276217D01*
X157322130Y-86234787D01*
X157588292Y-86139603D01*
X157713514Y-86072671D01*
X157785097Y-85828702D01*
X156972000Y-85015605D01*
X156158903Y-85828702D01*
X153008694Y-85828702D01*
X153086637Y-85750759D01*
X153243680Y-85515727D01*
X153351853Y-85254574D01*
X153407000Y-84977335D01*
X153407000Y-84906512D01*
X155531783Y-84906512D01*
X155573213Y-85186130D01*
X155668397Y-85452292D01*
X155735329Y-85577514D01*
X155979298Y-85649097D01*
X156792395Y-84836000D01*
X157151605Y-84836000D01*
X157964702Y-85649097D01*
X158208671Y-85577514D01*
X158329571Y-85322004D01*
X158398300Y-85047816D01*
X158412217Y-84765488D01*
X158370787Y-84485870D01*
X158275603Y-84219708D01*
X158208671Y-84094486D01*
X157964702Y-84022903D01*
X157151605Y-84836000D01*
X156792395Y-84836000D01*
X155979298Y-84022903D01*
X155735329Y-84094486D01*
X155614429Y-84349996D01*
X155545700Y-84624184D01*
X155531783Y-84906512D01*
X153407000Y-84906512D01*
X153407000Y-84694665D01*
X153351853Y-84417426D01*
X153243680Y-84156273D01*
X153086637Y-83921241D01*
X153008694Y-83843298D01*
X156158903Y-83843298D01*
X156972000Y-84656395D01*
X157785097Y-83843298D01*
X157713514Y-83599329D01*
X157458004Y-83478429D01*
X157183816Y-83409700D01*
X156901488Y-83395783D01*
X156621870Y-83437213D01*
X156355708Y-83532397D01*
X156230486Y-83599329D01*
X156158903Y-83843298D01*
X153008694Y-83843298D01*
X152886759Y-83721363D01*
X152651727Y-83564320D01*
X152390574Y-83456147D01*
X152113335Y-83401000D01*
X151830665Y-83401000D01*
X151553426Y-83456147D01*
X151292273Y-83564320D01*
X151057241Y-83721363D01*
X150857363Y-83921241D01*
X150700320Y-84156273D01*
X150592147Y-84417426D01*
X150537000Y-84694665D01*
X147572000Y-84694665D01*
X147572000Y-77068902D01*
X153828000Y-77068902D01*
X153828000Y-77513098D01*
X153914658Y-77948759D01*
X154084645Y-78359143D01*
X154331427Y-78728479D01*
X154645521Y-79042573D01*
X155014857Y-79289355D01*
X155425241Y-79459342D01*
X155860902Y-79546000D01*
X156305098Y-79546000D01*
X156740759Y-79459342D01*
X157151143Y-79289355D01*
X157520479Y-79042573D01*
X157834573Y-78728479D01*
X158081355Y-78359143D01*
X158251342Y-77948759D01*
X158338000Y-77513098D01*
X158338000Y-77068902D01*
X158251342Y-76633241D01*
X158081355Y-76222857D01*
X157921757Y-75984000D01*
X164423928Y-75984000D01*
X164436188Y-76108482D01*
X164472498Y-76228180D01*
X164531463Y-76338494D01*
X164610815Y-76435185D01*
X164707506Y-76514537D01*
X164817820Y-76573502D01*
X164937518Y-76609812D01*
X165062000Y-76622072D01*
X165576250Y-76619000D01*
X165735000Y-76460250D01*
X165735000Y-75311000D01*
X165989000Y-75311000D01*
X165989000Y-76460250D01*
X166147750Y-76619000D01*
X166662000Y-76622072D01*
X166786482Y-76609812D01*
X166906180Y-76573502D01*
X167016494Y-76514537D01*
X167113185Y-76435185D01*
X167192537Y-76338494D01*
X167251502Y-76228180D01*
X167287812Y-76108482D01*
X167300072Y-75984000D01*
X167297000Y-75469750D01*
X167138250Y-75311000D01*
X165989000Y-75311000D01*
X165735000Y-75311000D01*
X164585750Y-75311000D01*
X164427000Y-75469750D01*
X164423928Y-75984000D01*
X157921757Y-75984000D01*
X157834573Y-75853521D01*
X157520479Y-75539427D01*
X157151143Y-75292645D01*
X156740759Y-75122658D01*
X156305098Y-75036000D01*
X155860902Y-75036000D01*
X155425241Y-75122658D01*
X155014857Y-75292645D01*
X154645521Y-75539427D01*
X154331427Y-75853521D01*
X154084645Y-76222857D01*
X153914658Y-76633241D01*
X153828000Y-77068902D01*
X147572000Y-77068902D01*
X147572000Y-76518140D01*
X147683000Y-76529072D01*
X148297250Y-76526000D01*
X148456000Y-76367250D01*
X148456000Y-75118000D01*
X148710000Y-75118000D01*
X148710000Y-76367250D01*
X148868750Y-76526000D01*
X149483000Y-76529072D01*
X149607482Y-76516812D01*
X149727180Y-76480502D01*
X149837494Y-76421537D01*
X149934185Y-76342185D01*
X150013537Y-76245494D01*
X150072502Y-76135180D01*
X150108812Y-76015482D01*
X150121072Y-75891000D01*
X150118000Y-75276750D01*
X149959250Y-75118000D01*
X148710000Y-75118000D01*
X148456000Y-75118000D01*
X148436000Y-75118000D01*
X148436000Y-74864000D01*
X148456000Y-74864000D01*
X148456000Y-74844000D01*
X148710000Y-74844000D01*
X148710000Y-74864000D01*
X149959250Y-74864000D01*
X150118000Y-74705250D01*
X150119606Y-74384000D01*
X164423928Y-74384000D01*
X164427000Y-74898250D01*
X164585750Y-75057000D01*
X165735000Y-75057000D01*
X165735000Y-75037000D01*
X165989000Y-75037000D01*
X165989000Y-75057000D01*
X167138250Y-75057000D01*
X167297000Y-74898250D01*
X167300072Y-74384000D01*
X167287812Y-74259518D01*
X167251502Y-74139820D01*
X167192537Y-74029506D01*
X167113185Y-73932815D01*
X167016494Y-73853463D01*
X166906180Y-73794498D01*
X166810057Y-73765339D01*
X166976637Y-73598759D01*
X167133680Y-73363727D01*
X167241853Y-73102574D01*
X167297000Y-72825335D01*
X167297000Y-72542665D01*
X167241853Y-72265426D01*
X167133680Y-72004273D01*
X166976637Y-71769241D01*
X166776759Y-71569363D01*
X166541727Y-71412320D01*
X166280574Y-71304147D01*
X166003335Y-71249000D01*
X165720665Y-71249000D01*
X165443426Y-71304147D01*
X165182273Y-71412320D01*
X164947241Y-71569363D01*
X164747363Y-71769241D01*
X164590320Y-72004273D01*
X164482147Y-72265426D01*
X164427000Y-72542665D01*
X164427000Y-72825335D01*
X164482147Y-73102574D01*
X164590320Y-73363727D01*
X164747363Y-73598759D01*
X164913943Y-73765339D01*
X164817820Y-73794498D01*
X164707506Y-73853463D01*
X164610815Y-73932815D01*
X164531463Y-74029506D01*
X164472498Y-74139820D01*
X164436188Y-74259518D01*
X164423928Y-74384000D01*
X150119606Y-74384000D01*
X150121072Y-74091000D01*
X150108812Y-73966518D01*
X150072502Y-73846820D01*
X150013537Y-73736506D01*
X149934185Y-73639815D01*
X149837494Y-73560463D01*
X149737697Y-73507120D01*
X149775312Y-73469505D01*
X149943299Y-73218095D01*
X150059011Y-72938743D01*
X150118000Y-72642184D01*
X150118000Y-72339816D01*
X150059011Y-72043257D01*
X149943299Y-71763905D01*
X149775312Y-71512495D01*
X149561505Y-71298688D01*
X149475169Y-71241000D01*
X149561505Y-71183312D01*
X149775312Y-70969505D01*
X149943299Y-70718095D01*
X150059011Y-70438743D01*
X150118000Y-70142184D01*
X150118000Y-69839816D01*
X150059011Y-69543257D01*
X149943299Y-69263905D01*
X149775312Y-69012495D01*
X149561505Y-68798688D01*
X149310095Y-68630701D01*
X149030743Y-68514989D01*
X148734184Y-68456000D01*
X148431816Y-68456000D01*
X148135257Y-68514989D01*
X147855905Y-68630701D01*
X147604495Y-68798688D01*
X147390688Y-69012495D01*
X147222701Y-69263905D01*
X147106989Y-69543257D01*
X147048000Y-69839816D01*
X147048000Y-70142184D01*
X147106989Y-70438743D01*
X147222701Y-70718095D01*
X147390688Y-70969505D01*
X147604495Y-71183312D01*
X147690831Y-71241000D01*
X147604495Y-71298688D01*
X147390688Y-71512495D01*
X147222701Y-71763905D01*
X147106989Y-72043257D01*
X147048000Y-72339816D01*
X147048000Y-72642184D01*
X147099269Y-72899930D01*
X146300998Y-73698201D01*
X146272000Y-73721999D01*
X146248202Y-73750997D01*
X146248201Y-73750998D01*
X146177026Y-73837724D01*
X146106454Y-73969754D01*
X146089393Y-74026000D01*
X146062998Y-74113014D01*
X146060358Y-74139820D01*
X146048324Y-74262000D01*
X146052001Y-74299332D01*
X146052000Y-87681957D01*
X145897241Y-87785363D01*
X145697363Y-87985241D01*
X145540320Y-88220273D01*
X145432147Y-88481426D01*
X145377000Y-88758665D01*
X140685000Y-88758665D01*
X140685000Y-65685000D01*
X155033314Y-65685000D01*
X155014857Y-65692645D01*
%TA.AperFunction,Conductor*%
D26*
G36*
X155014857Y-65692645D02*
G01*
X154645521Y-65939427D01*
X154331427Y-66253521D01*
X154084645Y-66622857D01*
X153914658Y-67033241D01*
X153828000Y-67468902D01*
X153828000Y-67913098D01*
X153914658Y-68348759D01*
X154084645Y-68759143D01*
X154331427Y-69128479D01*
X154645521Y-69442573D01*
X155014857Y-69689355D01*
X155425241Y-69859342D01*
X155860902Y-69946000D01*
X156305098Y-69946000D01*
X156740759Y-69859342D01*
X157151143Y-69689355D01*
X157520479Y-69442573D01*
X157834573Y-69128479D01*
X158081355Y-68759143D01*
X158251342Y-68348759D01*
X158338000Y-67913098D01*
X158338000Y-67468902D01*
X158251342Y-67033241D01*
X158081355Y-66622857D01*
X157834573Y-66253521D01*
X157520479Y-65939427D01*
X157151143Y-65692645D01*
X157132686Y-65685000D01*
X169315000Y-65685000D01*
X169315001Y-159315000D01*
X147260396Y-159315000D01*
X147418637Y-159156759D01*
X147575680Y-158921727D01*
X147683853Y-158660574D01*
X147739000Y-158383335D01*
X147739000Y-158100665D01*
X147683853Y-157823426D01*
X147575680Y-157562273D01*
X147418637Y-157327241D01*
X147218759Y-157127363D01*
X147064000Y-157023957D01*
X147064000Y-155052665D01*
X149949000Y-155052665D01*
X149949000Y-155335335D01*
X150004147Y-155612574D01*
X150112320Y-155873727D01*
X150269363Y-156108759D01*
X150469241Y-156308637D01*
X150704273Y-156465680D01*
X150965426Y-156573853D01*
X151242665Y-156629000D01*
X151525335Y-156629000D01*
X151802574Y-156573853D01*
X152063727Y-156465680D01*
X152298759Y-156308637D01*
X152420694Y-156186702D01*
X155570903Y-156186702D01*
X155642486Y-156430671D01*
X155897996Y-156551571D01*
X156172184Y-156620300D01*
X156454512Y-156634217D01*
X156734130Y-156592787D01*
X157000292Y-156497603D01*
X157125514Y-156430671D01*
X157197097Y-156186702D01*
X156384000Y-155373605D01*
X155570903Y-156186702D01*
X152420694Y-156186702D01*
X152498637Y-156108759D01*
X152655680Y-155873727D01*
X152763853Y-155612574D01*
X152819000Y-155335335D01*
X152819000Y-155264512D01*
X154943783Y-155264512D01*
X154985213Y-155544130D01*
X155080397Y-155810292D01*
X155147329Y-155935514D01*
X155391298Y-156007097D01*
X156204395Y-155194000D01*
X156563605Y-155194000D01*
X157376702Y-156007097D01*
X157620671Y-155935514D01*
X157741571Y-155680004D01*
X157810300Y-155405816D01*
X157824217Y-155123488D01*
X157782787Y-154843870D01*
X157687603Y-154577708D01*
X157620671Y-154452486D01*
X157376702Y-154380903D01*
X156563605Y-155194000D01*
X156204395Y-155194000D01*
X155391298Y-154380903D01*
X155147329Y-154452486D01*
X155026429Y-154707996D01*
X154957700Y-154982184D01*
X154943783Y-155264512D01*
X152819000Y-155264512D01*
X152819000Y-155052665D01*
X152763853Y-154775426D01*
X152655680Y-154514273D01*
X152498637Y-154279241D01*
X152420694Y-154201298D01*
X155570903Y-154201298D01*
X156384000Y-155014395D01*
X157197097Y-154201298D01*
X157125514Y-153957329D01*
X156870004Y-153836429D01*
X156595816Y-153767700D01*
X156313488Y-153753783D01*
X156033870Y-153795213D01*
X155767708Y-153890397D01*
X155642486Y-153957329D01*
X155570903Y-154201298D01*
X152420694Y-154201298D01*
X152298759Y-154079363D01*
X152063727Y-153922320D01*
X151802574Y-153814147D01*
X151525335Y-153759000D01*
X151242665Y-153759000D01*
X150965426Y-153814147D01*
X150704273Y-153922320D01*
X150469241Y-154079363D01*
X150269363Y-154279241D01*
X150112320Y-154514273D01*
X150004147Y-154775426D01*
X149949000Y-155052665D01*
X147064000Y-155052665D01*
X147064000Y-154746801D01*
X149753802Y-152057000D01*
X150474197Y-152057000D01*
X150675215Y-152258018D01*
X150699009Y-152287011D01*
X150728002Y-152310805D01*
X150728006Y-152310809D01*
X150798695Y-152368821D01*
X150814734Y-152381984D01*
X150946763Y-152452556D01*
X151090024Y-152496013D01*
X151201677Y-152507010D01*
X151201686Y-152507010D01*
X151239009Y-152510686D01*
X151276332Y-152507010D01*
X162354209Y-152507010D01*
X163955312Y-154108114D01*
X163919000Y-154290665D01*
X163919000Y-154573335D01*
X163963491Y-154797001D01*
X163237803Y-154797001D01*
X163196688Y-154755886D01*
X163233000Y-154573335D01*
X163233000Y-154290665D01*
X163177853Y-154013426D01*
X163069680Y-153752273D01*
X162912637Y-153517241D01*
X162712759Y-153317363D01*
X162477727Y-153160320D01*
X162216574Y-153052147D01*
X161939335Y-152997000D01*
X161656665Y-152997000D01*
X161379426Y-153052147D01*
X161118273Y-153160320D01*
X160883241Y-153317363D01*
X160683363Y-153517241D01*
X160526320Y-153752273D01*
X160418147Y-154013426D01*
X160363000Y-154290665D01*
X160363000Y-154573335D01*
X160418147Y-154850574D01*
X160526320Y-155111727D01*
X160683363Y-155346759D01*
X160883241Y-155546637D01*
X161118273Y-155703680D01*
X161379426Y-155811853D01*
X161656665Y-155867000D01*
X161939335Y-155867000D01*
X162121886Y-155830688D01*
X162359202Y-156068004D01*
X162383000Y-156097002D01*
X162498725Y-156191975D01*
X162630754Y-156262547D01*
X162774015Y-156306004D01*
X162885668Y-156317001D01*
X162885676Y-156317001D01*
X162923001Y-156320677D01*
X162960326Y-156317001D01*
X165856679Y-156317001D01*
X165894001Y-156320677D01*
X165931323Y-156317001D01*
X165931334Y-156317001D01*
X166042987Y-156306004D01*
X166186248Y-156262547D01*
X166318277Y-156191975D01*
X166434002Y-156097002D01*
X166457804Y-156067999D01*
X166990005Y-155535799D01*
X167019002Y-155512002D01*
X167045333Y-155479918D01*
X167113975Y-155396278D01*
X167184547Y-155264248D01*
X167184547Y-155264247D01*
X167228004Y-155120987D01*
X167239001Y-155009334D01*
X167239001Y-155009324D01*
X167242677Y-154972001D01*
X167239001Y-154934678D01*
X167239001Y-153929322D01*
X167242677Y-153891999D01*
X167239001Y-153854676D01*
X167239001Y-153854666D01*
X167228004Y-153743013D01*
X167184547Y-153599752D01*
X167113975Y-153467722D01*
X167042800Y-153380996D01*
X167019002Y-153351998D01*
X166990004Y-153328200D01*
X164283803Y-150622000D01*
X166990005Y-147915799D01*
X167019002Y-147892002D01*
X167045333Y-147859918D01*
X167113975Y-147776278D01*
X167184547Y-147644248D01*
X167200407Y-147591964D01*
X167228004Y-147500987D01*
X167239001Y-147389334D01*
X167239001Y-147389324D01*
X167242677Y-147352001D01*
X167239001Y-147314678D01*
X167239001Y-126638323D01*
X167242677Y-126601000D01*
X167239001Y-126563677D01*
X167239001Y-126563668D01*
X167228004Y-126452015D01*
X167184547Y-126308754D01*
X167165961Y-126273983D01*
X167113975Y-126176724D01*
X167042800Y-126089998D01*
X167019002Y-126061000D01*
X166990004Y-126037202D01*
X166243002Y-125290201D01*
X166243002Y-125272156D01*
X166472890Y-125393476D01*
X166620099Y-125348825D01*
X166882920Y-125223641D01*
X167116269Y-125049588D01*
X167311178Y-124833355D01*
X167460157Y-124583252D01*
X167557481Y-124308891D01*
X167436814Y-124079000D01*
X166243000Y-124079000D01*
X166243000Y-124099000D01*
X165989000Y-124099000D01*
X165989000Y-124079000D01*
X165969000Y-124079000D01*
X165969000Y-123825000D01*
X165989000Y-123825000D01*
X165989000Y-122631845D01*
X166243000Y-122631845D01*
X166243000Y-123825000D01*
X167436814Y-123825000D01*
X167557481Y-123595109D01*
X167460157Y-123320748D01*
X167311178Y-123070645D01*
X167116269Y-122854412D01*
X166882920Y-122680359D01*
X166620099Y-122555175D01*
X166472890Y-122510524D01*
X166243000Y-122631845D01*
X165989000Y-122631845D01*
X165759110Y-122510524D01*
X165611901Y-122555175D01*
X165511001Y-122603235D01*
X165511001Y-120982765D01*
X165611901Y-121030825D01*
X165759110Y-121075476D01*
X165989000Y-120954155D01*
X165989000Y-119761000D01*
X166243000Y-119761000D01*
X166243000Y-120954155D01*
X166472890Y-121075476D01*
X166620099Y-121030825D01*
X166882920Y-120905641D01*
X167116269Y-120731588D01*
X167311178Y-120515355D01*
X167460157Y-120265252D01*
X167557481Y-119990891D01*
X167436814Y-119761000D01*
X166243000Y-119761000D01*
X165989000Y-119761000D01*
X165969000Y-119761000D01*
X165969000Y-119507000D01*
X165989000Y-119507000D01*
X165989000Y-118313845D01*
X166243000Y-118313845D01*
X166243000Y-119507000D01*
X167436814Y-119507000D01*
X167557481Y-119277109D01*
X167460157Y-119002748D01*
X167311178Y-118752645D01*
X167116269Y-118536412D01*
X166882920Y-118362359D01*
X166620099Y-118237175D01*
X166472890Y-118192524D01*
X166243000Y-118313845D01*
X165989000Y-118313845D01*
X165759110Y-118192524D01*
X165611901Y-118237175D01*
X165349080Y-118362359D01*
X165115731Y-118536412D01*
X165039966Y-118620466D01*
X165015502Y-118539820D01*
X164956537Y-118429506D01*
X164877185Y-118332815D01*
X164780494Y-118253463D01*
X164670180Y-118194498D01*
X164550482Y-118158188D01*
X164426000Y-118145928D01*
X162726000Y-118145928D01*
X162601518Y-118158188D01*
X162481820Y-118194498D01*
X162371506Y-118253463D01*
X162274815Y-118332815D01*
X162195463Y-118429506D01*
X162136498Y-118539820D01*
X162100188Y-118659518D01*
X162087928Y-118784000D01*
X162087928Y-119470124D01*
X152002803Y-109385000D01*
X152033335Y-109385000D01*
X152215887Y-109348688D01*
X158948200Y-116081002D01*
X158971999Y-116110001D01*
X159087724Y-116204974D01*
X159219753Y-116275546D01*
X159363014Y-116319003D01*
X159512000Y-116333677D01*
X159549333Y-116330000D01*
X162087928Y-116330000D01*
X162087928Y-116420000D01*
X162100188Y-116544482D01*
X162136498Y-116664180D01*
X162195463Y-116774494D01*
X162274815Y-116871185D01*
X162371506Y-116950537D01*
X162481820Y-117009502D01*
X162601518Y-117045812D01*
X162726000Y-117058072D01*
X164426000Y-117058072D01*
X164550482Y-117045812D01*
X164670180Y-117009502D01*
X164780494Y-116950537D01*
X164877185Y-116871185D01*
X164956537Y-116774494D01*
X165015502Y-116664180D01*
X165039966Y-116583534D01*
X165115731Y-116667588D01*
X165349080Y-116841641D01*
X165611901Y-116966825D01*
X165759110Y-117011476D01*
X165989000Y-116890155D01*
X165989000Y-115697000D01*
X166243000Y-115697000D01*
X166243000Y-116890155D01*
X166472890Y-117011476D01*
X166620099Y-116966825D01*
X166882920Y-116841641D01*
X167116269Y-116667588D01*
X167311178Y-116451355D01*
X167460157Y-116201252D01*
X167557481Y-115926891D01*
X167436814Y-115697000D01*
X166243000Y-115697000D01*
X165989000Y-115697000D01*
X165969000Y-115697000D01*
X165969000Y-115443000D01*
X165989000Y-115443000D01*
X165989000Y-114249845D01*
X166243000Y-114249845D01*
X166243000Y-115443000D01*
X167436814Y-115443000D01*
X167557481Y-115213109D01*
X167460157Y-114938748D01*
X167311178Y-114688645D01*
X167116269Y-114472412D01*
X166882920Y-114298359D01*
X166620099Y-114173175D01*
X166472890Y-114128524D01*
X166243000Y-114249845D01*
X165989000Y-114249845D01*
X165759110Y-114128524D01*
X165611901Y-114173175D01*
X165349080Y-114298359D01*
X165115731Y-114472412D01*
X165039966Y-114556466D01*
X165015502Y-114475820D01*
X164956537Y-114365506D01*
X164877185Y-114268815D01*
X164780494Y-114189463D01*
X164670180Y-114130498D01*
X164550482Y-114094188D01*
X164426000Y-114081928D01*
X162726000Y-114081928D01*
X162601518Y-114094188D01*
X162481820Y-114130498D01*
X162371506Y-114189463D01*
X162274815Y-114268815D01*
X162195463Y-114365506D01*
X162136498Y-114475820D01*
X162100188Y-114595518D01*
X162087928Y-114720000D01*
X162087928Y-114810000D01*
X160272000Y-114810000D01*
X160272000Y-110452000D01*
X164423928Y-110452000D01*
X164423928Y-112052000D01*
X164436188Y-112176482D01*
X164472498Y-112296180D01*
X164531463Y-112406494D01*
X164610815Y-112503185D01*
X164707506Y-112582537D01*
X164817820Y-112641502D01*
X164937518Y-112677812D01*
X165062000Y-112690072D01*
X166662000Y-112690072D01*
X166786482Y-112677812D01*
X166906180Y-112641502D01*
X167016494Y-112582537D01*
X167113185Y-112503185D01*
X167192537Y-112406494D01*
X167251502Y-112296180D01*
X167287812Y-112176482D01*
X167300072Y-112052000D01*
X167300072Y-110452000D01*
X167287812Y-110327518D01*
X167251502Y-110207820D01*
X167192537Y-110097506D01*
X167113185Y-110000815D01*
X167016494Y-109921463D01*
X166906180Y-109862498D01*
X166786482Y-109826188D01*
X166662000Y-109813928D01*
X166654785Y-109813928D01*
X166675097Y-109744702D01*
X165862000Y-108931605D01*
X165048903Y-109744702D01*
X165069215Y-109813928D01*
X165062000Y-109813928D01*
X164937518Y-109826188D01*
X164817820Y-109862498D01*
X164707506Y-109921463D01*
X164610815Y-110000815D01*
X164531463Y-110097506D01*
X164472498Y-110207820D01*
X164436188Y-110327518D01*
X164423928Y-110452000D01*
X160272000Y-110452000D01*
X160272000Y-108822512D01*
X164421783Y-108822512D01*
X164463213Y-109102130D01*
X164558397Y-109368292D01*
X164625329Y-109493514D01*
X164869298Y-109565097D01*
X165682395Y-108752000D01*
X166041605Y-108752000D01*
X166854702Y-109565097D01*
X167098671Y-109493514D01*
X167219571Y-109238004D01*
X167288300Y-108963816D01*
X167302217Y-108681488D01*
X167260787Y-108401870D01*
X167165603Y-108135708D01*
X167098671Y-108010486D01*
X166854702Y-107938903D01*
X166041605Y-108752000D01*
X165682395Y-108752000D01*
X164869298Y-107938903D01*
X164625329Y-108010486D01*
X164504429Y-108265996D01*
X164435700Y-108540184D01*
X164421783Y-108822512D01*
X160272000Y-108822512D01*
X160272000Y-107759298D01*
X165048903Y-107759298D01*
X165862000Y-108572395D01*
X166675097Y-107759298D01*
X166603514Y-107515329D01*
X166348004Y-107394429D01*
X166073816Y-107325700D01*
X165791488Y-107311783D01*
X165511870Y-107353213D01*
X165245708Y-107448397D01*
X165120486Y-107515329D01*
X165048903Y-107759298D01*
X160272000Y-107759298D01*
X160272000Y-105706338D01*
X160275676Y-105669015D01*
X160272000Y-105631692D01*
X160272000Y-105631683D01*
X160261003Y-105520030D01*
X160217546Y-105376769D01*
X160146974Y-105244740D01*
X160133811Y-105228701D01*
X160075799Y-105158012D01*
X160075795Y-105158008D01*
X160052001Y-105129015D01*
X160023008Y-105105221D01*
X156936792Y-102019006D01*
X157042512Y-102024217D01*
X157322130Y-101982787D01*
X157588292Y-101887603D01*
X157713514Y-101820671D01*
X157785097Y-101576702D01*
X156972000Y-100763605D01*
X156957858Y-100777748D01*
X156778253Y-100598143D01*
X156792395Y-100584000D01*
X157151605Y-100584000D01*
X157964702Y-101397097D01*
X158208671Y-101325514D01*
X158329571Y-101070004D01*
X158398300Y-100795816D01*
X158412217Y-100513488D01*
X158370787Y-100233870D01*
X158275603Y-99967708D01*
X158208671Y-99842486D01*
X157964702Y-99770903D01*
X157151605Y-100584000D01*
X156792395Y-100584000D01*
X155979298Y-99770903D01*
X155735329Y-99842486D01*
X155614429Y-100097996D01*
X155545700Y-100372184D01*
X155533686Y-100615901D01*
X154509083Y-99591298D01*
X156158903Y-99591298D01*
X156972000Y-100404395D01*
X157785097Y-99591298D01*
X157713514Y-99347329D01*
X157458004Y-99226429D01*
X157183816Y-99157700D01*
X156901488Y-99143783D01*
X156621870Y-99185213D01*
X156355708Y-99280397D01*
X156230486Y-99347329D01*
X156158903Y-99591298D01*
X154509083Y-99591298D01*
X152907001Y-97989216D01*
X152907001Y-97932681D01*
X152925744Y-97945205D01*
X153114102Y-98023226D01*
X153314061Y-98063000D01*
X153517939Y-98063000D01*
X153717898Y-98023226D01*
X153906256Y-97945205D01*
X154075774Y-97831937D01*
X154219937Y-97687774D01*
X154333205Y-97518256D01*
X154411226Y-97329898D01*
X154451000Y-97129939D01*
X154451000Y-96926061D01*
X154439658Y-96869039D01*
X156450096Y-96869039D01*
X156467633Y-96951818D01*
X156578285Y-97211646D01*
X156737500Y-97444895D01*
X156939161Y-97642601D01*
X157175517Y-97797166D01*
X157437486Y-97902650D01*
X157715000Y-97955000D01*
X158115000Y-97955000D01*
X158115000Y-96647000D01*
X158369000Y-96647000D01*
X158369000Y-97955000D01*
X158769000Y-97955000D01*
X159046514Y-97902650D01*
X159308483Y-97797166D01*
X159544839Y-97642601D01*
X159746500Y-97444895D01*
X159905715Y-97211646D01*
X159938611Y-97134401D01*
X162077400Y-97134401D01*
X162077400Y-97429599D01*
X162134990Y-97719125D01*
X162247958Y-97991853D01*
X162411961Y-98237302D01*
X162620698Y-98446039D01*
X162866147Y-98610042D01*
X163138875Y-98723010D01*
X163428401Y-98780600D01*
X163723599Y-98780600D01*
X164013125Y-98723010D01*
X164285853Y-98610042D01*
X164531302Y-98446039D01*
X164740039Y-98237302D01*
X164846000Y-98078719D01*
X164951961Y-98237302D01*
X165160698Y-98446039D01*
X165406147Y-98610042D01*
X165678875Y-98723010D01*
X165968401Y-98780600D01*
X166263599Y-98780600D01*
X166553125Y-98723010D01*
X166825853Y-98610042D01*
X167071302Y-98446039D01*
X167280039Y-98237302D01*
X167444042Y-97991853D01*
X167557010Y-97719125D01*
X167614600Y-97429599D01*
X167614600Y-97134401D01*
X167557010Y-96844875D01*
X167444042Y-96572147D01*
X167280039Y-96326698D01*
X167071302Y-96117961D01*
X166905897Y-96007441D01*
X167004488Y-95948817D01*
X167222854Y-95752293D01*
X167398684Y-95516944D01*
X167525222Y-95251814D01*
X167570958Y-95101026D01*
X167449817Y-94869000D01*
X166243000Y-94869000D01*
X166243000Y-94889000D01*
X165989000Y-94889000D01*
X165989000Y-94869000D01*
X163703000Y-94869000D01*
X163703000Y-94889000D01*
X163449000Y-94889000D01*
X163449000Y-94869000D01*
X162242183Y-94869000D01*
X162121042Y-95101026D01*
X162166778Y-95251814D01*
X162293316Y-95516944D01*
X162469146Y-95752293D01*
X162687512Y-95948817D01*
X162786103Y-96007441D01*
X162620698Y-96117961D01*
X162411961Y-96326698D01*
X162247958Y-96572147D01*
X162134990Y-96844875D01*
X162077400Y-97134401D01*
X159938611Y-97134401D01*
X160016367Y-96951818D01*
X160033904Y-96869039D01*
X159911915Y-96647000D01*
X158369000Y-96647000D01*
X158115000Y-96647000D01*
X156572085Y-96647000D01*
X156450096Y-96869039D01*
X154439658Y-96869039D01*
X154411226Y-96726102D01*
X154333205Y-96537744D01*
X154251000Y-96414715D01*
X154251000Y-94514797D01*
X156601836Y-92163962D01*
X156643068Y-92241101D01*
X156822392Y-92459608D01*
X157040899Y-92638932D01*
X157173858Y-92710000D01*
X157040899Y-92781068D01*
X156822392Y-92960392D01*
X156643068Y-93178899D01*
X156509818Y-93428192D01*
X156427764Y-93698691D01*
X156400057Y-93980000D01*
X156427764Y-94261309D01*
X156509818Y-94531808D01*
X156643068Y-94781101D01*
X156822392Y-94999608D01*
X157040899Y-95178932D01*
X157168741Y-95247265D01*
X156939161Y-95397399D01*
X156737500Y-95595105D01*
X156578285Y-95828354D01*
X156467633Y-96088182D01*
X156450096Y-96170961D01*
X156572085Y-96393000D01*
X158115000Y-96393000D01*
X158115000Y-96373000D01*
X158369000Y-96373000D01*
X158369000Y-96393000D01*
X159911915Y-96393000D01*
X160033904Y-96170961D01*
X160016367Y-96088182D01*
X159905715Y-95828354D01*
X159746500Y-95595105D01*
X159544839Y-95397399D01*
X159315259Y-95247265D01*
X159443101Y-95178932D01*
X159661608Y-94999608D01*
X159840932Y-94781101D01*
X159974182Y-94531808D01*
X160056236Y-94261309D01*
X160083943Y-93980000D01*
X160056236Y-93698691D01*
X159974182Y-93428192D01*
X159840932Y-93178899D01*
X159661608Y-92960392D01*
X159443101Y-92781068D01*
X159310142Y-92710000D01*
X159443101Y-92638932D01*
X159538029Y-92561026D01*
X162121042Y-92561026D01*
X162166778Y-92711814D01*
X162293316Y-92976944D01*
X162469146Y-93212293D01*
X162687512Y-93408817D01*
X162793770Y-93472000D01*
X162687512Y-93535183D01*
X162469146Y-93731707D01*
X162293316Y-93967056D01*
X162166778Y-94232186D01*
X162121042Y-94382974D01*
X162242183Y-94615000D01*
X163449000Y-94615000D01*
X163449000Y-92329000D01*
X163703000Y-92329000D01*
X163703000Y-94615000D01*
X165989000Y-94615000D01*
X165989000Y-92329000D01*
X166243000Y-92329000D01*
X166243000Y-94615000D01*
X167449817Y-94615000D01*
X167570958Y-94382974D01*
X167525222Y-94232186D01*
X167398684Y-93967056D01*
X167222854Y-93731707D01*
X167004488Y-93535183D01*
X166898230Y-93472000D01*
X167004488Y-93408817D01*
X167222854Y-93212293D01*
X167398684Y-92976944D01*
X167525222Y-92711814D01*
X167570958Y-92561026D01*
X167449817Y-92329000D01*
X166243000Y-92329000D01*
X165989000Y-92329000D01*
X163703000Y-92329000D01*
X163449000Y-92329000D01*
X162242183Y-92329000D01*
X162121042Y-92561026D01*
X159538029Y-92561026D01*
X159661608Y-92459608D01*
X159840932Y-92241101D01*
X159974182Y-91991808D01*
X160056236Y-91721309D01*
X160083943Y-91440000D01*
X160056236Y-91158691D01*
X160030846Y-91074990D01*
X160416992Y-91074990D01*
X160458010Y-91079030D01*
X160499028Y-91074990D01*
X160499029Y-91074990D01*
X160621699Y-91062908D01*
X160779097Y-91015162D01*
X160924156Y-90937626D01*
X161051301Y-90833281D01*
X161077456Y-90801411D01*
X162089866Y-89789002D01*
X162242182Y-89789002D01*
X162121042Y-90021026D01*
X162166778Y-90171814D01*
X162293316Y-90436944D01*
X162469146Y-90672293D01*
X162687512Y-90868817D01*
X162793770Y-90932000D01*
X162687512Y-90995183D01*
X162469146Y-91191707D01*
X162293316Y-91427056D01*
X162166778Y-91692186D01*
X162121042Y-91842974D01*
X162242183Y-92075000D01*
X163449000Y-92075000D01*
X163449000Y-89789000D01*
X163703000Y-89789000D01*
X163703000Y-92075000D01*
X165989000Y-92075000D01*
X165989000Y-89789000D01*
X166243000Y-89789000D01*
X166243000Y-92075000D01*
X167449817Y-92075000D01*
X167570958Y-91842974D01*
X167525222Y-91692186D01*
X167398684Y-91427056D01*
X167222854Y-91191707D01*
X167004488Y-90995183D01*
X166898230Y-90932000D01*
X167004488Y-90868817D01*
X167222854Y-90672293D01*
X167398684Y-90436944D01*
X167525222Y-90171814D01*
X167570958Y-90021026D01*
X167449817Y-89789000D01*
X166243000Y-89789000D01*
X165989000Y-89789000D01*
X163703000Y-89789000D01*
X163449000Y-89789000D01*
X163429000Y-89789000D01*
X163429000Y-89535000D01*
X163449000Y-89535000D01*
X163449000Y-89515000D01*
X163703000Y-89515000D01*
X163703000Y-89535000D01*
X165989000Y-89535000D01*
X165989000Y-89515000D01*
X166243000Y-89515000D01*
X166243000Y-89535000D01*
X167449817Y-89535000D01*
X167570958Y-89302974D01*
X167525222Y-89152186D01*
X167398684Y-88887056D01*
X167222854Y-88651707D01*
X167004488Y-88455183D01*
X166905897Y-88396559D01*
X167071302Y-88286039D01*
X167280039Y-88077302D01*
X167444042Y-87831853D01*
X167557010Y-87559125D01*
X167614600Y-87269599D01*
X167614600Y-86974401D01*
X167557010Y-86684875D01*
X167444042Y-86412147D01*
X167280039Y-86166698D01*
X167071302Y-85957961D01*
X166825853Y-85793958D01*
X166553125Y-85680990D01*
X166263599Y-85623400D01*
X165968401Y-85623400D01*
X165678875Y-85680990D01*
X165406147Y-85793958D01*
X165160698Y-85957961D01*
X165046636Y-86072023D01*
X165029102Y-86014220D01*
X164970137Y-85903906D01*
X164890785Y-85807215D01*
X164794094Y-85727863D01*
X164683780Y-85668898D01*
X164564082Y-85632588D01*
X164439600Y-85620328D01*
X162712400Y-85620328D01*
X162587918Y-85632588D01*
X162468220Y-85668898D01*
X162357906Y-85727863D01*
X162261215Y-85807215D01*
X162181863Y-85903906D01*
X162122898Y-86014220D01*
X162086588Y-86133918D01*
X162074328Y-86258400D01*
X162074328Y-87442804D01*
X160112143Y-89404990D01*
X159988384Y-89404990D01*
X160056236Y-89181309D01*
X160083943Y-88900000D01*
X160056236Y-88618691D01*
X159974182Y-88348192D01*
X159840932Y-88098899D01*
X159661608Y-87880392D01*
X159443101Y-87701068D01*
X159193808Y-87567818D01*
X158923309Y-87485764D01*
X158712492Y-87465000D01*
X157771508Y-87465000D01*
X157560691Y-87485764D01*
X157290192Y-87567818D01*
X157040899Y-87701068D01*
X156822392Y-87880392D01*
X156643068Y-88098899D01*
X156509818Y-88348192D01*
X156427764Y-88618691D01*
X156400057Y-88900000D01*
X156427764Y-89181309D01*
X156509818Y-89451808D01*
X156643068Y-89701101D01*
X156670065Y-89733997D01*
X152907001Y-93497062D01*
X152907001Y-87877322D01*
X152910677Y-87839999D01*
X152907001Y-87802677D01*
X152907001Y-87802666D01*
X152896004Y-87691013D01*
X152852547Y-87547752D01*
X152781975Y-87415723D01*
X152687002Y-87299998D01*
X152657998Y-87276195D01*
X152645805Y-87264002D01*
X152622002Y-87234998D01*
X152506277Y-87140025D01*
X152374248Y-87069453D01*
X152230987Y-87025996D01*
X152119334Y-87014999D01*
X152119323Y-87014999D01*
X152082001Y-87011323D01*
X152044679Y-87014999D01*
X149199322Y-87014999D01*
X149161999Y-87011323D01*
X149124677Y-87014999D01*
X149124666Y-87014999D01*
X149013013Y-87025996D01*
X148869752Y-87069453D01*
X148737723Y-87140025D01*
X148621998Y-87234998D01*
X148598195Y-87264002D01*
X148586002Y-87276195D01*
X148556998Y-87299998D01*
X148501870Y-87367173D01*
X148462025Y-87415723D01*
X148406209Y-87520147D01*
X148391453Y-87547753D01*
X148347996Y-87691014D01*
X148336999Y-87802667D01*
X148336999Y-87802677D01*
X148333323Y-87839999D01*
X148336999Y-87877322D01*
X148337000Y-89645198D01*
X145249955Y-92732244D01*
X145185774Y-92668063D01*
X145016256Y-92554795D01*
X144827898Y-92476774D01*
X144627939Y-92437000D01*
X144424061Y-92437000D01*
X144224102Y-92476774D01*
X144035744Y-92554795D01*
X143866226Y-92668063D01*
X143722063Y-92812226D01*
X143608795Y-92981744D01*
X143530774Y-93170102D01*
X143491000Y-93370061D01*
X143491000Y-93432198D01*
X141119987Y-95803212D01*
X141090989Y-95827010D01*
X141067191Y-95856008D01*
X141067190Y-95856009D01*
X140996015Y-95942735D01*
X140925443Y-96074765D01*
X140905660Y-96139984D01*
X140883717Y-96212324D01*
X140881987Y-96218026D01*
X140867313Y-96367011D01*
X140870990Y-96404344D01*
X140870989Y-121401079D01*
X140867313Y-121438401D01*
X140870989Y-121475723D01*
X140870989Y-121475733D01*
X140881986Y-121587386D01*
X140925443Y-121730647D01*
X140996015Y-121862677D01*
X141015956Y-121886975D01*
X141090988Y-121978402D01*
X141119992Y-122002205D01*
X141395794Y-122278007D01*
X141419597Y-122307011D01*
X141535322Y-122401984D01*
X141667351Y-122472556D01*
X141810612Y-122516013D01*
X141922265Y-122527010D01*
X141922274Y-122527010D01*
X141959597Y-122530686D01*
X141996920Y-122527010D01*
X144719207Y-122527010D01*
X146258864Y-124066668D01*
X146152890Y-124034524D01*
X145923000Y-124155845D01*
X145923000Y-125349000D01*
X145943000Y-125349000D01*
X145943000Y-125603000D01*
X145923000Y-125603000D01*
X145923000Y-126796155D01*
X146152890Y-126917476D01*
X146300099Y-126872825D01*
X146562920Y-126747641D01*
X146796269Y-126573588D01*
X146991178Y-126357355D01*
X147068276Y-126227925D01*
X147113989Y-126457743D01*
X147134042Y-126506155D01*
X145792998Y-127847199D01*
X145764000Y-127870997D01*
X145740202Y-127899995D01*
X145740201Y-127899996D01*
X145669026Y-127986722D01*
X145598454Y-128118752D01*
X145568180Y-128218556D01*
X145558229Y-128251363D01*
X145554998Y-128262013D01*
X145540324Y-128410998D01*
X145544001Y-128448330D01*
X145544001Y-128829956D01*
X145389241Y-128933363D01*
X145189363Y-129133241D01*
X145032320Y-129368273D01*
X144924147Y-129629426D01*
X144869000Y-129906665D01*
X144869000Y-130189335D01*
X144924147Y-130466574D01*
X145032320Y-130727727D01*
X145189363Y-130962759D01*
X145389241Y-131162637D01*
X145624273Y-131319680D01*
X145885426Y-131427853D01*
X146162665Y-131483000D01*
X146445335Y-131483000D01*
X146722574Y-131427853D01*
X146983727Y-131319680D01*
X147218759Y-131162637D01*
X147418637Y-130962759D01*
X147575680Y-130727727D01*
X147683853Y-130466574D01*
X147739000Y-130189335D01*
X147739000Y-130047827D01*
X148304250Y-130045000D01*
X148463000Y-129886250D01*
X148463000Y-128637000D01*
X148443000Y-128637000D01*
X148443000Y-128383000D01*
X148463000Y-128383000D01*
X148463000Y-128363000D01*
X148717000Y-128363000D01*
X148717000Y-128383000D01*
X148737000Y-128383000D01*
X148737000Y-128637000D01*
X148717000Y-128637000D01*
X148717000Y-129886250D01*
X148875750Y-130045000D01*
X149055001Y-130045896D01*
X149055001Y-132781195D01*
X148143006Y-133693191D01*
X148142995Y-133693200D01*
X148142991Y-133693204D01*
X148113998Y-133716998D01*
X148090204Y-133745991D01*
X145793003Y-136043194D01*
X145763999Y-136066997D01*
X145711472Y-136131002D01*
X145669026Y-136182722D01*
X145612675Y-136288147D01*
X145598454Y-136314752D01*
X145560858Y-136438693D01*
X145389241Y-136553363D01*
X145189363Y-136753241D01*
X145085957Y-136908000D01*
X143966043Y-136908000D01*
X143862637Y-136753241D01*
X143662759Y-136553363D01*
X143427727Y-136396320D01*
X143166574Y-136288147D01*
X142889335Y-136233000D01*
X142606665Y-136233000D01*
X142382999Y-136277491D01*
X142382999Y-131487802D01*
X142424113Y-131446688D01*
X142606665Y-131483000D01*
X142889335Y-131483000D01*
X143166574Y-131427853D01*
X143427727Y-131319680D01*
X143662759Y-131162637D01*
X143862637Y-130962759D01*
X144019680Y-130727727D01*
X144127853Y-130466574D01*
X144183000Y-130189335D01*
X144183000Y-129906665D01*
X144127853Y-129629426D01*
X144019680Y-129368273D01*
X143862637Y-129133241D01*
X143662759Y-128933363D01*
X143427727Y-128776320D01*
X143166574Y-128668147D01*
X142889335Y-128613000D01*
X142606665Y-128613000D01*
X142329426Y-128668147D01*
X142068273Y-128776320D01*
X141833241Y-128933363D01*
X141633363Y-129133241D01*
X141476320Y-129368273D01*
X141368147Y-129629426D01*
X141313000Y-129906665D01*
X141313000Y-130189335D01*
X141349312Y-130371887D01*
X141111997Y-130609202D01*
X141082999Y-130633000D01*
X141059201Y-130661998D01*
X141059200Y-130661999D01*
X140988025Y-130748725D01*
X140917453Y-130880755D01*
X140873997Y-131024016D01*
X140859323Y-131173001D01*
X140863000Y-131210333D01*
X140862999Y-138170678D01*
X140859323Y-138208001D01*
X140862999Y-138245323D01*
X140862999Y-138245333D01*
X140873996Y-138356986D01*
X140909433Y-138473808D01*
X140917453Y-138500247D01*
X140988025Y-138632277D01*
X141019806Y-138671002D01*
X141082998Y-138748002D01*
X141112001Y-138771804D01*
X141644199Y-139304003D01*
X141667998Y-139333002D01*
X141696996Y-139356800D01*
X141766644Y-139413960D01*
X141633363Y-139547241D01*
X141476320Y-139782273D01*
X141368147Y-140043426D01*
X141313000Y-140320665D01*
X141313000Y-140603335D01*
X141368147Y-140880574D01*
X141476320Y-141141727D01*
X141633363Y-141376759D01*
X141833241Y-141576637D01*
X142068273Y-141733680D01*
X142329426Y-141841853D01*
X142606665Y-141897000D01*
X142889335Y-141897000D01*
X143071886Y-141860688D01*
X145544001Y-144332804D01*
X145544000Y-146863956D01*
X145389241Y-146967363D01*
X145189363Y-147167241D01*
X145032320Y-147402273D01*
X144924147Y-147663426D01*
X144869000Y-147940665D01*
X144869000Y-148112199D01*
X144327804Y-147571003D01*
X144304001Y-147541999D01*
X144188276Y-147447026D01*
X144056247Y-147376454D01*
X143988747Y-147355978D01*
X143862637Y-147167241D01*
X143662759Y-146967363D01*
X143427727Y-146810320D01*
X143166574Y-146702147D01*
X142889335Y-146647000D01*
X142606665Y-146647000D01*
X142329426Y-146702147D01*
X142068273Y-146810320D01*
X141833241Y-146967363D01*
X141633363Y-147167241D01*
X141476320Y-147402273D01*
X141368147Y-147663426D01*
X141313000Y-147940665D01*
X141313000Y-148223335D01*
X141368147Y-148500574D01*
X141476320Y-148761727D01*
X141633363Y-148996759D01*
X141833241Y-149196637D01*
X142068273Y-149353680D01*
X142329426Y-149461853D01*
X142606665Y-149517000D01*
X142889335Y-149517000D01*
X143166574Y-149461853D01*
X143427727Y-149353680D01*
X143662759Y-149196637D01*
X143733297Y-149126099D01*
X144905312Y-150298114D01*
X144869000Y-150480665D01*
X144869000Y-150763335D01*
X144924147Y-151040574D01*
X145032320Y-151301727D01*
X145189363Y-151536759D01*
X145389241Y-151736637D01*
X145624273Y-151893680D01*
X145885426Y-152001853D01*
X146162665Y-152057000D01*
X146445335Y-152057000D01*
X146722574Y-152001853D01*
X146983727Y-151893680D01*
X147218759Y-151736637D01*
X147418637Y-151536759D01*
X147522043Y-151382000D01*
X147536678Y-151382000D01*
X147574000Y-151385676D01*
X147611322Y-151382000D01*
X147611333Y-151382000D01*
X147722986Y-151371003D01*
X147866247Y-151327546D01*
X147998276Y-151256974D01*
X148114001Y-151162001D01*
X148137804Y-151132997D01*
X148315527Y-150955274D01*
X148381818Y-151173808D01*
X148418592Y-151242607D01*
X145792998Y-153868201D01*
X145764000Y-153891999D01*
X145740202Y-153920997D01*
X145740201Y-153920998D01*
X145669026Y-154007724D01*
X145598454Y-154139754D01*
X145579786Y-154201298D01*
X145554998Y-154283014D01*
X145551722Y-154316275D01*
X145540324Y-154432000D01*
X145544001Y-154469332D01*
X145544000Y-157023956D01*
X145389241Y-157127363D01*
X145189363Y-157327241D01*
X145032320Y-157562273D01*
X144924147Y-157823426D01*
X144869000Y-158100665D01*
X144869000Y-158383335D01*
X144924147Y-158660574D01*
X145032320Y-158921727D01*
X145189363Y-159156759D01*
X145347604Y-159315000D01*
X140685000Y-159315000D01*
X140685000Y-124626000D01*
X141767928Y-124626000D01*
X141767928Y-126326000D01*
X141780188Y-126450482D01*
X141816498Y-126570180D01*
X141875463Y-126680494D01*
X141954815Y-126777185D01*
X142051506Y-126856537D01*
X142161820Y-126915502D01*
X142281518Y-126951812D01*
X142406000Y-126964072D01*
X144106000Y-126964072D01*
X144230482Y-126951812D01*
X144350180Y-126915502D01*
X144460494Y-126856537D01*
X144557185Y-126777185D01*
X144636537Y-126680494D01*
X144695502Y-126570180D01*
X144719966Y-126489534D01*
X144795731Y-126573588D01*
X145029080Y-126747641D01*
X145291901Y-126872825D01*
X145439110Y-126917476D01*
X145669000Y-126796155D01*
X145669000Y-125603000D01*
X145649000Y-125603000D01*
X145649000Y-125349000D01*
X145669000Y-125349000D01*
X145669000Y-124155845D01*
X145439110Y-124034524D01*
X145291901Y-124079175D01*
X145029080Y-124204359D01*
X144795731Y-124378412D01*
X144719966Y-124462466D01*
X144695502Y-124381820D01*
X144636537Y-124271506D01*
X144557185Y-124174815D01*
X144460494Y-124095463D01*
X144350180Y-124036498D01*
X144230482Y-124000188D01*
X144106000Y-123987928D01*
X142406000Y-123987928D01*
X142281518Y-124000188D01*
X142161820Y-124036498D01*
X142051506Y-124095463D01*
X141954815Y-124174815D01*
X141875463Y-124271506D01*
X141816498Y-124381820D01*
X141780188Y-124501518D01*
X141767928Y-124626000D01*
X140685000Y-124626000D01*
X140685000Y-88758665D01*
X145377000Y-88758665D01*
X145377000Y-89041335D01*
X145432147Y-89318574D01*
X145540320Y-89579727D01*
X145697363Y-89814759D01*
X145897241Y-90014637D01*
X146132273Y-90171680D01*
X146393426Y-90279853D01*
X146670665Y-90335000D01*
X146953335Y-90335000D01*
X147230574Y-90279853D01*
X147491727Y-90171680D01*
X147726759Y-90014637D01*
X147926637Y-89814759D01*
X148083680Y-89579727D01*
X148191853Y-89318574D01*
X148247000Y-89041335D01*
X148247000Y-88758665D01*
X148191853Y-88481426D01*
X148083680Y-88220273D01*
X147926637Y-87985241D01*
X147726759Y-87785363D01*
X147572000Y-87681957D01*
X147572000Y-84694665D01*
X150537000Y-84694665D01*
X150537000Y-84977335D01*
X150592147Y-85254574D01*
X150700320Y-85515727D01*
X150857363Y-85750759D01*
X151057241Y-85950637D01*
X151292273Y-86107680D01*
X151553426Y-86215853D01*
X151830665Y-86271000D01*
X152113335Y-86271000D01*
X152390574Y-86215853D01*
X152651727Y-86107680D01*
X152886759Y-85950637D01*
X153008694Y-85828702D01*
X156158903Y-85828702D01*
X156230486Y-86072671D01*
X156485996Y-86193571D01*
X156760184Y-86262300D01*
X157042512Y-86276217D01*
X157322130Y-86234787D01*
X157588292Y-86139603D01*
X157713514Y-86072671D01*
X157785097Y-85828702D01*
X156972000Y-85015605D01*
X156158903Y-85828702D01*
X153008694Y-85828702D01*
X153086637Y-85750759D01*
X153243680Y-85515727D01*
X153351853Y-85254574D01*
X153407000Y-84977335D01*
X153407000Y-84906512D01*
X155531783Y-84906512D01*
X155573213Y-85186130D01*
X155668397Y-85452292D01*
X155735329Y-85577514D01*
X155979298Y-85649097D01*
X156792395Y-84836000D01*
X157151605Y-84836000D01*
X157964702Y-85649097D01*
X158208671Y-85577514D01*
X158329571Y-85322004D01*
X158398300Y-85047816D01*
X158412217Y-84765488D01*
X158370787Y-84485870D01*
X158275603Y-84219708D01*
X158208671Y-84094486D01*
X157964702Y-84022903D01*
X157151605Y-84836000D01*
X156792395Y-84836000D01*
X155979298Y-84022903D01*
X155735329Y-84094486D01*
X155614429Y-84349996D01*
X155545700Y-84624184D01*
X155531783Y-84906512D01*
X153407000Y-84906512D01*
X153407000Y-84694665D01*
X153351853Y-84417426D01*
X153243680Y-84156273D01*
X153086637Y-83921241D01*
X153008694Y-83843298D01*
X156158903Y-83843298D01*
X156972000Y-84656395D01*
X157785097Y-83843298D01*
X157713514Y-83599329D01*
X157458004Y-83478429D01*
X157183816Y-83409700D01*
X156901488Y-83395783D01*
X156621870Y-83437213D01*
X156355708Y-83532397D01*
X156230486Y-83599329D01*
X156158903Y-83843298D01*
X153008694Y-83843298D01*
X152886759Y-83721363D01*
X152651727Y-83564320D01*
X152390574Y-83456147D01*
X152113335Y-83401000D01*
X151830665Y-83401000D01*
X151553426Y-83456147D01*
X151292273Y-83564320D01*
X151057241Y-83721363D01*
X150857363Y-83921241D01*
X150700320Y-84156273D01*
X150592147Y-84417426D01*
X150537000Y-84694665D01*
X147572000Y-84694665D01*
X147572000Y-77068902D01*
X153828000Y-77068902D01*
X153828000Y-77513098D01*
X153914658Y-77948759D01*
X154084645Y-78359143D01*
X154331427Y-78728479D01*
X154645521Y-79042573D01*
X155014857Y-79289355D01*
X155425241Y-79459342D01*
X155860902Y-79546000D01*
X156305098Y-79546000D01*
X156740759Y-79459342D01*
X157151143Y-79289355D01*
X157520479Y-79042573D01*
X157834573Y-78728479D01*
X158081355Y-78359143D01*
X158251342Y-77948759D01*
X158338000Y-77513098D01*
X158338000Y-77068902D01*
X158251342Y-76633241D01*
X158081355Y-76222857D01*
X157921757Y-75984000D01*
X164423928Y-75984000D01*
X164436188Y-76108482D01*
X164472498Y-76228180D01*
X164531463Y-76338494D01*
X164610815Y-76435185D01*
X164707506Y-76514537D01*
X164817820Y-76573502D01*
X164937518Y-76609812D01*
X165062000Y-76622072D01*
X165576250Y-76619000D01*
X165735000Y-76460250D01*
X165735000Y-75311000D01*
X165989000Y-75311000D01*
X165989000Y-76460250D01*
X166147750Y-76619000D01*
X166662000Y-76622072D01*
X166786482Y-76609812D01*
X166906180Y-76573502D01*
X167016494Y-76514537D01*
X167113185Y-76435185D01*
X167192537Y-76338494D01*
X167251502Y-76228180D01*
X167287812Y-76108482D01*
X167300072Y-75984000D01*
X167297000Y-75469750D01*
X167138250Y-75311000D01*
X165989000Y-75311000D01*
X165735000Y-75311000D01*
X164585750Y-75311000D01*
X164427000Y-75469750D01*
X164423928Y-75984000D01*
X157921757Y-75984000D01*
X157834573Y-75853521D01*
X157520479Y-75539427D01*
X157151143Y-75292645D01*
X156740759Y-75122658D01*
X156305098Y-75036000D01*
X155860902Y-75036000D01*
X155425241Y-75122658D01*
X155014857Y-75292645D01*
X154645521Y-75539427D01*
X154331427Y-75853521D01*
X154084645Y-76222857D01*
X153914658Y-76633241D01*
X153828000Y-77068902D01*
X147572000Y-77068902D01*
X147572000Y-76518140D01*
X147683000Y-76529072D01*
X148297250Y-76526000D01*
X148456000Y-76367250D01*
X148456000Y-75118000D01*
X148710000Y-75118000D01*
X148710000Y-76367250D01*
X148868750Y-76526000D01*
X149483000Y-76529072D01*
X149607482Y-76516812D01*
X149727180Y-76480502D01*
X149837494Y-76421537D01*
X149934185Y-76342185D01*
X150013537Y-76245494D01*
X150072502Y-76135180D01*
X150108812Y-76015482D01*
X150121072Y-75891000D01*
X150118000Y-75276750D01*
X149959250Y-75118000D01*
X148710000Y-75118000D01*
X148456000Y-75118000D01*
X148436000Y-75118000D01*
X148436000Y-74864000D01*
X148456000Y-74864000D01*
X148456000Y-74844000D01*
X148710000Y-74844000D01*
X148710000Y-74864000D01*
X149959250Y-74864000D01*
X150118000Y-74705250D01*
X150119606Y-74384000D01*
X164423928Y-74384000D01*
X164427000Y-74898250D01*
X164585750Y-75057000D01*
X165735000Y-75057000D01*
X165735000Y-75037000D01*
X165989000Y-75037000D01*
X165989000Y-75057000D01*
X167138250Y-75057000D01*
X167297000Y-74898250D01*
X167300072Y-74384000D01*
X167287812Y-74259518D01*
X167251502Y-74139820D01*
X167192537Y-74029506D01*
X167113185Y-73932815D01*
X167016494Y-73853463D01*
X166906180Y-73794498D01*
X166810057Y-73765339D01*
X166976637Y-73598759D01*
X167133680Y-73363727D01*
X167241853Y-73102574D01*
X167297000Y-72825335D01*
X167297000Y-72542665D01*
X167241853Y-72265426D01*
X167133680Y-72004273D01*
X166976637Y-71769241D01*
X166776759Y-71569363D01*
X166541727Y-71412320D01*
X166280574Y-71304147D01*
X166003335Y-71249000D01*
X165720665Y-71249000D01*
X165443426Y-71304147D01*
X165182273Y-71412320D01*
X164947241Y-71569363D01*
X164747363Y-71769241D01*
X164590320Y-72004273D01*
X164482147Y-72265426D01*
X164427000Y-72542665D01*
X164427000Y-72825335D01*
X164482147Y-73102574D01*
X164590320Y-73363727D01*
X164747363Y-73598759D01*
X164913943Y-73765339D01*
X164817820Y-73794498D01*
X164707506Y-73853463D01*
X164610815Y-73932815D01*
X164531463Y-74029506D01*
X164472498Y-74139820D01*
X164436188Y-74259518D01*
X164423928Y-74384000D01*
X150119606Y-74384000D01*
X150121072Y-74091000D01*
X150108812Y-73966518D01*
X150072502Y-73846820D01*
X150013537Y-73736506D01*
X149934185Y-73639815D01*
X149837494Y-73560463D01*
X149737697Y-73507120D01*
X149775312Y-73469505D01*
X149943299Y-73218095D01*
X150059011Y-72938743D01*
X150118000Y-72642184D01*
X150118000Y-72339816D01*
X150059011Y-72043257D01*
X149943299Y-71763905D01*
X149775312Y-71512495D01*
X149561505Y-71298688D01*
X149475169Y-71241000D01*
X149561505Y-71183312D01*
X149775312Y-70969505D01*
X149943299Y-70718095D01*
X150059011Y-70438743D01*
X150118000Y-70142184D01*
X150118000Y-69839816D01*
X150059011Y-69543257D01*
X149943299Y-69263905D01*
X149775312Y-69012495D01*
X149561505Y-68798688D01*
X149310095Y-68630701D01*
X149030743Y-68514989D01*
X148734184Y-68456000D01*
X148431816Y-68456000D01*
X148135257Y-68514989D01*
X147855905Y-68630701D01*
X147604495Y-68798688D01*
X147390688Y-69012495D01*
X147222701Y-69263905D01*
X147106989Y-69543257D01*
X147048000Y-69839816D01*
X147048000Y-70142184D01*
X147106989Y-70438743D01*
X147222701Y-70718095D01*
X147390688Y-70969505D01*
X147604495Y-71183312D01*
X147690831Y-71241000D01*
X147604495Y-71298688D01*
X147390688Y-71512495D01*
X147222701Y-71763905D01*
X147106989Y-72043257D01*
X147048000Y-72339816D01*
X147048000Y-72642184D01*
X147099269Y-72899930D01*
X146300998Y-73698201D01*
X146272000Y-73721999D01*
X146248202Y-73750997D01*
X146248201Y-73750998D01*
X146177026Y-73837724D01*
X146106454Y-73969754D01*
X146089393Y-74026000D01*
X146062998Y-74113014D01*
X146060358Y-74139820D01*
X146048324Y-74262000D01*
X146052001Y-74299332D01*
X146052000Y-87681957D01*
X145897241Y-87785363D01*
X145697363Y-87985241D01*
X145540320Y-88220273D01*
X145432147Y-88481426D01*
X145377000Y-88758665D01*
X140685000Y-88758665D01*
X140685000Y-65685000D01*
X155033314Y-65685000D01*
X155014857Y-65692645D01*
G37*
%TD.AperFunction*%
D25*
X148339633Y-140030182D02*
X148322096Y-140112961D01*
X148444085Y-140335000D01*
X149987000Y-140335000D01*
X149987000Y-140315000D01*
X150241000Y-140315000D01*
X150241000Y-140335000D01*
X151783915Y-140335000D01*
X151905904Y-140112961D01*
X151888367Y-140030182D01*
X151793326Y-139807010D01*
X156056970Y-139807010D01*
X156001818Y-139910192D01*
X155919764Y-140180691D01*
X155892057Y-140462000D01*
X155919764Y-140743309D01*
X156001818Y-141013808D01*
X156135068Y-141263101D01*
X156314392Y-141481608D01*
X156532899Y-141660932D01*
X156665858Y-141732000D01*
X156532899Y-141803068D01*
X156314392Y-141982392D01*
X156135068Y-142200899D01*
X156001818Y-142450192D01*
X155919764Y-142720691D01*
X155892057Y-143002000D01*
X155919764Y-143283309D01*
X156001818Y-143553808D01*
X156135068Y-143803101D01*
X156314392Y-144021608D01*
X156532899Y-144200932D01*
X156660741Y-144269265D01*
X156431161Y-144419399D01*
X156229500Y-144617105D01*
X156070285Y-144850354D01*
X155959633Y-145110182D01*
X155942096Y-145192961D01*
X156064085Y-145415000D01*
X157607000Y-145415000D01*
X157607000Y-145395000D01*
X157861000Y-145395000D01*
X157861000Y-145415000D01*
X157881000Y-145415000D01*
X157881000Y-145669000D01*
X157861000Y-145669000D01*
X157861000Y-145689000D01*
X157607000Y-145689000D01*
X157607000Y-145669000D01*
X156064085Y-145669000D01*
X155942096Y-145891039D01*
X155959633Y-145973818D01*
X156054674Y-146196990D01*
X151793326Y-146196990D01*
X151888367Y-145973818D01*
X151905904Y-145891039D01*
X151783915Y-145669000D01*
X150241000Y-145669000D01*
X150241000Y-145689000D01*
X149987000Y-145689000D01*
X149987000Y-145669000D01*
X148444085Y-145669000D01*
X148322096Y-145891039D01*
X148339633Y-145973818D01*
X148450285Y-146233646D01*
X148609500Y-146466895D01*
X148811161Y-146664601D01*
X149040741Y-146814735D01*
X148912899Y-146883068D01*
X148694392Y-147062392D01*
X148515068Y-147280899D01*
X148381818Y-147530192D01*
X148299764Y-147800691D01*
X148272057Y-148082000D01*
X148299764Y-148363309D01*
X148381818Y-148633808D01*
X148418592Y-148702606D01*
X147416297Y-149704901D01*
X147218759Y-149507363D01*
X146986241Y-149352000D01*
X147218759Y-149196637D01*
X147418637Y-148996759D01*
X147575680Y-148761727D01*
X147683853Y-148500574D01*
X147739000Y-148223335D01*
X147739000Y-147940665D01*
X147683853Y-147663426D01*
X147575680Y-147402273D01*
X147418637Y-147167241D01*
X147218759Y-146967363D01*
X147064000Y-146863957D01*
X147064000Y-144055322D01*
X147067676Y-144017999D01*
X147064000Y-143980676D01*
X147064000Y-143980667D01*
X147053003Y-143869014D01*
X147009546Y-143725753D01*
X146938974Y-143593724D01*
X146880930Y-143522997D01*
X146867799Y-143506996D01*
X146867795Y-143506992D01*
X146844001Y-143477999D01*
X146815008Y-143454205D01*
X146362803Y-143002000D01*
X148272057Y-143002000D01*
X148299764Y-143283309D01*
X148381818Y-143553808D01*
X148515068Y-143803101D01*
X148694392Y-144021608D01*
X148912899Y-144200932D01*
X149040741Y-144269265D01*
X148811161Y-144419399D01*
X148609500Y-144617105D01*
X148450285Y-144850354D01*
X148339633Y-145110182D01*
X148322096Y-145192961D01*
X148444085Y-145415000D01*
X149987000Y-145415000D01*
X149987000Y-145395000D01*
X150241000Y-145395000D01*
X150241000Y-145415000D01*
X151783915Y-145415000D01*
X151905904Y-145192961D01*
X151888367Y-145110182D01*
X151777715Y-144850354D01*
X151618500Y-144617105D01*
X151416839Y-144419399D01*
X151187259Y-144269265D01*
X151315101Y-144200932D01*
X151533608Y-144021608D01*
X151712932Y-143803101D01*
X151846182Y-143553808D01*
X151928236Y-143283309D01*
X151955943Y-143002000D01*
X151928236Y-142720691D01*
X151846182Y-142450192D01*
X151712932Y-142200899D01*
X151533608Y-141982392D01*
X151315101Y-141803068D01*
X151187259Y-141734735D01*
X151416839Y-141584601D01*
X151618500Y-141386895D01*
X151777715Y-141153646D01*
X151888367Y-140893818D01*
X151905904Y-140811039D01*
X151783915Y-140589000D01*
X150241000Y-140589000D01*
X150241000Y-140609000D01*
X149987000Y-140609000D01*
X149987000Y-140589000D01*
X148444085Y-140589000D01*
X148322096Y-140811039D01*
X148339633Y-140893818D01*
X148450285Y-141153646D01*
X148609500Y-141386895D01*
X148811161Y-141584601D01*
X149040741Y-141734735D01*
X148912899Y-141803068D01*
X148694392Y-141982392D01*
X148515068Y-142200899D01*
X148381818Y-142450192D01*
X148299764Y-142720691D01*
X148272057Y-143002000D01*
X146362803Y-143002000D01*
X144146688Y-140785886D01*
X144183000Y-140603335D01*
X144183000Y-140320665D01*
X144146688Y-140138114D01*
X144187803Y-140096999D01*
X144913491Y-140096999D01*
X144869000Y-140320665D01*
X144869000Y-140603335D01*
X144924147Y-140880574D01*
X145032320Y-141141727D01*
X145189363Y-141376759D01*
X145389241Y-141576637D01*
X145624273Y-141733680D01*
X145885426Y-141841853D01*
X146162665Y-141897000D01*
X146445335Y-141897000D01*
X146722574Y-141841853D01*
X146983727Y-141733680D01*
X147218759Y-141576637D01*
X147418637Y-141376759D01*
X147575680Y-141141727D01*
X147683853Y-140880574D01*
X147739000Y-140603335D01*
X147739000Y-140320665D01*
X147702688Y-140138114D01*
X148033792Y-139807010D01*
X148434674Y-139807010D01*
X148339633Y-140030182D01*
%TA.AperFunction,Conductor*%
D26*
G36*
X148339633Y-140030182D02*
G01*
X148322096Y-140112961D01*
X148444085Y-140335000D01*
X149987000Y-140335000D01*
X149987000Y-140315000D01*
X150241000Y-140315000D01*
X150241000Y-140335000D01*
X151783915Y-140335000D01*
X151905904Y-140112961D01*
X151888367Y-140030182D01*
X151793326Y-139807010D01*
X156056970Y-139807010D01*
X156001818Y-139910192D01*
X155919764Y-140180691D01*
X155892057Y-140462000D01*
X155919764Y-140743309D01*
X156001818Y-141013808D01*
X156135068Y-141263101D01*
X156314392Y-141481608D01*
X156532899Y-141660932D01*
X156665858Y-141732000D01*
X156532899Y-141803068D01*
X156314392Y-141982392D01*
X156135068Y-142200899D01*
X156001818Y-142450192D01*
X155919764Y-142720691D01*
X155892057Y-143002000D01*
X155919764Y-143283309D01*
X156001818Y-143553808D01*
X156135068Y-143803101D01*
X156314392Y-144021608D01*
X156532899Y-144200932D01*
X156660741Y-144269265D01*
X156431161Y-144419399D01*
X156229500Y-144617105D01*
X156070285Y-144850354D01*
X155959633Y-145110182D01*
X155942096Y-145192961D01*
X156064085Y-145415000D01*
X157607000Y-145415000D01*
X157607000Y-145395000D01*
X157861000Y-145395000D01*
X157861000Y-145415000D01*
X157881000Y-145415000D01*
X157881000Y-145669000D01*
X157861000Y-145669000D01*
X157861000Y-145689000D01*
X157607000Y-145689000D01*
X157607000Y-145669000D01*
X156064085Y-145669000D01*
X155942096Y-145891039D01*
X155959633Y-145973818D01*
X156054674Y-146196990D01*
X151793326Y-146196990D01*
X151888367Y-145973818D01*
X151905904Y-145891039D01*
X151783915Y-145669000D01*
X150241000Y-145669000D01*
X150241000Y-145689000D01*
X149987000Y-145689000D01*
X149987000Y-145669000D01*
X148444085Y-145669000D01*
X148322096Y-145891039D01*
X148339633Y-145973818D01*
X148450285Y-146233646D01*
X148609500Y-146466895D01*
X148811161Y-146664601D01*
X149040741Y-146814735D01*
X148912899Y-146883068D01*
X148694392Y-147062392D01*
X148515068Y-147280899D01*
X148381818Y-147530192D01*
X148299764Y-147800691D01*
X148272057Y-148082000D01*
X148299764Y-148363309D01*
X148381818Y-148633808D01*
X148418592Y-148702606D01*
X147416297Y-149704901D01*
X147218759Y-149507363D01*
X146986241Y-149352000D01*
X147218759Y-149196637D01*
X147418637Y-148996759D01*
X147575680Y-148761727D01*
X147683853Y-148500574D01*
X147739000Y-148223335D01*
X147739000Y-147940665D01*
X147683853Y-147663426D01*
X147575680Y-147402273D01*
X147418637Y-147167241D01*
X147218759Y-146967363D01*
X147064000Y-146863957D01*
X147064000Y-144055322D01*
X147067676Y-144017999D01*
X147064000Y-143980676D01*
X147064000Y-143980667D01*
X147053003Y-143869014D01*
X147009546Y-143725753D01*
X146938974Y-143593724D01*
X146880930Y-143522997D01*
X146867799Y-143506996D01*
X146867795Y-143506992D01*
X146844001Y-143477999D01*
X146815008Y-143454205D01*
X146362803Y-143002000D01*
X148272057Y-143002000D01*
X148299764Y-143283309D01*
X148381818Y-143553808D01*
X148515068Y-143803101D01*
X148694392Y-144021608D01*
X148912899Y-144200932D01*
X149040741Y-144269265D01*
X148811161Y-144419399D01*
X148609500Y-144617105D01*
X148450285Y-144850354D01*
X148339633Y-145110182D01*
X148322096Y-145192961D01*
X148444085Y-145415000D01*
X149987000Y-145415000D01*
X149987000Y-145395000D01*
X150241000Y-145395000D01*
X150241000Y-145415000D01*
X151783915Y-145415000D01*
X151905904Y-145192961D01*
X151888367Y-145110182D01*
X151777715Y-144850354D01*
X151618500Y-144617105D01*
X151416839Y-144419399D01*
X151187259Y-144269265D01*
X151315101Y-144200932D01*
X151533608Y-144021608D01*
X151712932Y-143803101D01*
X151846182Y-143553808D01*
X151928236Y-143283309D01*
X151955943Y-143002000D01*
X151928236Y-142720691D01*
X151846182Y-142450192D01*
X151712932Y-142200899D01*
X151533608Y-141982392D01*
X151315101Y-141803068D01*
X151187259Y-141734735D01*
X151416839Y-141584601D01*
X151618500Y-141386895D01*
X151777715Y-141153646D01*
X151888367Y-140893818D01*
X151905904Y-140811039D01*
X151783915Y-140589000D01*
X150241000Y-140589000D01*
X150241000Y-140609000D01*
X149987000Y-140609000D01*
X149987000Y-140589000D01*
X148444085Y-140589000D01*
X148322096Y-140811039D01*
X148339633Y-140893818D01*
X148450285Y-141153646D01*
X148609500Y-141386895D01*
X148811161Y-141584601D01*
X149040741Y-141734735D01*
X148912899Y-141803068D01*
X148694392Y-141982392D01*
X148515068Y-142200899D01*
X148381818Y-142450192D01*
X148299764Y-142720691D01*
X148272057Y-143002000D01*
X146362803Y-143002000D01*
X144146688Y-140785886D01*
X144183000Y-140603335D01*
X144183000Y-140320665D01*
X144146688Y-140138114D01*
X144187803Y-140096999D01*
X144913491Y-140096999D01*
X144869000Y-140320665D01*
X144869000Y-140603335D01*
X144924147Y-140880574D01*
X145032320Y-141141727D01*
X145189363Y-141376759D01*
X145389241Y-141576637D01*
X145624273Y-141733680D01*
X145885426Y-141841853D01*
X146162665Y-141897000D01*
X146445335Y-141897000D01*
X146722574Y-141841853D01*
X146983727Y-141733680D01*
X147218759Y-141576637D01*
X147418637Y-141376759D01*
X147575680Y-141141727D01*
X147683853Y-140880574D01*
X147739000Y-140603335D01*
X147739000Y-140320665D01*
X147702688Y-140138114D01*
X148033792Y-139807010D01*
X148434674Y-139807010D01*
X148339633Y-140030182D01*
G37*
%TD.AperFunction*%
D25*
X165719002Y-126915804D02*
X165719002Y-135261491D01*
X165495335Y-135217000D01*
X165212665Y-135217000D01*
X165130876Y-135233269D01*
X165076704Y-135179097D01*
X165320671Y-135107514D01*
X165441571Y-134852004D01*
X165510300Y-134577816D01*
X165524217Y-134295488D01*
X165482787Y-134015870D01*
X165387603Y-133749708D01*
X165320671Y-133624486D01*
X165076702Y-133552903D01*
X164263605Y-134366000D01*
X164277748Y-134380143D01*
X164098143Y-134559748D01*
X164084000Y-134545605D01*
X164069858Y-134559748D01*
X163890253Y-134380143D01*
X163904395Y-134366000D01*
X163890253Y-134351858D01*
X164069858Y-134172253D01*
X164084000Y-134186395D01*
X164897097Y-133373298D01*
X164825514Y-133129329D01*
X164570004Y-133008429D01*
X164295816Y-132939700D01*
X164013488Y-132925783D01*
X163733870Y-132967213D01*
X163718999Y-132972531D01*
X163718999Y-130756509D01*
X163942665Y-130801000D01*
X164225335Y-130801000D01*
X164502574Y-130745853D01*
X164763727Y-130637680D01*
X164998759Y-130480637D01*
X165198637Y-130280759D01*
X165355680Y-130045727D01*
X165463853Y-129784574D01*
X165519000Y-129507335D01*
X165519000Y-129224665D01*
X165463853Y-128947426D01*
X165355680Y-128686273D01*
X165198637Y-128451241D01*
X164998759Y-128251363D01*
X164763727Y-128094320D01*
X164502574Y-127986147D01*
X164225335Y-127931000D01*
X163942665Y-127931000D01*
X163718999Y-127975491D01*
X163718999Y-125440072D01*
X164243271Y-125440072D01*
X165719002Y-126915804D01*
%TA.AperFunction,Conductor*%
D26*
G36*
X165719002Y-126915804D02*
G01*
X165719002Y-135261491D01*
X165495335Y-135217000D01*
X165212665Y-135217000D01*
X165130876Y-135233269D01*
X165076704Y-135179097D01*
X165320671Y-135107514D01*
X165441571Y-134852004D01*
X165510300Y-134577816D01*
X165524217Y-134295488D01*
X165482787Y-134015870D01*
X165387603Y-133749708D01*
X165320671Y-133624486D01*
X165076702Y-133552903D01*
X164263605Y-134366000D01*
X164277748Y-134380143D01*
X164098143Y-134559748D01*
X164084000Y-134545605D01*
X164069858Y-134559748D01*
X163890253Y-134380143D01*
X163904395Y-134366000D01*
X163890253Y-134351858D01*
X164069858Y-134172253D01*
X164084000Y-134186395D01*
X164897097Y-133373298D01*
X164825514Y-133129329D01*
X164570004Y-133008429D01*
X164295816Y-132939700D01*
X164013488Y-132925783D01*
X163733870Y-132967213D01*
X163718999Y-132972531D01*
X163718999Y-130756509D01*
X163942665Y-130801000D01*
X164225335Y-130801000D01*
X164502574Y-130745853D01*
X164763727Y-130637680D01*
X164998759Y-130480637D01*
X165198637Y-130280759D01*
X165355680Y-130045727D01*
X165463853Y-129784574D01*
X165519000Y-129507335D01*
X165519000Y-129224665D01*
X165463853Y-128947426D01*
X165355680Y-128686273D01*
X165198637Y-128451241D01*
X164998759Y-128251363D01*
X164763727Y-128094320D01*
X164502574Y-127986147D01*
X164225335Y-127931000D01*
X163942665Y-127931000D01*
X163718999Y-127975491D01*
X163718999Y-125440072D01*
X164243271Y-125440072D01*
X165719002Y-126915804D01*
G37*
%TD.AperFunction*%
D25*
X154767222Y-114299022D02*
X154533241Y-114455363D01*
X154333363Y-114655241D01*
X154176320Y-114890273D01*
X154068147Y-115151426D01*
X154054324Y-115220920D01*
X153892406Y-115059003D01*
X153868603Y-115029999D01*
X153752878Y-114935026D01*
X153620849Y-114864454D01*
X153477588Y-114820997D01*
X153365935Y-114810000D01*
X153365924Y-114810000D01*
X153328602Y-114806324D01*
X153291280Y-114810000D01*
X153110043Y-114810000D01*
X153006637Y-114655241D01*
X152806759Y-114455363D01*
X152571727Y-114298320D01*
X152310574Y-114190147D01*
X152033335Y-114135000D01*
X151750665Y-114135000D01*
X151473426Y-114190147D01*
X151212273Y-114298320D01*
X150977241Y-114455363D01*
X150777363Y-114655241D01*
X150620320Y-114890273D01*
X150512147Y-115151426D01*
X150457000Y-115428665D01*
X150457000Y-115711335D01*
X150512147Y-115988574D01*
X150620320Y-116249727D01*
X150777363Y-116484759D01*
X150977241Y-116684637D01*
X151212273Y-116841680D01*
X151473426Y-116949853D01*
X151750665Y-117005000D01*
X152033335Y-117005000D01*
X152310574Y-116949853D01*
X152571727Y-116841680D01*
X152806759Y-116684637D01*
X153006637Y-116484759D01*
X153071494Y-116387693D01*
X155676810Y-118993010D01*
X155432241Y-119041658D01*
X155021857Y-119211645D01*
X154652521Y-119458427D01*
X154338427Y-119772521D01*
X154091645Y-120141857D01*
X153921658Y-120552241D01*
X153835000Y-120987902D01*
X153835000Y-121432098D01*
X153921658Y-121867759D01*
X154091645Y-122278143D01*
X154338427Y-122647479D01*
X154652521Y-122961573D01*
X155021857Y-123208355D01*
X155432241Y-123378342D01*
X155867902Y-123465000D01*
X156312098Y-123465000D01*
X156747759Y-123378342D01*
X157158143Y-123208355D01*
X157527479Y-122961573D01*
X157841573Y-122647479D01*
X158088355Y-122278143D01*
X158258342Y-121867759D01*
X158306990Y-121623190D01*
X158499011Y-121815212D01*
X158499010Y-133993154D01*
X158415309Y-133967764D01*
X158204492Y-133947000D01*
X157373802Y-133947000D01*
X156461987Y-133035185D01*
X156747759Y-132978342D01*
X157158143Y-132808355D01*
X157527479Y-132561573D01*
X157841573Y-132247479D01*
X158088355Y-131878143D01*
X158258342Y-131467759D01*
X158345000Y-131032098D01*
X158345000Y-130587902D01*
X158258342Y-130152241D01*
X158088355Y-129741857D01*
X157841573Y-129372521D01*
X157527479Y-129058427D01*
X157158143Y-128811645D01*
X156747759Y-128641658D01*
X156312098Y-128555000D01*
X155867902Y-128555000D01*
X155432241Y-128641658D01*
X155021857Y-128811645D01*
X154904999Y-128889727D01*
X154904999Y-127289320D01*
X154908675Y-127251997D01*
X154904999Y-127214674D01*
X154904999Y-127214664D01*
X154894002Y-127103011D01*
X154850545Y-126959750D01*
X154779973Y-126827721D01*
X154685000Y-126711996D01*
X154656003Y-126688199D01*
X148773807Y-120806004D01*
X148750004Y-120777000D01*
X148634279Y-120682027D01*
X148502250Y-120611455D01*
X148358989Y-120567998D01*
X148247336Y-120557001D01*
X148247325Y-120557001D01*
X148210003Y-120553325D01*
X148172681Y-120557001D01*
X147216868Y-120557001D01*
X147237481Y-120498891D01*
X147116814Y-120269000D01*
X145923000Y-120269000D01*
X145923000Y-120289000D01*
X145669000Y-120289000D01*
X145669000Y-120269000D01*
X145649000Y-120269000D01*
X145649000Y-120015000D01*
X145669000Y-120015000D01*
X145669000Y-119995000D01*
X145923000Y-119995000D01*
X145923000Y-120015000D01*
X147116814Y-120015000D01*
X147237481Y-119785109D01*
X147140157Y-119510748D01*
X146991178Y-119260645D01*
X146796269Y-119044412D01*
X146562920Y-118870359D01*
X146300099Y-118745175D01*
X146152890Y-118700524D01*
X145923002Y-118821844D01*
X145923002Y-118657000D01*
X145815801Y-118657000D01*
X148448005Y-116024797D01*
X148477002Y-116001000D01*
X148537822Y-115926891D01*
X148571975Y-115885276D01*
X148642547Y-115753246D01*
X148655260Y-115711335D01*
X148686004Y-115609985D01*
X148697001Y-115498332D01*
X148697001Y-115498323D01*
X148700677Y-115461000D01*
X148697001Y-115423677D01*
X148697001Y-108228800D01*
X154767222Y-114299022D01*
%TA.AperFunction,Conductor*%
D26*
G36*
X154767222Y-114299022D02*
G01*
X154533241Y-114455363D01*
X154333363Y-114655241D01*
X154176320Y-114890273D01*
X154068147Y-115151426D01*
X154054324Y-115220920D01*
X153892406Y-115059003D01*
X153868603Y-115029999D01*
X153752878Y-114935026D01*
X153620849Y-114864454D01*
X153477588Y-114820997D01*
X153365935Y-114810000D01*
X153365924Y-114810000D01*
X153328602Y-114806324D01*
X153291280Y-114810000D01*
X153110043Y-114810000D01*
X153006637Y-114655241D01*
X152806759Y-114455363D01*
X152571727Y-114298320D01*
X152310574Y-114190147D01*
X152033335Y-114135000D01*
X151750665Y-114135000D01*
X151473426Y-114190147D01*
X151212273Y-114298320D01*
X150977241Y-114455363D01*
X150777363Y-114655241D01*
X150620320Y-114890273D01*
X150512147Y-115151426D01*
X150457000Y-115428665D01*
X150457000Y-115711335D01*
X150512147Y-115988574D01*
X150620320Y-116249727D01*
X150777363Y-116484759D01*
X150977241Y-116684637D01*
X151212273Y-116841680D01*
X151473426Y-116949853D01*
X151750665Y-117005000D01*
X152033335Y-117005000D01*
X152310574Y-116949853D01*
X152571727Y-116841680D01*
X152806759Y-116684637D01*
X153006637Y-116484759D01*
X153071494Y-116387693D01*
X155676810Y-118993010D01*
X155432241Y-119041658D01*
X155021857Y-119211645D01*
X154652521Y-119458427D01*
X154338427Y-119772521D01*
X154091645Y-120141857D01*
X153921658Y-120552241D01*
X153835000Y-120987902D01*
X153835000Y-121432098D01*
X153921658Y-121867759D01*
X154091645Y-122278143D01*
X154338427Y-122647479D01*
X154652521Y-122961573D01*
X155021857Y-123208355D01*
X155432241Y-123378342D01*
X155867902Y-123465000D01*
X156312098Y-123465000D01*
X156747759Y-123378342D01*
X157158143Y-123208355D01*
X157527479Y-122961573D01*
X157841573Y-122647479D01*
X158088355Y-122278143D01*
X158258342Y-121867759D01*
X158306990Y-121623190D01*
X158499011Y-121815212D01*
X158499010Y-133993154D01*
X158415309Y-133967764D01*
X158204492Y-133947000D01*
X157373802Y-133947000D01*
X156461987Y-133035185D01*
X156747759Y-132978342D01*
X157158143Y-132808355D01*
X157527479Y-132561573D01*
X157841573Y-132247479D01*
X158088355Y-131878143D01*
X158258342Y-131467759D01*
X158345000Y-131032098D01*
X158345000Y-130587902D01*
X158258342Y-130152241D01*
X158088355Y-129741857D01*
X157841573Y-129372521D01*
X157527479Y-129058427D01*
X157158143Y-128811645D01*
X156747759Y-128641658D01*
X156312098Y-128555000D01*
X155867902Y-128555000D01*
X155432241Y-128641658D01*
X155021857Y-128811645D01*
X154904999Y-128889727D01*
X154904999Y-127289320D01*
X154908675Y-127251997D01*
X154904999Y-127214674D01*
X154904999Y-127214664D01*
X154894002Y-127103011D01*
X154850545Y-126959750D01*
X154779973Y-126827721D01*
X154685000Y-126711996D01*
X154656003Y-126688199D01*
X148773807Y-120806004D01*
X148750004Y-120777000D01*
X148634279Y-120682027D01*
X148502250Y-120611455D01*
X148358989Y-120567998D01*
X148247336Y-120557001D01*
X148247325Y-120557001D01*
X148210003Y-120553325D01*
X148172681Y-120557001D01*
X147216868Y-120557001D01*
X147237481Y-120498891D01*
X147116814Y-120269000D01*
X145923000Y-120269000D01*
X145923000Y-120289000D01*
X145669000Y-120289000D01*
X145669000Y-120269000D01*
X145649000Y-120269000D01*
X145649000Y-120015000D01*
X145669000Y-120015000D01*
X145669000Y-119995000D01*
X145923000Y-119995000D01*
X145923000Y-120015000D01*
X147116814Y-120015000D01*
X147237481Y-119785109D01*
X147140157Y-119510748D01*
X146991178Y-119260645D01*
X146796269Y-119044412D01*
X146562920Y-118870359D01*
X146300099Y-118745175D01*
X146152890Y-118700524D01*
X145923002Y-118821844D01*
X145923002Y-118657000D01*
X145815801Y-118657000D01*
X148448005Y-116024797D01*
X148477002Y-116001000D01*
X148537822Y-115926891D01*
X148571975Y-115885276D01*
X148642547Y-115753246D01*
X148655260Y-115711335D01*
X148686004Y-115609985D01*
X148697001Y-115498332D01*
X148697001Y-115498323D01*
X148700677Y-115461000D01*
X148697001Y-115423677D01*
X148697001Y-108228800D01*
X154767222Y-114299022D01*
G37*
%TD.AperFunction*%
D25*
X149940691Y-97934236D02*
X150151508Y-97955000D01*
X151092492Y-97955000D01*
X151303309Y-97934236D01*
X151387001Y-97908849D01*
X151387001Y-98266695D01*
X151383325Y-98304017D01*
X151387001Y-98341339D01*
X151387001Y-98341349D01*
X151397998Y-98453002D01*
X151441455Y-98596263D01*
X151512027Y-98728293D01*
X151551872Y-98776843D01*
X151607000Y-98844018D01*
X151636004Y-98867821D01*
X151917183Y-99149000D01*
X151830665Y-99149000D01*
X151553426Y-99204147D01*
X151292273Y-99312320D01*
X151057241Y-99469363D01*
X150857363Y-99669241D01*
X150700320Y-99904273D01*
X150592147Y-100165426D01*
X150537000Y-100442665D01*
X150537000Y-100725335D01*
X150592147Y-101002574D01*
X150700320Y-101263727D01*
X150857363Y-101498759D01*
X151057241Y-101698637D01*
X151292273Y-101855680D01*
X151553426Y-101963853D01*
X151830665Y-102019000D01*
X152113335Y-102019000D01*
X152390574Y-101963853D01*
X152651727Y-101855680D01*
X152886759Y-101698637D01*
X153086637Y-101498759D01*
X153243680Y-101263727D01*
X153351853Y-101002574D01*
X153407000Y-100725335D01*
X153407000Y-100638817D01*
X158752001Y-105983820D01*
X158752000Y-113735198D01*
X153315842Y-108299040D01*
X154056091Y-108299040D01*
X154150930Y-108563881D01*
X154295615Y-108805131D01*
X154484586Y-109013519D01*
X154710580Y-109181037D01*
X154964913Y-109301246D01*
X155098961Y-109341904D01*
X155321000Y-109219915D01*
X155321000Y-108077000D01*
X155575000Y-108077000D01*
X155575000Y-109219915D01*
X155797039Y-109341904D01*
X155931087Y-109301246D01*
X156185420Y-109181037D01*
X156411414Y-109013519D01*
X156600385Y-108805131D01*
X156745070Y-108563881D01*
X156839909Y-108299040D01*
X156718624Y-108077000D01*
X155575000Y-108077000D01*
X155321000Y-108077000D01*
X154177376Y-108077000D01*
X154056091Y-108299040D01*
X153315842Y-108299040D01*
X153290688Y-108273887D01*
X153327000Y-108091335D01*
X153327000Y-107808665D01*
X153285685Y-107600960D01*
X154056091Y-107600960D01*
X154177376Y-107823000D01*
X155321000Y-107823000D01*
X155321000Y-106680085D01*
X155575000Y-106680085D01*
X155575000Y-107823000D01*
X156718624Y-107823000D01*
X156839909Y-107600960D01*
X156745070Y-107336119D01*
X156600385Y-107094869D01*
X156411414Y-106886481D01*
X156185420Y-106718963D01*
X155931087Y-106598754D01*
X155797039Y-106558096D01*
X155575000Y-106680085D01*
X155321000Y-106680085D01*
X155098961Y-106558096D01*
X154964913Y-106598754D01*
X154710580Y-106718963D01*
X154484586Y-106886481D01*
X154295615Y-107094869D01*
X154150930Y-107336119D01*
X154056091Y-107600960D01*
X153285685Y-107600960D01*
X153271853Y-107531426D01*
X153163680Y-107270273D01*
X153006637Y-107035241D01*
X152806759Y-106835363D01*
X152571727Y-106678320D01*
X152310574Y-106570147D01*
X152033335Y-106515000D01*
X151750665Y-106515000D01*
X151473426Y-106570147D01*
X151212273Y-106678320D01*
X150977241Y-106835363D01*
X150777363Y-107035241D01*
X150620320Y-107270273D01*
X150512147Y-107531426D01*
X150457000Y-107808665D01*
X150457000Y-107839197D01*
X149856990Y-107239187D01*
X149856990Y-97908846D01*
X149940691Y-97934236D01*
%TA.AperFunction,Conductor*%
D26*
G36*
X149940691Y-97934236D02*
G01*
X150151508Y-97955000D01*
X151092492Y-97955000D01*
X151303309Y-97934236D01*
X151387001Y-97908849D01*
X151387001Y-98266695D01*
X151383325Y-98304017D01*
X151387001Y-98341339D01*
X151387001Y-98341349D01*
X151397998Y-98453002D01*
X151441455Y-98596263D01*
X151512027Y-98728293D01*
X151551872Y-98776843D01*
X151607000Y-98844018D01*
X151636004Y-98867821D01*
X151917183Y-99149000D01*
X151830665Y-99149000D01*
X151553426Y-99204147D01*
X151292273Y-99312320D01*
X151057241Y-99469363D01*
X150857363Y-99669241D01*
X150700320Y-99904273D01*
X150592147Y-100165426D01*
X150537000Y-100442665D01*
X150537000Y-100725335D01*
X150592147Y-101002574D01*
X150700320Y-101263727D01*
X150857363Y-101498759D01*
X151057241Y-101698637D01*
X151292273Y-101855680D01*
X151553426Y-101963853D01*
X151830665Y-102019000D01*
X152113335Y-102019000D01*
X152390574Y-101963853D01*
X152651727Y-101855680D01*
X152886759Y-101698637D01*
X153086637Y-101498759D01*
X153243680Y-101263727D01*
X153351853Y-101002574D01*
X153407000Y-100725335D01*
X153407000Y-100638817D01*
X158752001Y-105983820D01*
X158752000Y-113735198D01*
X153315842Y-108299040D01*
X154056091Y-108299040D01*
X154150930Y-108563881D01*
X154295615Y-108805131D01*
X154484586Y-109013519D01*
X154710580Y-109181037D01*
X154964913Y-109301246D01*
X155098961Y-109341904D01*
X155321000Y-109219915D01*
X155321000Y-108077000D01*
X155575000Y-108077000D01*
X155575000Y-109219915D01*
X155797039Y-109341904D01*
X155931087Y-109301246D01*
X156185420Y-109181037D01*
X156411414Y-109013519D01*
X156600385Y-108805131D01*
X156745070Y-108563881D01*
X156839909Y-108299040D01*
X156718624Y-108077000D01*
X155575000Y-108077000D01*
X155321000Y-108077000D01*
X154177376Y-108077000D01*
X154056091Y-108299040D01*
X153315842Y-108299040D01*
X153290688Y-108273887D01*
X153327000Y-108091335D01*
X153327000Y-107808665D01*
X153285685Y-107600960D01*
X154056091Y-107600960D01*
X154177376Y-107823000D01*
X155321000Y-107823000D01*
X155321000Y-106680085D01*
X155575000Y-106680085D01*
X155575000Y-107823000D01*
X156718624Y-107823000D01*
X156839909Y-107600960D01*
X156745070Y-107336119D01*
X156600385Y-107094869D01*
X156411414Y-106886481D01*
X156185420Y-106718963D01*
X155931087Y-106598754D01*
X155797039Y-106558096D01*
X155575000Y-106680085D01*
X155321000Y-106680085D01*
X155098961Y-106558096D01*
X154964913Y-106598754D01*
X154710580Y-106718963D01*
X154484586Y-106886481D01*
X154295615Y-107094869D01*
X154150930Y-107336119D01*
X154056091Y-107600960D01*
X153285685Y-107600960D01*
X153271853Y-107531426D01*
X153163680Y-107270273D01*
X153006637Y-107035241D01*
X152806759Y-106835363D01*
X152571727Y-106678320D01*
X152310574Y-106570147D01*
X152033335Y-106515000D01*
X151750665Y-106515000D01*
X151473426Y-106570147D01*
X151212273Y-106678320D01*
X150977241Y-106835363D01*
X150777363Y-107035241D01*
X150620320Y-107270273D01*
X150512147Y-107531426D01*
X150457000Y-107808665D01*
X150457000Y-107839197D01*
X149856990Y-107239187D01*
X149856990Y-97908846D01*
X149940691Y-97934236D01*
G37*
%TD.AperFunction*%
%TD*%
M02*
