%TF.GenerationSoftware,KiCad,Pcbnew,(5.1.9)-1*%
%TF.CreationDate,2021-06-01T20:47:53+01:00*%
%TF.ProjectId,KosmicSuperspreader,4b6f736d-6963-4537-9570-657273707265,rev?*%
%TF.SameCoordinates,Original*%
%TF.FileFunction,Legend,Top*%
%TF.FilePolarity,Positive*%
%FSLAX46Y46*%
G04 Gerber Fmt 4.6, Leading zero omitted, Abs format (unit mm)*
G04 Created by KiCad (PCBNEW (5.1.9)-1) date 2021-06-01 20:47:53*
%MOMM*%
%LPD*%
G01*
G04 APERTURE LIST*
%ADD10C,0.150000*%
%ADD11C,0.120000*%
%ADD12C,0.100000*%
G04 APERTURE END LIST*
D10*
X142782857Y-92902000D02*
X141582857Y-92902000D01*
X142782857Y-92216285D02*
X142097142Y-92730571D01*
X141582857Y-92216285D02*
X142268571Y-92902000D01*
X141582857Y-91473428D02*
X141582857Y-91244857D01*
X141640000Y-91130571D01*
X141754285Y-91016285D01*
X141982857Y-90959142D01*
X142382857Y-90959142D01*
X142611428Y-91016285D01*
X142725714Y-91130571D01*
X142782857Y-91244857D01*
X142782857Y-91473428D01*
X142725714Y-91587714D01*
X142611428Y-91702000D01*
X142382857Y-91759142D01*
X141982857Y-91759142D01*
X141754285Y-91702000D01*
X141640000Y-91587714D01*
X141582857Y-91473428D01*
X142725714Y-90502000D02*
X142782857Y-90330571D01*
X142782857Y-90044857D01*
X142725714Y-89930571D01*
X142668571Y-89873428D01*
X142554285Y-89816285D01*
X142440000Y-89816285D01*
X142325714Y-89873428D01*
X142268571Y-89930571D01*
X142211428Y-90044857D01*
X142154285Y-90273428D01*
X142097142Y-90387714D01*
X142040000Y-90444857D01*
X141925714Y-90502000D01*
X141811428Y-90502000D01*
X141697142Y-90444857D01*
X141640000Y-90387714D01*
X141582857Y-90273428D01*
X141582857Y-89987714D01*
X141640000Y-89816285D01*
X142782857Y-89302000D02*
X141582857Y-89302000D01*
X142440000Y-88902000D01*
X141582857Y-88502000D01*
X142782857Y-88502000D01*
X142782857Y-87930571D02*
X141582857Y-87930571D01*
X142668571Y-86673428D02*
X142725714Y-86730571D01*
X142782857Y-86902000D01*
X142782857Y-87016285D01*
X142725714Y-87187714D01*
X142611428Y-87302000D01*
X142497142Y-87359142D01*
X142268571Y-87416285D01*
X142097142Y-87416285D01*
X141868571Y-87359142D01*
X141754285Y-87302000D01*
X141640000Y-87187714D01*
X141582857Y-87016285D01*
X141582857Y-86902000D01*
X141640000Y-86730571D01*
X141697142Y-86673428D01*
X142725714Y-85302000D02*
X142782857Y-85130571D01*
X142782857Y-84844857D01*
X142725714Y-84730571D01*
X142668571Y-84673428D01*
X142554285Y-84616285D01*
X142440000Y-84616285D01*
X142325714Y-84673428D01*
X142268571Y-84730571D01*
X142211428Y-84844857D01*
X142154285Y-85073428D01*
X142097142Y-85187714D01*
X142040000Y-85244857D01*
X141925714Y-85302000D01*
X141811428Y-85302000D01*
X141697142Y-85244857D01*
X141640000Y-85187714D01*
X141582857Y-85073428D01*
X141582857Y-84787714D01*
X141640000Y-84616285D01*
X141582857Y-84102000D02*
X142554285Y-84102000D01*
X142668571Y-84044857D01*
X142725714Y-83987714D01*
X142782857Y-83873428D01*
X142782857Y-83644857D01*
X142725714Y-83530571D01*
X142668571Y-83473428D01*
X142554285Y-83416285D01*
X141582857Y-83416285D01*
X142782857Y-82844857D02*
X141582857Y-82844857D01*
X141582857Y-82387714D01*
X141640000Y-82273428D01*
X141697142Y-82216285D01*
X141811428Y-82159142D01*
X141982857Y-82159142D01*
X142097142Y-82216285D01*
X142154285Y-82273428D01*
X142211428Y-82387714D01*
X142211428Y-82844857D01*
X142154285Y-81644857D02*
X142154285Y-81244857D01*
X142782857Y-81073428D02*
X142782857Y-81644857D01*
X141582857Y-81644857D01*
X141582857Y-81073428D01*
X142782857Y-79873428D02*
X142211428Y-80273428D01*
X142782857Y-80559142D02*
X141582857Y-80559142D01*
X141582857Y-80102000D01*
X141640000Y-79987714D01*
X141697142Y-79930571D01*
X141811428Y-79873428D01*
X141982857Y-79873428D01*
X142097142Y-79930571D01*
X142154285Y-79987714D01*
X142211428Y-80102000D01*
X142211428Y-80559142D01*
X142725714Y-79416285D02*
X142782857Y-79244857D01*
X142782857Y-78959142D01*
X142725714Y-78844857D01*
X142668571Y-78787714D01*
X142554285Y-78730571D01*
X142440000Y-78730571D01*
X142325714Y-78787714D01*
X142268571Y-78844857D01*
X142211428Y-78959142D01*
X142154285Y-79187714D01*
X142097142Y-79302000D01*
X142040000Y-79359142D01*
X141925714Y-79416285D01*
X141811428Y-79416285D01*
X141697142Y-79359142D01*
X141640000Y-79302000D01*
X141582857Y-79187714D01*
X141582857Y-78902000D01*
X141640000Y-78730571D01*
X142782857Y-78216285D02*
X141582857Y-78216285D01*
X141582857Y-77759142D01*
X141640000Y-77644857D01*
X141697142Y-77587714D01*
X141811428Y-77530571D01*
X141982857Y-77530571D01*
X142097142Y-77587714D01*
X142154285Y-77644857D01*
X142211428Y-77759142D01*
X142211428Y-78216285D01*
X142782857Y-76330571D02*
X142211428Y-76730571D01*
X142782857Y-77016285D02*
X141582857Y-77016285D01*
X141582857Y-76559142D01*
X141640000Y-76444857D01*
X141697142Y-76387714D01*
X141811428Y-76330571D01*
X141982857Y-76330571D01*
X142097142Y-76387714D01*
X142154285Y-76444857D01*
X142211428Y-76559142D01*
X142211428Y-77016285D01*
X142154285Y-75816285D02*
X142154285Y-75416285D01*
X142782857Y-75244857D02*
X142782857Y-75816285D01*
X141582857Y-75816285D01*
X141582857Y-75244857D01*
X142440000Y-74787714D02*
X142440000Y-74216285D01*
X142782857Y-74902000D02*
X141582857Y-74502000D01*
X142782857Y-74102000D01*
X142782857Y-73702000D02*
X141582857Y-73702000D01*
X141582857Y-73416285D01*
X141640000Y-73244857D01*
X141754285Y-73130571D01*
X141868571Y-73073428D01*
X142097142Y-73016285D01*
X142268571Y-73016285D01*
X142497142Y-73073428D01*
X142611428Y-73130571D01*
X142725714Y-73244857D01*
X142782857Y-73416285D01*
X142782857Y-73702000D01*
X142154285Y-72502000D02*
X142154285Y-72102000D01*
X142782857Y-71930571D02*
X142782857Y-72502000D01*
X141582857Y-72502000D01*
X141582857Y-71930571D01*
X142782857Y-70730571D02*
X142211428Y-71130571D01*
X142782857Y-71416285D02*
X141582857Y-71416285D01*
X141582857Y-70959142D01*
X141640000Y-70844857D01*
X141697142Y-70787714D01*
X141811428Y-70730571D01*
X141982857Y-70730571D01*
X142097142Y-70787714D01*
X142154285Y-70844857D01*
X142211428Y-70959142D01*
X142211428Y-71416285D01*
X141982857Y-69416285D02*
X142782857Y-69130571D01*
X141982857Y-68844857D01*
X142782857Y-67759142D02*
X142782857Y-68444857D01*
X142782857Y-68102000D02*
X141582857Y-68102000D01*
X141754285Y-68216285D01*
X141868571Y-68330571D01*
X141925714Y-68444857D01*
X142668571Y-67244857D02*
X142725714Y-67187714D01*
X142782857Y-67244857D01*
X142725714Y-67302000D01*
X142668571Y-67244857D01*
X142782857Y-67244857D01*
X141582857Y-66787714D02*
X141582857Y-66044857D01*
X142040000Y-66444857D01*
X142040000Y-66273428D01*
X142097142Y-66159142D01*
X142154285Y-66102000D01*
X142268571Y-66044857D01*
X142554285Y-66044857D01*
X142668571Y-66102000D01*
X142725714Y-66159142D01*
X142782857Y-66273428D01*
X142782857Y-66616285D01*
X142725714Y-66730571D01*
X142668571Y-66787714D01*
X144100571Y-91571809D02*
X144748190Y-91571809D01*
X144824380Y-91609904D01*
X144862476Y-91648000D01*
X144900571Y-91724190D01*
X144900571Y-91838476D01*
X144862476Y-91914666D01*
X144595809Y-91571809D02*
X144633904Y-91648000D01*
X144633904Y-91800380D01*
X144595809Y-91876571D01*
X144557714Y-91914666D01*
X144481523Y-91952761D01*
X144252952Y-91952761D01*
X144176761Y-91914666D01*
X144138666Y-91876571D01*
X144100571Y-91800380D01*
X144100571Y-91648000D01*
X144138666Y-91571809D01*
X144633904Y-91190857D02*
X144100571Y-91190857D01*
X143833904Y-91190857D02*
X143872000Y-91228952D01*
X143910095Y-91190857D01*
X143872000Y-91152761D01*
X143833904Y-91190857D01*
X143910095Y-91190857D01*
X144100571Y-90924190D02*
X144100571Y-90619428D01*
X143833904Y-90809904D02*
X144519619Y-90809904D01*
X144595809Y-90771809D01*
X144633904Y-90695619D01*
X144633904Y-90619428D01*
X144633904Y-90352761D02*
X143833904Y-90352761D01*
X144633904Y-90009904D02*
X144214857Y-90009904D01*
X144138666Y-90048000D01*
X144100571Y-90124190D01*
X144100571Y-90238476D01*
X144138666Y-90314666D01*
X144176761Y-90352761D01*
X144100571Y-89286095D02*
X144633904Y-89286095D01*
X144100571Y-89628952D02*
X144519619Y-89628952D01*
X144595809Y-89590857D01*
X144633904Y-89514666D01*
X144633904Y-89400380D01*
X144595809Y-89324190D01*
X144557714Y-89286095D01*
X144633904Y-88905142D02*
X143833904Y-88905142D01*
X144138666Y-88905142D02*
X144100571Y-88828952D01*
X144100571Y-88676571D01*
X144138666Y-88600380D01*
X144176761Y-88562285D01*
X144252952Y-88524190D01*
X144481523Y-88524190D01*
X144557714Y-88562285D01*
X144595809Y-88600380D01*
X144633904Y-88676571D01*
X144633904Y-88828952D01*
X144595809Y-88905142D01*
X144557714Y-88181333D02*
X144595809Y-88143238D01*
X144633904Y-88181333D01*
X144595809Y-88219428D01*
X144557714Y-88181333D01*
X144633904Y-88181333D01*
X144595809Y-87457523D02*
X144633904Y-87533714D01*
X144633904Y-87686095D01*
X144595809Y-87762285D01*
X144557714Y-87800380D01*
X144481523Y-87838476D01*
X144252952Y-87838476D01*
X144176761Y-87800380D01*
X144138666Y-87762285D01*
X144100571Y-87686095D01*
X144100571Y-87533714D01*
X144138666Y-87457523D01*
X144633904Y-87000380D02*
X144595809Y-87076571D01*
X144557714Y-87114666D01*
X144481523Y-87152761D01*
X144252952Y-87152761D01*
X144176761Y-87114666D01*
X144138666Y-87076571D01*
X144100571Y-87000380D01*
X144100571Y-86886095D01*
X144138666Y-86809904D01*
X144176761Y-86771809D01*
X144252952Y-86733714D01*
X144481523Y-86733714D01*
X144557714Y-86771809D01*
X144595809Y-86809904D01*
X144633904Y-86886095D01*
X144633904Y-87000380D01*
X144633904Y-86390857D02*
X144100571Y-86390857D01*
X144176761Y-86390857D02*
X144138666Y-86352761D01*
X144100571Y-86276571D01*
X144100571Y-86162285D01*
X144138666Y-86086095D01*
X144214857Y-86048000D01*
X144633904Y-86048000D01*
X144214857Y-86048000D02*
X144138666Y-86009904D01*
X144100571Y-85933714D01*
X144100571Y-85819428D01*
X144138666Y-85743238D01*
X144214857Y-85705142D01*
X144633904Y-85705142D01*
X143795809Y-84752761D02*
X144824380Y-85438476D01*
X144595809Y-84524190D02*
X144633904Y-84448000D01*
X144633904Y-84295619D01*
X144595809Y-84219428D01*
X144519619Y-84181333D01*
X144481523Y-84181333D01*
X144405333Y-84219428D01*
X144367238Y-84295619D01*
X144367238Y-84409904D01*
X144329142Y-84486095D01*
X144252952Y-84524190D01*
X144214857Y-84524190D01*
X144138666Y-84486095D01*
X144100571Y-84409904D01*
X144100571Y-84295619D01*
X144138666Y-84219428D01*
X144633904Y-83724190D02*
X144595809Y-83800380D01*
X144557714Y-83838476D01*
X144481523Y-83876571D01*
X144252952Y-83876571D01*
X144176761Y-83838476D01*
X144138666Y-83800380D01*
X144100571Y-83724190D01*
X144100571Y-83609904D01*
X144138666Y-83533714D01*
X144176761Y-83495619D01*
X144252952Y-83457523D01*
X144481523Y-83457523D01*
X144557714Y-83495619D01*
X144595809Y-83533714D01*
X144633904Y-83609904D01*
X144633904Y-83724190D01*
X144100571Y-83114666D02*
X144633904Y-83114666D01*
X144176761Y-83114666D02*
X144138666Y-83076571D01*
X144100571Y-83000380D01*
X144100571Y-82886095D01*
X144138666Y-82809904D01*
X144214857Y-82771809D01*
X144633904Y-82771809D01*
X144633904Y-82276571D02*
X144595809Y-82352761D01*
X144557714Y-82390857D01*
X144481523Y-82428952D01*
X144252952Y-82428952D01*
X144176761Y-82390857D01*
X144138666Y-82352761D01*
X144100571Y-82276571D01*
X144100571Y-82162285D01*
X144138666Y-82086095D01*
X144176761Y-82048000D01*
X144252952Y-82009904D01*
X144481523Y-82009904D01*
X144557714Y-82048000D01*
X144595809Y-82086095D01*
X144633904Y-82162285D01*
X144633904Y-82276571D01*
X144595809Y-81705142D02*
X144633904Y-81628952D01*
X144633904Y-81476571D01*
X144595809Y-81400380D01*
X144519619Y-81362285D01*
X144481523Y-81362285D01*
X144405333Y-81400380D01*
X144367238Y-81476571D01*
X144367238Y-81590857D01*
X144329142Y-81667047D01*
X144252952Y-81705142D01*
X144214857Y-81705142D01*
X144138666Y-81667047D01*
X144100571Y-81590857D01*
X144100571Y-81476571D01*
X144138666Y-81400380D01*
X144100571Y-80676571D02*
X144633904Y-80676571D01*
X144100571Y-81019428D02*
X144519619Y-81019428D01*
X144595809Y-80981333D01*
X144633904Y-80905142D01*
X144633904Y-80790857D01*
X144595809Y-80714666D01*
X144557714Y-80676571D01*
X144595809Y-80333714D02*
X144633904Y-80257523D01*
X144633904Y-80105142D01*
X144595809Y-80028952D01*
X144519619Y-79990857D01*
X144481523Y-79990857D01*
X144405333Y-80028952D01*
X144367238Y-80105142D01*
X144367238Y-80219428D01*
X144329142Y-80295619D01*
X144252952Y-80333714D01*
X144214857Y-80333714D01*
X144138666Y-80295619D01*
X144100571Y-80219428D01*
X144100571Y-80105142D01*
X144138666Y-80028952D01*
X143795809Y-79076571D02*
X144824380Y-79762285D01*
X144633904Y-78809904D02*
X143833904Y-78809904D01*
X144329142Y-78733714D02*
X144633904Y-78505142D01*
X144100571Y-78505142D02*
X144405333Y-78809904D01*
X144633904Y-78048000D02*
X144595809Y-78124190D01*
X144557714Y-78162285D01*
X144481523Y-78200380D01*
X144252952Y-78200380D01*
X144176761Y-78162285D01*
X144138666Y-78124190D01*
X144100571Y-78048000D01*
X144100571Y-77933714D01*
X144138666Y-77857523D01*
X144176761Y-77819428D01*
X144252952Y-77781333D01*
X144481523Y-77781333D01*
X144557714Y-77819428D01*
X144595809Y-77857523D01*
X144633904Y-77933714D01*
X144633904Y-78048000D01*
X144595809Y-77476571D02*
X144633904Y-77400380D01*
X144633904Y-77248000D01*
X144595809Y-77171809D01*
X144519619Y-77133714D01*
X144481523Y-77133714D01*
X144405333Y-77171809D01*
X144367238Y-77248000D01*
X144367238Y-77362285D01*
X144329142Y-77438476D01*
X144252952Y-77476571D01*
X144214857Y-77476571D01*
X144138666Y-77438476D01*
X144100571Y-77362285D01*
X144100571Y-77248000D01*
X144138666Y-77171809D01*
X144633904Y-76790857D02*
X144100571Y-76790857D01*
X144176761Y-76790857D02*
X144138666Y-76752761D01*
X144100571Y-76676571D01*
X144100571Y-76562285D01*
X144138666Y-76486095D01*
X144214857Y-76448000D01*
X144633904Y-76448000D01*
X144214857Y-76448000D02*
X144138666Y-76409904D01*
X144100571Y-76333714D01*
X144100571Y-76219428D01*
X144138666Y-76143238D01*
X144214857Y-76105142D01*
X144633904Y-76105142D01*
X144633904Y-75724190D02*
X144100571Y-75724190D01*
X143833904Y-75724190D02*
X143872000Y-75762285D01*
X143910095Y-75724190D01*
X143872000Y-75686095D01*
X143833904Y-75724190D01*
X143910095Y-75724190D01*
X144595809Y-75000380D02*
X144633904Y-75076571D01*
X144633904Y-75228952D01*
X144595809Y-75305142D01*
X144557714Y-75343238D01*
X144481523Y-75381333D01*
X144252952Y-75381333D01*
X144176761Y-75343238D01*
X144138666Y-75305142D01*
X144100571Y-75228952D01*
X144100571Y-75076571D01*
X144138666Y-75000380D01*
X144595809Y-74695619D02*
X144633904Y-74619428D01*
X144633904Y-74467047D01*
X144595809Y-74390857D01*
X144519619Y-74352761D01*
X144481523Y-74352761D01*
X144405333Y-74390857D01*
X144367238Y-74467047D01*
X144367238Y-74581333D01*
X144329142Y-74657523D01*
X144252952Y-74695619D01*
X144214857Y-74695619D01*
X144138666Y-74657523D01*
X144100571Y-74581333D01*
X144100571Y-74467047D01*
X144138666Y-74390857D01*
X144100571Y-73667047D02*
X144633904Y-73667047D01*
X144100571Y-74009904D02*
X144519619Y-74009904D01*
X144595809Y-73971809D01*
X144633904Y-73895619D01*
X144633904Y-73781333D01*
X144595809Y-73705142D01*
X144557714Y-73667047D01*
X144100571Y-73286095D02*
X144900571Y-73286095D01*
X144138666Y-73286095D02*
X144100571Y-73209904D01*
X144100571Y-73057523D01*
X144138666Y-72981333D01*
X144176761Y-72943238D01*
X144252952Y-72905142D01*
X144481523Y-72905142D01*
X144557714Y-72943238D01*
X144595809Y-72981333D01*
X144633904Y-73057523D01*
X144633904Y-73209904D01*
X144595809Y-73286095D01*
X144595809Y-72257523D02*
X144633904Y-72333714D01*
X144633904Y-72486095D01*
X144595809Y-72562285D01*
X144519619Y-72600380D01*
X144214857Y-72600380D01*
X144138666Y-72562285D01*
X144100571Y-72486095D01*
X144100571Y-72333714D01*
X144138666Y-72257523D01*
X144214857Y-72219428D01*
X144291047Y-72219428D01*
X144367238Y-72600380D01*
X144633904Y-71876571D02*
X144100571Y-71876571D01*
X144252952Y-71876571D02*
X144176761Y-71838476D01*
X144138666Y-71800380D01*
X144100571Y-71724190D01*
X144100571Y-71648000D01*
X144595809Y-71419428D02*
X144633904Y-71343238D01*
X144633904Y-71190857D01*
X144595809Y-71114666D01*
X144519619Y-71076571D01*
X144481523Y-71076571D01*
X144405333Y-71114666D01*
X144367238Y-71190857D01*
X144367238Y-71305142D01*
X144329142Y-71381333D01*
X144252952Y-71419428D01*
X144214857Y-71419428D01*
X144138666Y-71381333D01*
X144100571Y-71305142D01*
X144100571Y-71190857D01*
X144138666Y-71114666D01*
X144100571Y-70733714D02*
X144900571Y-70733714D01*
X144138666Y-70733714D02*
X144100571Y-70657523D01*
X144100571Y-70505142D01*
X144138666Y-70428952D01*
X144176761Y-70390857D01*
X144252952Y-70352761D01*
X144481523Y-70352761D01*
X144557714Y-70390857D01*
X144595809Y-70428952D01*
X144633904Y-70505142D01*
X144633904Y-70657523D01*
X144595809Y-70733714D01*
X144633904Y-70009904D02*
X144100571Y-70009904D01*
X144252952Y-70009904D02*
X144176761Y-69971809D01*
X144138666Y-69933714D01*
X144100571Y-69857523D01*
X144100571Y-69781333D01*
X144595809Y-69209904D02*
X144633904Y-69286095D01*
X144633904Y-69438476D01*
X144595809Y-69514666D01*
X144519619Y-69552761D01*
X144214857Y-69552761D01*
X144138666Y-69514666D01*
X144100571Y-69438476D01*
X144100571Y-69286095D01*
X144138666Y-69209904D01*
X144214857Y-69171809D01*
X144291047Y-69171809D01*
X144367238Y-69552761D01*
X144633904Y-68486095D02*
X144214857Y-68486095D01*
X144138666Y-68524190D01*
X144100571Y-68600380D01*
X144100571Y-68752761D01*
X144138666Y-68828952D01*
X144595809Y-68486095D02*
X144633904Y-68562285D01*
X144633904Y-68752761D01*
X144595809Y-68828952D01*
X144519619Y-68867047D01*
X144443428Y-68867047D01*
X144367238Y-68828952D01*
X144329142Y-68752761D01*
X144329142Y-68562285D01*
X144291047Y-68486095D01*
X144633904Y-67762285D02*
X143833904Y-67762285D01*
X144595809Y-67762285D02*
X144633904Y-67838476D01*
X144633904Y-67990857D01*
X144595809Y-68067047D01*
X144557714Y-68105142D01*
X144481523Y-68143238D01*
X144252952Y-68143238D01*
X144176761Y-68105142D01*
X144138666Y-68067047D01*
X144100571Y-67990857D01*
X144100571Y-67838476D01*
X144138666Y-67762285D01*
X144595809Y-67076571D02*
X144633904Y-67152761D01*
X144633904Y-67305142D01*
X144595809Y-67381333D01*
X144519619Y-67419428D01*
X144214857Y-67419428D01*
X144138666Y-67381333D01*
X144100571Y-67305142D01*
X144100571Y-67152761D01*
X144138666Y-67076571D01*
X144214857Y-67038476D01*
X144291047Y-67038476D01*
X144367238Y-67419428D01*
X144633904Y-66695619D02*
X144100571Y-66695619D01*
X144252952Y-66695619D02*
X144176761Y-66657523D01*
X144138666Y-66619428D01*
X144100571Y-66543238D01*
X144100571Y-66467047D01*
X144852380Y-117560952D02*
X143852380Y-117560952D01*
X143852380Y-117322857D01*
X143900000Y-117180000D01*
X143995238Y-117084761D01*
X144090476Y-117037142D01*
X144280952Y-116989523D01*
X144423809Y-116989523D01*
X144614285Y-117037142D01*
X144709523Y-117084761D01*
X144804761Y-117180000D01*
X144852380Y-117322857D01*
X144852380Y-117560952D01*
X144328571Y-116560952D02*
X144328571Y-116227619D01*
X144852380Y-116084761D02*
X144852380Y-116560952D01*
X143852380Y-116560952D01*
X143852380Y-116084761D01*
X144804761Y-115703809D02*
X144852380Y-115560952D01*
X144852380Y-115322857D01*
X144804761Y-115227619D01*
X144757142Y-115180000D01*
X144661904Y-115132380D01*
X144566666Y-115132380D01*
X144471428Y-115180000D01*
X144423809Y-115227619D01*
X144376190Y-115322857D01*
X144328571Y-115513333D01*
X144280952Y-115608571D01*
X144233333Y-115656190D01*
X144138095Y-115703809D01*
X144042857Y-115703809D01*
X143947619Y-115656190D01*
X143900000Y-115608571D01*
X143852380Y-115513333D01*
X143852380Y-115275238D01*
X143900000Y-115132380D01*
X144852380Y-114703809D02*
X143852380Y-114703809D01*
X143900000Y-113703809D02*
X143852380Y-113799047D01*
X143852380Y-113941904D01*
X143900000Y-114084761D01*
X143995238Y-114180000D01*
X144090476Y-114227619D01*
X144280952Y-114275238D01*
X144423809Y-114275238D01*
X144614285Y-114227619D01*
X144709523Y-114180000D01*
X144804761Y-114084761D01*
X144852380Y-113941904D01*
X144852380Y-113846666D01*
X144804761Y-113703809D01*
X144757142Y-113656190D01*
X144423809Y-113656190D01*
X144423809Y-113846666D01*
X144852380Y-113227619D02*
X143852380Y-113227619D01*
X144852380Y-112656190D01*
X143852380Y-112656190D01*
X143804761Y-111465714D02*
X145090476Y-112322857D01*
X144852380Y-110656190D02*
X144852380Y-111132380D01*
X143852380Y-111132380D01*
X144566666Y-110370476D02*
X144566666Y-109894285D01*
X144852380Y-110465714D02*
X143852380Y-110132380D01*
X144852380Y-109799047D01*
X144376190Y-109275238D02*
X144852380Y-109275238D01*
X143852380Y-109608571D02*
X144376190Y-109275238D01*
X143852380Y-108941904D01*
X143852380Y-108418095D02*
X143852380Y-108227619D01*
X143900000Y-108132380D01*
X143995238Y-108037142D01*
X144185714Y-107989523D01*
X144519047Y-107989523D01*
X144709523Y-108037142D01*
X144804761Y-108132380D01*
X144852380Y-108227619D01*
X144852380Y-108418095D01*
X144804761Y-108513333D01*
X144709523Y-108608571D01*
X144519047Y-108656190D01*
X144185714Y-108656190D01*
X143995238Y-108608571D01*
X143900000Y-108513333D01*
X143852380Y-108418095D01*
X143852380Y-107560952D02*
X144661904Y-107560952D01*
X144757142Y-107513333D01*
X144804761Y-107465714D01*
X144852380Y-107370476D01*
X144852380Y-107180000D01*
X144804761Y-107084761D01*
X144757142Y-107037142D01*
X144661904Y-106989523D01*
X143852380Y-106989523D01*
X143852380Y-106656190D02*
X143852380Y-106084761D01*
X144852380Y-106370476D02*
X143852380Y-106370476D01*
X144328571Y-104656190D02*
X144376190Y-104513333D01*
X144423809Y-104465714D01*
X144519047Y-104418095D01*
X144661904Y-104418095D01*
X144757142Y-104465714D01*
X144804761Y-104513333D01*
X144852380Y-104608571D01*
X144852380Y-104989523D01*
X143852380Y-104989523D01*
X143852380Y-104656190D01*
X143900000Y-104560952D01*
X143947619Y-104513333D01*
X144042857Y-104465714D01*
X144138095Y-104465714D01*
X144233333Y-104513333D01*
X144280952Y-104560952D01*
X144328571Y-104656190D01*
X144328571Y-104989523D01*
X144376190Y-103799047D02*
X144852380Y-103799047D01*
X143852380Y-104132380D02*
X144376190Y-103799047D01*
X143852380Y-103465714D01*
X144804761Y-102418095D02*
X144852380Y-102275238D01*
X144852380Y-102037142D01*
X144804761Y-101941904D01*
X144757142Y-101894285D01*
X144661904Y-101846666D01*
X144566666Y-101846666D01*
X144471428Y-101894285D01*
X144423809Y-101941904D01*
X144376190Y-102037142D01*
X144328571Y-102227619D01*
X144280952Y-102322857D01*
X144233333Y-102370476D01*
X144138095Y-102418095D01*
X144042857Y-102418095D01*
X143947619Y-102370476D01*
X143900000Y-102322857D01*
X143852380Y-102227619D01*
X143852380Y-101989523D01*
X143900000Y-101846666D01*
X143852380Y-101227619D02*
X143852380Y-101037142D01*
X143900000Y-100941904D01*
X143995238Y-100846666D01*
X144185714Y-100799047D01*
X144519047Y-100799047D01*
X144709523Y-100846666D01*
X144804761Y-100941904D01*
X144852380Y-101037142D01*
X144852380Y-101227619D01*
X144804761Y-101322857D01*
X144709523Y-101418095D01*
X144519047Y-101465714D01*
X144185714Y-101465714D01*
X143995238Y-101418095D01*
X143900000Y-101322857D01*
X143852380Y-101227619D01*
X144852380Y-100370476D02*
X143852380Y-100370476D01*
X144852380Y-99799047D01*
X143852380Y-99799047D01*
X143852380Y-99132380D02*
X143852380Y-98941904D01*
X143900000Y-98846666D01*
X143995238Y-98751428D01*
X144185714Y-98703809D01*
X144519047Y-98703809D01*
X144709523Y-98751428D01*
X144804761Y-98846666D01*
X144852380Y-98941904D01*
X144852380Y-99132380D01*
X144804761Y-99227619D01*
X144709523Y-99322857D01*
X144519047Y-99370476D01*
X144185714Y-99370476D01*
X143995238Y-99322857D01*
X143900000Y-99227619D01*
X143852380Y-99132380D01*
X144804761Y-98322857D02*
X144852380Y-98180000D01*
X144852380Y-97941904D01*
X144804761Y-97846666D01*
X144757142Y-97799047D01*
X144661904Y-97751428D01*
X144566666Y-97751428D01*
X144471428Y-97799047D01*
X144423809Y-97846666D01*
X144376190Y-97941904D01*
X144328571Y-98132380D01*
X144280952Y-98227619D01*
X144233333Y-98275238D01*
X144138095Y-98322857D01*
X144042857Y-98322857D01*
X143947619Y-98275238D01*
X143900000Y-98227619D01*
X143852380Y-98132380D01*
X143852380Y-97894285D01*
X143900000Y-97751428D01*
X143852380Y-97322857D02*
X144661904Y-97322857D01*
X144757142Y-97275238D01*
X144804761Y-97227619D01*
X144852380Y-97132380D01*
X144852380Y-96941904D01*
X144804761Y-96846666D01*
X144757142Y-96799047D01*
X144661904Y-96751428D01*
X143852380Y-96751428D01*
X144804761Y-96322857D02*
X144852380Y-96180000D01*
X144852380Y-95941904D01*
X144804761Y-95846666D01*
X144757142Y-95799047D01*
X144661904Y-95751428D01*
X144566666Y-95751428D01*
X144471428Y-95799047D01*
X144423809Y-95846666D01*
X144376190Y-95941904D01*
X144328571Y-96132380D01*
X144280952Y-96227619D01*
X144233333Y-96275238D01*
X144138095Y-96322857D01*
X144042857Y-96322857D01*
X143947619Y-96275238D01*
X143900000Y-96227619D01*
X143852380Y-96132380D01*
X143852380Y-95894285D01*
X143900000Y-95751428D01*
X146502380Y-110156190D02*
X145502380Y-110156190D01*
X146216666Y-109822857D01*
X145502380Y-109489523D01*
X146502380Y-109489523D01*
X146216666Y-109060952D02*
X146216666Y-108584761D01*
X146502380Y-109156190D02*
X145502380Y-108822857D01*
X146502380Y-108489523D01*
X146026190Y-107965714D02*
X146502380Y-107965714D01*
X145502380Y-108299047D02*
X146026190Y-107965714D01*
X145502380Y-107632380D01*
X145597619Y-106584761D02*
X145550000Y-106537142D01*
X145502380Y-106441904D01*
X145502380Y-106203809D01*
X145550000Y-106108571D01*
X145597619Y-106060952D01*
X145692857Y-106013333D01*
X145788095Y-106013333D01*
X145930952Y-106060952D01*
X146502380Y-106632380D01*
X146502380Y-106013333D01*
X145502380Y-105394285D02*
X145502380Y-105299047D01*
X145550000Y-105203809D01*
X145597619Y-105156190D01*
X145692857Y-105108571D01*
X145883333Y-105060952D01*
X146121428Y-105060952D01*
X146311904Y-105108571D01*
X146407142Y-105156190D01*
X146454761Y-105203809D01*
X146502380Y-105299047D01*
X146502380Y-105394285D01*
X146454761Y-105489523D01*
X146407142Y-105537142D01*
X146311904Y-105584761D01*
X146121428Y-105632380D01*
X145883333Y-105632380D01*
X145692857Y-105584761D01*
X145597619Y-105537142D01*
X145550000Y-105489523D01*
X145502380Y-105394285D01*
X145597619Y-104680000D02*
X145550000Y-104632380D01*
X145502380Y-104537142D01*
X145502380Y-104299047D01*
X145550000Y-104203809D01*
X145597619Y-104156190D01*
X145692857Y-104108571D01*
X145788095Y-104108571D01*
X145930952Y-104156190D01*
X146502380Y-104727619D01*
X146502380Y-104108571D01*
X146502380Y-103156190D02*
X146502380Y-103727619D01*
X146502380Y-103441904D02*
X145502380Y-103441904D01*
X145645238Y-103537142D01*
X145740476Y-103632380D01*
X145788095Y-103727619D01*
X148057142Y-109941904D02*
X148104761Y-109989523D01*
X148152380Y-110132380D01*
X148152380Y-110227619D01*
X148104761Y-110370476D01*
X148009523Y-110465714D01*
X147914285Y-110513333D01*
X147723809Y-110560952D01*
X147580952Y-110560952D01*
X147390476Y-110513333D01*
X147295238Y-110465714D01*
X147200000Y-110370476D01*
X147152380Y-110227619D01*
X147152380Y-110132380D01*
X147200000Y-109989523D01*
X147247619Y-109941904D01*
X148057142Y-108941904D02*
X148104761Y-108989523D01*
X148152380Y-109132380D01*
X148152380Y-109227619D01*
X148104761Y-109370476D01*
X148009523Y-109465714D01*
X147914285Y-109513333D01*
X147723809Y-109560952D01*
X147580952Y-109560952D01*
X147390476Y-109513333D01*
X147295238Y-109465714D01*
X147200000Y-109370476D01*
X147152380Y-109227619D01*
X147152380Y-109132380D01*
X147200000Y-108989523D01*
X147247619Y-108941904D01*
X147771428Y-108513333D02*
X147771428Y-107751428D01*
X147628571Y-106941904D02*
X147676190Y-106799047D01*
X147723809Y-106751428D01*
X147819047Y-106703809D01*
X147961904Y-106703809D01*
X148057142Y-106751428D01*
X148104761Y-106799047D01*
X148152380Y-106894285D01*
X148152380Y-107275238D01*
X147152380Y-107275238D01*
X147152380Y-106941904D01*
X147200000Y-106846666D01*
X147247619Y-106799047D01*
X147342857Y-106751428D01*
X147438095Y-106751428D01*
X147533333Y-106799047D01*
X147580952Y-106846666D01*
X147628571Y-106941904D01*
X147628571Y-107275238D01*
X147676190Y-106084761D02*
X148152380Y-106084761D01*
X147152380Y-106418095D02*
X147676190Y-106084761D01*
X147152380Y-105751428D01*
X147771428Y-105418095D02*
X147771428Y-104656190D01*
X148104761Y-104227619D02*
X148152380Y-104084761D01*
X148152380Y-103846666D01*
X148104761Y-103751428D01*
X148057142Y-103703809D01*
X147961904Y-103656190D01*
X147866666Y-103656190D01*
X147771428Y-103703809D01*
X147723809Y-103751428D01*
X147676190Y-103846666D01*
X147628571Y-104037142D01*
X147580952Y-104132380D01*
X147533333Y-104180000D01*
X147438095Y-104227619D01*
X147342857Y-104227619D01*
X147247619Y-104180000D01*
X147200000Y-104132380D01*
X147152380Y-104037142D01*
X147152380Y-103799047D01*
X147200000Y-103656190D01*
X147866666Y-103275238D02*
X147866666Y-102799047D01*
X148152380Y-103370476D02*
X147152380Y-103037142D01*
X148152380Y-102703809D01*
D11*
%TO.C,U2*%
X159174000Y-133992000D02*
X148674000Y-133992000D01*
X159174000Y-152012000D02*
X159174000Y-133992000D01*
X148674000Y-152012000D02*
X159174000Y-152012000D01*
X148674000Y-133992000D02*
X148674000Y-152012000D01*
X156174000Y-134052000D02*
X154924000Y-134052000D01*
X156174000Y-151952000D02*
X156174000Y-134052000D01*
X151674000Y-151952000D02*
X156174000Y-151952000D01*
X151674000Y-134052000D02*
X151674000Y-151952000D01*
X152924000Y-134052000D02*
X151674000Y-134052000D01*
X154924000Y-134052000D02*
G75*
G02*
X152924000Y-134052000I-1000000J0D01*
G01*
%TO.C,U1*%
X159682000Y-87510000D02*
X149182000Y-87510000D01*
X159682000Y-97910000D02*
X159682000Y-87510000D01*
X149182000Y-97910000D02*
X159682000Y-97910000D01*
X149182000Y-87510000D02*
X149182000Y-97910000D01*
X156682000Y-87570000D02*
X155432000Y-87570000D01*
X156682000Y-97850000D02*
X156682000Y-87570000D01*
X152182000Y-97850000D02*
X156682000Y-97850000D01*
X152182000Y-87570000D02*
X152182000Y-97850000D01*
X153432000Y-87570000D02*
X152182000Y-87570000D01*
X155432000Y-87570000D02*
G75*
G02*
X153432000Y-87570000I-1000000J0D01*
G01*
%TO.C,R12*%
X160758000Y-153892000D02*
X160428000Y-153892000D01*
X160428000Y-153892000D02*
X160428000Y-147352000D01*
X160428000Y-147352000D02*
X160758000Y-147352000D01*
X162838000Y-153892000D02*
X163168000Y-153892000D01*
X163168000Y-153892000D02*
X163168000Y-147352000D01*
X163168000Y-147352000D02*
X162838000Y-147352000D01*
%TO.C,R11*%
X166394000Y-147352000D02*
X166724000Y-147352000D01*
X166724000Y-147352000D02*
X166724000Y-153892000D01*
X166724000Y-153892000D02*
X166394000Y-153892000D01*
X164314000Y-147352000D02*
X163984000Y-147352000D01*
X163984000Y-147352000D02*
X163984000Y-153892000D01*
X163984000Y-153892000D02*
X164314000Y-153892000D01*
%TO.C,R10*%
X145264000Y-157702000D02*
X144934000Y-157702000D01*
X144934000Y-157702000D02*
X144934000Y-151162000D01*
X144934000Y-151162000D02*
X145264000Y-151162000D01*
X147344000Y-157702000D02*
X147674000Y-157702000D01*
X147674000Y-157702000D02*
X147674000Y-151162000D01*
X147674000Y-151162000D02*
X147344000Y-151162000D01*
%TO.C,R9*%
X152932000Y-108490000D02*
X153262000Y-108490000D01*
X153262000Y-108490000D02*
X153262000Y-115030000D01*
X153262000Y-115030000D02*
X152932000Y-115030000D01*
X150852000Y-108490000D02*
X150522000Y-108490000D01*
X150522000Y-108490000D02*
X150522000Y-115030000D01*
X150522000Y-115030000D02*
X150852000Y-115030000D01*
%TO.C,R8*%
X154408000Y-115030000D02*
X154078000Y-115030000D01*
X154078000Y-115030000D02*
X154078000Y-108490000D01*
X154078000Y-108490000D02*
X154408000Y-108490000D01*
X156488000Y-115030000D02*
X156818000Y-115030000D01*
X156818000Y-115030000D02*
X156818000Y-108490000D01*
X156818000Y-108490000D02*
X156488000Y-108490000D01*
%TO.C,R7*%
X147344000Y-141002000D02*
X147674000Y-141002000D01*
X147674000Y-141002000D02*
X147674000Y-147542000D01*
X147674000Y-147542000D02*
X147344000Y-147542000D01*
X145264000Y-141002000D02*
X144934000Y-141002000D01*
X144934000Y-141002000D02*
X144934000Y-147542000D01*
X144934000Y-147542000D02*
X145264000Y-147542000D01*
%TO.C,R6*%
X162838000Y-137192000D02*
X163168000Y-137192000D01*
X163168000Y-137192000D02*
X163168000Y-143732000D01*
X163168000Y-143732000D02*
X162838000Y-143732000D01*
X160758000Y-137192000D02*
X160428000Y-137192000D01*
X160428000Y-137192000D02*
X160428000Y-143732000D01*
X160428000Y-143732000D02*
X160758000Y-143732000D01*
%TO.C,R5*%
X166394000Y-137192000D02*
X166724000Y-137192000D01*
X166724000Y-137192000D02*
X166724000Y-143732000D01*
X166724000Y-143732000D02*
X166394000Y-143732000D01*
X164314000Y-137192000D02*
X163984000Y-137192000D01*
X163984000Y-137192000D02*
X163984000Y-143732000D01*
X163984000Y-143732000D02*
X164314000Y-143732000D01*
%TO.C,R4*%
X141708000Y-147542000D02*
X141378000Y-147542000D01*
X141378000Y-147542000D02*
X141378000Y-141002000D01*
X141378000Y-141002000D02*
X141708000Y-141002000D01*
X143788000Y-147542000D02*
X144118000Y-147542000D01*
X144118000Y-147542000D02*
X144118000Y-141002000D01*
X144118000Y-141002000D02*
X143788000Y-141002000D01*
%TO.C,R3*%
X143788000Y-130588000D02*
X144118000Y-130588000D01*
X144118000Y-130588000D02*
X144118000Y-137128000D01*
X144118000Y-137128000D02*
X143788000Y-137128000D01*
X141708000Y-130588000D02*
X141378000Y-130588000D01*
X141378000Y-130588000D02*
X141378000Y-137128000D01*
X141378000Y-137128000D02*
X141708000Y-137128000D01*
%TO.C,R2*%
X145772000Y-95980000D02*
X145442000Y-95980000D01*
X145442000Y-95980000D02*
X145442000Y-89440000D01*
X145442000Y-89440000D02*
X145772000Y-89440000D01*
X147852000Y-95980000D02*
X148182000Y-95980000D01*
X148182000Y-95980000D02*
X148182000Y-89440000D01*
X148182000Y-89440000D02*
X147852000Y-89440000D01*
%TO.C,R1*%
X145264000Y-137128000D02*
X144934000Y-137128000D01*
X144934000Y-137128000D02*
X144934000Y-130588000D01*
X144934000Y-130588000D02*
X145264000Y-130588000D01*
X147344000Y-137128000D02*
X147674000Y-137128000D01*
X147674000Y-137128000D02*
X147674000Y-130588000D01*
X147674000Y-130588000D02*
X147344000Y-130588000D01*
%TO.C,J6*%
X169521000Y-81772000D02*
X169521000Y-102632000D01*
X169521000Y-102632000D02*
X160171000Y-102632000D01*
X160171000Y-102632000D02*
X160171000Y-81772000D01*
X160171000Y-81772000D02*
X169521000Y-81772000D01*
X160426000Y-82022000D02*
X169276000Y-82022000D01*
X169276000Y-82022000D02*
X169276000Y-102372000D01*
X169276000Y-102372000D02*
X160426000Y-102372000D01*
X160426000Y-102372000D02*
X160426000Y-82022000D01*
X160426000Y-82022000D02*
X160976000Y-82572000D01*
X160976000Y-82572000D02*
X168726000Y-82572000D01*
X168726000Y-82572000D02*
X169276000Y-82022000D01*
X168726000Y-82572000D02*
X168726000Y-101822000D01*
X168726000Y-101822000D02*
X169276000Y-102372000D01*
X168726000Y-101822000D02*
X160976000Y-101822000D01*
X160976000Y-101822000D02*
X160476000Y-102322000D01*
X160976000Y-101822000D02*
X160976000Y-94472000D01*
X160976000Y-94452000D02*
X160466000Y-94452000D01*
X160476000Y-89952000D02*
X160956000Y-89952000D01*
X160976000Y-89952000D02*
X160976000Y-82572000D01*
%TO.C,J5*%
X141926000Y-121472000D02*
X141926000Y-120142000D01*
X143256000Y-121472000D02*
X141926000Y-121472000D01*
X144526000Y-121472000D02*
X144526000Y-118812000D01*
X144526000Y-118812000D02*
X147126000Y-118812000D01*
X144526000Y-121472000D02*
X147126000Y-121472000D01*
X147126000Y-121472000D02*
X147126000Y-118812000D01*
%TO.C,J4*%
X162246000Y-120964000D02*
X162246000Y-119634000D01*
X163576000Y-120964000D02*
X162246000Y-120964000D01*
X164846000Y-120964000D02*
X164846000Y-118304000D01*
X164846000Y-118304000D02*
X167446000Y-118304000D01*
X164846000Y-120964000D02*
X167446000Y-120964000D01*
X167446000Y-120964000D02*
X167446000Y-118304000D01*
%TO.C,J3*%
X162246000Y-116900000D02*
X162246000Y-115570000D01*
X163576000Y-116900000D02*
X162246000Y-116900000D01*
X164846000Y-116900000D02*
X164846000Y-114240000D01*
X164846000Y-114240000D02*
X167446000Y-114240000D01*
X164846000Y-116900000D02*
X167446000Y-116900000D01*
X167446000Y-116900000D02*
X167446000Y-114240000D01*
%TO.C,J2*%
X141926000Y-126806000D02*
X141926000Y-125476000D01*
X143256000Y-126806000D02*
X141926000Y-126806000D01*
X144526000Y-126806000D02*
X144526000Y-124146000D01*
X144526000Y-124146000D02*
X147126000Y-124146000D01*
X144526000Y-126806000D02*
X147126000Y-126806000D01*
X147126000Y-126806000D02*
X147126000Y-124146000D01*
%TO.C,J1*%
X162246000Y-125282000D02*
X162246000Y-123952000D01*
X163576000Y-125282000D02*
X162246000Y-125282000D01*
X164846000Y-125282000D02*
X164846000Y-122622000D01*
X164846000Y-122622000D02*
X167446000Y-122622000D01*
X164846000Y-125282000D02*
X167446000Y-125282000D01*
X167446000Y-125282000D02*
X167446000Y-122622000D01*
%TO.C,C6*%
X157004000Y-156119000D02*
X157004000Y-157515000D01*
X157004000Y-152873000D02*
X157004000Y-154269000D01*
X150764000Y-156119000D02*
X150764000Y-157515000D01*
X150764000Y-152873000D02*
X150764000Y-154269000D01*
X150764000Y-157515000D02*
X157004000Y-157515000D01*
X150764000Y-152873000D02*
X157004000Y-152873000D01*
%TO.C,C5*%
X163159000Y-134986000D02*
X161763000Y-134986000D01*
X166405000Y-134986000D02*
X165009000Y-134986000D01*
X163159000Y-128746000D02*
X161763000Y-128746000D01*
X166405000Y-128746000D02*
X165009000Y-128746000D01*
X161763000Y-128746000D02*
X161763000Y-134986000D01*
X166405000Y-128746000D02*
X166405000Y-134986000D01*
%TO.C,C4*%
X157592000Y-101509000D02*
X157592000Y-102905000D01*
X157592000Y-98263000D02*
X157592000Y-99659000D01*
X151352000Y-101509000D02*
X151352000Y-102905000D01*
X151352000Y-98263000D02*
X151352000Y-99659000D01*
X151352000Y-102905000D02*
X157592000Y-102905000D01*
X151352000Y-98263000D02*
X157592000Y-98263000D01*
%TO.C,C3*%
X157592000Y-85761000D02*
X157592000Y-87157000D01*
X157592000Y-82515000D02*
X157592000Y-83911000D01*
X151352000Y-85761000D02*
X151352000Y-87157000D01*
X151352000Y-82515000D02*
X151352000Y-83911000D01*
X151352000Y-87157000D02*
X157592000Y-87157000D01*
X151352000Y-82515000D02*
X157592000Y-82515000D01*
%TO.C,C2*%
X163708000Y-77119241D02*
X164338000Y-77119241D01*
X164023000Y-77434241D02*
X164023000Y-76804241D01*
X165460000Y-70693000D02*
X166264000Y-70693000D01*
X165229000Y-70733000D02*
X166495000Y-70733000D01*
X165060000Y-70773000D02*
X166664000Y-70773000D01*
X164922000Y-70813000D02*
X166802000Y-70813000D01*
X164803000Y-70853000D02*
X166921000Y-70853000D01*
X164697000Y-70893000D02*
X167027000Y-70893000D01*
X164600000Y-70933000D02*
X167124000Y-70933000D01*
X164512000Y-70973000D02*
X167212000Y-70973000D01*
X164430000Y-71013000D02*
X167294000Y-71013000D01*
X164353000Y-71053000D02*
X167371000Y-71053000D01*
X164281000Y-71093000D02*
X167443000Y-71093000D01*
X164212000Y-71133000D02*
X167512000Y-71133000D01*
X164148000Y-71173000D02*
X167576000Y-71173000D01*
X164086000Y-71213000D02*
X167638000Y-71213000D01*
X164028000Y-71253000D02*
X167696000Y-71253000D01*
X163972000Y-71293000D02*
X167752000Y-71293000D01*
X163918000Y-71333000D02*
X167806000Y-71333000D01*
X163867000Y-71373000D02*
X167857000Y-71373000D01*
X163818000Y-71413000D02*
X167906000Y-71413000D01*
X163770000Y-71453000D02*
X167954000Y-71453000D01*
X163725000Y-71493000D02*
X167999000Y-71493000D01*
X163680000Y-71533000D02*
X168044000Y-71533000D01*
X163638000Y-71573000D02*
X168086000Y-71573000D01*
X163597000Y-71613000D02*
X168127000Y-71613000D01*
X166902000Y-71653000D02*
X168167000Y-71653000D01*
X163557000Y-71653000D02*
X164822000Y-71653000D01*
X166902000Y-71693000D02*
X168205000Y-71693000D01*
X163519000Y-71693000D02*
X164822000Y-71693000D01*
X166902000Y-71733000D02*
X168242000Y-71733000D01*
X163482000Y-71733000D02*
X164822000Y-71733000D01*
X166902000Y-71773000D02*
X168278000Y-71773000D01*
X163446000Y-71773000D02*
X164822000Y-71773000D01*
X166902000Y-71813000D02*
X168312000Y-71813000D01*
X163412000Y-71813000D02*
X164822000Y-71813000D01*
X166902000Y-71853000D02*
X168346000Y-71853000D01*
X163378000Y-71853000D02*
X164822000Y-71853000D01*
X166902000Y-71893000D02*
X168378000Y-71893000D01*
X163346000Y-71893000D02*
X164822000Y-71893000D01*
X166902000Y-71933000D02*
X168410000Y-71933000D01*
X163314000Y-71933000D02*
X164822000Y-71933000D01*
X166902000Y-71973000D02*
X168440000Y-71973000D01*
X163284000Y-71973000D02*
X164822000Y-71973000D01*
X166902000Y-72013000D02*
X168469000Y-72013000D01*
X163255000Y-72013000D02*
X164822000Y-72013000D01*
X166902000Y-72053000D02*
X168498000Y-72053000D01*
X163226000Y-72053000D02*
X164822000Y-72053000D01*
X166902000Y-72093000D02*
X168526000Y-72093000D01*
X163198000Y-72093000D02*
X164822000Y-72093000D01*
X166902000Y-72133000D02*
X168552000Y-72133000D01*
X163172000Y-72133000D02*
X164822000Y-72133000D01*
X166902000Y-72173000D02*
X168578000Y-72173000D01*
X163146000Y-72173000D02*
X164822000Y-72173000D01*
X166902000Y-72213000D02*
X168604000Y-72213000D01*
X163120000Y-72213000D02*
X164822000Y-72213000D01*
X166902000Y-72253000D02*
X168628000Y-72253000D01*
X163096000Y-72253000D02*
X164822000Y-72253000D01*
X166902000Y-72293000D02*
X168652000Y-72293000D01*
X163072000Y-72293000D02*
X164822000Y-72293000D01*
X166902000Y-72333000D02*
X168674000Y-72333000D01*
X163050000Y-72333000D02*
X164822000Y-72333000D01*
X166902000Y-72373000D02*
X168696000Y-72373000D01*
X163028000Y-72373000D02*
X164822000Y-72373000D01*
X166902000Y-72413000D02*
X168718000Y-72413000D01*
X163006000Y-72413000D02*
X164822000Y-72413000D01*
X166902000Y-72453000D02*
X168738000Y-72453000D01*
X162986000Y-72453000D02*
X164822000Y-72453000D01*
X166902000Y-72493000D02*
X168758000Y-72493000D01*
X162966000Y-72493000D02*
X164822000Y-72493000D01*
X166902000Y-72533000D02*
X168778000Y-72533000D01*
X162946000Y-72533000D02*
X164822000Y-72533000D01*
X166902000Y-72573000D02*
X168796000Y-72573000D01*
X162928000Y-72573000D02*
X164822000Y-72573000D01*
X166902000Y-72613000D02*
X168814000Y-72613000D01*
X162910000Y-72613000D02*
X164822000Y-72613000D01*
X166902000Y-72653000D02*
X168832000Y-72653000D01*
X162892000Y-72653000D02*
X164822000Y-72653000D01*
X166902000Y-72693000D02*
X168848000Y-72693000D01*
X162876000Y-72693000D02*
X164822000Y-72693000D01*
X166902000Y-72733000D02*
X168864000Y-72733000D01*
X162860000Y-72733000D02*
X164822000Y-72733000D01*
X166902000Y-72773000D02*
X168880000Y-72773000D01*
X162844000Y-72773000D02*
X164822000Y-72773000D01*
X166902000Y-72813000D02*
X168895000Y-72813000D01*
X162829000Y-72813000D02*
X164822000Y-72813000D01*
X166902000Y-72853000D02*
X168909000Y-72853000D01*
X162815000Y-72853000D02*
X164822000Y-72853000D01*
X166902000Y-72893000D02*
X168923000Y-72893000D01*
X162801000Y-72893000D02*
X164822000Y-72893000D01*
X166902000Y-72933000D02*
X168936000Y-72933000D01*
X162788000Y-72933000D02*
X164822000Y-72933000D01*
X166902000Y-72973000D02*
X168948000Y-72973000D01*
X162776000Y-72973000D02*
X164822000Y-72973000D01*
X166902000Y-73013000D02*
X168960000Y-73013000D01*
X162764000Y-73013000D02*
X164822000Y-73013000D01*
X166902000Y-73053000D02*
X168972000Y-73053000D01*
X162752000Y-73053000D02*
X164822000Y-73053000D01*
X166902000Y-73093000D02*
X168983000Y-73093000D01*
X162741000Y-73093000D02*
X164822000Y-73093000D01*
X166902000Y-73133000D02*
X168993000Y-73133000D01*
X162731000Y-73133000D02*
X164822000Y-73133000D01*
X166902000Y-73173000D02*
X169003000Y-73173000D01*
X162721000Y-73173000D02*
X164822000Y-73173000D01*
X166902000Y-73213000D02*
X169012000Y-73213000D01*
X162712000Y-73213000D02*
X164822000Y-73213000D01*
X166902000Y-73254000D02*
X169021000Y-73254000D01*
X162703000Y-73254000D02*
X164822000Y-73254000D01*
X166902000Y-73294000D02*
X169029000Y-73294000D01*
X162695000Y-73294000D02*
X164822000Y-73294000D01*
X166902000Y-73334000D02*
X169037000Y-73334000D01*
X162687000Y-73334000D02*
X164822000Y-73334000D01*
X166902000Y-73374000D02*
X169044000Y-73374000D01*
X162680000Y-73374000D02*
X164822000Y-73374000D01*
X166902000Y-73414000D02*
X169051000Y-73414000D01*
X162673000Y-73414000D02*
X164822000Y-73414000D01*
X166902000Y-73454000D02*
X169057000Y-73454000D01*
X162667000Y-73454000D02*
X164822000Y-73454000D01*
X166902000Y-73494000D02*
X169063000Y-73494000D01*
X162661000Y-73494000D02*
X164822000Y-73494000D01*
X166902000Y-73534000D02*
X169068000Y-73534000D01*
X162656000Y-73534000D02*
X164822000Y-73534000D01*
X166902000Y-73574000D02*
X169073000Y-73574000D01*
X162651000Y-73574000D02*
X164822000Y-73574000D01*
X166902000Y-73614000D02*
X169077000Y-73614000D01*
X162647000Y-73614000D02*
X164822000Y-73614000D01*
X166902000Y-73654000D02*
X169080000Y-73654000D01*
X162644000Y-73654000D02*
X164822000Y-73654000D01*
X166902000Y-73694000D02*
X169084000Y-73694000D01*
X162640000Y-73694000D02*
X164822000Y-73694000D01*
X162638000Y-73734000D02*
X169086000Y-73734000D01*
X162635000Y-73774000D02*
X169089000Y-73774000D01*
X162634000Y-73814000D02*
X169090000Y-73814000D01*
X162632000Y-73854000D02*
X169092000Y-73854000D01*
X162632000Y-73894000D02*
X169092000Y-73894000D01*
X162632000Y-73934000D02*
X169092000Y-73934000D01*
X169132000Y-73934000D02*
G75*
G03*
X169132000Y-73934000I-3270000J0D01*
G01*
%TO.C,C1*%
X163708000Y-113187241D02*
X164338000Y-113187241D01*
X164023000Y-113502241D02*
X164023000Y-112872241D01*
X165460000Y-106761000D02*
X166264000Y-106761000D01*
X165229000Y-106801000D02*
X166495000Y-106801000D01*
X165060000Y-106841000D02*
X166664000Y-106841000D01*
X164922000Y-106881000D02*
X166802000Y-106881000D01*
X164803000Y-106921000D02*
X166921000Y-106921000D01*
X164697000Y-106961000D02*
X167027000Y-106961000D01*
X164600000Y-107001000D02*
X167124000Y-107001000D01*
X164512000Y-107041000D02*
X167212000Y-107041000D01*
X164430000Y-107081000D02*
X167294000Y-107081000D01*
X164353000Y-107121000D02*
X167371000Y-107121000D01*
X164281000Y-107161000D02*
X167443000Y-107161000D01*
X164212000Y-107201000D02*
X167512000Y-107201000D01*
X164148000Y-107241000D02*
X167576000Y-107241000D01*
X164086000Y-107281000D02*
X167638000Y-107281000D01*
X164028000Y-107321000D02*
X167696000Y-107321000D01*
X163972000Y-107361000D02*
X167752000Y-107361000D01*
X163918000Y-107401000D02*
X167806000Y-107401000D01*
X163867000Y-107441000D02*
X167857000Y-107441000D01*
X163818000Y-107481000D02*
X167906000Y-107481000D01*
X163770000Y-107521000D02*
X167954000Y-107521000D01*
X163725000Y-107561000D02*
X167999000Y-107561000D01*
X163680000Y-107601000D02*
X168044000Y-107601000D01*
X163638000Y-107641000D02*
X168086000Y-107641000D01*
X163597000Y-107681000D02*
X168127000Y-107681000D01*
X166902000Y-107721000D02*
X168167000Y-107721000D01*
X163557000Y-107721000D02*
X164822000Y-107721000D01*
X166902000Y-107761000D02*
X168205000Y-107761000D01*
X163519000Y-107761000D02*
X164822000Y-107761000D01*
X166902000Y-107801000D02*
X168242000Y-107801000D01*
X163482000Y-107801000D02*
X164822000Y-107801000D01*
X166902000Y-107841000D02*
X168278000Y-107841000D01*
X163446000Y-107841000D02*
X164822000Y-107841000D01*
X166902000Y-107881000D02*
X168312000Y-107881000D01*
X163412000Y-107881000D02*
X164822000Y-107881000D01*
X166902000Y-107921000D02*
X168346000Y-107921000D01*
X163378000Y-107921000D02*
X164822000Y-107921000D01*
X166902000Y-107961000D02*
X168378000Y-107961000D01*
X163346000Y-107961000D02*
X164822000Y-107961000D01*
X166902000Y-108001000D02*
X168410000Y-108001000D01*
X163314000Y-108001000D02*
X164822000Y-108001000D01*
X166902000Y-108041000D02*
X168440000Y-108041000D01*
X163284000Y-108041000D02*
X164822000Y-108041000D01*
X166902000Y-108081000D02*
X168469000Y-108081000D01*
X163255000Y-108081000D02*
X164822000Y-108081000D01*
X166902000Y-108121000D02*
X168498000Y-108121000D01*
X163226000Y-108121000D02*
X164822000Y-108121000D01*
X166902000Y-108161000D02*
X168526000Y-108161000D01*
X163198000Y-108161000D02*
X164822000Y-108161000D01*
X166902000Y-108201000D02*
X168552000Y-108201000D01*
X163172000Y-108201000D02*
X164822000Y-108201000D01*
X166902000Y-108241000D02*
X168578000Y-108241000D01*
X163146000Y-108241000D02*
X164822000Y-108241000D01*
X166902000Y-108281000D02*
X168604000Y-108281000D01*
X163120000Y-108281000D02*
X164822000Y-108281000D01*
X166902000Y-108321000D02*
X168628000Y-108321000D01*
X163096000Y-108321000D02*
X164822000Y-108321000D01*
X166902000Y-108361000D02*
X168652000Y-108361000D01*
X163072000Y-108361000D02*
X164822000Y-108361000D01*
X166902000Y-108401000D02*
X168674000Y-108401000D01*
X163050000Y-108401000D02*
X164822000Y-108401000D01*
X166902000Y-108441000D02*
X168696000Y-108441000D01*
X163028000Y-108441000D02*
X164822000Y-108441000D01*
X166902000Y-108481000D02*
X168718000Y-108481000D01*
X163006000Y-108481000D02*
X164822000Y-108481000D01*
X166902000Y-108521000D02*
X168738000Y-108521000D01*
X162986000Y-108521000D02*
X164822000Y-108521000D01*
X166902000Y-108561000D02*
X168758000Y-108561000D01*
X162966000Y-108561000D02*
X164822000Y-108561000D01*
X166902000Y-108601000D02*
X168778000Y-108601000D01*
X162946000Y-108601000D02*
X164822000Y-108601000D01*
X166902000Y-108641000D02*
X168796000Y-108641000D01*
X162928000Y-108641000D02*
X164822000Y-108641000D01*
X166902000Y-108681000D02*
X168814000Y-108681000D01*
X162910000Y-108681000D02*
X164822000Y-108681000D01*
X166902000Y-108721000D02*
X168832000Y-108721000D01*
X162892000Y-108721000D02*
X164822000Y-108721000D01*
X166902000Y-108761000D02*
X168848000Y-108761000D01*
X162876000Y-108761000D02*
X164822000Y-108761000D01*
X166902000Y-108801000D02*
X168864000Y-108801000D01*
X162860000Y-108801000D02*
X164822000Y-108801000D01*
X166902000Y-108841000D02*
X168880000Y-108841000D01*
X162844000Y-108841000D02*
X164822000Y-108841000D01*
X166902000Y-108881000D02*
X168895000Y-108881000D01*
X162829000Y-108881000D02*
X164822000Y-108881000D01*
X166902000Y-108921000D02*
X168909000Y-108921000D01*
X162815000Y-108921000D02*
X164822000Y-108921000D01*
X166902000Y-108961000D02*
X168923000Y-108961000D01*
X162801000Y-108961000D02*
X164822000Y-108961000D01*
X166902000Y-109001000D02*
X168936000Y-109001000D01*
X162788000Y-109001000D02*
X164822000Y-109001000D01*
X166902000Y-109041000D02*
X168948000Y-109041000D01*
X162776000Y-109041000D02*
X164822000Y-109041000D01*
X166902000Y-109081000D02*
X168960000Y-109081000D01*
X162764000Y-109081000D02*
X164822000Y-109081000D01*
X166902000Y-109121000D02*
X168972000Y-109121000D01*
X162752000Y-109121000D02*
X164822000Y-109121000D01*
X166902000Y-109161000D02*
X168983000Y-109161000D01*
X162741000Y-109161000D02*
X164822000Y-109161000D01*
X166902000Y-109201000D02*
X168993000Y-109201000D01*
X162731000Y-109201000D02*
X164822000Y-109201000D01*
X166902000Y-109241000D02*
X169003000Y-109241000D01*
X162721000Y-109241000D02*
X164822000Y-109241000D01*
X166902000Y-109281000D02*
X169012000Y-109281000D01*
X162712000Y-109281000D02*
X164822000Y-109281000D01*
X166902000Y-109322000D02*
X169021000Y-109322000D01*
X162703000Y-109322000D02*
X164822000Y-109322000D01*
X166902000Y-109362000D02*
X169029000Y-109362000D01*
X162695000Y-109362000D02*
X164822000Y-109362000D01*
X166902000Y-109402000D02*
X169037000Y-109402000D01*
X162687000Y-109402000D02*
X164822000Y-109402000D01*
X166902000Y-109442000D02*
X169044000Y-109442000D01*
X162680000Y-109442000D02*
X164822000Y-109442000D01*
X166902000Y-109482000D02*
X169051000Y-109482000D01*
X162673000Y-109482000D02*
X164822000Y-109482000D01*
X166902000Y-109522000D02*
X169057000Y-109522000D01*
X162667000Y-109522000D02*
X164822000Y-109522000D01*
X166902000Y-109562000D02*
X169063000Y-109562000D01*
X162661000Y-109562000D02*
X164822000Y-109562000D01*
X166902000Y-109602000D02*
X169068000Y-109602000D01*
X162656000Y-109602000D02*
X164822000Y-109602000D01*
X166902000Y-109642000D02*
X169073000Y-109642000D01*
X162651000Y-109642000D02*
X164822000Y-109642000D01*
X166902000Y-109682000D02*
X169077000Y-109682000D01*
X162647000Y-109682000D02*
X164822000Y-109682000D01*
X166902000Y-109722000D02*
X169080000Y-109722000D01*
X162644000Y-109722000D02*
X164822000Y-109722000D01*
X166902000Y-109762000D02*
X169084000Y-109762000D01*
X162640000Y-109762000D02*
X164822000Y-109762000D01*
X162638000Y-109802000D02*
X169086000Y-109802000D01*
X162635000Y-109842000D02*
X169089000Y-109842000D01*
X162634000Y-109882000D02*
X169090000Y-109882000D01*
X162632000Y-109922000D02*
X169092000Y-109922000D01*
X162632000Y-109962000D02*
X169092000Y-109962000D01*
X162632000Y-110002000D02*
X169092000Y-110002000D01*
X169132000Y-110002000D02*
G75*
G03*
X169132000Y-110002000I-3270000J0D01*
G01*
%TO.C,U2*%
D10*
X153162095Y-135850380D02*
X153162095Y-136659904D01*
X153209714Y-136755142D01*
X153257333Y-136802761D01*
X153352571Y-136850380D01*
X153543047Y-136850380D01*
X153638285Y-136802761D01*
X153685904Y-136755142D01*
X153733523Y-136659904D01*
X153733523Y-135850380D01*
X154162095Y-135945619D02*
X154209714Y-135898000D01*
X154304952Y-135850380D01*
X154543047Y-135850380D01*
X154638285Y-135898000D01*
X154685904Y-135945619D01*
X154733523Y-136040857D01*
X154733523Y-136136095D01*
X154685904Y-136278952D01*
X154114476Y-136850380D01*
X154733523Y-136850380D01*
%TO.C,U1*%
X153670095Y-89114380D02*
X153670095Y-89923904D01*
X153717714Y-90019142D01*
X153765333Y-90066761D01*
X153860571Y-90114380D01*
X154051047Y-90114380D01*
X154146285Y-90066761D01*
X154193904Y-90019142D01*
X154241523Y-89923904D01*
X154241523Y-89114380D01*
X155241523Y-90114380D02*
X154670095Y-90114380D01*
X154955809Y-90114380D02*
X154955809Y-89114380D01*
X154860571Y-89257238D01*
X154765333Y-89352476D01*
X154670095Y-89400095D01*
%TO.C,R12*%
D12*
X161412285Y-153433428D02*
X161212285Y-153147714D01*
X161069428Y-153433428D02*
X161069428Y-152833428D01*
X161298000Y-152833428D01*
X161355142Y-152862000D01*
X161383714Y-152890571D01*
X161412285Y-152947714D01*
X161412285Y-153033428D01*
X161383714Y-153090571D01*
X161355142Y-153119142D01*
X161298000Y-153147714D01*
X161069428Y-153147714D01*
X161983714Y-153433428D02*
X161640857Y-153433428D01*
X161812285Y-153433428D02*
X161812285Y-152833428D01*
X161755142Y-152919142D01*
X161698000Y-152976285D01*
X161640857Y-153004857D01*
X162212285Y-152890571D02*
X162240857Y-152862000D01*
X162298000Y-152833428D01*
X162440857Y-152833428D01*
X162498000Y-152862000D01*
X162526571Y-152890571D01*
X162555142Y-152947714D01*
X162555142Y-153004857D01*
X162526571Y-153090571D01*
X162183714Y-153433428D01*
X162555142Y-153433428D01*
D10*
X162250380Y-151693428D02*
X162250380Y-152264857D01*
X162250380Y-151979142D02*
X161250380Y-151979142D01*
X161393238Y-152074380D01*
X161488476Y-152169619D01*
X161536095Y-152264857D01*
X161250380Y-151074380D02*
X161250380Y-150979142D01*
X161298000Y-150883904D01*
X161345619Y-150836285D01*
X161440857Y-150788666D01*
X161631333Y-150741047D01*
X161869428Y-150741047D01*
X162059904Y-150788666D01*
X162155142Y-150836285D01*
X162202761Y-150883904D01*
X162250380Y-150979142D01*
X162250380Y-151074380D01*
X162202761Y-151169619D01*
X162155142Y-151217238D01*
X162059904Y-151264857D01*
X161869428Y-151312476D01*
X161631333Y-151312476D01*
X161440857Y-151264857D01*
X161345619Y-151217238D01*
X161298000Y-151169619D01*
X161250380Y-151074380D01*
X161250380Y-150122000D02*
X161250380Y-150026761D01*
X161298000Y-149931523D01*
X161345619Y-149883904D01*
X161440857Y-149836285D01*
X161631333Y-149788666D01*
X161869428Y-149788666D01*
X162059904Y-149836285D01*
X162155142Y-149883904D01*
X162202761Y-149931523D01*
X162250380Y-150026761D01*
X162250380Y-150122000D01*
X162202761Y-150217238D01*
X162155142Y-150264857D01*
X162059904Y-150312476D01*
X161869428Y-150360095D01*
X161631333Y-150360095D01*
X161440857Y-150312476D01*
X161345619Y-150264857D01*
X161298000Y-150217238D01*
X161250380Y-150122000D01*
X162250380Y-149360095D02*
X161250380Y-149360095D01*
X161869428Y-149264857D02*
X162250380Y-148979142D01*
X161583714Y-148979142D02*
X161964666Y-149360095D01*
%TO.C,R11*%
D12*
X164968285Y-148353428D02*
X164768285Y-148067714D01*
X164625428Y-148353428D02*
X164625428Y-147753428D01*
X164854000Y-147753428D01*
X164911142Y-147782000D01*
X164939714Y-147810571D01*
X164968285Y-147867714D01*
X164968285Y-147953428D01*
X164939714Y-148010571D01*
X164911142Y-148039142D01*
X164854000Y-148067714D01*
X164625428Y-148067714D01*
X165539714Y-148353428D02*
X165196857Y-148353428D01*
X165368285Y-148353428D02*
X165368285Y-147753428D01*
X165311142Y-147839142D01*
X165254000Y-147896285D01*
X165196857Y-147924857D01*
X166111142Y-148353428D02*
X165768285Y-148353428D01*
X165939714Y-148353428D02*
X165939714Y-147753428D01*
X165882571Y-147839142D01*
X165825428Y-147896285D01*
X165768285Y-147924857D01*
D10*
X165806380Y-151693428D02*
X165806380Y-152264857D01*
X165806380Y-151979142D02*
X164806380Y-151979142D01*
X164949238Y-152074380D01*
X165044476Y-152169619D01*
X165092095Y-152264857D01*
X164806380Y-151074380D02*
X164806380Y-150979142D01*
X164854000Y-150883904D01*
X164901619Y-150836285D01*
X164996857Y-150788666D01*
X165187333Y-150741047D01*
X165425428Y-150741047D01*
X165615904Y-150788666D01*
X165711142Y-150836285D01*
X165758761Y-150883904D01*
X165806380Y-150979142D01*
X165806380Y-151074380D01*
X165758761Y-151169619D01*
X165711142Y-151217238D01*
X165615904Y-151264857D01*
X165425428Y-151312476D01*
X165187333Y-151312476D01*
X164996857Y-151264857D01*
X164901619Y-151217238D01*
X164854000Y-151169619D01*
X164806380Y-151074380D01*
X164806380Y-150122000D02*
X164806380Y-150026761D01*
X164854000Y-149931523D01*
X164901619Y-149883904D01*
X164996857Y-149836285D01*
X165187333Y-149788666D01*
X165425428Y-149788666D01*
X165615904Y-149836285D01*
X165711142Y-149883904D01*
X165758761Y-149931523D01*
X165806380Y-150026761D01*
X165806380Y-150122000D01*
X165758761Y-150217238D01*
X165711142Y-150264857D01*
X165615904Y-150312476D01*
X165425428Y-150360095D01*
X165187333Y-150360095D01*
X164996857Y-150312476D01*
X164901619Y-150264857D01*
X164854000Y-150217238D01*
X164806380Y-150122000D01*
X165806380Y-149360095D02*
X164806380Y-149360095D01*
X165425428Y-149264857D02*
X165806380Y-148979142D01*
X165139714Y-148979142D02*
X165520666Y-149360095D01*
%TO.C,R10*%
D12*
X145918285Y-157243428D02*
X145718285Y-156957714D01*
X145575428Y-157243428D02*
X145575428Y-156643428D01*
X145804000Y-156643428D01*
X145861142Y-156672000D01*
X145889714Y-156700571D01*
X145918285Y-156757714D01*
X145918285Y-156843428D01*
X145889714Y-156900571D01*
X145861142Y-156929142D01*
X145804000Y-156957714D01*
X145575428Y-156957714D01*
X146489714Y-157243428D02*
X146146857Y-157243428D01*
X146318285Y-157243428D02*
X146318285Y-156643428D01*
X146261142Y-156729142D01*
X146204000Y-156786285D01*
X146146857Y-156814857D01*
X146861142Y-156643428D02*
X146918285Y-156643428D01*
X146975428Y-156672000D01*
X147004000Y-156700571D01*
X147032571Y-156757714D01*
X147061142Y-156872000D01*
X147061142Y-157014857D01*
X147032571Y-157129142D01*
X147004000Y-157186285D01*
X146975428Y-157214857D01*
X146918285Y-157243428D01*
X146861142Y-157243428D01*
X146804000Y-157214857D01*
X146775428Y-157186285D01*
X146746857Y-157129142D01*
X146718285Y-157014857D01*
X146718285Y-156872000D01*
X146746857Y-156757714D01*
X146775428Y-156700571D01*
X146804000Y-156672000D01*
X146861142Y-156643428D01*
D10*
X146756380Y-155503428D02*
X146756380Y-156074857D01*
X146756380Y-155789142D02*
X145756380Y-155789142D01*
X145899238Y-155884380D01*
X145994476Y-155979619D01*
X146042095Y-156074857D01*
X145756380Y-154884380D02*
X145756380Y-154789142D01*
X145804000Y-154693904D01*
X145851619Y-154646285D01*
X145946857Y-154598666D01*
X146137333Y-154551047D01*
X146375428Y-154551047D01*
X146565904Y-154598666D01*
X146661142Y-154646285D01*
X146708761Y-154693904D01*
X146756380Y-154789142D01*
X146756380Y-154884380D01*
X146708761Y-154979619D01*
X146661142Y-155027238D01*
X146565904Y-155074857D01*
X146375428Y-155122476D01*
X146137333Y-155122476D01*
X145946857Y-155074857D01*
X145851619Y-155027238D01*
X145804000Y-154979619D01*
X145756380Y-154884380D01*
X145756380Y-153932000D02*
X145756380Y-153836761D01*
X145804000Y-153741523D01*
X145851619Y-153693904D01*
X145946857Y-153646285D01*
X146137333Y-153598666D01*
X146375428Y-153598666D01*
X146565904Y-153646285D01*
X146661142Y-153693904D01*
X146708761Y-153741523D01*
X146756380Y-153836761D01*
X146756380Y-153932000D01*
X146708761Y-154027238D01*
X146661142Y-154074857D01*
X146565904Y-154122476D01*
X146375428Y-154170095D01*
X146137333Y-154170095D01*
X145946857Y-154122476D01*
X145851619Y-154074857D01*
X145804000Y-154027238D01*
X145756380Y-153932000D01*
X146756380Y-153170095D02*
X145756380Y-153170095D01*
X146375428Y-153074857D02*
X146756380Y-152789142D01*
X146089714Y-152789142D02*
X146470666Y-153170095D01*
%TO.C,R9*%
D12*
X151792000Y-109491428D02*
X151592000Y-109205714D01*
X151449142Y-109491428D02*
X151449142Y-108891428D01*
X151677714Y-108891428D01*
X151734857Y-108920000D01*
X151763428Y-108948571D01*
X151792000Y-109005714D01*
X151792000Y-109091428D01*
X151763428Y-109148571D01*
X151734857Y-109177142D01*
X151677714Y-109205714D01*
X151449142Y-109205714D01*
X152077714Y-109491428D02*
X152192000Y-109491428D01*
X152249142Y-109462857D01*
X152277714Y-109434285D01*
X152334857Y-109348571D01*
X152363428Y-109234285D01*
X152363428Y-109005714D01*
X152334857Y-108948571D01*
X152306285Y-108920000D01*
X152249142Y-108891428D01*
X152134857Y-108891428D01*
X152077714Y-108920000D01*
X152049142Y-108948571D01*
X152020571Y-109005714D01*
X152020571Y-109148571D01*
X152049142Y-109205714D01*
X152077714Y-109234285D01*
X152134857Y-109262857D01*
X152249142Y-109262857D01*
X152306285Y-109234285D01*
X152334857Y-109205714D01*
X152363428Y-109148571D01*
D10*
X152344380Y-112831428D02*
X152344380Y-113402857D01*
X152344380Y-113117142D02*
X151344380Y-113117142D01*
X151487238Y-113212380D01*
X151582476Y-113307619D01*
X151630095Y-113402857D01*
X151344380Y-112212380D02*
X151344380Y-112117142D01*
X151392000Y-112021904D01*
X151439619Y-111974285D01*
X151534857Y-111926666D01*
X151725333Y-111879047D01*
X151963428Y-111879047D01*
X152153904Y-111926666D01*
X152249142Y-111974285D01*
X152296761Y-112021904D01*
X152344380Y-112117142D01*
X152344380Y-112212380D01*
X152296761Y-112307619D01*
X152249142Y-112355238D01*
X152153904Y-112402857D01*
X151963428Y-112450476D01*
X151725333Y-112450476D01*
X151534857Y-112402857D01*
X151439619Y-112355238D01*
X151392000Y-112307619D01*
X151344380Y-112212380D01*
X151344380Y-111260000D02*
X151344380Y-111164761D01*
X151392000Y-111069523D01*
X151439619Y-111021904D01*
X151534857Y-110974285D01*
X151725333Y-110926666D01*
X151963428Y-110926666D01*
X152153904Y-110974285D01*
X152249142Y-111021904D01*
X152296761Y-111069523D01*
X152344380Y-111164761D01*
X152344380Y-111260000D01*
X152296761Y-111355238D01*
X152249142Y-111402857D01*
X152153904Y-111450476D01*
X151963428Y-111498095D01*
X151725333Y-111498095D01*
X151534857Y-111450476D01*
X151439619Y-111402857D01*
X151392000Y-111355238D01*
X151344380Y-111260000D01*
X152344380Y-110498095D02*
X151344380Y-110498095D01*
X151963428Y-110402857D02*
X152344380Y-110117142D01*
X151677714Y-110117142D02*
X152058666Y-110498095D01*
%TO.C,R8*%
D12*
X155348000Y-114571428D02*
X155148000Y-114285714D01*
X155005142Y-114571428D02*
X155005142Y-113971428D01*
X155233714Y-113971428D01*
X155290857Y-114000000D01*
X155319428Y-114028571D01*
X155348000Y-114085714D01*
X155348000Y-114171428D01*
X155319428Y-114228571D01*
X155290857Y-114257142D01*
X155233714Y-114285714D01*
X155005142Y-114285714D01*
X155690857Y-114228571D02*
X155633714Y-114200000D01*
X155605142Y-114171428D01*
X155576571Y-114114285D01*
X155576571Y-114085714D01*
X155605142Y-114028571D01*
X155633714Y-114000000D01*
X155690857Y-113971428D01*
X155805142Y-113971428D01*
X155862285Y-114000000D01*
X155890857Y-114028571D01*
X155919428Y-114085714D01*
X155919428Y-114114285D01*
X155890857Y-114171428D01*
X155862285Y-114200000D01*
X155805142Y-114228571D01*
X155690857Y-114228571D01*
X155633714Y-114257142D01*
X155605142Y-114285714D01*
X155576571Y-114342857D01*
X155576571Y-114457142D01*
X155605142Y-114514285D01*
X155633714Y-114542857D01*
X155690857Y-114571428D01*
X155805142Y-114571428D01*
X155862285Y-114542857D01*
X155890857Y-114514285D01*
X155919428Y-114457142D01*
X155919428Y-114342857D01*
X155890857Y-114285714D01*
X155862285Y-114257142D01*
X155805142Y-114228571D01*
D10*
X155900380Y-112831428D02*
X155900380Y-113402857D01*
X155900380Y-113117142D02*
X154900380Y-113117142D01*
X155043238Y-113212380D01*
X155138476Y-113307619D01*
X155186095Y-113402857D01*
X154900380Y-112212380D02*
X154900380Y-112117142D01*
X154948000Y-112021904D01*
X154995619Y-111974285D01*
X155090857Y-111926666D01*
X155281333Y-111879047D01*
X155519428Y-111879047D01*
X155709904Y-111926666D01*
X155805142Y-111974285D01*
X155852761Y-112021904D01*
X155900380Y-112117142D01*
X155900380Y-112212380D01*
X155852761Y-112307619D01*
X155805142Y-112355238D01*
X155709904Y-112402857D01*
X155519428Y-112450476D01*
X155281333Y-112450476D01*
X155090857Y-112402857D01*
X154995619Y-112355238D01*
X154948000Y-112307619D01*
X154900380Y-112212380D01*
X154900380Y-111260000D02*
X154900380Y-111164761D01*
X154948000Y-111069523D01*
X154995619Y-111021904D01*
X155090857Y-110974285D01*
X155281333Y-110926666D01*
X155519428Y-110926666D01*
X155709904Y-110974285D01*
X155805142Y-111021904D01*
X155852761Y-111069523D01*
X155900380Y-111164761D01*
X155900380Y-111260000D01*
X155852761Y-111355238D01*
X155805142Y-111402857D01*
X155709904Y-111450476D01*
X155519428Y-111498095D01*
X155281333Y-111498095D01*
X155090857Y-111450476D01*
X154995619Y-111402857D01*
X154948000Y-111355238D01*
X154900380Y-111260000D01*
X155900380Y-110498095D02*
X154900380Y-110498095D01*
X155519428Y-110402857D02*
X155900380Y-110117142D01*
X155233714Y-110117142D02*
X155614666Y-110498095D01*
%TO.C,R7*%
D12*
X146204000Y-142003428D02*
X146004000Y-141717714D01*
X145861142Y-142003428D02*
X145861142Y-141403428D01*
X146089714Y-141403428D01*
X146146857Y-141432000D01*
X146175428Y-141460571D01*
X146204000Y-141517714D01*
X146204000Y-141603428D01*
X146175428Y-141660571D01*
X146146857Y-141689142D01*
X146089714Y-141717714D01*
X145861142Y-141717714D01*
X146404000Y-141403428D02*
X146804000Y-141403428D01*
X146546857Y-142003428D01*
D10*
X146756380Y-145343428D02*
X146756380Y-145914857D01*
X146756380Y-145629142D02*
X145756380Y-145629142D01*
X145899238Y-145724380D01*
X145994476Y-145819619D01*
X146042095Y-145914857D01*
X145756380Y-144724380D02*
X145756380Y-144629142D01*
X145804000Y-144533904D01*
X145851619Y-144486285D01*
X145946857Y-144438666D01*
X146137333Y-144391047D01*
X146375428Y-144391047D01*
X146565904Y-144438666D01*
X146661142Y-144486285D01*
X146708761Y-144533904D01*
X146756380Y-144629142D01*
X146756380Y-144724380D01*
X146708761Y-144819619D01*
X146661142Y-144867238D01*
X146565904Y-144914857D01*
X146375428Y-144962476D01*
X146137333Y-144962476D01*
X145946857Y-144914857D01*
X145851619Y-144867238D01*
X145804000Y-144819619D01*
X145756380Y-144724380D01*
X145756380Y-143772000D02*
X145756380Y-143676761D01*
X145804000Y-143581523D01*
X145851619Y-143533904D01*
X145946857Y-143486285D01*
X146137333Y-143438666D01*
X146375428Y-143438666D01*
X146565904Y-143486285D01*
X146661142Y-143533904D01*
X146708761Y-143581523D01*
X146756380Y-143676761D01*
X146756380Y-143772000D01*
X146708761Y-143867238D01*
X146661142Y-143914857D01*
X146565904Y-143962476D01*
X146375428Y-144010095D01*
X146137333Y-144010095D01*
X145946857Y-143962476D01*
X145851619Y-143914857D01*
X145804000Y-143867238D01*
X145756380Y-143772000D01*
X146756380Y-143010095D02*
X145756380Y-143010095D01*
X146375428Y-142914857D02*
X146756380Y-142629142D01*
X146089714Y-142629142D02*
X146470666Y-143010095D01*
%TO.C,R6*%
D12*
X161698000Y-138193428D02*
X161498000Y-137907714D01*
X161355142Y-138193428D02*
X161355142Y-137593428D01*
X161583714Y-137593428D01*
X161640857Y-137622000D01*
X161669428Y-137650571D01*
X161698000Y-137707714D01*
X161698000Y-137793428D01*
X161669428Y-137850571D01*
X161640857Y-137879142D01*
X161583714Y-137907714D01*
X161355142Y-137907714D01*
X162212285Y-137593428D02*
X162098000Y-137593428D01*
X162040857Y-137622000D01*
X162012285Y-137650571D01*
X161955142Y-137736285D01*
X161926571Y-137850571D01*
X161926571Y-138079142D01*
X161955142Y-138136285D01*
X161983714Y-138164857D01*
X162040857Y-138193428D01*
X162155142Y-138193428D01*
X162212285Y-138164857D01*
X162240857Y-138136285D01*
X162269428Y-138079142D01*
X162269428Y-137936285D01*
X162240857Y-137879142D01*
X162212285Y-137850571D01*
X162155142Y-137822000D01*
X162040857Y-137822000D01*
X161983714Y-137850571D01*
X161955142Y-137879142D01*
X161926571Y-137936285D01*
D10*
X162250380Y-141533428D02*
X162250380Y-142104857D01*
X162250380Y-141819142D02*
X161250380Y-141819142D01*
X161393238Y-141914380D01*
X161488476Y-142009619D01*
X161536095Y-142104857D01*
X161250380Y-140914380D02*
X161250380Y-140819142D01*
X161298000Y-140723904D01*
X161345619Y-140676285D01*
X161440857Y-140628666D01*
X161631333Y-140581047D01*
X161869428Y-140581047D01*
X162059904Y-140628666D01*
X162155142Y-140676285D01*
X162202761Y-140723904D01*
X162250380Y-140819142D01*
X162250380Y-140914380D01*
X162202761Y-141009619D01*
X162155142Y-141057238D01*
X162059904Y-141104857D01*
X161869428Y-141152476D01*
X161631333Y-141152476D01*
X161440857Y-141104857D01*
X161345619Y-141057238D01*
X161298000Y-141009619D01*
X161250380Y-140914380D01*
X161250380Y-139962000D02*
X161250380Y-139866761D01*
X161298000Y-139771523D01*
X161345619Y-139723904D01*
X161440857Y-139676285D01*
X161631333Y-139628666D01*
X161869428Y-139628666D01*
X162059904Y-139676285D01*
X162155142Y-139723904D01*
X162202761Y-139771523D01*
X162250380Y-139866761D01*
X162250380Y-139962000D01*
X162202761Y-140057238D01*
X162155142Y-140104857D01*
X162059904Y-140152476D01*
X161869428Y-140200095D01*
X161631333Y-140200095D01*
X161440857Y-140152476D01*
X161345619Y-140104857D01*
X161298000Y-140057238D01*
X161250380Y-139962000D01*
X162250380Y-139200095D02*
X161250380Y-139200095D01*
X161869428Y-139104857D02*
X162250380Y-138819142D01*
X161583714Y-138819142D02*
X161964666Y-139200095D01*
%TO.C,R5*%
D12*
X165254000Y-138193428D02*
X165054000Y-137907714D01*
X164911142Y-138193428D02*
X164911142Y-137593428D01*
X165139714Y-137593428D01*
X165196857Y-137622000D01*
X165225428Y-137650571D01*
X165254000Y-137707714D01*
X165254000Y-137793428D01*
X165225428Y-137850571D01*
X165196857Y-137879142D01*
X165139714Y-137907714D01*
X164911142Y-137907714D01*
X165796857Y-137593428D02*
X165511142Y-137593428D01*
X165482571Y-137879142D01*
X165511142Y-137850571D01*
X165568285Y-137822000D01*
X165711142Y-137822000D01*
X165768285Y-137850571D01*
X165796857Y-137879142D01*
X165825428Y-137936285D01*
X165825428Y-138079142D01*
X165796857Y-138136285D01*
X165768285Y-138164857D01*
X165711142Y-138193428D01*
X165568285Y-138193428D01*
X165511142Y-138164857D01*
X165482571Y-138136285D01*
D10*
X165806380Y-141533428D02*
X165806380Y-142104857D01*
X165806380Y-141819142D02*
X164806380Y-141819142D01*
X164949238Y-141914380D01*
X165044476Y-142009619D01*
X165092095Y-142104857D01*
X164806380Y-140914380D02*
X164806380Y-140819142D01*
X164854000Y-140723904D01*
X164901619Y-140676285D01*
X164996857Y-140628666D01*
X165187333Y-140581047D01*
X165425428Y-140581047D01*
X165615904Y-140628666D01*
X165711142Y-140676285D01*
X165758761Y-140723904D01*
X165806380Y-140819142D01*
X165806380Y-140914380D01*
X165758761Y-141009619D01*
X165711142Y-141057238D01*
X165615904Y-141104857D01*
X165425428Y-141152476D01*
X165187333Y-141152476D01*
X164996857Y-141104857D01*
X164901619Y-141057238D01*
X164854000Y-141009619D01*
X164806380Y-140914380D01*
X164806380Y-139962000D02*
X164806380Y-139866761D01*
X164854000Y-139771523D01*
X164901619Y-139723904D01*
X164996857Y-139676285D01*
X165187333Y-139628666D01*
X165425428Y-139628666D01*
X165615904Y-139676285D01*
X165711142Y-139723904D01*
X165758761Y-139771523D01*
X165806380Y-139866761D01*
X165806380Y-139962000D01*
X165758761Y-140057238D01*
X165711142Y-140104857D01*
X165615904Y-140152476D01*
X165425428Y-140200095D01*
X165187333Y-140200095D01*
X164996857Y-140152476D01*
X164901619Y-140104857D01*
X164854000Y-140057238D01*
X164806380Y-139962000D01*
X165806380Y-139200095D02*
X164806380Y-139200095D01*
X165425428Y-139104857D02*
X165806380Y-138819142D01*
X165139714Y-138819142D02*
X165520666Y-139200095D01*
%TO.C,R4*%
D12*
X142648000Y-147083428D02*
X142448000Y-146797714D01*
X142305142Y-147083428D02*
X142305142Y-146483428D01*
X142533714Y-146483428D01*
X142590857Y-146512000D01*
X142619428Y-146540571D01*
X142648000Y-146597714D01*
X142648000Y-146683428D01*
X142619428Y-146740571D01*
X142590857Y-146769142D01*
X142533714Y-146797714D01*
X142305142Y-146797714D01*
X143162285Y-146683428D02*
X143162285Y-147083428D01*
X143019428Y-146454857D02*
X142876571Y-146883428D01*
X143248000Y-146883428D01*
D10*
X143200380Y-145343428D02*
X143200380Y-145914857D01*
X143200380Y-145629142D02*
X142200380Y-145629142D01*
X142343238Y-145724380D01*
X142438476Y-145819619D01*
X142486095Y-145914857D01*
X142200380Y-144724380D02*
X142200380Y-144629142D01*
X142248000Y-144533904D01*
X142295619Y-144486285D01*
X142390857Y-144438666D01*
X142581333Y-144391047D01*
X142819428Y-144391047D01*
X143009904Y-144438666D01*
X143105142Y-144486285D01*
X143152761Y-144533904D01*
X143200380Y-144629142D01*
X143200380Y-144724380D01*
X143152761Y-144819619D01*
X143105142Y-144867238D01*
X143009904Y-144914857D01*
X142819428Y-144962476D01*
X142581333Y-144962476D01*
X142390857Y-144914857D01*
X142295619Y-144867238D01*
X142248000Y-144819619D01*
X142200380Y-144724380D01*
X142200380Y-143772000D02*
X142200380Y-143676761D01*
X142248000Y-143581523D01*
X142295619Y-143533904D01*
X142390857Y-143486285D01*
X142581333Y-143438666D01*
X142819428Y-143438666D01*
X143009904Y-143486285D01*
X143105142Y-143533904D01*
X143152761Y-143581523D01*
X143200380Y-143676761D01*
X143200380Y-143772000D01*
X143152761Y-143867238D01*
X143105142Y-143914857D01*
X143009904Y-143962476D01*
X142819428Y-144010095D01*
X142581333Y-144010095D01*
X142390857Y-143962476D01*
X142295619Y-143914857D01*
X142248000Y-143867238D01*
X142200380Y-143772000D01*
X143200380Y-143010095D02*
X142200380Y-143010095D01*
X142819428Y-142914857D02*
X143200380Y-142629142D01*
X142533714Y-142629142D02*
X142914666Y-143010095D01*
%TO.C,R3*%
D12*
X142648000Y-131589428D02*
X142448000Y-131303714D01*
X142305142Y-131589428D02*
X142305142Y-130989428D01*
X142533714Y-130989428D01*
X142590857Y-131018000D01*
X142619428Y-131046571D01*
X142648000Y-131103714D01*
X142648000Y-131189428D01*
X142619428Y-131246571D01*
X142590857Y-131275142D01*
X142533714Y-131303714D01*
X142305142Y-131303714D01*
X142848000Y-130989428D02*
X143219428Y-130989428D01*
X143019428Y-131218000D01*
X143105142Y-131218000D01*
X143162285Y-131246571D01*
X143190857Y-131275142D01*
X143219428Y-131332285D01*
X143219428Y-131475142D01*
X143190857Y-131532285D01*
X143162285Y-131560857D01*
X143105142Y-131589428D01*
X142933714Y-131589428D01*
X142876571Y-131560857D01*
X142848000Y-131532285D01*
D10*
X143200380Y-134929428D02*
X143200380Y-135500857D01*
X143200380Y-135215142D02*
X142200380Y-135215142D01*
X142343238Y-135310380D01*
X142438476Y-135405619D01*
X142486095Y-135500857D01*
X142200380Y-134310380D02*
X142200380Y-134215142D01*
X142248000Y-134119904D01*
X142295619Y-134072285D01*
X142390857Y-134024666D01*
X142581333Y-133977047D01*
X142819428Y-133977047D01*
X143009904Y-134024666D01*
X143105142Y-134072285D01*
X143152761Y-134119904D01*
X143200380Y-134215142D01*
X143200380Y-134310380D01*
X143152761Y-134405619D01*
X143105142Y-134453238D01*
X143009904Y-134500857D01*
X142819428Y-134548476D01*
X142581333Y-134548476D01*
X142390857Y-134500857D01*
X142295619Y-134453238D01*
X142248000Y-134405619D01*
X142200380Y-134310380D01*
X142200380Y-133358000D02*
X142200380Y-133262761D01*
X142248000Y-133167523D01*
X142295619Y-133119904D01*
X142390857Y-133072285D01*
X142581333Y-133024666D01*
X142819428Y-133024666D01*
X143009904Y-133072285D01*
X143105142Y-133119904D01*
X143152761Y-133167523D01*
X143200380Y-133262761D01*
X143200380Y-133358000D01*
X143152761Y-133453238D01*
X143105142Y-133500857D01*
X143009904Y-133548476D01*
X142819428Y-133596095D01*
X142581333Y-133596095D01*
X142390857Y-133548476D01*
X142295619Y-133500857D01*
X142248000Y-133453238D01*
X142200380Y-133358000D01*
X143200380Y-132596095D02*
X142200380Y-132596095D01*
X142819428Y-132500857D02*
X143200380Y-132215142D01*
X142533714Y-132215142D02*
X142914666Y-132596095D01*
%TO.C,R2*%
D12*
X146712000Y-95521428D02*
X146512000Y-95235714D01*
X146369142Y-95521428D02*
X146369142Y-94921428D01*
X146597714Y-94921428D01*
X146654857Y-94950000D01*
X146683428Y-94978571D01*
X146712000Y-95035714D01*
X146712000Y-95121428D01*
X146683428Y-95178571D01*
X146654857Y-95207142D01*
X146597714Y-95235714D01*
X146369142Y-95235714D01*
X146940571Y-94978571D02*
X146969142Y-94950000D01*
X147026285Y-94921428D01*
X147169142Y-94921428D01*
X147226285Y-94950000D01*
X147254857Y-94978571D01*
X147283428Y-95035714D01*
X147283428Y-95092857D01*
X147254857Y-95178571D01*
X146912000Y-95521428D01*
X147283428Y-95521428D01*
D10*
X147264380Y-93781428D02*
X147264380Y-94352857D01*
X147264380Y-94067142D02*
X146264380Y-94067142D01*
X146407238Y-94162380D01*
X146502476Y-94257619D01*
X146550095Y-94352857D01*
X146264380Y-93162380D02*
X146264380Y-93067142D01*
X146312000Y-92971904D01*
X146359619Y-92924285D01*
X146454857Y-92876666D01*
X146645333Y-92829047D01*
X146883428Y-92829047D01*
X147073904Y-92876666D01*
X147169142Y-92924285D01*
X147216761Y-92971904D01*
X147264380Y-93067142D01*
X147264380Y-93162380D01*
X147216761Y-93257619D01*
X147169142Y-93305238D01*
X147073904Y-93352857D01*
X146883428Y-93400476D01*
X146645333Y-93400476D01*
X146454857Y-93352857D01*
X146359619Y-93305238D01*
X146312000Y-93257619D01*
X146264380Y-93162380D01*
X146264380Y-92210000D02*
X146264380Y-92114761D01*
X146312000Y-92019523D01*
X146359619Y-91971904D01*
X146454857Y-91924285D01*
X146645333Y-91876666D01*
X146883428Y-91876666D01*
X147073904Y-91924285D01*
X147169142Y-91971904D01*
X147216761Y-92019523D01*
X147264380Y-92114761D01*
X147264380Y-92210000D01*
X147216761Y-92305238D01*
X147169142Y-92352857D01*
X147073904Y-92400476D01*
X146883428Y-92448095D01*
X146645333Y-92448095D01*
X146454857Y-92400476D01*
X146359619Y-92352857D01*
X146312000Y-92305238D01*
X146264380Y-92210000D01*
X147264380Y-91448095D02*
X146264380Y-91448095D01*
X146883428Y-91352857D02*
X147264380Y-91067142D01*
X146597714Y-91067142D02*
X146978666Y-91448095D01*
%TO.C,R1*%
D12*
X146204000Y-136669428D02*
X146004000Y-136383714D01*
X145861142Y-136669428D02*
X145861142Y-136069428D01*
X146089714Y-136069428D01*
X146146857Y-136098000D01*
X146175428Y-136126571D01*
X146204000Y-136183714D01*
X146204000Y-136269428D01*
X146175428Y-136326571D01*
X146146857Y-136355142D01*
X146089714Y-136383714D01*
X145861142Y-136383714D01*
X146775428Y-136669428D02*
X146432571Y-136669428D01*
X146604000Y-136669428D02*
X146604000Y-136069428D01*
X146546857Y-136155142D01*
X146489714Y-136212285D01*
X146432571Y-136240857D01*
D10*
X146756380Y-134929428D02*
X146756380Y-135500857D01*
X146756380Y-135215142D02*
X145756380Y-135215142D01*
X145899238Y-135310380D01*
X145994476Y-135405619D01*
X146042095Y-135500857D01*
X145756380Y-134310380D02*
X145756380Y-134215142D01*
X145804000Y-134119904D01*
X145851619Y-134072285D01*
X145946857Y-134024666D01*
X146137333Y-133977047D01*
X146375428Y-133977047D01*
X146565904Y-134024666D01*
X146661142Y-134072285D01*
X146708761Y-134119904D01*
X146756380Y-134215142D01*
X146756380Y-134310380D01*
X146708761Y-134405619D01*
X146661142Y-134453238D01*
X146565904Y-134500857D01*
X146375428Y-134548476D01*
X146137333Y-134548476D01*
X145946857Y-134500857D01*
X145851619Y-134453238D01*
X145804000Y-134405619D01*
X145756380Y-134310380D01*
X145756380Y-133358000D02*
X145756380Y-133262761D01*
X145804000Y-133167523D01*
X145851619Y-133119904D01*
X145946857Y-133072285D01*
X146137333Y-133024666D01*
X146375428Y-133024666D01*
X146565904Y-133072285D01*
X146661142Y-133119904D01*
X146708761Y-133167523D01*
X146756380Y-133262761D01*
X146756380Y-133358000D01*
X146708761Y-133453238D01*
X146661142Y-133500857D01*
X146565904Y-133548476D01*
X146375428Y-133596095D01*
X146137333Y-133596095D01*
X145946857Y-133548476D01*
X145851619Y-133500857D01*
X145804000Y-133453238D01*
X145756380Y-133358000D01*
X146756380Y-132596095D02*
X145756380Y-132596095D01*
X146375428Y-132500857D02*
X146756380Y-132215142D01*
X146089714Y-132215142D02*
X146470666Y-132596095D01*
%TO.C,J6*%
X162814095Y-103693428D02*
X163576000Y-103693428D01*
X163195047Y-104074380D02*
X163195047Y-103312476D01*
X164576000Y-104074380D02*
X164004571Y-104074380D01*
X164290285Y-104074380D02*
X164290285Y-103074380D01*
X164195047Y-103217238D01*
X164099809Y-103312476D01*
X164004571Y-103360095D01*
X164956952Y-103169619D02*
X165004571Y-103122000D01*
X165099809Y-103074380D01*
X165337904Y-103074380D01*
X165433142Y-103122000D01*
X165480761Y-103169619D01*
X165528380Y-103264857D01*
X165528380Y-103360095D01*
X165480761Y-103502952D01*
X164909333Y-104074380D01*
X165528380Y-104074380D01*
X165814095Y-103074380D02*
X166147428Y-104074380D01*
X166480761Y-103074380D01*
X162814095Y-79693428D02*
X163576000Y-79693428D01*
X164576000Y-80074380D02*
X164004571Y-80074380D01*
X164290285Y-80074380D02*
X164290285Y-79074380D01*
X164195047Y-79217238D01*
X164099809Y-79312476D01*
X164004571Y-79360095D01*
X164956952Y-79169619D02*
X165004571Y-79122000D01*
X165099809Y-79074380D01*
X165337904Y-79074380D01*
X165433142Y-79122000D01*
X165480761Y-79169619D01*
X165528380Y-79264857D01*
X165528380Y-79360095D01*
X165480761Y-79502952D01*
X164909333Y-80074380D01*
X165528380Y-80074380D01*
X165814095Y-79074380D02*
X166147428Y-80074380D01*
X166480761Y-79074380D01*
X161504571Y-81574380D02*
X161171238Y-81098190D01*
X160933142Y-81574380D02*
X160933142Y-80574380D01*
X161314095Y-80574380D01*
X161409333Y-80622000D01*
X161456952Y-80669619D01*
X161504571Y-80764857D01*
X161504571Y-80907714D01*
X161456952Y-81002952D01*
X161409333Y-81050571D01*
X161314095Y-81098190D01*
X160933142Y-81098190D01*
X161933142Y-81050571D02*
X162266476Y-81050571D01*
X162409333Y-81574380D02*
X161933142Y-81574380D01*
X161933142Y-80574380D01*
X162409333Y-80574380D01*
X162837904Y-81574380D02*
X162837904Y-80574380D01*
X163076000Y-80574380D01*
X163218857Y-80622000D01*
X163314095Y-80717238D01*
X163361714Y-80812476D01*
X163409333Y-81002952D01*
X163409333Y-81145809D01*
X163361714Y-81336285D01*
X163314095Y-81431523D01*
X163218857Y-81526761D01*
X163076000Y-81574380D01*
X162837904Y-81574380D01*
X164552190Y-81526761D02*
X164695047Y-81574380D01*
X164933142Y-81574380D01*
X165028380Y-81526761D01*
X165076000Y-81479142D01*
X165123619Y-81383904D01*
X165123619Y-81288666D01*
X165076000Y-81193428D01*
X165028380Y-81145809D01*
X164933142Y-81098190D01*
X164742666Y-81050571D01*
X164647428Y-81002952D01*
X164599809Y-80955333D01*
X164552190Y-80860095D01*
X164552190Y-80764857D01*
X164599809Y-80669619D01*
X164647428Y-80622000D01*
X164742666Y-80574380D01*
X164980761Y-80574380D01*
X165123619Y-80622000D01*
X165409333Y-80574380D02*
X165980761Y-80574380D01*
X165695047Y-81574380D02*
X165695047Y-80574380D01*
X166885523Y-81574380D02*
X166552190Y-81098190D01*
X166314095Y-81574380D02*
X166314095Y-80574380D01*
X166695047Y-80574380D01*
X166790285Y-80622000D01*
X166837904Y-80669619D01*
X166885523Y-80764857D01*
X166885523Y-80907714D01*
X166837904Y-81002952D01*
X166790285Y-81050571D01*
X166695047Y-81098190D01*
X166314095Y-81098190D01*
X167314095Y-81574380D02*
X167314095Y-80574380D01*
X167790285Y-81574380D02*
X167790285Y-80574380D01*
X168171238Y-80574380D01*
X168266476Y-80622000D01*
X168314095Y-80669619D01*
X168361714Y-80764857D01*
X168361714Y-80907714D01*
X168314095Y-81002952D01*
X168266476Y-81050571D01*
X168171238Y-81098190D01*
X167790285Y-81098190D01*
X168790285Y-81050571D02*
X169123619Y-81050571D01*
X169266476Y-81574380D02*
X168790285Y-81574380D01*
X168790285Y-80574380D01*
X169266476Y-80574380D01*
%TO.C,J5*%
X142264095Y-122229571D02*
X142406952Y-122277190D01*
X142454571Y-122324809D01*
X142502190Y-122420047D01*
X142502190Y-122562904D01*
X142454571Y-122658142D01*
X142406952Y-122705761D01*
X142311714Y-122753380D01*
X141930761Y-122753380D01*
X141930761Y-121753380D01*
X142264095Y-121753380D01*
X142359333Y-121801000D01*
X142406952Y-121848619D01*
X142454571Y-121943857D01*
X142454571Y-122039095D01*
X142406952Y-122134333D01*
X142359333Y-122181952D01*
X142264095Y-122229571D01*
X141930761Y-122229571D01*
X142930761Y-121753380D02*
X142930761Y-122562904D01*
X142978380Y-122658142D01*
X143026000Y-122705761D01*
X143121238Y-122753380D01*
X143311714Y-122753380D01*
X143406952Y-122705761D01*
X143454571Y-122658142D01*
X143502190Y-122562904D01*
X143502190Y-121753380D01*
X144311714Y-122229571D02*
X143978380Y-122229571D01*
X143978380Y-122753380D02*
X143978380Y-121753380D01*
X144454571Y-121753380D01*
X145168857Y-122229571D02*
X144835523Y-122229571D01*
X144835523Y-122753380D02*
X144835523Y-121753380D01*
X145311714Y-121753380D01*
X145692666Y-122229571D02*
X146026000Y-122229571D01*
X146168857Y-122753380D02*
X145692666Y-122753380D01*
X145692666Y-121753380D01*
X146168857Y-121753380D01*
X147168857Y-122753380D02*
X146835523Y-122277190D01*
X146597428Y-122753380D02*
X146597428Y-121753380D01*
X146978380Y-121753380D01*
X147073619Y-121801000D01*
X147121238Y-121848619D01*
X147168857Y-121943857D01*
X147168857Y-122086714D01*
X147121238Y-122181952D01*
X147073619Y-122229571D01*
X146978380Y-122277190D01*
X146597428Y-122277190D01*
%TO.C,J4*%
X168517428Y-120014952D02*
X168517428Y-119253047D01*
X168898380Y-119634000D02*
X168136476Y-119634000D01*
%TO.C,J3*%
X168517428Y-115950952D02*
X168517428Y-115189047D01*
%TO.C,J2*%
X141986333Y-128039761D02*
X142129190Y-128087380D01*
X142367285Y-128087380D01*
X142462523Y-128039761D01*
X142510142Y-127992142D01*
X142557761Y-127896904D01*
X142557761Y-127801666D01*
X142510142Y-127706428D01*
X142462523Y-127658809D01*
X142367285Y-127611190D01*
X142176809Y-127563571D01*
X142081571Y-127515952D01*
X142033952Y-127468333D01*
X141986333Y-127373095D01*
X141986333Y-127277857D01*
X142033952Y-127182619D01*
X142081571Y-127135000D01*
X142176809Y-127087380D01*
X142414904Y-127087380D01*
X142557761Y-127135000D01*
X142986333Y-128087380D02*
X142986333Y-127087380D01*
X143367285Y-127087380D01*
X143462523Y-127135000D01*
X143510142Y-127182619D01*
X143557761Y-127277857D01*
X143557761Y-127420714D01*
X143510142Y-127515952D01*
X143462523Y-127563571D01*
X143367285Y-127611190D01*
X142986333Y-127611190D01*
X144557761Y-128087380D02*
X144224428Y-127611190D01*
X143986333Y-128087380D02*
X143986333Y-127087380D01*
X144367285Y-127087380D01*
X144462523Y-127135000D01*
X144510142Y-127182619D01*
X144557761Y-127277857D01*
X144557761Y-127420714D01*
X144510142Y-127515952D01*
X144462523Y-127563571D01*
X144367285Y-127611190D01*
X143986333Y-127611190D01*
X144986333Y-127563571D02*
X145319666Y-127563571D01*
X145462523Y-128087380D02*
X144986333Y-128087380D01*
X144986333Y-127087380D01*
X145462523Y-127087380D01*
X145843476Y-127801666D02*
X146319666Y-127801666D01*
X145748238Y-128087380D02*
X146081571Y-127087380D01*
X146414904Y-128087380D01*
X146748238Y-128087380D02*
X146748238Y-127087380D01*
X146986333Y-127087380D01*
X147129190Y-127135000D01*
X147224428Y-127230238D01*
X147272047Y-127325476D01*
X147319666Y-127515952D01*
X147319666Y-127658809D01*
X147272047Y-127849285D01*
X147224428Y-127944523D01*
X147129190Y-128039761D01*
X146986333Y-128087380D01*
X146748238Y-128087380D01*
%TO.C,J1*%
X168854380Y-124602809D02*
X167854380Y-124602809D01*
X168854380Y-124126619D02*
X167854380Y-124126619D01*
X168854380Y-123555190D01*
X167854380Y-123555190D01*
%TO.C,C6*%
X153249333Y-155297142D02*
X153201714Y-155344761D01*
X153058857Y-155392380D01*
X152963619Y-155392380D01*
X152820761Y-155344761D01*
X152725523Y-155249523D01*
X152677904Y-155154285D01*
X152630285Y-154963809D01*
X152630285Y-154820952D01*
X152677904Y-154630476D01*
X152725523Y-154535238D01*
X152820761Y-154440000D01*
X152963619Y-154392380D01*
X153058857Y-154392380D01*
X153201714Y-154440000D01*
X153249333Y-154487619D01*
X154106476Y-154392380D02*
X153916000Y-154392380D01*
X153820761Y-154440000D01*
X153773142Y-154487619D01*
X153677904Y-154630476D01*
X153630285Y-154820952D01*
X153630285Y-155201904D01*
X153677904Y-155297142D01*
X153725523Y-155344761D01*
X153820761Y-155392380D01*
X154011238Y-155392380D01*
X154106476Y-155344761D01*
X154154095Y-155297142D01*
X154201714Y-155201904D01*
X154201714Y-154963809D01*
X154154095Y-154868571D01*
X154106476Y-154820952D01*
X154011238Y-154773333D01*
X153820761Y-154773333D01*
X153725523Y-154820952D01*
X153677904Y-154868571D01*
X153630285Y-154963809D01*
%TO.C,C5*%
X167891142Y-132032666D02*
X167938761Y-132080285D01*
X167986380Y-132223142D01*
X167986380Y-132318380D01*
X167938761Y-132461238D01*
X167843523Y-132556476D01*
X167748285Y-132604095D01*
X167557809Y-132651714D01*
X167414952Y-132651714D01*
X167224476Y-132604095D01*
X167129238Y-132556476D01*
X167034000Y-132461238D01*
X166986380Y-132318380D01*
X166986380Y-132223142D01*
X167034000Y-132080285D01*
X167081619Y-132032666D01*
X166986380Y-131127904D02*
X166986380Y-131604095D01*
X167462571Y-131651714D01*
X167414952Y-131604095D01*
X167367333Y-131508857D01*
X167367333Y-131270761D01*
X167414952Y-131175523D01*
X167462571Y-131127904D01*
X167557809Y-131080285D01*
X167795904Y-131080285D01*
X167891142Y-131127904D01*
X167938761Y-131175523D01*
X167986380Y-131270761D01*
X167986380Y-131508857D01*
X167938761Y-131604095D01*
X167891142Y-131651714D01*
%TO.C,C4*%
X154011333Y-100941142D02*
X153963714Y-100988761D01*
X153820857Y-101036380D01*
X153725619Y-101036380D01*
X153582761Y-100988761D01*
X153487523Y-100893523D01*
X153439904Y-100798285D01*
X153392285Y-100607809D01*
X153392285Y-100464952D01*
X153439904Y-100274476D01*
X153487523Y-100179238D01*
X153582761Y-100084000D01*
X153725619Y-100036380D01*
X153820857Y-100036380D01*
X153963714Y-100084000D01*
X154011333Y-100131619D01*
X154868476Y-100369714D02*
X154868476Y-101036380D01*
X154630380Y-99988761D02*
X154392285Y-100703047D01*
X155011333Y-100703047D01*
%TO.C,C3*%
X154011333Y-84685142D02*
X153963714Y-84732761D01*
X153820857Y-84780380D01*
X153725619Y-84780380D01*
X153582761Y-84732761D01*
X153487523Y-84637523D01*
X153439904Y-84542285D01*
X153392285Y-84351809D01*
X153392285Y-84208952D01*
X153439904Y-84018476D01*
X153487523Y-83923238D01*
X153582761Y-83828000D01*
X153725619Y-83780380D01*
X153820857Y-83780380D01*
X153963714Y-83828000D01*
X154011333Y-83875619D01*
X154344666Y-83780380D02*
X154963714Y-83780380D01*
X154630380Y-84161333D01*
X154773238Y-84161333D01*
X154868476Y-84208952D01*
X154916095Y-84256571D01*
X154963714Y-84351809D01*
X154963714Y-84589904D01*
X154916095Y-84685142D01*
X154868476Y-84732761D01*
X154773238Y-84780380D01*
X154487523Y-84780380D01*
X154392285Y-84732761D01*
X154344666Y-84685142D01*
%TO.C,C2*%
X161819142Y-74100666D02*
X161866761Y-74148285D01*
X161914380Y-74291142D01*
X161914380Y-74386380D01*
X161866761Y-74529238D01*
X161771523Y-74624476D01*
X161676285Y-74672095D01*
X161485809Y-74719714D01*
X161342952Y-74719714D01*
X161152476Y-74672095D01*
X161057238Y-74624476D01*
X160962000Y-74529238D01*
X160914380Y-74386380D01*
X160914380Y-74291142D01*
X160962000Y-74148285D01*
X161009619Y-74100666D01*
X161009619Y-73719714D02*
X160962000Y-73672095D01*
X160914380Y-73576857D01*
X160914380Y-73338761D01*
X160962000Y-73243523D01*
X161009619Y-73195904D01*
X161104857Y-73148285D01*
X161200095Y-73148285D01*
X161342952Y-73195904D01*
X161914380Y-73767333D01*
X161914380Y-73148285D01*
%TO.C,C1*%
X161819142Y-110168666D02*
X161866761Y-110216285D01*
X161914380Y-110359142D01*
X161914380Y-110454380D01*
X161866761Y-110597238D01*
X161771523Y-110692476D01*
X161676285Y-110740095D01*
X161485809Y-110787714D01*
X161342952Y-110787714D01*
X161152476Y-110740095D01*
X161057238Y-110692476D01*
X160962000Y-110597238D01*
X160914380Y-110454380D01*
X160914380Y-110359142D01*
X160962000Y-110216285D01*
X161009619Y-110168666D01*
X161914380Y-109216285D02*
X161914380Y-109787714D01*
X161914380Y-109502000D02*
X160914380Y-109502000D01*
X161057238Y-109597238D01*
X161152476Y-109692476D01*
X161200095Y-109787714D01*
%TD*%
M02*
